<?xml version="1.0" encoding="UTF-8"?>
<svg xmlns="http://www.w3.org/2000/svg" width="367" height="69">
   <defs>
      <style type="text/css">
    @namespace "http://www.w3.org/2000/svg";
    .line                 {fill: none; stroke: #262626; stroke-width: 1;}
    .bold-line            {stroke: #0A0A0A; shape-rendering: crispEdges; stroke-width: 2;}
    .thin-line            {stroke: #0F0F0F; shape-rendering: crispEdges}
    .filled               {fill: #262626; stroke: none;}
    text.terminal         {font-family: Verdana, Sans-serif;
                            font-size: 12px;
                            fill: #0A0A0A;
                            font-weight: bold;
                          }
    text.nonterminal      {font-family: Verdana, Sans-serif;
                            font-size: 12px;
                            fill: #0D0D0D;
                            font-weight: normal;
                          }
    text.regexp           {font-family: Verdana, Sans-serif;
                            font-size: 12px;
                            fill: #0F0F0F;
                            font-weight: normal;
                          }
    rect, circle, polygon {fill: #262626; stroke: #262626;}
    rect.terminal         {fill: #ffffff; stroke: #262626; stroke-width: 1;}
    rect.nonterminal      {fill: #FFFFFF; stroke: #262626; stroke-width: 1;}
    rect.text             {fill: none; stroke: none;}
    polygon.regexp        {fill: #FFFFFF; stroke: #262626; stroke-width: 1;}
  </style>
   </defs>
   <polygon points="9 17 1 13 1 21"/>
   <polygon points="17 17 9 13 9 21"/>
   <a xmlns:xlink="http://www.w3.org/1999/xlink"
      xlink:href="#table_name"
      xlink:title="table_name">
      <rect x="51" y="35" width="96" height="32"/>
      <rect x="49" y="33" width="96" height="32" class="nonterminal"/>
      <text class="nonterminal" x="59" y="53">table_name</text>
   </a>
   <rect x="167" y="35" width="24" height="32" rx="10"/>
   <rect x="165"
         y="33"
         width="24"
         height="32"
         class="terminal"
         rx="10"/>
   <text class="terminal" x="175" y="53">.</text>
   <a xmlns:xlink="http://www.w3.org/1999/xlink"
      xlink:href="#column_name"
      xlink:title="column_name">
      <rect x="231" y="3" width="108" height="32"/>
      <rect x="229" y="1" width="108" height="32" class="nonterminal"/>
      <text class="nonterminal" x="239" y="21">column_name</text>
   </a>
   <path class="line"
         d="m17 17 h2 m20 0 h10 m0 0 h150 m-180 0 h20 m160 0 h20 m-200 0 q10 0 10 10 m180 0 q0 -10 10 -10 m-190 10 v12 m180 0 v-12 m-180 12 q0 10 10 10 m160 0 q10 0 10 -10 m-170 10 h10 m96 0 h10 m0 0 h10 m24 0 h10 m20 -32 h10 m108 0 h10 m3 0 h-3"/>
   <polygon points="357 17 365 13 365 21"/>
   <polygon points="357 17 349 13 349 21"/>
</svg>
