<?xml version="1.0" encoding="UTF-8"?>
<svg xmlns="http://www.w3.org/2000/svg" width="479" height="37">
   <defs>
      <style type="text/css">
    @namespace "http://www.w3.org/2000/svg";
    .line                 {fill: none; stroke: #262626; stroke-width: 1;}
    .bold-line            {stroke: #0A0A0A; shape-rendering: crispEdges; stroke-width: 2;}
    .thin-line            {stroke: #0F0F0F; shape-rendering: crispEdges}
    .filled               {fill: #262626; stroke: none;}
    text.terminal         {font-family: Verdana, Sans-serif;
                            font-size: 12px;
                            fill: #0A0A0A;
                            font-weight: bold;
                          }
    text.nonterminal      {font-family: Verdana, Sans-serif;
                            font-size: 12px;
                            fill: #0D0D0D;
                            font-weight: normal;
                          }
    text.regexp           {font-family: Verdana, Sans-serif;
                            font-size: 12px;
                            fill: #0F0F0F;
                            font-weight: normal;
                          }
    rect, circle, polygon {fill: #262626; stroke: #262626;}
    rect.terminal         {fill: #ffffff; stroke: #262626; stroke-width: 1;}
    rect.nonterminal      {fill: #FFFFFF; stroke: #262626; stroke-width: 1;}
    rect.text             {fill: none; stroke: none;}
    polygon.regexp        {fill: #FFFFFF; stroke: #262626; stroke-width: 1;}
  </style>
   </defs>
   <polygon points="9 17 1 13 1 21"/>
   <polygon points="17 17 9 13 9 21"/>
   <a xmlns:xlink="http://www.w3.org/1999/xlink"
      xlink:href="#cte_table_name"
      xlink:title="cte_table_name">
      <rect x="31" y="3" width="122" height="32"/>
      <rect x="29" y="1" width="122" height="32" class="nonterminal"/>
      <text class="nonterminal" x="39" y="21">cte_table_name</text>
   </a>
   <rect x="173" y="3" width="38" height="32" rx="10"/>
   <rect x="171"
         y="1"
         width="38"
         height="32"
         class="terminal"
         rx="10"/>
   <text class="terminal" x="181" y="21">AS</text>
   <rect x="231" y="3" width="26" height="32" rx="10"/>
   <rect x="229"
         y="1"
         width="26"
         height="32"
         class="terminal"
         rx="10"/>
   <text class="terminal" x="239" y="21">(</text>
   <a xmlns:xlink="http://www.w3.org/1999/xlink"
      xlink:href="#select_stmt_core"
      xlink:title="select_stmt_core">
      <rect x="277" y="3" width="128" height="32"/>
      <rect x="275" y="1" width="128" height="32" class="nonterminal"/>
      <text class="nonterminal" x="285" y="21">select_stmt_core</text>
   </a>
   <rect x="425" y="3" width="26" height="32" rx="10"/>
   <rect x="423"
         y="1"
         width="26"
         height="32"
         class="terminal"
         rx="10"/>
   <text class="terminal" x="433" y="21">)</text>
   <path class="line"
         d="m17 17 h2 m0 0 h10 m122 0 h10 m0 0 h10 m38 0 h10 m0 0 h10 m26 0 h10 m0 0 h10 m128 0 h10 m0 0 h10 m26 0 h10 m3 0 h-3"/>
   <polygon points="469 17 477 13 477 21"/>
   <polygon points="469 17 461 13 461 21"/>
</svg>
