<?xml version="1.0" encoding="UTF-8"?>
<svg xmlns="http://www.w3.org/2000/svg" width="269" height="157">
   <defs>
      <style type="text/css">
    @namespace "http://www.w3.org/2000/svg";
    .line                 {fill: none; stroke: #262626; stroke-width: 1;}
    .bold-line            {stroke: #0A0A0A; shape-rendering: crispEdges; stroke-width: 2;}
    .thin-line            {stroke: #0F0F0F; shape-rendering: crispEdges}
    .filled               {fill: #262626; stroke: none;}
    text.terminal         {font-family: Verdana, Sans-serif;
                            font-size: 12px;
                            fill: #0A0A0A;
                            font-weight: bold;
                          }
    text.nonterminal      {font-family: Verdana, Sans-serif;
                            font-size: 12px;
                            fill: #0D0D0D;
                            font-weight: normal;
                          }
    text.regexp           {font-family: Verdana, Sans-serif;
                            font-size: 12px;
                            fill: #0F0F0F;
                            font-weight: normal;
                          }
    rect, circle, polygon {fill: #262626; stroke: #262626;}
    rect.terminal         {fill: #ffffff; stroke: #262626; stroke-width: 1;}
    rect.nonterminal      {fill: #FFFFFF; stroke: #262626; stroke-width: 1;}
    rect.text             {fill: none; stroke: none;}
    polygon.regexp        {fill: #FFFFFF; stroke: #262626; stroke-width: 1;}
  </style>
   </defs>
   <polygon points="9 17 1 13 1 21"/>
   <polygon points="17 17 9 13 9 21"/>
   <rect x="51" y="3" width="66" height="32" rx="10"/>
   <rect x="49"
         y="1"
         width="66"
         height="32"
         class="terminal"
         rx="10"/>
   <text class="terminal" x="59" y="21">UNION</text>
   <rect x="157" y="35" width="44" height="32" rx="10"/>
   <rect x="155"
         y="33"
         width="44"
         height="32"
         class="terminal"
         rx="10"/>
   <text class="terminal" x="165" y="53">ALL</text>
   <rect x="51" y="79" width="96" height="32" rx="10"/>
   <rect x="49"
         y="77"
         width="96"
         height="32"
         class="terminal"
         rx="10"/>
   <text class="terminal" x="59" y="97">INTERSECT</text>
   <rect x="51" y="123" width="72" height="32" rx="10"/>
   <rect x="49"
         y="121"
         width="72"
         height="32"
         class="terminal"
         rx="10"/>
   <text class="terminal" x="59" y="141">EXCEPT</text>
   <path class="line"
         d="m17 17 h2 m20 0 h10 m66 0 h10 m20 0 h10 m0 0 h54 m-84 0 h20 m64 0 h20 m-104 0 q10 0 10 10 m84 0 q0 -10 10 -10 m-94 10 v12 m84 0 v-12 m-84 12 q0 10 10 10 m64 0 q10 0 10 -10 m-74 10 h10 m44 0 h10 m-190 -32 h20 m190 0 h20 m-230 0 q10 0 10 10 m210 0 q0 -10 10 -10 m-220 10 v56 m210 0 v-56 m-210 56 q0 10 10 10 m190 0 q10 0 10 -10 m-200 10 h10 m96 0 h10 m0 0 h74 m-200 -10 v20 m210 0 v-20 m-210 20 v24 m210 0 v-24 m-210 24 q0 10 10 10 m190 0 q10 0 10 -10 m-200 10 h10 m72 0 h10 m0 0 h98 m23 -120 h-3"/>
   <polygon points="259 17 267 13 267 21"/>
   <polygon points="259 17 251 13 251 21"/>
</svg>
