<?xml version="1.0" encoding="UTF-8"?>
<svg xmlns="http://www.w3.org/2000/svg" width="455" height="97">
   <defs>
      <style type="text/css">
    @namespace "http://www.w3.org/2000/svg";
    .line                 {fill: none; stroke: #262626; stroke-width: 1;}
    .bold-line            {stroke: #0A0A0A; shape-rendering: crispEdges; stroke-width: 2;}
    .thin-line            {stroke: #0F0F0F; shape-rendering: crispEdges}
    .filled               {fill: #262626; stroke: none;}
    text.terminal         {font-family: Verdana, Sans-serif;
                            font-size: 12px;
                            fill: #0A0A0A;
                            font-weight: bold;
                          }
    text.nonterminal      {font-family: Verdana, Sans-serif;
                            font-size: 12px;
                            fill: #0D0D0D;
                            font-weight: normal;
                          }
    text.regexp           {font-family: Verdana, Sans-serif;
                            font-size: 12px;
                            fill: #0F0F0F;
                            font-weight: normal;
                          }
    rect, circle, polygon {fill: #262626; stroke: #262626;}
    rect.terminal         {fill: #ffffff; stroke: #262626; stroke-width: 1;}
    rect.nonterminal      {fill: #FFFFFF; stroke: #262626; stroke-width: 1;}
    rect.text             {fill: none; stroke: none;}
    polygon.regexp        {fill: #FFFFFF; stroke: #262626; stroke-width: 1;}
  </style>
   </defs>
   <polygon points="9 61 1 57 1 65"/>
   <polygon points="17 61 9 57 9 65"/>
   <a xmlns:xlink="http://www.w3.org/1999/xlink"
      xlink:href="#table_name"
      xlink:title="table_name">
      <rect x="31" y="47" width="96" height="32"/>
      <rect x="29" y="45" width="96" height="32" class="nonterminal"/>
      <text class="nonterminal" x="39" y="65">table_name</text>
   </a>
   <rect x="167" y="47" width="26" height="32" rx="10"/>
   <rect x="165"
         y="45"
         width="26"
         height="32"
         class="terminal"
         rx="10"/>
   <text class="terminal" x="175" y="65">(</text>
   <a xmlns:xlink="http://www.w3.org/1999/xlink"
      xlink:href="#column_name"
      xlink:title="column_name">
      <rect x="233" y="47" width="108" height="32"/>
      <rect x="231" y="45" width="108" height="32" class="nonterminal"/>
      <text class="nonterminal" x="241" y="65">column_name</text>
   </a>
   <rect x="233" y="3" width="24" height="32" rx="10"/>
   <rect x="231"
         y="1"
         width="24"
         height="32"
         class="terminal"
         rx="10"/>
   <text class="terminal" x="241" y="21">,</text>
   <rect x="381" y="47" width="26" height="32" rx="10"/>
   <rect x="379"
         y="45"
         width="26"
         height="32"
         class="terminal"
         rx="10"/>
   <text class="terminal" x="389" y="65">)</text>
   <path class="line"
         d="m17 61 h2 m0 0 h10 m96 0 h10 m20 0 h10 m26 0 h10 m20 0 h10 m108 0 h10 m-148 0 l20 0 m-1 0 q-9 0 -9 -10 l0 -24 q0 -10 10 -10 m128 44 l20 0 m-20 0 q10 0 10 -10 l0 -24 q0 -10 -10 -10 m-128 0 h10 m24 0 h10 m0 0 h84 m20 44 h10 m26 0 h10 m-280 0 h20 m260 0 h20 m-300 0 q10 0 10 10 m280 0 q0 -10 10 -10 m-290 10 v14 m280 0 v-14 m-280 14 q0 10 10 10 m260 0 q10 0 10 -10 m-270 10 h10 m0 0 h250 m23 -34 h-3"/>
   <polygon points="445 61 453 57 453 65"/>
   <polygon points="445 61 437 57 437 65"/>
</svg>
