<?xml version="1.0" encoding="UTF-8"?>
<svg xmlns="http://www.w3.org/2000/svg" width="981" height="69">
   <defs>
      <style type="text/css">
    @namespace "http://www.w3.org/2000/svg";
    .line                 {fill: none; stroke: #262626; stroke-width: 1;}
    .bold-line            {stroke: #0A0A0A; shape-rendering: crispEdges; stroke-width: 2;}
    .thin-line            {stroke: #0F0F0F; shape-rendering: crispEdges}
    .filled               {fill: #262626; stroke: none;}
    text.terminal         {font-family: Verdana, Sans-serif;
                            font-size: 12px;
                            fill: #0A0A0A;
                            font-weight: bold;
                          }
    text.nonterminal      {font-family: Verdana, Sans-serif;
                            font-size: 12px;
                            fill: #0D0D0D;
                            font-weight: normal;
                          }
    text.regexp           {font-family: Verdana, Sans-serif;
                            font-size: 12px;
                            fill: #0F0F0F;
                            font-weight: normal;
                          }
    rect, circle, polygon {fill: #262626; stroke: #262626;}
    rect.terminal         {fill: #ffffff; stroke: #262626; stroke-width: 1;}
    rect.nonterminal      {fill: #FFFFFF; stroke: #262626; stroke-width: 1;}
    rect.text             {fill: none; stroke: none;}
    polygon.regexp        {fill: #FFFFFF; stroke: #262626; stroke-width: 1;}
  </style>
   </defs>
   <polygon points="9 17 1 13 1 21"/>
   <polygon points="17 17 9 13 9 21"/>
   <a xmlns:xlink="http://www.w3.org/1999/xlink"
      xlink:href="#common_table_stmt"
      xlink:title="common_table_stmt">
      <rect x="51" y="35" width="150" height="32"/>
      <rect x="49" y="33" width="150" height="32" class="nonterminal"/>
      <text class="nonterminal" x="59" y="53">common_table_stmt</text>
   </a>
   <rect x="241" y="3" width="70" height="32" rx="10"/>
   <rect x="239"
         y="1"
         width="70"
         height="32"
         class="terminal"
         rx="10"/>
   <text class="terminal" x="249" y="21">DELETE</text>
   <rect x="331" y="3" width="60" height="32" rx="10"/>
   <rect x="329"
         y="1"
         width="60"
         height="32"
         class="terminal"
         rx="10"/>
   <text class="terminal" x="339" y="21">FROM</text>
   <a xmlns:xlink="http://www.w3.org/1999/xlink"
      xlink:href="#qualified_table_name"
      xlink:title="qualified_table_name">
      <rect x="411" y="3" width="158" height="32"/>
      <rect x="409" y="1" width="158" height="32" class="nonterminal"/>
      <text class="nonterminal" x="419" y="21">qualified_table_name</text>
   </a>
   <rect x="609" y="35" width="70" height="32" rx="10"/>
   <rect x="607"
         y="33"
         width="70"
         height="32"
         class="terminal"
         rx="10"/>
   <text class="terminal" x="617" y="53">WHERE</text>
   <a xmlns:xlink="http://www.w3.org/1999/xlink"
      xlink:href="#expr"
      xlink:title="expr">
      <rect x="699" y="35" width="48" height="32"/>
      <rect x="697" y="33" width="48" height="32" class="nonterminal"/>
      <text class="nonterminal" x="707" y="53">expr</text>
   </a>
   <a xmlns:xlink="http://www.w3.org/1999/xlink"
      xlink:href="#returning_clause"
      xlink:title="returning_clause">
      <rect x="807" y="35" width="126" height="32"/>
      <rect x="805" y="33" width="126" height="32" class="nonterminal"/>
      <text class="nonterminal" x="815" y="53">returning_clause</text>
   </a>
   <path class="line"
         d="m17 17 h2 m20 0 h10 m0 0 h160 m-190 0 h20 m170 0 h20 m-210 0 q10 0 10 10 m190 0 q0 -10 10 -10 m-200 10 v12 m190 0 v-12 m-190 12 q0 10 10 10 m170 0 q10 0 10 -10 m-180 10 h10 m150 0 h10 m20 -32 h10 m70 0 h10 m0 0 h10 m60 0 h10 m0 0 h10 m158 0 h10 m20 0 h10 m0 0 h148 m-178 0 h20 m158 0 h20 m-198 0 q10 0 10 10 m178 0 q0 -10 10 -10 m-188 10 v12 m178 0 v-12 m-178 12 q0 10 10 10 m158 0 q10 0 10 -10 m-168 10 h10 m70 0 h10 m0 0 h10 m48 0 h10 m40 -32 h10 m0 0 h136 m-166 0 h20 m146 0 h20 m-186 0 q10 0 10 10 m166 0 q0 -10 10 -10 m-176 10 v12 m166 0 v-12 m-166 12 q0 10 10 10 m146 0 q10 0 10 -10 m-156 10 h10 m126 0 h10 m23 -32 h-3"/>
   <polygon points="971 17 979 13 979 21"/>
   <polygon points="971 17 963 13 963 21"/>
</svg>
