<?xml version="1.0" encoding="UTF-8"?>
<svg xmlns="http://www.w3.org/2000/svg" width="715" height="1451">
   <defs>
      <style type="text/css">
    @namespace "http://www.w3.org/2000/svg";
    .line                 {fill: none; stroke: #262626; stroke-width: 1;}
    .bold-line            {stroke: #0A0A0A; shape-rendering: crispEdges; stroke-width: 2;}
    .thin-line            {stroke: #0F0F0F; shape-rendering: crispEdges}
    .filled               {fill: #262626; stroke: none;}
    text.terminal         {font-family: Verdana, Sans-serif;
                            font-size: 12px;
                            fill: #0A0A0A;
                            font-weight: bold;
                          }
    text.nonterminal      {font-family: Verdana, Sans-serif;
                            font-size: 12px;
                            fill: #0D0D0D;
                            font-weight: normal;
                          }
    text.regexp           {font-family: Verdana, Sans-serif;
                            font-size: 12px;
                            fill: #0F0F0F;
                            font-weight: normal;
                          }
    rect, circle, polygon {fill: #262626; stroke: #262626;}
    rect.terminal         {fill: #ffffff; stroke: #262626; stroke-width: 1;}
    rect.nonterminal      {fill: #FFFFFF; stroke: #262626; stroke-width: 1;}
    rect.text             {fill: none; stroke: none;}
    polygon.regexp        {fill: #FFFFFF; stroke: #262626; stroke-width: 1;}
  </style>
   </defs>
   <polygon points="9 17 1 13 1 21"/>
   <polygon points="17 17 9 13 9 21"/>
   <a xmlns:xlink="http://www.w3.org/1999/xlink"
      xlink:href="#literal"
      xlink:title="literal">
      <rect x="71" y="3" width="56" height="32"/>
      <rect x="69" y="1" width="56" height="32" class="nonterminal"/>
      <text class="nonterminal" x="79" y="21">literal</text>
   </a>
   <a xmlns:xlink="http://www.w3.org/1999/xlink"
      xlink:href="#variable"
      xlink:title="variable">
      <rect x="71" y="47" width="70" height="32"/>
      <rect x="69" y="45" width="70" height="32" class="nonterminal"/>
      <text class="nonterminal" x="79" y="65">variable</text>
   </a>
   <a xmlns:xlink="http://www.w3.org/1999/xlink"
      xlink:href="#column_ref"
      xlink:title="column_ref">
      <rect x="71" y="91" width="90" height="32"/>
      <rect x="69" y="89" width="90" height="32" class="nonterminal"/>
      <text class="nonterminal" x="79" y="109">column_ref</text>
   </a>
   <a xmlns:xlink="http://www.w3.org/1999/xlink"
      xlink:href="#function_call"
      xlink:title="function_call">
      <rect x="71" y="135" width="100" height="32"/>
      <rect x="69" y="133" width="100" height="32" class="nonterminal"/>
      <text class="nonterminal" x="79" y="153">function_call</text>
   </a>
   <a xmlns:xlink="http://www.w3.org/1999/xlink"
      xlink:href="#type_cast"
      xlink:title="type_cast">
      <rect x="231" y="35" width="82" height="32"/>
      <rect x="229" y="33" width="82" height="32" class="nonterminal"/>
      <text class="nonterminal" x="239" y="53">type_cast</text>
   </a>
   <rect x="71" y="179" width="26" height="32" rx="10"/>
   <rect x="69"
         y="177"
         width="26"
         height="32"
         class="terminal"
         rx="10"/>
   <text class="terminal" x="79" y="197">-</text>
   <rect x="71" y="223" width="30" height="32" rx="10"/>
   <rect x="69"
         y="221"
         width="30"
         height="32"
         class="terminal"
         rx="10"/>
   <text class="terminal" x="79" y="241">+</text>
   <rect x="71" y="267" width="48" height="32" rx="10"/>
   <rect x="69"
         y="265"
         width="48"
         height="32"
         class="terminal"
         rx="10"/>
   <text class="terminal" x="79" y="285">NOT</text>
   <a xmlns:xlink="http://www.w3.org/1999/xlink"
      xlink:href="#expr"
      xlink:title="expr">
      <rect x="159" y="179" width="48" height="32"/>
      <rect x="157" y="177" width="48" height="32" class="nonterminal"/>
      <text class="nonterminal" x="167" y="197">expr</text>
   </a>
   <a xmlns:xlink="http://www.w3.org/1999/xlink"
      xlink:href="#expr"
      xlink:title="expr">
      <rect x="51" y="311" width="48" height="32"/>
      <rect x="49" y="309" width="48" height="32" class="nonterminal"/>
      <text class="nonterminal" x="59" y="329">expr</text>
   </a>
   <rect x="139" y="311" width="82" height="32" rx="10"/>
   <rect x="137"
         y="309"
         width="82"
         height="32"
         class="terminal"
         rx="10"/>
   <text class="terminal" x="147" y="329">COLLATE</text>
   <a xmlns:xlink="http://www.w3.org/1999/xlink"
      xlink:href="#collation_name"
      xlink:title="collation_name">
      <rect x="241" y="311" width="116" height="32"/>
      <rect x="239" y="309" width="116" height="32" class="nonterminal"/>
      <text class="nonterminal" x="249" y="329">collation_name</text>
   </a>
   <rect x="159" y="355" width="28" height="32" rx="10"/>
   <rect x="157"
         y="353"
         width="28"
         height="32"
         class="terminal"
         rx="10"/>
   <text class="terminal" x="167" y="373">*</text>
   <rect x="159" y="399" width="28" height="32" rx="10"/>
   <rect x="157"
         y="397"
         width="28"
         height="32"
         class="terminal"
         rx="10"/>
   <text class="terminal" x="167" y="417">/</text>
   <rect x="159" y="443" width="34" height="32" rx="10"/>
   <rect x="157"
         y="441"
         width="34"
         height="32"
         class="terminal"
         rx="10"/>
   <text class="terminal" x="167" y="461">%</text>
   <rect x="159" y="487" width="30" height="32" rx="10"/>
   <rect x="157"
         y="485"
         width="30"
         height="32"
         class="terminal"
         rx="10"/>
   <text class="terminal" x="167" y="505">+</text>
   <rect x="159" y="531" width="26" height="32" rx="10"/>
   <rect x="157"
         y="529"
         width="26"
         height="32"
         class="terminal"
         rx="10"/>
   <text class="terminal" x="167" y="549">-</text>
   <a xmlns:xlink="http://www.w3.org/1999/xlink"
      xlink:href="#comparisonOperator"
      xlink:title="comparisonOperator">
      <rect x="159" y="575" width="150" height="32"/>
      <rect x="157" y="573" width="150" height="32" class="nonterminal"/>
      <text class="nonterminal" x="167" y="593">comparisonOperator</text>
   </a>
   <rect x="159" y="619" width="48" height="32" rx="10"/>
   <rect x="157"
         y="617"
         width="48"
         height="32"
         class="terminal"
         rx="10"/>
   <text class="terminal" x="167" y="637">AND</text>
   <rect x="159" y="663" width="40" height="32" rx="10"/>
   <rect x="157"
         y="661"
         width="40"
         height="32"
         class="terminal"
         rx="10"/>
   <text class="terminal" x="167" y="681">OR</text>
   <a xmlns:xlink="http://www.w3.org/1999/xlink"
      xlink:href="#expr"
      xlink:title="expr">
      <rect x="349" y="355" width="48" height="32"/>
      <rect x="347" y="353" width="48" height="32" class="nonterminal"/>
      <text class="nonterminal" x="357" y="373">expr</text>
   </a>
   <rect x="159" y="739" width="48" height="32" rx="10"/>
   <rect x="157"
         y="737"
         width="48"
         height="32"
         class="terminal"
         rx="10"/>
   <text class="terminal" x="167" y="757">NOT</text>
   <rect x="267" y="707" width="36" height="32" rx="10"/>
   <rect x="265"
         y="705"
         width="36"
         height="32"
         class="terminal"
         rx="10"/>
   <text class="terminal" x="275" y="725">IN</text>
   <a xmlns:xlink="http://www.w3.org/1999/xlink"
      xlink:href="#subquery"
      xlink:title="subquery">
      <rect x="343" y="707" width="78" height="32"/>
      <rect x="341" y="705" width="78" height="32" class="nonterminal"/>
      <text class="nonterminal" x="351" y="725">subquery</text>
   </a>
   <rect x="343" y="751" width="26" height="32" rx="10"/>
   <rect x="341"
         y="749"
         width="26"
         height="32"
         class="terminal"
         rx="10"/>
   <text class="terminal" x="351" y="769">(</text>
   <a xmlns:xlink="http://www.w3.org/1999/xlink"
      xlink:href="#expr_list"
      xlink:title="expr_list">
      <rect x="389" y="751" width="74" height="32"/>
      <rect x="387" y="749" width="74" height="32" class="nonterminal"/>
      <text class="nonterminal" x="397" y="769">expr_list</text>
   </a>
   <rect x="483" y="751" width="26" height="32" rx="10"/>
   <rect x="481"
         y="749"
         width="26"
         height="32"
         class="terminal"
         rx="10"/>
   <text class="terminal" x="491" y="769">)</text>
   <rect x="287" y="795" width="86" height="32" rx="10"/>
   <rect x="285"
         y="793"
         width="86"
         height="32"
         class="terminal"
         rx="10"/>
   <text class="terminal" x="295" y="813">BETWEEN</text>
   <a xmlns:xlink="http://www.w3.org/1999/xlink"
      xlink:href="#expr"
      xlink:title="expr">
      <rect x="393" y="795" width="48" height="32"/>
      <rect x="391" y="793" width="48" height="32" class="nonterminal"/>
      <text class="nonterminal" x="401" y="813">expr</text>
   </a>
   <rect x="461" y="795" width="48" height="32" rx="10"/>
   <rect x="459"
         y="793"
         width="48"
         height="32"
         class="terminal"
         rx="10"/>
   <text class="terminal" x="469" y="813">AND</text>
   <rect x="287" y="839" width="52" height="32" rx="10"/>
   <rect x="285"
         y="837"
         width="52"
         height="32"
         class="terminal"
         rx="10"/>
   <text class="terminal" x="295" y="857">LIKE</text>
   <a xmlns:xlink="http://www.w3.org/1999/xlink"
      xlink:href="#expr"
      xlink:title="expr">
      <rect x="379" y="871" width="48" height="32"/>
      <rect x="377" y="869" width="48" height="32" class="nonterminal"/>
      <text class="nonterminal" x="387" y="889">expr</text>
   </a>
   <rect x="447" y="871" width="72" height="32" rx="10"/>
   <rect x="445"
         y="869"
         width="72"
         height="32"
         class="terminal"
         rx="10"/>
   <text class="terminal" x="455" y="889">ESCAPE</text>
   <a xmlns:xlink="http://www.w3.org/1999/xlink"
      xlink:href="#expr"
      xlink:title="expr">
      <rect x="579" y="795" width="48" height="32"/>
      <rect x="577" y="793" width="48" height="32" class="nonterminal"/>
      <text class="nonterminal" x="587" y="813">expr</text>
   </a>
   <rect x="139" y="915" width="36" height="32" rx="10"/>
   <rect x="137"
         y="913"
         width="36"
         height="32"
         class="terminal"
         rx="10"/>
   <text class="terminal" x="147" y="933">IS</text>
   <rect x="215" y="947" width="48" height="32" rx="10"/>
   <rect x="213"
         y="945"
         width="48"
         height="32"
         class="terminal"
         rx="10"/>
   <text class="terminal" x="223" y="965">NOT</text>
   <rect x="323" y="915" width="86" height="32" rx="10"/>
   <rect x="321"
         y="913"
         width="86"
         height="32"
         class="terminal"
         rx="10"/>
   <text class="terminal" x="331" y="933">DISTINCT</text>
   <rect x="429" y="915" width="60" height="32" rx="10"/>
   <rect x="427"
         y="913"
         width="60"
         height="32"
         class="terminal"
         rx="10"/>
   <text class="terminal" x="437" y="933">FROM</text>
   <a xmlns:xlink="http://www.w3.org/1999/xlink"
      xlink:href="#expr"
      xlink:title="expr">
      <rect x="509" y="915" width="48" height="32"/>
      <rect x="507" y="913" width="48" height="32" class="nonterminal"/>
      <text class="nonterminal" x="517" y="933">expr</text>
   </a>
   <a xmlns:xlink="http://www.w3.org/1999/xlink"
      xlink:href="#boolean_value"
      xlink:title="boolean_value">
      <rect x="323" y="959" width="114" height="32"/>
      <rect x="321" y="957" width="114" height="32" class="nonterminal"/>
      <text class="nonterminal" x="331" y="977">boolean_value</text>
   </a>
   <rect x="323" y="1003" width="56" height="32" rx="10"/>
   <rect x="321"
         y="1001"
         width="56"
         height="32"
         class="terminal"
         rx="10"/>
   <text class="terminal" x="331" y="1021">NULL</text>
   <rect x="139" y="1047" width="70" height="32" rx="10"/>
   <rect x="137"
         y="1045"
         width="70"
         height="32"
         class="terminal"
         rx="10"/>
   <text class="terminal" x="147" y="1065">ISNULL</text>
   <rect x="139" y="1091" width="84" height="32" rx="10"/>
   <rect x="137"
         y="1089"
         width="84"
         height="32"
         class="terminal"
         rx="10"/>
   <text class="terminal" x="147" y="1109">NOTNULL</text>
   <rect x="51" y="1135" width="26" height="32" rx="10"/>
   <rect x="49"
         y="1133"
         width="26"
         height="32"
         class="terminal"
         rx="10"/>
   <text class="terminal" x="59" y="1153">(</text>
   <a xmlns:xlink="http://www.w3.org/1999/xlink"
      xlink:href="#expr"
      xlink:title="expr">
      <rect x="117" y="1135" width="48" height="32"/>
      <rect x="115" y="1133" width="48" height="32" class="nonterminal"/>
      <text class="nonterminal" x="125" y="1153">expr</text>
   </a>
   <rect x="185" y="1135" width="26" height="32" rx="10"/>
   <rect x="183"
         y="1133"
         width="26"
         height="32"
         class="terminal"
         rx="10"/>
   <text class="terminal" x="193" y="1153">)</text>
   <a xmlns:xlink="http://www.w3.org/1999/xlink"
      xlink:href="#type_cast"
      xlink:title="type_cast">
      <rect x="251" y="1167" width="82" height="32"/>
      <rect x="249" y="1165" width="82" height="32" class="nonterminal"/>
      <text class="nonterminal" x="259" y="1185">type_cast</text>
   </a>
   <a xmlns:xlink="http://www.w3.org/1999/xlink"
      xlink:href="#expr_list"
      xlink:title="expr_list">
      <rect x="117" y="1211" width="74" height="32"/>
      <rect x="115" y="1209" width="74" height="32" class="nonterminal"/>
      <text class="nonterminal" x="125" y="1229">expr_list</text>
   </a>
   <rect x="211" y="1211" width="26" height="32" rx="10"/>
   <rect x="209"
         y="1209"
         width="26"
         height="32"
         class="terminal"
         rx="10"/>
   <text class="terminal" x="219" y="1229">)</text>
   <rect x="91" y="1319" width="48" height="32" rx="10"/>
   <rect x="89"
         y="1317"
         width="48"
         height="32"
         class="terminal"
         rx="10"/>
   <text class="terminal" x="99" y="1337">NOT</text>
   <rect x="179" y="1287" width="70" height="32" rx="10"/>
   <rect x="177"
         y="1285"
         width="70"
         height="32"
         class="terminal"
         rx="10"/>
   <text class="terminal" x="187" y="1305">EXISTS</text>
   <a xmlns:xlink="http://www.w3.org/1999/xlink"
      xlink:href="#subquery"
      xlink:title="subquery">
      <rect x="289" y="1255" width="78" height="32"/>
      <rect x="287" y="1253" width="78" height="32" class="nonterminal"/>
      <text class="nonterminal" x="297" y="1273">subquery</text>
   </a>
   <rect x="51" y="1385" width="56" height="32" rx="10"/>
   <rect x="49"
         y="1383"
         width="56"
         height="32"
         class="terminal"
         rx="10"/>
   <text class="terminal" x="59" y="1403">CASE</text>
   <a xmlns:xlink="http://www.w3.org/1999/xlink"
      xlink:href="#expr"
      xlink:title="expr">
      <rect x="147" y="1417" width="48" height="32"/>
      <rect x="145" y="1415" width="48" height="32" class="nonterminal"/>
      <text class="nonterminal" x="155" y="1435">expr</text>
   </a>
   <a xmlns:xlink="http://www.w3.org/1999/xlink"
      xlink:href="#when_clause"
      xlink:title="when_clause">
      <rect x="255" y="1385" width="102" height="32"/>
      <rect x="253"
            y="1383"
            width="102"
            height="32"
            class="nonterminal"/>
      <text class="nonterminal" x="263" y="1403">when_clause</text>
   </a>
   <rect x="417" y="1417" width="52" height="32" rx="10"/>
   <rect x="415"
         y="1415"
         width="52"
         height="32"
         class="terminal"
         rx="10"/>
   <text class="terminal" x="425" y="1435">ELSE</text>
   <a xmlns:xlink="http://www.w3.org/1999/xlink"
      xlink:href="#expr"
      xlink:title="expr">
      <rect x="489" y="1417" width="48" height="32"/>
      <rect x="487" y="1415" width="48" height="32" class="nonterminal"/>
      <text class="nonterminal" x="497" y="1435">expr</text>
   </a>
   <rect x="577" y="1385" width="48" height="32" rx="10"/>
   <rect x="575"
         y="1383"
         width="48"
         height="32"
         class="terminal"
         rx="10"/>
   <text class="terminal" x="585" y="1403">END</text>
   <path class="line"
         d="m17 17 h2 m40 0 h10 m56 0 h10 m0 0 h44 m-140 0 h20 m120 0 h20 m-160 0 q10 0 10 10 m140 0 q0 -10 10 -10 m-150 10 v24 m140 0 v-24 m-140 24 q0 10 10 10 m120 0 q10 0 10 -10 m-130 10 h10 m70 0 h10 m0 0 h30 m-130 -10 v20 m140 0 v-20 m-140 20 v24 m140 0 v-24 m-140 24 q0 10 10 10 m120 0 q10 0 10 -10 m-130 10 h10 m90 0 h10 m0 0 h10 m-130 -10 v20 m140 0 v-20 m-140 20 v24 m140 0 v-24 m-140 24 q0 10 10 10 m120 0 q10 0 10 -10 m-130 10 h10 m100 0 h10 m40 -132 h10 m0 0 h92 m-122 0 h20 m102 0 h20 m-142 0 q10 0 10 10 m122 0 q0 -10 10 -10 m-132 10 v12 m122 0 v-12 m-122 12 q0 10 10 10 m102 0 q10 0 10 -10 m-112 10 h10 m82 0 h10 m20 -32 h334 m-656 0 h20 m636 0 h20 m-676 0 q10 0 10 10 m656 0 q0 -10 10 -10 m-666 10 v156 m656 0 v-156 m-656 156 q0 10 10 10 m636 0 q10 0 10 -10 m-626 10 h10 m26 0 h10 m0 0 h22 m-88 0 h20 m68 0 h20 m-108 0 q10 0 10 10 m88 0 q0 -10 10 -10 m-98 10 v24 m88 0 v-24 m-88 24 q0 10 10 10 m68 0 q10 0 10 -10 m-78 10 h10 m30 0 h10 m0 0 h18 m-78 -10 v20 m88 0 v-20 m-88 20 v24 m88 0 v-24 m-88 24 q0 10 10 10 m68 0 q10 0 10 -10 m-78 10 h10 m48 0 h10 m20 -88 h10 m48 0 h10 m0 0 h460 m-646 -10 v20 m656 0 v-20 m-656 20 v112 m656 0 v-112 m-656 112 q0 10 10 10 m636 0 q10 0 10 -10 m-646 10 h10 m48 0 h10 m20 0 h10 m82 0 h10 m0 0 h10 m116 0 h10 m0 0 h290 m-548 0 h20 m528 0 h20 m-568 0 q10 0 10 10 m548 0 q0 -10 10 -10 m-558 10 v24 m548 0 v-24 m-548 24 q0 10 10 10 m528 0 q10 0 10 -10 m-518 10 h10 m28 0 h10 m0 0 h122 m-190 0 h20 m170 0 h20 m-210 0 q10 0 10 10 m190 0 q0 -10 10 -10 m-200 10 v24 m190 0 v-24 m-190 24 q0 10 10 10 m170 0 q10 0 10 -10 m-180 10 h10 m28 0 h10 m0 0 h122 m-180 -10 v20 m190 0 v-20 m-190 20 v24 m190 0 v-24 m-190 24 q0 10 10 10 m170 0 q10 0 10 -10 m-180 10 h10 m34 0 h10 m0 0 h116 m-180 -10 v20 m190 0 v-20 m-190 20 v24 m190 0 v-24 m-190 24 q0 10 10 10 m170 0 q10 0 10 -10 m-180 10 h10 m30 0 h10 m0 0 h120 m-180 -10 v20 m190 0 v-20 m-190 20 v24 m190 0 v-24 m-190 24 q0 10 10 10 m170 0 q10 0 10 -10 m-180 10 h10 m26 0 h10 m0 0 h124 m-180 -10 v20 m190 0 v-20 m-190 20 v24 m190 0 v-24 m-190 24 q0 10 10 10 m170 0 q10 0 10 -10 m-180 10 h10 m150 0 h10 m-180 -10 v20 m190 0 v-20 m-190 20 v24 m190 0 v-24 m-190 24 q0 10 10 10 m170 0 q10 0 10 -10 m-180 10 h10 m48 0 h10 m0 0 h102 m-180 -10 v20 m190 0 v-20 m-190 20 v24 m190 0 v-24 m-190 24 q0 10 10 10 m170 0 q10 0 10 -10 m-180 10 h10 m40 0 h10 m0 0 h110 m20 -308 h10 m48 0 h10 m0 0 h250 m-538 -10 v20 m548 0 v-20 m-548 20 v332 m548 0 v-332 m-548 332 q0 10 10 10 m528 0 q10 0 10 -10 m-518 10 h10 m0 0 h58 m-88 0 h20 m68 0 h20 m-108 0 q10 0 10 10 m88 0 q0 -10 10 -10 m-98 10 v12 m88 0 v-12 m-88 12 q0 10 10 10 m68 0 q10 0 10 -10 m-78 10 h10 m48 0 h10 m40 -32 h10 m36 0 h10 m20 0 h10 m78 0 h10 m0 0 h88 m-206 0 h20 m186 0 h20 m-226 0 q10 0 10 10 m206 0 q0 -10 10 -10 m-216 10 v24 m206 0 v-24 m-206 24 q0 10 10 10 m186 0 q10 0 10 -10 m-196 10 h10 m26 0 h10 m0 0 h10 m74 0 h10 m0 0 h10 m26 0 h10 m20 -44 h98 m-400 0 h20 m380 0 h20 m-420 0 q10 0 10 10 m400 0 q0 -10 10 -10 m-410 10 v68 m400 0 v-68 m-400 68 q0 10 10 10 m380 0 q10 0 10 -10 m-370 10 h10 m86 0 h10 m0 0 h10 m48 0 h10 m0 0 h10 m48 0 h10 m0 0 h30 m-292 0 h20 m272 0 h20 m-312 0 q10 0 10 10 m292 0 q0 -10 10 -10 m-302 10 v24 m292 0 v-24 m-292 24 q0 10 10 10 m272 0 q10 0 10 -10 m-282 10 h10 m52 0 h10 m20 0 h10 m0 0 h150 m-180 0 h20 m160 0 h20 m-200 0 q10 0 10 10 m180 0 q0 -10 10 -10 m-190 10 v12 m180 0 v-12 m-180 12 q0 10 10 10 m160 0 q10 0 10 -10 m-170 10 h10 m48 0 h10 m0 0 h10 m72 0 h10 m40 -76 h10 m48 0 h10 m-518 -98 v20 m548 0 v-20 m-548 20 v188 m548 0 v-188 m-548 188 q0 10 10 10 m528 0 q10 0 10 -10 m-538 10 h10 m36 0 h10 m20 0 h10 m0 0 h58 m-88 0 h20 m68 0 h20 m-108 0 q10 0 10 10 m88 0 q0 -10 10 -10 m-98 10 v12 m88 0 v-12 m-88 12 q0 10 10 10 m68 0 q10 0 10 -10 m-78 10 h10 m48 0 h10 m40 -32 h10 m86 0 h10 m0 0 h10 m60 0 h10 m0 0 h10 m48 0 h10 m-274 0 h20 m254 0 h20 m-294 0 q10 0 10 10 m274 0 q0 -10 10 -10 m-284 10 v24 m274 0 v-24 m-274 24 q0 10 10 10 m254 0 q10 0 10 -10 m-264 10 h10 m114 0 h10 m0 0 h120 m-264 -10 v20 m274 0 v-20 m-274 20 v24 m274 0 v-24 m-274 24 q0 10 10 10 m254 0 q10 0 10 -10 m-264 10 h10 m56 0 h10 m0 0 h178 m20 -88 h70 m-538 -10 v20 m548 0 v-20 m-548 20 v112 m548 0 v-112 m-548 112 q0 10 10 10 m528 0 q10 0 10 -10 m-538 10 h10 m70 0 h10 m0 0 h438 m-538 -10 v20 m548 0 v-20 m-548 20 v24 m548 0 v-24 m-548 24 q0 10 10 10 m528 0 q10 0 10 -10 m-538 10 h10 m84 0 h10 m0 0 h424 m-626 -790 v20 m656 0 v-20 m-656 20 v804 m656 0 v-804 m-656 804 q0 10 10 10 m636 0 q10 0 10 -10 m-646 10 h10 m26 0 h10 m20 0 h10 m48 0 h10 m0 0 h10 m26 0 h10 m20 0 h10 m0 0 h92 m-122 0 h20 m102 0 h20 m-142 0 q10 0 10 10 m122 0 q0 -10 10 -10 m-132 10 v12 m122 0 v-12 m-122 12 q0 10 10 10 m102 0 q10 0 10 -10 m-112 10 h10 m82 0 h10 m-256 -32 h20 m256 0 h20 m-296 0 q10 0 10 10 m276 0 q0 -10 10 -10 m-286 10 v56 m276 0 v-56 m-276 56 q0 10 10 10 m256 0 q10 0 10 -10 m-266 10 h10 m74 0 h10 m0 0 h10 m26 0 h10 m0 0 h116 m20 -76 h294 m-646 -10 v20 m656 0 v-20 m-656 20 v100 m656 0 v-100 m-656 100 q0 10 10 10 m636 0 q10 0 10 -10 m-626 10 h10 m0 0 h188 m-218 0 h20 m198 0 h20 m-238 0 q10 0 10 10 m218 0 q0 -10 10 -10 m-228 10 v12 m218 0 v-12 m-218 12 q0 10 10 10 m198 0 q10 0 10 -10 m-188 10 h10 m0 0 h58 m-88 0 h20 m68 0 h20 m-108 0 q10 0 10 10 m88 0 q0 -10 10 -10 m-98 10 v12 m88 0 v-12 m-88 12 q0 10 10 10 m68 0 q10 0 10 -10 m-78 10 h10 m48 0 h10 m20 -32 h10 m70 0 h10 m20 -32 h10 m78 0 h10 m0 0 h300 m-646 -10 v20 m656 0 v-20 m-656 20 v110 m656 0 v-110 m-656 110 q0 10 10 10 m636 0 q10 0 10 -10 m-646 10 h10 m56 0 h10 m20 0 h10 m0 0 h58 m-88 0 h20 m68 0 h20 m-108 0 q10 0 10 10 m88 0 q0 -10 10 -10 m-98 10 v12 m88 0 v-12 m-88 12 q0 10 10 10 m68 0 q10 0 10 -10 m-78 10 h10 m48 0 h10 m40 -32 h10 m102 0 h10 m-142 0 l20 0 m-1 0 q-9 0 -9 -10 l0 -12 q0 -10 10 -10 m122 32 l20 0 m-20 0 q10 0 10 -10 l0 -12 q0 -10 -10 -10 m-122 0 h10 m0 0 h112 m40 32 h10 m0 0 h130 m-160 0 h20 m140 0 h20 m-180 0 q10 0 10 10 m160 0 q0 -10 10 -10 m-170 10 v12 m160 0 v-12 m-160 12 q0 10 10 10 m140 0 q10 0 10 -10 m-150 10 h10 m52 0 h10 m0 0 h10 m48 0 h10 m20 -32 h10 m48 0 h10 m0 0 h42 m23 -1382 h-3"/>
   <polygon points="705 17 713 13 713 21"/>
   <polygon points="705 17 697 13 697 21"/>
</svg>
