<?xml version="1.0" encoding="UTF-8"?>
<svg xmlns="http://www.w3.org/2000/svg" width="559" height="173">
   <defs>
      <style type="text/css">
    @namespace "http://www.w3.org/2000/svg";
    .line                 {fill: none; stroke: #262626; stroke-width: 1;}
    .bold-line            {stroke: #0A0A0A; shape-rendering: crispEdges; stroke-width: 2;}
    .thin-line            {stroke: #0F0F0F; shape-rendering: crispEdges}
    .filled               {fill: #262626; stroke: none;}
    text.terminal         {font-family: Verdana, Sans-serif;
                            font-size: 12px;
                            fill: #0A0A0A;
                            font-weight: bold;
                          }
    text.nonterminal      {font-family: Verdana, Sans-serif;
                            font-size: 12px;
                            fill: #0D0D0D;
                            font-weight: normal;
                          }
    text.regexp           {font-family: Verdana, Sans-serif;
                            font-size: 12px;
                            fill: #0F0F0F;
                            font-weight: normal;
                          }
    rect, circle, polygon {fill: #262626; stroke: #262626;}
    rect.terminal         {fill: #ffffff; stroke: #262626; stroke-width: 1;}
    rect.nonterminal      {fill: #FFFFFF; stroke: #262626; stroke-width: 1;}
    rect.text             {fill: none; stroke: none;}
    polygon.regexp        {fill: #FFFFFF; stroke: #262626; stroke-width: 1;}
  </style>
   </defs>
   <polygon points="9 61 1 57 1 65"/>
   <polygon points="17 61 9 57 9 65"/>
   <a xmlns:xlink="http://www.w3.org/1999/xlink"
      xlink:href="#function_name"
      xlink:title="function_name">
      <rect x="31" y="47" width="114" height="32"/>
      <rect x="29" y="45" width="114" height="32" class="nonterminal"/>
      <text class="nonterminal" x="39" y="65">function_name</text>
   </a>
   <rect x="165" y="47" width="26" height="32" rx="10"/>
   <rect x="163"
         y="45"
         width="26"
         height="32"
         class="terminal"
         rx="10"/>
   <text class="terminal" x="173" y="65">(</text>
   <rect x="251" y="79" width="86" height="32" rx="10"/>
   <rect x="249"
         y="77"
         width="86"
         height="32"
         class="terminal"
         rx="10"/>
   <text class="terminal" x="259" y="97">DISTINCT</text>
   <a xmlns:xlink="http://www.w3.org/1999/xlink"
      xlink:href="#expr"
      xlink:title="expr">
      <rect x="397" y="47" width="48" height="32"/>
      <rect x="395" y="45" width="48" height="32" class="nonterminal"/>
      <text class="nonterminal" x="405" y="65">expr</text>
   </a>
   <rect x="397" y="3" width="24" height="32" rx="10"/>
   <rect x="395"
         y="1"
         width="24"
         height="32"
         class="terminal"
         rx="10"/>
   <text class="terminal" x="405" y="21">,</text>
   <rect x="231" y="123" width="28" height="32" rx="10"/>
   <rect x="229"
         y="121"
         width="28"
         height="32"
         class="terminal"
         rx="10"/>
   <text class="terminal" x="239" y="141">*</text>
   <rect x="505" y="47" width="26" height="32" rx="10"/>
   <rect x="503"
         y="45"
         width="26"
         height="32"
         class="terminal"
         rx="10"/>
   <text class="terminal" x="513" y="65">)</text>
   <path class="line"
         d="m17 61 h2 m0 0 h10 m114 0 h10 m0 0 h10 m26 0 h10 m40 0 h10 m0 0 h96 m-126 0 h20 m106 0 h20 m-146 0 q10 0 10 10 m126 0 q0 -10 10 -10 m-136 10 v12 m126 0 v-12 m-126 12 q0 10 10 10 m106 0 q10 0 10 -10 m-116 10 h10 m86 0 h10 m40 -32 h10 m48 0 h10 m-88 0 l20 0 m-1 0 q-9 0 -9 -10 l0 -24 q0 -10 10 -10 m68 44 l20 0 m-20 0 q10 0 10 -10 l0 -24 q0 -10 -10 -10 m-68 0 h10 m24 0 h10 m0 0 h24 m-254 44 h20 m254 0 h20 m-294 0 q10 0 10 10 m274 0 q0 -10 10 -10 m-284 10 v56 m274 0 v-56 m-274 56 q0 10 10 10 m254 0 q10 0 10 -10 m-264 10 h10 m28 0 h10 m0 0 h206 m-264 -10 v20 m274 0 v-20 m-274 20 v14 m274 0 v-14 m-274 14 q0 10 10 10 m254 0 q10 0 10 -10 m-264 10 h10 m0 0 h244 m20 -110 h10 m26 0 h10 m3 0 h-3"/>
   <polygon points="549 61 557 57 557 65"/>
   <polygon points="549 61 541 57 541 65"/>
</svg>
