<?xml version="1.0" encoding="UTF-8"?>
<svg xmlns="http://www.w3.org/2000/svg" width="403" height="201">
   <defs>
      <style type="text/css">
    @namespace "http://www.w3.org/2000/svg";
    .line                 {fill: none; stroke: #262626; stroke-width: 1;}
    .bold-line            {stroke: #0A0A0A; shape-rendering: crispEdges; stroke-width: 2;}
    .thin-line            {stroke: #0F0F0F; shape-rendering: crispEdges}
    .filled               {fill: #262626; stroke: none;}
    text.terminal         {font-family: Verdana, Sans-serif;
                            font-size: 12px;
                            fill: #0A0A0A;
                            font-weight: bold;
                          }
    text.nonterminal      {font-family: Verdana, Sans-serif;
                            font-size: 12px;
                            fill: #0D0D0D;
                            font-weight: normal;
                          }
    text.regexp           {font-family: Verdana, Sans-serif;
                            font-size: 12px;
                            fill: #0F0F0F;
                            font-weight: normal;
                          }
    rect, circle, polygon {fill: #262626; stroke: #262626;}
    rect.terminal         {fill: #ffffff; stroke: #262626; stroke-width: 1;}
    rect.nonterminal      {fill: #FFFFFF; stroke: #262626; stroke-width: 1;}
    rect.text             {fill: none; stroke: none;}
    polygon.regexp        {fill: #FFFFFF; stroke: #262626; stroke-width: 1;}
  </style>
   </defs>
   <polygon points="9 17 1 13 1 21"/>
   <polygon points="17 17 9 13 9 21"/>
   <rect x="71" y="35" width="52" height="32" rx="10"/>
   <rect x="69"
         y="33"
         width="52"
         height="32"
         class="terminal"
         rx="10"/>
   <text class="terminal" x="79" y="53">LEFT</text>
   <rect x="71" y="79" width="64" height="32" rx="10"/>
   <rect x="69"
         y="77"
         width="64"
         height="32"
         class="terminal"
         rx="10"/>
   <text class="terminal" x="79" y="97">RIGHT</text>
   <rect x="71" y="123" width="54" height="32" rx="10"/>
   <rect x="69"
         y="121"
         width="54"
         height="32"
         class="terminal"
         rx="10"/>
   <text class="terminal" x="79" y="141">FULL</text>
   <rect x="195" y="67" width="66" height="32" rx="10"/>
   <rect x="193"
         y="65"
         width="66"
         height="32"
         class="terminal"
         rx="10"/>
   <text class="terminal" x="203" y="85">OUTER</text>
   <rect x="51" y="167" width="64" height="32" rx="10"/>
   <rect x="49"
         y="165"
         width="64"
         height="32"
         class="terminal"
         rx="10"/>
   <text class="terminal" x="59" y="185">INNER</text>
   <rect x="321" y="3" width="54" height="32" rx="10"/>
   <rect x="319"
         y="1"
         width="54"
         height="32"
         class="terminal"
         rx="10"/>
   <text class="terminal" x="329" y="21">JOIN</text>
   <path class="line"
         d="m17 17 h2 m20 0 h10 m0 0 h240 m-270 0 h20 m250 0 h20 m-290 0 q10 0 10 10 m270 0 q0 -10 10 -10 m-280 10 v12 m270 0 v-12 m-270 12 q0 10 10 10 m250 0 q10 0 10 -10 m-240 10 h10 m52 0 h10 m0 0 h12 m-104 0 h20 m84 0 h20 m-124 0 q10 0 10 10 m104 0 q0 -10 10 -10 m-114 10 v24 m104 0 v-24 m-104 24 q0 10 10 10 m84 0 q10 0 10 -10 m-94 10 h10 m64 0 h10 m-94 -10 v20 m104 0 v-20 m-104 20 v24 m104 0 v-24 m-104 24 q0 10 10 10 m84 0 q10 0 10 -10 m-94 10 h10 m54 0 h10 m0 0 h10 m40 -88 h10 m0 0 h76 m-106 0 h20 m86 0 h20 m-126 0 q10 0 10 10 m106 0 q0 -10 10 -10 m-116 10 v12 m106 0 v-12 m-106 12 q0 10 10 10 m86 0 q10 0 10 -10 m-96 10 h10 m66 0 h10 m-240 -42 v20 m270 0 v-20 m-270 20 v112 m270 0 v-112 m-270 112 q0 10 10 10 m250 0 q10 0 10 -10 m-260 10 h10 m64 0 h10 m0 0 h166 m20 -164 h10 m54 0 h10 m3 0 h-3"/>
   <polygon points="393 17 401 13 401 21"/>
   <polygon points="393 17 385 13 385 21"/>
</svg>
