<?xml version="1.0" encoding="UTF-8"?>
<svg xmlns="http://www.w3.org/2000/svg" width="367" height="145">
   <defs>
      <style type="text/css">
    @namespace "http://www.w3.org/2000/svg";
    .line                 {fill: none; stroke: #262626; stroke-width: 1;}
    .bold-line            {stroke: #0A0A0A; shape-rendering: crispEdges; stroke-width: 2;}
    .thin-line            {stroke: #0F0F0F; shape-rendering: crispEdges}
    .filled               {fill: #262626; stroke: none;}
    text.terminal         {font-family: Verdana, Sans-serif;
                            font-size: 12px;
                            fill: #0A0A0A;
                            font-weight: bold;
                          }
    text.nonterminal      {font-family: Verdana, Sans-serif;
                            font-size: 12px;
                            fill: #0D0D0D;
                            font-weight: normal;
                          }
    text.regexp           {font-family: Verdana, Sans-serif;
                            font-size: 12px;
                            fill: #0F0F0F;
                            font-weight: normal;
                          }
    rect, circle, polygon {fill: #262626; stroke: #262626;}
    rect.terminal         {fill: #ffffff; stroke: #262626; stroke-width: 1;}
    rect.nonterminal      {fill: #FFFFFF; stroke: #262626; stroke-width: 1;}
    rect.text             {fill: none; stroke: none;}
    polygon.regexp        {fill: #FFFFFF; stroke: #262626; stroke-width: 1;}
  </style>
   </defs>
   <polygon points="9 17 1 13 1 21"/>
   <polygon points="17 17 9 13 9 21"/>
   <a xmlns:xlink="http://www.w3.org/1999/xlink"
      xlink:href="#table_name"
      xlink:title="table_name">
      <rect x="71" y="35" width="96" height="32"/>
      <rect x="69" y="33" width="96" height="32" class="nonterminal"/>
      <text class="nonterminal" x="79" y="53">table_name</text>
   </a>
   <rect x="187" y="35" width="24" height="32" rx="10"/>
   <rect x="185"
         y="33"
         width="24"
         height="32"
         class="terminal"
         rx="10"/>
   <text class="terminal" x="195" y="53">.</text>
   <rect x="251" y="3" width="28" height="32" rx="10"/>
   <rect x="249"
         y="1"
         width="28"
         height="32"
         class="terminal"
         rx="10"/>
   <text class="terminal" x="259" y="21">*</text>
   <a xmlns:xlink="http://www.w3.org/1999/xlink"
      xlink:href="#expr"
      xlink:title="expr">
      <rect x="51" y="79" width="48" height="32"/>
      <rect x="49" y="77" width="48" height="32" class="nonterminal"/>
      <text class="nonterminal" x="59" y="97">expr</text>
   </a>
   <rect x="139" y="111" width="38" height="32" rx="10"/>
   <rect x="137"
         y="109"
         width="38"
         height="32"
         class="terminal"
         rx="10"/>
   <text class="terminal" x="147" y="129">AS</text>
   <a xmlns:xlink="http://www.w3.org/1999/xlink"
      xlink:href="#column_alias"
      xlink:title="column_alias">
      <rect x="197" y="111" width="102" height="32"/>
      <rect x="195" y="109" width="102" height="32" class="nonterminal"/>
      <text class="nonterminal" x="205" y="129">column_alias</text>
   </a>
   <path class="line"
         d="m17 17 h2 m40 0 h10 m0 0 h150 m-180 0 h20 m160 0 h20 m-200 0 q10 0 10 10 m180 0 q0 -10 10 -10 m-190 10 v12 m180 0 v-12 m-180 12 q0 10 10 10 m160 0 q10 0 10 -10 m-170 10 h10 m96 0 h10 m0 0 h10 m24 0 h10 m20 -32 h10 m28 0 h10 m0 0 h40 m-308 0 h20 m288 0 h20 m-328 0 q10 0 10 10 m308 0 q0 -10 10 -10 m-318 10 v56 m308 0 v-56 m-308 56 q0 10 10 10 m288 0 q10 0 10 -10 m-298 10 h10 m48 0 h10 m20 0 h10 m0 0 h170 m-200 0 h20 m180 0 h20 m-220 0 q10 0 10 10 m200 0 q0 -10 10 -10 m-210 10 v12 m200 0 v-12 m-200 12 q0 10 10 10 m180 0 q10 0 10 -10 m-190 10 h10 m38 0 h10 m0 0 h10 m102 0 h10 m43 -108 h-3"/>
   <polygon points="357 17 365 13 365 21"/>
   <polygon points="357 17 349 13 349 21"/>
</svg>
