<?xml version="1.0" encoding="UTF-8"?>
<svg xmlns="http://www.w3.org/2000/svg" width="957" height="315">
   <defs>
      <style type="text/css">
    @namespace "http://www.w3.org/2000/svg";
    .line                 {fill: none; stroke: #262626; stroke-width: 1;}
    .bold-line            {stroke: #0A0A0A; shape-rendering: crispEdges; stroke-width: 2;}
    .thin-line            {stroke: #0F0F0F; shape-rendering: crispEdges}
    .filled               {fill: #262626; stroke: none;}
    text.terminal         {font-family: Verdana, Sans-serif;
                            font-size: 12px;
                            fill: #0A0A0A;
                            font-weight: bold;
                          }
    text.nonterminal      {font-family: Verdana, Sans-serif;
                            font-size: 12px;
                            fill: #0D0D0D;
                            font-weight: normal;
                          }
    text.regexp           {font-family: Verdana, Sans-serif;
                            font-size: 12px;
                            fill: #0F0F0F;
                            font-weight: normal;
                          }
    rect, circle, polygon {fill: #262626; stroke: #262626;}
    rect.terminal         {fill: #ffffff; stroke: #262626; stroke-width: 1;}
    rect.nonterminal      {fill: #FFFFFF; stroke: #262626; stroke-width: 1;}
    rect.text             {fill: none; stroke: none;}
    polygon.regexp        {fill: #FFFFFF; stroke: #262626; stroke-width: 1;}
  </style>
   </defs>
   <polygon points="9 61 1 57 1 65"/>
   <polygon points="17 61 9 57 9 65"/>
   <rect x="31" y="47" width="70" height="32" rx="10"/>
   <rect x="29"
         y="45"
         width="70"
         height="32"
         class="terminal"
         rx="10"/>
   <text class="terminal" x="39" y="65">SELECT</text>
   <rect x="141" y="79" width="86" height="32" rx="10"/>
   <rect x="139"
         y="77"
         width="86"
         height="32"
         class="terminal"
         rx="10"/>
   <text class="terminal" x="149" y="97">DISTINCT</text>
   <a xmlns:xlink="http://www.w3.org/1999/xlink"
      xlink:href="#result_column"
      xlink:title="result_column">
      <rect x="287" y="47" width="110" height="32"/>
      <rect x="285" y="45" width="110" height="32" class="nonterminal"/>
      <text class="nonterminal" x="295" y="65">result_column</text>
   </a>
   <rect x="287" y="3" width="24" height="32" rx="10"/>
   <rect x="285"
         y="1"
         width="24"
         height="32"
         class="terminal"
         rx="10"/>
   <text class="terminal" x="295" y="21">,</text>
   <rect x="457" y="79" width="60" height="32" rx="10"/>
   <rect x="455"
         y="77"
         width="60"
         height="32"
         class="terminal"
         rx="10"/>
   <text class="terminal" x="465" y="97">FROM</text>
   <a xmlns:xlink="http://www.w3.org/1999/xlink"
      xlink:href="#table_or_subquery"
      xlink:title="table_or_subquery">
      <rect x="557" y="79" width="140" height="32"/>
      <rect x="555" y="77" width="140" height="32" class="nonterminal"/>
      <text class="nonterminal" x="565" y="97">table_or_subquery</text>
   </a>
   <a xmlns:xlink="http://www.w3.org/1999/xlink"
      xlink:href="#join_clause"
      xlink:title="join_clause">
      <rect x="557" y="123" width="92" height="32"/>
      <rect x="555" y="121" width="92" height="32" class="nonterminal"/>
      <text class="nonterminal" x="565" y="141">join_clause</text>
   </a>
   <rect x="777" y="79" width="70" height="32" rx="10"/>
   <rect x="775"
         y="77"
         width="70"
         height="32"
         class="terminal"
         rx="10"/>
   <text class="terminal" x="785" y="97">WHERE</text>
   <a xmlns:xlink="http://www.w3.org/1999/xlink"
      xlink:href="#expr"
      xlink:title="expr">
      <rect x="867" y="79" width="48" height="32"/>
      <rect x="865" y="77" width="48" height="32" class="nonterminal"/>
      <text class="nonterminal" x="875" y="97">expr</text>
   </a>
   <rect x="473" y="233" width="68" height="32" rx="10"/>
   <rect x="471"
         y="231"
         width="68"
         height="32"
         class="terminal"
         rx="10"/>
   <text class="terminal" x="481" y="251">GROUP</text>
   <rect x="561" y="233" width="38" height="32" rx="10"/>
   <rect x="559"
         y="231"
         width="38"
         height="32"
         class="terminal"
         rx="10"/>
   <text class="terminal" x="569" y="251">BY</text>
   <a xmlns:xlink="http://www.w3.org/1999/xlink"
      xlink:href="#expr"
      xlink:title="expr">
      <rect x="639" y="233" width="48" height="32"/>
      <rect x="637" y="231" width="48" height="32" class="nonterminal"/>
      <text class="nonterminal" x="647" y="251">expr</text>
   </a>
   <rect x="639" y="189" width="24" height="32" rx="10"/>
   <rect x="637"
         y="187"
         width="24"
         height="32"
         class="terminal"
         rx="10"/>
   <text class="terminal" x="647" y="207">,</text>
   <rect x="747" y="265" width="74" height="32" rx="10"/>
   <rect x="745"
         y="263"
         width="74"
         height="32"
         class="terminal"
         rx="10"/>
   <text class="terminal" x="755" y="283">HAVING</text>
   <a xmlns:xlink="http://www.w3.org/1999/xlink"
      xlink:href="#expr"
      xlink:title="expr">
      <rect x="841" y="265" width="48" height="32"/>
      <rect x="839" y="263" width="48" height="32" class="nonterminal"/>
      <text class="nonterminal" x="849" y="283">expr</text>
   </a>
   <path class="line"
         d="m17 61 h2 m0 0 h10 m70 0 h10 m20 0 h10 m0 0 h96 m-126 0 h20 m106 0 h20 m-146 0 q10 0 10 10 m126 0 q0 -10 10 -10 m-136 10 v12 m126 0 v-12 m-126 12 q0 10 10 10 m106 0 q10 0 10 -10 m-116 10 h10 m86 0 h10 m40 -32 h10 m110 0 h10 m-150 0 l20 0 m-1 0 q-9 0 -9 -10 l0 -24 q0 -10 10 -10 m130 44 l20 0 m-20 0 q10 0 10 -10 l0 -24 q0 -10 -10 -10 m-130 0 h10 m24 0 h10 m0 0 h86 m40 44 h10 m0 0 h270 m-300 0 h20 m280 0 h20 m-320 0 q10 0 10 10 m300 0 q0 -10 10 -10 m-310 10 v12 m300 0 v-12 m-300 12 q0 10 10 10 m280 0 q10 0 10 -10 m-290 10 h10 m60 0 h10 m20 0 h10 m140 0 h10 m-180 0 h20 m160 0 h20 m-200 0 q10 0 10 10 m180 0 q0 -10 10 -10 m-190 10 v24 m180 0 v-24 m-180 24 q0 10 10 10 m160 0 q10 0 10 -10 m-170 10 h10 m92 0 h10 m0 0 h48 m60 -76 h10 m0 0 h148 m-178 0 h20 m158 0 h20 m-198 0 q10 0 10 10 m178 0 q0 -10 10 -10 m-188 10 v12 m178 0 v-12 m-178 12 q0 10 10 10 m158 0 q10 0 10 -10 m-168 10 h10 m70 0 h10 m0 0 h10 m48 0 h10 m22 -32 l2 0 m2 0 l2 0 m2 0 l2 0 m-526 186 l2 0 m2 0 l2 0 m2 0 l2 0 m22 0 h10 m68 0 h10 m0 0 h10 m38 0 h10 m20 0 h10 m48 0 h10 m-88 0 l20 0 m-1 0 q-9 0 -9 -10 l0 -24 q0 -10 10 -10 m68 44 l20 0 m-20 0 q10 0 10 -10 l0 -24 q0 -10 -10 -10 m-68 0 h10 m24 0 h10 m0 0 h24 m40 44 h10 m0 0 h152 m-182 0 h20 m162 0 h20 m-202 0 q10 0 10 10 m182 0 q0 -10 10 -10 m-192 10 v12 m182 0 v-12 m-182 12 q0 10 10 10 m162 0 q10 0 10 -10 m-172 10 h10 m74 0 h10 m0 0 h10 m48 0 h10 m-456 -32 h20 m456 0 h20 m-496 0 q10 0 10 10 m476 0 q0 -10 10 -10 m-486 10 v46 m476 0 v-46 m-476 46 q0 10 10 10 m456 0 q10 0 10 -10 m-466 10 h10 m0 0 h446 m23 -66 h-3"/>
   <polygon points="947 247 955 243 955 251"/>
   <polygon points="947 247 939 243 939 251"/>
</svg>
