<?xml version="1.0" encoding="UTF-8"?>
<svg xmlns="http://www.w3.org/2000/svg" width="563" height="113">
   <defs>
      <style type="text/css">
    @namespace "http://www.w3.org/2000/svg";
    .line                 {fill: none; stroke: #262626; stroke-width: 1;}
    .bold-line            {stroke: #0A0A0A; shape-rendering: crispEdges; stroke-width: 2;}
    .thin-line            {stroke: #0F0F0F; shape-rendering: crispEdges}
    .filled               {fill: #262626; stroke: none;}
    text.terminal         {font-family: Verdana, Sans-serif;
                            font-size: 12px;
                            fill: #0A0A0A;
                            font-weight: bold;
                          }
    text.nonterminal      {font-family: Verdana, Sans-serif;
                            font-size: 12px;
                            fill: #0D0D0D;
                            font-weight: normal;
                          }
    text.regexp           {font-family: Verdana, Sans-serif;
                            font-size: 12px;
                            fill: #0F0F0F;
                            font-weight: normal;
                          }
    rect, circle, polygon {fill: #262626; stroke: #262626;}
    rect.terminal         {fill: #ffffff; stroke: #262626; stroke-width: 1;}
    rect.nonterminal      {fill: #FFFFFF; stroke: #262626; stroke-width: 1;}
    rect.text             {fill: none; stroke: none;}
    polygon.regexp        {fill: #FFFFFF; stroke: #262626; stroke-width: 1;}
  </style>
   </defs>
   <polygon points="9 61 1 57 1 65"/>
   <polygon points="17 61 9 57 9 65"/>
   <a xmlns:xlink="http://www.w3.org/1999/xlink"
      xlink:href="#select_core"
      xlink:title="select_core">
      <rect x="51" y="47" width="92" height="32"/>
      <rect x="49" y="45" width="92" height="32" class="nonterminal"/>
      <text class="nonterminal" x="59" y="65">select_core</text>
   </a>
   <a xmlns:xlink="http://www.w3.org/1999/xlink"
      xlink:href="#compound_operator"
      xlink:title="compound_operator">
      <rect x="51" y="3" width="148" height="32"/>
      <rect x="49" y="1" width="148" height="32" class="nonterminal"/>
      <text class="nonterminal" x="59" y="21">compound_operator</text>
   </a>
   <a xmlns:xlink="http://www.w3.org/1999/xlink"
      xlink:href="#order_by_stmt"
      xlink:title="order_by_stmt">
      <rect x="259" y="79" width="114" height="32"/>
      <rect x="257" y="77" width="114" height="32" class="nonterminal"/>
      <text class="nonterminal" x="267" y="97">order_by_stmt</text>
   </a>
   <a xmlns:xlink="http://www.w3.org/1999/xlink"
      xlink:href="#limit_stmt"
      xlink:title="limit_stmt">
      <rect x="433" y="79" width="82" height="32"/>
      <rect x="431" y="77" width="82" height="32" class="nonterminal"/>
      <text class="nonterminal" x="441" y="97">limit_stmt</text>
   </a>
   <path class="line"
         d="m17 61 h2 m20 0 h10 m92 0 h10 m0 0 h56 m-188 0 l20 0 m-1 0 q-9 0 -9 -10 l0 -24 q0 -10 10 -10 m168 44 l20 0 m-20 0 q10 0 10 -10 l0 -24 q0 -10 -10 -10 m-168 0 h10 m148 0 h10 m40 44 h10 m0 0 h124 m-154 0 h20 m134 0 h20 m-174 0 q10 0 10 10 m154 0 q0 -10 10 -10 m-164 10 v12 m154 0 v-12 m-154 12 q0 10 10 10 m134 0 q10 0 10 -10 m-144 10 h10 m114 0 h10 m40 -32 h10 m0 0 h92 m-122 0 h20 m102 0 h20 m-142 0 q10 0 10 10 m122 0 q0 -10 10 -10 m-132 10 v12 m122 0 v-12 m-122 12 q0 10 10 10 m102 0 q10 0 10 -10 m-112 10 h10 m82 0 h10 m23 -32 h-3"/>
   <polygon points="553 61 561 57 561 65"/>
   <polygon points="553 61 545 57 545 65"/>
</svg>
