<?xml version="1.0" encoding="UTF-8"?>
<svg xmlns="http://www.w3.org/2000/svg" width="341" height="97">
   <defs>
      <style type="text/css">
    @namespace "http://www.w3.org/2000/svg";
    .line                 {fill: none; stroke: #262626; stroke-width: 1;}
    .bold-line            {stroke: #0A0A0A; shape-rendering: crispEdges; stroke-width: 2;}
    .thin-line            {stroke: #0F0F0F; shape-rendering: crispEdges}
    .filled               {fill: #262626; stroke: none;}
    text.terminal         {font-family: Verdana, Sans-serif;
                            font-size: 12px;
                            fill: #0A0A0A;
                            font-weight: bold;
                          }
    text.nonterminal      {font-family: Verdana, Sans-serif;
                            font-size: 12px;
                            fill: #0D0D0D;
                            font-weight: normal;
                          }
    text.regexp           {font-family: Verdana, Sans-serif;
                            font-size: 12px;
                            fill: #0F0F0F;
                            font-weight: normal;
                          }
    rect, circle, polygon {fill: #262626; stroke: #262626;}
    rect.terminal         {fill: #ffffff; stroke: #262626; stroke-width: 1;}
    rect.nonterminal      {fill: #FFFFFF; stroke: #262626; stroke-width: 1;}
    rect.text             {fill: none; stroke: none;}
    polygon.regexp        {fill: #FFFFFF; stroke: #262626; stroke-width: 1;}
  </style>
   </defs>
   <polygon points="9 77 1 73 1 81"/>
   <polygon points="17 77 9 73 9 81"/>
   <rect x="51" y="29" width="24" height="32" rx="10"/>
   <rect x="49"
         y="27"
         width="24"
         height="32"
         class="terminal"
         rx="10"/>
   <text class="terminal" x="59" y="47">;</text>
   <a xmlns:xlink="http://www.w3.org/1999/xlink"
      xlink:href="#sql_stmt"
      xlink:title="sql_stmt">
      <rect x="135" y="63" width="74" height="32"/>
      <rect x="133" y="61" width="74" height="32" class="nonterminal"/>
      <text class="nonterminal" x="143" y="81">sql_stmt</text>
   </a>
   <rect x="155" y="19" width="24" height="32" rx="10"/>
   <rect x="153"
         y="17"
         width="24"
         height="32"
         class="terminal"
         rx="10"/>
   <text class="terminal" x="163" y="37">;</text>
   <rect x="269" y="29" width="24" height="32" rx="10"/>
   <rect x="267"
         y="27"
         width="24"
         height="32"
         class="terminal"
         rx="10"/>
   <text class="terminal" x="277" y="47">;</text>
   <path class="line"
         d="m17 77 h2 m20 0 h10 m0 0 h34 m-64 0 l20 0 m-1 0 q-9 0 -9 -10 l0 -14 q0 -10 10 -10 m44 34 l20 0 m-20 0 q10 0 10 -10 l0 -14 q0 -10 -10 -10 m-44 0 h10 m24 0 h10 m40 34 h10 m74 0 h10 m-114 0 l20 0 m-1 0 q-9 0 -9 -10 l0 -24 q0 -10 10 -10 m94 44 l20 0 m-20 0 q10 0 10 -10 l0 -24 q0 -10 -10 -10 m-74 0 h10 m24 0 h10 m-64 0 l20 0 m-1 0 q-9 0 -9 -10 l0 -12 q0 -10 10 -10 m44 32 l20 0 m-20 0 q10 0 10 -10 l0 -12 q0 -10 -10 -10 m-44 0 h10 m0 0 h34 m20 32 h10 m40 44 h10 m0 0 h34 m-64 0 l20 0 m-1 0 q-9 0 -9 -10 l0 -14 q0 -10 10 -10 m44 34 l20 0 m-20 0 q10 0 10 -10 l0 -14 q0 -10 -10 -10 m-44 0 h10 m24 0 h10 m23 34 h-3"/>
   <polygon points="331 77 339 73 339 81"/>
   <polygon points="331 77 323 73 323 81"/>
</svg>
