<?xml version="1.0" encoding="UTF-8"?>
<svg xmlns="http://www.w3.org/2000/svg" width="527" height="81">
   <defs>
      <style type="text/css">
    @namespace "http://www.w3.org/2000/svg";
    .line                 {fill: none; stroke: #262626; stroke-width: 1;}
    .bold-line            {stroke: #0A0A0A; shape-rendering: crispEdges; stroke-width: 2;}
    .thin-line            {stroke: #0F0F0F; shape-rendering: crispEdges}
    .filled               {fill: #262626; stroke: none;}
    text.terminal         {font-family: Verdana, Sans-serif;
                            font-size: 12px;
                            fill: #0A0A0A;
                            font-weight: bold;
                          }
    text.nonterminal      {font-family: Verdana, Sans-serif;
                            font-size: 12px;
                            fill: #0D0D0D;
                            font-weight: normal;
                          }
    text.regexp           {font-family: Verdana, Sans-serif;
                            font-size: 12px;
                            fill: #0F0F0F;
                            font-weight: normal;
                          }
    rect, circle, polygon {fill: #262626; stroke: #262626;}
    rect.terminal         {fill: #ffffff; stroke: #262626; stroke-width: 1;}
    rect.nonterminal      {fill: #FFFFFF; stroke: #262626; stroke-width: 1;}
    rect.text             {fill: none; stroke: none;}
    polygon.regexp        {fill: #FFFFFF; stroke: #262626; stroke-width: 1;}
  </style>
   </defs>
   <polygon points="9 17 1 13 1 21"/>
   <polygon points="17 17 9 13 9 21"/>
   <a xmlns:xlink="http://www.w3.org/1999/xlink"
      xlink:href="#table_name"
      xlink:title="table_name">
      <rect x="51" y="3" width="96" height="32"/>
      <rect x="49" y="1" width="96" height="32" class="nonterminal"/>
      <text class="nonterminal" x="59" y="21">table_name</text>
   </a>
   <rect x="51" y="47" width="26" height="32" rx="10"/>
   <rect x="49"
         y="45"
         width="26"
         height="32"
         class="terminal"
         rx="10"/>
   <text class="terminal" x="59" y="65">(</text>
   <a xmlns:xlink="http://www.w3.org/1999/xlink"
      xlink:href="#select_stmt_core"
      xlink:title="select_stmt_core">
      <rect x="97" y="47" width="128" height="32"/>
      <rect x="95" y="45" width="128" height="32" class="nonterminal"/>
      <text class="nonterminal" x="105" y="65">select_stmt_core</text>
   </a>
   <rect x="245" y="47" width="26" height="32" rx="10"/>
   <rect x="243"
         y="45"
         width="26"
         height="32"
         class="terminal"
         rx="10"/>
   <text class="terminal" x="253" y="65">)</text>
   <rect x="331" y="35" width="38" height="32" rx="10"/>
   <rect x="329"
         y="33"
         width="38"
         height="32"
         class="terminal"
         rx="10"/>
   <text class="terminal" x="339" y="53">AS</text>
   <a xmlns:xlink="http://www.w3.org/1999/xlink"
      xlink:href="#table_alias"
      xlink:title="table_alias">
      <rect x="389" y="35" width="90" height="32"/>
      <rect x="387" y="33" width="90" height="32" class="nonterminal"/>
      <text class="nonterminal" x="397" y="53">table_alias</text>
   </a>
   <path class="line"
         d="m17 17 h2 m20 0 h10 m96 0 h10 m0 0 h124 m-260 0 h20 m240 0 h20 m-280 0 q10 0 10 10 m260 0 q0 -10 10 -10 m-270 10 v24 m260 0 v-24 m-260 24 q0 10 10 10 m240 0 q10 0 10 -10 m-250 10 h10 m26 0 h10 m0 0 h10 m128 0 h10 m0 0 h10 m26 0 h10 m40 -44 h10 m0 0 h158 m-188 0 h20 m168 0 h20 m-208 0 q10 0 10 10 m188 0 q0 -10 10 -10 m-198 10 v12 m188 0 v-12 m-188 12 q0 10 10 10 m168 0 q10 0 10 -10 m-178 10 h10 m38 0 h10 m0 0 h10 m90 0 h10 m23 -32 h-3"/>
   <polygon points="517 17 525 13 525 21"/>
   <polygon points="517 17 509 13 509 21"/>
</svg>
