<?xml version="1.0" encoding="UTF-8"?>
<svg xmlns="http://www.w3.org/2000/svg" width="803" height="243">
   <defs>
      <style type="text/css">
    @namespace "http://www.w3.org/2000/svg";
    .line                 {fill: none; stroke: #262626; stroke-width: 1;}
    .bold-line            {stroke: #0A0A0A; shape-rendering: crispEdges; stroke-width: 2;}
    .thin-line            {stroke: #0F0F0F; shape-rendering: crispEdges}
    .filled               {fill: #262626; stroke: none;}
    text.terminal         {font-family: Verdana, Sans-serif;
                            font-size: 12px;
                            fill: #0A0A0A;
                            font-weight: bold;
                          }
    text.nonterminal      {font-family: Verdana, Sans-serif;
                            font-size: 12px;
                            fill: #0D0D0D;
                            font-weight: normal;
                          }
    text.regexp           {font-family: Verdana, Sans-serif;
                            font-size: 12px;
                            fill: #0F0F0F;
                            font-weight: normal;
                          }
    rect, circle, polygon {fill: #262626; stroke: #262626;}
    rect.terminal         {fill: #ffffff; stroke: #262626; stroke-width: 1;}
    rect.nonterminal      {fill: #FFFFFF; stroke: #262626; stroke-width: 1;}
    rect.text             {fill: none; stroke: none;}
    polygon.regexp        {fill: #FFFFFF; stroke: #262626; stroke-width: 1;}
  </style>
   </defs>
   <polygon points="9 61 1 57 1 65"/>
   <polygon points="17 61 9 57 9 65"/>
   <a xmlns:xlink="http://www.w3.org/1999/xlink"
      xlink:href="#common_table_stmt"
      xlink:title="common_table_stmt">
      <rect x="51" y="79" width="150" height="32"/>
      <rect x="49" y="77" width="150" height="32" class="nonterminal"/>
      <text class="nonterminal" x="59" y="97">common_table_stmt</text>
   </a>
   <rect x="241" y="47" width="74" height="32" rx="10"/>
   <rect x="239"
         y="45"
         width="74"
         height="32"
         class="terminal"
         rx="10"/>
   <text class="terminal" x="249" y="65">UPDATE</text>
   <a xmlns:xlink="http://www.w3.org/1999/xlink"
      xlink:href="#qualified_table_name"
      xlink:title="qualified_table_name">
      <rect x="335" y="47" width="158" height="32"/>
      <rect x="333" y="45" width="158" height="32" class="nonterminal"/>
      <text class="nonterminal" x="343" y="65">qualified_table_name</text>
   </a>
   <rect x="513" y="47" width="44" height="32" rx="10"/>
   <rect x="511"
         y="45"
         width="44"
         height="32"
         class="terminal"
         rx="10"/>
   <text class="terminal" x="521" y="65">SET</text>
   <a xmlns:xlink="http://www.w3.org/1999/xlink"
      xlink:href="#update_set_subclause"
      xlink:title="update_set_subclause">
      <rect x="597" y="47" width="164" height="32"/>
      <rect x="595" y="45" width="164" height="32" class="nonterminal"/>
      <text class="nonterminal" x="605" y="65">update_set_subclause</text>
   </a>
   <rect x="597" y="3" width="24" height="32" rx="10"/>
   <rect x="595"
         y="1"
         width="24"
         height="32"
         class="terminal"
         rx="10"/>
   <text class="terminal" x="605" y="21">,</text>
   <rect x="111" y="165" width="60" height="32" rx="10"/>
   <rect x="109"
         y="163"
         width="60"
         height="32"
         class="terminal"
         rx="10"/>
   <text class="terminal" x="119" y="183">FROM</text>
   <a xmlns:xlink="http://www.w3.org/1999/xlink"
      xlink:href="#table_or_subquery"
      xlink:title="table_or_subquery">
      <rect x="211" y="165" width="140" height="32"/>
      <rect x="209" y="163" width="140" height="32" class="nonterminal"/>
      <text class="nonterminal" x="219" y="183">table_or_subquery</text>
   </a>
   <a xmlns:xlink="http://www.w3.org/1999/xlink"
      xlink:href="#join_clause"
      xlink:title="join_clause">
      <rect x="211" y="209" width="92" height="32"/>
      <rect x="209" y="207" width="92" height="32" class="nonterminal"/>
      <text class="nonterminal" x="219" y="227">join_clause</text>
   </a>
   <rect x="431" y="165" width="70" height="32" rx="10"/>
   <rect x="429"
         y="163"
         width="70"
         height="32"
         class="terminal"
         rx="10"/>
   <text class="terminal" x="439" y="183">WHERE</text>
   <a xmlns:xlink="http://www.w3.org/1999/xlink"
      xlink:href="#expr"
      xlink:title="expr">
      <rect x="521" y="165" width="48" height="32"/>
      <rect x="519" y="163" width="48" height="32" class="nonterminal"/>
      <text class="nonterminal" x="529" y="183">expr</text>
   </a>
   <a xmlns:xlink="http://www.w3.org/1999/xlink"
      xlink:href="#returning_clause"
      xlink:title="returning_clause">
      <rect x="629" y="165" width="126" height="32"/>
      <rect x="627" y="163" width="126" height="32" class="nonterminal"/>
      <text class="nonterminal" x="637" y="183">returning_clause</text>
   </a>
   <path class="line"
         d="m17 61 h2 m20 0 h10 m0 0 h160 m-190 0 h20 m170 0 h20 m-210 0 q10 0 10 10 m190 0 q0 -10 10 -10 m-200 10 v12 m190 0 v-12 m-190 12 q0 10 10 10 m170 0 q10 0 10 -10 m-180 10 h10 m150 0 h10 m20 -32 h10 m74 0 h10 m0 0 h10 m158 0 h10 m0 0 h10 m44 0 h10 m20 0 h10 m164 0 h10 m-204 0 l20 0 m-1 0 q-9 0 -9 -10 l0 -24 q0 -10 10 -10 m184 44 l20 0 m-20 0 q10 0 10 -10 l0 -24 q0 -10 -10 -10 m-184 0 h10 m24 0 h10 m0 0 h140 m22 44 l2 0 m2 0 l2 0 m2 0 l2 0 m-734 86 l2 0 m2 0 l2 0 m2 0 l2 0 m22 0 h10 m0 0 h270 m-300 0 h20 m280 0 h20 m-320 0 q10 0 10 10 m300 0 q0 -10 10 -10 m-310 10 v12 m300 0 v-12 m-300 12 q0 10 10 10 m280 0 q10 0 10 -10 m-290 10 h10 m60 0 h10 m20 0 h10 m140 0 h10 m-180 0 h20 m160 0 h20 m-200 0 q10 0 10 10 m180 0 q0 -10 10 -10 m-190 10 v24 m180 0 v-24 m-180 24 q0 10 10 10 m160 0 q10 0 10 -10 m-170 10 h10 m92 0 h10 m0 0 h48 m60 -76 h10 m0 0 h148 m-178 0 h20 m158 0 h20 m-198 0 q10 0 10 10 m178 0 q0 -10 10 -10 m-188 10 v12 m178 0 v-12 m-178 12 q0 10 10 10 m158 0 q10 0 10 -10 m-168 10 h10 m70 0 h10 m0 0 h10 m48 0 h10 m40 -32 h10 m0 0 h136 m-166 0 h20 m146 0 h20 m-186 0 q10 0 10 10 m166 0 q0 -10 10 -10 m-176 10 v12 m166 0 v-12 m-166 12 q0 10 10 10 m146 0 q10 0 10 -10 m-156 10 h10 m126 0 h10 m23 -32 h-3"/>
   <polygon points="793 147 801 143 801 151"/>
   <polygon points="793 147 785 143 785 151"/>
</svg>
