<?xml version="1.0" encoding="UTF-8"?>
<svg xmlns="http://www.w3.org/2000/svg" width="351" height="81">
   <defs>
      <style type="text/css">
    @namespace "http://www.w3.org/2000/svg";
    .line                 {fill: none; stroke: #262626; stroke-width: 1;}
    .bold-line            {stroke: #0A0A0A; shape-rendering: crispEdges; stroke-width: 2;}
    .thin-line            {stroke: #0F0F0F; shape-rendering: crispEdges}
    .filled               {fill: #262626; stroke: none;}
    text.terminal         {font-family: Verdana, Sans-serif;
                            font-size: 12px;
                            fill: #0A0A0A;
                            font-weight: bold;
                          }
    text.nonterminal      {font-family: Verdana, Sans-serif;
                            font-size: 12px;
                            fill: #0D0D0D;
                            font-weight: normal;
                          }
    text.regexp           {font-family: Verdana, Sans-serif;
                            font-size: 12px;
                            fill: #0F0F0F;
                            font-weight: normal;
                          }
    rect, circle, polygon {fill: #262626; stroke: #262626;}
    rect.terminal         {fill: #ffffff; stroke: #262626; stroke-width: 1;}
    rect.nonterminal      {fill: #FFFFFF; stroke: #262626; stroke-width: 1;}
    rect.text             {fill: none; stroke: none;}
    polygon.regexp        {fill: #FFFFFF; stroke: #262626; stroke-width: 1;}
  </style>
   </defs>
   <polygon points="9 17 1 13 1 21"/>
   <polygon points="17 17 9 13 9 21"/>
   <a xmlns:xlink="http://www.w3.org/1999/xlink"
      xlink:href="#column_name"
      xlink:title="column_name">
      <rect x="51" y="3" width="108" height="32"/>
      <rect x="49" y="1" width="108" height="32" class="nonterminal"/>
      <text class="nonterminal" x="59" y="21">column_name</text>
   </a>
   <a xmlns:xlink="http://www.w3.org/1999/xlink"
      xlink:href="#column_name_list"
      xlink:title="column_name_list">
      <rect x="51" y="47" width="134" height="32"/>
      <rect x="49" y="45" width="134" height="32" class="nonterminal"/>
      <text class="nonterminal" x="59" y="65">column_name_list</text>
   </a>
   <rect x="225" y="3" width="30" height="32" rx="10"/>
   <rect x="223"
         y="1"
         width="30"
         height="32"
         class="terminal"
         rx="10"/>
   <text class="terminal" x="233" y="21">=</text>
   <a xmlns:xlink="http://www.w3.org/1999/xlink"
      xlink:href="#expr"
      xlink:title="expr">
      <rect x="275" y="3" width="48" height="32"/>
      <rect x="273" y="1" width="48" height="32" class="nonterminal"/>
      <text class="nonterminal" x="283" y="21">expr</text>
   </a>
   <path class="line"
         d="m17 17 h2 m20 0 h10 m108 0 h10 m0 0 h26 m-174 0 h20 m154 0 h20 m-194 0 q10 0 10 10 m174 0 q0 -10 10 -10 m-184 10 v24 m174 0 v-24 m-174 24 q0 10 10 10 m154 0 q10 0 10 -10 m-164 10 h10 m134 0 h10 m20 -44 h10 m30 0 h10 m0 0 h10 m48 0 h10 m3 0 h-3"/>
   <polygon points="341 17 349 13 349 21"/>
   <polygon points="341 17 333 13 333 21"/>
</svg>
