<?xml version="1.0" encoding="UTF-8"?>
<svg xmlns="http://www.w3.org/2000/svg" width="777" height="315">
   <defs>
      <style type="text/css">
    @namespace "http://www.w3.org/2000/svg";
    .line                 {fill: none; stroke: #262626; stroke-width: 1;}
    .bold-line            {stroke: #0A0A0A; shape-rendering: crispEdges; stroke-width: 2;}
    .thin-line            {stroke: #0F0F0F; shape-rendering: crispEdges}
    .filled               {fill: #262626; stroke: none;}
    text.terminal         {font-family: Verdana, Sans-serif;
                            font-size: 12px;
                            fill: #0A0A0A;
                            font-weight: bold;
                          }
    text.nonterminal      {font-family: Verdana, Sans-serif;
                            font-size: 12px;
                            fill: #0D0D0D;
                            font-weight: normal;
                          }
    text.regexp           {font-family: Verdana, Sans-serif;
                            font-size: 12px;
                            fill: #0F0F0F;
                            font-weight: normal;
                          }
    rect, circle, polygon {fill: #262626; stroke: #262626;}
    rect.terminal         {fill: #ffffff; stroke: #262626; stroke-width: 1;}
    rect.nonterminal      {fill: #FFFFFF; stroke: #262626; stroke-width: 1;}
    rect.text             {fill: none; stroke: none;}
    polygon.regexp        {fill: #FFFFFF; stroke: #262626; stroke-width: 1;}
  </style>
   </defs>
   <polygon points="9 61 1 57 1 65"/>
   <polygon points="17 61 9 57 9 65"/>
   <rect x="31" y="47" width="40" height="32" rx="10"/>
   <rect x="29"
         y="45"
         width="40"
         height="32"
         class="terminal"
         rx="10"/>
   <text class="terminal" x="39" y="65">ON</text>
   <rect x="91" y="47" width="90" height="32" rx="10"/>
   <rect x="89"
         y="45"
         width="90"
         height="32"
         class="terminal"
         rx="10"/>
   <text class="terminal" x="99" y="65">CONFLICT</text>
   <rect x="221" y="47" width="26" height="32" rx="10"/>
   <rect x="219"
         y="45"
         width="26"
         height="32"
         class="terminal"
         rx="10"/>
   <text class="terminal" x="229" y="65">(</text>
   <a xmlns:xlink="http://www.w3.org/1999/xlink"
      xlink:href="#indexed_column"
      xlink:title="indexed_column">
      <rect x="287" y="47" width="124" height="32"/>
      <rect x="285" y="45" width="124" height="32" class="nonterminal"/>
      <text class="nonterminal" x="295" y="65">indexed_column</text>
   </a>
   <rect x="287" y="3" width="24" height="32" rx="10"/>
   <rect x="285"
         y="1"
         width="24"
         height="32"
         class="terminal"
         rx="10"/>
   <text class="terminal" x="295" y="21">,</text>
   <rect x="451" y="47" width="26" height="32" rx="10"/>
   <rect x="449"
         y="45"
         width="26"
         height="32"
         class="terminal"
         rx="10"/>
   <text class="terminal" x="459" y="65">)</text>
   <rect x="517" y="79" width="70" height="32" rx="10"/>
   <rect x="515"
         y="77"
         width="70"
         height="32"
         class="terminal"
         rx="10"/>
   <text class="terminal" x="525" y="97">WHERE</text>
   <a xmlns:xlink="http://www.w3.org/1999/xlink"
      xlink:href="#expr"
      xlink:title="expr">
      <rect x="607" y="79" width="48" height="32"/>
      <rect x="605" y="77" width="48" height="32" class="nonterminal"/>
      <text class="nonterminal" x="615" y="97">expr</text>
   </a>
   <rect x="715" y="47" width="40" height="32" rx="10"/>
   <rect x="713"
         y="45"
         width="40"
         height="32"
         class="terminal"
         rx="10"/>
   <text class="terminal" x="723" y="65">DO</text>
   <rect x="219" y="161" width="86" height="32" rx="10"/>
   <rect x="217"
         y="159"
         width="86"
         height="32"
         class="terminal"
         rx="10"/>
   <text class="terminal" x="227" y="179">NOTHING</text>
   <rect x="219" y="249" width="74" height="32" rx="10"/>
   <rect x="217"
         y="247"
         width="74"
         height="32"
         class="terminal"
         rx="10"/>
   <text class="terminal" x="227" y="267">UPDATE</text>
   <rect x="313" y="249" width="44" height="32" rx="10"/>
   <rect x="311"
         y="247"
         width="44"
         height="32"
         class="terminal"
         rx="10"/>
   <text class="terminal" x="321" y="267">SET</text>
   <a xmlns:xlink="http://www.w3.org/1999/xlink"
      xlink:href="#upsert_update"
      xlink:title="upsert_update">
      <rect x="397" y="249" width="114" height="32"/>
      <rect x="395" y="247" width="114" height="32" class="nonterminal"/>
      <text class="nonterminal" x="405" y="267">upsert_update</text>
   </a>
   <rect x="397" y="205" width="24" height="32" rx="10"/>
   <rect x="395"
         y="203"
         width="24"
         height="32"
         class="terminal"
         rx="10"/>
   <text class="terminal" x="405" y="223">,</text>
   <rect x="571" y="281" width="70" height="32" rx="10"/>
   <rect x="569"
         y="279"
         width="70"
         height="32"
         class="terminal"
         rx="10"/>
   <text class="terminal" x="579" y="299">WHERE</text>
   <a xmlns:xlink="http://www.w3.org/1999/xlink"
      xlink:href="#expr"
      xlink:title="expr">
      <rect x="661" y="281" width="48" height="32"/>
      <rect x="659" y="279" width="48" height="32" class="nonterminal"/>
      <text class="nonterminal" x="669" y="299">expr</text>
   </a>
   <path class="line"
         d="m17 61 h2 m0 0 h10 m40 0 h10 m0 0 h10 m90 0 h10 m20 0 h10 m26 0 h10 m20 0 h10 m124 0 h10 m-164 0 l20 0 m-1 0 q-9 0 -9 -10 l0 -24 q0 -10 10 -10 m144 44 l20 0 m-20 0 q10 0 10 -10 l0 -24 q0 -10 -10 -10 m-144 0 h10 m24 0 h10 m0 0 h100 m20 44 h10 m26 0 h10 m20 0 h10 m0 0 h148 m-178 0 h20 m158 0 h20 m-198 0 q10 0 10 10 m178 0 q0 -10 10 -10 m-188 10 v12 m178 0 v-12 m-178 12 q0 10 10 10 m158 0 q10 0 10 -10 m-168 10 h10 m70 0 h10 m0 0 h10 m48 0 h10 m-474 -32 h20 m474 0 h20 m-514 0 q10 0 10 10 m494 0 q0 -10 10 -10 m-504 10 v46 m494 0 v-46 m-494 46 q0 10 10 10 m474 0 q10 0 10 -10 m-484 10 h10 m0 0 h464 m20 -66 h10 m40 0 h10 m2 0 l2 0 m2 0 l2 0 m2 0 l2 0 m-600 114 l2 0 m2 0 l2 0 m2 0 l2 0 m22 0 h10 m86 0 h10 m0 0 h424 m-550 0 h20 m530 0 h20 m-570 0 q10 0 10 10 m550 0 q0 -10 10 -10 m-560 10 v68 m550 0 v-68 m-550 68 q0 10 10 10 m530 0 q10 0 10 -10 m-540 10 h10 m74 0 h10 m0 0 h10 m44 0 h10 m20 0 h10 m114 0 h10 m-154 0 l20 0 m-1 0 q-9 0 -9 -10 l0 -24 q0 -10 10 -10 m134 44 l20 0 m-20 0 q10 0 10 -10 l0 -24 q0 -10 -10 -10 m-134 0 h10 m24 0 h10 m0 0 h90 m40 44 h10 m0 0 h148 m-178 0 h20 m158 0 h20 m-198 0 q10 0 10 10 m178 0 q0 -10 10 -10 m-188 10 v12 m178 0 v-12 m-178 12 q0 10 10 10 m158 0 q10 0 10 -10 m-168 10 h10 m70 0 h10 m0 0 h10 m48 0 h10 m43 -120 h-3"/>
   <polygon points="767 175 775 171 775 179"/>
   <polygon points="767 175 759 171 759 179"/>
</svg>
