<?xml version="1.0" encoding="UTF-8"?>
<svg xmlns="http://www.w3.org/2000/svg" width="275" height="81">
   <defs>
      <style type="text/css">
    @namespace "http://www.w3.org/2000/svg";
    .line                 {fill: none; stroke: #262626; stroke-width: 1;}
    .bold-line            {stroke: #0A0A0A; shape-rendering: crispEdges; stroke-width: 2;}
    .thin-line            {stroke: #0F0F0F; shape-rendering: crispEdges}
    .filled               {fill: #262626; stroke: none;}
    text.terminal         {font-family: Verdana, Sans-serif;
                            font-size: 12px;
                            fill: #0A0A0A;
                            font-weight: bold;
                          }
    text.nonterminal      {font-family: Verdana, Sans-serif;
                            font-size: 12px;
                            fill: #0D0D0D;
                            font-weight: normal;
                          }
    text.regexp           {font-family: Verdana, Sans-serif;
                            font-size: 12px;
                            fill: #0F0F0F;
                            font-weight: normal;
                          }
    rect, circle, polygon {fill: #262626; stroke: #262626;}
    rect.terminal         {fill: #ffffff; stroke: #262626; stroke-width: 1;}
    rect.nonterminal      {fill: #FFFFFF; stroke: #262626; stroke-width: 1;}
    rect.text             {fill: none; stroke: none;}
    polygon.regexp        {fill: #FFFFFF; stroke: #262626; stroke-width: 1;}
  </style>
   </defs>
   <polygon points="9 61 1 57 1 65"/>
   <polygon points="17 61 9 57 9 65"/>
   <rect x="31" y="47" width="72" height="32" rx="10"/>
   <rect x="29"
         y="45"
         width="72"
         height="32"
         class="terminal"
         rx="10"/>
   <text class="terminal" x="39" y="65">VALUES</text>
   <a xmlns:xlink="http://www.w3.org/1999/xlink"
      xlink:href="#value_row"
      xlink:title="value_row">
      <rect x="143" y="47" width="84" height="32"/>
      <rect x="141" y="45" width="84" height="32" class="nonterminal"/>
      <text class="nonterminal" x="151" y="65">value_row</text>
   </a>
   <rect x="143" y="3" width="24" height="32" rx="10"/>
   <rect x="141"
         y="1"
         width="24"
         height="32"
         class="terminal"
         rx="10"/>
   <text class="terminal" x="151" y="21">,</text>
   <path class="line"
         d="m17 61 h2 m0 0 h10 m72 0 h10 m20 0 h10 m84 0 h10 m-124 0 l20 0 m-1 0 q-9 0 -9 -10 l0 -24 q0 -10 10 -10 m104 44 l20 0 m-20 0 q10 0 10 -10 l0 -24 q0 -10 -10 -10 m-104 0 h10 m24 0 h10 m0 0 h60 m23 44 h-3"/>
   <polygon points="265 61 273 57 273 65"/>
   <polygon points="265 61 257 57 257 65"/>
</svg>
