<svg width="400" height="96" viewBox="0 0 400 96" fill="none" xmlns="http://www.w3.org/2000/svg">
<circle cx="4" cy="16" r="3.5" stroke="black"/>
<circle cx="396" cy="16" r="3.5" stroke="black"/>
<path d="M32 16L22 10.2265V21.7735L32 16ZM8 17H23V15H8V17Z" fill="black"/>
<path d="M94 16L84 10.2265V21.7735L94 16ZM68 17H85V15H68V17Z" fill="black"/>
<path d="M129 16L119 10.2265V21.7735L129 16ZM68 17H120V15H68V17Z" fill="black"/>
<path d="M326 16L316 10.2265V21.7735L326 16ZM273 17H317V15H273V17Z" fill="black"/>
<path d="M392 16L382 10.2265V21.7735L392 16ZM359 17H383V15H359V17Z" fill="black"/>
<path d="M184.5 80L111 80C105.477 80 101 75.5228 101 70L101 26C101 20.4772 105.477 16 111 16L123 16" stroke="black" stroke-width="2"/>
<path d="M220 81L230 86.7735V75.2265L220 81ZM274.73 17H291V15H274.73V17ZM291 80H229V82H291V80ZM300 26V48.5H302V26H300ZM300 48.5V71H302V48.5H300ZM291 82C297.075 82 302 77.0751 302 71H300C300 75.9706 295.971 80 291 80V82ZM291 17C295.971 17 300 21.0294 300 26H302C302 19.9249 297.075 15 291 15V17Z" fill="black"/>
<circle cx="51.5" cy="16.5" r="16" stroke="black"/>
<path d="M48.6875 16.7521C48.6875 15.1669 48.8984 13.7074 49.3203 12.3736C49.7464 11.0398 50.3963 9.80398 51.2699 8.66619H53.8714C53.5391 9.08807 53.2301 9.60369 52.9446 10.2131C52.6591 10.8182 52.4098 11.483 52.1967 12.2074C51.9837 12.9318 51.8175 13.6818 51.6982 14.4574C51.5788 15.2287 51.5192 15.9936 51.5192 16.7521C51.5192 17.7621 51.6214 18.7827 51.826 19.8139C52.0348 20.8409 52.3161 21.7955 52.6697 22.6776C53.0277 23.5597 53.4283 24.282 53.8714 24.8445H51.2699C50.3963 23.7067 49.7464 22.4709 49.3203 21.1371C48.8984 19.8033 48.6875 18.3416 48.6875 16.7521Z" fill="black"/>
<circle cx="342.5" cy="16.5" r="16" stroke="black"/>
<circle cx="201.5" cy="79.5" r="16" stroke="black"/>
<path d="M345.676 16.7521C345.676 18.3416 345.463 19.8033 345.037 21.1371C344.615 22.4709 343.967 23.7067 343.094 24.8445H340.492C340.825 24.4226 341.134 23.907 341.419 23.2976C341.705 22.6882 341.954 22.0234 342.167 21.3033C342.38 20.5788 342.546 19.8288 342.665 19.0533C342.785 18.2777 342.844 17.5107 342.844 16.7521C342.844 15.7422 342.74 14.7237 342.531 13.6967C342.327 12.6655 342.045 11.7109 341.688 10.8331C341.334 9.95099 340.935 9.22869 340.492 8.66619H343.094C343.967 9.80398 344.615 11.0398 345.037 12.3736C345.463 13.7074 345.676 15.1669 345.676 16.7521Z" fill="black"/>
<path d="M203.046 83.2102L202.976 83.9134C202.92 84.4759 202.814 85.0362 202.656 85.5945C202.503 86.157 202.341 86.6662 202.17 87.1222C202.004 87.5781 201.87 87.9361 201.768 88.196H200.004C200.067 87.9446 200.155 87.593 200.266 87.1413C200.376 86.6939 200.481 86.1911 200.579 85.6328C200.677 85.0746 200.739 84.5057 200.764 83.9261L200.796 83.2102H203.046Z" fill="black"/>
<path d="M144.523 22.1918C143.517 22.1918 142.652 21.9787 141.928 21.5526C141.207 21.1222 140.653 20.5256 140.266 19.7628C139.882 19 139.69 18.1222 139.69 17.1293C139.69 16.1236 139.884 15.2415 140.272 14.483C140.664 13.7202 141.22 13.1257 141.94 12.6996C142.661 12.2692 143.517 12.054 144.51 12.054C145.366 12.054 146.116 12.2095 146.76 12.5206C147.403 12.8317 147.913 13.2685 148.288 13.831C148.663 14.3935 148.869 15.054 148.908 15.8125H146.338C146.266 15.3224 146.074 14.9283 145.763 14.63C145.456 14.3274 145.053 14.1761 144.555 14.1761C144.133 14.1761 143.764 14.2912 143.449 14.5213C143.138 14.7472 142.895 15.0774 142.72 15.5121C142.545 15.9467 142.458 16.473 142.458 17.0909C142.458 17.7173 142.543 18.25 142.714 18.6889C142.888 19.1278 143.134 19.4624 143.449 19.6925C143.764 19.9226 144.133 20.0376 144.555 20.0376C144.866 20.0376 145.145 19.9737 145.392 19.8459C145.643 19.718 145.85 19.5327 146.012 19.2898C146.178 19.0426 146.287 18.7464 146.338 18.4013H148.908C148.865 19.1513 148.661 19.8118 148.294 20.3828C147.932 20.9496 147.431 21.3928 146.792 21.7124C146.153 22.032 145.396 22.1918 144.523 22.1918ZM155.087 22.1918C154.094 22.1918 153.236 21.9808 152.511 21.5589C151.791 21.1328 151.235 20.5405 150.843 19.782C150.451 19.0192 150.255 18.1349 150.255 17.1293C150.255 16.1151 150.451 15.2287 150.843 14.4702C151.235 13.7074 151.791 13.1151 152.511 12.6932C153.236 12.267 154.094 12.054 155.087 12.054C156.08 12.054 156.937 12.267 157.657 12.6932C158.381 13.1151 158.939 13.7074 159.331 14.4702C159.724 15.2287 159.92 16.1151 159.92 17.1293C159.92 18.1349 159.724 19.0192 159.331 19.782C158.939 20.5405 158.381 21.1328 157.657 21.5589C156.937 21.9808 156.08 22.1918 155.087 22.1918ZM155.1 20.0824C155.552 20.0824 155.929 19.9545 156.231 19.6989C156.534 19.4389 156.762 19.0852 156.915 18.6378C157.073 18.1903 157.152 17.6811 157.152 17.1101C157.152 16.5391 157.073 16.0298 156.915 15.5824C156.762 15.1349 156.534 14.7812 156.231 14.5213C155.929 14.2614 155.552 14.1314 155.1 14.1314C154.644 14.1314 154.26 14.2614 153.949 14.5213C153.643 14.7812 153.41 15.1349 153.253 15.5824C153.099 16.0298 153.023 16.5391 153.023 17.1101C153.023 17.6811 153.099 18.1903 153.253 18.6378C153.41 19.0852 153.643 19.4389 153.949 19.6989C154.26 19.9545 154.644 20.0824 155.1 20.0824ZM164.413 8.90909V22H161.69V8.90909H164.413ZM172.891 17.8196V12.1818H175.614V22H172.999V20.2166H172.897C172.675 20.7919 172.307 21.2543 171.791 21.6037C171.28 21.9531 170.656 22.1278 169.918 22.1278C169.262 22.1278 168.685 21.9787 168.186 21.6804C167.688 21.3821 167.298 20.9581 167.016 20.4084C166.739 19.8587 166.599 19.2003 166.594 18.4332V12.1818H169.317V17.9474C169.322 18.527 169.477 18.9851 169.784 19.3217C170.091 19.6584 170.502 19.8267 171.018 19.8267C171.346 19.8267 171.653 19.7521 171.938 19.603C172.224 19.4496 172.454 19.2237 172.629 18.9254C172.808 18.6271 172.895 18.2585 172.891 17.8196ZM177.792 22V12.1818H180.387V13.9141H180.502C180.706 13.3388 181.047 12.8849 181.525 12.5526C182.002 12.2202 182.573 12.054 183.238 12.054C183.911 12.054 184.484 12.2223 184.957 12.5589C185.43 12.8913 185.746 13.343 185.903 13.9141H186.006C186.206 13.3516 186.568 12.902 187.092 12.5653C187.621 12.2244 188.245 12.054 188.965 12.054C189.881 12.054 190.625 12.3459 191.196 12.9297C191.771 13.5092 192.059 14.3317 192.059 15.397V22H189.342V15.9339C189.342 15.3885 189.197 14.9794 188.907 14.7067C188.618 14.4339 188.256 14.2976 187.821 14.2976C187.327 14.2976 186.941 14.4553 186.664 14.7706C186.387 15.0817 186.248 15.4929 186.248 16.0043V22H183.608V15.8764C183.608 15.3949 183.47 15.0114 183.193 14.7259C182.92 14.4403 182.56 14.2976 182.113 14.2976C181.81 14.2976 181.537 14.3743 181.295 14.5277C181.056 14.6768 180.866 14.8878 180.726 15.1605C180.585 15.429 180.515 15.7443 180.515 16.1065V22H177.792ZM196.933 16.3239V22H194.21V12.1818H196.805V13.9141H196.92C197.137 13.343 197.502 12.8913 198.013 12.5589C198.524 12.2223 199.144 12.054 199.873 12.054C200.555 12.054 201.149 12.2031 201.656 12.5014C202.164 12.7997 202.558 13.2259 202.839 13.7798C203.12 14.3295 203.261 14.9858 203.261 15.7486V22H200.538V16.2344C200.542 15.6335 200.389 15.1648 200.078 14.8281C199.767 14.4872 199.338 14.3168 198.793 14.3168C198.426 14.3168 198.102 14.3956 197.821 14.5533C197.544 14.7109 197.327 14.9411 197.169 15.2436C197.016 15.5419 196.937 15.902 196.933 16.3239ZM211.524 15.544V17.7045H205.554V15.544H211.524ZM216.567 16.3239V22H213.844V12.1818H216.44V13.9141H216.555C216.772 13.343 217.136 12.8913 217.648 12.5589C218.159 12.2223 218.779 12.054 219.508 12.054C220.19 12.054 220.784 12.2031 221.291 12.5014C221.798 12.7997 222.192 13.2259 222.474 13.7798C222.755 14.3295 222.896 14.9858 222.896 15.7486V22H220.173V16.2344C220.177 15.6335 220.023 15.1648 219.712 14.8281C219.401 14.4872 218.973 14.3168 218.428 14.3168C218.061 14.3168 217.737 14.3956 217.456 14.5533C217.179 14.7109 216.962 14.9411 216.804 15.2436C216.651 15.5419 216.572 15.902 216.567 16.3239ZM227.841 22.1854C227.215 22.1854 226.657 22.0767 226.167 21.8594C225.677 21.6378 225.289 21.3118 225.003 20.8814C224.722 20.4467 224.581 19.9055 224.581 19.2578C224.581 18.7124 224.682 18.2543 224.882 17.8835C225.082 17.5128 225.355 17.2145 225.7 16.9886C226.045 16.7628 226.437 16.5923 226.876 16.4773C227.319 16.3622 227.784 16.2812 228.27 16.2344C228.841 16.1747 229.301 16.1193 229.65 16.0682C230 16.0128 230.253 15.9318 230.411 15.8253C230.569 15.7187 230.648 15.5611 230.648 15.3523V15.3139C230.648 14.9091 230.52 14.5959 230.264 14.3743C230.013 14.1527 229.655 14.0419 229.19 14.0419C228.7 14.0419 228.31 14.1506 228.02 14.3679C227.731 14.581 227.539 14.8494 227.445 15.1733L224.927 14.9688C225.055 14.3722 225.306 13.8565 225.681 13.4219C226.056 12.983 226.54 12.6463 227.132 12.4119C227.729 12.1733 228.419 12.054 229.203 12.054C229.748 12.054 230.27 12.1179 230.769 12.2457C231.272 12.3736 231.717 12.5717 232.105 12.8402C232.497 13.1087 232.806 13.4538 233.032 13.8757C233.258 14.2933 233.371 14.794 233.371 15.3778V22H230.788V20.6385H230.711C230.554 20.9453 230.343 21.2159 230.079 21.4503C229.814 21.6804 229.497 21.8615 229.126 21.9936C228.756 22.1214 228.327 22.1854 227.841 22.1854ZM228.621 20.3061C229.022 20.3061 229.376 20.2273 229.682 20.0696C229.989 19.9077 230.23 19.6903 230.405 19.4176C230.579 19.1449 230.667 18.8359 230.667 18.4908V17.4489C230.581 17.5043 230.464 17.5554 230.315 17.6023C230.17 17.6449 230.006 17.6854 229.823 17.7237C229.64 17.7578 229.456 17.7898 229.273 17.8196C229.09 17.8452 228.924 17.8686 228.775 17.8899C228.455 17.9368 228.176 18.0114 227.937 18.1136C227.699 18.2159 227.513 18.3544 227.381 18.5291C227.249 18.6996 227.183 18.9126 227.183 19.1683C227.183 19.5391 227.317 19.8224 227.586 20.0185C227.858 20.2102 228.204 20.3061 228.621 20.3061ZM235.483 22V12.1818H238.078V13.9141H238.193C238.398 13.3388 238.739 12.8849 239.216 12.5526C239.693 12.2202 240.264 12.054 240.929 12.054C241.602 12.054 242.176 12.2223 242.649 12.5589C243.122 12.8913 243.437 13.343 243.595 13.9141H243.697C243.897 13.3516 244.259 12.902 244.784 12.5653C245.312 12.2244 245.936 12.054 246.656 12.054C247.573 12.054 248.316 12.3459 248.887 12.9297C249.463 13.5092 249.75 14.3317 249.75 15.397V22H247.034V15.9339C247.034 15.3885 246.889 14.9794 246.599 14.7067C246.309 14.4339 245.947 14.2976 245.512 14.2976C245.018 14.2976 244.632 14.4553 244.355 14.7706C244.078 15.0817 243.94 15.4929 243.94 16.0043V22H241.3V15.8764C241.3 15.3949 241.161 15.0114 240.884 14.7259C240.612 14.4403 240.252 14.2976 239.804 14.2976C239.502 14.2976 239.229 14.3743 238.986 14.5277C238.747 14.6768 238.558 14.8878 238.417 15.1605C238.276 15.429 238.206 15.7443 238.206 16.1065V22H235.483ZM256.376 22.1918C255.366 22.1918 254.496 21.9872 253.768 21.5781C253.043 21.1648 252.485 20.581 252.093 19.8267C251.701 19.0682 251.505 18.1712 251.505 17.1357C251.505 16.1257 251.701 15.2393 252.093 14.4766C252.485 13.7138 253.037 13.1193 253.748 12.6932C254.464 12.267 255.304 12.054 256.267 12.054C256.915 12.054 257.518 12.1584 258.076 12.3672C258.638 12.5717 259.128 12.8807 259.546 13.294C259.968 13.7074 260.296 14.2273 260.53 14.8537C260.765 15.4759 260.882 16.2045 260.882 17.0398V17.7876H252.591V16.1001H258.319C258.319 15.7081 258.233 15.3608 258.063 15.0582C257.893 14.7557 257.656 14.5192 257.354 14.3487C257.055 14.174 256.708 14.0866 256.312 14.0866C255.898 14.0866 255.532 14.1825 255.212 14.3743C254.897 14.5618 254.65 14.8153 254.471 15.1349C254.292 15.4503 254.2 15.8018 254.196 16.1896V17.794C254.196 18.2798 254.285 18.6996 254.464 19.0533C254.648 19.407 254.905 19.6797 255.238 19.8714C255.57 20.0632 255.964 20.1591 256.42 20.1591C256.723 20.1591 257 20.1165 257.251 20.0312C257.503 19.946 257.718 19.8182 257.897 19.6477C258.076 19.4773 258.212 19.2685 258.306 19.0213L260.824 19.1875C260.697 19.7926 260.434 20.321 260.038 20.7727C259.646 21.2202 259.139 21.5696 258.517 21.821C257.899 22.0682 257.185 22.1918 256.376 22.1918Z" fill="black"/>
<rect x="129.5" y="0.5" width="143" height="32" rx="16" stroke="black"/>
</svg>
