<svg width="675" height="160" viewBox="0 0 675 160" fill="none" xmlns="http://www.w3.org/2000/svg">
<circle cx="250.5" cy="33.5" r="16" stroke="black"/>
<path d="M247.688 33.7521C247.688 32.1669 247.898 30.7074 248.32 29.3736C248.746 28.0398 249.396 26.804 250.27 25.6662H252.871C252.539 26.0881 252.23 26.6037 251.945 27.2131C251.659 27.8182 251.41 28.483 251.197 29.2074C250.984 29.9318 250.817 30.6818 250.698 31.4574C250.579 32.2287 250.519 32.9936 250.519 33.7521C250.519 34.7621 250.621 35.7827 250.826 36.8139C251.035 37.8409 251.316 38.7955 251.67 39.6776C252.028 40.5597 252.428 41.282 252.871 41.8445H250.27C249.396 40.7067 248.746 39.4709 248.32 38.1371C247.898 36.8033 247.688 35.3416 247.688 33.7521Z" fill="black"/>
<circle cx="430.5" cy="143.5" r="16" stroke="black"/>
<path d="M427.688 143.752C427.688 142.167 427.898 140.707 428.32 139.374C428.746 138.04 429.396 136.804 430.27 135.666H432.871C432.539 136.088 432.23 136.604 431.945 137.213C431.659 137.818 431.41 138.483 431.197 139.207C430.984 139.932 430.817 140.682 430.698 141.457C430.579 142.229 430.519 142.994 430.519 143.752C430.519 144.762 430.621 145.783 430.826 146.814C431.035 147.841 431.316 148.795 431.67 149.678C432.028 150.56 432.428 151.282 432.871 151.844H430.27C429.396 150.707 428.746 149.471 428.32 148.137C427.898 146.803 427.688 145.342 427.688 143.752Z" fill="black"/>
<circle cx="542.5" cy="33.5" r="16" stroke="black"/>
<path d="M544.676 33.7521C544.676 35.3416 544.463 36.8033 544.037 38.1371C543.615 39.4709 542.967 40.7067 542.094 41.8445H539.492C539.825 41.4226 540.134 40.907 540.419 40.2976C540.705 39.6882 540.954 39.0234 541.167 38.3033C541.38 37.5788 541.546 36.8288 541.665 36.0533C541.785 35.2777 541.844 34.5107 541.844 33.7521C541.844 32.7422 541.74 31.7237 541.531 30.6967C541.327 29.6655 541.045 28.7109 540.688 27.8331C540.334 26.951 539.935 26.2287 539.492 25.6662H542.094C542.967 26.804 543.615 28.0398 544.037 29.3736C544.463 30.7074 544.676 32.1669 544.676 33.7521Z" fill="black"/>
<circle cx="419.5" cy="79.5" r="16" stroke="black"/>
<path d="M421.046 82.2102L420.976 82.9134C420.92 83.4759 420.814 84.0362 420.656 84.5945C420.503 85.157 420.341 85.6662 420.17 86.1222C420.004 86.5781 419.87 86.9361 419.768 87.196H418.004C418.067 86.9446 418.155 86.593 418.266 86.1413C418.376 85.6939 418.481 85.1911 418.579 84.6328C418.677 84.0746 418.739 83.5057 418.764 82.9261L418.796 82.2102H421.046Z" fill="black"/>
<circle cx="4" cy="33" r="3.5" stroke="black"/>
<circle cx="671" cy="143" r="3.5" stroke="black"/>
<path d="M32 33L22 27.2265V38.7735L32 33ZM8 34H23V32H8V34Z" fill="black"/>
<path d="M190 33L180 27.2265V38.7735L190 33ZM166 34H181V32H166V34Z" fill="black"/>
<path d="M234 33L224 27.2265V38.7735L234 33ZM166 34H225V32H166V34Z" fill="black"/>
<path d="M294 33L284 27.2265V38.7735L294 33ZM267 34H285V32H267V34Z" fill="black"/>
<path d="M337 33L327 27.2265V38.7735L337 33ZM267 34H328V32H267V34Z" fill="black"/>
<path d="M403 79L317 79C311.477 79 307 74.5228 307 69L307 43C307 37.4771 311.477 33 317 33L324.089 33" stroke="black" stroke-width="2"/>
<path d="M526 33L516 27.2265V38.7735L526 33ZM490 34H517V32H490V34Z" fill="black"/>
<path d="M317.5 103.002L317.5 104.002L317.5 103.002ZM317.5 142.5L317.5 141.5L317.5 142.5ZM342.5 142.5L332.5 136.726L332.5 148.273L342.5 142.5ZM478 102.002L317.5 102.002L317.5 104.002L478 104.002L478 102.002ZM306.5 113.002L306.5 132.5L308.5 132.5L308.5 113.002L306.5 113.002ZM317.5 143.5L333.5 143.5L333.5 141.5L317.5 141.5L317.5 143.5ZM306.5 132.5C306.5 138.575 311.425 143.5 317.5 143.5L317.5 141.5C312.529 141.5 308.5 137.471 308.5 132.5L306.5 132.5ZM317.5 102.002C311.425 102.002 306.5 106.927 306.5 113.002L308.5 113.002C308.5 108.031 312.529 104.002 317.5 104.002L317.5 102.002Z" fill="black"/>
<path d="M461 103L471 108.774V97.2265L461 103ZM593 34H608.5V32H593V34ZM617.5 43V93H619.5V43H617.5ZM608.5 102H470V104H608.5V102ZM617.5 93C617.5 97.9706 613.471 102 608.5 102V104C614.575 104 619.5 99.0751 619.5 93H617.5ZM608.5 34C613.471 34 617.5 38.0294 617.5 43H619.5C619.5 36.9249 614.575 32 608.5 32V34Z" fill="black"/>
<path d="M414 143L404 137.226V148.774L414 143ZM390 144H405V142H390V144Z" fill="black"/>
<circle cx="626.5" cy="143.5" r="16" stroke="black"/>
<path d="M628.676 143.752C628.676 145.342 628.463 146.803 628.037 148.137C627.615 149.471 626.967 150.707 626.094 151.844H623.492C623.825 151.423 624.134 150.907 624.419 150.298C624.705 149.688 624.954 149.023 625.167 148.303C625.38 147.579 625.546 146.829 625.665 146.053C625.785 145.278 625.844 144.511 625.844 143.752C625.844 142.742 625.74 141.724 625.531 140.697C625.327 139.665 625.045 138.711 624.688 137.833C624.334 136.951 623.935 136.229 623.492 135.666H626.094C626.967 136.804 627.615 138.04 628.037 139.374C628.463 140.707 628.676 142.167 628.676 143.752Z" fill="black"/>
<path d="M610 143L600 137.226V148.774L610 143ZM586 144H601V142H586V144Z" fill="black"/>
<path d="M471 143L461 137.226V148.774L471 143ZM447 144H462V142H447V144Z" fill="black"/>
<path d="M667 143L657 137.226V148.774L667 143ZM643 144H658V142H643V144Z" fill="black"/>
<path d="M605.5 33L595.5 27.2265V38.7735L605.5 33ZM403 7H570V5H403V7ZM579 16V23H581V16H579ZM590 34H595.5V32H590V34ZM595.5 34H596.5V32H595.5V34ZM559.5 34H590V32H559.5V34ZM579 23C579 29.0751 583.925 34 590 34V32C585.029 32 581 27.9706 581 23H579ZM570 7C574.971 7 579 11.0294 579 16H581C581 9.92487 576.075 5 570 5V7Z" fill="black"/>
<path d="M436 79L446 84.7735V73.2265L436 79ZM492.429 34H501V32H492.429V34ZM510 43V69H512V43H510ZM501 78H486V80H501V78ZM486 78H445V80H486V78ZM510 69C510 73.9706 505.971 78 501 78V80C507.075 80 512 75.0751 512 69H510ZM501 34C505.971 34 510 38.0294 510 43H512C512 36.9249 507.075 32 501 32V34Z" fill="black"/>
<path d="M418.5 6L408.5 0.226497V11.7735L418.5 6ZM166 34H196.258V32H166V34ZM207.258 23V16H205.258V23H207.258ZM216.258 7H409.5V5H216.258V7ZM207.258 16C207.258 11.0294 211.287 7 216.258 7V5C210.183 5 205.258 9.92487 205.258 16H207.258ZM196.258 34C202.333 34 207.258 29.0751 207.258 23H205.258C205.258 27.9706 201.228 32 196.258 32V34Z" fill="black"/>
<path d="M54.3089 29.1818V31.2273H48.3963V29.1818H54.3089ZM49.7386 26.8295H52.4616V35.983C52.4616 36.2344 52.5 36.4304 52.5767 36.571C52.6534 36.7074 52.7599 36.8033 52.8963 36.8587C53.0369 36.9141 53.1989 36.9418 53.3821 36.9418C53.5099 36.9418 53.6378 36.9311 53.7656 36.9098C53.8935 36.8842 53.9915 36.8651 54.0597 36.8523L54.4879 38.8786C54.3516 38.9212 54.1598 38.9702 53.9126 39.0256C53.6655 39.0852 53.3651 39.1214 53.0114 39.1342C52.3551 39.1598 51.7798 39.0724 51.2855 38.8722C50.7955 38.6719 50.4141 38.3608 50.1413 37.9389C49.8686 37.517 49.7344 36.9844 49.7386 36.3409V26.8295ZM58.8825 39.1854C58.256 39.1854 57.6978 39.0767 57.2077 38.8594C56.7177 38.6378 56.3299 38.3118 56.0444 37.8814C55.7631 37.4467 55.6225 36.9055 55.6225 36.2578C55.6225 35.7124 55.7227 35.2543 55.9229 34.8835C56.1232 34.5128 56.396 34.2145 56.7411 33.9886C57.0863 33.7628 57.4783 33.5923 57.9173 33.4773C58.3604 33.3622 58.8249 33.2812 59.3107 33.2344C59.8817 33.1747 60.342 33.1193 60.6914 33.0682C61.0408 33.0128 61.2944 32.9318 61.4521 32.8253C61.6097 32.7187 61.6886 32.5611 61.6886 32.3523V32.3139C61.6886 31.9091 61.5607 31.5959 61.305 31.3743C61.0536 31.1527 60.6957 31.0419 60.2312 31.0419C59.7411 31.0419 59.3512 31.1506 59.0614 31.3679C58.7717 31.581 58.5799 31.8494 58.4862 32.1733L55.9677 31.9688C56.0955 31.3722 56.3469 30.8565 56.7219 30.4219C57.0969 29.983 57.5806 29.6463 58.1729 29.4119C58.7695 29.1733 59.4599 29.054 60.244 29.054C60.7894 29.054 61.3114 29.1179 61.81 29.2457C62.3129 29.3736 62.7582 29.5717 63.146 29.8402C63.538 30.1087 63.8469 30.4538 64.0728 30.8757C64.2987 31.2933 64.4116 31.794 64.4116 32.3778V39H61.8292V37.6385H61.7525C61.5948 37.9453 61.3839 38.2159 61.1197 38.4503C60.8555 38.6804 60.538 38.8615 60.1673 38.9936C59.7965 39.1214 59.3683 39.1854 58.8825 39.1854ZM59.6623 37.3061C60.0629 37.3061 60.4165 37.2273 60.7234 37.0696C61.0302 36.9077 61.271 36.6903 61.4457 36.4176C61.6204 36.1449 61.7077 35.8359 61.7077 35.4908V34.4489C61.6225 34.5043 61.5053 34.5554 61.3562 34.6023C61.2113 34.6449 61.0472 34.6854 60.864 34.7237C60.6808 34.7578 60.4975 34.7898 60.3143 34.8196C60.131 34.8452 59.9648 34.8686 59.8157 34.8899C59.4961 34.9368 59.217 35.0114 58.9783 35.1136C58.7397 35.2159 58.5543 35.3544 58.4222 35.5291C58.2901 35.6996 58.2241 35.9126 58.2241 36.1683C58.2241 36.5391 58.3583 36.8224 58.6268 37.0185C58.8995 37.2102 59.2447 37.3061 59.6623 37.3061ZM66.5753 39V25.9091H69.2983V30.831H69.3814C69.5007 30.5668 69.6733 30.2983 69.8991 30.0256C70.1293 29.7486 70.4276 29.5185 70.794 29.3352C71.1648 29.1477 71.625 29.054 72.1747 29.054C72.8906 29.054 73.5511 29.2415 74.1562 29.6165C74.7614 29.9872 75.245 30.5476 75.6072 31.2976C75.9695 32.0433 76.1506 32.9787 76.1506 34.1037C76.1506 35.1989 75.9737 36.1236 75.62 36.8778C75.2706 37.6278 74.7933 38.1967 74.1882 38.5845C73.5874 38.968 72.9141 39.1598 72.1683 39.1598C71.6399 39.1598 71.1903 39.0724 70.8196 38.8977C70.4531 38.723 70.1527 38.5036 69.9183 38.2393C69.6839 37.9709 69.505 37.7003 69.3814 37.4276H69.2599V39H66.5753ZM69.2408 34.0909C69.2408 34.6747 69.3217 35.1839 69.4837 35.6186C69.6456 36.0533 69.88 36.392 70.1868 36.6349C70.4936 36.8736 70.8665 36.9929 71.3054 36.9929C71.7486 36.9929 72.1236 36.8714 72.4304 36.6286C72.7372 36.3814 72.9695 36.0405 73.1271 35.6058C73.2891 35.1669 73.37 34.6619 73.37 34.0909C73.37 33.5241 73.2912 33.0256 73.1335 32.5952C72.9759 32.1648 72.7436 31.8281 72.4368 31.5852C72.13 31.3423 71.7528 31.2209 71.3054 31.2209C70.8622 31.2209 70.4872 31.3381 70.1804 31.5724C69.8778 31.8068 69.6456 32.1392 69.4837 32.5696C69.3217 33 69.2408 33.5071 69.2408 34.0909ZM80.6905 25.9091V39H77.9675V25.9091H80.6905ZM87.3462 39.1918C86.3363 39.1918 85.467 38.9872 84.7383 38.5781C84.0138 38.1648 83.4556 37.581 83.0636 36.8267C82.6715 36.0682 82.4755 35.1712 82.4755 34.1357C82.4755 33.1257 82.6715 32.2393 83.0636 31.4766C83.4556 30.7138 84.0075 30.1193 84.7191 29.6932C85.435 29.267 86.2745 29.054 87.2376 29.054C87.8853 29.054 88.4883 29.1584 89.0465 29.3672C89.609 29.5717 90.0991 29.8807 90.5167 30.294C90.9386 30.7074 91.2667 31.2273 91.5011 31.8537C91.7354 32.4759 91.8526 33.2045 91.8526 34.0398V34.7876H83.5621V33.1001H89.2894C89.2894 32.7081 89.2042 32.3608 89.0337 32.0582C88.8633 31.7557 88.6268 31.5192 88.3242 31.3487C88.0259 31.174 87.6786 31.0866 87.2823 31.0866C86.869 31.0866 86.5025 31.1825 86.1829 31.3743C85.8675 31.5618 85.6204 31.8153 85.4414 32.1349C85.2624 32.4503 85.1708 32.8018 85.1665 33.1896V34.794C85.1665 35.2798 85.256 35.6996 85.435 36.0533C85.6183 36.407 85.8761 36.6797 86.2085 36.8714C86.5408 37.0632 86.935 37.1591 87.391 37.1591C87.6935 37.1591 87.9705 37.1165 88.2219 37.0312C88.4734 36.946 88.6886 36.8182 88.8675 36.6477C89.0465 36.4773 89.1829 36.2685 89.2766 36.0213L91.7951 36.1875C91.6673 36.7926 91.4052 37.321 91.0089 37.7727C90.6168 38.2202 90.1097 38.5696 89.4876 38.821C88.8697 39.0682 88.1559 39.1918 87.3462 39.1918ZM99.7468 32.544V34.7045H93.7766V32.544H99.7468ZM104.79 33.3239V39H102.067V29.1818H104.662V30.9141H104.777C104.995 30.343 105.359 29.8913 105.87 29.5589C106.382 29.2223 107.002 29.054 107.73 29.054C108.412 29.054 109.007 29.2031 109.514 29.5014C110.021 29.7997 110.415 30.2259 110.696 30.7798C110.978 31.3295 111.118 31.9858 111.118 32.7486V39H108.395V33.2344C108.4 32.6335 108.246 32.1648 107.935 31.8281C107.624 31.4872 107.196 31.3168 106.65 31.3168C106.284 31.3168 105.96 31.3956 105.679 31.5533C105.402 31.7109 105.184 31.9411 105.027 32.2436C104.873 32.5419 104.794 32.902 104.79 33.3239ZM116.064 39.1854C115.438 39.1854 114.879 39.0767 114.389 38.8594C113.899 38.6378 113.512 38.3118 113.226 37.8814C112.945 37.4467 112.804 36.9055 112.804 36.2578C112.804 35.7124 112.904 35.2543 113.105 34.8835C113.305 34.5128 113.578 34.2145 113.923 33.9886C114.268 33.7628 114.66 33.5923 115.099 33.4773C115.542 33.3622 116.007 33.2812 116.492 33.2344C117.063 33.1747 117.524 33.1193 117.873 33.0682C118.222 33.0128 118.476 32.9318 118.634 32.8253C118.791 32.7187 118.87 32.5611 118.87 32.3523V32.3139C118.87 31.9091 118.742 31.5959 118.487 31.3743C118.235 31.1527 117.877 31.0419 117.413 31.0419C116.923 31.0419 116.533 31.1506 116.243 31.3679C115.953 31.581 115.762 31.8494 115.668 32.1733L113.149 31.9688C113.277 31.3722 113.529 30.8565 113.904 30.4219C114.279 29.983 114.762 29.6463 115.355 29.4119C115.951 29.1733 116.642 29.054 117.426 29.054C117.971 29.054 118.493 29.1179 118.992 29.2457C119.494 29.3736 119.94 29.5717 120.328 29.8402C120.72 30.1087 121.029 30.4538 121.254 30.8757C121.48 31.2933 121.593 31.794 121.593 32.3778V39H119.011V37.6385H118.934C118.776 37.9453 118.566 38.2159 118.301 38.4503C118.037 38.6804 117.72 38.8615 117.349 38.9936C116.978 39.1214 116.55 39.1854 116.064 39.1854ZM116.844 37.3061C117.244 37.3061 117.598 37.2273 117.905 37.0696C118.212 36.9077 118.453 36.6903 118.627 36.4176C118.802 36.1449 118.889 35.8359 118.889 35.4908V34.4489C118.804 34.5043 118.687 34.5554 118.538 34.6023C118.393 34.6449 118.229 34.6854 118.046 34.7237C117.862 34.7578 117.679 34.7898 117.496 34.8196C117.313 34.8452 117.146 34.8686 116.997 34.8899C116.678 34.9368 116.399 35.0114 116.16 35.1136C115.921 35.2159 115.736 35.3544 115.604 35.5291C115.472 35.6996 115.406 35.9126 115.406 36.1683C115.406 36.5391 115.54 36.8224 115.808 37.0185C116.081 37.2102 116.426 37.3061 116.844 37.3061ZM123.706 39V29.1818H126.301V30.9141H126.416C126.621 30.3388 126.961 29.8849 127.439 29.5526C127.916 29.2202 128.487 29.054 129.152 29.054C129.825 29.054 130.398 29.2223 130.871 29.5589C131.344 29.8913 131.66 30.343 131.817 30.9141H131.92C132.12 30.3516 132.482 29.902 133.006 29.5653C133.535 29.2244 134.159 29.054 134.879 29.054C135.795 29.054 136.539 29.3459 137.11 29.9297C137.685 30.5092 137.973 31.3317 137.973 32.397V39H135.256V32.9339C135.256 32.3885 135.111 31.9794 134.822 31.7067C134.532 31.4339 134.17 31.2976 133.735 31.2976C133.241 31.2976 132.855 31.4553 132.578 31.7706C132.301 32.0817 132.162 32.4929 132.162 33.0043V39H129.523V32.8764C129.523 32.3949 129.384 32.0114 129.107 31.7259C128.834 31.4403 128.474 31.2976 128.027 31.2976C127.724 31.2976 127.452 31.3743 127.209 31.5277C126.97 31.6768 126.78 31.8878 126.64 32.1605C126.499 32.429 126.429 32.7443 126.429 33.1065V39H123.706ZM144.598 39.1918C143.588 39.1918 142.719 38.9872 141.99 38.5781C141.266 38.1648 140.708 37.581 140.316 36.8267C139.923 36.0682 139.727 35.1712 139.727 34.1357C139.727 33.1257 139.923 32.2393 140.316 31.4766C140.708 30.7138 141.259 30.1193 141.971 29.6932C142.687 29.267 143.526 29.054 144.49 29.054C145.137 29.054 145.74 29.1584 146.298 29.3672C146.861 29.5717 147.351 29.8807 147.769 30.294C148.191 30.7074 148.519 31.2273 148.753 31.8537C148.987 32.4759 149.105 33.2045 149.105 34.0398V34.7876H140.814V33.1001H146.541C146.541 32.7081 146.456 32.3608 146.286 32.0582C146.115 31.7557 145.879 31.5192 145.576 31.3487C145.278 31.174 144.931 31.0866 144.534 31.0866C144.121 31.0866 143.754 31.1825 143.435 31.3743C143.119 31.5618 142.872 31.8153 142.693 32.1349C142.514 32.4503 142.423 32.8018 142.419 33.1896V34.794C142.419 35.2798 142.508 35.6996 142.687 36.0533C142.87 36.407 143.128 36.6797 143.46 36.8714C143.793 37.0632 144.187 37.1591 144.643 37.1591C144.945 37.1591 145.222 37.1165 145.474 37.0312C145.725 36.946 145.941 36.8182 146.119 36.6477C146.298 36.4773 146.435 36.2685 146.529 36.0213L149.047 36.1875C148.919 36.7926 148.657 37.321 148.261 37.7727C147.869 38.2202 147.362 38.5696 146.74 38.821C146.122 39.0682 145.408 39.1918 144.598 39.1918Z" fill="black"/>
<rect x="33.5" y="17.5" width="132" height="32" rx="16" stroke="black"/>
<path d="M357.523 39.1918C356.517 39.1918 355.652 38.9787 354.928 38.5526C354.207 38.1222 353.653 37.5256 353.266 36.7628C352.882 36 352.69 35.1222 352.69 34.1293C352.69 33.1236 352.884 32.2415 353.272 31.483C353.664 30.7202 354.22 30.1257 354.94 29.6996C355.661 29.2692 356.517 29.054 357.51 29.054C358.366 29.054 359.116 29.2095 359.76 29.5206C360.403 29.8317 360.913 30.2685 361.288 30.831C361.663 31.3935 361.869 32.054 361.908 32.8125H359.338C359.266 32.3224 359.074 31.9283 358.763 31.63C358.456 31.3274 358.053 31.1761 357.555 31.1761C357.133 31.1761 356.764 31.2912 356.449 31.5213C356.138 31.7472 355.895 32.0774 355.72 32.5121C355.545 32.9467 355.458 33.473 355.458 34.0909C355.458 34.7173 355.543 35.25 355.714 35.6889C355.888 36.1278 356.134 36.4624 356.449 36.6925C356.764 36.9226 357.133 37.0376 357.555 37.0376C357.866 37.0376 358.145 36.9737 358.392 36.8459C358.643 36.718 358.85 36.5327 359.012 36.2898C359.178 36.0426 359.287 35.7464 359.338 35.4013H361.908C361.865 36.1513 361.661 36.8118 361.294 37.3828C360.932 37.9496 360.431 38.3928 359.792 38.7124C359.153 39.032 358.396 39.1918 357.523 39.1918ZM368.087 39.1918C367.094 39.1918 366.236 38.9808 365.511 38.5589C364.791 38.1328 364.235 37.5405 363.843 36.782C363.451 36.0192 363.255 35.1349 363.255 34.1293C363.255 33.1151 363.451 32.2287 363.843 31.4702C364.235 30.7074 364.791 30.1151 365.511 29.6932C366.236 29.267 367.094 29.054 368.087 29.054C369.08 29.054 369.937 29.267 370.657 29.6932C371.381 30.1151 371.939 30.7074 372.331 31.4702C372.724 32.2287 372.92 33.1151 372.92 34.1293C372.92 35.1349 372.724 36.0192 372.331 36.782C371.939 37.5405 371.381 38.1328 370.657 38.5589C369.937 38.9808 369.08 39.1918 368.087 39.1918ZM368.1 37.0824C368.552 37.0824 368.929 36.9545 369.231 36.6989C369.534 36.4389 369.762 36.0852 369.915 35.6378C370.073 35.1903 370.152 34.6811 370.152 34.1101C370.152 33.5391 370.073 33.0298 369.915 32.5824C369.762 32.1349 369.534 31.7812 369.231 31.5213C368.929 31.2614 368.552 31.1314 368.1 31.1314C367.644 31.1314 367.26 31.2614 366.949 31.5213C366.643 31.7812 366.41 32.1349 366.253 32.5824C366.099 33.0298 366.023 33.5391 366.023 34.1101C366.023 34.6811 366.099 35.1903 366.253 35.6378C366.41 36.0852 366.643 36.4389 366.949 36.6989C367.26 36.9545 367.644 37.0824 368.1 37.0824ZM377.413 25.9091V39H374.69V25.9091H377.413ZM385.891 34.8196V29.1818H388.614V39H385.999V37.2166H385.897C385.675 37.7919 385.307 38.2543 384.791 38.6037C384.28 38.9531 383.656 39.1278 382.918 39.1278C382.262 39.1278 381.685 38.9787 381.186 38.6804C380.688 38.3821 380.298 37.9581 380.016 37.4084C379.739 36.8587 379.599 36.2003 379.594 35.4332V29.1818H382.317V34.9474C382.322 35.527 382.477 35.9851 382.784 36.3217C383.091 36.6584 383.502 36.8267 384.018 36.8267C384.346 36.8267 384.653 36.7521 384.938 36.603C385.224 36.4496 385.454 36.2237 385.629 35.9254C385.808 35.6271 385.895 35.2585 385.891 34.8196ZM390.792 39V29.1818H393.387V30.9141H393.502C393.706 30.3388 394.047 29.8849 394.525 29.5526C395.002 29.2202 395.573 29.054 396.238 29.054C396.911 29.054 397.484 29.2223 397.957 29.5589C398.43 29.8913 398.746 30.343 398.903 30.9141H399.006C399.206 30.3516 399.568 29.902 400.092 29.5653C400.621 29.2244 401.245 29.054 401.965 29.054C402.881 29.054 403.625 29.3459 404.196 29.9297C404.771 30.5092 405.059 31.3317 405.059 32.397V39H402.342V32.9339C402.342 32.3885 402.197 31.9794 401.907 31.7067C401.618 31.4339 401.256 31.2976 400.821 31.2976C400.327 31.2976 399.941 31.4553 399.664 31.7706C399.387 32.0817 399.248 32.4929 399.248 33.0043V39H396.608V32.8764C396.608 32.3949 396.47 32.0114 396.193 31.7259C395.92 31.4403 395.56 31.2976 395.113 31.2976C394.81 31.2976 394.537 31.3743 394.295 31.5277C394.056 31.6768 393.866 31.8878 393.726 32.1605C393.585 32.429 393.515 32.7443 393.515 33.1065V39H390.792ZM409.933 33.3239V39H407.21V29.1818H409.805V30.9141H409.92C410.137 30.343 410.502 29.8913 411.013 29.5589C411.524 29.2223 412.144 29.054 412.873 29.054C413.555 29.054 414.149 29.2031 414.656 29.5014C415.164 29.7997 415.558 30.2259 415.839 30.7798C416.12 31.3295 416.261 31.9858 416.261 32.7486V39H413.538V33.2344C413.542 32.6335 413.389 32.1648 413.078 31.8281C412.767 31.4872 412.338 31.3168 411.793 31.3168C411.426 31.3168 411.102 31.3956 410.821 31.5533C410.544 31.7109 410.327 31.9411 410.169 32.2436C410.016 32.5419 409.937 32.902 409.933 33.3239ZM424.524 32.544V34.7045H418.554V32.544H424.524ZM429.567 33.3239V39H426.844V29.1818H429.44V30.9141H429.555C429.772 30.343 430.136 29.8913 430.648 29.5589C431.159 29.2223 431.779 29.054 432.508 29.054C433.19 29.054 433.784 29.2031 434.291 29.5014C434.798 29.7997 435.192 30.2259 435.474 30.7798C435.755 31.3295 435.896 31.9858 435.896 32.7486V39H433.173V33.2344C433.177 32.6335 433.023 32.1648 432.712 31.8281C432.401 31.4872 431.973 31.3168 431.428 31.3168C431.061 31.3168 430.737 31.3956 430.456 31.5533C430.179 31.7109 429.962 31.9411 429.804 32.2436C429.651 32.5419 429.572 32.902 429.567 33.3239ZM440.841 39.1854C440.215 39.1854 439.657 39.0767 439.167 38.8594C438.677 38.6378 438.289 38.3118 438.003 37.8814C437.722 37.4467 437.581 36.9055 437.581 36.2578C437.581 35.7124 437.682 35.2543 437.882 34.8835C438.082 34.5128 438.355 34.2145 438.7 33.9886C439.045 33.7628 439.437 33.5923 439.876 33.4773C440.319 33.3622 440.784 33.2812 441.27 33.2344C441.841 33.1747 442.301 33.1193 442.65 33.0682C443 33.0128 443.253 32.9318 443.411 32.8253C443.569 32.7187 443.648 32.5611 443.648 32.3523V32.3139C443.648 31.9091 443.52 31.5959 443.264 31.3743C443.013 31.1527 442.655 31.0419 442.19 31.0419C441.7 31.0419 441.31 31.1506 441.02 31.3679C440.731 31.581 440.539 31.8494 440.445 32.1733L437.927 31.9688C438.055 31.3722 438.306 30.8565 438.681 30.4219C439.056 29.983 439.54 29.6463 440.132 29.4119C440.729 29.1733 441.419 29.054 442.203 29.054C442.748 29.054 443.27 29.1179 443.769 29.2457C444.272 29.3736 444.717 29.5717 445.105 29.8402C445.497 30.1087 445.806 30.4538 446.032 30.8757C446.258 31.2933 446.371 31.794 446.371 32.3778V39H443.788V37.6385H443.711C443.554 37.9453 443.343 38.2159 443.079 38.4503C442.814 38.6804 442.497 38.8615 442.126 38.9936C441.756 39.1214 441.327 39.1854 440.841 39.1854ZM441.621 37.3061C442.022 37.3061 442.376 37.2273 442.682 37.0696C442.989 36.9077 443.23 36.6903 443.405 36.4176C443.579 36.1449 443.667 35.8359 443.667 35.4908V34.4489C443.581 34.5043 443.464 34.5554 443.315 34.6023C443.17 34.6449 443.006 34.6854 442.823 34.7237C442.64 34.7578 442.456 34.7898 442.273 34.8196C442.09 34.8452 441.924 34.8686 441.775 34.8899C441.455 34.9368 441.176 35.0114 440.937 35.1136C440.699 35.2159 440.513 35.3544 440.381 35.5291C440.249 35.6996 440.183 35.9126 440.183 36.1683C440.183 36.5391 440.317 36.8224 440.586 37.0185C440.858 37.2102 441.204 37.3061 441.621 37.3061ZM448.483 39V29.1818H451.078V30.9141H451.193C451.398 30.3388 451.739 29.8849 452.216 29.5526C452.693 29.2202 453.264 29.054 453.929 29.054C454.602 29.054 455.176 29.2223 455.649 29.5589C456.122 29.8913 456.437 30.343 456.595 30.9141H456.697C456.897 30.3516 457.259 29.902 457.784 29.5653C458.312 29.2244 458.936 29.054 459.656 29.054C460.573 29.054 461.316 29.3459 461.887 29.9297C462.463 30.5092 462.75 31.3317 462.75 32.397V39H460.034V32.9339C460.034 32.3885 459.889 31.9794 459.599 31.7067C459.309 31.4339 458.947 31.2976 458.512 31.2976C458.018 31.2976 457.632 31.4553 457.355 31.7706C457.078 32.0817 456.94 32.4929 456.94 33.0043V39H454.3V32.8764C454.3 32.3949 454.161 32.0114 453.884 31.7259C453.612 31.4403 453.252 31.2976 452.804 31.2976C452.502 31.2976 452.229 31.3743 451.986 31.5277C451.747 31.6768 451.558 31.8878 451.417 32.1605C451.276 32.429 451.206 32.7443 451.206 33.1065V39H448.483ZM469.376 39.1918C468.366 39.1918 467.496 38.9872 466.768 38.5781C466.043 38.1648 465.485 37.581 465.093 36.8267C464.701 36.0682 464.505 35.1712 464.505 34.1357C464.505 33.1257 464.701 32.2393 465.093 31.4766C465.485 30.7138 466.037 30.1193 466.748 29.6932C467.464 29.267 468.304 29.054 469.267 29.054C469.915 29.054 470.518 29.1584 471.076 29.3672C471.638 29.5717 472.128 29.8807 472.546 30.294C472.968 30.7074 473.296 31.2273 473.53 31.8537C473.765 32.4759 473.882 33.2045 473.882 34.0398V34.7876H465.591V33.1001H471.319C471.319 32.7081 471.233 32.3608 471.063 32.0582C470.893 31.7557 470.656 31.5192 470.354 31.3487C470.055 31.174 469.708 31.0866 469.312 31.0866C468.898 31.0866 468.532 31.1825 468.212 31.3743C467.897 31.5618 467.65 31.8153 467.471 32.1349C467.292 32.4503 467.2 32.8018 467.196 33.1896V34.794C467.196 35.2798 467.285 35.6996 467.464 36.0533C467.648 36.407 467.905 36.6797 468.238 36.8714C468.57 37.0632 468.964 37.1591 469.42 37.1591C469.723 37.1591 470 37.1165 470.251 37.0312C470.503 36.946 470.718 36.8182 470.897 36.6477C471.076 36.4773 471.212 36.2685 471.306 36.0213L473.824 36.1875C473.697 36.7926 473.434 37.321 473.038 37.7727C472.646 38.2202 472.139 38.5696 471.517 38.821C470.899 39.0682 470.185 39.1918 469.376 39.1918Z" fill="black"/>
<rect x="337.5" y="17.5" width="152" height="32" rx="16" stroke="black"/>
<path d="M486.256 141.982L483.763 142.135C483.72 141.922 483.629 141.73 483.488 141.56C483.347 141.385 483.162 141.246 482.932 141.144C482.706 141.038 482.435 140.984 482.12 140.984C481.698 140.984 481.342 141.074 481.053 141.253C480.763 141.428 480.618 141.662 480.618 141.956C480.618 142.19 480.712 142.388 480.899 142.55C481.087 142.712 481.408 142.842 481.864 142.94L483.641 143.298C484.596 143.494 485.308 143.81 485.776 144.244C486.245 144.679 486.479 145.25 486.479 145.957C486.479 146.601 486.29 147.165 485.911 147.651C485.536 148.137 485.02 148.516 484.364 148.789C483.712 149.058 482.96 149.192 482.107 149.192C480.808 149.192 479.772 148.921 479.001 148.38C478.234 147.835 477.784 147.093 477.652 146.156L480.33 146.015C480.411 146.411 480.607 146.714 480.918 146.923C481.229 147.127 481.628 147.229 482.114 147.229C482.591 147.229 482.974 147.138 483.264 146.955C483.558 146.767 483.707 146.526 483.712 146.232C483.707 145.985 483.603 145.783 483.398 145.625C483.194 145.463 482.879 145.339 482.452 145.254L480.752 144.915C479.793 144.724 479.08 144.391 478.611 143.918C478.146 143.445 477.914 142.842 477.914 142.109C477.914 141.479 478.085 140.935 478.425 140.479C478.771 140.023 479.254 139.672 479.876 139.425C480.503 139.178 481.236 139.054 482.075 139.054C483.315 139.054 484.291 139.316 485.003 139.84C485.719 140.364 486.136 141.078 486.256 141.982ZM492.669 149.192C491.659 149.192 490.789 148.987 490.061 148.578C489.336 148.165 488.778 147.581 488.386 146.827C487.994 146.068 487.798 145.171 487.798 144.136C487.798 143.126 487.994 142.239 488.386 141.477C488.778 140.714 489.33 140.119 490.041 139.693C490.757 139.267 491.597 139.054 492.56 139.054C493.208 139.054 493.811 139.158 494.369 139.367C494.931 139.572 495.421 139.881 495.839 140.294C496.261 140.707 496.589 141.227 496.823 141.854C497.058 142.476 497.175 143.205 497.175 144.04V144.788H488.884V143.1H494.612C494.612 142.708 494.526 142.361 494.356 142.058C494.186 141.756 493.949 141.519 493.646 141.349C493.348 141.174 493.001 141.087 492.605 141.087C492.191 141.087 491.825 141.183 491.505 141.374C491.19 141.562 490.943 141.815 490.764 142.135C490.585 142.45 490.493 142.802 490.489 143.19V144.794C490.489 145.28 490.578 145.7 490.757 146.053C490.941 146.407 491.198 146.68 491.531 146.871C491.863 147.063 492.257 147.159 492.713 147.159C493.016 147.159 493.293 147.116 493.544 147.031C493.796 146.946 494.011 146.818 494.19 146.648C494.369 146.477 494.505 146.268 494.599 146.021L497.117 146.188C496.99 146.793 496.727 147.321 496.331 147.773C495.939 148.22 495.432 148.57 494.81 148.821C494.192 149.068 493.478 149.192 492.669 149.192ZM501.675 135.909V149H498.952V135.909H501.675ZM508.331 149.192C507.321 149.192 506.451 148.987 505.723 148.578C504.998 148.165 504.44 147.581 504.048 146.827C503.656 146.068 503.46 145.171 503.46 144.136C503.46 143.126 503.656 142.239 504.048 141.477C504.44 140.714 504.992 140.119 505.703 139.693C506.419 139.267 507.259 139.054 508.222 139.054C508.87 139.054 509.473 139.158 510.031 139.367C510.593 139.572 511.083 139.881 511.501 140.294C511.923 140.707 512.251 141.227 512.485 141.854C512.72 142.476 512.837 143.205 512.837 144.04V144.788H504.547V143.1H510.274C510.274 142.708 510.189 142.361 510.018 142.058C509.848 141.756 509.611 141.519 509.309 141.349C509.01 141.174 508.663 141.087 508.267 141.087C507.853 141.087 507.487 141.183 507.167 141.374C506.852 141.562 506.605 141.815 506.426 142.135C506.247 142.45 506.155 142.802 506.151 143.19V144.794C506.151 145.28 506.24 145.7 506.419 146.053C506.603 146.407 506.86 146.68 507.193 146.871C507.525 147.063 507.919 147.159 508.375 147.159C508.678 147.159 508.955 147.116 509.206 147.031C509.458 146.946 509.673 146.818 509.852 146.648C510.031 146.477 510.167 146.268 510.261 146.021L512.779 146.188C512.652 146.793 512.39 147.321 511.993 147.773C511.601 148.22 511.094 148.57 510.472 148.821C509.854 149.068 509.14 149.192 508.331 149.192ZM519.05 149.192C518.044 149.192 517.179 148.979 516.455 148.553C515.735 148.122 515.181 147.526 514.793 146.763C514.409 146 514.218 145.122 514.218 144.129C514.218 143.124 514.412 142.241 514.799 141.483C515.191 140.72 515.748 140.126 516.468 139.7C517.188 139.269 518.044 139.054 519.037 139.054C519.894 139.054 520.644 139.21 521.287 139.521C521.931 139.832 522.44 140.268 522.815 140.831C523.19 141.393 523.397 142.054 523.435 142.812H520.865C520.793 142.322 520.601 141.928 520.29 141.63C519.983 141.327 519.581 141.176 519.082 141.176C518.66 141.176 518.292 141.291 517.976 141.521C517.665 141.747 517.422 142.077 517.248 142.512C517.073 142.947 516.985 143.473 516.985 144.091C516.985 144.717 517.071 145.25 517.241 145.689C517.416 146.128 517.661 146.462 517.976 146.692C518.292 146.923 518.66 147.038 519.082 147.038C519.393 147.038 519.672 146.974 519.919 146.846C520.171 146.718 520.377 146.533 520.539 146.29C520.706 146.043 520.814 145.746 520.865 145.401H523.435C523.392 146.151 523.188 146.812 522.821 147.383C522.459 147.95 521.958 148.393 521.319 148.712C520.68 149.032 519.924 149.192 519.05 149.192ZM530.401 139.182V141.227H524.488V139.182H530.401ZM525.83 136.83H528.553V145.983C528.553 146.234 528.592 146.43 528.669 146.571C528.745 146.707 528.852 146.803 528.988 146.859C529.129 146.914 529.291 146.942 529.474 146.942C529.602 146.942 529.73 146.931 529.857 146.91C529.985 146.884 530.083 146.865 530.151 146.852L530.58 148.879C530.443 148.921 530.252 148.97 530.004 149.026C529.757 149.085 529.457 149.121 529.103 149.134C528.447 149.16 527.872 149.072 527.377 148.872C526.887 148.672 526.506 148.361 526.233 147.939C525.96 147.517 525.826 146.984 525.83 146.341V136.83ZM537.993 142.544V144.705H532.023V142.544H537.993ZM548.482 141.982L545.989 142.135C545.947 141.922 545.855 141.73 545.714 141.56C545.574 141.385 545.388 141.246 545.158 141.144C544.933 141.038 544.662 140.984 544.347 140.984C543.925 140.984 543.569 141.074 543.279 141.253C542.989 141.428 542.844 141.662 542.844 141.956C542.844 142.19 542.938 142.388 543.126 142.55C543.313 142.712 543.635 142.842 544.091 142.94L545.868 143.298C546.822 143.494 547.534 143.81 548.003 144.244C548.472 144.679 548.706 145.25 548.706 145.957C548.706 146.601 548.516 147.165 548.137 147.651C547.762 148.137 547.246 148.516 546.59 148.789C545.938 149.058 545.186 149.192 544.334 149.192C543.034 149.192 541.999 148.921 541.227 148.38C540.46 147.835 540.011 147.093 539.879 146.156L542.557 146.015C542.638 146.411 542.834 146.714 543.145 146.923C543.456 147.127 543.854 147.229 544.34 147.229C544.817 147.229 545.201 147.138 545.491 146.955C545.785 146.767 545.934 146.526 545.938 146.232C545.934 145.985 545.83 145.783 545.625 145.625C545.42 145.463 545.105 145.339 544.679 145.254L542.979 144.915C542.02 144.724 541.306 144.391 540.837 143.918C540.373 143.445 540.141 142.842 540.141 142.109C540.141 141.479 540.311 140.935 540.652 140.479C540.997 140.023 541.481 139.672 542.103 139.425C542.729 139.178 543.462 139.054 544.302 139.054C545.542 139.054 546.518 139.316 547.229 139.84C547.945 140.364 548.363 141.078 548.482 141.982ZM555.643 139.182V141.227H549.73V139.182H555.643ZM551.073 136.83H553.796V145.983C553.796 146.234 553.834 146.43 553.911 146.571C553.987 146.707 554.094 146.803 554.23 146.859C554.371 146.914 554.533 146.942 554.716 146.942C554.844 146.942 554.972 146.931 555.1 146.91C555.227 146.884 555.325 146.865 555.394 146.852L555.822 148.879C555.686 148.921 555.494 148.97 555.247 149.026C554.999 149.085 554.699 149.121 554.345 149.134C553.689 149.16 553.114 149.072 552.619 148.872C552.129 148.672 551.748 148.361 551.475 147.939C551.203 147.517 551.068 146.984 551.073 146.341V136.83ZM557.417 149V139.182H560.012V140.914H560.127C560.331 140.339 560.672 139.885 561.15 139.553C561.627 139.22 562.198 139.054 562.863 139.054C563.536 139.054 564.109 139.222 564.582 139.559C565.055 139.891 565.371 140.343 565.528 140.914H565.631C565.831 140.352 566.193 139.902 566.717 139.565C567.246 139.224 567.87 139.054 568.59 139.054C569.506 139.054 570.25 139.346 570.821 139.93C571.396 140.509 571.684 141.332 571.684 142.397V149H568.967V142.934C568.967 142.388 568.822 141.979 568.532 141.707C568.243 141.434 567.881 141.298 567.446 141.298C566.952 141.298 566.566 141.455 566.289 141.771C566.012 142.082 565.873 142.493 565.873 143.004V149H563.233V142.876C563.233 142.395 563.095 142.011 562.818 141.726C562.545 141.44 562.185 141.298 561.738 141.298C561.435 141.298 561.162 141.374 560.92 141.528C560.681 141.677 560.491 141.888 560.351 142.161C560.21 142.429 560.14 142.744 560.14 143.107V149H557.417ZM579.057 139.182V141.227H573.144V139.182H579.057ZM574.487 136.83H577.21V145.983C577.21 146.234 577.248 146.43 577.325 146.571C577.401 146.707 577.508 146.803 577.644 146.859C577.785 146.914 577.947 146.942 578.13 146.942C578.258 146.942 578.386 146.931 578.514 146.91C578.642 146.884 578.74 146.865 578.808 146.852L579.236 148.879C579.1 148.921 578.908 148.97 578.661 149.026C578.414 149.085 578.113 149.121 577.759 149.134C577.103 149.16 576.528 149.072 576.034 148.872C575.544 148.672 575.162 148.361 574.889 147.939C574.617 147.517 574.482 146.984 574.487 146.341V136.83Z" fill="black"/>
<rect x="471.5" y="127.5" width="115" height="32" stroke="black"/>
<path d="M356.394 149H353.428L357.947 135.909H361.514L366.027 149H363.061L359.782 138.901H359.68L356.394 149ZM356.209 143.854H363.214V146.015H356.209V143.854ZM374.405 139.674C374.354 139.158 374.135 138.758 373.747 138.472C373.359 138.187 372.833 138.044 372.168 138.044C371.716 138.044 371.335 138.108 371.024 138.236C370.713 138.359 370.474 138.532 370.308 138.754C370.146 138.975 370.065 139.227 370.065 139.508C370.057 139.742 370.106 139.947 370.212 140.121C370.323 140.296 370.474 140.447 370.666 140.575C370.858 140.699 371.079 140.808 371.331 140.901C371.582 140.991 371.851 141.067 372.136 141.131L373.312 141.413C373.883 141.54 374.407 141.711 374.885 141.924C375.362 142.137 375.775 142.399 376.125 142.71C376.474 143.021 376.745 143.388 376.937 143.81C377.133 144.232 377.233 144.715 377.237 145.261C377.233 146.062 377.028 146.756 376.623 147.344C376.223 147.928 375.643 148.382 374.885 148.706C374.131 149.026 373.221 149.185 372.155 149.185C371.099 149.185 370.178 149.023 369.394 148.7C368.614 148.376 368.005 147.896 367.566 147.261C367.131 146.622 366.903 145.832 366.882 144.89H369.56C369.59 145.329 369.716 145.695 369.937 145.989C370.163 146.279 370.464 146.499 370.839 146.648C371.218 146.793 371.646 146.865 372.123 146.865C372.592 146.865 372.999 146.797 373.344 146.661C373.694 146.524 373.964 146.335 374.156 146.092C374.348 145.849 374.444 145.57 374.444 145.254C374.444 144.96 374.356 144.713 374.182 144.513C374.011 144.312 373.76 144.142 373.427 144.001C373.099 143.861 372.697 143.733 372.219 143.618L370.794 143.26C369.69 142.991 368.819 142.572 368.18 142.001C367.54 141.43 367.223 140.661 367.227 139.693C367.223 138.901 367.434 138.208 367.86 137.616C368.29 137.023 368.881 136.561 369.631 136.229C370.381 135.896 371.233 135.73 372.187 135.73C373.159 135.73 374.007 135.896 374.731 136.229C375.46 136.561 376.027 137.023 376.432 137.616C376.836 138.208 377.045 138.894 377.058 139.674H374.405Z" fill="black"/>
<rect x="342.5" y="127.5" width="47" height="32" rx="16" stroke="black"/>
</svg>
