<svg width="302" height="162" viewBox="0 0 302 162" fill="none" xmlns="http://www.w3.org/2000/svg">
<circle cx="4" cy="17" r="3.5" stroke="black"/>
<circle cx="298" cy="17" r="3.5" stroke="black"/>
<path d="M71 104L61 98.2265V109.774L71 104ZM8 18H22.1126V16H8V18ZM31.1126 27V94H33.1126V27H31.1126ZM42.1126 105H62V103H42.1126V105ZM31.1126 94C31.1126 100.075 36.0375 105 42.1126 105V103C37.1421 103 33.1126 98.9706 33.1126 94H31.1126ZM22.1126 18C27.0832 18 31.1126 22.0294 31.1126 27H33.1126C33.1126 20.9249 28.1878 16 22.1126 16V18Z" fill="black"/>
<path d="M71 60L61 54.2265V65.7735L71 60ZM8 18H22.1126V16H8V18ZM31.1126 27V50H33.1126V27H31.1126ZM42.1126 61H62V59H42.1126V61ZM31.1126 50C31.1126 56.0751 36.0375 61 42.1126 61V59C37.1421 59 33.1126 54.9706 33.1126 50H31.1126ZM22.1126 18C27.0832 18 31.1126 22.0294 31.1126 27H33.1126C33.1126 20.9249 28.1878 16 22.1126 16V18Z" fill="black"/>
<path d="M72 147L62 141.226V152.773L72 147ZM8 18H22.304V16H8V18ZM31.304 27V137H33.304V27H31.304ZM42.304 148H63V146H42.304V148ZM31.304 137C31.304 143.075 36.2289 148 42.304 148V146C37.3334 146 33.304 141.971 33.304 137H31.304ZM22.304 18C27.2746 18 31.304 22.0294 31.304 27H33.304C33.304 20.9249 28.3791 16 22.304 16V18Z" fill="black"/>
<path d="M91.9055 95.9091V109H89.1378V95.9091H91.9055ZM105.132 95.9091V109H102.742L97.0463 100.761H96.9505V109H94.1827V95.9091H96.6117L102.262 104.142H102.377V95.9091H105.132ZM106.92 98.1911V95.9091H117.672V98.1911H113.664V109H110.928V98.1911H106.92ZM119.442 109V95.9091H128.263V98.1911H122.21V101.31H127.81V103.592H122.21V106.718H128.289V109H119.442ZM130.464 109V95.9091H135.629C136.617 95.9091 137.461 96.0859 138.16 96.4396C138.863 96.7891 139.398 97.2855 139.764 97.929C140.135 98.5682 140.32 99.3203 140.32 100.185C140.32 101.055 140.133 101.803 139.758 102.429C139.383 103.051 138.84 103.528 138.128 103.861C137.421 104.193 136.564 104.359 135.558 104.359H132.1V102.135H135.111C135.639 102.135 136.078 102.062 136.428 101.918C136.777 101.773 137.037 101.555 137.208 101.266C137.382 100.976 137.47 100.616 137.47 100.185C137.47 99.7507 137.382 99.3842 137.208 99.0859C137.037 98.7876 136.775 98.5618 136.421 98.4084C136.072 98.2507 135.631 98.1719 135.098 98.1719H133.232V109H130.464ZM137.534 103.043L140.787 109H137.732L134.548 103.043H137.534ZM149.378 99.674C149.327 99.1584 149.107 98.7578 148.72 98.4723C148.332 98.1868 147.806 98.044 147.141 98.044C146.689 98.044 146.308 98.108 145.997 98.2358C145.686 98.3594 145.447 98.532 145.281 98.7536C145.119 98.9751 145.038 99.2266 145.038 99.5078C145.029 99.7422 145.078 99.9467 145.185 100.121C145.296 100.296 145.447 100.447 145.639 100.575C145.83 100.699 146.052 100.808 146.303 100.901C146.555 100.991 146.823 101.067 147.109 101.131L148.285 101.413C148.856 101.54 149.38 101.711 149.857 101.924C150.335 102.137 150.748 102.399 151.097 102.71C151.447 103.021 151.718 103.388 151.909 103.81C152.105 104.232 152.205 104.715 152.21 105.261C152.205 106.062 152.001 106.756 151.596 107.344C151.195 107.928 150.616 108.382 149.857 108.706C149.103 109.026 148.193 109.185 147.128 109.185C146.071 109.185 145.151 109.023 144.367 108.7C143.587 108.376 142.977 107.896 142.539 107.261C142.104 106.622 141.876 105.832 141.855 104.89H144.533C144.563 105.329 144.688 105.695 144.91 105.989C145.136 106.279 145.436 106.499 145.811 106.648C146.191 106.793 146.619 106.865 147.096 106.865C147.565 106.865 147.972 106.797 148.317 106.661C148.666 106.524 148.937 106.335 149.129 106.092C149.32 105.849 149.416 105.57 149.416 105.254C149.416 104.96 149.329 104.713 149.154 104.513C148.984 104.312 148.732 104.142 148.4 104.001C148.072 103.861 147.669 103.733 147.192 103.618L145.767 103.26C144.663 102.991 143.791 102.572 143.152 102.001C142.513 101.43 142.195 100.661 142.2 99.6932C142.195 98.9006 142.406 98.2081 142.833 97.6158C143.263 97.0234 143.853 96.5611 144.603 96.2287C145.353 95.8963 146.205 95.7301 147.16 95.7301C148.132 95.7301 148.98 95.8963 149.704 96.2287C150.433 96.5611 150.999 97.0234 151.404 97.6158C151.809 98.2081 152.018 98.8942 152.031 99.674H149.378ZM154.071 109V95.9091H162.892V98.1911H156.839V101.31H162.439V103.592H156.839V106.718H162.918V109H154.071ZM176.643 100.492H173.844C173.792 100.13 173.688 99.8082 173.53 99.527C173.373 99.2415 173.17 98.9986 172.923 98.7983C172.676 98.598 172.39 98.4446 172.067 98.3381C171.747 98.2315 171.4 98.1783 171.025 98.1783C170.347 98.1783 169.757 98.3466 169.254 98.6832C168.751 99.0156 168.361 99.5014 168.084 100.141C167.807 100.776 167.669 101.547 167.669 102.455C167.669 103.388 167.807 104.172 168.084 104.807C168.366 105.442 168.758 105.921 169.26 106.245C169.763 106.569 170.345 106.731 171.006 106.731C171.376 106.731 171.719 106.682 172.035 106.584C172.354 106.486 172.638 106.343 172.885 106.156C173.132 105.964 173.336 105.732 173.498 105.459C173.665 105.186 173.78 104.875 173.844 104.526L176.643 104.538C176.571 105.139 176.39 105.719 176.1 106.277C175.814 106.831 175.429 107.327 174.943 107.766C174.461 108.201 173.886 108.546 173.217 108.802C172.552 109.053 171.8 109.179 170.961 109.179C169.793 109.179 168.749 108.915 167.829 108.386C166.912 107.858 166.188 107.093 165.655 106.092C165.127 105.09 164.863 103.878 164.863 102.455C164.863 101.027 165.131 99.8125 165.668 98.8111C166.205 97.8097 166.934 97.0469 167.854 96.5227C168.775 95.9943 169.81 95.7301 170.961 95.7301C171.719 95.7301 172.422 95.8366 173.07 96.0497C173.722 96.2628 174.3 96.5739 174.802 96.983C175.305 97.3878 175.714 97.8842 176.03 98.4723C176.349 99.0604 176.554 99.7337 176.643 100.492ZM178.129 98.1911V95.9091H188.881V98.1911H184.873V109H182.137V98.1911H178.129Z" fill="black"/>
<rect x="73.5" y="86.5" width="125" height="32" rx="16" stroke="black"/>
<path d="M89.1378 152V138.909H97.9588V141.191H91.9055V144.31H97.505V146.592H91.9055V149.718H97.9844V152H89.1378ZM102.754 138.909L105.394 143.371H105.497L108.149 138.909H111.275L107.28 145.455L111.365 152H108.181L105.497 147.532H105.394L102.71 152H99.5392L103.637 145.455L99.6159 138.909H102.754ZM123.962 143.492H121.162C121.111 143.13 121.006 142.808 120.849 142.527C120.691 142.241 120.489 141.999 120.241 141.798C119.994 141.598 119.709 141.445 119.385 141.338C119.065 141.232 118.718 141.178 118.343 141.178C117.665 141.178 117.075 141.347 116.572 141.683C116.07 142.016 115.68 142.501 115.403 143.141C115.126 143.776 114.987 144.547 114.987 145.455C114.987 146.388 115.126 147.172 115.403 147.807C115.684 148.442 116.076 148.921 116.579 149.245C117.082 149.569 117.663 149.731 118.324 149.731C118.695 149.731 119.038 149.682 119.353 149.584C119.673 149.486 119.956 149.343 120.203 149.156C120.45 148.964 120.655 148.732 120.817 148.459C120.983 148.186 121.098 147.875 121.162 147.526L123.962 147.538C123.889 148.139 123.708 148.719 123.418 149.277C123.133 149.831 122.747 150.327 122.261 150.766C121.78 151.201 121.205 151.546 120.536 151.802C119.871 152.053 119.119 152.179 118.279 152.179C117.112 152.179 116.067 151.915 115.147 151.386C114.231 150.858 113.506 150.093 112.974 149.092C112.445 148.09 112.181 146.878 112.181 145.455C112.181 144.027 112.45 142.812 112.987 141.811C113.523 140.81 114.252 140.047 115.173 139.523C116.093 138.994 117.129 138.73 118.279 138.73C119.038 138.73 119.741 138.837 120.388 139.05C121.04 139.263 121.618 139.574 122.121 139.983C122.624 140.388 123.033 140.884 123.348 141.472C123.668 142.06 123.872 142.734 123.962 143.492ZM125.946 152V138.909H134.767V141.191H128.714V144.31H134.314V146.592H128.714V149.718H134.793V152H125.946ZM136.968 152V138.909H142.133C143.126 138.909 143.971 139.099 144.67 139.478C145.369 139.853 145.902 140.375 146.268 141.044C146.639 141.709 146.824 142.476 146.824 143.345C146.824 144.214 146.637 144.982 146.262 145.646C145.887 146.311 145.344 146.829 144.632 147.2C143.925 147.57 143.068 147.756 142.062 147.756H138.77V145.538H141.615C142.148 145.538 142.586 145.446 142.932 145.263C143.281 145.075 143.541 144.817 143.711 144.489C143.886 144.157 143.974 143.776 143.974 143.345C143.974 142.911 143.886 142.531 143.711 142.207C143.541 141.879 143.281 141.626 142.932 141.447C142.582 141.263 142.139 141.172 141.602 141.172H139.736V152H136.968ZM148.124 141.191V138.909H158.875V141.191H154.867V152H152.131V141.191H148.124Z" fill="black"/>
<rect x="73.5" y="129.5" width="97" height="32" rx="16" stroke="black"/>
<path d="M97.2237 9.90909H99.9915V18.4105C99.9915 19.3651 99.7635 20.2003 99.3075 20.9162C98.8558 21.6321 98.223 22.1903 97.4091 22.5909C96.5952 22.9872 95.647 23.1854 94.5646 23.1854C93.478 23.1854 92.5277 22.9872 91.7138 22.5909C90.8999 22.1903 90.267 21.6321 89.8153 20.9162C89.3636 20.2003 89.1378 19.3651 89.1378 18.4105V9.90909H91.9055V18.174C91.9055 18.6726 92.0142 19.1158 92.2315 19.5036C92.4531 19.8913 92.7642 20.196 93.1648 20.4176C93.5653 20.6392 94.032 20.75 94.5646 20.75C95.1016 20.75 95.5682 20.6392 95.9645 20.4176C96.3651 20.196 96.674 19.8913 96.8913 19.5036C97.1129 19.1158 97.2237 18.6726 97.2237 18.174V9.90909ZM113.218 9.90909V23H110.828L105.132 14.7607H105.036V23H102.269V9.90909H104.698L110.348 18.142H110.463V9.90909H113.218ZM118.273 9.90909V23H115.505V9.90909H118.273ZM132.58 16.4545C132.58 17.8821 132.309 19.0966 131.768 20.098C131.231 21.0994 130.498 21.8643 129.569 22.3928C128.644 22.9169 127.605 23.179 126.45 23.179C125.286 23.179 124.242 22.9148 123.318 22.3864C122.393 21.858 121.662 21.093 121.125 20.0916C120.588 19.0902 120.32 17.8778 120.32 16.4545C120.32 15.027 120.588 13.8125 121.125 12.8111C121.662 11.8097 122.393 11.0469 123.318 10.5227C124.242 9.99432 125.286 9.73011 126.45 9.73011C127.605 9.73011 128.644 9.99432 129.569 10.5227C130.498 11.0469 131.231 11.8097 131.768 12.8111C132.309 13.8125 132.58 15.027 132.58 16.4545ZM129.774 16.4545C129.774 15.5298 129.635 14.75 129.358 14.1151C129.085 13.4801 128.7 12.9986 128.201 12.6705C127.703 12.3423 127.119 12.1783 126.45 12.1783C125.781 12.1783 125.197 12.3423 124.698 12.6705C124.2 12.9986 123.812 13.4801 123.535 14.1151C123.262 14.75 123.126 15.5298 123.126 16.4545C123.126 17.3793 123.262 18.1591 123.535 18.794C123.812 19.429 124.2 19.9105 124.698 20.2386C125.197 20.5668 125.781 20.7308 126.45 20.7308C127.119 20.7308 127.703 20.5668 128.201 20.2386C128.7 19.9105 129.085 19.429 129.358 18.794C129.635 18.1591 129.774 17.3793 129.774 16.4545ZM145.58 9.90909V23H143.189L137.494 14.7607H137.398V23H134.63V9.90909H137.059L142.71 18.142H142.825V9.90909H145.58Z" fill="black"/>
<rect x="73.5" y="0.5" width="89" height="32" rx="16" stroke="black"/>
<path d="M97.2237 52.9091H99.9915V61.4105C99.9915 62.3651 99.7635 63.2003 99.3075 63.9162C98.8558 64.6321 98.223 65.1903 97.4091 65.5909C96.5952 65.9872 95.647 66.1854 94.5646 66.1854C93.478 66.1854 92.5277 65.9872 91.7138 65.5909C90.8999 65.1903 90.267 64.6321 89.8153 63.9162C89.3636 63.2003 89.1378 62.3651 89.1378 61.4105V52.9091H91.9055V61.174C91.9055 61.6726 92.0142 62.1158 92.2315 62.5036C92.4531 62.8913 92.7642 63.196 93.1648 63.4176C93.5653 63.6392 94.032 63.75 94.5646 63.75C95.1016 63.75 95.5682 63.6392 95.9645 63.4176C96.3651 63.196 96.674 62.8913 96.8913 62.5036C97.1129 62.1158 97.2237 61.6726 97.2237 61.174V52.9091ZM113.218 52.9091V66H110.828L105.132 57.7607H105.036V66H102.269V52.9091H104.698L110.348 61.142H110.463V52.9091H113.218ZM118.273 52.9091V66H115.505V52.9091H118.273ZM132.58 59.4545C132.58 60.8821 132.309 62.0966 131.768 63.098C131.231 64.0994 130.498 64.8643 129.569 65.3928C128.644 65.9169 127.605 66.179 126.45 66.179C125.286 66.179 124.242 65.9148 123.318 65.3864C122.393 64.858 121.662 64.093 121.125 63.0916C120.588 62.0902 120.32 60.8778 120.32 59.4545C120.32 58.027 120.588 56.8125 121.125 55.8111C121.662 54.8097 122.393 54.0469 123.318 53.5227C124.242 52.9943 125.286 52.7301 126.45 52.7301C127.605 52.7301 128.644 52.9943 129.569 53.5227C130.498 54.0469 131.231 54.8097 131.768 55.8111C132.309 56.8125 132.58 58.027 132.58 59.4545ZM129.774 59.4545C129.774 58.5298 129.635 57.75 129.358 57.1151C129.085 56.4801 128.7 55.9986 128.201 55.6705C127.703 55.3423 127.119 55.1783 126.45 55.1783C125.781 55.1783 125.197 55.3423 124.698 55.6705C124.2 55.9986 123.812 56.4801 123.535 57.1151C123.262 57.75 123.126 58.5298 123.126 59.4545C123.126 60.3793 123.262 61.1591 123.535 61.794C123.812 62.429 124.2 62.9105 124.698 63.2386C125.197 63.5668 125.781 63.7308 126.45 63.7308C127.119 63.7308 127.703 63.5668 128.201 63.2386C128.7 62.9105 129.085 62.429 129.358 61.794C129.635 61.1591 129.774 60.3793 129.774 59.4545ZM145.58 52.9091V66H143.189L137.494 57.7607H137.398V66H134.63V52.9091H137.059L142.71 61.142H142.825V52.9091H145.58Z" fill="black"/>
<rect x="73.5" y="43.5" width="89" height="32" rx="16" stroke="black"/>
<path d="M198.394 66H195.428L199.947 52.9091H203.514L208.027 66H205.061L201.782 55.9006H201.68L198.394 66ZM198.209 60.8544H205.214V63.0149H198.209V60.8544ZM209.603 66V52.9091H212.37V63.718H217.983V66H209.603ZM219.816 66V52.9091H222.583V63.718H228.195V66H219.816Z" fill="black"/>
<rect x="184.5" y="43.5" width="54" height="32" rx="16" stroke="black"/>
<path d="M73 17L63 11.2265V22.7735L73 17ZM12.5 18L64 18V16L12.5 16V18Z" fill="black"/>
<path d="M184 60L174 54.2265V65.7735L184 60ZM163 61H175V59H163V61Z" fill="black"/>
<path d="M260 60L250 54.2265V65.7735L260 60ZM239 61H251V59H239V61Z" fill="black"/>
<path d="M294 17L284 11.2265L284 22.7735L294 17ZM162 18L285 18L285 16L162 16L162 18Z" fill="black"/>
<path d="M249.5 60H258.376C263.899 60 268.376 55.5228 268.376 50V27C268.376 21.4772 272.853 17 278.376 17H280" stroke="black" stroke-width="2"/>
<path d="M171 146L258.248 146C263.771 146 268.248 141.523 268.248 136V26.7517C268.248 21.366 272.614 17 278 17V17" stroke="black" stroke-width="2"/>
<path d="M199 103L233.652 103H258.304C263.827 103 268.304 98.5228 268.304 93V27C268.304 21.4772 272.781 17 278.304 17L280 17" stroke="black" stroke-width="2"/>
</svg>
