<svg width="568" height="311" viewBox="0 0 568 311" fill="none" xmlns="http://www.w3.org/2000/svg">
<path d="M4.70455 18.1598C3.95881 18.1598 3.28338 17.968 2.67827 17.5845C2.07741 17.1967 1.60014 16.6278 1.24645 15.8778C0.897017 15.1236 0.722301 14.1989 0.722301 13.1037C0.722301 11.9787 0.903409 11.0433 1.26562 10.2976C1.62784 9.54759 2.10938 8.98722 2.71023 8.61648C3.31534 8.24148 3.97798 8.05398 4.69815 8.05398C5.24787 8.05398 5.70597 8.14773 6.07244 8.33523C6.44318 8.51847 6.74148 8.74858 6.96733 9.02557C7.19744 9.2983 7.37216 9.56676 7.49148 9.83097H7.57457V4.90909H10.2912V18H7.60653V16.4276H7.49148C7.36364 16.7003 7.18253 16.9709 6.94815 17.2393C6.71804 17.5036 6.41761 17.723 6.04688 17.8977C5.6804 18.0724 5.23295 18.1598 4.70455 18.1598ZM5.56747 15.9929C6.00639 15.9929 6.37713 15.8736 6.67969 15.6349C6.98651 15.392 7.22088 15.0533 7.38281 14.6186C7.54901 14.1839 7.6321 13.6747 7.6321 13.0909C7.6321 12.5071 7.55114 12 7.3892 11.5696C7.22727 11.1392 6.9929 10.8068 6.68608 10.5724C6.37926 10.3381 6.00639 10.2209 5.56747 10.2209C5.12003 10.2209 4.7429 10.3423 4.43608 10.5852C4.12926 10.8281 3.89702 11.1648 3.73935 11.5952C3.58168 12.0256 3.50284 12.5241 3.50284 13.0909C3.50284 13.6619 3.58168 14.1669 3.73935 14.6058C3.90128 15.0405 4.13352 15.3814 4.43608 15.6286C4.7429 15.8714 5.12003 15.9929 5.56747 15.9929ZM17.0044 18.1918C15.9945 18.1918 15.1252 17.9872 14.3965 17.5781C13.6721 17.1648 13.1138 16.581 12.7218 15.8267C12.3297 15.0682 12.1337 14.1712 12.1337 13.1357C12.1337 12.1257 12.3297 11.2393 12.7218 10.4766C13.1138 9.71378 13.6657 9.11932 14.3773 8.69318C15.0932 8.26705 15.9327 8.05398 16.8958 8.05398C17.5435 8.05398 18.1465 8.15838 18.7047 8.36719C19.2672 8.57173 19.7573 8.88068 20.1749 9.29403C20.5968 9.70739 20.9249 10.2273 21.1593 10.8537C21.3936 11.4759 21.5108 12.2045 21.5108 13.0398V13.7876H13.2203V12.1001H18.9476C18.9476 11.7081 18.8624 11.3608 18.6919 11.0582C18.5215 10.7557 18.285 10.5192 17.9824 10.3487C17.6841 10.174 17.3368 10.0866 16.9405 10.0866C16.5272 10.0866 16.1607 10.1825 15.8411 10.3743C15.5257 10.5618 15.2786 10.8153 15.0996 11.1349C14.9206 11.4503 14.829 11.8018 14.8248 12.1896V13.794C14.8248 14.2798 14.9142 14.6996 15.0932 15.0533C15.2765 15.407 15.5343 15.6797 15.8667 15.8714C16.199 16.0632 16.5932 16.1591 17.0492 16.1591C17.3517 16.1591 17.6287 16.1165 17.8801 16.0312C18.1316 15.946 18.3468 15.8182 18.5257 15.6477C18.7047 15.4773 18.8411 15.2685 18.9348 15.0213L21.4533 15.1875C21.3255 15.7926 21.0634 16.321 20.6671 16.7727C20.275 17.2202 19.7679 17.5696 19.1458 17.821C18.5279 18.0682 17.8141 18.1918 17.0044 18.1918ZM26.0108 4.90909V18H23.2878V4.90909H26.0108ZM32.6665 18.1918C31.6566 18.1918 30.7873 17.9872 30.0586 17.5781C29.3342 17.1648 28.7759 16.581 28.3839 15.8267C27.9918 15.0682 27.7958 14.1712 27.7958 13.1357C27.7958 12.1257 27.9918 11.2393 28.3839 10.4766C28.7759 9.71378 29.3278 9.11932 30.0394 8.69318C30.7553 8.26705 31.5948 8.05398 32.5579 8.05398C33.2056 8.05398 33.8086 8.15838 34.3668 8.36719C34.9293 8.57173 35.4194 8.88068 35.837 9.29403C36.2589 9.70739 36.587 10.2273 36.8214 10.8537C37.0558 11.4759 37.1729 12.2045 37.1729 13.0398V13.7876H28.8825V12.1001H34.6097C34.6097 11.7081 34.5245 11.3608 34.354 11.0582C34.1836 10.7557 33.9471 10.5192 33.6445 10.3487C33.3462 10.174 32.9989 10.0866 32.6026 10.0866C32.1893 10.0866 31.8228 10.1825 31.5032 10.3743C31.1879 10.5618 30.9407 10.8153 30.7617 11.1349C30.5827 11.4503 30.4911 11.8018 30.4869 12.1896V13.794C30.4869 14.2798 30.5763 14.6996 30.7553 15.0533C30.9386 15.407 31.1964 15.6797 31.5288 15.8714C31.8612 16.0632 32.2553 16.1591 32.7113 16.1591C33.0138 16.1591 33.2908 16.1165 33.5423 16.0312C33.7937 15.946 34.0089 15.8182 34.1879 15.6477C34.3668 15.4773 34.5032 15.2685 34.5969 15.0213L37.1154 15.1875C36.9876 15.7926 36.7255 16.321 36.3292 16.7727C35.9371 17.2202 35.43 17.5696 34.8079 17.821C34.19 18.0682 33.4762 18.1918 32.6665 18.1918ZM44.1722 8.18182V10.2273H38.2596V8.18182H44.1722ZM39.6019 5.82955H42.3249V14.983C42.3249 15.2344 42.3633 15.4304 42.44 15.571C42.5167 15.7074 42.6232 15.8033 42.7596 15.8587C42.9002 15.9141 43.0621 15.9418 43.2454 15.9418C43.3732 15.9418 43.5011 15.9311 43.6289 15.9098C43.7567 15.8842 43.8548 15.8651 43.9229 15.8523L44.3512 17.8786C44.2148 17.9212 44.0231 17.9702 43.7759 18.0256C43.5288 18.0852 43.2283 18.1214 42.8746 18.1342C42.2184 18.1598 41.6431 18.0724 41.1488 17.8722C40.6587 17.6719 40.2773 17.3608 40.0046 16.9389C39.7319 16.517 39.5977 15.9844 39.6019 15.3409V5.82955ZM50.315 18.1918C49.305 18.1918 48.4357 17.9872 47.707 17.5781C46.9826 17.1648 46.4244 16.581 46.0323 15.8267C45.6403 15.0682 45.4442 14.1712 45.4442 13.1357C45.4442 12.1257 45.6403 11.2393 46.0323 10.4766C46.4244 9.71378 46.9762 9.11932 47.6879 8.69318C48.4038 8.26705 49.2433 8.05398 50.2063 8.05398C50.854 8.05398 51.457 8.15838 52.0153 8.36719C52.5778 8.57173 53.0678 8.88068 53.4854 9.29403C53.9073 9.70739 54.2354 10.2273 54.4698 10.8537C54.7042 11.4759 54.8214 12.2045 54.8214 13.0398V13.7876H46.5309V12.1001H52.2582C52.2582 11.7081 52.1729 11.3608 52.0025 11.0582C51.832 10.7557 51.5955 10.5192 51.293 10.3487C50.9947 10.174 50.6474 10.0866 50.2511 10.0866C49.8377 10.0866 49.4712 10.1825 49.1516 10.3743C48.8363 10.5618 48.5891 10.8153 48.4102 11.1349C48.2312 11.4503 48.1396 11.8018 48.1353 12.1896V13.794C48.1353 14.2798 48.2248 14.6996 48.4038 15.0533C48.587 15.407 48.8448 15.6797 49.1772 15.8714C49.5096 16.0632 49.9038 16.1591 50.3597 16.1591C50.6623 16.1591 50.9393 16.1165 51.1907 16.0312C51.4421 15.946 51.6573 15.8182 51.8363 15.6477C52.0153 15.4773 52.1516 15.2685 52.2454 15.0213L54.7639 15.1875C54.636 15.7926 54.3739 16.321 53.9776 16.7727C53.5856 17.2202 53.0785 17.5696 52.4563 17.821C51.8384 18.0682 51.1246 18.1918 50.315 18.1918ZM62.7156 11.544V13.7045H56.7454V11.544H62.7156ZM73.2049 10.9815L70.712 11.1349C70.6694 10.9219 70.5778 10.7301 70.4371 10.5597C70.2965 10.3849 70.1112 10.2464 69.881 10.1442C69.6552 10.0376 69.3846 9.98438 69.0692 9.98438C68.6474 9.98438 68.2915 10.0739 68.0018 10.2528C67.712 10.4276 67.5671 10.6619 67.5671 10.956C67.5671 11.1903 67.6609 11.3885 67.8484 11.5504C68.0359 11.7124 68.3576 11.8423 68.8136 11.9403L70.5906 12.2983C71.5451 12.4943 72.2567 12.8097 72.7255 13.2443C73.1942 13.679 73.4286 14.25 73.4286 14.9574C73.4286 15.6009 73.239 16.1655 72.8597 16.6513C72.4847 17.1371 71.9691 17.5163 71.3129 17.7891C70.6609 18.0575 69.9087 18.1918 69.0565 18.1918C67.7567 18.1918 66.7212 17.9212 65.9499 17.38C65.1829 16.8345 64.7333 16.093 64.6012 15.1555L67.2795 15.0149C67.3604 15.4112 67.5565 15.7138 67.8675 15.9226C68.1786 16.1271 68.5771 16.2294 69.0629 16.2294C69.5401 16.2294 69.9237 16.1378 70.2134 15.9545C70.5075 15.767 70.6566 15.5263 70.6609 15.2322C70.6566 14.9851 70.5522 14.7827 70.3477 14.625C70.1431 14.4631 69.8278 14.3395 69.4016 14.2543L67.7013 13.9155C66.7425 13.7237 66.0288 13.3913 65.56 12.9183C65.0955 12.4453 64.8633 11.8423 64.8633 11.1094C64.8633 10.4787 65.0337 9.93537 65.3746 9.4794C65.7198 9.02344 66.2035 8.67188 66.8256 8.42472C67.4521 8.17756 68.185 8.05398 69.0245 8.05398C70.2646 8.05398 71.2404 8.31605 71.9521 8.8402C72.668 9.36435 73.0856 10.0781 73.2049 10.9815ZM80.3656 8.18182V10.2273H74.4529V8.18182H80.3656ZM75.7953 5.82955H78.5183V14.983C78.5183 15.2344 78.5566 15.4304 78.6333 15.571C78.71 15.7074 78.8166 15.8033 78.9529 15.8587C79.0936 15.9141 79.2555 15.9418 79.4387 15.9418C79.5666 15.9418 79.6944 15.9311 79.8223 15.9098C79.9501 15.8842 80.0481 15.8651 80.1163 15.8523L80.5446 17.8786C80.4082 17.9212 80.2164 17.9702 79.9693 18.0256C79.7221 18.0852 79.4217 18.1214 79.068 18.1342C78.4118 18.1598 77.8365 18.0724 77.3422 17.8722C76.8521 17.6719 76.4707 17.3608 76.198 16.9389C75.9252 16.517 75.791 15.9844 75.7953 15.3409V5.82955ZM82.1394 18V8.18182H84.7346V9.91406H84.8496C85.0542 9.33878 85.3951 8.88494 85.8723 8.55256C86.3496 8.22017 86.9206 8.05398 87.5854 8.05398C88.2587 8.05398 88.8319 8.2223 89.3049 8.55895C89.7779 8.89133 90.0932 9.34304 90.2509 9.91406H90.3532C90.5534 9.35156 90.9157 8.90199 91.4398 8.56534C91.9682 8.22443 92.5925 8.05398 93.3127 8.05398C94.2289 8.05398 94.9725 8.34588 95.5435 8.92969C96.1188 9.50923 96.4064 10.3317 96.4064 11.397V18H93.6898V11.9339C93.6898 11.3885 93.5449 10.9794 93.2551 10.7067C92.9654 10.4339 92.6032 10.2976 92.1685 10.2976C91.6742 10.2976 91.2885 10.4553 91.0115 10.7706C90.7346 11.0817 90.5961 11.4929 90.5961 12.0043V18H87.9561V11.8764C87.9561 11.3949 87.8176 11.0114 87.5407 10.7259C87.2679 10.4403 86.9078 10.2976 86.4604 10.2976C86.1578 10.2976 85.8851 10.3743 85.6422 10.5277C85.4036 10.6768 85.214 10.8878 85.0733 11.1605C84.9327 11.429 84.8624 11.7443 84.8624 12.1065V18H82.1394ZM103.78 8.18182V10.2273H97.867V8.18182H103.78ZM99.2093 5.82955H101.932V14.983C101.932 15.2344 101.971 15.4304 102.047 15.571C102.124 15.7074 102.231 15.8033 102.367 15.8587C102.508 15.9141 102.67 15.9418 102.853 15.9418C102.981 15.9418 103.108 15.9311 103.236 15.9098C103.364 15.8842 103.462 15.8651 103.53 15.8523L103.959 17.8786C103.822 17.9212 103.631 17.9702 103.383 18.0256C103.136 18.0852 102.836 18.1214 102.482 18.1342C101.826 18.1598 101.251 18.0724 100.756 17.8722C100.266 17.6719 99.8848 17.3608 99.612 16.9389C99.3393 16.517 99.2051 15.9844 99.2093 15.3409V5.82955Z" fill="black"/>
<circle cx="4" cy="49" r="3.5" stroke="black"/>
<circle cx="564" cy="255" r="3.5" stroke="black"/>
<path d="M66.0845 56L62.3388 42.9091H65.3622L67.5291 52.005H67.6378L70.0284 42.9091H72.6172L75.0014 52.0241H75.1165L77.2834 42.9091H80.3068L76.5611 56H73.8636L71.3707 47.4411H71.2685L68.782 56H66.0845ZM84.5559 42.9091V56H81.7882V42.9091H84.5559ZM86.3345 45.1911V42.9091H97.0859V45.1911H93.0781V56H90.3423V45.1911H86.3345ZM98.8565 56V42.9091H101.624V48.3104H107.243V42.9091H110.004V56H107.243V50.5923H101.624V56H98.8565Z" fill="black"/>
<rect x="51.5" y="33.5" width="72" height="32" rx="16" stroke="black"/>
<path d="M295.523 56.1918C294.517 56.1918 293.652 55.9787 292.928 55.5526C292.207 55.1222 291.653 54.5256 291.266 53.7628C290.882 53 290.69 52.1222 290.69 51.1293C290.69 50.1236 290.884 49.2415 291.272 48.483C291.664 47.7202 292.22 47.1257 292.94 46.6996C293.661 46.2692 294.517 46.054 295.51 46.054C296.366 46.054 297.116 46.2095 297.76 46.5206C298.403 46.8317 298.913 47.2685 299.288 47.831C299.663 48.3935 299.869 49.054 299.908 49.8125H297.338C297.266 49.3224 297.074 48.9283 296.763 48.63C296.456 48.3274 296.053 48.1761 295.555 48.1761C295.133 48.1761 294.764 48.2912 294.449 48.5213C294.138 48.7472 293.895 49.0774 293.72 49.5121C293.545 49.9467 293.458 50.473 293.458 51.0909C293.458 51.7173 293.543 52.25 293.714 52.6889C293.888 53.1278 294.134 53.4624 294.449 53.6925C294.764 53.9226 295.133 54.0376 295.555 54.0376C295.866 54.0376 296.145 53.9737 296.392 53.8459C296.643 53.718 296.85 53.5327 297.012 53.2898C297.178 53.0426 297.287 52.7464 297.338 52.4013H299.908C299.865 53.1513 299.661 53.8118 299.294 54.3828C298.932 54.9496 298.431 55.3928 297.792 55.7124C297.153 56.032 296.396 56.1918 295.523 56.1918ZM306.087 56.1918C305.094 56.1918 304.236 55.9808 303.511 55.5589C302.791 55.1328 302.235 54.5405 301.843 53.782C301.451 53.0192 301.255 52.1349 301.255 51.1293C301.255 50.1151 301.451 49.2287 301.843 48.4702C302.235 47.7074 302.791 47.1151 303.511 46.6932C304.236 46.267 305.094 46.054 306.087 46.054C307.08 46.054 307.937 46.267 308.657 46.6932C309.381 47.1151 309.939 47.7074 310.331 48.4702C310.724 49.2287 310.92 50.1151 310.92 51.1293C310.92 52.1349 310.724 53.0192 310.331 53.782C309.939 54.5405 309.381 55.1328 308.657 55.5589C307.937 55.9808 307.08 56.1918 306.087 56.1918ZM306.1 54.0824C306.552 54.0824 306.929 53.9545 307.231 53.6989C307.534 53.4389 307.762 53.0852 307.915 52.6378C308.073 52.1903 308.152 51.6811 308.152 51.1101C308.152 50.5391 308.073 50.0298 307.915 49.5824C307.762 49.1349 307.534 48.7812 307.231 48.5213C306.929 48.2614 306.552 48.1314 306.1 48.1314C305.644 48.1314 305.26 48.2614 304.949 48.5213C304.643 48.7812 304.41 49.1349 304.253 49.5824C304.099 50.0298 304.023 50.5391 304.023 51.1101C304.023 51.6811 304.099 52.1903 304.253 52.6378C304.41 53.0852 304.643 53.4389 304.949 53.6989C305.26 53.9545 305.644 54.0824 306.1 54.0824ZM312.69 56V46.1818H315.285V47.9141H315.4C315.605 47.3388 315.946 46.8849 316.423 46.5526C316.9 46.2202 317.471 46.054 318.136 46.054C318.809 46.054 319.383 46.2223 319.856 46.5589C320.329 46.8913 320.644 47.343 320.802 47.9141H320.904C321.104 47.3516 321.466 46.902 321.991 46.5653C322.519 46.2244 323.143 46.054 323.863 46.054C324.78 46.054 325.523 46.3459 326.094 46.9297C326.67 47.5092 326.957 48.3317 326.957 49.397V56H324.241V49.9339C324.241 49.3885 324.096 48.9794 323.806 48.7067C323.516 48.4339 323.154 48.2976 322.719 48.2976C322.225 48.2976 321.839 48.4553 321.562 48.7706C321.285 49.0817 321.147 49.4929 321.147 50.0043V56H318.507V49.8764C318.507 49.3949 318.368 49.0114 318.091 48.7259C317.819 48.4403 317.459 48.2976 317.011 48.2976C316.709 48.2976 316.436 48.3743 316.193 48.5277C315.954 48.6768 315.765 48.8878 315.624 49.1605C315.483 49.429 315.413 49.7443 315.413 50.1065V56H312.69ZM329.108 56V46.1818H331.703V47.9141H331.818C332.023 47.3388 332.364 46.8849 332.841 46.5526C333.318 46.2202 333.889 46.054 334.554 46.054C335.227 46.054 335.801 46.2223 336.274 46.5589C336.747 46.8913 337.062 47.343 337.22 47.9141H337.322C337.522 47.3516 337.884 46.902 338.409 46.5653C338.937 46.2244 339.561 46.054 340.281 46.054C341.198 46.054 341.941 46.3459 342.512 46.9297C343.088 47.5092 343.375 48.3317 343.375 49.397V56H340.659V49.9339C340.659 49.3885 340.514 48.9794 340.224 48.7067C339.934 48.4339 339.572 48.2976 339.137 48.2976C338.643 48.2976 338.257 48.4553 337.98 48.7706C337.703 49.0817 337.565 49.4929 337.565 50.0043V56H334.925V49.8764C334.925 49.3949 334.786 49.0114 334.509 48.7259C334.237 48.4403 333.877 48.2976 333.429 48.2976C333.127 48.2976 332.854 48.3743 332.611 48.5277C332.372 48.6768 332.183 48.8878 332.042 49.1605C331.901 49.429 331.831 49.7443 331.831 50.1065V56H329.108ZM349.962 56.1918C348.969 56.1918 348.111 55.9808 347.386 55.5589C346.666 55.1328 346.11 54.5405 345.718 53.782C345.326 53.0192 345.13 52.1349 345.13 51.1293C345.13 50.1151 345.326 49.2287 345.718 48.4702C346.11 47.7074 346.666 47.1151 347.386 46.6932C348.111 46.267 348.969 46.054 349.962 46.054C350.955 46.054 351.812 46.267 352.532 46.6932C353.256 47.1151 353.814 47.7074 354.206 48.4702C354.599 49.2287 354.795 50.1151 354.795 51.1293C354.795 52.1349 354.599 53.0192 354.206 53.782C353.814 54.5405 353.256 55.1328 352.532 55.5589C351.812 55.9808 350.955 56.1918 349.962 56.1918ZM349.975 54.0824C350.427 54.0824 350.804 53.9545 351.106 53.6989C351.409 53.4389 351.637 53.0852 351.79 52.6378C351.948 52.1903 352.027 51.6811 352.027 51.1101C352.027 50.5391 351.948 50.0298 351.79 49.5824C351.637 49.1349 351.409 48.7812 351.106 48.5213C350.804 48.2614 350.427 48.1314 349.975 48.1314C349.519 48.1314 349.135 48.2614 348.824 48.5213C348.518 48.7812 348.285 49.1349 348.128 49.5824C347.974 50.0298 347.898 50.5391 347.898 51.1101C347.898 51.6811 347.974 52.1903 348.128 52.6378C348.285 53.0852 348.518 53.4389 348.824 53.6989C349.135 53.9545 349.519 54.0824 349.975 54.0824ZM359.288 50.3239V56H356.565V46.1818H359.16V47.9141H359.275C359.493 47.343 359.857 46.8913 360.368 46.5589C360.88 46.2223 361.5 46.054 362.229 46.054C362.91 46.054 363.505 46.2031 364.012 46.5014C364.519 46.7997 364.913 47.2259 365.194 47.7798C365.476 48.3295 365.616 48.9858 365.616 49.7486V56H362.893V50.2344C362.898 49.6335 362.744 49.1648 362.433 48.8281C362.122 48.4872 361.694 48.3168 361.148 48.3168C360.782 48.3168 360.458 48.3956 360.177 48.5533C359.9 48.7109 359.682 48.9411 359.525 49.2436C359.371 49.5419 359.292 49.902 359.288 50.3239ZM373.88 49.544V51.7045H367.909V49.544H373.88ZM381.422 46.1818V48.2273H375.51V46.1818H381.422ZM376.852 43.8295H379.575V52.983C379.575 53.2344 379.613 53.4304 379.69 53.571C379.767 53.7074 379.873 53.8033 380.01 53.8587C380.15 53.9141 380.312 53.9418 380.495 53.9418C380.623 53.9418 380.751 53.9311 380.879 53.9098C381.007 53.8842 381.105 53.8651 381.173 53.8523L381.601 55.8786C381.465 55.9212 381.273 55.9702 381.026 56.0256C380.779 56.0852 380.478 56.1214 380.125 56.1342C379.468 56.1598 378.893 56.0724 378.399 55.8722C377.909 55.6719 377.527 55.3608 377.255 54.9389C376.982 54.517 376.848 53.9844 376.852 53.3409V43.8295ZM385.996 56.1854C385.369 56.1854 384.811 56.0767 384.321 55.8594C383.831 55.6378 383.443 55.3118 383.158 54.8814C382.876 54.4467 382.736 53.9055 382.736 53.2578C382.736 52.7124 382.836 52.2543 383.036 51.8835C383.237 51.5128 383.509 51.2145 383.854 50.9886C384.2 50.7628 384.592 50.5923 385.031 50.4773C385.474 50.3622 385.938 50.2812 386.424 50.2344C386.995 50.1747 387.455 50.1193 387.805 50.0682C388.154 50.0128 388.408 49.9318 388.565 49.8253C388.723 49.7187 388.802 49.5611 388.802 49.3523V49.3139C388.802 48.9091 388.674 48.5959 388.418 48.3743C388.167 48.1527 387.809 48.0419 387.344 48.0419C386.854 48.0419 386.464 48.1506 386.175 48.3679C385.885 48.581 385.693 48.8494 385.599 49.1733L383.081 48.9688C383.209 48.3722 383.46 47.8565 383.835 47.4219C384.21 46.983 384.694 46.6463 385.286 46.4119C385.883 46.1733 386.573 46.054 387.357 46.054C387.903 46.054 388.425 46.1179 388.923 46.2457C389.426 46.3736 389.871 46.5717 390.259 46.8402C390.651 47.1087 390.96 47.4538 391.186 47.8757C391.412 48.2933 391.525 48.794 391.525 49.3778V56H388.942V54.6385H388.866C388.708 54.9453 388.497 55.2159 388.233 55.4503C387.969 55.6804 387.651 55.8615 387.281 55.9936C386.91 56.1214 386.482 56.1854 385.996 56.1854ZM386.776 54.3061C387.176 54.3061 387.53 54.2273 387.837 54.0696C388.143 53.9077 388.384 53.6903 388.559 53.4176C388.734 53.1449 388.821 52.8359 388.821 52.4908V51.4489C388.736 51.5043 388.619 51.5554 388.469 51.6023C388.325 51.6449 388.161 51.6854 387.977 51.7237C387.794 51.7578 387.611 51.7898 387.428 51.8196C387.244 51.8452 387.078 51.8686 386.929 51.8899C386.609 51.9368 386.33 52.0114 386.092 52.1136C385.853 52.2159 385.668 52.3544 385.536 52.5291C385.403 52.6996 385.337 52.9126 385.337 53.1683C385.337 53.5391 385.472 53.8224 385.74 54.0185C386.013 54.2102 386.358 54.3061 386.776 54.3061ZM393.689 56V42.9091H396.412V47.831H396.495C396.614 47.5668 396.787 47.2983 397.012 47.0256C397.243 46.7486 397.541 46.5185 397.907 46.3352C398.278 46.1477 398.738 46.054 399.288 46.054C400.004 46.054 400.664 46.2415 401.27 46.6165C401.875 46.9872 402.358 47.5476 402.721 48.2976C403.083 49.0433 403.264 49.9787 403.264 51.1037C403.264 52.1989 403.087 53.1236 402.733 53.8778C402.384 54.6278 401.907 55.1967 401.301 55.5845C400.701 55.968 400.027 56.1598 399.282 56.1598C398.753 56.1598 398.304 56.0724 397.933 55.8977C397.566 55.723 397.266 55.5036 397.032 55.2393C396.797 54.9709 396.618 54.7003 396.495 54.4276H396.373V56H393.689ZM396.354 51.0909C396.354 51.6747 396.435 52.1839 396.597 52.6186C396.759 53.0533 396.993 53.392 397.3 53.6349C397.607 53.8736 397.98 53.9929 398.419 53.9929C398.862 53.9929 399.237 53.8714 399.544 53.6286C399.85 53.3814 400.083 53.0405 400.24 52.6058C400.402 52.1669 400.483 51.6619 400.483 51.0909C400.483 50.5241 400.404 50.0256 400.247 49.5952C400.089 49.1648 399.857 48.8281 399.55 48.5852C399.243 48.3423 398.866 48.2209 398.419 48.2209C397.975 48.2209 397.6 48.3381 397.294 48.5724C396.991 48.8068 396.759 49.1392 396.597 49.5696C396.435 50 396.354 50.5071 396.354 51.0909ZM407.804 42.9091V56H405.081V42.9091H407.804ZM414.46 56.1918C413.45 56.1918 412.58 55.9872 411.852 55.5781C411.127 55.1648 410.569 54.581 410.177 53.8267C409.785 53.0682 409.589 52.1712 409.589 51.1357C409.589 50.1257 409.785 49.2393 410.177 48.4766C410.569 47.7138 411.121 47.1193 411.832 46.6932C412.548 46.267 413.388 46.054 414.351 46.054C414.999 46.054 415.602 46.1584 416.16 46.3672C416.722 46.5717 417.212 46.8807 417.63 47.294C418.052 47.7074 418.38 48.2273 418.614 48.8537C418.849 49.4759 418.966 50.2045 418.966 51.0398V51.7876H410.675V50.1001H416.403C416.403 49.7081 416.317 49.3608 416.147 49.0582C415.977 48.7557 415.74 48.5192 415.438 48.3487C415.139 48.174 414.792 48.0866 414.396 48.0866C413.982 48.0866 413.616 48.1825 413.296 48.3743C412.981 48.5618 412.734 48.8153 412.555 49.1349C412.376 49.4503 412.284 49.8018 412.28 50.1896V51.794C412.28 52.2798 412.369 52.6996 412.548 53.0533C412.732 53.407 412.989 53.6797 413.322 53.8714C413.654 54.0632 414.048 54.1591 414.504 54.1591C414.807 54.1591 415.084 54.1165 415.335 54.0312C415.587 53.946 415.802 53.8182 415.981 53.6477C416.16 53.4773 416.296 53.2685 416.39 53.0213L418.908 53.1875C418.781 53.7926 418.518 54.321 418.122 54.7727C417.73 55.2202 417.223 55.5696 416.601 55.821C415.983 56.0682 415.269 56.1918 414.46 56.1918ZM426.86 49.544V51.7045H420.89V49.544H426.86ZM433.655 56.1918C432.645 56.1918 431.776 55.9872 431.047 55.5781C430.322 55.1648 429.764 54.581 429.372 53.8267C428.98 53.0682 428.784 52.1712 428.784 51.1357C428.784 50.1257 428.98 49.2393 429.372 48.4766C429.764 47.7138 430.316 47.1193 431.028 46.6932C431.744 46.267 432.583 46.054 433.546 46.054C434.194 46.054 434.797 46.1584 435.355 46.3672C435.918 46.5717 436.408 46.8807 436.825 47.294C437.247 47.7074 437.575 48.2273 437.81 48.8537C438.044 49.4759 438.161 50.2045 438.161 51.0398V51.7876H429.871V50.1001H435.598C435.598 49.7081 435.513 49.3608 435.342 49.0582C435.172 48.7557 434.935 48.5192 434.633 48.3487C434.335 48.174 433.987 48.0866 433.591 48.0866C433.178 48.0866 432.811 48.1825 432.491 48.3743C432.176 48.5618 431.929 48.8153 431.75 49.1349C431.571 49.4503 431.479 49.8018 431.475 50.1896V51.794C431.475 52.2798 431.565 52.6996 431.744 53.0533C431.927 53.407 432.185 53.6797 432.517 53.8714C432.849 54.0632 433.244 54.1591 433.7 54.1591C434.002 54.1591 434.279 54.1165 434.531 54.0312C434.782 53.946 434.997 53.8182 435.176 53.6477C435.355 53.4773 435.491 53.2685 435.585 53.0213L438.104 53.1875C437.976 53.7926 437.714 54.321 437.317 54.7727C436.925 55.2202 436.418 55.5696 435.796 55.821C435.178 56.0682 434.464 56.1918 433.655 56.1918ZM442.038 46.1818L443.841 49.6143L445.688 46.1818H448.481L445.637 51.0909L448.558 56H445.777L443.841 52.6058L441.936 56H439.123L442.038 51.0909L439.225 46.1818H442.038ZM450.098 59.6818V46.1818H452.783V47.831H452.904C453.024 47.5668 453.196 47.2983 453.422 47.0256C453.652 46.7486 453.951 46.5185 454.317 46.3352C454.688 46.1477 455.148 46.054 455.698 46.054C456.414 46.054 457.074 46.2415 457.679 46.6165C458.284 46.9872 458.768 47.5476 459.13 48.2976C459.493 49.0433 459.674 49.9787 459.674 51.1037C459.674 52.1989 459.497 53.1236 459.143 53.8778C458.794 54.6278 458.316 55.1967 457.711 55.5845C457.11 55.968 456.437 56.1598 455.691 56.1598C455.163 56.1598 454.713 56.0724 454.343 55.8977C453.976 55.723 453.676 55.5036 453.441 55.2393C453.207 54.9709 453.028 54.7003 452.904 54.4276H452.821V59.6818H450.098ZM452.764 51.0909C452.764 51.6747 452.845 52.1839 453.007 52.6186C453.169 53.0533 453.403 53.392 453.71 53.6349C454.017 53.8736 454.39 53.9929 454.828 53.9929C455.272 53.9929 455.647 53.8714 455.953 53.6286C456.26 53.3814 456.493 53.0405 456.65 52.6058C456.812 52.1669 456.893 51.6619 456.893 51.0909C456.893 50.5241 456.814 50.0256 456.657 49.5952C456.499 49.1648 456.267 48.8281 455.96 48.5852C455.653 48.3423 455.276 48.2209 454.828 48.2209C454.385 48.2209 454.01 48.3381 453.703 48.5724C453.401 48.8068 453.169 49.1392 453.007 49.5696C452.845 50 452.764 50.5071 452.764 51.0909ZM461.489 56V46.1818H464.129V47.8949H464.231C464.41 47.2855 464.711 46.8253 465.132 46.5142C465.554 46.1989 466.04 46.0412 466.59 46.0412C466.726 46.0412 466.873 46.0497 467.031 46.0668C467.189 46.0838 467.327 46.1072 467.446 46.1371V48.5533C467.319 48.5149 467.142 48.4808 466.916 48.451C466.69 48.4212 466.483 48.4062 466.296 48.4062C465.895 48.4062 465.537 48.4936 465.222 48.6683C464.911 48.8388 464.664 49.0774 464.48 49.3842C464.301 49.6911 464.212 50.0447 464.212 50.4453V56H461.489ZM472.872 56.1918C471.862 56.1918 470.992 55.9872 470.264 55.5781C469.539 55.1648 468.981 54.581 468.589 53.8267C468.197 53.0682 468.001 52.1712 468.001 51.1357C468.001 50.1257 468.197 49.2393 468.589 48.4766C468.981 47.7138 469.533 47.1193 470.244 46.6932C470.96 46.267 471.8 46.054 472.763 46.054C473.411 46.054 474.014 46.1584 474.572 46.3672C475.134 46.5717 475.624 46.8807 476.042 47.294C476.464 47.7074 476.792 48.2273 477.026 48.8537C477.261 49.4759 477.378 50.2045 477.378 51.0398V51.7876H469.088V50.1001H474.815C474.815 49.7081 474.73 49.3608 474.559 49.0582C474.389 48.7557 474.152 48.5192 473.85 48.3487C473.551 48.174 473.204 48.0866 472.808 48.0866C472.394 48.0866 472.028 48.1825 471.708 48.3743C471.393 48.5618 471.146 48.8153 470.967 49.1349C470.788 49.4503 470.696 49.8018 470.692 50.1896V51.794C470.692 52.2798 470.781 52.6996 470.96 53.0533C471.144 53.407 471.401 53.6797 471.734 53.8714C472.066 54.0632 472.46 54.1591 472.916 54.1591C473.219 54.1591 473.496 54.1165 473.747 54.0312C473.999 53.946 474.214 53.8182 474.393 53.6477C474.572 53.4773 474.708 53.2685 474.802 53.0213L477.32 53.1875C477.193 53.7926 476.931 54.321 476.534 54.7727C476.142 55.2202 475.635 55.5696 475.013 55.821C474.395 56.0682 473.681 56.1918 472.872 56.1918ZM487.324 48.9815L484.831 49.1349C484.789 48.9219 484.697 48.7301 484.556 48.5597C484.416 48.3849 484.23 48.2464 484 48.1442C483.774 48.0376 483.504 47.9844 483.188 47.9844C482.767 47.9844 482.411 48.0739 482.121 48.2528C481.831 48.4276 481.686 48.6619 481.686 48.956C481.686 49.1903 481.78 49.3885 481.968 49.5504C482.155 49.7124 482.477 49.8423 482.933 49.9403L484.71 50.2983C485.664 50.4943 486.376 50.8097 486.845 51.2443C487.313 51.679 487.548 52.25 487.548 52.9574C487.548 53.6009 487.358 54.1655 486.979 54.6513C486.604 55.1371 486.088 55.5163 485.432 55.7891C484.78 56.0575 484.028 56.1918 483.176 56.1918C481.876 56.1918 480.84 55.9212 480.069 55.38C479.302 54.8345 478.852 54.093 478.72 53.1555L481.399 53.0149C481.48 53.4112 481.676 53.7138 481.987 53.9226C482.298 54.1271 482.696 54.2294 483.182 54.2294C483.659 54.2294 484.043 54.1378 484.333 53.9545C484.627 53.767 484.776 53.5263 484.78 53.2322C484.776 52.9851 484.671 52.7827 484.467 52.625C484.262 52.4631 483.947 52.3395 483.521 52.2543L481.82 51.9155C480.862 51.7237 480.148 51.3913 479.679 50.9183C479.215 50.4453 478.982 49.8423 478.982 49.1094C478.982 48.4787 479.153 47.9354 479.494 47.4794C479.839 47.0234 480.323 46.6719 480.945 46.4247C481.571 46.1776 482.304 46.054 483.144 46.054C484.384 46.054 485.36 46.3161 486.071 46.8402C486.787 47.3643 487.205 48.0781 487.324 48.9815ZM497.431 48.9815L494.939 49.1349C494.896 48.9219 494.804 48.7301 494.664 48.5597C494.523 48.3849 494.338 48.2464 494.108 48.1442C493.882 48.0376 493.611 47.9844 493.296 47.9844C492.874 47.9844 492.518 48.0739 492.228 48.2528C491.939 48.4276 491.794 48.6619 491.794 48.956C491.794 49.1903 491.887 49.3885 492.075 49.5504C492.262 49.7124 492.584 49.8423 493.04 49.9403L494.817 50.2983C495.772 50.4943 496.483 50.8097 496.952 51.2443C497.421 51.679 497.655 52.25 497.655 52.9574C497.655 53.6009 497.466 54.1655 497.086 54.6513C496.711 55.1371 496.196 55.5163 495.539 55.7891C494.887 56.0575 494.135 56.1918 493.283 56.1918C491.983 56.1918 490.948 55.9212 490.176 55.38C489.409 54.8345 488.96 54.093 488.828 53.1555L491.506 53.0149C491.587 53.4112 491.783 53.7138 492.094 53.9226C492.405 54.1271 492.804 54.2294 493.289 54.2294C493.767 54.2294 494.15 54.1378 494.44 53.9545C494.734 53.767 494.883 53.5263 494.887 53.2322C494.883 52.9851 494.779 52.7827 494.574 52.625C494.37 52.4631 494.054 52.3395 493.628 52.2543L491.928 51.9155C490.969 51.7237 490.255 51.3913 489.787 50.9183C489.322 50.4453 489.09 49.8423 489.09 49.1094C489.09 48.4787 489.26 47.9354 489.601 47.4794C489.946 47.0234 490.43 46.6719 491.052 46.4247C491.679 46.1776 492.412 46.054 493.251 46.054C494.491 46.054 495.467 46.3161 496.179 46.8402C496.895 47.3643 497.312 48.0781 497.431 48.9815ZM499.37 56V46.1818H502.093V56H499.37ZM500.738 44.9162C500.333 44.9162 499.986 44.782 499.696 44.5135C499.41 44.2408 499.268 43.9148 499.268 43.5355C499.268 43.1605 499.41 42.8388 499.696 42.5703C499.986 42.2976 500.333 42.1612 500.738 42.1612C501.143 42.1612 501.488 42.2976 501.773 42.5703C502.063 42.8388 502.208 43.1605 502.208 43.5355C502.208 43.9148 502.063 44.2408 501.773 44.5135C501.488 44.782 501.143 44.9162 500.738 44.9162ZM508.71 56.1918C507.717 56.1918 506.859 55.9808 506.134 55.5589C505.414 55.1328 504.858 54.5405 504.466 53.782C504.074 53.0192 503.878 52.1349 503.878 51.1293C503.878 50.1151 504.074 49.2287 504.466 48.4702C504.858 47.7074 505.414 47.1151 506.134 46.6932C506.859 46.267 507.717 46.054 508.71 46.054C509.703 46.054 510.56 46.267 511.28 46.6932C512.004 47.1151 512.562 47.7074 512.955 48.4702C513.347 49.2287 513.543 50.1151 513.543 51.1293C513.543 52.1349 513.347 53.0192 512.955 53.782C512.562 54.5405 512.004 55.1328 511.28 55.5589C510.56 55.9808 509.703 56.1918 508.71 56.1918ZM508.723 54.0824C509.175 54.0824 509.552 53.9545 509.854 53.6989C510.157 53.4389 510.385 53.0852 510.538 52.6378C510.696 52.1903 510.775 51.6811 510.775 51.1101C510.775 50.5391 510.696 50.0298 510.538 49.5824C510.385 49.1349 510.157 48.7812 509.854 48.5213C509.552 48.2614 509.175 48.1314 508.723 48.1314C508.267 48.1314 507.884 48.2614 507.572 48.5213C507.266 48.7812 507.033 49.1349 506.876 49.5824C506.722 50.0298 506.646 50.5391 506.646 51.1101C506.646 51.6811 506.722 52.1903 506.876 52.6378C507.033 53.0852 507.266 53.4389 507.572 53.6989C507.884 53.9545 508.267 54.0824 508.723 54.0824ZM518.036 50.3239V56H515.313V46.1818H517.908V47.9141H518.023C518.241 47.343 518.605 46.8913 519.116 46.5589C519.628 46.2223 520.248 46.054 520.977 46.054C521.658 46.054 522.253 46.2031 522.76 46.5014C523.267 46.7997 523.661 47.2259 523.942 47.7798C524.224 48.3295 524.364 48.9858 524.364 49.7486V56H521.641V50.2344C521.646 49.6335 521.492 49.1648 521.181 48.8281C520.87 48.4872 520.442 48.3168 519.896 48.3168C519.53 48.3168 519.206 48.3956 518.925 48.5533C518.648 48.7109 518.43 48.9411 518.273 49.2436C518.119 49.5419 518.04 49.902 518.036 50.3239Z" fill="black"/>
<rect x="285.5" y="33.5" width="244" height="32" stroke="black"/>
<path d="M302.575 158.682V153.428H302.491C302.364 153.7 302.183 153.971 301.948 154.239C301.718 154.504 301.418 154.723 301.047 154.898C300.68 155.072 300.233 155.16 299.705 155.16C298.959 155.16 298.283 154.968 297.678 154.585C297.077 154.197 296.6 153.628 296.246 152.878C295.897 152.124 295.722 151.199 295.722 150.104C295.722 148.979 295.903 148.043 296.266 147.298C296.628 146.548 297.109 145.987 297.71 145.616C298.315 145.241 298.978 145.054 299.698 145.054C300.248 145.054 300.706 145.148 301.072 145.335C301.443 145.518 301.741 145.749 301.967 146.026C302.197 146.298 302.372 146.567 302.491 146.831H302.607V145.182H305.291V158.682H302.575ZM300.567 152.993C301.006 152.993 301.377 152.874 301.68 152.635C301.987 152.392 302.221 152.053 302.383 151.619C302.549 151.184 302.632 150.675 302.632 150.091C302.632 149.507 302.551 149 302.389 148.57C302.227 148.139 301.993 147.807 301.686 147.572C301.379 147.338 301.006 147.221 300.567 147.221C300.12 147.221 299.743 147.342 299.436 147.585C299.129 147.828 298.897 148.165 298.739 148.595C298.582 149.026 298.503 149.524 298.503 150.091C298.503 150.662 298.582 151.167 298.739 151.606C298.901 152.04 299.134 152.381 299.436 152.629C299.743 152.871 300.12 152.993 300.567 152.993ZM313.773 150.82V145.182H316.496V155H313.882V153.217H313.78C313.558 153.792 313.19 154.254 312.674 154.604C312.163 154.953 311.538 155.128 310.801 155.128C310.145 155.128 309.567 154.979 309.069 154.68C308.57 154.382 308.18 153.958 307.899 153.408C307.622 152.859 307.482 152.2 307.477 151.433V145.182H310.2V150.947C310.205 151.527 310.36 151.985 310.667 152.322C310.974 152.658 311.385 152.827 311.901 152.827C312.229 152.827 312.536 152.752 312.821 152.603C313.107 152.45 313.337 152.224 313.511 151.925C313.69 151.627 313.778 151.259 313.773 150.82ZM321.474 155.185C320.848 155.185 320.29 155.077 319.8 154.859C319.309 154.638 318.922 154.312 318.636 153.881C318.355 153.447 318.214 152.906 318.214 152.258C318.214 151.712 318.314 151.254 318.515 150.884C318.715 150.513 318.988 150.214 319.333 149.989C319.678 149.763 320.07 149.592 320.509 149.477C320.952 149.362 321.417 149.281 321.903 149.234C322.474 149.175 322.934 149.119 323.283 149.068C323.633 149.013 323.886 148.932 324.044 148.825C324.202 148.719 324.28 148.561 324.28 148.352V148.314C324.28 147.909 324.153 147.596 323.897 147.374C323.645 147.153 323.287 147.042 322.823 147.042C322.333 147.042 321.943 147.151 321.653 147.368C321.363 147.581 321.172 147.849 321.078 148.173L318.559 147.969C318.687 147.372 318.939 146.857 319.314 146.422C319.689 145.983 320.172 145.646 320.765 145.412C321.361 145.173 322.052 145.054 322.836 145.054C323.381 145.054 323.903 145.118 324.402 145.246C324.905 145.374 325.35 145.572 325.738 145.84C326.13 146.109 326.439 146.454 326.665 146.876C326.89 147.293 327.003 147.794 327.003 148.378V155H324.421V153.638H324.344C324.187 153.945 323.976 154.216 323.711 154.45C323.447 154.68 323.13 154.862 322.759 154.994C322.388 155.121 321.96 155.185 321.474 155.185ZM322.254 153.306C322.655 153.306 323.008 153.227 323.315 153.07C323.622 152.908 323.863 152.69 324.037 152.418C324.212 152.145 324.3 151.836 324.3 151.491V150.449C324.214 150.504 324.097 150.555 323.948 150.602C323.803 150.645 323.639 150.685 323.456 150.724C323.273 150.758 323.089 150.79 322.906 150.82C322.723 150.845 322.557 150.869 322.407 150.89C322.088 150.937 321.809 151.011 321.57 151.114C321.331 151.216 321.146 151.354 321.014 151.529C320.882 151.7 320.816 151.913 320.816 152.168C320.816 152.539 320.95 152.822 321.219 153.018C321.491 153.21 321.836 153.306 322.254 153.306ZM331.839 141.909V155H329.116V141.909H331.839ZM334.02 155V145.182H336.743V155H334.02ZM335.388 143.916C334.983 143.916 334.636 143.782 334.346 143.513C334.061 143.241 333.918 142.915 333.918 142.536C333.918 142.161 334.061 141.839 334.346 141.57C334.636 141.298 334.983 141.161 335.388 141.161C335.793 141.161 336.138 141.298 336.424 141.57C336.713 141.839 336.858 142.161 336.858 142.536C336.858 142.915 336.713 143.241 336.424 143.513C336.138 143.782 335.793 143.916 335.388 143.916ZM344.204 145.182V147.227H338.145V145.182H344.204ZM339.532 155V144.472C339.532 143.761 339.67 143.17 339.947 142.702C340.229 142.233 340.612 141.881 341.098 141.647C341.584 141.413 342.135 141.295 342.753 141.295C343.171 141.295 343.552 141.327 343.898 141.391C344.247 141.455 344.507 141.513 344.677 141.564L344.192 143.609C344.085 143.575 343.953 143.543 343.795 143.513C343.642 143.484 343.484 143.469 343.322 143.469C342.922 143.469 342.643 143.562 342.485 143.75C342.327 143.933 342.248 144.191 342.248 144.523V155H339.532ZM345.868 155V145.182H348.591V155H345.868ZM347.236 143.916C346.831 143.916 346.484 143.782 346.194 143.513C345.908 143.241 345.766 142.915 345.766 142.536C345.766 142.161 345.908 141.839 346.194 141.57C346.484 141.298 346.831 141.161 347.236 141.161C347.641 141.161 347.986 141.298 348.271 141.57C348.561 141.839 348.706 142.161 348.706 142.536C348.706 142.915 348.561 143.241 348.271 143.513C347.986 143.782 347.641 143.916 347.236 143.916ZM355.247 155.192C354.237 155.192 353.367 154.987 352.639 154.578C351.914 154.165 351.356 153.581 350.964 152.827C350.572 152.068 350.376 151.171 350.376 150.136C350.376 149.126 350.572 148.239 350.964 147.477C351.356 146.714 351.908 146.119 352.619 145.693C353.335 145.267 354.175 145.054 355.138 145.054C355.786 145.054 356.389 145.158 356.947 145.367C357.509 145.572 357.999 145.881 358.417 146.294C358.839 146.707 359.167 147.227 359.401 147.854C359.636 148.476 359.753 149.205 359.753 150.04V150.788H351.463V149.1H357.19C357.19 148.708 357.105 148.361 356.934 148.058C356.764 147.756 356.527 147.519 356.225 147.349C355.926 147.174 355.579 147.087 355.183 147.087C354.769 147.087 354.403 147.183 354.083 147.374C353.768 147.562 353.521 147.815 353.342 148.135C353.163 148.45 353.071 148.802 353.067 149.19V150.794C353.067 151.28 353.156 151.7 353.335 152.053C353.519 152.407 353.776 152.68 354.109 152.871C354.441 153.063 354.835 153.159 355.291 153.159C355.594 153.159 355.871 153.116 356.122 153.031C356.374 152.946 356.589 152.818 356.768 152.648C356.947 152.477 357.083 152.268 357.177 152.021L359.695 152.188C359.568 152.793 359.306 153.321 358.909 153.773C358.517 154.22 358.01 154.57 357.388 154.821C356.77 155.068 356.056 155.192 355.247 155.192ZM365.148 155.16C364.402 155.16 363.727 154.968 363.122 154.585C362.521 154.197 362.044 153.628 361.69 152.878C361.34 152.124 361.166 151.199 361.166 150.104C361.166 148.979 361.347 148.043 361.709 147.298C362.071 146.548 362.553 145.987 363.154 145.616C363.759 145.241 364.421 145.054 365.142 145.054C365.691 145.054 366.149 145.148 366.516 145.335C366.887 145.518 367.185 145.749 367.411 146.026C367.641 146.298 367.816 146.567 367.935 146.831H368.018V141.909H370.735V155H368.05V153.428H367.935C367.807 153.7 367.626 153.971 367.392 154.239C367.161 154.504 366.861 154.723 366.49 154.898C366.124 155.072 365.676 155.16 365.148 155.16ZM366.011 152.993C366.45 152.993 366.82 152.874 367.123 152.635C367.43 152.392 367.664 152.053 367.826 151.619C367.992 151.184 368.075 150.675 368.075 150.091C368.075 149.507 367.994 149 367.833 148.57C367.671 148.139 367.436 147.807 367.129 147.572C366.823 147.338 366.45 147.221 366.011 147.221C365.563 147.221 365.186 147.342 364.879 147.585C364.573 147.828 364.34 148.165 364.183 148.595C364.025 149.026 363.946 149.524 363.946 150.091C363.946 150.662 364.025 151.167 364.183 151.606C364.345 152.04 364.577 152.381 364.879 152.629C365.186 152.871 365.563 152.993 366.011 152.993ZM379.091 148.544V150.705H373.12V148.544H379.091ZM386.633 145.182V147.227H380.721V145.182H386.633ZM382.063 142.83H384.786V151.983C384.786 152.234 384.824 152.43 384.901 152.571C384.978 152.707 385.084 152.803 385.221 152.859C385.361 152.914 385.523 152.942 385.706 152.942C385.834 152.942 385.962 152.931 386.09 152.91C386.218 152.884 386.316 152.865 386.384 152.852L386.812 154.879C386.676 154.921 386.484 154.97 386.237 155.026C385.99 155.085 385.689 155.121 385.336 155.134C384.679 155.16 384.104 155.072 383.61 154.872C383.12 154.672 382.738 154.361 382.466 153.939C382.193 153.517 382.059 152.984 382.063 152.341V142.83ZM391.207 155.185C390.58 155.185 390.022 155.077 389.532 154.859C389.042 154.638 388.654 154.312 388.369 153.881C388.087 153.447 387.947 152.906 387.947 152.258C387.947 151.712 388.047 151.254 388.247 150.884C388.447 150.513 388.72 150.214 389.065 149.989C389.411 149.763 389.803 149.592 390.241 149.477C390.685 149.362 391.149 149.281 391.635 149.234C392.206 149.175 392.666 149.119 393.016 149.068C393.365 149.013 393.619 148.932 393.776 148.825C393.934 148.719 394.013 148.561 394.013 148.352V148.314C394.013 147.909 393.885 147.596 393.629 147.374C393.378 147.153 393.02 147.042 392.555 147.042C392.065 147.042 391.675 147.151 391.386 147.368C391.096 147.581 390.904 147.849 390.81 148.173L388.292 147.969C388.42 147.372 388.671 146.857 389.046 146.422C389.421 145.983 389.905 145.646 390.497 145.412C391.094 145.173 391.784 145.054 392.568 145.054C393.114 145.054 393.636 145.118 394.134 145.246C394.637 145.374 395.082 145.572 395.47 145.84C395.862 146.109 396.171 146.454 396.397 146.876C396.623 147.293 396.736 147.794 396.736 148.378V155H394.153V153.638H394.077C393.919 153.945 393.708 154.216 393.444 154.45C393.18 154.68 392.862 154.862 392.491 154.994C392.121 155.121 391.692 155.185 391.207 155.185ZM391.987 153.306C392.387 153.306 392.741 153.227 393.048 153.07C393.354 152.908 393.595 152.69 393.77 152.418C393.945 152.145 394.032 151.836 394.032 151.491V150.449C393.947 150.504 393.83 150.555 393.68 150.602C393.536 150.645 393.371 150.685 393.188 150.724C393.005 150.758 392.822 150.79 392.638 150.82C392.455 150.845 392.289 150.869 392.14 150.89C391.82 150.937 391.541 151.011 391.303 151.114C391.064 151.216 390.879 151.354 390.746 151.529C390.614 151.7 390.548 151.913 390.548 152.168C390.548 152.539 390.683 152.822 390.951 153.018C391.224 153.21 391.569 153.306 391.987 153.306ZM398.9 155V141.909H401.623V146.831H401.706C401.825 146.567 401.998 146.298 402.223 146.026C402.453 145.749 402.752 145.518 403.118 145.335C403.489 145.148 403.949 145.054 404.499 145.054C405.215 145.054 405.875 145.241 406.48 145.616C407.086 145.987 407.569 146.548 407.931 147.298C408.294 148.043 408.475 148.979 408.475 150.104C408.475 151.199 408.298 152.124 407.944 152.878C407.595 153.628 407.118 154.197 406.512 154.585C405.912 154.968 405.238 155.16 404.493 155.16C403.964 155.16 403.515 155.072 403.144 154.898C402.777 154.723 402.477 154.504 402.243 154.239C402.008 153.971 401.829 153.7 401.706 153.428H401.584V155H398.9ZM401.565 150.091C401.565 150.675 401.646 151.184 401.808 151.619C401.97 152.053 402.204 152.392 402.511 152.635C402.818 152.874 403.191 152.993 403.63 152.993C404.073 152.993 404.448 152.871 404.755 152.629C405.061 152.381 405.294 152.04 405.451 151.606C405.613 151.167 405.694 150.662 405.694 150.091C405.694 149.524 405.615 149.026 405.458 148.595C405.3 148.165 405.068 147.828 404.761 147.585C404.454 147.342 404.077 147.221 403.63 147.221C403.186 147.221 402.811 147.338 402.505 147.572C402.202 147.807 401.97 148.139 401.808 148.57C401.646 149 401.565 149.507 401.565 150.091ZM413.015 141.909V155H410.292V141.909H413.015ZM419.67 155.192C418.661 155.192 417.791 154.987 417.062 154.578C416.338 154.165 415.78 153.581 415.388 152.827C414.996 152.068 414.8 151.171 414.8 150.136C414.8 149.126 414.996 148.239 415.388 147.477C415.78 146.714 416.332 146.119 417.043 145.693C417.759 145.267 418.599 145.054 419.562 145.054C420.21 145.054 420.813 145.158 421.371 145.367C421.933 145.572 422.423 145.881 422.841 146.294C423.263 146.707 423.591 147.227 423.825 147.854C424.06 148.476 424.177 149.205 424.177 150.04V150.788H415.886V149.1H421.614C421.614 148.708 421.528 148.361 421.358 148.058C421.188 147.756 420.951 147.519 420.648 147.349C420.35 147.174 420.003 147.087 419.607 147.087C419.193 147.087 418.827 147.183 418.507 147.374C418.192 147.562 417.945 147.815 417.766 148.135C417.587 148.45 417.495 148.802 417.491 149.19V150.794C417.491 151.28 417.58 151.7 417.759 152.053C417.942 152.407 418.2 152.68 418.533 152.871C418.865 153.063 419.259 153.159 419.715 153.159C420.018 153.159 420.295 153.116 420.546 153.031C420.798 152.946 421.013 152.818 421.192 152.648C421.371 152.477 421.507 152.268 421.601 152.021L424.119 152.188C423.991 152.793 423.729 153.321 423.333 153.773C422.941 154.22 422.434 154.57 421.812 154.821C421.194 155.068 420.48 155.192 419.67 155.192ZM432.071 148.544V150.705H426.101V148.544H432.071ZM437.114 149.324V155H434.391V145.182H436.987V146.914H437.102C437.319 146.343 437.683 145.891 438.195 145.559C438.706 145.222 439.326 145.054 440.055 145.054C440.737 145.054 441.331 145.203 441.838 145.501C442.345 145.8 442.739 146.226 443.021 146.78C443.302 147.33 443.442 147.986 443.442 148.749V155H440.719V149.234C440.724 148.634 440.57 148.165 440.259 147.828C439.948 147.487 439.52 147.317 438.974 147.317C438.608 147.317 438.284 147.396 438.003 147.553C437.726 147.711 437.509 147.941 437.351 148.244C437.197 148.542 437.119 148.902 437.114 149.324ZM448.388 155.185C447.762 155.185 447.204 155.077 446.714 154.859C446.224 154.638 445.836 154.312 445.55 153.881C445.269 153.447 445.128 152.906 445.128 152.258C445.128 151.712 445.229 151.254 445.429 150.884C445.629 150.513 445.902 150.214 446.247 149.989C446.592 149.763 446.984 149.592 447.423 149.477C447.866 149.362 448.331 149.281 448.817 149.234C449.388 149.175 449.848 149.119 450.197 149.068C450.547 149.013 450.8 148.932 450.958 148.825C451.116 148.719 451.194 148.561 451.194 148.352V148.314C451.194 147.909 451.067 147.596 450.811 147.374C450.559 147.153 450.202 147.042 449.737 147.042C449.247 147.042 448.857 147.151 448.567 147.368C448.278 147.581 448.086 147.849 447.992 148.173L445.474 147.969C445.601 147.372 445.853 146.857 446.228 146.422C446.603 145.983 447.086 145.646 447.679 145.412C448.275 145.173 448.966 145.054 449.75 145.054C450.295 145.054 450.817 145.118 451.316 145.246C451.819 145.374 452.264 145.572 452.652 145.84C453.044 146.109 453.353 146.454 453.579 146.876C453.805 147.293 453.917 147.794 453.917 148.378V155H451.335V153.638H451.258C451.101 153.945 450.89 154.216 450.626 154.45C450.361 154.68 450.044 154.862 449.673 154.994C449.302 155.121 448.874 155.185 448.388 155.185ZM449.168 153.306C449.569 153.306 449.922 153.227 450.229 153.07C450.536 152.908 450.777 152.69 450.952 152.418C451.126 152.145 451.214 151.836 451.214 151.491V150.449C451.128 150.504 451.011 150.555 450.862 150.602C450.717 150.645 450.553 150.685 450.37 150.724C450.187 150.758 450.003 150.79 449.82 150.82C449.637 150.845 449.471 150.869 449.322 150.89C449.002 150.937 448.723 151.011 448.484 151.114C448.246 151.216 448.06 151.354 447.928 151.529C447.796 151.7 447.73 151.913 447.73 152.168C447.73 152.539 447.864 152.822 448.133 153.018C448.405 153.21 448.751 153.306 449.168 153.306ZM456.03 155V145.182H458.625V146.914H458.74C458.945 146.339 459.286 145.885 459.763 145.553C460.24 145.22 460.811 145.054 461.476 145.054C462.149 145.054 462.722 145.222 463.195 145.559C463.669 145.891 463.984 146.343 464.142 146.914H464.244C464.444 146.352 464.806 145.902 465.33 145.565C465.859 145.224 466.483 145.054 467.203 145.054C468.119 145.054 468.863 145.346 469.434 145.93C470.009 146.509 470.297 147.332 470.297 148.397V155H467.58V148.934C467.58 148.388 467.436 147.979 467.146 147.707C466.856 147.434 466.494 147.298 466.059 147.298C465.565 147.298 465.179 147.455 464.902 147.771C464.625 148.082 464.487 148.493 464.487 149.004V155H461.847V148.876C461.847 148.395 461.708 148.011 461.431 147.726C461.159 147.44 460.798 147.298 460.351 147.298C460.048 147.298 459.776 147.374 459.533 147.528C459.294 147.677 459.105 147.888 458.964 148.161C458.823 148.429 458.753 148.744 458.753 149.107V155H456.03ZM476.922 155.192C475.912 155.192 475.043 154.987 474.314 154.578C473.59 154.165 473.032 153.581 472.64 152.827C472.248 152.068 472.052 151.171 472.052 150.136C472.052 149.126 472.248 148.239 472.64 147.477C473.032 146.714 473.584 146.119 474.295 145.693C475.011 145.267 475.851 145.054 476.814 145.054C477.461 145.054 478.064 145.158 478.623 145.367C479.185 145.572 479.675 145.881 480.093 146.294C480.515 146.707 480.843 147.227 481.077 147.854C481.312 148.476 481.429 149.205 481.429 150.04V150.788H473.138V149.1H478.866C478.866 148.708 478.78 148.361 478.61 148.058C478.439 147.756 478.203 147.519 477.9 147.349C477.602 147.174 477.255 147.087 476.858 147.087C476.445 147.087 476.079 147.183 475.759 147.374C475.444 147.562 475.197 147.815 475.018 148.135C474.839 148.45 474.747 148.802 474.743 149.19V150.794C474.743 151.28 474.832 151.7 475.011 152.053C475.194 152.407 475.452 152.68 475.785 152.871C476.117 153.063 476.511 153.159 476.967 153.159C477.27 153.159 477.547 153.116 477.798 153.031C478.05 152.946 478.265 152.818 478.444 152.648C478.623 152.477 478.759 152.268 478.853 152.021L481.371 152.188C481.243 152.793 480.981 153.321 480.585 153.773C480.193 154.22 479.686 154.57 479.064 154.821C478.446 155.068 477.732 155.192 476.922 155.192Z" fill="black"/>
<rect x="290.5" y="132.5" width="200" height="32" stroke="black"/>
<path d="M337.087 218V208.182H339.727V209.895H339.829C340.008 209.286 340.308 208.825 340.73 208.514C341.152 208.199 341.638 208.041 342.188 208.041C342.324 208.041 342.471 208.05 342.629 208.067C342.786 208.084 342.925 208.107 343.044 208.137V210.553C342.916 210.515 342.739 210.481 342.513 210.451C342.288 210.421 342.081 210.406 341.893 210.406C341.493 210.406 341.135 210.494 340.82 210.668C340.509 210.839 340.261 211.077 340.078 211.384C339.899 211.691 339.81 212.045 339.81 212.445V218H337.087ZM348.469 218.192C347.459 218.192 346.59 217.987 345.861 217.578C345.137 217.165 344.579 216.581 344.187 215.827C343.795 215.068 343.599 214.171 343.599 213.136C343.599 212.126 343.795 211.239 344.187 210.477C344.579 209.714 345.131 209.119 345.842 208.693C346.558 208.267 347.398 208.054 348.361 208.054C349.008 208.054 349.611 208.158 350.17 208.367C350.732 208.572 351.222 208.881 351.64 209.294C352.062 209.707 352.39 210.227 352.624 210.854C352.858 211.476 352.976 212.205 352.976 213.04V213.788H344.685V212.1H350.412C350.412 211.708 350.327 211.361 350.157 211.058C349.986 210.756 349.75 210.519 349.447 210.349C349.149 210.174 348.802 210.087 348.405 210.087C347.992 210.087 347.626 210.183 347.306 210.374C346.991 210.562 346.743 210.815 346.564 211.135C346.385 211.45 346.294 211.802 346.29 212.19V213.794C346.29 214.28 346.379 214.7 346.558 215.053C346.741 215.407 346.999 215.68 347.331 215.871C347.664 216.063 348.058 216.159 348.514 216.159C348.817 216.159 349.094 216.116 349.345 216.031C349.596 215.946 349.812 215.818 349.991 215.648C350.17 215.477 350.306 215.268 350.4 215.021L352.918 215.188C352.79 215.793 352.528 216.321 352.132 216.773C351.74 217.22 351.233 217.57 350.611 217.821C349.993 218.068 349.279 218.192 348.469 218.192ZM359.975 208.182V210.227H354.062V208.182H359.975ZM355.405 205.83H358.128V214.983C358.128 215.234 358.166 215.43 358.243 215.571C358.319 215.707 358.426 215.803 358.562 215.859C358.703 215.914 358.865 215.942 359.048 215.942C359.176 215.942 359.304 215.931 359.432 215.91C359.559 215.884 359.657 215.865 359.726 215.852L360.154 217.879C360.018 217.921 359.826 217.97 359.579 218.026C359.331 218.085 359.031 218.121 358.677 218.134C358.021 218.16 357.446 218.072 356.952 217.872C356.461 217.672 356.08 217.361 355.807 216.939C355.535 216.517 355.4 215.984 355.405 215.341V205.83ZM368.045 213.82V208.182H370.768V218H368.154V216.217H368.051C367.83 216.792 367.461 217.254 366.945 217.604C366.434 217.953 365.81 218.128 365.073 218.128C364.416 218.128 363.839 217.979 363.34 217.68C362.842 217.382 362.452 216.958 362.171 216.408C361.894 215.859 361.753 215.2 361.749 214.433V208.182H364.472V213.947C364.476 214.527 364.632 214.985 364.938 215.322C365.245 215.658 365.656 215.827 366.172 215.827C366.5 215.827 366.807 215.752 367.093 215.603C367.378 215.45 367.608 215.224 367.783 214.925C367.962 214.627 368.049 214.259 368.045 213.82ZM372.946 218V208.182H375.586V209.895H375.688C375.867 209.286 376.168 208.825 376.589 208.514C377.011 208.199 377.497 208.041 378.047 208.041C378.183 208.041 378.33 208.05 378.488 208.067C378.646 208.084 378.784 208.107 378.903 208.137V210.553C378.776 210.515 378.599 210.481 378.373 210.451C378.147 210.421 377.94 210.406 377.753 210.406C377.352 210.406 376.994 210.494 376.679 210.668C376.368 210.839 376.121 211.077 375.938 211.384C375.759 211.691 375.669 212.045 375.669 212.445V218H372.946ZM383.034 212.324V218H380.311V208.182H382.906V209.914H383.021C383.239 209.343 383.603 208.891 384.115 208.559C384.626 208.222 385.246 208.054 385.975 208.054C386.656 208.054 387.251 208.203 387.758 208.501C388.265 208.8 388.659 209.226 388.941 209.78C389.222 210.33 389.362 210.986 389.362 211.749V218H386.639V212.234C386.644 211.634 386.49 211.165 386.179 210.828C385.868 210.487 385.44 210.317 384.894 210.317C384.528 210.317 384.204 210.396 383.923 210.553C383.646 210.711 383.428 210.941 383.271 211.244C383.117 211.542 383.039 211.902 383.034 212.324ZM391.509 218V208.182H394.232V218H391.509ZM392.876 206.916C392.472 206.916 392.124 206.782 391.835 206.513C391.549 206.241 391.406 205.915 391.406 205.536C391.406 205.161 391.549 204.839 391.835 204.57C392.124 204.298 392.472 204.161 392.876 204.161C393.281 204.161 393.626 204.298 393.912 204.57C394.202 204.839 394.347 205.161 394.347 205.536C394.347 205.915 394.202 206.241 393.912 206.513C393.626 206.782 393.281 206.916 392.876 206.916ZM399.136 212.324V218H396.413V208.182H399.008V209.914H399.123C399.34 209.343 399.705 208.891 400.216 208.559C400.727 208.222 401.347 208.054 402.076 208.054C402.758 208.054 403.352 208.203 403.86 208.501C404.367 208.8 404.761 209.226 405.042 209.78C405.323 210.33 405.464 210.986 405.464 211.749V218H402.741V212.234C402.745 211.634 402.592 211.165 402.281 210.828C401.97 210.487 401.541 210.317 400.996 210.317C400.629 210.317 400.306 210.396 400.024 210.553C399.747 210.711 399.53 210.941 399.372 211.244C399.219 211.542 399.14 211.902 399.136 212.324ZM412.033 221.886C411.151 221.886 410.395 221.765 409.764 221.522C409.138 221.283 408.639 220.957 408.268 220.544C407.898 220.131 407.657 219.666 407.546 219.151L410.065 218.812C410.141 219.008 410.263 219.191 410.429 219.362C410.595 219.532 410.815 219.668 411.087 219.771C411.364 219.877 411.701 219.93 412.097 219.93C412.69 219.93 413.178 219.786 413.561 219.496C413.949 219.21 414.143 218.731 414.143 218.058V216.261H414.028C413.908 216.534 413.729 216.792 413.491 217.035C413.252 217.278 412.945 217.476 412.57 217.629C412.195 217.783 411.748 217.859 411.228 217.859C410.491 217.859 409.82 217.689 409.214 217.348C408.614 217.003 408.134 216.477 407.776 215.769C407.423 215.058 407.246 214.158 407.246 213.072C407.246 211.96 407.427 211.031 407.789 210.285C408.151 209.539 408.633 208.981 409.234 208.61C409.839 208.239 410.501 208.054 411.222 208.054C411.771 208.054 412.232 208.148 412.602 208.335C412.973 208.518 413.271 208.749 413.497 209.026C413.727 209.298 413.904 209.567 414.028 209.831H414.13V208.182H416.834V218.096C416.834 218.931 416.629 219.63 416.22 220.192C415.811 220.755 415.244 221.177 414.52 221.458C413.8 221.744 412.971 221.886 412.033 221.886ZM412.091 215.814C412.53 215.814 412.901 215.705 413.203 215.488C413.51 215.266 413.744 214.951 413.906 214.542C414.072 214.129 414.156 213.634 414.156 213.059C414.156 212.484 414.075 211.985 413.913 211.563C413.751 211.137 413.516 210.807 413.21 210.572C412.903 210.338 412.53 210.221 412.091 210.221C411.643 210.221 411.266 210.342 410.96 210.585C410.653 210.824 410.42 211.156 410.263 211.582C410.105 212.009 410.026 212.501 410.026 213.059C410.026 213.626 410.105 214.116 410.263 214.529C410.425 214.938 410.657 215.256 410.96 215.482C411.266 215.703 411.643 215.814 412.091 215.814ZM425.118 211.544V213.705H419.148V211.544H425.118ZM431.874 218.192C430.869 218.192 430.004 217.979 429.279 217.553C428.559 217.122 428.005 216.526 427.617 215.763C427.234 215 427.042 214.122 427.042 213.129C427.042 212.124 427.236 211.241 427.624 210.483C428.016 209.72 428.572 209.126 429.292 208.7C430.012 208.269 430.869 208.054 431.862 208.054C432.718 208.054 433.468 208.21 434.112 208.521C434.755 208.832 435.264 209.268 435.639 209.831C436.014 210.393 436.221 211.054 436.259 211.812H433.69C433.617 211.322 433.425 210.928 433.114 210.63C432.808 210.327 432.405 210.176 431.906 210.176C431.484 210.176 431.116 210.291 430.8 210.521C430.489 210.747 430.246 211.077 430.072 211.512C429.897 211.947 429.81 212.473 429.81 213.091C429.81 213.717 429.895 214.25 430.065 214.689C430.24 215.128 430.485 215.462 430.8 215.692C431.116 215.923 431.484 216.038 431.906 216.038C432.217 216.038 432.496 215.974 432.744 215.846C432.995 215.718 433.202 215.533 433.364 215.29C433.53 215.043 433.638 214.746 433.69 214.401H436.259C436.217 215.151 436.012 215.812 435.646 216.383C435.283 216.95 434.783 217.393 434.143 217.712C433.504 218.032 432.748 218.192 431.874 218.192ZM440.726 204.909V218H438.003V204.909H440.726ZM445.707 218.185C445.08 218.185 444.522 218.077 444.032 217.859C443.542 217.638 443.154 217.312 442.869 216.881C442.587 216.447 442.447 215.906 442.447 215.258C442.447 214.712 442.547 214.254 442.747 213.884C442.947 213.513 443.22 213.214 443.565 212.989C443.911 212.763 444.303 212.592 444.741 212.477C445.185 212.362 445.649 212.281 446.135 212.234C446.706 212.175 447.166 212.119 447.516 212.068C447.865 212.013 448.119 211.932 448.276 211.825C448.434 211.719 448.513 211.561 448.513 211.352V211.314C448.513 210.909 448.385 210.596 448.129 210.374C447.878 210.153 447.52 210.042 447.055 210.042C446.565 210.042 446.175 210.151 445.886 210.368C445.596 210.581 445.404 210.849 445.31 211.173L442.792 210.969C442.92 210.372 443.171 209.857 443.546 209.422C443.921 208.983 444.405 208.646 444.997 208.412C445.594 208.173 446.284 208.054 447.068 208.054C447.614 208.054 448.136 208.118 448.634 208.246C449.137 208.374 449.582 208.572 449.97 208.84C450.362 209.109 450.671 209.454 450.897 209.876C451.123 210.293 451.236 210.794 451.236 211.378V218H448.653V216.638H448.577C448.419 216.945 448.208 217.216 447.944 217.45C447.68 217.68 447.362 217.862 446.991 217.994C446.621 218.121 446.192 218.185 445.707 218.185ZM446.487 216.306C446.887 216.306 447.241 216.227 447.548 216.07C447.854 215.908 448.095 215.69 448.27 215.418C448.445 215.145 448.532 214.836 448.532 214.491V213.449C448.447 213.504 448.33 213.555 448.18 213.602C448.036 213.645 447.871 213.685 447.688 213.724C447.505 213.758 447.322 213.79 447.138 213.82C446.955 213.845 446.789 213.869 446.64 213.89C446.32 213.937 446.041 214.011 445.803 214.114C445.564 214.216 445.379 214.354 445.246 214.529C445.114 214.7 445.048 214.913 445.048 215.168C445.048 215.539 445.183 215.822 445.451 216.018C445.724 216.21 446.069 216.306 446.487 216.306ZM459.645 213.82V208.182H462.368V218H459.753V216.217H459.651C459.429 216.792 459.061 217.254 458.545 217.604C458.034 217.953 457.409 218.128 456.672 218.128C456.016 218.128 455.439 217.979 454.94 217.68C454.441 217.382 454.051 216.958 453.77 216.408C453.493 215.859 453.353 215.2 453.348 214.433V208.182H456.071V213.947C456.076 214.527 456.231 214.985 456.538 215.322C456.845 215.658 457.256 215.827 457.772 215.827C458.1 215.827 458.407 215.752 458.692 215.603C458.978 215.45 459.208 215.224 459.382 214.925C459.561 214.627 459.649 214.259 459.645 213.82ZM472.715 210.982L470.222 211.135C470.179 210.922 470.088 210.73 469.947 210.56C469.806 210.385 469.621 210.246 469.391 210.144C469.165 210.038 468.894 209.984 468.579 209.984C468.157 209.984 467.801 210.074 467.512 210.253C467.222 210.428 467.077 210.662 467.077 210.956C467.077 211.19 467.171 211.388 467.358 211.55C467.546 211.712 467.867 211.842 468.323 211.94L470.1 212.298C471.055 212.494 471.767 212.81 472.235 213.244C472.704 213.679 472.938 214.25 472.938 214.957C472.938 215.601 472.749 216.165 472.369 216.651C471.994 217.137 471.479 217.516 470.823 217.789C470.171 218.058 469.419 218.192 468.566 218.192C467.267 218.192 466.231 217.921 465.46 217.38C464.693 216.835 464.243 216.093 464.111 215.156L466.789 215.015C466.87 215.411 467.066 215.714 467.377 215.923C467.688 216.127 468.087 216.229 468.573 216.229C469.05 216.229 469.433 216.138 469.723 215.955C470.017 215.767 470.166 215.526 470.171 215.232C470.166 214.985 470.062 214.783 469.857 214.625C469.653 214.463 469.338 214.339 468.911 214.254L467.211 213.915C466.252 213.724 465.539 213.391 465.07 212.918C464.605 212.445 464.373 211.842 464.373 211.109C464.373 210.479 464.544 209.935 464.884 209.479C465.23 209.023 465.713 208.672 466.335 208.425C466.962 208.178 467.695 208.054 468.534 208.054C469.774 208.054 470.75 208.316 471.462 208.84C472.178 209.364 472.595 210.078 472.715 210.982ZM479.127 218.192C478.118 218.192 477.248 217.987 476.52 217.578C475.795 217.165 475.237 216.581 474.845 215.827C474.453 215.068 474.257 214.171 474.257 213.136C474.257 212.126 474.453 211.239 474.845 210.477C475.237 209.714 475.789 209.119 476.5 208.693C477.216 208.267 478.056 208.054 479.019 208.054C479.667 208.054 480.27 208.158 480.828 208.367C481.39 208.572 481.88 208.881 482.298 209.294C482.72 209.707 483.048 210.227 483.282 210.854C483.517 211.476 483.634 212.205 483.634 213.04V213.788H475.343V212.1H481.071C481.071 211.708 480.985 211.361 480.815 211.058C480.645 210.756 480.408 210.519 480.105 210.349C479.807 210.174 479.46 210.087 479.064 210.087C478.65 210.087 478.284 210.183 477.964 210.374C477.649 210.562 477.402 210.815 477.223 211.135C477.044 211.45 476.952 211.802 476.948 212.19V213.794C476.948 214.28 477.037 214.7 477.216 215.053C477.4 215.407 477.657 215.68 477.99 215.871C478.322 216.063 478.716 216.159 479.172 216.159C479.475 216.159 479.752 216.116 480.003 216.031C480.255 215.946 480.47 215.818 480.649 215.648C480.828 215.477 480.964 215.268 481.058 215.021L483.576 215.188C483.449 215.793 483.186 216.321 482.79 216.773C482.398 217.22 481.891 217.57 481.269 217.821C480.651 218.068 479.937 218.192 479.127 218.192Z" fill="black"/>
<rect x="331.5" y="195.5" width="159" height="32" stroke="black"/>
<path d="M178.561 218.192C177.551 218.192 176.682 217.987 175.953 217.578C175.229 217.165 174.67 216.581 174.278 215.827C173.886 215.068 173.69 214.171 173.69 213.136C173.69 212.126 173.886 211.239 174.278 210.477C174.67 209.714 175.222 209.119 175.934 208.693C176.65 208.267 177.489 208.054 178.452 208.054C179.1 208.054 179.703 208.158 180.261 208.367C180.824 208.572 181.314 208.881 181.732 209.294C182.153 209.707 182.482 210.227 182.716 210.854C182.95 211.476 183.067 212.205 183.067 213.04V213.788H174.777V212.1H180.504C180.504 211.708 180.419 211.361 180.249 211.058C180.078 210.756 179.842 210.519 179.539 210.349C179.241 210.174 178.893 210.087 178.497 210.087C178.084 210.087 177.717 210.183 177.398 210.374C177.082 210.562 176.835 210.815 176.656 211.135C176.477 211.45 176.386 211.802 176.381 212.19V213.794C176.381 214.28 176.471 214.7 176.65 215.053C176.833 215.407 177.091 215.68 177.423 215.871C177.756 216.063 178.15 216.159 178.606 216.159C178.908 216.159 179.185 216.116 179.437 216.031C179.688 215.946 179.903 215.818 180.082 215.648C180.261 215.477 180.398 215.268 180.491 215.021L183.01 215.188C182.882 215.793 182.62 216.321 182.224 216.773C181.832 217.22 181.325 217.57 180.702 217.821C180.085 218.068 179.371 218.192 178.561 218.192ZM186.944 208.182L188.747 211.614L190.594 208.182H193.387L190.543 213.091L193.464 218H190.684L188.747 214.606L186.842 218H184.029L186.944 213.091L184.132 208.182H186.944ZM195.005 221.682V208.182H197.689V209.831H197.811C197.93 209.567 198.103 209.298 198.328 209.026C198.559 208.749 198.857 208.518 199.223 208.335C199.594 208.148 200.054 208.054 200.604 208.054C201.32 208.054 201.98 208.241 202.586 208.616C203.191 208.987 203.674 209.548 204.037 210.298C204.399 211.043 204.58 211.979 204.58 213.104C204.58 214.199 204.403 215.124 204.049 215.878C203.7 216.628 203.223 217.197 202.618 217.585C202.017 217.968 201.343 218.16 200.598 218.16C200.069 218.16 199.62 218.072 199.249 217.898C198.882 217.723 198.582 217.504 198.348 217.239C198.113 216.971 197.934 216.7 197.811 216.428H197.728V221.682H195.005ZM197.67 213.091C197.67 213.675 197.751 214.184 197.913 214.619C198.075 215.053 198.309 215.392 198.616 215.635C198.923 215.874 199.296 215.993 199.735 215.993C200.178 215.993 200.553 215.871 200.86 215.629C201.167 215.381 201.399 215.04 201.556 214.606C201.718 214.167 201.799 213.662 201.799 213.091C201.799 212.524 201.721 212.026 201.563 211.595C201.405 211.165 201.173 210.828 200.866 210.585C200.559 210.342 200.182 210.221 199.735 210.221C199.292 210.221 198.917 210.338 198.61 210.572C198.307 210.807 198.075 211.139 197.913 211.57C197.751 212 197.67 212.507 197.67 213.091ZM206.395 218V208.182H209.035V209.895H209.137C209.316 209.286 209.617 208.825 210.039 208.514C210.461 208.199 210.946 208.041 211.496 208.041C211.632 208.041 211.779 208.05 211.937 208.067C212.095 208.084 212.233 208.107 212.353 208.137V210.553C212.225 210.515 212.048 210.481 211.822 210.451C211.596 210.421 211.39 210.406 211.202 210.406C210.801 210.406 210.444 210.494 210.128 210.668C209.817 210.839 209.57 211.077 209.387 211.384C209.208 211.691 209.118 212.045 209.118 212.445V218H206.395Z" fill="black"/>
<rect x="168.5" y="195.5" width="51" height="32" stroke="black"/>
<path d="M188.138 155V141.909H196.805V144.191H190.906V147.31H196.23V149.592H190.906V155H188.138ZM198.667 155V141.909H203.832C204.82 141.909 205.664 142.086 206.363 142.44C207.066 142.789 207.601 143.286 207.968 143.929C208.338 144.568 208.524 145.32 208.524 146.185C208.524 147.055 208.336 147.803 207.961 148.429C207.586 149.051 207.043 149.528 206.331 149.861C205.624 150.193 204.767 150.359 203.762 150.359H200.303V148.135H203.314C203.843 148.135 204.281 148.062 204.631 147.918C204.98 147.773 205.24 147.555 205.411 147.266C205.585 146.976 205.673 146.616 205.673 146.185C205.673 145.751 205.585 145.384 205.411 145.086C205.24 144.788 204.978 144.562 204.624 144.408C204.275 144.251 203.834 144.172 203.301 144.172H201.435V155H198.667ZM205.737 149.043L208.99 155H205.935L202.752 149.043H205.737ZM222.509 148.455C222.509 149.882 222.239 151.097 221.698 152.098C221.161 153.099 220.428 153.864 219.499 154.393C218.574 154.917 217.534 155.179 216.379 155.179C215.216 155.179 214.172 154.915 213.247 154.386C212.323 153.858 211.592 153.093 211.055 152.092C210.518 151.09 210.249 149.878 210.249 148.455C210.249 147.027 210.518 145.812 211.055 144.811C211.592 143.81 212.323 143.047 213.247 142.523C214.172 141.994 215.216 141.73 216.379 141.73C217.534 141.73 218.574 141.994 219.499 142.523C220.428 143.047 221.161 143.81 221.698 144.811C222.239 145.812 222.509 147.027 222.509 148.455ZM219.703 148.455C219.703 147.53 219.565 146.75 219.288 146.115C219.015 145.48 218.629 144.999 218.131 144.67C217.632 144.342 217.048 144.178 216.379 144.178C215.71 144.178 215.127 144.342 214.628 144.67C214.129 144.999 213.742 145.48 213.465 146.115C213.192 146.75 213.056 147.53 213.056 148.455C213.056 149.379 213.192 150.159 213.465 150.794C213.742 151.429 214.129 151.911 214.628 152.239C215.127 152.567 215.71 152.731 216.379 152.731C217.048 152.731 217.632 152.567 218.131 152.239C218.629 151.911 219.015 151.429 219.288 150.794C219.565 150.159 219.703 149.379 219.703 148.455ZM224.56 141.909H227.973L231.578 150.705H231.732L235.337 141.909H238.75V155H236.065V146.479H235.957L232.569 154.936H230.741L227.353 146.447H227.244V155H224.56V141.909Z" fill="black"/>
<rect x="173.5" y="132.5" width="80" height="32" rx="16" stroke="black"/>
<path d="M413.046 85.2102L412.976 85.9134C412.92 86.4759 412.814 87.0362 412.656 87.5945C412.503 88.157 412.341 88.6662 412.17 89.1222C412.004 89.5781 411.87 89.9361 411.768 90.196H410.004C410.067 89.9446 410.155 89.593 410.266 89.1413C410.376 88.6939 410.481 88.1911 410.579 87.6328C410.677 87.0746 410.739 86.5057 410.764 85.9261L410.796 85.2102H413.046Z" fill="black"/>
<rect x="396.5" y="71.5" width="31" height="32" rx="15.5" stroke="black"/>
<path d="M67.7784 155H63.1378V141.909H67.8168C69.1335 141.909 70.267 142.171 71.2173 142.695C72.1676 143.215 72.8984 143.963 73.4098 144.939C73.9254 145.915 74.1832 147.082 74.1832 148.442C74.1832 149.805 73.9254 150.977 73.4098 151.957C72.8984 152.937 72.1634 153.69 71.2045 154.214C70.25 154.738 69.108 155 67.7784 155ZM65.9055 152.629H67.6634C68.4815 152.629 69.1697 152.484 69.728 152.194C70.2905 151.9 70.7124 151.446 70.9936 150.832C71.2791 150.214 71.4219 149.418 71.4219 148.442C71.4219 147.474 71.2791 146.684 70.9936 146.07C70.7124 145.457 70.2926 145.005 69.7344 144.715C69.1761 144.425 68.4879 144.281 67.6697 144.281H65.9055V152.629ZM76.2335 155V141.909H85.0545V144.191H79.0012V147.31H84.6007V149.592H79.0012V152.718H85.0801V155H76.2335ZM87.255 155V141.909H90.0227V152.718H95.6349V155H87.255ZM97.4679 155V141.909H106.289V144.191H100.236V147.31H105.835V149.592H100.236V152.718H106.314V155H97.4679ZM107.991 144.191V141.909H118.742V144.191H114.734V155H111.999V144.191H107.991ZM120.513 155V141.909H129.334V144.191H123.281V147.31H128.88V149.592H123.281V152.718H129.359V155H120.513Z" fill="black"/>
<rect x="51.5" y="132.5" width="87" height="32" rx="16" stroke="black"/>
<path d="M66.0845 218L62.3388 204.909H65.3622L67.5291 214.005H67.6378L70.0284 204.909H72.6172L75.0014 214.024H75.1165L77.2834 204.909H80.3068L76.5611 218H73.8636L71.3707 209.441H71.2685L68.782 218H66.0845ZM81.7882 218V204.909H84.5559V210.31H90.1745V204.909H92.9359V218H90.1745V212.592H84.5559V218H81.7882ZM95.2179 218V204.909H104.039V207.191H97.9856V210.31H103.585V212.592H97.9856V215.718H104.064V218H95.2179ZM106.239 218V204.909H111.404C112.393 204.909 113.237 205.086 113.935 205.44C114.638 205.789 115.173 206.286 115.54 206.929C115.911 207.568 116.096 208.32 116.096 209.185C116.096 210.055 115.908 210.803 115.533 211.429C115.158 212.051 114.615 212.528 113.903 212.861C113.196 213.193 112.339 213.359 111.334 213.359H107.876V211.135H110.886C111.415 211.135 111.854 211.062 112.203 210.918C112.553 210.773 112.813 210.555 112.983 210.266C113.158 209.976 113.245 209.616 113.245 209.185C113.245 208.751 113.158 208.384 112.983 208.086C112.813 207.788 112.55 207.562 112.197 207.408C111.847 207.251 111.406 207.172 110.874 207.172H109.007V218H106.239ZM113.309 212.043L116.562 218H113.507L110.324 212.043H113.309ZM118.052 218V204.909H126.873V207.191H120.82V210.31H126.419V212.592H120.82V215.718H126.898V218H118.052Z" fill="black"/>
<rect x="51.5" y="195.5" width="87" height="32" rx="16" stroke="black"/>
<path d="M51 49L41 43.2265V54.7735L51 49ZM8.5 50H42V48H8.5V50Z" fill="black"/>
<path d="M173 150L163 144.226V155.774L173 150ZM138 151H164V149H138V151Z" fill="black"/>
<path d="M168 211L158 205.226V216.774L168 211ZM138 212H159V210H138V212Z" fill="black"/>
<path d="M560 255.5L550 249.726V261.274L560 255.5ZM289.5 256.5L551 256.5V254.5L289.5 254.5V256.5Z" fill="black"/>
<path d="M331 212.5L321 206.726V218.274L331 212.5ZM272 256.5H293.5V254.5H272V256.5ZM304.5 245.5V222.5H302.5V245.5H304.5ZM313.5 213.5H322V211.5H313.5V213.5ZM304.5 222.5C304.5 217.529 308.529 213.5 313.5 213.5V211.5C307.425 211.5 302.5 216.425 302.5 222.5H304.5ZM293.5 256.5C299.575 256.5 304.5 251.575 304.5 245.5H302.5C302.5 250.471 298.471 254.5 293.5 254.5V256.5Z" fill="black"/>
<path d="M289 255.5L279 249.726V261.274L289 255.5ZM220 212H237.5V210H220V212ZM246.5 221V245.5H248.5V221H246.5ZM257.5 256.5H280V254.5H257.5V256.5ZM246.5 245.5C246.5 251.575 251.425 256.5 257.5 256.5V254.5C252.529 254.5 248.5 250.471 248.5 245.5H246.5ZM237.5 212C242.471 212 246.5 216.029 246.5 221H248.5C248.5 214.925 243.575 210 237.5 210V212Z" fill="black"/>
<path d="M560 255.5L550 249.726V261.274L560 255.5ZM491 212H508.5V210H491V212ZM517.5 221V245.5H519.5V221H517.5ZM528.5 256.5H551V254.5H528.5V256.5ZM517.5 245.5C517.5 251.575 522.425 256.5 528.5 256.5V254.5C523.529 254.5 519.5 250.471 519.5 245.5H517.5ZM508.5 212C513.471 212 517.5 216.029 517.5 221H519.5C519.5 214.925 514.575 210 508.5 210V212Z" fill="black"/>
<path d="M290 150L280 144.226L280 155.774L290 150ZM253 151L281 151L281 149L253 149L253 151Z" fill="black"/>
<path d="M39.5 181.5L39.5 180.5L39.5 181.5ZM29.5 191.5L30.5 191.5L30.5 191.5L29.5 191.5ZM29.4999 202.5L28.4999 202.5L28.4999 202.5L29.4999 202.5ZM39.4999 212.5L39.4999 213.5L39.4999 212.5ZM50.9999 212.5L41 206.726L40.9999 218.273L50.9999 212.5ZM300 180.5L39.5 180.5L39.5 182.5L300 182.5L300 180.5ZM28.5 191.5L28.4999 202.5L30.4999 202.5L30.5 191.5L28.5 191.5ZM39.4999 213.5L42 213.5L42 211.5L39.4999 211.5L39.4999 213.5ZM28.4999 202.5C28.4999 208.575 33.4248 213.5 39.4999 213.5L39.4999 211.5C34.5294 211.5 30.5 207.47 30.4999 202.5L28.4999 202.5ZM39.5 180.5C33.4248 180.5 28.4999 185.425 28.5 191.5L30.5 191.5C30.5 186.529 34.5294 182.5 39.5 182.5L39.5 180.5Z" fill="black"/>
<path d="M39.4999 181.5L39.4999 180.5L39.4999 181.5ZM29.4999 191.5L30.4999 191.5L30.4999 191.5L29.4999 191.5ZM29.4999 245.5L28.4999 245.5L29.4999 245.5ZM39.4999 255.5L39.4999 254.5L39.4999 255.5ZM289 255.5L279 249.727L279 261.274L289 255.5ZM300 180.5L39.4999 180.5L39.4999 182.5L300 182.5L300 180.5ZM28.4999 191.5L28.4999 245.5L30.4999 245.5L30.4999 191.5L28.4999 191.5ZM39.4999 256.5L280 256.5L280 254.5L39.4999 254.5L39.4999 256.5ZM28.4999 245.5C28.4999 251.575 33.4247 256.5 39.4999 256.5L39.4999 254.5C34.5293 254.5 30.4999 250.471 30.4999 245.5L28.4999 245.5ZM39.4999 180.5C33.4247 180.5 28.4999 185.425 28.4999 191.5L30.4999 191.5C30.4999 186.529 34.5293 182.5 39.4999 182.5L39.4999 180.5Z" fill="black"/>
<path d="M277.5 181.5L287.5 187.274V175.726L277.5 181.5ZM491 151H531V149H491V151ZM540 160V171.5H542V160H540ZM531 180.5H286.5V182.5H531V180.5ZM540 171.5C540 176.471 535.971 180.5 531 180.5V182.5C537.075 182.5 542 177.575 542 171.5H540ZM531 151C535.971 151 540 155.029 540 160H542C542 153.925 537.075 149 531 149V151Z" fill="black"/>
<path d="M51 150L41 144.226V155.774L51 150ZM8.5 50H19.75V48H8.5V50ZM28.75 59V140H30.75V59H28.75ZM39.75 151H42V149H39.75V151ZM28.75 140C28.75 146.075 33.6749 151 39.75 151V149C34.7794 149 30.75 144.971 30.75 140H28.75ZM19.75 50C24.7206 50 28.75 54.0294 28.75 59H30.75C30.75 52.9249 25.8251 48 19.75 48V50Z" fill="black"/>
<path d="M428.5 88L438.5 93.7735V82.2265L428.5 88ZM530 50H530.5V48H530V50ZM539.5 59V78H541.5V59H539.5ZM530.5 87H437.5V89H530.5V87ZM539.5 78C539.5 82.9706 535.471 87 530.5 87V89C536.575 89 541.5 84.0751 541.5 78H539.5ZM530.5 50C535.471 50 539.5 54.0294 539.5 59H541.5C541.5 52.9249 536.575 48 530.5 48V50Z" fill="black"/>
<path d="M224 115L234 120.774V109.226L224 115ZM530.5 50H531V48H530.5V50ZM540 59V105H542V59H540ZM531 114H233V116H531V114ZM540 105C540 109.971 535.971 114 531 114V116C537.075 116 542 111.075 542 105H540ZM531 50C535.971 50 540 54.0294 540 59H542C542 52.9249 537.075 48 531 48V50Z" fill="black"/>
<path d="M285 49L275 43.2265V54.7735L285 49ZM124 50H276V48H124V50Z" fill="black"/>
<path d="M29.7841 136L35.5576 126H24.0107L29.7841 136ZM256 114L39.7841 114V116L256 116V114ZM28.7841 125V127H30.7841V125H28.7841ZM39.7841 114C33.709 114 28.7841 118.925 28.7841 125H30.7841C30.7841 120.029 34.8136 116 39.7841 116V114Z" fill="black"/>
<path d="M248.5 88L248.5 89L248.5 88ZM248.5 49L248.5 48L248.5 49ZM285 49L275 43.2265L275 54.7735L285 49ZM396 87L248.5 87L248.5 89L396 89V87ZM239.5 78L239.5 59L237.5 59L237.5 78L239.5 78ZM248.5 50L276 50L276 48L248.5 48L248.5 50ZM239.5 59C239.5 54.0294 243.529 50 248.5 50L248.5 48C242.425 48 237.5 52.9249 237.5 59L239.5 59ZM248.5 87C243.529 87 239.5 82.9706 239.5 78L237.5 78C237.5 84.0751 242.425 89 248.5 89L248.5 87Z" fill="black"/>
</svg>
