<svg width="568" height="130" viewBox="0 0 568 130" fill="none" xmlns="http://www.w3.org/2000/svg">
<circle cx="4" cy="16" r="3.5" stroke="black"/>
<circle cx="564.001" cy="123" r="3.5" stroke="black"/>
<path d="M302.574 26.6818V21.4276H302.491C302.363 21.7003 302.182 21.9709 301.947 22.2393C301.717 22.5036 301.417 22.723 301.046 22.8977C300.68 23.0724 300.232 23.1598 299.704 23.1598C298.958 23.1598 298.283 22.968 297.678 22.5845C297.077 22.1967 296.599 21.6278 296.246 20.8778C295.896 20.1236 295.722 19.1989 295.722 18.1037C295.722 16.9787 295.903 16.0433 296.265 15.2976C296.627 14.5476 297.109 13.9872 297.709 13.6165C298.315 13.2415 298.977 13.054 299.697 13.054C300.247 13.054 300.705 13.1477 301.072 13.3352C301.442 13.5185 301.741 13.7486 301.967 14.0256C302.197 14.2983 302.371 14.5668 302.491 14.831H302.606V13.1818H305.29V26.6818H302.574ZM300.567 20.9929C301.006 20.9929 301.376 20.8736 301.679 20.6349C301.986 20.392 302.22 20.0533 302.382 19.6186C302.548 19.1839 302.631 18.6747 302.631 18.0909C302.631 17.5071 302.55 17 302.388 16.5696C302.227 16.1392 301.992 15.8068 301.685 15.5724C301.379 15.3381 301.006 15.2209 300.567 15.2209C300.119 15.2209 299.742 15.3423 299.435 15.5852C299.129 15.8281 298.896 16.1648 298.739 16.5952C298.581 17.0256 298.502 17.5241 298.502 18.0909C298.502 18.6619 298.581 19.1669 298.739 19.6058C298.901 20.0405 299.133 20.3814 299.435 20.6286C299.742 20.8714 300.119 20.9929 300.567 20.9929ZM313.773 18.8196V13.1818H316.496V23H313.881V21.2166H313.779C313.558 21.7919 313.189 22.2543 312.673 22.6037C312.162 22.9531 311.538 23.1278 310.8 23.1278C310.144 23.1278 309.567 22.9787 309.068 22.6804C308.57 22.3821 308.18 21.9581 307.898 21.4084C307.621 20.8587 307.481 20.2003 307.477 19.4332V13.1818H310.2V18.9474C310.204 19.527 310.359 19.9851 310.666 20.3217C310.973 20.6584 311.384 20.8267 311.9 20.8267C312.228 20.8267 312.535 20.7521 312.82 20.603C313.106 20.4496 313.336 20.2237 313.511 19.9254C313.69 19.6271 313.777 19.2585 313.773 18.8196ZM321.474 23.1854C320.847 23.1854 320.289 23.0767 319.799 22.8594C319.309 22.6378 318.921 22.3118 318.635 21.8814C318.354 21.4467 318.214 20.9055 318.214 20.2578C318.214 19.7124 318.314 19.2543 318.514 18.8835C318.714 18.5128 318.987 18.2145 319.332 17.9886C319.677 17.7628 320.069 17.5923 320.508 17.4773C320.952 17.3622 321.416 17.2812 321.902 17.2344C322.473 17.1747 322.933 17.1193 323.282 17.0682C323.632 17.0128 323.885 16.9318 324.043 16.8253C324.201 16.7187 324.28 16.5611 324.28 16.3523V16.3139C324.28 15.9091 324.152 15.5959 323.896 15.3743C323.645 15.1527 323.287 15.0419 322.822 15.0419C322.332 15.0419 321.942 15.1506 321.652 15.3679C321.363 15.581 321.171 15.8494 321.077 16.1733L318.559 15.9688C318.687 15.3722 318.938 14.8565 319.313 14.4219C319.688 13.983 320.172 13.6463 320.764 13.4119C321.361 13.1733 322.051 13.054 322.835 13.054C323.38 13.054 323.902 13.1179 324.401 13.2457C324.904 13.3736 325.349 13.5717 325.737 13.8402C326.129 14.1087 326.438 14.4538 326.664 14.8757C326.89 15.2933 327.003 15.794 327.003 16.3778V23H324.42V21.6385H324.344C324.186 21.9453 323.975 22.2159 323.711 22.4503C323.447 22.6804 323.129 22.8615 322.758 22.9936C322.388 23.1214 321.959 23.1854 321.474 23.1854ZM322.253 21.3061C322.654 21.3061 323.008 21.2273 323.314 21.0696C323.621 20.9077 323.862 20.6903 324.037 20.4176C324.211 20.1449 324.299 19.8359 324.299 19.4908V18.4489C324.214 18.5043 324.096 18.5554 323.947 18.6023C323.802 18.6449 323.638 18.6854 323.455 18.7237C323.272 18.7578 323.089 18.7898 322.905 18.8196C322.722 18.8452 322.556 18.8686 322.407 18.8899C322.087 18.9368 321.808 19.0114 321.569 19.1136C321.331 19.2159 321.145 19.3544 321.013 19.5291C320.881 19.6996 320.815 19.9126 320.815 20.1683C320.815 20.5391 320.949 20.8224 321.218 21.0185C321.491 21.2102 321.836 21.3061 322.253 21.3061ZM331.838 9.90909V23H329.115V9.90909H331.838ZM334.02 23V13.1818H336.743V23H334.02ZM335.387 11.9162C334.983 11.9162 334.635 11.782 334.346 11.5135C334.06 11.2408 333.917 10.9148 333.917 10.5355C333.917 10.1605 334.06 9.83878 334.346 9.57031C334.635 9.29758 334.983 9.16122 335.387 9.16122C335.792 9.16122 336.137 9.29758 336.423 9.57031C336.713 9.83878 336.858 10.1605 336.858 10.5355C336.858 10.9148 336.713 11.2408 336.423 11.5135C336.137 11.782 335.792 11.9162 335.387 11.9162ZM344.204 13.1818V15.2273H338.144V13.1818H344.204ZM339.531 23V12.4723C339.531 11.7607 339.67 11.1705 339.947 10.7017C340.228 10.233 340.611 9.88139 341.097 9.64702C341.583 9.41264 342.135 9.29545 342.753 9.29545C343.17 9.29545 343.552 9.32741 343.897 9.39134C344.246 9.45526 344.506 9.51278 344.677 9.56392L344.191 11.6094C344.084 11.5753 343.952 11.5433 343.795 11.5135C343.641 11.4837 343.483 11.4688 343.322 11.4688C342.921 11.4688 342.642 11.5625 342.484 11.75C342.327 11.9332 342.248 12.1911 342.248 12.5234V23H339.531ZM345.867 23V13.1818H348.59V23H345.867ZM347.235 11.9162C346.83 11.9162 346.483 11.782 346.193 11.5135C345.908 11.2408 345.765 10.9148 345.765 10.5355C345.765 10.1605 345.908 9.83878 346.193 9.57031C346.483 9.29758 346.83 9.16122 347.235 9.16122C347.64 9.16122 347.985 9.29758 348.271 9.57031C348.56 9.83878 348.705 10.1605 348.705 10.5355C348.705 10.9148 348.56 11.2408 348.271 11.5135C347.985 11.782 347.64 11.9162 347.235 11.9162ZM355.246 23.1918C354.236 23.1918 353.367 22.9872 352.638 22.5781C351.914 22.1648 351.355 21.581 350.963 20.8267C350.571 20.0682 350.375 19.1712 350.375 18.1357C350.375 17.1257 350.571 16.2393 350.963 15.4766C351.355 14.7138 351.907 14.1193 352.619 13.6932C353.335 13.267 354.174 13.054 355.137 13.054C355.785 13.054 356.388 13.1584 356.946 13.3672C357.509 13.5717 357.999 13.8807 358.416 14.294C358.838 14.7074 359.166 15.2273 359.401 15.8537C359.635 16.4759 359.752 17.2045 359.752 18.0398V18.7876H351.462V17.1001H357.189C357.189 16.7081 357.104 16.3608 356.933 16.0582C356.763 15.7557 356.526 15.5192 356.224 15.3487C355.926 15.174 355.578 15.0866 355.182 15.0866C354.769 15.0866 354.402 15.1825 354.083 15.3743C353.767 15.5618 353.52 15.8153 353.341 16.1349C353.162 16.4503 353.07 16.8018 353.066 17.1896V18.794C353.066 19.2798 353.156 19.6996 353.335 20.0533C353.518 20.407 353.776 20.6797 354.108 20.8714C354.44 21.0632 354.835 21.1591 355.291 21.1591C355.593 21.1591 355.87 21.1165 356.122 21.0312C356.373 20.946 356.588 20.8182 356.767 20.6477C356.946 20.4773 357.083 20.2685 357.176 20.0213L359.695 20.1875C359.567 20.7926 359.305 21.321 358.909 21.7727C358.516 22.2202 358.009 22.5696 357.387 22.821C356.769 23.0682 356.056 23.1918 355.246 23.1918ZM365.147 23.1598C364.401 23.1598 363.726 22.968 363.121 22.5845C362.52 22.1967 362.043 21.6278 361.689 20.8778C361.34 20.1236 361.165 19.1989 361.165 18.1037C361.165 16.9787 361.346 16.0433 361.708 15.2976C362.07 14.5476 362.552 13.9872 363.153 13.6165C363.758 13.2415 364.421 13.054 365.141 13.054C365.69 13.054 366.149 13.1477 366.515 13.3352C366.886 13.5185 367.184 13.7486 367.41 14.0256C367.64 14.2983 367.815 14.5668 367.934 14.831H368.017V9.90909H370.734V23H368.049V21.4276H367.934C367.806 21.7003 367.625 21.9709 367.391 22.2393C367.161 22.5036 366.86 22.723 366.49 22.8977C366.123 23.0724 365.676 23.1598 365.147 23.1598ZM366.01 20.9929C366.449 20.9929 366.82 20.8736 367.122 20.6349C367.429 20.392 367.664 20.0533 367.825 19.6186C367.992 19.1839 368.075 18.6747 368.075 18.0909C368.075 17.5071 367.994 17 367.832 16.5696C367.67 16.1392 367.436 15.8068 367.129 15.5724C366.822 15.3381 366.449 15.2209 366.01 15.2209C365.563 15.2209 365.186 15.3423 364.879 15.5852C364.572 15.8281 364.34 16.1648 364.182 16.5952C364.024 17.0256 363.945 17.5241 363.945 18.0909C363.945 18.6619 364.024 19.1669 364.182 19.6058C364.344 20.0405 364.576 20.3814 364.879 20.6286C365.186 20.8714 365.563 20.9929 366.01 20.9929ZM379.09 16.544V18.7045H373.12V16.544H379.09ZM386.632 13.1818V15.2273H380.72V13.1818H386.632ZM382.062 10.8295H384.785V19.983C384.785 20.2344 384.823 20.4304 384.9 20.571C384.977 20.7074 385.083 20.8033 385.22 20.8587C385.36 20.9141 385.522 20.9418 385.706 20.9418C385.833 20.9418 385.961 20.9311 386.089 20.9098C386.217 20.8842 386.315 20.8651 386.383 20.8523L386.811 22.8786C386.675 22.9212 386.483 22.9702 386.236 23.0256C385.989 23.0852 385.689 23.1214 385.335 23.1342C384.679 23.1598 384.103 23.0724 383.609 22.8722C383.119 22.6719 382.738 22.3608 382.465 21.9389C382.192 21.517 382.058 20.9844 382.062 20.3409V10.8295ZM391.206 23.1854C390.58 23.1854 390.021 23.0767 389.531 22.8594C389.041 22.6378 388.653 22.3118 388.368 21.8814C388.087 21.4467 387.946 20.9055 387.946 20.2578C387.946 19.7124 388.046 19.2543 388.246 18.8835C388.447 18.5128 388.719 18.2145 389.065 17.9886C389.41 17.7628 389.802 17.5923 390.241 17.4773C390.684 17.3622 391.148 17.2812 391.634 17.2344C392.205 17.1747 392.665 17.1193 393.015 17.0682C393.364 17.0128 393.618 16.9318 393.776 16.8253C393.933 16.7187 394.012 16.5611 394.012 16.3523V16.3139C394.012 15.9091 393.884 15.5959 393.629 15.3743C393.377 15.1527 393.019 15.0419 392.555 15.0419C392.065 15.0419 391.675 15.1506 391.385 15.3679C391.095 15.581 390.903 15.8494 390.81 16.1733L388.291 15.9688C388.419 15.3722 388.67 14.8565 389.045 14.4219C389.42 13.983 389.904 13.6463 390.496 13.4119C391.093 13.1733 391.783 13.054 392.567 13.054C393.113 13.054 393.635 13.1179 394.134 13.2457C394.636 13.3736 395.082 13.5717 395.469 13.8402C395.861 14.1087 396.17 14.4538 396.396 14.8757C396.622 15.2933 396.735 15.794 396.735 16.3778V23H394.153V21.6385H394.076C393.918 21.9453 393.707 22.2159 393.443 22.4503C393.179 22.6804 392.861 22.8615 392.491 22.9936C392.12 23.1214 391.692 23.1854 391.206 23.1854ZM391.986 21.3061C392.386 21.3061 392.74 21.2273 393.047 21.0696C393.354 20.9077 393.594 20.6903 393.769 20.4176C393.944 20.1449 394.031 19.8359 394.031 19.4908V18.4489C393.946 18.5043 393.829 18.5554 393.68 18.6023C393.535 18.6449 393.371 18.6854 393.187 18.7237C393.004 18.7578 392.821 18.7898 392.638 18.8196C392.455 18.8452 392.288 18.8686 392.139 18.8899C391.82 18.9368 391.54 19.0114 391.302 19.1136C391.063 19.2159 390.878 19.3544 390.746 19.5291C390.614 19.6996 390.548 19.9126 390.548 20.1683C390.548 20.5391 390.682 20.8224 390.95 21.0185C391.223 21.2102 391.568 21.3061 391.986 21.3061ZM398.899 23V9.90909H401.622V14.831H401.705C401.824 14.5668 401.997 14.2983 402.223 14.0256C402.453 13.7486 402.751 13.5185 403.118 13.3352C403.488 13.1477 403.948 13.054 404.498 13.054C405.214 13.054 405.875 13.2415 406.48 13.6165C407.085 13.9872 407.569 14.5476 407.931 15.2976C408.293 16.0433 408.474 16.9787 408.474 18.1037C408.474 19.1989 408.297 20.1236 407.944 20.8778C407.594 21.6278 407.117 22.1967 406.512 22.5845C405.911 22.968 405.238 23.1598 404.492 23.1598C403.963 23.1598 403.514 23.0724 403.143 22.8977C402.777 22.723 402.476 22.5036 402.242 22.2393C402.007 21.9709 401.828 21.7003 401.705 21.4276H401.583V23H398.899ZM401.564 18.0909C401.564 18.6747 401.645 19.1839 401.807 19.6186C401.969 20.0533 402.203 20.392 402.51 20.6349C402.817 20.8736 403.19 20.9929 403.629 20.9929C404.072 20.9929 404.447 20.8714 404.754 20.6286C405.061 20.3814 405.293 20.0405 405.451 19.6058C405.613 19.1669 405.694 18.6619 405.694 18.0909C405.694 17.5241 405.615 17.0256 405.457 16.5952C405.299 16.1648 405.067 15.8281 404.76 15.5852C404.453 15.3423 404.076 15.2209 403.629 15.2209C403.186 15.2209 402.811 15.3381 402.504 15.5724C402.201 15.8068 401.969 16.1392 401.807 16.5696C401.645 17 401.564 17.5071 401.564 18.0909ZM413.014 9.90909V23H410.291V9.90909H413.014ZM419.67 23.1918C418.66 23.1918 417.79 22.9872 417.062 22.5781C416.337 22.1648 415.779 21.581 415.387 20.8267C414.995 20.0682 414.799 19.1712 414.799 18.1357C414.799 17.1257 414.995 16.2393 415.387 15.4766C415.779 14.7138 416.331 14.1193 417.043 13.6932C417.759 13.267 418.598 13.054 419.561 13.054C420.209 13.054 420.812 13.1584 421.37 13.3672C421.933 13.5717 422.423 13.8807 422.84 14.294C423.262 14.7074 423.59 15.2273 423.825 15.8537C424.059 16.4759 424.176 17.2045 424.176 18.0398V18.7876H415.886V17.1001H421.613C421.613 16.7081 421.528 16.3608 421.357 16.0582C421.187 15.7557 420.95 15.5192 420.648 15.3487C420.349 15.174 420.002 15.0866 419.606 15.0866C419.192 15.0866 418.826 15.1825 418.506 15.3743C418.191 15.5618 417.944 15.8153 417.765 16.1349C417.586 16.4503 417.494 16.8018 417.49 17.1896V18.794C417.49 19.2798 417.58 19.6996 417.759 20.0533C417.942 20.407 418.2 20.6797 418.532 20.8714C418.864 21.0632 419.259 21.1591 419.714 21.1591C420.017 21.1591 420.294 21.1165 420.545 21.0312C420.797 20.946 421.012 20.8182 421.191 20.6477C421.37 20.4773 421.506 20.2685 421.6 20.0213L424.119 20.1875C423.991 20.7926 423.729 21.321 423.332 21.7727C422.94 22.2202 422.433 22.5696 421.811 22.821C421.193 23.0682 420.479 23.1918 419.67 23.1918ZM432.07 16.544V18.7045H426.1V16.544H432.07ZM437.114 17.3239V23H434.391V13.1818H436.986V14.9141H437.101C437.318 14.343 437.683 13.8913 438.194 13.5589C438.705 13.2223 439.325 13.054 440.054 13.054C440.736 13.054 441.33 13.2031 441.837 13.5014C442.344 13.7997 442.739 14.2259 443.02 14.7798C443.301 15.3295 443.442 15.9858 443.442 16.7486V23H440.719V17.2344C440.723 16.6335 440.57 16.1648 440.259 15.8281C439.947 15.4872 439.519 15.3168 438.974 15.3168C438.607 15.3168 438.283 15.3956 438.002 15.5533C437.725 15.7109 437.508 15.9411 437.35 16.2436C437.197 16.5419 437.118 16.902 437.114 17.3239ZM448.388 23.1854C447.761 23.1854 447.203 23.0767 446.713 22.8594C446.223 22.6378 445.835 22.3118 445.55 21.8814C445.268 21.4467 445.128 20.9055 445.128 20.2578C445.128 19.7124 445.228 19.2543 445.428 18.8835C445.628 18.5128 445.901 18.2145 446.246 17.9886C446.591 17.7628 446.983 17.5923 447.422 17.4773C447.866 17.3622 448.33 17.2812 448.816 17.2344C449.387 17.1747 449.847 17.1193 450.197 17.0682C450.546 17.0128 450.8 16.9318 450.957 16.8253C451.115 16.7187 451.194 16.5611 451.194 16.3523V16.3139C451.194 15.9091 451.066 15.5959 450.81 15.3743C450.559 15.1527 450.201 15.0419 449.736 15.0419C449.246 15.0419 448.856 15.1506 448.567 15.3679C448.277 15.581 448.085 15.8494 447.991 16.1733L445.473 15.9688C445.601 15.3722 445.852 14.8565 446.227 14.4219C446.602 13.983 447.086 13.6463 447.678 13.4119C448.275 13.1733 448.965 13.054 449.749 13.054C450.295 13.054 450.817 13.1179 451.315 13.2457C451.818 13.3736 452.263 13.5717 452.651 13.8402C453.043 14.1087 453.352 14.4538 453.578 14.8757C453.804 15.2933 453.917 15.794 453.917 16.3778V23H451.334V21.6385H451.258C451.1 21.9453 450.889 22.2159 450.625 22.4503C450.361 22.6804 450.043 22.8615 449.672 22.9936C449.302 23.1214 448.873 23.1854 448.388 23.1854ZM449.167 21.3061C449.568 21.3061 449.922 21.2273 450.228 21.0696C450.535 20.9077 450.776 20.6903 450.951 20.4176C451.126 20.1449 451.213 19.8359 451.213 19.4908V18.4489C451.128 18.5043 451.01 18.5554 450.861 18.6023C450.716 18.6449 450.552 18.6854 450.369 18.7237C450.186 18.7578 450.003 18.7898 449.819 18.8196C449.636 18.8452 449.47 18.8686 449.321 18.8899C449.001 18.9368 448.722 19.0114 448.483 19.1136C448.245 19.2159 448.059 19.3544 447.927 19.5291C447.795 19.6996 447.729 19.9126 447.729 20.1683C447.729 20.5391 447.863 20.8224 448.132 21.0185C448.405 21.2102 448.75 21.3061 449.167 21.3061ZM456.029 23V13.1818H458.624V14.9141H458.74C458.944 14.3388 459.285 13.8849 459.762 13.5526C460.24 13.2202 460.811 13.054 461.475 13.054C462.149 13.054 462.722 13.2223 463.195 13.5589C463.668 13.8913 463.983 14.343 464.141 14.9141H464.243C464.443 14.3516 464.806 13.902 465.33 13.5653C465.858 13.2244 466.482 13.054 467.203 13.054C468.119 13.054 468.862 13.3459 469.433 13.9297C470.009 14.5092 470.296 15.3317 470.296 16.397V23H467.58V16.9339C467.58 16.3885 467.435 15.9794 467.145 15.7067C466.855 15.4339 466.493 15.2976 466.058 15.2976C465.564 15.2976 465.178 15.4553 464.901 15.7706C464.624 16.0817 464.486 16.4929 464.486 17.0043V23H461.846V16.8764C461.846 16.3949 461.708 16.0114 461.431 15.7259C461.158 15.4403 460.798 15.2976 460.35 15.2976C460.048 15.2976 459.775 15.3743 459.532 15.5277C459.293 15.6768 459.104 15.8878 458.963 16.1605C458.823 16.429 458.752 16.7443 458.752 17.1065V23H456.029ZM476.922 23.1918C475.912 23.1918 475.042 22.9872 474.314 22.5781C473.589 22.1648 473.031 21.581 472.639 20.8267C472.247 20.0682 472.051 19.1712 472.051 18.1357C472.051 17.1257 472.247 16.2393 472.639 15.4766C473.031 14.7138 473.583 14.1193 474.295 13.6932C475.01 13.267 475.85 13.054 476.813 13.054C477.461 13.054 478.064 13.1584 478.622 13.3672C479.184 13.5717 479.675 13.8807 480.092 14.294C480.514 14.7074 480.842 15.2273 481.077 15.8537C481.311 16.4759 481.428 17.2045 481.428 18.0398V18.7876H473.138V17.1001H478.865C478.865 16.7081 478.78 16.3608 478.609 16.0582C478.439 15.7557 478.202 15.5192 477.9 15.3487C477.601 15.174 477.254 15.0866 476.858 15.0866C476.444 15.0866 476.078 15.1825 475.758 15.3743C475.443 15.5618 475.196 15.8153 475.017 16.1349C474.838 16.4503 474.746 16.8018 474.742 17.1896V18.794C474.742 19.2798 474.831 19.6996 475.01 20.0533C475.194 20.407 475.452 20.6797 475.784 20.8714C476.116 21.0632 476.51 21.1591 476.966 21.1591C477.269 21.1591 477.546 21.1165 477.797 21.0312C478.049 20.946 478.264 20.8182 478.443 20.6477C478.622 20.4773 478.758 20.2685 478.852 20.0213L481.371 20.1875C481.243 20.7926 480.981 21.321 480.584 21.7727C480.192 22.2202 479.685 22.5696 479.063 22.821C478.445 23.0682 477.731 23.1918 476.922 23.1918Z" fill="black"/>
<rect x="290.499" y="0.5" width="200" height="32" stroke="black"/>
<path d="M337.086 86V76.1818H339.726V77.8949H339.828C340.007 77.2855 340.308 76.8253 340.729 76.5142C341.151 76.1989 341.637 76.0412 342.187 76.0412C342.323 76.0412 342.47 76.0497 342.628 76.0668C342.785 76.0838 342.924 76.1072 343.043 76.1371V78.5533C342.915 78.5149 342.739 78.4808 342.513 78.451C342.287 78.4212 342.08 78.4062 341.893 78.4062C341.492 78.4062 341.134 78.4936 340.819 78.6683C340.508 78.8388 340.261 79.0774 340.077 79.3842C339.898 79.6911 339.809 80.0447 339.809 80.4453V86H337.086ZM348.469 86.1918C347.459 86.1918 346.589 85.9872 345.861 85.5781C345.136 85.1648 344.578 84.581 344.186 83.8267C343.794 83.0682 343.598 82.1712 343.598 81.1357C343.598 80.1257 343.794 79.2393 344.186 78.4766C344.578 77.7138 345.13 77.1193 345.841 76.6932C346.557 76.267 347.397 76.054 348.36 76.054C349.008 76.054 349.611 76.1584 350.169 76.3672C350.731 76.5717 351.221 76.8807 351.639 77.294C352.061 77.7074 352.389 78.2273 352.623 78.8537C352.858 79.4759 352.975 80.2045 352.975 81.0398V81.7876H344.684V80.1001H350.412C350.412 79.7081 350.327 79.3608 350.156 79.0582C349.986 78.7557 349.749 78.5192 349.447 78.3487C349.148 78.174 348.801 78.0866 348.405 78.0866C347.991 78.0866 347.625 78.1825 347.305 78.3743C346.99 78.5618 346.743 78.8153 346.564 79.1349C346.385 79.4503 346.293 79.8018 346.289 80.1896V81.794C346.289 82.2798 346.378 82.6996 346.557 83.0533C346.741 83.407 346.998 83.6797 347.331 83.8714C347.663 84.0632 348.057 84.1591 348.513 84.1591C348.816 84.1591 349.093 84.1165 349.344 84.0312C349.596 83.946 349.811 83.8182 349.99 83.6477C350.169 83.4773 350.305 83.2685 350.399 83.0213L352.917 83.1875C352.79 83.7926 352.527 84.321 352.131 84.7727C351.739 85.2202 351.232 85.5696 350.61 85.821C349.992 86.0682 349.278 86.1918 348.469 86.1918ZM359.974 76.1818V78.2273H354.062V76.1818H359.974ZM355.404 73.8295H358.127V82.983C358.127 83.2344 358.165 83.4304 358.242 83.571C358.319 83.7074 358.425 83.8033 358.562 83.8587C358.702 83.9141 358.864 83.9418 359.047 83.9418C359.175 83.9418 359.303 83.9311 359.431 83.9098C359.559 83.8842 359.657 83.8651 359.725 83.8523L360.153 85.8786C360.017 85.9212 359.825 85.9702 359.578 86.0256C359.331 86.0852 359.03 86.1214 358.677 86.1342C358.02 86.1598 357.445 86.0724 356.951 85.8722C356.461 85.6719 356.079 85.3608 355.807 84.9389C355.534 84.517 355.4 83.9844 355.404 83.3409V73.8295ZM368.044 81.8196V76.1818H370.767V86H368.153V84.2166H368.051C367.829 84.7919 367.46 85.2543 366.945 85.6037C366.433 85.9531 365.809 86.1278 365.072 86.1278C364.416 86.1278 363.838 85.9787 363.34 85.6804C362.841 85.3821 362.451 84.9581 362.17 84.4084C361.893 83.8587 361.752 83.2003 361.748 82.4332V76.1818H364.471V81.9474C364.475 82.527 364.631 82.9851 364.938 83.3217C365.244 83.6584 365.656 83.8267 366.171 83.8267C366.499 83.8267 366.806 83.7521 367.092 83.603C367.377 83.4496 367.607 83.2237 367.782 82.9254C367.961 82.6271 368.048 82.2585 368.044 81.8196ZM372.945 86V76.1818H375.585V77.8949H375.687C375.866 77.2855 376.167 76.8253 376.589 76.5142C377.011 76.1989 377.496 76.0412 378.046 76.0412C378.183 76.0412 378.33 76.0497 378.487 76.0668C378.645 76.0838 378.783 76.1072 378.903 76.1371V78.5533C378.775 78.5149 378.598 78.4808 378.372 78.451C378.146 78.4212 377.94 78.4062 377.752 78.4062C377.352 78.4062 376.994 78.4936 376.678 78.6683C376.367 78.8388 376.12 79.0774 375.937 79.3842C375.758 79.6911 375.668 80.0447 375.668 80.4453V86H372.945ZM383.034 80.3239V86H380.311V76.1818H382.906V77.9141H383.021C383.238 77.343 383.602 76.8913 384.114 76.5589C384.625 76.2223 385.245 76.054 385.974 76.054C386.656 76.054 387.25 76.2031 387.757 76.5014C388.264 76.7997 388.659 77.2259 388.94 77.7798C389.221 78.3295 389.362 78.9858 389.362 79.7486V86H386.639V80.2344C386.643 79.6335 386.49 79.1648 386.178 78.8281C385.867 78.4872 385.439 78.3168 384.894 78.3168C384.527 78.3168 384.203 78.3956 383.922 78.5533C383.645 78.7109 383.428 78.9411 383.27 79.2436C383.117 79.5419 383.038 79.902 383.034 80.3239ZM391.508 86V76.1818H394.231V86H391.508ZM392.876 74.9162C392.471 74.9162 392.124 74.782 391.834 74.5135C391.548 74.2408 391.406 73.9148 391.406 73.5355C391.406 73.1605 391.548 72.8388 391.834 72.5703C392.124 72.2976 392.471 72.1612 392.876 72.1612C393.281 72.1612 393.626 72.2976 393.911 72.5703C394.201 72.8388 394.346 73.1605 394.346 73.5355C394.346 73.9148 394.201 74.2408 393.911 74.5135C393.626 74.782 393.281 74.9162 392.876 74.9162ZM399.135 80.3239V86H396.412V76.1818H399.007V77.9141H399.122C399.34 77.343 399.704 76.8913 400.215 76.5589C400.727 76.2223 401.347 76.054 402.075 76.054C402.757 76.054 403.352 76.2031 403.859 76.5014C404.366 76.7997 404.76 77.2259 405.041 77.7798C405.323 78.3295 405.463 78.9858 405.463 79.7486V86H402.74V80.2344C402.744 79.6335 402.591 79.1648 402.28 78.8281C401.969 78.4872 401.541 78.3168 400.995 78.3168C400.629 78.3168 400.305 78.3956 400.024 78.5533C399.747 78.7109 399.529 78.9411 399.372 79.2436C399.218 79.5419 399.139 79.902 399.135 80.3239ZM412.033 89.8864C411.151 89.8864 410.394 89.7649 409.763 89.522C409.137 89.2834 408.638 88.9574 408.268 88.544C407.897 88.1307 407.656 87.6662 407.545 87.1506L410.064 86.8118C410.141 87.0078 410.262 87.1911 410.428 87.3615C410.594 87.532 410.814 87.6683 411.087 87.7706C411.364 87.8771 411.7 87.9304 412.097 87.9304C412.689 87.9304 413.177 87.7855 413.56 87.4957C413.948 87.2102 414.142 86.7308 414.142 86.0575V84.2614H414.027C413.908 84.5341 413.729 84.7919 413.49 85.0348C413.251 85.2777 412.945 85.4759 412.57 85.6293C412.195 85.7827 411.747 85.8594 411.227 85.8594C410.49 85.8594 409.819 85.6889 409.214 85.348C408.613 85.0028 408.134 84.4766 407.776 83.7692C407.422 83.0575 407.245 82.1584 407.245 81.0717C407.245 79.9595 407.426 79.0305 407.788 78.2848C408.151 77.5391 408.632 76.9808 409.233 76.6101C409.838 76.2393 410.501 76.054 411.221 76.054C411.771 76.054 412.231 76.1477 412.602 76.3352C412.972 76.5185 413.271 76.7486 413.496 77.0256C413.727 77.2983 413.903 77.5668 414.027 77.831H414.129V76.1818H416.833V86.0959C416.833 86.9311 416.629 87.63 416.219 88.1925C415.81 88.755 415.244 89.1768 414.519 89.4581C413.799 89.7436 412.97 89.8864 412.033 89.8864ZM412.09 83.8139C412.529 83.8139 412.9 83.7053 413.202 83.4879C413.509 83.2663 413.744 82.951 413.906 82.5419C414.072 82.1286 414.155 81.6342 414.155 81.0589C414.155 80.4837 414.074 79.9851 413.912 79.5632C413.75 79.1371 413.516 78.8068 413.209 78.5724C412.902 78.3381 412.529 78.2209 412.09 78.2209C411.643 78.2209 411.266 78.3423 410.959 78.5852C410.652 78.8239 410.42 79.1562 410.262 79.5824C410.104 80.0085 410.026 80.5007 410.026 81.0589C410.026 81.6257 410.104 82.1158 410.262 82.5291C410.424 82.9382 410.656 83.2557 410.959 83.4815C411.266 83.7031 411.643 83.8139 412.09 83.8139ZM425.117 79.544V81.7045H419.147V79.544H425.117ZM431.874 86.1918C430.868 86.1918 430.003 85.9787 429.278 85.5526C428.558 85.1222 428.004 84.5256 427.616 83.7628C427.233 83 427.041 82.1222 427.041 81.1293C427.041 80.1236 427.235 79.2415 427.623 78.483C428.015 77.7202 428.571 77.1257 429.291 76.6996C430.011 76.2692 430.868 76.054 431.861 76.054C432.717 76.054 433.467 76.2095 434.111 76.5206C434.754 76.8317 435.263 77.2685 435.638 77.831C436.013 78.3935 436.22 79.054 436.259 79.8125H433.689C433.616 79.3224 433.425 78.9283 433.114 78.63C432.807 78.3274 432.404 78.1761 431.906 78.1761C431.484 78.1761 431.115 78.2912 430.8 78.5213C430.489 78.7472 430.246 79.0774 430.071 79.5121C429.896 79.9467 429.809 80.473 429.809 81.0909C429.809 81.7173 429.894 82.25 430.065 82.6889C430.239 83.1278 430.484 83.4624 430.8 83.6925C431.115 83.9226 431.484 84.0376 431.906 84.0376C432.217 84.0376 432.496 83.9737 432.743 83.8459C432.994 83.718 433.201 83.5327 433.363 83.2898C433.529 83.0426 433.638 82.7464 433.689 82.4013H436.259C436.216 83.1513 436.011 83.8118 435.645 84.3828C435.283 84.9496 434.782 85.3928 434.143 85.7124C433.504 86.032 432.747 86.1918 431.874 86.1918ZM440.725 72.9091V86H438.002V72.9091H440.725ZM445.706 86.1854C445.08 86.1854 444.521 86.0767 444.031 85.8594C443.541 85.6378 443.153 85.3118 442.868 84.8814C442.587 84.4467 442.446 83.9055 442.446 83.2578C442.446 82.7124 442.546 82.2543 442.746 81.8835C442.947 81.5128 443.219 81.2145 443.565 80.9886C443.91 80.7628 444.302 80.5923 444.741 80.4773C445.184 80.3622 445.648 80.2812 446.134 80.2344C446.705 80.1747 447.165 80.1193 447.515 80.0682C447.864 80.0128 448.118 79.9318 448.276 79.8253C448.433 79.7187 448.512 79.5611 448.512 79.3523V79.3139C448.512 78.9091 448.384 78.5959 448.129 78.3743C447.877 78.1527 447.519 78.0419 447.055 78.0419C446.565 78.0419 446.175 78.1506 445.885 78.3679C445.595 78.581 445.403 78.8494 445.31 79.1733L442.791 78.9688C442.919 78.3722 443.17 77.8565 443.545 77.4219C443.92 76.983 444.404 76.6463 444.996 76.4119C445.593 76.1733 446.283 76.054 447.067 76.054C447.613 76.054 448.135 76.1179 448.634 76.2457C449.136 76.3736 449.582 76.5717 449.969 76.8402C450.361 77.1087 450.67 77.4538 450.896 77.8757C451.122 78.2933 451.235 78.794 451.235 79.3778V86H448.653V84.6385H448.576C448.418 84.9453 448.207 85.2159 447.943 85.4503C447.679 85.6804 447.361 85.8615 446.991 85.9936C446.62 86.1214 446.192 86.1854 445.706 86.1854ZM446.486 84.3061C446.886 84.3061 447.24 84.2273 447.547 84.0696C447.854 83.9077 448.094 83.6903 448.269 83.4176C448.444 83.1449 448.531 82.8359 448.531 82.4908V81.4489C448.446 81.5043 448.329 81.5554 448.18 81.6023C448.035 81.6449 447.871 81.6854 447.687 81.7237C447.504 81.7578 447.321 81.7898 447.138 81.8196C446.955 81.8452 446.788 81.8686 446.639 81.8899C446.32 81.9368 446.04 82.0114 445.802 82.1136C445.563 82.2159 445.378 82.3544 445.246 82.5291C445.114 82.6996 445.048 82.9126 445.048 83.1683C445.048 83.5391 445.182 83.8224 445.45 84.0185C445.723 84.2102 446.068 84.3061 446.486 84.3061ZM459.644 81.8196V76.1818H462.367V86H459.752V84.2166H459.65C459.429 84.7919 459.06 85.2543 458.544 85.6037C458.033 85.9531 457.409 86.1278 456.671 86.1278C456.015 86.1278 455.438 85.9787 454.939 85.6804C454.441 85.3821 454.051 84.9581 453.77 84.4084C453.493 83.8587 453.352 83.2003 453.348 82.4332V76.1818H456.071V81.9474C456.075 82.527 456.23 82.9851 456.537 83.3217C456.844 83.6584 457.255 83.8267 457.771 83.8267C458.099 83.8267 458.406 83.7521 458.691 83.603C458.977 83.4496 459.207 83.2237 459.382 82.9254C459.561 82.6271 459.648 82.2585 459.644 81.8196ZM472.714 78.9815L470.221 79.1349C470.178 78.9219 470.087 78.7301 469.946 78.5597C469.806 78.3849 469.62 78.2464 469.39 78.1442C469.164 78.0376 468.894 77.9844 468.578 77.9844C468.156 77.9844 467.801 78.0739 467.511 78.2528C467.221 78.4276 467.076 78.6619 467.076 78.956C467.076 79.1903 467.17 79.3885 467.357 79.5504C467.545 79.7124 467.867 79.8423 468.323 79.9403L470.1 80.2983C471.054 80.4943 471.766 80.8097 472.235 81.2443C472.703 81.679 472.938 82.25 472.938 82.9574C472.938 83.6009 472.748 84.1655 472.369 84.6513C471.994 85.1371 471.478 85.5163 470.822 85.7891C470.17 86.0575 469.418 86.1918 468.565 86.1918C467.266 86.1918 466.23 85.9212 465.459 85.38C464.692 84.8345 464.242 84.093 464.11 83.1555L466.789 83.0149C466.869 83.4112 467.065 83.7138 467.377 83.9226C467.688 84.1271 468.086 84.2294 468.572 84.2294C469.049 84.2294 469.433 84.1378 469.722 83.9545C470.016 83.767 470.166 83.5263 470.17 83.2322C470.166 82.9851 470.061 82.7827 469.857 82.625C469.652 82.4631 469.337 82.3395 468.911 82.2543L467.21 81.9155C466.252 81.7237 465.538 81.3913 465.069 80.9183C464.605 80.4453 464.372 79.8423 464.372 79.1094C464.372 78.4787 464.543 77.9354 464.884 77.4794C465.229 77.0234 465.713 76.6719 466.335 76.4247C466.961 76.1776 467.694 76.054 468.534 76.054C469.774 76.054 470.749 76.3161 471.461 76.8402C472.177 77.3643 472.595 78.0781 472.714 78.9815ZM479.127 86.1918C478.117 86.1918 477.247 85.9872 476.519 85.5781C475.794 85.1648 475.236 84.581 474.844 83.8267C474.452 83.0682 474.256 82.1712 474.256 81.1357C474.256 80.1257 474.452 79.2393 474.844 78.4766C475.236 77.7138 475.788 77.1193 476.5 76.6932C477.216 76.267 478.055 76.054 479.018 76.054C479.666 76.054 480.269 76.1584 480.827 76.3672C481.39 76.5717 481.88 76.8807 482.297 77.294C482.719 77.7074 483.047 78.2273 483.282 78.8537C483.516 79.4759 483.633 80.2045 483.633 81.0398V81.7876H475.343V80.1001H481.07C481.07 79.7081 480.985 79.3608 480.814 79.0582C480.644 78.7557 480.407 78.5192 480.105 78.3487C479.806 78.174 479.459 78.0866 479.063 78.0866C478.649 78.0866 478.283 78.1825 477.963 78.3743C477.648 78.5618 477.401 78.8153 477.222 79.1349C477.043 79.4503 476.951 79.8018 476.947 80.1896V81.794C476.947 82.2798 477.037 82.6996 477.216 83.0533C477.399 83.407 477.657 83.6797 477.989 83.8714C478.321 84.0632 478.716 84.1591 479.171 84.1591C479.474 84.1591 479.751 84.1165 480.002 84.0312C480.254 83.946 480.469 83.8182 480.648 83.6477C480.827 83.4773 480.963 83.2685 481.057 83.0213L483.576 83.1875C483.448 83.7926 483.186 84.321 482.789 84.7727C482.397 85.2202 481.89 85.5696 481.268 85.821C480.65 86.0682 479.936 86.1918 479.127 86.1918Z" fill="black"/>
<rect x="331.499" y="63.5" width="159" height="32" stroke="black"/>
<path d="M178.561 86.1918C177.551 86.1918 176.682 85.9872 175.953 85.5781C175.229 85.1648 174.671 84.581 174.279 83.8267C173.887 83.0682 173.691 82.1712 173.691 81.1357C173.691 80.1257 173.887 79.2393 174.279 78.4766C174.671 77.7138 175.223 77.1193 175.934 76.6932C176.65 76.267 177.49 76.054 178.453 76.054C179.1 76.054 179.703 76.1584 180.262 76.3672C180.824 76.5717 181.314 76.8807 181.732 77.294C182.154 77.7074 182.482 78.2273 182.716 78.8537C182.951 79.4759 183.068 80.2045 183.068 81.0398V81.7876H174.777V80.1001H180.505C180.505 79.7081 180.419 79.3608 180.249 79.0582C180.078 78.7557 179.842 78.5192 179.539 78.3487C179.241 78.174 178.894 78.0866 178.497 78.0866C178.084 78.0866 177.718 78.1825 177.398 78.3743C177.083 78.5618 176.835 78.8153 176.656 79.1349C176.478 79.4503 176.386 79.8018 176.382 80.1896V81.794C176.382 82.2798 176.471 82.6996 176.65 83.0533C176.833 83.407 177.091 83.6797 177.424 83.8714C177.756 84.0632 178.15 84.1591 178.606 84.1591C178.909 84.1591 179.186 84.1165 179.437 84.0312C179.688 83.946 179.904 83.8182 180.083 83.6477C180.262 83.4773 180.398 83.2685 180.492 83.0213L183.01 83.1875C182.882 83.7926 182.62 84.321 182.224 84.7727C181.832 85.2202 181.325 85.5696 180.703 85.821C180.085 86.0682 179.371 86.1918 178.561 86.1918ZM186.944 76.1818L188.747 79.6143L190.594 76.1818H193.388L190.543 81.0909L193.464 86H190.684L188.747 82.6058L186.842 86H184.03L186.944 81.0909L184.132 76.1818H186.944ZM195.005 89.6818V76.1818H197.69V77.831H197.811C197.93 77.5668 198.103 77.2983 198.329 77.0256C198.559 76.7486 198.857 76.5185 199.224 76.3352C199.594 76.1477 200.055 76.054 200.604 76.054C201.32 76.054 201.981 76.2415 202.586 76.6165C203.191 76.9872 203.675 77.5476 204.037 78.2976C204.399 79.0433 204.58 79.9787 204.58 81.1037C204.58 82.1989 204.403 83.1236 204.05 83.8778C203.7 84.6278 203.223 85.1967 202.618 85.5845C202.017 85.968 201.344 86.1598 200.598 86.1598C200.069 86.1598 199.62 86.0724 199.249 85.8977C198.883 85.723 198.582 85.5036 198.348 85.2393C198.114 84.9709 197.935 84.7003 197.811 84.4276H197.728V89.6818H195.005ZM197.67 81.0909C197.67 81.6747 197.751 82.1839 197.913 82.6186C198.075 83.0533 198.31 83.392 198.616 83.6349C198.923 83.8736 199.296 83.9929 199.735 83.9929C200.178 83.9929 200.553 83.8714 200.86 83.6286C201.167 83.3814 201.399 83.0405 201.557 82.6058C201.719 82.1669 201.8 81.6619 201.8 81.0909C201.8 80.5241 201.721 80.0256 201.563 79.5952C201.405 79.1648 201.173 78.8281 200.866 78.5852C200.56 78.3423 200.182 78.2209 199.735 78.2209C199.292 78.2209 198.917 78.3381 198.61 78.5724C198.307 78.8068 198.075 79.1392 197.913 79.5696C197.751 80 197.67 80.5071 197.67 81.0909ZM206.395 86V76.1818H209.035V77.8949H209.138C209.317 77.2855 209.617 76.8253 210.039 76.5142C210.461 76.1989 210.947 76.0412 211.496 76.0412C211.633 76.0412 211.78 76.0497 211.937 76.0668C212.095 76.0838 212.234 76.1072 212.353 76.1371V78.5533C212.225 78.5149 212.048 78.4808 211.822 78.451C211.596 78.4212 211.39 78.4062 211.202 78.4062C210.802 78.4062 210.444 78.4936 210.128 78.6683C209.817 78.8388 209.57 79.0774 209.387 79.3842C209.208 79.6911 209.118 80.0447 209.118 80.4453V86H206.395Z" fill="black"/>
<rect x="168.5" y="63.5" width="51" height="32" stroke="black"/>
<path d="M188.138 23V9.90909H196.806V12.1911H190.906V15.3104H196.23V17.5923H190.906V23H188.138ZM198.667 23V9.90909H203.832C204.821 9.90909 205.664 10.0859 206.363 10.4396C207.066 10.7891 207.601 11.2855 207.968 11.929C208.338 12.5682 208.524 13.3203 208.524 14.1854C208.524 15.0547 208.336 15.8026 207.961 16.429C207.586 17.0511 207.043 17.5284 206.331 17.8608C205.624 18.1932 204.767 18.3594 203.762 18.3594H200.304V16.1349H203.314C203.843 16.1349 204.282 16.0625 204.631 15.9176C204.981 15.7727 205.24 15.5554 205.411 15.2656C205.586 14.9759 205.673 14.6158 205.673 14.1854C205.673 13.7507 205.586 13.3842 205.411 13.0859C205.24 12.7876 204.978 12.5618 204.625 12.4084C204.275 12.2507 203.834 12.1719 203.302 12.1719H201.435V23H198.667ZM205.737 17.0426L208.99 23H205.935L202.752 17.0426H205.737ZM222.51 16.4545C222.51 17.8821 222.239 19.0966 221.698 20.098C221.161 21.0994 220.428 21.8643 219.499 22.3928C218.574 22.9169 217.535 23.179 216.38 23.179C215.216 23.179 214.172 22.9148 213.248 22.3864C212.323 21.858 211.592 21.093 211.055 20.0916C210.518 19.0902 210.25 17.8778 210.25 16.4545C210.25 15.027 210.518 13.8125 211.055 12.8111C211.592 11.8097 212.323 11.0469 213.248 10.5227C214.172 9.99432 215.216 9.73011 216.38 9.73011C217.535 9.73011 218.574 9.99432 219.499 10.5227C220.428 11.0469 221.161 11.8097 221.698 12.8111C222.239 13.8125 222.51 15.027 222.51 16.4545ZM219.704 16.4545C219.704 15.5298 219.565 14.75 219.288 14.1151C219.015 13.4801 218.63 12.9986 218.131 12.6705C217.633 12.3423 217.049 12.1783 216.38 12.1783C215.711 12.1783 215.127 12.3423 214.628 12.6705C214.13 12.9986 213.742 13.4801 213.465 14.1151C213.192 14.75 213.056 15.5298 213.056 16.4545C213.056 17.3793 213.192 18.1591 213.465 18.794C213.742 19.429 214.13 19.9105 214.628 20.2386C215.127 20.5668 215.711 20.7308 216.38 20.7308C217.049 20.7308 217.633 20.5668 218.131 20.2386C218.63 19.9105 219.015 19.429 219.288 18.794C219.565 18.1591 219.704 17.3793 219.704 16.4545ZM224.56 9.90909H227.973L231.578 18.7045H231.732L235.337 9.90909H238.75V23H236.066V14.4794H235.957L232.569 22.9361H230.741L227.353 14.4474H227.245V23H224.56V9.90909Z" fill="black"/>
<rect x="173.5" y="0.5" width="80" height="32" rx="16" stroke="black"/>
<path d="M67.7787 23H63.138V9.90909H67.817C69.1338 9.90909 70.2673 10.1712 71.2176 10.6953C72.1679 11.2152 72.8987 11.9631 73.41 12.9389C73.9257 13.9148 74.1835 15.0824 74.1835 16.4418C74.1835 17.8054 73.9257 18.9773 73.41 19.9574C72.8987 20.9375 72.1636 21.6896 71.2048 22.2138C70.2502 22.7379 69.1082 23 67.7787 23ZM65.9058 20.6286H67.6636C68.4818 20.6286 69.17 20.4837 69.7282 20.1939C70.2907 19.8999 70.7126 19.446 70.9939 18.8324C71.2794 18.2145 71.4221 17.4176 71.4221 16.4418C71.4221 15.4744 71.2794 14.6839 70.9939 14.0703C70.7126 13.4567 70.2929 13.005 69.7346 12.7152C69.1764 12.4254 68.4882 12.2805 67.67 12.2805H65.9058V20.6286ZM76.2337 23V9.90909H85.0548V12.1911H79.0015V15.3104H84.6009V17.5923H79.0015V20.718H85.0803V23H76.2337ZM87.2552 23V9.90909H90.023V20.718H95.6352V23H87.2552ZM97.4681 23V9.90909H106.289V12.1911H100.236V15.3104H105.835V17.5923H100.236V20.718H106.315V23H97.4681ZM107.991 12.1911V9.90909H118.742V12.1911H114.735V23H111.999V12.1911H107.991ZM120.513 23V9.90909H129.334V12.1911H123.281V15.3104H128.88V17.5923H123.281V20.718H129.36V23H120.513Z" fill="black"/>
<rect x="51.5002" y="0.5" width="87" height="32" rx="16" stroke="black"/>
<path d="M66.0848 86L62.339 72.9091H65.3625L67.5294 82.005H67.638L70.0287 72.9091H72.6174L75.0017 82.0241H75.1167L77.2836 72.9091H80.3071L76.5613 86H73.8639L71.371 77.4411H71.2687L68.7822 86H66.0848ZM81.7884 86V72.9091H84.5562V78.3104H90.1748V72.9091H92.9361V86H90.1748V80.5923H84.5562V86H81.7884ZM95.2181 86V72.9091H104.039V75.1911H97.9859V78.3104H103.585V80.5923H97.9859V83.718H104.065V86H95.2181ZM106.24 86V72.9091H111.404C112.393 72.9091 113.237 73.0859 113.936 73.4396C114.639 73.7891 115.174 74.2855 115.54 74.929C115.911 75.5682 116.096 76.3203 116.096 77.1854C116.096 78.0547 115.909 78.8026 115.534 79.429C115.159 80.0511 114.615 80.5284 113.904 80.8608C113.196 81.1932 112.34 81.3594 111.334 81.3594H107.876V79.1349H110.887C111.415 79.1349 111.854 79.0625 112.203 78.9176C112.553 78.7727 112.813 78.5554 112.983 78.2656C113.158 77.9759 113.245 77.6158 113.245 77.1854C113.245 76.7507 113.158 76.3842 112.983 76.0859C112.813 75.7876 112.551 75.5618 112.197 75.4084C111.848 75.2507 111.406 75.1719 110.874 75.1719H109.007V86H106.24ZM113.309 80.0426L116.563 86H113.507L110.324 80.0426H113.309ZM118.052 86V72.9091H126.873V75.1911H120.82V78.3104H126.419V80.5923H120.82V83.718H126.899V86H118.052Z" fill="black"/>
<rect x="51.5002" y="63.5" width="87" height="32" rx="16" stroke="black"/>
<path d="M51 16L41 10.2265V21.7735L51 16ZM8.5 17H42V15H8.5V17Z" fill="black"/>
<path d="M173 18L163 12.2265V23.7735L173 18ZM138 19H164V17H138V19Z" fill="black"/>
<path d="M168 79L158 73.2265V84.7735L168 79ZM138 80H159V78H138V80Z" fill="black"/>
<path d="M29.4991 113.5L30.4991 113.5L30.4991 113.5L29.4991 113.5ZM39.4991 123.5L39.4991 124.5L39.4991 124.5L39.4991 123.5ZM263.499 123.5L253.499 117.726L253.499 129.274L263.499 123.5ZM28.4992 68.5L28.4991 113.5L30.4991 113.5L30.4992 68.5L28.4992 68.5ZM39.4991 124.5L254.499 124.5L254.499 122.5L39.4991 122.5L39.4991 124.5ZM28.4991 113.5C28.4991 119.575 33.424 124.5 39.4991 124.5L39.4991 122.5C34.5286 122.5 30.4991 118.471 30.4991 113.5L28.4991 113.5Z" fill="black"/>
<path d="M559.999 123.5L549.999 117.726V129.274L559.999 123.5ZM289.499 124.5L550.999 124.5V122.5L289.499 122.5V124.5Z" fill="black"/>
<path d="M330.999 80.5L320.999 74.7265V86.2735L330.999 80.5ZM271.999 124.5H293.499V122.5H271.999V124.5ZM304.499 113.5V90.5H302.499V113.5H304.499ZM313.499 81.5H321.999V79.5H313.499V81.5ZM304.499 90.5C304.499 85.5294 308.529 81.5 313.499 81.5V79.5C307.424 79.5 302.499 84.4249 302.499 90.5H304.499ZM293.499 124.5C299.574 124.5 304.499 119.575 304.499 113.5H302.499C302.499 118.471 298.47 122.5 293.499 122.5V124.5Z" fill="black"/>
<path d="M289 123.5L279 117.726V129.274L289 123.5ZM220 80H237.5V78H220V80ZM246.5 89V113.5H248.5V89H246.5ZM257.5 124.5H280V122.5H257.5V124.5ZM246.5 113.5C246.5 119.575 251.425 124.5 257.5 124.5V122.5C252.529 122.5 248.5 118.471 248.5 113.5H246.5ZM237.5 80C242.471 80 246.5 84.0294 246.5 89H248.5C248.5 82.9249 243.575 78 237.5 78V80Z" fill="black"/>
<path d="M560 123.5L550 117.726V129.274L560 123.5ZM491 80H508.5V78H491V80ZM517.5 89V113.5H519.5V89H517.5ZM528.5 124.5H551V122.5H528.5V124.5ZM517.5 113.5C517.5 119.575 522.425 124.5 528.5 124.5V122.5C523.53 122.5 519.5 118.471 519.5 113.5H517.5ZM508.5 80C513.471 80 517.5 84.0294 517.5 89H519.5C519.5 82.9249 514.575 78 508.5 78V80Z" fill="black"/>
<path d="M290 18L280 12.2265L280 23.7735L290 18ZM253 19L281 19L281 17L253 17L253 19Z" fill="black"/>
<path d="M277.499 49.5L287.499 55.2735V43.7265L277.499 49.5ZM490.999 19H530.999V17H490.999V19ZM539.999 28V39.5H541.999V28H539.999ZM530.999 48.5H286.499V50.5H530.999V48.5ZM539.999 39.5C539.999 44.4706 535.97 48.5 530.999 48.5V50.5C537.074 50.5 541.999 45.5751 541.999 39.5H539.999ZM530.999 19C535.97 19 539.999 23.0294 539.999 28H541.999C541.999 21.9249 537.074 17 530.999 17V19Z" fill="black"/>
<path d="M51.5 80.002L41.5 74.2285V85.7755L51.5 80.002ZM288.5 48.5H39.5V50.5H288.5V48.5ZM28.5 59.5V70.002H30.5V59.5H28.5ZM39.5 81.002H42.5V79.002H39.5V81.002ZM28.5 70.002C28.5 76.0771 33.4249 81.002 39.5 81.002V79.002C34.5294 79.002 30.5 74.9726 30.5 70.002H28.5ZM39.5 48.5C33.4249 48.5 28.5 53.4249 28.5 59.5H30.5C30.5 54.5294 34.5294 50.5 39.5 50.5V48.5Z" fill="black"/>
</svg>
