<svg width="568" height="229" viewBox="0 0 568 229" fill="none" xmlns="http://www.w3.org/2000/svg">
<circle cx="4" cy="16" r="3.5" stroke="black"/>
<circle cx="564.001" cy="222" r="3.5" stroke="black"/>
<path d="M66.0848 23L62.339 9.90909H65.3625L67.5294 19.005H67.638L70.0287 9.90909H72.6174L75.0017 19.0241H75.1167L77.2836 9.90909H80.3071L76.5613 23H73.8639L71.371 14.4411H71.2687L68.7822 23H66.0848ZM84.5562 9.90909V23H81.7884V9.90909H84.5562ZM86.3348 12.1911V9.90909H97.0862V12.1911H93.0784V23H90.3426V12.1911H86.3348ZM98.8568 23V9.90909H101.625V15.3104H107.243V9.90909H110.005V23H107.243V17.5923H101.625V23H98.8568Z" fill="black"/>
<rect x="51.5002" y="0.5" width="72" height="32" rx="16" stroke="black"/>
<path d="M295.522 23.1918C294.516 23.1918 293.651 22.9787 292.927 22.5526C292.207 22.1222 291.653 21.5256 291.265 20.7628C290.881 20 290.69 19.1222 290.69 18.1293C290.69 17.1236 290.884 16.2415 291.271 15.483C291.663 14.7202 292.219 14.1257 292.94 13.6996C293.66 13.2692 294.516 13.054 295.509 13.054C296.366 13.054 297.116 13.2095 297.759 13.5206C298.403 13.8317 298.912 14.2685 299.287 14.831C299.662 15.3935 299.869 16.054 299.907 16.8125H297.337C297.265 16.3224 297.073 15.9283 296.762 15.63C296.455 15.3274 296.053 15.1761 295.554 15.1761C295.132 15.1761 294.763 15.2912 294.448 15.5213C294.137 15.7472 293.894 16.0774 293.719 16.5121C293.545 16.9467 293.457 17.473 293.457 18.0909C293.457 18.7173 293.543 19.25 293.713 19.6889C293.888 20.1278 294.133 20.4624 294.448 20.6925C294.763 20.9226 295.132 21.0376 295.554 21.0376C295.865 21.0376 296.144 20.9737 296.391 20.8459C296.643 20.718 296.849 20.5327 297.011 20.2898C297.178 20.0426 297.286 19.7464 297.337 19.4013H299.907C299.864 20.1513 299.66 20.8118 299.293 21.3828C298.931 21.9496 298.43 22.3928 297.791 22.7124C297.152 23.032 296.396 23.1918 295.522 23.1918ZM306.086 23.1918C305.094 23.1918 304.235 22.9808 303.51 22.5589C302.79 22.1328 302.234 21.5405 301.842 20.782C301.45 20.0192 301.254 19.1349 301.254 18.1293C301.254 17.1151 301.45 16.2287 301.842 15.4702C302.234 14.7074 302.79 14.1151 303.51 13.6932C304.235 13.267 305.094 13.054 306.086 13.054C307.079 13.054 307.936 13.267 308.656 13.6932C309.38 14.1151 309.939 14.7074 310.331 15.4702C310.723 16.2287 310.919 17.1151 310.919 18.1293C310.919 19.1349 310.723 20.0192 310.331 20.782C309.939 21.5405 309.38 22.1328 308.656 22.5589C307.936 22.9808 307.079 23.1918 306.086 23.1918ZM306.099 21.0824C306.551 21.0824 306.928 20.9545 307.231 20.6989C307.533 20.4389 307.761 20.0852 307.915 19.6378C308.072 19.1903 308.151 18.6811 308.151 18.1101C308.151 17.5391 308.072 17.0298 307.915 16.5824C307.761 16.1349 307.533 15.7812 307.231 15.5213C306.928 15.2614 306.551 15.1314 306.099 15.1314C305.643 15.1314 305.26 15.2614 304.949 15.5213C304.642 15.7812 304.41 16.1349 304.252 16.5824C304.099 17.0298 304.022 17.5391 304.022 18.1101C304.022 18.6811 304.099 19.1903 304.252 19.6378C304.41 20.0852 304.642 20.4389 304.949 20.6989C305.26 20.9545 305.643 21.0824 306.099 21.0824ZM312.689 23V13.1818H315.285V14.9141H315.4C315.604 14.3388 315.945 13.8849 316.422 13.5526C316.9 13.2202 317.471 13.054 318.135 13.054C318.809 13.054 319.382 13.2223 319.855 13.5589C320.328 13.8913 320.643 14.343 320.801 14.9141H320.903C321.103 14.3516 321.466 13.902 321.99 13.5653C322.518 13.2244 323.143 13.054 323.863 13.054C324.779 13.054 325.523 13.3459 326.094 13.9297C326.669 14.5092 326.956 15.3317 326.956 16.397V23H324.24V16.9339C324.24 16.3885 324.095 15.9794 323.805 15.7067C323.515 15.4339 323.153 15.2976 322.719 15.2976C322.224 15.2976 321.839 15.4553 321.562 15.7706C321.285 16.0817 321.146 16.4929 321.146 17.0043V23H318.506V16.8764C318.506 16.3949 318.368 16.0114 318.091 15.7259C317.818 15.4403 317.458 15.2976 317.01 15.2976C316.708 15.2976 316.435 15.3743 316.192 15.5277C315.954 15.6768 315.764 15.8878 315.623 16.1605C315.483 16.429 315.412 16.7443 315.412 17.1065V23H312.689ZM329.107 23V13.1818H331.703V14.9141H331.818C332.022 14.3388 332.363 13.8849 332.84 13.5526C333.318 13.2202 333.889 13.054 334.553 13.054C335.227 13.054 335.8 13.2223 336.273 13.5589C336.746 13.8913 337.061 14.343 337.219 14.9141H337.321C337.521 14.3516 337.884 13.902 338.408 13.5653C338.936 13.2244 339.561 13.054 340.281 13.054C341.197 13.054 341.94 13.3459 342.512 13.9297C343.087 14.5092 343.374 15.3317 343.374 16.397V23H340.658V16.9339C340.658 16.3885 340.513 15.9794 340.223 15.7067C339.933 15.4339 339.571 15.2976 339.137 15.2976C338.642 15.2976 338.257 15.4553 337.98 15.7706C337.703 16.0817 337.564 16.4929 337.564 17.0043V23H334.924V16.8764C334.924 16.3949 334.786 16.0114 334.509 15.7259C334.236 15.4403 333.876 15.2976 333.428 15.2976C333.126 15.2976 332.853 15.3743 332.61 15.5277C332.372 15.6768 332.182 15.8878 332.041 16.1605C331.901 16.429 331.83 16.7443 331.83 17.1065V23H329.107ZM349.961 23.1918C348.969 23.1918 348.11 22.9808 347.385 22.5589C346.665 22.1328 346.109 21.5405 345.717 20.782C345.325 20.0192 345.129 19.1349 345.129 18.1293C345.129 17.1151 345.325 16.2287 345.717 15.4702C346.109 14.7074 346.665 14.1151 347.385 13.6932C348.11 13.267 348.969 13.054 349.961 13.054C350.954 13.054 351.811 13.267 352.531 13.6932C353.255 14.1151 353.814 14.7074 354.206 15.4702C354.598 16.2287 354.794 17.1151 354.794 18.1293C354.794 19.1349 354.598 20.0192 354.206 20.782C353.814 21.5405 353.255 22.1328 352.531 22.5589C351.811 22.9808 350.954 23.1918 349.961 23.1918ZM349.974 21.0824C350.426 21.0824 350.803 20.9545 351.106 20.6989C351.408 20.4389 351.636 20.0852 351.79 19.6378C351.947 19.1903 352.026 18.6811 352.026 18.1101C352.026 17.5391 351.947 17.0298 351.79 16.5824C351.636 16.1349 351.408 15.7812 351.106 15.5213C350.803 15.2614 350.426 15.1314 349.974 15.1314C349.518 15.1314 349.135 15.2614 348.824 15.5213C348.517 15.7812 348.285 16.1349 348.127 16.5824C347.974 17.0298 347.897 17.5391 347.897 18.1101C347.897 18.6811 347.974 19.1903 348.127 19.6378C348.285 20.0852 348.517 20.4389 348.824 20.6989C349.135 20.9545 349.518 21.0824 349.974 21.0824ZM359.287 17.3239V23H356.564V13.1818H359.16V14.9141H359.275C359.492 14.343 359.856 13.8913 360.368 13.5589C360.879 13.2223 361.499 13.054 362.228 13.054C362.91 13.054 363.504 13.2031 364.011 13.5014C364.518 13.7997 364.912 14.2259 365.194 14.7798C365.475 15.3295 365.616 15.9858 365.616 16.7486V23H362.893V17.2344C362.897 16.6335 362.743 16.1648 362.432 15.8281C362.121 15.4872 361.693 15.3168 361.148 15.3168C360.781 15.3168 360.457 15.3956 360.176 15.5533C359.899 15.7109 359.682 15.9411 359.524 16.2436C359.371 16.5419 359.292 16.902 359.287 17.3239ZM373.879 16.544V18.7045H367.909V16.544H373.879ZM381.421 13.1818V15.2273H375.509V13.1818H381.421ZM376.851 10.8295H379.574V19.983C379.574 20.2344 379.613 20.4304 379.689 20.571C379.766 20.7074 379.872 20.8033 380.009 20.8587C380.149 20.9141 380.311 20.9418 380.495 20.9418C380.622 20.9418 380.75 20.9311 380.878 20.9098C381.006 20.8842 381.104 20.8651 381.172 20.8523L381.6 22.8786C381.464 22.9212 381.272 22.9702 381.025 23.0256C380.778 23.0852 380.478 23.1214 380.124 23.1342C379.468 23.1598 378.892 23.0724 378.398 22.8722C377.908 22.6719 377.527 22.3608 377.254 21.9389C376.981 21.517 376.847 20.9844 376.851 20.3409V10.8295ZM385.995 23.1854C385.369 23.1854 384.81 23.0767 384.32 22.8594C383.83 22.6378 383.442 22.3118 383.157 21.8814C382.876 21.4467 382.735 20.9055 382.735 20.2578C382.735 19.7124 382.835 19.2543 383.035 18.8835C383.236 18.5128 383.509 18.2145 383.854 17.9886C384.199 17.7628 384.591 17.5923 385.03 17.4773C385.473 17.3622 385.937 17.2812 386.423 17.2344C386.994 17.1747 387.455 17.1193 387.804 17.0682C388.153 17.0128 388.407 16.9318 388.565 16.8253C388.722 16.7187 388.801 16.5611 388.801 16.3523V16.3139C388.801 15.9091 388.673 15.5959 388.418 15.3743C388.166 15.1527 387.808 15.0419 387.344 15.0419C386.854 15.0419 386.464 15.1506 386.174 15.3679C385.884 15.581 385.692 15.8494 385.599 16.1733L383.08 15.9688C383.208 15.3722 383.459 14.8565 383.834 14.4219C384.209 13.983 384.693 13.6463 385.285 13.4119C385.882 13.1733 386.572 13.054 387.357 13.054C387.902 13.054 388.424 13.1179 388.923 13.2457C389.425 13.3736 389.871 13.5717 390.259 13.8402C390.651 14.1087 390.959 14.4538 391.185 14.8757C391.411 15.2933 391.524 15.794 391.524 16.3778V23H388.942V21.6385H388.865C388.707 21.9453 388.496 22.2159 388.232 22.4503C387.968 22.6804 387.651 22.8615 387.28 22.9936C386.909 23.1214 386.481 23.1854 385.995 23.1854ZM386.775 21.3061C387.175 21.3061 387.529 21.2273 387.836 21.0696C388.143 20.9077 388.384 20.6903 388.558 20.4176C388.733 20.1449 388.82 19.8359 388.82 19.4908V18.4489C388.735 18.5043 388.618 18.5554 388.469 18.6023C388.324 18.6449 388.16 18.6854 387.977 18.7237C387.793 18.7578 387.61 18.7898 387.427 18.8196C387.244 18.8452 387.077 18.8686 386.928 18.8899C386.609 18.9368 386.33 19.0114 386.091 19.1136C385.852 19.2159 385.667 19.3544 385.535 19.5291C385.403 19.6996 385.337 19.9126 385.337 20.1683C385.337 20.5391 385.471 20.8224 385.739 21.0185C386.012 21.2102 386.357 21.3061 386.775 21.3061ZM393.688 23V9.90909H396.411V14.831H396.494C396.613 14.5668 396.786 14.2983 397.012 14.0256C397.242 13.7486 397.54 13.5185 397.907 13.3352C398.277 13.1477 398.738 13.054 399.287 13.054C400.003 13.054 400.664 13.2415 401.269 13.6165C401.874 13.9872 402.358 14.5476 402.72 15.2976C403.082 16.0433 403.263 16.9787 403.263 18.1037C403.263 19.1989 403.086 20.1236 402.733 20.8778C402.383 21.6278 401.906 22.1967 401.301 22.5845C400.7 22.968 400.027 23.1598 399.281 23.1598C398.752 23.1598 398.303 23.0724 397.932 22.8977C397.566 22.723 397.265 22.5036 397.031 22.2393C396.796 21.9709 396.618 21.7003 396.494 21.4276H396.372V23H393.688ZM396.353 18.0909C396.353 18.6747 396.434 19.1839 396.596 19.6186C396.758 20.0533 396.993 20.392 397.299 20.6349C397.606 20.8736 397.979 20.9929 398.418 20.9929C398.861 20.9929 399.236 20.8714 399.543 20.6286C399.85 20.3814 400.082 20.0405 400.24 19.6058C400.402 19.1669 400.483 18.6619 400.483 18.0909C400.483 17.5241 400.404 17.0256 400.246 16.5952C400.088 16.1648 399.856 15.8281 399.549 15.5852C399.243 15.3423 398.865 15.2209 398.418 15.2209C397.975 15.2209 397.6 15.3381 397.293 15.5724C396.99 15.8068 396.758 16.1392 396.596 16.5696C396.434 17 396.353 17.5071 396.353 18.0909ZM407.803 9.90909V23H405.08V9.90909H407.803ZM414.459 23.1918C413.449 23.1918 412.58 22.9872 411.851 22.5781C411.126 22.1648 410.568 21.581 410.176 20.8267C409.784 20.0682 409.588 19.1712 409.588 18.1357C409.588 17.1257 409.784 16.2393 410.176 15.4766C410.568 14.7138 411.12 14.1193 411.832 13.6932C412.548 13.267 413.387 13.054 414.35 13.054C414.998 13.054 415.601 13.1584 416.159 13.3672C416.722 13.5717 417.212 13.8807 417.629 14.294C418.051 14.7074 418.379 15.2273 418.614 15.8537C418.848 16.4759 418.965 17.2045 418.965 18.0398V18.7876H410.675V17.1001H416.402C416.402 16.7081 416.317 16.3608 416.146 16.0582C415.976 15.7557 415.739 15.5192 415.437 15.3487C415.138 15.174 414.791 15.0866 414.395 15.0866C413.982 15.0866 413.615 15.1825 413.295 15.3743C412.98 15.5618 412.733 15.8153 412.554 16.1349C412.375 16.4503 412.283 16.8018 412.279 17.1896V18.794C412.279 19.2798 412.369 19.6996 412.548 20.0533C412.731 20.407 412.989 20.6797 413.321 20.8714C413.653 21.0632 414.048 21.1591 414.504 21.1591C414.806 21.1591 415.083 21.1165 415.334 21.0312C415.586 20.946 415.801 20.8182 415.98 20.6477C416.159 20.4773 416.295 20.2685 416.389 20.0213L418.908 20.1875C418.78 20.7926 418.518 21.321 418.121 21.7727C417.729 22.2202 417.222 22.5696 416.6 22.821C415.982 23.0682 415.268 23.1918 414.459 23.1918ZM426.859 16.544V18.7045H420.889V16.544H426.859ZM433.654 23.1918C432.644 23.1918 431.775 22.9872 431.046 22.5781C430.322 22.1648 429.763 21.581 429.371 20.8267C428.979 20.0682 428.783 19.1712 428.783 18.1357C428.783 17.1257 428.979 16.2393 429.371 15.4766C429.763 14.7138 430.315 14.1193 431.027 13.6932C431.743 13.267 432.582 13.054 433.545 13.054C434.193 13.054 434.796 13.1584 435.354 13.3672C435.917 13.5717 436.407 13.8807 436.825 14.294C437.246 14.7074 437.575 15.2273 437.809 15.8537C438.043 16.4759 438.16 17.2045 438.16 18.0398V18.7876H429.87V17.1001H435.597C435.597 16.7081 435.512 16.3608 435.342 16.0582C435.171 15.7557 434.935 15.5192 434.632 15.3487C434.334 15.174 433.986 15.0866 433.59 15.0866C433.177 15.0866 432.81 15.1825 432.491 15.3743C432.175 15.5618 431.928 15.8153 431.749 16.1349C431.57 16.4503 431.479 16.8018 431.474 17.1896V18.794C431.474 19.2798 431.564 19.6996 431.743 20.0533C431.926 20.407 432.184 20.6797 432.516 20.8714C432.849 21.0632 433.243 21.1591 433.699 21.1591C434.001 21.1591 434.278 21.1165 434.53 21.0312C434.781 20.946 434.996 20.8182 435.175 20.6477C435.354 20.4773 435.491 20.2685 435.584 20.0213L438.103 20.1875C437.975 20.7926 437.713 21.321 437.317 21.7727C436.925 22.2202 436.418 22.5696 435.795 22.821C435.178 23.0682 434.464 23.1918 433.654 23.1918ZM442.037 13.1818L443.84 16.6143L445.687 13.1818H448.48L445.636 18.0909L448.557 23H445.777L443.84 19.6058L441.935 23H439.122L442.037 18.0909L439.225 13.1818H442.037ZM450.098 26.6818V13.1818H452.782V14.831H452.904C453.023 14.5668 453.196 14.2983 453.421 14.0256C453.652 13.7486 453.95 13.5185 454.316 13.3352C454.687 13.1477 455.147 13.054 455.697 13.054C456.413 13.054 457.073 13.2415 457.679 13.6165C458.284 13.9872 458.767 14.5476 459.13 15.2976C459.492 16.0433 459.673 16.9787 459.673 18.1037C459.673 19.1989 459.496 20.1236 459.142 20.8778C458.793 21.6278 458.316 22.1967 457.711 22.5845C457.11 22.968 456.436 23.1598 455.691 23.1598C455.162 23.1598 454.713 23.0724 454.342 22.8977C453.975 22.723 453.675 22.5036 453.441 22.2393C453.206 21.9709 453.027 21.7003 452.904 21.4276H452.821V26.6818H450.098ZM452.763 18.0909C452.763 18.6747 452.844 19.1839 453.006 19.6186C453.168 20.0533 453.402 20.392 453.709 20.6349C454.016 20.8736 454.389 20.9929 454.828 20.9929C455.271 20.9929 455.646 20.8714 455.953 20.6286C456.26 20.3814 456.492 20.0405 456.649 19.6058C456.811 19.1669 456.892 18.6619 456.892 18.0909C456.892 17.5241 456.814 17.0256 456.656 16.5952C456.498 16.1648 456.266 15.8281 455.959 15.5852C455.652 15.3423 455.275 15.2209 454.828 15.2209C454.385 15.2209 454.01 15.3381 453.703 15.5724C453.4 15.8068 453.168 16.1392 453.006 16.5696C452.844 17 452.763 17.5071 452.763 18.0909ZM461.488 23V13.1818H464.128V14.8949H464.23C464.409 14.2855 464.71 13.8253 465.132 13.5142C465.554 13.1989 466.039 13.0412 466.589 13.0412C466.725 13.0412 466.872 13.0497 467.03 13.0668C467.188 13.0838 467.326 13.1072 467.446 13.1371V15.5533C467.318 15.5149 467.141 15.4808 466.915 15.451C466.689 15.4212 466.483 15.4062 466.295 15.4062C465.895 15.4062 465.537 15.4936 465.221 15.6683C464.91 15.8388 464.663 16.0774 464.48 16.3842C464.301 16.6911 464.211 17.0447 464.211 17.4453V23H461.488ZM472.871 23.1918C471.861 23.1918 470.992 22.9872 470.263 22.5781C469.539 22.1648 468.98 21.581 468.588 20.8267C468.196 20.0682 468 19.1712 468 18.1357C468 17.1257 468.196 16.2393 468.588 15.4766C468.98 14.7138 469.532 14.1193 470.244 13.6932C470.96 13.267 471.799 13.054 472.762 13.054C473.41 13.054 474.013 13.1584 474.571 13.3672C475.134 13.5717 475.624 13.8807 476.041 14.294C476.463 14.7074 476.791 15.2273 477.026 15.8537C477.26 16.4759 477.377 17.2045 477.377 18.0398V18.7876H469.087V17.1001H474.814C474.814 16.7081 474.729 16.3608 474.558 16.0582C474.388 15.7557 474.151 15.5192 473.849 15.3487C473.551 15.174 473.203 15.0866 472.807 15.0866C472.394 15.0866 472.027 15.1825 471.708 15.3743C471.392 15.5618 471.145 15.8153 470.966 16.1349C470.787 16.4503 470.695 16.8018 470.691 17.1896V18.794C470.691 19.2798 470.781 19.6996 470.96 20.0533C471.143 20.407 471.401 20.6797 471.733 20.8714C472.065 21.0632 472.46 21.1591 472.916 21.1591C473.218 21.1591 473.495 21.1165 473.747 21.0312C473.998 20.946 474.213 20.8182 474.392 20.6477C474.571 20.4773 474.708 20.2685 474.801 20.0213L477.32 20.1875C477.192 20.7926 476.93 21.321 476.534 21.7727C476.141 22.2202 475.634 22.5696 475.012 22.821C474.394 23.0682 473.681 23.1918 472.871 23.1918ZM487.323 15.9815L484.83 16.1349C484.788 15.9219 484.696 15.7301 484.556 15.5597C484.415 15.3849 484.23 15.2464 483.999 15.1442C483.774 15.0376 483.503 14.9844 483.188 14.9844C482.766 14.9844 482.41 15.0739 482.12 15.2528C481.83 15.4276 481.686 15.6619 481.686 15.956C481.686 16.1903 481.779 16.3885 481.967 16.5504C482.154 16.7124 482.476 16.8423 482.932 16.9403L484.709 17.2983C485.664 17.4943 486.375 17.8097 486.844 18.2443C487.313 18.679 487.547 19.25 487.547 19.9574C487.547 20.6009 487.357 21.1655 486.978 21.6513C486.603 22.1371 486.088 22.5163 485.431 22.7891C484.779 23.0575 484.027 23.1918 483.175 23.1918C481.875 23.1918 480.84 22.9212 480.068 22.38C479.301 21.8345 478.852 21.093 478.72 20.1555L481.398 20.0149C481.479 20.4112 481.675 20.7138 481.986 20.9226C482.297 21.1271 482.695 21.2294 483.181 21.2294C483.659 21.2294 484.042 21.1378 484.332 20.9545C484.626 20.767 484.775 20.5263 484.779 20.2322C484.775 19.9851 484.671 19.7827 484.466 19.625C484.262 19.4631 483.946 19.3395 483.52 19.2543L481.82 18.9155C480.861 18.7237 480.147 18.3913 479.678 17.9183C479.214 17.4453 478.982 16.8423 478.982 16.1094C478.982 15.4787 479.152 14.9354 479.493 14.4794C479.838 14.0234 480.322 13.6719 480.944 13.4247C481.57 13.1776 482.303 13.054 483.143 13.054C484.383 13.054 485.359 13.3161 486.07 13.8402C486.786 14.3643 487.204 15.0781 487.323 15.9815ZM497.431 15.9815L494.938 16.1349C494.895 15.9219 494.804 15.7301 494.663 15.5597C494.522 15.3849 494.337 15.2464 494.107 15.1442C493.881 15.0376 493.61 14.9844 493.295 14.9844C492.873 14.9844 492.517 15.0739 492.228 15.2528C491.938 15.4276 491.793 15.6619 491.793 15.956C491.793 16.1903 491.887 16.3885 492.074 16.5504C492.262 16.7124 492.583 16.8423 493.039 16.9403L494.816 17.2983C495.771 17.4943 496.483 17.8097 496.951 18.2443C497.42 18.679 497.654 19.25 497.654 19.9574C497.654 20.6009 497.465 21.1655 497.086 21.6513C496.711 22.1371 496.195 22.5163 495.539 22.7891C494.887 23.0575 494.135 23.1918 493.282 23.1918C491.983 23.1918 490.947 22.9212 490.176 22.38C489.409 21.8345 488.959 21.093 488.827 20.1555L491.505 20.0149C491.586 20.4112 491.782 20.7138 492.093 20.9226C492.404 21.1271 492.803 21.2294 493.289 21.2294C493.766 21.2294 494.149 21.1378 494.439 20.9545C494.733 20.767 494.882 20.5263 494.887 20.2322C494.882 19.9851 494.778 19.7827 494.573 19.625C494.369 19.4631 494.054 19.3395 493.627 19.2543L491.927 18.9155C490.968 18.7237 490.255 18.3913 489.786 17.9183C489.321 17.4453 489.089 16.8423 489.089 16.1094C489.089 15.4787 489.26 14.9354 489.6 14.4794C489.946 14.0234 490.429 13.6719 491.051 13.4247C491.678 13.1776 492.411 13.054 493.25 13.054C494.49 13.054 495.466 13.3161 496.178 13.8402C496.894 14.3643 497.311 15.0781 497.431 15.9815ZM499.369 23V13.1818H502.092V23H499.369ZM500.737 11.9162C500.332 11.9162 499.985 11.782 499.695 11.5135C499.41 11.2408 499.267 10.9148 499.267 10.5355C499.267 10.1605 499.41 9.83878 499.695 9.57031C499.985 9.29758 500.332 9.16122 500.737 9.16122C501.142 9.16122 501.487 9.29758 501.773 9.57031C502.062 9.83878 502.207 10.1605 502.207 10.5355C502.207 10.9148 502.062 11.2408 501.773 11.5135C501.487 11.782 501.142 11.9162 500.737 11.9162ZM508.709 23.1918C507.717 23.1918 506.858 22.9808 506.134 22.5589C505.413 22.1328 504.857 21.5405 504.465 20.782C504.073 20.0192 503.877 19.1349 503.877 18.1293C503.877 17.1151 504.073 16.2287 504.465 15.4702C504.857 14.7074 505.413 14.1151 506.134 13.6932C506.858 13.267 507.717 13.054 508.709 13.054C509.702 13.054 510.559 13.267 511.279 13.6932C512.004 14.1151 512.562 14.7074 512.954 15.4702C513.346 16.2287 513.542 17.1151 513.542 18.1293C513.542 19.1349 513.346 20.0192 512.954 20.782C512.562 21.5405 512.004 22.1328 511.279 22.5589C510.559 22.9808 509.702 23.1918 508.709 23.1918ZM508.722 21.0824C509.174 21.0824 509.551 20.9545 509.854 20.6989C510.156 20.4389 510.384 20.0852 510.538 19.6378C510.695 19.1903 510.774 18.6811 510.774 18.1101C510.774 17.5391 510.695 17.0298 510.538 16.5824C510.384 16.1349 510.156 15.7812 509.854 15.5213C509.551 15.2614 509.174 15.1314 508.722 15.1314C508.266 15.1314 507.883 15.2614 507.572 15.5213C507.265 15.7812 507.033 16.1349 506.875 16.5824C506.722 17.0298 506.645 17.5391 506.645 18.1101C506.645 18.6811 506.722 19.1903 506.875 19.6378C507.033 20.0852 507.265 20.4389 507.572 20.6989C507.883 20.9545 508.266 21.0824 508.722 21.0824ZM518.035 17.3239V23H515.312V13.1818H517.908V14.9141H518.023C518.24 14.343 518.604 13.8913 519.116 13.5589C519.627 13.2223 520.247 13.054 520.976 13.054C521.658 13.054 522.252 13.2031 522.759 13.5014C523.266 13.7997 523.66 14.2259 523.942 14.7798C524.223 15.3295 524.364 15.9858 524.364 16.7486V23H521.641V17.2344C521.645 16.6335 521.491 16.1648 521.18 15.8281C520.869 15.4872 520.441 15.3168 519.896 15.3168C519.529 15.3168 519.205 15.3956 518.924 15.5533C518.647 15.7109 518.43 15.9411 518.272 16.2436C518.119 16.5419 518.04 16.902 518.035 17.3239Z" fill="black"/>
<rect x="285.499" y="0.5" width="244" height="32" stroke="black"/>
<path d="M302.574 125.682V120.428H302.491C302.363 120.7 302.182 120.971 301.947 121.239C301.717 121.504 301.417 121.723 301.046 121.898C300.68 122.072 300.232 122.16 299.704 122.16C298.958 122.16 298.283 121.968 297.678 121.585C297.077 121.197 296.599 120.628 296.246 119.878C295.896 119.124 295.722 118.199 295.722 117.104C295.722 115.979 295.903 115.043 296.265 114.298C296.627 113.548 297.109 112.987 297.709 112.616C298.315 112.241 298.977 112.054 299.697 112.054C300.247 112.054 300.705 112.148 301.072 112.335C301.442 112.518 301.741 112.749 301.967 113.026C302.197 113.298 302.371 113.567 302.491 113.831H302.606V112.182H305.29V125.682H302.574ZM300.567 119.993C301.006 119.993 301.376 119.874 301.679 119.635C301.986 119.392 302.22 119.053 302.382 118.619C302.548 118.184 302.631 117.675 302.631 117.091C302.631 116.507 302.55 116 302.388 115.57C302.227 115.139 301.992 114.807 301.685 114.572C301.379 114.338 301.006 114.221 300.567 114.221C300.119 114.221 299.742 114.342 299.435 114.585C299.129 114.828 298.896 115.165 298.739 115.595C298.581 116.026 298.502 116.524 298.502 117.091C298.502 117.662 298.581 118.167 298.739 118.606C298.901 119.04 299.133 119.381 299.435 119.629C299.742 119.871 300.119 119.993 300.567 119.993ZM313.773 117.82V112.182H316.496V122H313.881V120.217H313.779C313.558 120.792 313.189 121.254 312.673 121.604C312.162 121.953 311.538 122.128 310.8 122.128C310.144 122.128 309.567 121.979 309.068 121.68C308.57 121.382 308.18 120.958 307.898 120.408C307.621 119.859 307.481 119.2 307.477 118.433V112.182H310.2V117.947C310.204 118.527 310.359 118.985 310.666 119.322C310.973 119.658 311.384 119.827 311.9 119.827C312.228 119.827 312.535 119.752 312.82 119.603C313.106 119.45 313.336 119.224 313.511 118.925C313.69 118.627 313.777 118.259 313.773 117.82ZM321.474 122.185C320.847 122.185 320.289 122.077 319.799 121.859C319.309 121.638 318.921 121.312 318.635 120.881C318.354 120.447 318.214 119.906 318.214 119.258C318.214 118.712 318.314 118.254 318.514 117.884C318.714 117.513 318.987 117.214 319.332 116.989C319.677 116.763 320.069 116.592 320.508 116.477C320.952 116.362 321.416 116.281 321.902 116.234C322.473 116.175 322.933 116.119 323.282 116.068C323.632 116.013 323.885 115.932 324.043 115.825C324.201 115.719 324.28 115.561 324.28 115.352V115.314C324.28 114.909 324.152 114.596 323.896 114.374C323.645 114.153 323.287 114.042 322.822 114.042C322.332 114.042 321.942 114.151 321.652 114.368C321.363 114.581 321.171 114.849 321.077 115.173L318.559 114.969C318.687 114.372 318.938 113.857 319.313 113.422C319.688 112.983 320.172 112.646 320.764 112.412C321.361 112.173 322.051 112.054 322.835 112.054C323.38 112.054 323.902 112.118 324.401 112.246C324.904 112.374 325.349 112.572 325.737 112.84C326.129 113.109 326.438 113.454 326.664 113.876C326.89 114.293 327.003 114.794 327.003 115.378V122H324.42V120.638H324.344C324.186 120.945 323.975 121.216 323.711 121.45C323.447 121.68 323.129 121.862 322.758 121.994C322.388 122.121 321.959 122.185 321.474 122.185ZM322.253 120.306C322.654 120.306 323.008 120.227 323.314 120.07C323.621 119.908 323.862 119.69 324.037 119.418C324.211 119.145 324.299 118.836 324.299 118.491V117.449C324.214 117.504 324.096 117.555 323.947 117.602C323.802 117.645 323.638 117.685 323.455 117.724C323.272 117.758 323.089 117.79 322.905 117.82C322.722 117.845 322.556 117.869 322.407 117.89C322.087 117.937 321.808 118.011 321.569 118.114C321.331 118.216 321.145 118.354 321.013 118.529C320.881 118.7 320.815 118.913 320.815 119.168C320.815 119.539 320.949 119.822 321.218 120.018C321.491 120.21 321.836 120.306 322.253 120.306ZM331.838 108.909V122H329.115V108.909H331.838ZM334.02 122V112.182H336.743V122H334.02ZM335.387 110.916C334.983 110.916 334.635 110.782 334.346 110.513C334.06 110.241 333.917 109.915 333.917 109.536C333.917 109.161 334.06 108.839 334.346 108.57C334.635 108.298 334.983 108.161 335.387 108.161C335.792 108.161 336.137 108.298 336.423 108.57C336.713 108.839 336.858 109.161 336.858 109.536C336.858 109.915 336.713 110.241 336.423 110.513C336.137 110.782 335.792 110.916 335.387 110.916ZM344.204 112.182V114.227H338.144V112.182H344.204ZM339.531 122V111.472C339.531 110.761 339.67 110.17 339.947 109.702C340.228 109.233 340.611 108.881 341.097 108.647C341.583 108.413 342.135 108.295 342.753 108.295C343.17 108.295 343.552 108.327 343.897 108.391C344.246 108.455 344.506 108.513 344.677 108.564L344.191 110.609C344.084 110.575 343.952 110.543 343.795 110.513C343.641 110.484 343.483 110.469 343.322 110.469C342.921 110.469 342.642 110.562 342.484 110.75C342.327 110.933 342.248 111.191 342.248 111.523V122H339.531ZM345.867 122V112.182H348.59V122H345.867ZM347.235 110.916C346.83 110.916 346.483 110.782 346.193 110.513C345.908 110.241 345.765 109.915 345.765 109.536C345.765 109.161 345.908 108.839 346.193 108.57C346.483 108.298 346.83 108.161 347.235 108.161C347.64 108.161 347.985 108.298 348.271 108.57C348.56 108.839 348.705 109.161 348.705 109.536C348.705 109.915 348.56 110.241 348.271 110.513C347.985 110.782 347.64 110.916 347.235 110.916ZM355.246 122.192C354.236 122.192 353.367 121.987 352.638 121.578C351.914 121.165 351.355 120.581 350.963 119.827C350.571 119.068 350.375 118.171 350.375 117.136C350.375 116.126 350.571 115.239 350.963 114.477C351.355 113.714 351.907 113.119 352.619 112.693C353.335 112.267 354.174 112.054 355.137 112.054C355.785 112.054 356.388 112.158 356.946 112.367C357.509 112.572 357.999 112.881 358.416 113.294C358.838 113.707 359.166 114.227 359.401 114.854C359.635 115.476 359.752 116.205 359.752 117.04V117.788H351.462V116.1H357.189C357.189 115.708 357.104 115.361 356.933 115.058C356.763 114.756 356.526 114.519 356.224 114.349C355.926 114.174 355.578 114.087 355.182 114.087C354.769 114.087 354.402 114.183 354.083 114.374C353.767 114.562 353.52 114.815 353.341 115.135C353.162 115.45 353.07 115.802 353.066 116.19V117.794C353.066 118.28 353.156 118.7 353.335 119.053C353.518 119.407 353.776 119.68 354.108 119.871C354.44 120.063 354.835 120.159 355.291 120.159C355.593 120.159 355.87 120.116 356.122 120.031C356.373 119.946 356.588 119.818 356.767 119.648C356.946 119.477 357.083 119.268 357.176 119.021L359.695 119.188C359.567 119.793 359.305 120.321 358.909 120.773C358.516 121.22 358.009 121.57 357.387 121.821C356.769 122.068 356.056 122.192 355.246 122.192ZM365.147 122.16C364.401 122.16 363.726 121.968 363.121 121.585C362.52 121.197 362.043 120.628 361.689 119.878C361.34 119.124 361.165 118.199 361.165 117.104C361.165 115.979 361.346 115.043 361.708 114.298C362.07 113.548 362.552 112.987 363.153 112.616C363.758 112.241 364.421 112.054 365.141 112.054C365.69 112.054 366.149 112.148 366.515 112.335C366.886 112.518 367.184 112.749 367.41 113.026C367.64 113.298 367.815 113.567 367.934 113.831H368.017V108.909H370.734V122H368.049V120.428H367.934C367.806 120.7 367.625 120.971 367.391 121.239C367.161 121.504 366.86 121.723 366.49 121.898C366.123 122.072 365.676 122.16 365.147 122.16ZM366.01 119.993C366.449 119.993 366.82 119.874 367.122 119.635C367.429 119.392 367.664 119.053 367.825 118.619C367.992 118.184 368.075 117.675 368.075 117.091C368.075 116.507 367.994 116 367.832 115.57C367.67 115.139 367.436 114.807 367.129 114.572C366.822 114.338 366.449 114.221 366.01 114.221C365.563 114.221 365.186 114.342 364.879 114.585C364.572 114.828 364.34 115.165 364.182 115.595C364.024 116.026 363.945 116.524 363.945 117.091C363.945 117.662 364.024 118.167 364.182 118.606C364.344 119.04 364.576 119.381 364.879 119.629C365.186 119.871 365.563 119.993 366.01 119.993ZM379.09 115.544V117.705H373.12V115.544H379.09ZM386.632 112.182V114.227H380.72V112.182H386.632ZM382.062 109.83H384.785V118.983C384.785 119.234 384.823 119.43 384.9 119.571C384.977 119.707 385.083 119.803 385.22 119.859C385.36 119.914 385.522 119.942 385.706 119.942C385.833 119.942 385.961 119.931 386.089 119.91C386.217 119.884 386.315 119.865 386.383 119.852L386.811 121.879C386.675 121.921 386.483 121.97 386.236 122.026C385.989 122.085 385.689 122.121 385.335 122.134C384.679 122.16 384.103 122.072 383.609 121.872C383.119 121.672 382.738 121.361 382.465 120.939C382.192 120.517 382.058 119.984 382.062 119.341V109.83ZM391.206 122.185C390.58 122.185 390.021 122.077 389.531 121.859C389.041 121.638 388.653 121.312 388.368 120.881C388.087 120.447 387.946 119.906 387.946 119.258C387.946 118.712 388.046 118.254 388.246 117.884C388.447 117.513 388.719 117.214 389.065 116.989C389.41 116.763 389.802 116.592 390.241 116.477C390.684 116.362 391.148 116.281 391.634 116.234C392.205 116.175 392.665 116.119 393.015 116.068C393.364 116.013 393.618 115.932 393.776 115.825C393.933 115.719 394.012 115.561 394.012 115.352V115.314C394.012 114.909 393.884 114.596 393.629 114.374C393.377 114.153 393.019 114.042 392.555 114.042C392.065 114.042 391.675 114.151 391.385 114.368C391.095 114.581 390.903 114.849 390.81 115.173L388.291 114.969C388.419 114.372 388.67 113.857 389.045 113.422C389.42 112.983 389.904 112.646 390.496 112.412C391.093 112.173 391.783 112.054 392.567 112.054C393.113 112.054 393.635 112.118 394.134 112.246C394.636 112.374 395.082 112.572 395.469 112.84C395.861 113.109 396.17 113.454 396.396 113.876C396.622 114.293 396.735 114.794 396.735 115.378V122H394.153V120.638H394.076C393.918 120.945 393.707 121.216 393.443 121.45C393.179 121.68 392.861 121.862 392.491 121.994C392.12 122.121 391.692 122.185 391.206 122.185ZM391.986 120.306C392.386 120.306 392.74 120.227 393.047 120.07C393.354 119.908 393.594 119.69 393.769 119.418C393.944 119.145 394.031 118.836 394.031 118.491V117.449C393.946 117.504 393.829 117.555 393.68 117.602C393.535 117.645 393.371 117.685 393.187 117.724C393.004 117.758 392.821 117.79 392.638 117.82C392.455 117.845 392.288 117.869 392.139 117.89C391.82 117.937 391.54 118.011 391.302 118.114C391.063 118.216 390.878 118.354 390.746 118.529C390.614 118.7 390.548 118.913 390.548 119.168C390.548 119.539 390.682 119.822 390.95 120.018C391.223 120.21 391.568 120.306 391.986 120.306ZM398.899 122V108.909H401.622V113.831H401.705C401.824 113.567 401.997 113.298 402.223 113.026C402.453 112.749 402.751 112.518 403.118 112.335C403.488 112.148 403.948 112.054 404.498 112.054C405.214 112.054 405.875 112.241 406.48 112.616C407.085 112.987 407.569 113.548 407.931 114.298C408.293 115.043 408.474 115.979 408.474 117.104C408.474 118.199 408.297 119.124 407.944 119.878C407.594 120.628 407.117 121.197 406.512 121.585C405.911 121.968 405.238 122.16 404.492 122.16C403.963 122.16 403.514 122.072 403.143 121.898C402.777 121.723 402.476 121.504 402.242 121.239C402.007 120.971 401.828 120.7 401.705 120.428H401.583V122H398.899ZM401.564 117.091C401.564 117.675 401.645 118.184 401.807 118.619C401.969 119.053 402.203 119.392 402.51 119.635C402.817 119.874 403.19 119.993 403.629 119.993C404.072 119.993 404.447 119.871 404.754 119.629C405.061 119.381 405.293 119.04 405.451 118.606C405.613 118.167 405.694 117.662 405.694 117.091C405.694 116.524 405.615 116.026 405.457 115.595C405.299 115.165 405.067 114.828 404.76 114.585C404.453 114.342 404.076 114.221 403.629 114.221C403.186 114.221 402.811 114.338 402.504 114.572C402.201 114.807 401.969 115.139 401.807 115.57C401.645 116 401.564 116.507 401.564 117.091ZM413.014 108.909V122H410.291V108.909H413.014ZM419.67 122.192C418.66 122.192 417.79 121.987 417.062 121.578C416.337 121.165 415.779 120.581 415.387 119.827C414.995 119.068 414.799 118.171 414.799 117.136C414.799 116.126 414.995 115.239 415.387 114.477C415.779 113.714 416.331 113.119 417.043 112.693C417.759 112.267 418.598 112.054 419.561 112.054C420.209 112.054 420.812 112.158 421.37 112.367C421.933 112.572 422.423 112.881 422.84 113.294C423.262 113.707 423.59 114.227 423.825 114.854C424.059 115.476 424.176 116.205 424.176 117.04V117.788H415.886V116.1H421.613C421.613 115.708 421.528 115.361 421.357 115.058C421.187 114.756 420.95 114.519 420.648 114.349C420.349 114.174 420.002 114.087 419.606 114.087C419.192 114.087 418.826 114.183 418.506 114.374C418.191 114.562 417.944 114.815 417.765 115.135C417.586 115.45 417.494 115.802 417.49 116.19V117.794C417.49 118.28 417.58 118.7 417.759 119.053C417.942 119.407 418.2 119.68 418.532 119.871C418.864 120.063 419.259 120.159 419.714 120.159C420.017 120.159 420.294 120.116 420.545 120.031C420.797 119.946 421.012 119.818 421.191 119.648C421.37 119.477 421.506 119.268 421.6 119.021L424.119 119.188C423.991 119.793 423.729 120.321 423.332 120.773C422.94 121.22 422.433 121.57 421.811 121.821C421.193 122.068 420.479 122.192 419.67 122.192ZM432.07 115.544V117.705H426.1V115.544H432.07ZM437.114 116.324V122H434.391V112.182H436.986V113.914H437.101C437.318 113.343 437.683 112.891 438.194 112.559C438.705 112.222 439.325 112.054 440.054 112.054C440.736 112.054 441.33 112.203 441.837 112.501C442.344 112.8 442.739 113.226 443.02 113.78C443.301 114.33 443.442 114.986 443.442 115.749V122H440.719V116.234C440.723 115.634 440.57 115.165 440.259 114.828C439.947 114.487 439.519 114.317 438.974 114.317C438.607 114.317 438.283 114.396 438.002 114.553C437.725 114.711 437.508 114.941 437.35 115.244C437.197 115.542 437.118 115.902 437.114 116.324ZM448.388 122.185C447.761 122.185 447.203 122.077 446.713 121.859C446.223 121.638 445.835 121.312 445.55 120.881C445.268 120.447 445.128 119.906 445.128 119.258C445.128 118.712 445.228 118.254 445.428 117.884C445.628 117.513 445.901 117.214 446.246 116.989C446.591 116.763 446.983 116.592 447.422 116.477C447.866 116.362 448.33 116.281 448.816 116.234C449.387 116.175 449.847 116.119 450.197 116.068C450.546 116.013 450.8 115.932 450.957 115.825C451.115 115.719 451.194 115.561 451.194 115.352V115.314C451.194 114.909 451.066 114.596 450.81 114.374C450.559 114.153 450.201 114.042 449.736 114.042C449.246 114.042 448.856 114.151 448.567 114.368C448.277 114.581 448.085 114.849 447.991 115.173L445.473 114.969C445.601 114.372 445.852 113.857 446.227 113.422C446.602 112.983 447.086 112.646 447.678 112.412C448.275 112.173 448.965 112.054 449.749 112.054C450.295 112.054 450.817 112.118 451.315 112.246C451.818 112.374 452.263 112.572 452.651 112.84C453.043 113.109 453.352 113.454 453.578 113.876C453.804 114.293 453.917 114.794 453.917 115.378V122H451.334V120.638H451.258C451.1 120.945 450.889 121.216 450.625 121.45C450.361 121.68 450.043 121.862 449.672 121.994C449.302 122.121 448.873 122.185 448.388 122.185ZM449.167 120.306C449.568 120.306 449.922 120.227 450.228 120.07C450.535 119.908 450.776 119.69 450.951 119.418C451.126 119.145 451.213 118.836 451.213 118.491V117.449C451.128 117.504 451.01 117.555 450.861 117.602C450.716 117.645 450.552 117.685 450.369 117.724C450.186 117.758 450.003 117.79 449.819 117.82C449.636 117.845 449.47 117.869 449.321 117.89C449.001 117.937 448.722 118.011 448.483 118.114C448.245 118.216 448.059 118.354 447.927 118.529C447.795 118.7 447.729 118.913 447.729 119.168C447.729 119.539 447.863 119.822 448.132 120.018C448.405 120.21 448.75 120.306 449.167 120.306ZM456.029 122V112.182H458.624V113.914H458.74C458.944 113.339 459.285 112.885 459.762 112.553C460.24 112.22 460.811 112.054 461.475 112.054C462.149 112.054 462.722 112.222 463.195 112.559C463.668 112.891 463.983 113.343 464.141 113.914H464.243C464.443 113.352 464.806 112.902 465.33 112.565C465.858 112.224 466.482 112.054 467.203 112.054C468.119 112.054 468.862 112.346 469.433 112.93C470.009 113.509 470.296 114.332 470.296 115.397V122H467.58V115.934C467.58 115.388 467.435 114.979 467.145 114.707C466.855 114.434 466.493 114.298 466.058 114.298C465.564 114.298 465.178 114.455 464.901 114.771C464.624 115.082 464.486 115.493 464.486 116.004V122H461.846V115.876C461.846 115.395 461.708 115.011 461.431 114.726C461.158 114.44 460.798 114.298 460.35 114.298C460.048 114.298 459.775 114.374 459.532 114.528C459.293 114.677 459.104 114.888 458.963 115.161C458.823 115.429 458.752 115.744 458.752 116.107V122H456.029ZM476.922 122.192C475.912 122.192 475.042 121.987 474.314 121.578C473.589 121.165 473.031 120.581 472.639 119.827C472.247 119.068 472.051 118.171 472.051 117.136C472.051 116.126 472.247 115.239 472.639 114.477C473.031 113.714 473.583 113.119 474.295 112.693C475.01 112.267 475.85 112.054 476.813 112.054C477.461 112.054 478.064 112.158 478.622 112.367C479.184 112.572 479.675 112.881 480.092 113.294C480.514 113.707 480.842 114.227 481.077 114.854C481.311 115.476 481.428 116.205 481.428 117.04V117.788H473.138V116.1H478.865C478.865 115.708 478.78 115.361 478.609 115.058C478.439 114.756 478.202 114.519 477.9 114.349C477.601 114.174 477.254 114.087 476.858 114.087C476.444 114.087 476.078 114.183 475.758 114.374C475.443 114.562 475.196 114.815 475.017 115.135C474.838 115.45 474.746 115.802 474.742 116.19V117.794C474.742 118.28 474.831 118.7 475.01 119.053C475.194 119.407 475.452 119.68 475.784 119.871C476.116 120.063 476.51 120.159 476.966 120.159C477.269 120.159 477.546 120.116 477.797 120.031C478.049 119.946 478.264 119.818 478.443 119.648C478.622 119.477 478.758 119.268 478.852 119.021L481.371 119.188C481.243 119.793 480.981 120.321 480.584 120.773C480.192 121.22 479.685 121.57 479.063 121.821C478.445 122.068 477.731 122.192 476.922 122.192Z" fill="black"/>
<rect x="290.499" y="99.5" width="200" height="32" stroke="black"/>
<path d="M337.086 185V175.182H339.726V176.895H339.828C340.007 176.286 340.308 175.825 340.729 175.514C341.151 175.199 341.637 175.041 342.187 175.041C342.323 175.041 342.47 175.05 342.628 175.067C342.785 175.084 342.924 175.107 343.043 175.137V177.553C342.915 177.515 342.739 177.481 342.513 177.451C342.287 177.421 342.08 177.406 341.893 177.406C341.492 177.406 341.134 177.494 340.819 177.668C340.508 177.839 340.261 178.077 340.077 178.384C339.898 178.691 339.809 179.045 339.809 179.445V185H337.086ZM348.469 185.192C347.459 185.192 346.589 184.987 345.861 184.578C345.136 184.165 344.578 183.581 344.186 182.827C343.794 182.068 343.598 181.171 343.598 180.136C343.598 179.126 343.794 178.239 344.186 177.477C344.578 176.714 345.13 176.119 345.841 175.693C346.557 175.267 347.397 175.054 348.36 175.054C349.008 175.054 349.611 175.158 350.169 175.367C350.731 175.572 351.221 175.881 351.639 176.294C352.061 176.707 352.389 177.227 352.623 177.854C352.858 178.476 352.975 179.205 352.975 180.04V180.788H344.684V179.1H350.412C350.412 178.708 350.327 178.361 350.156 178.058C349.986 177.756 349.749 177.519 349.447 177.349C349.148 177.174 348.801 177.087 348.405 177.087C347.991 177.087 347.625 177.183 347.305 177.374C346.99 177.562 346.743 177.815 346.564 178.135C346.385 178.45 346.293 178.802 346.289 179.19V180.794C346.289 181.28 346.378 181.7 346.557 182.053C346.741 182.407 346.998 182.68 347.331 182.871C347.663 183.063 348.057 183.159 348.513 183.159C348.816 183.159 349.093 183.116 349.344 183.031C349.596 182.946 349.811 182.818 349.99 182.648C350.169 182.477 350.305 182.268 350.399 182.021L352.917 182.188C352.79 182.793 352.527 183.321 352.131 183.773C351.739 184.22 351.232 184.57 350.61 184.821C349.992 185.068 349.278 185.192 348.469 185.192ZM359.974 175.182V177.227H354.062V175.182H359.974ZM355.404 172.83H358.127V181.983C358.127 182.234 358.165 182.43 358.242 182.571C358.319 182.707 358.425 182.803 358.562 182.859C358.702 182.914 358.864 182.942 359.047 182.942C359.175 182.942 359.303 182.931 359.431 182.91C359.559 182.884 359.657 182.865 359.725 182.852L360.153 184.879C360.017 184.921 359.825 184.97 359.578 185.026C359.331 185.085 359.03 185.121 358.677 185.134C358.02 185.16 357.445 185.072 356.951 184.872C356.461 184.672 356.079 184.361 355.807 183.939C355.534 183.517 355.4 182.984 355.404 182.341V172.83ZM368.044 180.82V175.182H370.767V185H368.153V183.217H368.051C367.829 183.792 367.46 184.254 366.945 184.604C366.433 184.953 365.809 185.128 365.072 185.128C364.416 185.128 363.838 184.979 363.34 184.68C362.841 184.382 362.451 183.958 362.17 183.408C361.893 182.859 361.752 182.2 361.748 181.433V175.182H364.471V180.947C364.475 181.527 364.631 181.985 364.938 182.322C365.244 182.658 365.656 182.827 366.171 182.827C366.499 182.827 366.806 182.752 367.092 182.603C367.377 182.45 367.607 182.224 367.782 181.925C367.961 181.627 368.048 181.259 368.044 180.82ZM372.945 185V175.182H375.585V176.895H375.687C375.866 176.286 376.167 175.825 376.589 175.514C377.011 175.199 377.496 175.041 378.046 175.041C378.183 175.041 378.33 175.05 378.487 175.067C378.645 175.084 378.783 175.107 378.903 175.137V177.553C378.775 177.515 378.598 177.481 378.372 177.451C378.146 177.421 377.94 177.406 377.752 177.406C377.352 177.406 376.994 177.494 376.678 177.668C376.367 177.839 376.12 178.077 375.937 178.384C375.758 178.691 375.668 179.045 375.668 179.445V185H372.945ZM383.034 179.324V185H380.311V175.182H382.906V176.914H383.021C383.238 176.343 383.602 175.891 384.114 175.559C384.625 175.222 385.245 175.054 385.974 175.054C386.656 175.054 387.25 175.203 387.757 175.501C388.264 175.8 388.659 176.226 388.94 176.78C389.221 177.33 389.362 177.986 389.362 178.749V185H386.639V179.234C386.643 178.634 386.49 178.165 386.178 177.828C385.867 177.487 385.439 177.317 384.894 177.317C384.527 177.317 384.203 177.396 383.922 177.553C383.645 177.711 383.428 177.941 383.27 178.244C383.117 178.542 383.038 178.902 383.034 179.324ZM391.508 185V175.182H394.231V185H391.508ZM392.876 173.916C392.471 173.916 392.124 173.782 391.834 173.513C391.548 173.241 391.406 172.915 391.406 172.536C391.406 172.161 391.548 171.839 391.834 171.57C392.124 171.298 392.471 171.161 392.876 171.161C393.281 171.161 393.626 171.298 393.911 171.57C394.201 171.839 394.346 172.161 394.346 172.536C394.346 172.915 394.201 173.241 393.911 173.513C393.626 173.782 393.281 173.916 392.876 173.916ZM399.135 179.324V185H396.412V175.182H399.007V176.914H399.122C399.34 176.343 399.704 175.891 400.215 175.559C400.727 175.222 401.347 175.054 402.075 175.054C402.757 175.054 403.352 175.203 403.859 175.501C404.366 175.8 404.76 176.226 405.041 176.78C405.323 177.33 405.463 177.986 405.463 178.749V185H402.74V179.234C402.744 178.634 402.591 178.165 402.28 177.828C401.969 177.487 401.541 177.317 400.995 177.317C400.629 177.317 400.305 177.396 400.024 177.553C399.747 177.711 399.529 177.941 399.372 178.244C399.218 178.542 399.139 178.902 399.135 179.324ZM412.033 188.886C411.151 188.886 410.394 188.765 409.763 188.522C409.137 188.283 408.638 187.957 408.268 187.544C407.897 187.131 407.656 186.666 407.545 186.151L410.064 185.812C410.141 186.008 410.262 186.191 410.428 186.362C410.594 186.532 410.814 186.668 411.087 186.771C411.364 186.877 411.7 186.93 412.097 186.93C412.689 186.93 413.177 186.786 413.56 186.496C413.948 186.21 414.142 185.731 414.142 185.058V183.261H414.027C413.908 183.534 413.729 183.792 413.49 184.035C413.251 184.278 412.945 184.476 412.57 184.629C412.195 184.783 411.747 184.859 411.227 184.859C410.49 184.859 409.819 184.689 409.214 184.348C408.613 184.003 408.134 183.477 407.776 182.769C407.422 182.058 407.245 181.158 407.245 180.072C407.245 178.96 407.426 178.031 407.788 177.285C408.151 176.539 408.632 175.981 409.233 175.61C409.838 175.239 410.501 175.054 411.221 175.054C411.771 175.054 412.231 175.148 412.602 175.335C412.972 175.518 413.271 175.749 413.496 176.026C413.727 176.298 413.903 176.567 414.027 176.831H414.129V175.182H416.833V185.096C416.833 185.931 416.629 186.63 416.219 187.192C415.81 187.755 415.244 188.177 414.519 188.458C413.799 188.744 412.97 188.886 412.033 188.886ZM412.09 182.814C412.529 182.814 412.9 182.705 413.202 182.488C413.509 182.266 413.744 181.951 413.906 181.542C414.072 181.129 414.155 180.634 414.155 180.059C414.155 179.484 414.074 178.985 413.912 178.563C413.75 178.137 413.516 177.807 413.209 177.572C412.902 177.338 412.529 177.221 412.09 177.221C411.643 177.221 411.266 177.342 410.959 177.585C410.652 177.824 410.42 178.156 410.262 178.582C410.104 179.009 410.026 179.501 410.026 180.059C410.026 180.626 410.104 181.116 410.262 181.529C410.424 181.938 410.656 182.256 410.959 182.482C411.266 182.703 411.643 182.814 412.09 182.814ZM425.117 178.544V180.705H419.147V178.544H425.117ZM431.874 185.192C430.868 185.192 430.003 184.979 429.278 184.553C428.558 184.122 428.004 183.526 427.616 182.763C427.233 182 427.041 181.122 427.041 180.129C427.041 179.124 427.235 178.241 427.623 177.483C428.015 176.72 428.571 176.126 429.291 175.7C430.011 175.269 430.868 175.054 431.861 175.054C432.717 175.054 433.467 175.21 434.111 175.521C434.754 175.832 435.263 176.268 435.638 176.831C436.013 177.393 436.22 178.054 436.259 178.812H433.689C433.616 178.322 433.425 177.928 433.114 177.63C432.807 177.327 432.404 177.176 431.906 177.176C431.484 177.176 431.115 177.291 430.8 177.521C430.489 177.747 430.246 178.077 430.071 178.512C429.896 178.947 429.809 179.473 429.809 180.091C429.809 180.717 429.894 181.25 430.065 181.689C430.239 182.128 430.484 182.462 430.8 182.692C431.115 182.923 431.484 183.038 431.906 183.038C432.217 183.038 432.496 182.974 432.743 182.846C432.994 182.718 433.201 182.533 433.363 182.29C433.529 182.043 433.638 181.746 433.689 181.401H436.259C436.216 182.151 436.011 182.812 435.645 183.383C435.283 183.95 434.782 184.393 434.143 184.712C433.504 185.032 432.747 185.192 431.874 185.192ZM440.725 171.909V185H438.002V171.909H440.725ZM445.706 185.185C445.08 185.185 444.521 185.077 444.031 184.859C443.541 184.638 443.153 184.312 442.868 183.881C442.587 183.447 442.446 182.906 442.446 182.258C442.446 181.712 442.546 181.254 442.746 180.884C442.947 180.513 443.219 180.214 443.565 179.989C443.91 179.763 444.302 179.592 444.741 179.477C445.184 179.362 445.648 179.281 446.134 179.234C446.705 179.175 447.165 179.119 447.515 179.068C447.864 179.013 448.118 178.932 448.276 178.825C448.433 178.719 448.512 178.561 448.512 178.352V178.314C448.512 177.909 448.384 177.596 448.129 177.374C447.877 177.153 447.519 177.042 447.055 177.042C446.565 177.042 446.175 177.151 445.885 177.368C445.595 177.581 445.403 177.849 445.31 178.173L442.791 177.969C442.919 177.372 443.17 176.857 443.545 176.422C443.92 175.983 444.404 175.646 444.996 175.412C445.593 175.173 446.283 175.054 447.067 175.054C447.613 175.054 448.135 175.118 448.634 175.246C449.136 175.374 449.582 175.572 449.969 175.84C450.361 176.109 450.67 176.454 450.896 176.876C451.122 177.293 451.235 177.794 451.235 178.378V185H448.653V183.638H448.576C448.418 183.945 448.207 184.216 447.943 184.45C447.679 184.68 447.361 184.862 446.991 184.994C446.62 185.121 446.192 185.185 445.706 185.185ZM446.486 183.306C446.886 183.306 447.24 183.227 447.547 183.07C447.854 182.908 448.094 182.69 448.269 182.418C448.444 182.145 448.531 181.836 448.531 181.491V180.449C448.446 180.504 448.329 180.555 448.18 180.602C448.035 180.645 447.871 180.685 447.687 180.724C447.504 180.758 447.321 180.79 447.138 180.82C446.955 180.845 446.788 180.869 446.639 180.89C446.32 180.937 446.04 181.011 445.802 181.114C445.563 181.216 445.378 181.354 445.246 181.529C445.114 181.7 445.048 181.913 445.048 182.168C445.048 182.539 445.182 182.822 445.45 183.018C445.723 183.21 446.068 183.306 446.486 183.306ZM459.644 180.82V175.182H462.367V185H459.752V183.217H459.65C459.429 183.792 459.06 184.254 458.544 184.604C458.033 184.953 457.409 185.128 456.671 185.128C456.015 185.128 455.438 184.979 454.939 184.68C454.441 184.382 454.051 183.958 453.77 183.408C453.493 182.859 453.352 182.2 453.348 181.433V175.182H456.071V180.947C456.075 181.527 456.23 181.985 456.537 182.322C456.844 182.658 457.255 182.827 457.771 182.827C458.099 182.827 458.406 182.752 458.691 182.603C458.977 182.45 459.207 182.224 459.382 181.925C459.561 181.627 459.648 181.259 459.644 180.82ZM472.714 177.982L470.221 178.135C470.178 177.922 470.087 177.73 469.946 177.56C469.806 177.385 469.62 177.246 469.39 177.144C469.164 177.038 468.894 176.984 468.578 176.984C468.156 176.984 467.801 177.074 467.511 177.253C467.221 177.428 467.076 177.662 467.076 177.956C467.076 178.19 467.17 178.388 467.357 178.55C467.545 178.712 467.867 178.842 468.323 178.94L470.1 179.298C471.054 179.494 471.766 179.81 472.235 180.244C472.703 180.679 472.938 181.25 472.938 181.957C472.938 182.601 472.748 183.165 472.369 183.651C471.994 184.137 471.478 184.516 470.822 184.789C470.17 185.058 469.418 185.192 468.565 185.192C467.266 185.192 466.23 184.921 465.459 184.38C464.692 183.835 464.242 183.093 464.11 182.156L466.789 182.015C466.869 182.411 467.065 182.714 467.377 182.923C467.688 183.127 468.086 183.229 468.572 183.229C469.049 183.229 469.433 183.138 469.722 182.955C470.016 182.767 470.166 182.526 470.17 182.232C470.166 181.985 470.061 181.783 469.857 181.625C469.652 181.463 469.337 181.339 468.911 181.254L467.21 180.915C466.252 180.724 465.538 180.391 465.069 179.918C464.605 179.445 464.372 178.842 464.372 178.109C464.372 177.479 464.543 176.935 464.884 176.479C465.229 176.023 465.713 175.672 466.335 175.425C466.961 175.178 467.694 175.054 468.534 175.054C469.774 175.054 470.749 175.316 471.461 175.84C472.177 176.364 472.595 177.078 472.714 177.982ZM479.127 185.192C478.117 185.192 477.247 184.987 476.519 184.578C475.794 184.165 475.236 183.581 474.844 182.827C474.452 182.068 474.256 181.171 474.256 180.136C474.256 179.126 474.452 178.239 474.844 177.477C475.236 176.714 475.788 176.119 476.5 175.693C477.216 175.267 478.055 175.054 479.018 175.054C479.666 175.054 480.269 175.158 480.827 175.367C481.39 175.572 481.88 175.881 482.297 176.294C482.719 176.707 483.047 177.227 483.282 177.854C483.516 178.476 483.633 179.205 483.633 180.04V180.788H475.343V179.1H481.07C481.07 178.708 480.985 178.361 480.814 178.058C480.644 177.756 480.407 177.519 480.105 177.349C479.806 177.174 479.459 177.087 479.063 177.087C478.649 177.087 478.283 177.183 477.963 177.374C477.648 177.562 477.401 177.815 477.222 178.135C477.043 178.45 476.951 178.802 476.947 179.19V180.794C476.947 181.28 477.037 181.7 477.216 182.053C477.399 182.407 477.657 182.68 477.989 182.871C478.321 183.063 478.716 183.159 479.171 183.159C479.474 183.159 479.751 183.116 480.002 183.031C480.254 182.946 480.469 182.818 480.648 182.648C480.827 182.477 480.963 182.268 481.057 182.021L483.576 182.188C483.448 182.793 483.186 183.321 482.789 183.773C482.397 184.22 481.89 184.57 481.268 184.821C480.65 185.068 479.936 185.192 479.127 185.192Z" fill="black"/>
<rect x="331.499" y="162.5" width="159" height="32" stroke="black"/>
<path d="M178.561 185.192C177.551 185.192 176.682 184.987 175.953 184.578C175.229 184.165 174.671 183.581 174.279 182.827C173.887 182.068 173.691 181.171 173.691 180.136C173.691 179.126 173.887 178.239 174.279 177.477C174.671 176.714 175.223 176.119 175.934 175.693C176.65 175.267 177.49 175.054 178.453 175.054C179.1 175.054 179.703 175.158 180.262 175.367C180.824 175.572 181.314 175.881 181.732 176.294C182.154 176.707 182.482 177.227 182.716 177.854C182.951 178.476 183.068 179.205 183.068 180.04V180.788H174.777V179.1H180.505C180.505 178.708 180.419 178.361 180.249 178.058C180.078 177.756 179.842 177.519 179.539 177.349C179.241 177.174 178.894 177.087 178.497 177.087C178.084 177.087 177.718 177.183 177.398 177.374C177.083 177.562 176.835 177.815 176.656 178.135C176.478 178.45 176.386 178.802 176.382 179.19V180.794C176.382 181.28 176.471 181.7 176.65 182.053C176.833 182.407 177.091 182.68 177.424 182.871C177.756 183.063 178.15 183.159 178.606 183.159C178.909 183.159 179.186 183.116 179.437 183.031C179.688 182.946 179.904 182.818 180.083 182.648C180.262 182.477 180.398 182.268 180.492 182.021L183.01 182.188C182.882 182.793 182.62 183.321 182.224 183.773C181.832 184.22 181.325 184.57 180.703 184.821C180.085 185.068 179.371 185.192 178.561 185.192ZM186.944 175.182L188.747 178.614L190.594 175.182H193.388L190.543 180.091L193.464 185H190.684L188.747 181.606L186.842 185H184.03L186.944 180.091L184.132 175.182H186.944ZM195.005 188.682V175.182H197.69V176.831H197.811C197.93 176.567 198.103 176.298 198.329 176.026C198.559 175.749 198.857 175.518 199.224 175.335C199.594 175.148 200.055 175.054 200.604 175.054C201.32 175.054 201.981 175.241 202.586 175.616C203.191 175.987 203.675 176.548 204.037 177.298C204.399 178.043 204.58 178.979 204.58 180.104C204.58 181.199 204.403 182.124 204.05 182.878C203.7 183.628 203.223 184.197 202.618 184.585C202.017 184.968 201.344 185.16 200.598 185.16C200.069 185.16 199.62 185.072 199.249 184.898C198.883 184.723 198.582 184.504 198.348 184.239C198.114 183.971 197.935 183.7 197.811 183.428H197.728V188.682H195.005ZM197.67 180.091C197.67 180.675 197.751 181.184 197.913 181.619C198.075 182.053 198.31 182.392 198.616 182.635C198.923 182.874 199.296 182.993 199.735 182.993C200.178 182.993 200.553 182.871 200.86 182.629C201.167 182.381 201.399 182.04 201.557 181.606C201.719 181.167 201.8 180.662 201.8 180.091C201.8 179.524 201.721 179.026 201.563 178.595C201.405 178.165 201.173 177.828 200.866 177.585C200.56 177.342 200.182 177.221 199.735 177.221C199.292 177.221 198.917 177.338 198.61 177.572C198.307 177.807 198.075 178.139 197.913 178.57C197.751 179 197.67 179.507 197.67 180.091ZM206.395 185V175.182H209.035V176.895H209.138C209.317 176.286 209.617 175.825 210.039 175.514C210.461 175.199 210.947 175.041 211.496 175.041C211.633 175.041 211.78 175.05 211.937 175.067C212.095 175.084 212.234 175.107 212.353 175.137V177.553C212.225 177.515 212.048 177.481 211.822 177.451C211.596 177.421 211.39 177.406 211.202 177.406C210.802 177.406 210.444 177.494 210.128 177.668C209.817 177.839 209.57 178.077 209.387 178.384C209.208 178.691 209.118 179.045 209.118 179.445V185H206.395Z" fill="black"/>
<rect x="168.5" y="162.5" width="51" height="32" stroke="black"/>
<path d="M188.138 122V108.909H196.806V111.191H190.906V114.31H196.23V116.592H190.906V122H188.138ZM198.667 122V108.909H203.832C204.821 108.909 205.664 109.086 206.363 109.44C207.066 109.789 207.601 110.286 207.968 110.929C208.338 111.568 208.524 112.32 208.524 113.185C208.524 114.055 208.336 114.803 207.961 115.429C207.586 116.051 207.043 116.528 206.331 116.861C205.624 117.193 204.767 117.359 203.762 117.359H200.304V115.135H203.314C203.843 115.135 204.282 115.062 204.631 114.918C204.981 114.773 205.24 114.555 205.411 114.266C205.586 113.976 205.673 113.616 205.673 113.185C205.673 112.751 205.586 112.384 205.411 112.086C205.24 111.788 204.978 111.562 204.625 111.408C204.275 111.251 203.834 111.172 203.302 111.172H201.435V122H198.667ZM205.737 116.043L208.99 122H205.935L202.752 116.043H205.737ZM222.51 115.455C222.51 116.882 222.239 118.097 221.698 119.098C221.161 120.099 220.428 120.864 219.499 121.393C218.574 121.917 217.535 122.179 216.38 122.179C215.216 122.179 214.172 121.915 213.248 121.386C212.323 120.858 211.592 120.093 211.055 119.092C210.518 118.09 210.25 116.878 210.25 115.455C210.25 114.027 210.518 112.812 211.055 111.811C211.592 110.81 212.323 110.047 213.248 109.523C214.172 108.994 215.216 108.73 216.38 108.73C217.535 108.73 218.574 108.994 219.499 109.523C220.428 110.047 221.161 110.81 221.698 111.811C222.239 112.812 222.51 114.027 222.51 115.455ZM219.704 115.455C219.704 114.53 219.565 113.75 219.288 113.115C219.015 112.48 218.63 111.999 218.131 111.67C217.633 111.342 217.049 111.178 216.38 111.178C215.711 111.178 215.127 111.342 214.628 111.67C214.13 111.999 213.742 112.48 213.465 113.115C213.192 113.75 213.056 114.53 213.056 115.455C213.056 116.379 213.192 117.159 213.465 117.794C213.742 118.429 214.13 118.911 214.628 119.239C215.127 119.567 215.711 119.731 216.38 119.731C217.049 119.731 217.633 119.567 218.131 119.239C218.63 118.911 219.015 118.429 219.288 117.794C219.565 117.159 219.704 116.379 219.704 115.455ZM224.56 108.909H227.973L231.578 117.705H231.732L235.337 108.909H238.75V122H236.066V113.479H235.957L232.569 121.936H230.741L227.353 113.447H227.245V122H224.56V108.909Z" fill="black"/>
<rect x="173.5" y="99.5" width="80" height="32" rx="16" stroke="black"/>
<path d="M413.045 58.2102L412.975 58.9134C412.92 59.4759 412.813 60.0362 412.656 60.5945C412.502 61.157 412.34 61.6662 412.17 62.1222C412.004 62.5781 411.869 62.9361 411.767 63.196H410.003C410.067 62.9446 410.154 62.593 410.265 62.1413C410.376 61.6939 410.48 61.1911 410.578 60.6328C410.676 60.0746 410.738 59.5057 410.763 58.9261L410.795 58.2102H413.045Z" fill="black"/>
<rect x="396.499" y="38.5" width="31" height="32" rx="15.5" stroke="black"/>
<path d="M67.7787 122H63.138V108.909H67.817C69.1338 108.909 70.2673 109.171 71.2176 109.695C72.1679 110.215 72.8987 110.963 73.41 111.939C73.9257 112.915 74.1835 114.082 74.1835 115.442C74.1835 116.805 73.9257 117.977 73.41 118.957C72.8987 119.937 72.1636 120.69 71.2048 121.214C70.2502 121.738 69.1082 122 67.7787 122ZM65.9058 119.629H67.6636C68.4818 119.629 69.17 119.484 69.7282 119.194C70.2907 118.9 70.7126 118.446 70.9939 117.832C71.2794 117.214 71.4221 116.418 71.4221 115.442C71.4221 114.474 71.2794 113.684 70.9939 113.07C70.7126 112.457 70.2929 112.005 69.7346 111.715C69.1764 111.425 68.4882 111.281 67.67 111.281H65.9058V119.629ZM76.2337 122V108.909H85.0548V111.191H79.0015V114.31H84.6009V116.592H79.0015V119.718H85.0803V122H76.2337ZM87.2552 122V108.909H90.023V119.718H95.6352V122H87.2552ZM97.4681 122V108.909H106.289V111.191H100.236V114.31H105.835V116.592H100.236V119.718H106.315V122H97.4681ZM107.991 111.191V108.909H118.742V111.191H114.735V122H111.999V111.191H107.991ZM120.513 122V108.909H129.334V111.191H123.281V114.31H128.88V116.592H123.281V119.718H129.36V122H120.513Z" fill="black"/>
<rect x="51.5002" y="99.5" width="87" height="32" rx="16" stroke="black"/>
<path d="M66.0848 185L62.339 171.909H65.3625L67.5294 181.005H67.638L70.0287 171.909H72.6174L75.0017 181.024H75.1167L77.2836 171.909H80.3071L76.5613 185H73.8639L71.371 176.441H71.2687L68.7822 185H66.0848ZM81.7884 185V171.909H84.5562V177.31H90.1748V171.909H92.9361V185H90.1748V179.592H84.5562V185H81.7884ZM95.2181 185V171.909H104.039V174.191H97.9859V177.31H103.585V179.592H97.9859V182.718H104.065V185H95.2181ZM106.24 185V171.909H111.404C112.393 171.909 113.237 172.086 113.936 172.44C114.639 172.789 115.174 173.286 115.54 173.929C115.911 174.568 116.096 175.32 116.096 176.185C116.096 177.055 115.909 177.803 115.534 178.429C115.159 179.051 114.615 179.528 113.904 179.861C113.196 180.193 112.34 180.359 111.334 180.359H107.876V178.135H110.887C111.415 178.135 111.854 178.062 112.203 177.918C112.553 177.773 112.813 177.555 112.983 177.266C113.158 176.976 113.245 176.616 113.245 176.185C113.245 175.751 113.158 175.384 112.983 175.086C112.813 174.788 112.551 174.562 112.197 174.408C111.848 174.251 111.406 174.172 110.874 174.172H109.007V185H106.24ZM113.309 179.043L116.563 185H113.507L110.324 179.043H113.309ZM118.052 185V171.909H126.873V174.191H120.82V177.31H126.419V179.592H120.82V182.718H126.899V185H118.052Z" fill="black"/>
<rect x="51.5002" y="162.5" width="87" height="32" rx="16" stroke="black"/>
<path d="M51 16L41 10.2265V21.7735L51 16ZM8.5 17H42V15H8.5V17Z" fill="black"/>
<path d="M173 117L163 111.226V122.774L173 117ZM138 118H164V116H138V118Z" fill="black"/>
<path d="M168 178L158 172.226V183.774L168 178ZM138 179H159V177H138V179Z" fill="black"/>
<path d="M29.4991 212.5L30.4991 212.5L30.4991 212.5L29.4991 212.5ZM39.4991 222.5L39.4991 223.5H39.4991L39.4991 222.5ZM263.499 222.5L253.499 216.726L253.499 228.274L263.499 222.5ZM28.4992 167.5L28.4991 212.5L30.4991 212.5L30.4992 167.5L28.4992 167.5ZM39.4991 223.5L254.499 223.5L254.499 221.5L39.4991 221.5L39.4991 223.5ZM28.4991 212.5C28.4991 218.575 33.424 223.5 39.4991 223.5L39.4991 221.5C34.5286 221.5 30.4991 217.471 30.4991 212.5L28.4991 212.5Z" fill="black"/>
<path d="M559.999 222.5L549.999 216.726V228.274L559.999 222.5ZM289.499 223.5L550.999 223.5V221.5L289.499 221.5V223.5Z" fill="black"/>
<path d="M330.999 179.5L320.999 173.726V185.274L330.999 179.5ZM271.999 223.5H293.499V221.5H271.999V223.5ZM304.499 212.5V189.5H302.499V212.5H304.499ZM313.499 180.5H321.999V178.5H313.499V180.5ZM304.499 189.5C304.499 184.529 308.529 180.5 313.499 180.5V178.5C307.424 178.5 302.499 183.425 302.499 189.5H304.499ZM293.499 223.5C299.574 223.5 304.499 218.575 304.499 212.5H302.499C302.499 217.471 298.47 221.5 293.499 221.5V223.5Z" fill="black"/>
<path d="M289 222.5L279 216.726V228.274L289 222.5ZM220 179H237.5V177H220V179ZM246.5 188V212.5H248.5V188H246.5ZM257.5 223.5H280V221.5H257.5V223.5ZM246.5 212.5C246.5 218.575 251.425 223.5 257.5 223.5V221.5C252.529 221.5 248.5 217.471 248.5 212.5H246.5ZM237.5 179C242.471 179 246.5 183.029 246.5 188H248.5C248.5 181.925 243.575 177 237.5 177V179Z" fill="black"/>
<path d="M560 222.5L550 216.726V228.274L560 222.5ZM491 179H508.5V177H491V179ZM517.5 188V212.5H519.5V188H517.5ZM528.5 223.5H551V221.5H528.5V223.5ZM517.5 212.5C517.5 218.575 522.425 223.5 528.5 223.5V221.5C523.53 221.5 519.5 217.471 519.5 212.5H517.5ZM508.5 179C513.471 179 517.5 183.029 517.5 188H519.5C519.5 181.925 514.575 177 508.5 177V179Z" fill="black"/>
<path d="M290 117L280 111.226L280 122.774L290 117ZM253 118L281 118L281 116L253 116L253 118Z" fill="black"/>
<path d="M277.499 148.5L287.499 154.274V142.726L277.499 148.5ZM490.999 118H530.999V116H490.999V118ZM539.999 127V138.5H541.999V127H539.999ZM530.999 147.5H286.499V149.5H530.999V147.5ZM539.999 138.5C539.999 143.471 535.97 147.5 530.999 147.5V149.5C537.074 149.5 541.999 144.575 541.999 138.5H539.999ZM530.999 118C535.97 118 539.999 122.029 539.999 127H541.999C541.999 120.925 537.074 116 530.999 116V118Z" fill="black"/>
<path d="M51 117L41 111.226V122.774L51 117ZM8.5 17H19.75V15H8.5V17ZM28.75 26V107H30.75V26H28.75ZM39.75 118H42V116H39.75V118ZM28.75 107C28.75 113.075 33.6749 118 39.75 118V116C34.7794 116 30.75 111.971 30.75 107H28.75ZM19.75 17C24.7206 17 28.75 21.0294 28.75 26H30.75C30.75 19.9249 25.8251 15 19.75 15V17Z" fill="black"/>
<path d="M51.5 179.002L41.5 173.229V184.776L51.5 179.002ZM288.5 147.5H39.5V149.5H288.5V147.5ZM28.5 158.5V169.002H30.5V158.5H28.5ZM39.5 180.002H42.5V178.002H39.5V180.002ZM28.5 169.002C28.5 175.077 33.4249 180.002 39.5 180.002V178.002C34.5294 178.002 30.5 173.973 30.5 169.002H28.5ZM39.5 147.5C33.4249 147.5 28.5 152.425 28.5 158.5H30.5C30.5 153.529 34.5294 149.5 39.5 149.5V147.5Z" fill="black"/>
<path d="M428.499 55L438.499 60.7735V49.2265L428.499 55ZM529.999 17H530.499V15H529.999V17ZM539.499 26V45H541.499V26H539.499ZM530.499 54H437.499V56H530.499V54ZM539.499 45C539.499 49.9706 535.47 54 530.499 54V56C536.574 56 541.499 51.0751 541.499 45H539.499ZM530.499 17C535.47 17 539.499 21.0294 539.499 26H541.499C541.499 19.9249 536.574 15 530.499 15V17Z" fill="black"/>
<path d="M224 82L234 87.7735V76.2265L224 82ZM530.5 17H531V15H530.5V17ZM540 26V72H542V26H540ZM531 81H233V83H531V81ZM540 72C540 76.9706 535.971 81 531 81V83C537.075 83 542 78.0751 542 72H540ZM531 17C535.971 17 540 21.0294 540 26H542C542 19.9249 537.075 15 531 15V17Z" fill="black"/>
<path d="M285 16L275 10.2265V21.7735L285 16ZM124 17H276V15H124V17Z" fill="black"/>
<path d="M29.7834 103L35.5569 93H24.0099L29.7834 103ZM255.999 81L39.7834 81V83L255.999 83V81ZM28.7834 92V94H30.7834V92H28.7834ZM39.7834 81C33.7083 81 28.7834 85.9249 28.7834 92H30.7834C30.7834 87.0294 34.8129 83 39.7834 83V81Z" fill="black"/>
<path d="M248.499 55L248.499 56L248.499 55ZM248.499 16L248.499 15L248.499 16ZM284.999 16L274.999 10.2265L274.999 21.7735L284.999 16ZM395.999 54L248.499 54L248.499 56L395.999 56V54ZM239.499 45L239.499 26L237.499 26L237.499 45L239.499 45ZM248.499 17L275.999 17L275.999 15L248.499 15L248.499 17ZM239.499 26C239.499 21.0294 243.529 17 248.499 17L248.499 15C242.424 15 237.499 19.9249 237.499 26L239.499 26ZM248.499 54C243.529 54 239.499 49.9706 239.499 45L237.499 45C237.499 51.0751 242.424 56 248.499 56L248.499 54Z" fill="black"/>
</svg>
