<svg width="417" height="33" viewBox="0 0 417 33" fill="none" xmlns="http://www.w3.org/2000/svg">
<circle cx="4" cy="16" r="3.5" stroke="black"/>
<circle cx="413" cy="16" r="3.5" stroke="black"/>
<path d="M40.1378 23V9.90909H48.8054V12.1911H42.9055V15.3104H48.2301V17.5923H42.9055V23H40.1378ZM53.4348 9.90909V23H50.6671V9.90909H53.4348ZM55.712 23V9.90909H58.4798V20.718H64.092V23H55.712ZM63.7915 12.1911V9.90909H74.543V12.1911H70.5352V23H67.7994V12.1911H63.7915ZM76.3136 23V9.90909H85.1346V12.1911H79.0813V15.3104H84.6808V17.5923H79.0813V20.718H85.1602V23H76.3136ZM87.335 23V9.90909H92.4998C93.4885 9.90909 94.3322 10.0859 95.0311 10.4396C95.7342 10.7891 96.269 11.2855 96.6355 11.929C97.0062 12.5682 97.1916 13.3203 97.1916 14.1854C97.1916 15.0547 97.0041 15.8026 96.6291 16.429C96.2541 17.0511 95.7108 17.5284 94.9991 17.8608C94.2917 18.1932 93.4352 18.3594 92.4295 18.3594H88.9714V16.1349H91.9821C92.5105 16.1349 92.9494 16.0625 93.2988 15.9176C93.6483 15.7727 93.9082 15.5554 94.0787 15.2656C94.2534 14.9759 94.3407 14.6158 94.3407 14.1854C94.3407 13.7507 94.2534 13.3842 94.0787 13.0859C93.9082 12.7876 93.6461 12.5618 93.2924 12.4084C92.943 12.2507 92.502 12.1719 91.9693 12.1719H90.1028V23H87.335ZM94.4047 17.0426L97.6582 23H94.6028L91.4196 17.0426H94.4047Z" fill="black"/>
<rect x="28.5" y="0.5" width="78" height="32" rx="16" stroke="black"/>
<path d="M195.085 23L191.339 9.90909H194.362L196.529 19.005H196.638L199.028 9.90909H201.617L204.001 19.0241H204.116L206.283 9.90909H209.307L205.561 23H202.864L200.371 14.4411H200.268L197.782 23H195.085ZM210.788 23V9.90909H213.556V15.3104H219.175V9.90909H221.936V23H219.175V17.5923H213.556V23H210.788ZM224.218 23V9.90909H233.039V12.1911H226.986V15.3104H232.585V17.5923H226.986V20.718H233.064V23H224.218ZM235.239 23V9.90909H240.404C241.393 9.90909 242.237 10.0859 242.935 10.4396C243.638 10.7891 244.173 11.2855 244.54 11.929C244.911 12.5682 245.096 13.3203 245.096 14.1854C245.096 15.0547 244.908 15.8026 244.533 16.429C244.158 17.0511 243.615 17.5284 242.903 17.8608C242.196 18.1932 241.339 18.3594 240.334 18.3594H236.876V16.1349H239.886C240.415 16.1349 240.854 16.0625 241.203 15.9176C241.553 15.7727 241.813 15.5554 241.983 15.2656C242.158 14.9759 242.245 14.6158 242.245 14.1854C242.245 13.7507 242.158 13.3842 241.983 13.0859C241.813 12.7876 241.55 12.5618 241.197 12.4084C240.847 12.2507 240.406 12.1719 239.874 12.1719H238.007V23H235.239ZM242.309 17.0426L245.562 23H242.507L239.324 17.0426H242.309ZM247.052 23V9.90909H255.873V12.1911H249.82V15.3104H255.419V17.5923H249.82V20.718H255.898V23H247.052Z" fill="black"/>
<path d="M297.561 21.1918C296.551 21.1918 295.682 20.9872 294.953 20.5781C294.229 20.1648 293.67 19.581 293.278 18.8267C292.886 18.0682 292.69 17.1712 292.69 16.1357C292.69 15.1257 292.886 14.2393 293.278 13.4766C293.67 12.7138 294.222 12.1193 294.934 11.6932C295.65 11.267 296.489 11.054 297.452 11.054C298.1 11.054 298.703 11.1584 299.261 11.3672C299.824 11.5717 300.314 11.8807 300.732 12.294C301.153 12.7074 301.482 13.2273 301.716 13.8537C301.95 14.4759 302.067 15.2045 302.067 16.0398V16.7876H293.777V15.1001H299.504C299.504 14.7081 299.419 14.3608 299.249 14.0582C299.078 13.7557 298.842 13.5192 298.539 13.3487C298.241 13.174 297.893 13.0866 297.497 13.0866C297.084 13.0866 296.717 13.1825 296.398 13.3743C296.082 13.5618 295.835 13.8153 295.656 14.1349C295.477 14.4503 295.386 14.8018 295.381 15.1896V16.794C295.381 17.2798 295.471 17.6996 295.65 18.0533C295.833 18.407 296.091 18.6797 296.423 18.8714C296.756 19.0632 297.15 19.1591 297.606 19.1591C297.908 19.1591 298.185 19.1165 298.437 19.0312C298.688 18.946 298.903 18.8182 299.082 18.6477C299.261 18.4773 299.398 18.2685 299.491 18.0213L302.01 18.1875C301.882 18.7926 301.62 19.321 301.224 19.7727C300.832 20.2202 300.325 20.5696 299.702 20.821C299.085 21.0682 298.371 21.1918 297.561 21.1918ZM305.944 11.1818L307.747 14.6143L309.594 11.1818H312.387L309.543 16.0909L312.464 21H309.684L307.747 17.6058L305.842 21H303.029L305.944 16.0909L303.132 11.1818H305.944ZM314.005 24.6818V11.1818H316.689V12.831H316.811C316.93 12.5668 317.103 12.2983 317.328 12.0256C317.559 11.7486 317.857 11.5185 318.223 11.3352C318.594 11.1477 319.054 11.054 319.604 11.054C320.32 11.054 320.98 11.2415 321.586 11.6165C322.191 11.9872 322.674 12.5476 323.037 13.2976C323.399 14.0433 323.58 14.9787 323.58 16.1037C323.58 17.1989 323.403 18.1236 323.049 18.8778C322.7 19.6278 322.223 20.1967 321.618 20.5845C321.017 20.968 320.343 21.1598 319.598 21.1598C319.069 21.1598 318.62 21.0724 318.249 20.8977C317.882 20.723 317.582 20.5036 317.348 20.2393C317.113 19.9709 316.934 19.7003 316.811 19.4276H316.728V24.6818H314.005ZM316.67 16.0909C316.67 16.6747 316.751 17.1839 316.913 17.6186C317.075 18.0533 317.309 18.392 317.616 18.6349C317.923 18.8736 318.296 18.9929 318.735 18.9929C319.178 18.9929 319.553 18.8714 319.86 18.6286C320.167 18.3814 320.399 18.0405 320.556 17.6058C320.718 17.1669 320.799 16.6619 320.799 16.0909C320.799 15.5241 320.721 15.0256 320.563 14.5952C320.405 14.1648 320.173 13.8281 319.866 13.5852C319.559 13.3423 319.182 13.2209 318.735 13.2209C318.292 13.2209 317.917 13.3381 317.61 13.5724C317.307 13.8068 317.075 14.1392 316.913 14.5696C316.751 15 316.67 15.5071 316.67 16.0909ZM325.395 21V11.1818H328.035V12.8949H328.137C328.316 12.2855 328.617 11.8253 329.039 11.5142C329.461 11.1989 329.946 11.0412 330.496 11.0412C330.632 11.0412 330.779 11.0497 330.937 11.0668C331.095 11.0838 331.233 11.1072 331.353 11.1371V13.5533C331.225 13.5149 331.048 13.4808 330.822 13.451C330.596 13.4212 330.39 13.4062 330.202 13.4062C329.801 13.4062 329.444 13.4936 329.128 13.6683C328.817 13.8388 328.57 14.0774 328.387 14.3842C328.208 14.6911 328.118 15.0447 328.118 15.4453V21H325.395Z" fill="black"/>
<rect x="180.5" y="0.5" width="87" height="32" rx="16" stroke="black"/>
<rect x="288.5" y="0.5" width="47" height="32" stroke="black"/>
<path d="M139.688 15.7521C139.688 14.1669 139.898 12.7074 140.32 11.3736C140.746 10.0398 141.396 8.80398 142.27 7.66619H144.871C144.539 8.08807 144.23 8.60369 143.945 9.21307C143.659 9.81818 143.41 10.483 143.197 11.2074C142.984 11.9318 142.817 12.6818 142.698 13.4574C142.579 14.2287 142.519 14.9936 142.519 15.7521C142.519 16.7621 142.621 17.7827 142.826 18.8139C143.035 19.8409 143.316 20.7955 143.67 21.6776C144.028 22.5597 144.428 23.282 144.871 23.8445H142.27C141.396 22.7067 140.746 21.4709 140.32 20.1371C139.898 18.8033 139.688 17.3416 139.688 15.7521Z" fill="black"/>
<rect x="127.5" y="0.5" width="32" height="32" rx="16" stroke="black"/>
<path d="M375.676 15.7521C375.676 17.3416 375.463 18.8033 375.037 20.1371C374.615 21.4709 373.967 22.7067 373.094 23.8445H370.492C370.825 23.4226 371.134 22.907 371.419 22.2976C371.705 21.6882 371.954 21.0234 372.167 20.3033C372.38 19.5788 372.546 18.8288 372.665 18.0533C372.785 17.2777 372.844 16.5107 372.844 15.7521C372.844 14.7422 372.74 13.7237 372.531 12.6967C372.327 11.6655 372.045 10.7109 371.688 9.8331C371.334 8.95099 370.935 8.22869 370.492 7.66619H373.094C373.967 8.80398 374.615 10.0398 375.037 11.3736C375.463 12.7074 375.676 14.1669 375.676 15.7521Z" fill="black"/>
<rect x="356.5" y="0.5" width="32" height="32" rx="16" stroke="black"/>
<path d="M28 16L18 10.2265V21.7735L28 16ZM8 17L19 17V15L8 15V17Z" fill="black"/>
<path d="M127 16L117 10.2265V21.7735L127 16ZM107 17L118 17V15L107 15V17Z" fill="black"/>
<path d="M180 16L170 10.2265V21.7735L180 16ZM160 17L171 17V15L160 15V17Z" fill="black"/>
<path d="M288 16L278 10.2265V21.7735L288 16ZM268 17L279 17V15L268 15V17Z" fill="black"/>
<path d="M356 16L346 10.2265V21.7735L356 16ZM336 17L347 17V15L336 15V17Z" fill="black"/>
<path d="M409 16L399 10.2265V21.7735L409 16ZM389 17L400 17V15L389 15V17Z" fill="black"/>
</svg>
