<svg width="204" height="33" viewBox="0 0 204 33" fill="none" xmlns="http://www.w3.org/2000/svg">
<circle cx="4" cy="16" r="3.5" stroke="black"/>
<circle cx="200" cy="16" r="3.5" stroke="black"/>
<path d="M28 16L18 10.2265V21.7735L28 16ZM8 17L19 17V15L8 15V17Z" fill="black"/>
<path d="M196 16L186 10.2265V21.7735L196 16ZM176 17L187 17V15L176 15V17Z" fill="black"/>
<path d="M46.5227 23.1918C45.517 23.1918 44.652 22.9787 43.9276 22.5526C43.2074 22.1222 42.6534 21.5256 42.2656 20.7628C41.8821 20 41.6903 19.1222 41.6903 18.1293C41.6903 17.1236 41.8842 16.2415 42.272 15.483C42.6641 14.7202 43.2202 14.1257 43.9403 13.6996C44.6605 13.2692 45.517 13.054 46.5099 13.054C47.3665 13.054 48.1165 13.2095 48.7599 13.5206C49.4034 13.8317 49.9126 14.2685 50.2876 14.831C50.6626 15.3935 50.8693 16.054 50.9077 16.8125H48.3381C48.2656 16.3224 48.0739 15.9283 47.7628 15.63C47.456 15.3274 47.0533 15.1761 46.5547 15.1761C46.1328 15.1761 45.7642 15.2912 45.4489 15.5213C45.1378 15.7472 44.8949 16.0774 44.7202 16.5121C44.5455 16.9467 44.4581 17.473 44.4581 18.0909C44.4581 18.7173 44.5433 19.25 44.7138 19.6889C44.8885 20.1278 45.1335 20.4624 45.4489 20.6925C45.7642 20.9226 46.1328 21.0376 46.5547 21.0376C46.8658 21.0376 47.1449 20.9737 47.392 20.8459C47.6435 20.718 47.8501 20.5327 48.0121 20.2898C48.1783 20.0426 48.2869 19.7464 48.3381 19.4013H50.9077C50.8651 20.1513 50.6605 20.8118 50.294 21.3828C49.9318 21.9496 49.4311 22.3928 48.7919 22.7124C48.1527 23.032 47.3963 23.1918 46.5227 23.1918ZM57.0872 23.1918C56.0943 23.1918 55.2356 22.9808 54.5112 22.5589C53.791 22.1328 53.2349 21.5405 52.8429 20.782C52.4508 20.0192 52.2548 19.1349 52.2548 18.1293C52.2548 17.1151 52.4508 16.2287 52.8429 15.4702C53.2349 14.7074 53.791 14.1151 54.5112 13.6932C55.2356 13.267 56.0943 13.054 57.0872 13.054C58.0801 13.054 58.9366 13.267 59.6568 13.6932C60.3812 14.1151 60.9395 14.7074 61.3315 15.4702C61.7235 16.2287 61.9196 17.1151 61.9196 18.1293C61.9196 19.1349 61.7235 20.0192 61.3315 20.782C60.9395 21.5405 60.3812 22.1328 59.6568 22.5589C58.9366 22.9808 58.0801 23.1918 57.0872 23.1918ZM57.1 21.0824C57.5517 21.0824 57.9288 20.9545 58.2314 20.6989C58.5339 20.4389 58.7619 20.0852 58.9153 19.6378C59.073 19.1903 59.1518 18.6811 59.1518 18.1101C59.1518 17.5391 59.073 17.0298 58.9153 16.5824C58.7619 16.1349 58.5339 15.7812 58.2314 15.5213C57.9288 15.2614 57.5517 15.1314 57.1 15.1314C56.644 15.1314 56.2605 15.2614 55.9494 15.5213C55.6426 15.7812 55.4103 16.1349 55.2527 16.5824C55.0993 17.0298 55.0225 17.5391 55.0225 18.1101C55.0225 18.6811 55.0993 19.1903 55.2527 19.6378C55.4103 20.0852 55.6426 20.4389 55.9494 20.6989C56.2605 20.9545 56.644 21.0824 57.1 21.0824ZM66.4132 9.90909V23H63.6902V9.90909H66.4132ZM74.8906 18.8196V13.1818H77.6136V23H74.9993V21.2166H74.897C74.6754 21.7919 74.3068 22.2543 73.7912 22.6037C73.2798 22.9531 72.6555 23.1278 71.9183 23.1278C71.2621 23.1278 70.6847 22.9787 70.1861 22.6804C69.6875 22.3821 69.2976 21.9581 69.0163 21.4084C68.7393 20.8587 68.5987 20.2003 68.5945 19.4332V13.1818H71.3175V18.9474C71.3217 19.527 71.4773 19.9851 71.7841 20.3217C72.0909 20.6584 72.5021 20.8267 73.0178 20.8267C73.3459 20.8267 73.6527 20.7521 73.9382 20.603C74.2237 20.4496 74.4538 20.2237 74.6286 19.9254C74.8075 19.6271 74.8949 19.2585 74.8906 18.8196ZM79.7917 23V13.1818H82.3869V14.9141H82.502C82.7065 14.3388 83.0474 13.8849 83.5247 13.5526C84.002 13.2202 84.573 13.054 85.2377 13.054C85.911 13.054 86.4842 13.2223 86.9572 13.5589C87.4302 13.8913 87.7456 14.343 87.9032 14.9141H88.0055C88.2058 14.3516 88.568 13.902 89.0922 13.5653C89.6206 13.2244 90.2449 13.054 90.965 13.054C91.8812 13.054 92.6248 13.3459 93.1958 13.9297C93.7711 14.5092 94.0588 15.3317 94.0588 16.397V23H91.3422V16.9339C91.3422 16.3885 91.1973 15.9794 90.9075 15.7067C90.6177 15.4339 90.2555 15.2976 89.8208 15.2976C89.3265 15.2976 88.9409 15.4553 88.6639 15.7706C88.3869 16.0817 88.2484 16.4929 88.2484 17.0043V23H85.6085V16.8764C85.6085 16.3949 85.47 16.0114 85.193 15.7259C84.9203 15.4403 84.5602 15.2976 84.1127 15.2976C83.8102 15.2976 83.5375 15.3743 83.2946 15.5277C83.0559 15.6768 82.8663 15.8878 82.7257 16.1605C82.585 16.429 82.5147 16.7443 82.5147 17.1065V23H79.7917ZM98.9327 17.3239V23H96.2097V13.1818H98.8049V14.9141H98.9199C99.1373 14.343 99.5016 13.8913 100.013 13.5589C100.524 13.2223 101.144 13.054 101.873 13.054C102.555 13.054 103.149 13.2031 103.656 13.5014C104.164 13.7997 104.558 14.2259 104.839 14.7798C105.12 15.3295 105.261 15.9858 105.261 16.7486V23H102.538V17.2344C102.542 16.6335 102.389 16.1648 102.078 15.8281C101.767 15.4872 101.338 15.3168 100.793 15.3168C100.426 15.3168 100.102 15.3956 99.8212 15.5533C99.5442 15.7109 99.3269 15.9411 99.1692 16.2436C99.0158 16.5419 98.937 16.902 98.9327 17.3239ZM113.524 16.544V18.7045H107.554V16.544H113.524ZM118.567 17.3239V23H115.844V13.1818H118.44V14.9141H118.555C118.772 14.343 119.136 13.8913 119.648 13.5589C120.159 13.2223 120.779 13.054 121.508 13.054C122.19 13.054 122.784 13.2031 123.291 13.5014C123.798 13.7997 124.192 14.2259 124.474 14.7798C124.755 15.3295 124.896 15.9858 124.896 16.7486V23H122.173V17.2344C122.177 16.6335 122.023 16.1648 121.712 15.8281C121.401 15.4872 120.973 15.3168 120.428 15.3168C120.061 15.3168 119.737 15.3956 119.456 15.5533C119.179 15.7109 118.962 15.9411 118.804 16.2436C118.651 16.5419 118.572 16.902 118.567 17.3239ZM129.841 23.1854C129.215 23.1854 128.657 23.0767 128.167 22.8594C127.677 22.6378 127.289 22.3118 127.003 21.8814C126.722 21.4467 126.581 20.9055 126.581 20.2578C126.581 19.7124 126.682 19.2543 126.882 18.8835C127.082 18.5128 127.355 18.2145 127.7 17.9886C128.045 17.7628 128.437 17.5923 128.876 17.4773C129.319 17.3622 129.784 17.2812 130.27 17.2344C130.841 17.1747 131.301 17.1193 131.65 17.0682C132 17.0128 132.253 16.9318 132.411 16.8253C132.569 16.7187 132.648 16.5611 132.648 16.3523V16.3139C132.648 15.9091 132.52 15.5959 132.264 15.3743C132.013 15.1527 131.655 15.0419 131.19 15.0419C130.7 15.0419 130.31 15.1506 130.02 15.3679C129.731 15.581 129.539 15.8494 129.445 16.1733L126.927 15.9688C127.055 15.3722 127.306 14.8565 127.681 14.4219C128.056 13.983 128.54 13.6463 129.132 13.4119C129.729 13.1733 130.419 13.054 131.203 13.054C131.748 13.054 132.27 13.1179 132.769 13.2457C133.272 13.3736 133.717 13.5717 134.105 13.8402C134.497 14.1087 134.806 14.4538 135.032 14.8757C135.258 15.2933 135.371 15.794 135.371 16.3778V23H132.788V21.6385H132.711C132.554 21.9453 132.343 22.2159 132.079 22.4503C131.814 22.6804 131.497 22.8615 131.126 22.9936C130.756 23.1214 130.327 23.1854 129.841 23.1854ZM130.621 21.3061C131.022 21.3061 131.376 21.2273 131.682 21.0696C131.989 20.9077 132.23 20.6903 132.405 20.4176C132.579 20.1449 132.667 19.8359 132.667 19.4908V18.4489C132.581 18.5043 132.464 18.5554 132.315 18.6023C132.17 18.6449 132.006 18.6854 131.823 18.7237C131.64 18.7578 131.456 18.7898 131.273 18.8196C131.09 18.8452 130.924 18.8686 130.775 18.8899C130.455 18.9368 130.176 19.0114 129.937 19.1136C129.699 19.2159 129.513 19.3544 129.381 19.5291C129.249 19.6996 129.183 19.9126 129.183 20.1683C129.183 20.5391 129.317 20.8224 129.586 21.0185C129.858 21.2102 130.204 21.3061 130.621 21.3061ZM137.483 23V13.1818H140.078V14.9141H140.193C140.398 14.3388 140.739 13.8849 141.216 13.5526C141.693 13.2202 142.264 13.054 142.929 13.054C143.602 13.054 144.176 13.2223 144.649 13.5589C145.122 13.8913 145.437 14.343 145.595 14.9141H145.697C145.897 14.3516 146.259 13.902 146.784 13.5653C147.312 13.2244 147.936 13.054 148.656 13.054C149.573 13.054 150.316 13.3459 150.887 13.9297C151.463 14.5092 151.75 15.3317 151.75 16.397V23H149.034V16.9339C149.034 16.3885 148.889 15.9794 148.599 15.7067C148.309 15.4339 147.947 15.2976 147.512 15.2976C147.018 15.2976 146.632 15.4553 146.355 15.7706C146.078 16.0817 145.94 16.4929 145.94 17.0043V23H143.3V16.8764C143.3 16.3949 143.161 16.0114 142.884 15.7259C142.612 15.4403 142.252 15.2976 141.804 15.2976C141.502 15.2976 141.229 15.3743 140.986 15.5277C140.747 15.6768 140.558 15.8878 140.417 16.1605C140.276 16.429 140.206 16.7443 140.206 17.1065V23H137.483ZM158.376 23.1918C157.366 23.1918 156.496 22.9872 155.768 22.5781C155.043 22.1648 154.485 21.581 154.093 20.8267C153.701 20.0682 153.505 19.1712 153.505 18.1357C153.505 17.1257 153.701 16.2393 154.093 15.4766C154.485 14.7138 155.037 14.1193 155.748 13.6932C156.464 13.267 157.304 13.054 158.267 13.054C158.915 13.054 159.518 13.1584 160.076 13.3672C160.638 13.5717 161.128 13.8807 161.546 14.294C161.968 14.7074 162.296 15.2273 162.53 15.8537C162.765 16.4759 162.882 17.2045 162.882 18.0398V18.7876H154.591V17.1001H160.319C160.319 16.7081 160.233 16.3608 160.063 16.0582C159.893 15.7557 159.656 15.5192 159.354 15.3487C159.055 15.174 158.708 15.0866 158.312 15.0866C157.898 15.0866 157.532 15.1825 157.212 15.3743C156.897 15.5618 156.65 15.8153 156.471 16.1349C156.292 16.4503 156.2 16.8018 156.196 17.1896V18.794C156.196 19.2798 156.285 19.6996 156.464 20.0533C156.648 20.407 156.905 20.6797 157.238 20.8714C157.57 21.0632 157.964 21.1591 158.42 21.1591C158.723 21.1591 159 21.1165 159.251 21.0312C159.503 20.946 159.718 20.8182 159.897 20.6477C160.076 20.4773 160.212 20.2685 160.306 20.0213L162.824 20.1875C162.697 20.7926 162.434 21.321 162.038 21.7727C161.646 22.2202 161.139 22.5696 160.517 22.821C159.899 23.0682 159.185 23.1918 158.376 23.1918Z" fill="black"/>
<rect x="28.5" y="0.5" width="147" height="32" rx="16" stroke="black"/>
</svg>
