<svg width="204" height="66" viewBox="0 0 204 66" fill="none" xmlns="http://www.w3.org/2000/svg">
<path d="M1.08665 18V8.18182H3.80966V18H1.08665ZM2.45455 6.91619C2.04972 6.91619 1.70241 6.78196 1.41264 6.51349C1.12713 6.24077 0.984375 5.91477 0.984375 5.53551C0.984375 5.16051 1.12713 4.83878 1.41264 4.57031C1.70241 4.29758 2.04972 4.16122 2.45455 4.16122C2.85938 4.16122 3.20455 4.29758 3.49006 4.57031C3.77983 4.83878 3.92472 5.16051 3.92472 5.53551C3.92472 5.91477 3.77983 6.24077 3.49006 6.51349C3.20455 6.78196 2.85938 6.91619 2.45455 6.91619ZM8.71396 12.3239V18H5.99094V8.18182H8.58612V9.91406H8.70117C8.9185 9.34304 9.28285 8.89133 9.79421 8.55895C10.3056 8.2223 10.9256 8.05398 11.6543 8.05398C12.3361 8.05398 12.9306 8.20312 13.4377 8.50142C13.9448 8.79972 14.339 9.22585 14.6202 9.77983C14.9015 10.3295 15.0421 10.9858 15.0421 11.7486V18H12.3191V12.2344C12.3233 11.6335 12.1699 11.1648 11.8588 10.8281C11.5478 10.4872 11.1195 10.3168 10.574 10.3168C10.2076 10.3168 9.8837 10.3956 9.60245 10.5533C9.32546 10.7109 9.10813 10.9411 8.95046 11.2436C8.79705 11.5419 8.71822 11.902 8.71396 12.3239ZM20.8061 18.1598C20.0604 18.1598 19.3849 17.968 18.7798 17.5845C18.179 17.1967 17.7017 16.6278 17.348 15.8778C16.9986 15.1236 16.8239 14.1989 16.8239 13.1037C16.8239 11.9787 17.005 11.0433 17.3672 10.2976C17.7294 9.54759 18.2109 8.98722 18.8118 8.61648C19.4169 8.24148 20.0795 8.05398 20.7997 8.05398C21.3494 8.05398 21.8075 8.14773 22.174 8.33523C22.5447 8.51847 22.843 8.74858 23.0689 9.02557C23.299 9.2983 23.4737 9.56676 23.593 9.83097H23.6761V4.90909H26.3928V18H23.7081V16.4276H23.593C23.4652 16.7003 23.2841 16.9709 23.0497 17.2393C22.8196 17.5036 22.5192 17.723 22.1484 17.8977C21.782 18.0724 21.3345 18.1598 20.8061 18.1598ZM21.669 15.9929C22.108 15.9929 22.4787 15.8736 22.7812 15.6349C23.0881 15.392 23.3224 15.0533 23.4844 14.6186C23.6506 14.1839 23.7337 13.6747 23.7337 13.0909C23.7337 12.5071 23.6527 12 23.4908 11.5696C23.3288 11.1392 23.0945 10.8068 22.7876 10.5724C22.4808 10.3381 22.108 10.2209 21.669 10.2209C21.2216 10.2209 20.8445 10.3423 20.5376 10.5852C20.2308 10.8281 19.9986 11.1648 19.8409 11.5952C19.6832 12.0256 19.6044 12.5241 19.6044 13.0909C19.6044 13.6619 19.6832 14.1669 19.8409 14.6058C20.0028 15.0405 20.2351 15.3814 20.5376 15.6286C20.8445 15.8714 21.2216 15.9929 21.669 15.9929ZM33.106 18.1918C32.0961 18.1918 31.2267 17.9872 30.498 17.5781C29.7736 17.1648 29.2154 16.581 28.8233 15.8267C28.4313 15.0682 28.2353 14.1712 28.2353 13.1357C28.2353 12.1257 28.4313 11.2393 28.8233 10.4766C29.2154 9.71378 29.7672 9.11932 30.4789 8.69318C31.1948 8.26705 32.0343 8.05398 32.9973 8.05398C33.6451 8.05398 34.248 8.15838 34.8063 8.36719C35.3688 8.57173 35.8588 8.88068 36.2765 9.29403C36.6983 9.70739 37.0265 10.2273 37.2608 10.8537C37.4952 11.4759 37.6124 12.2045 37.6124 13.0398V13.7876H29.3219V12.1001H35.0492C35.0492 11.7081 34.964 11.3608 34.7935 11.0582C34.623 10.7557 34.3865 10.5192 34.084 10.3487C33.7857 10.174 33.4384 10.0866 33.0421 10.0866C32.6287 10.0866 32.2623 10.1825 31.9426 10.3743C31.6273 10.5618 31.3801 10.8153 31.2012 11.1349C31.0222 11.4503 30.9306 11.8018 30.9263 12.1896V13.794C30.9263 14.2798 31.0158 14.6996 31.1948 15.0533C31.378 15.407 31.6358 15.6797 31.9682 15.8714C32.3006 16.0632 32.6948 16.1591 33.1507 16.1591C33.4533 16.1591 33.7303 16.1165 33.9817 16.0312C34.2331 15.946 34.4483 15.8182 34.6273 15.6477C34.8063 15.4773 34.9426 15.2685 35.0364 15.0213L37.5549 15.1875C37.427 15.7926 37.165 16.321 36.7686 16.7727C36.3766 17.2202 35.8695 17.5696 35.2473 17.821C34.6294 18.0682 33.9157 18.1918 33.106 18.1918ZM41.4892 8.18182L43.2917 11.6143L45.139 8.18182H47.9324L45.0879 13.0909L48.0091 18H45.2285L43.2917 14.6058L41.3869 18H38.5744L41.4892 13.0909L38.6767 8.18182H41.4892ZM53.6724 18.1918C52.6625 18.1918 51.7931 17.9872 51.0645 17.5781C50.34 17.1648 49.7818 16.581 49.3897 15.8267C48.9977 15.0682 48.8017 14.1712 48.8017 13.1357C48.8017 12.1257 48.9977 11.2393 49.3897 10.4766C49.7818 9.71378 50.3336 9.11932 51.0453 8.69318C51.7612 8.26705 52.6007 8.05398 53.5637 8.05398C54.2115 8.05398 54.8145 8.15838 55.3727 8.36719C55.9352 8.57173 56.4252 8.88068 56.8429 9.29403C57.2647 9.70739 57.5929 10.2273 57.8272 10.8537C58.0616 11.4759 58.1788 12.2045 58.1788 13.0398V13.7876H49.8883V12.1001H55.6156C55.6156 11.7081 55.5304 11.3608 55.3599 11.0582C55.1895 10.7557 54.9529 10.5192 54.6504 10.3487C54.3521 10.174 54.0048 10.0866 53.6085 10.0866C53.1951 10.0866 52.8287 10.1825 52.5091 10.3743C52.1937 10.5618 51.9466 10.8153 51.7676 11.1349C51.5886 11.4503 51.497 11.8018 51.4927 12.1896V13.794C51.4927 14.2798 51.5822 14.6996 51.7612 15.0533C51.9444 15.407 52.2022 15.6797 52.5346 15.8714C52.867 16.0632 53.2612 16.1591 53.7172 16.1591C54.0197 16.1591 54.2967 16.1165 54.5481 16.0312C54.7995 15.946 55.0147 15.8182 55.1937 15.6477C55.3727 15.4773 55.5091 15.2685 55.6028 15.0213L58.1213 15.1875C57.9934 15.7926 57.7314 16.321 57.3351 16.7727C56.943 17.2202 56.4359 17.5696 55.8137 17.821C55.1958 18.0682 54.4821 18.1918 53.6724 18.1918ZM63.5737 18.1598C62.8279 18.1598 62.1525 17.968 61.5474 17.5845C60.9466 17.1967 60.4693 16.6278 60.1156 15.8778C59.7662 15.1236 59.5914 14.1989 59.5914 13.1037C59.5914 11.9787 59.7725 11.0433 60.1348 10.2976C60.497 9.54759 60.9785 8.98722 61.5794 8.61648C62.1845 8.24148 62.8471 8.05398 63.5673 8.05398C64.117 8.05398 64.5751 8.14773 64.9416 8.33523C65.3123 8.51847 65.6106 8.74858 65.8365 9.02557C66.0666 9.2983 66.2413 9.56676 66.3606 9.83097H66.4437V4.90909H69.1603V18H66.4757V16.4276H66.3606C66.2328 16.7003 66.0517 16.9709 65.8173 17.2393C65.5872 17.5036 65.2868 17.723 64.916 17.8977C64.5495 18.0724 64.1021 18.1598 63.5737 18.1598ZM64.4366 15.9929C64.8755 15.9929 65.2463 15.8736 65.5488 15.6349C65.8556 15.392 66.09 15.0533 66.252 14.6186C66.4181 14.1839 66.5012 13.6747 66.5012 13.0909C66.5012 12.5071 66.4203 12 66.2583 11.5696C66.0964 11.1392 65.862 10.8068 65.5552 10.5724C65.2484 10.3381 64.8755 10.2209 64.4366 10.2209C63.9892 10.2209 63.612 10.3423 63.3052 10.5852C62.9984 10.8281 62.7662 11.1648 62.6085 11.5952C62.4508 12.0256 62.372 12.5241 62.372 13.0909C62.372 13.6619 62.4508 14.1669 62.6085 14.6058C62.7704 15.0405 63.0027 15.3814 63.3052 15.6286C63.612 15.8714 63.9892 15.9929 64.4366 15.9929ZM77.5163 11.544V13.7045H71.5462V11.544H77.5163ZM84.2727 18.1918C83.267 18.1918 82.402 17.9787 81.6776 17.5526C80.9574 17.1222 80.4034 16.5256 80.0156 15.7628C79.6321 15 79.4403 14.1222 79.4403 13.1293C79.4403 12.1236 79.6342 11.2415 80.022 10.483C80.4141 9.72017 80.9702 9.12571 81.6903 8.69957C82.4105 8.26918 83.267 8.05398 84.2599 8.05398C85.1165 8.05398 85.8665 8.20952 86.5099 8.5206C87.1534 8.83168 87.6626 9.26847 88.0376 9.83097C88.4126 10.3935 88.6193 11.054 88.6577 11.8125H86.0881C86.0156 11.3224 85.8239 10.9283 85.5128 10.63C85.206 10.3274 84.8033 10.1761 84.3047 10.1761C83.8828 10.1761 83.5142 10.2912 83.1989 10.5213C82.8878 10.7472 82.6449 11.0774 82.4702 11.5121C82.2955 11.9467 82.2081 12.473 82.2081 13.0909C82.2081 13.7173 82.2933 14.25 82.4638 14.6889C82.6385 15.1278 82.8835 15.4624 83.1989 15.6925C83.5142 15.9226 83.8828 16.0376 84.3047 16.0376C84.6158 16.0376 84.8949 15.9737 85.142 15.8459C85.3935 15.718 85.6001 15.5327 85.7621 15.2898C85.9283 15.0426 86.0369 14.7464 86.0881 14.4013H88.6577C88.6151 15.1513 88.4105 15.8118 88.044 16.3828C87.6818 16.9496 87.1811 17.3928 86.5419 17.7124C85.9027 18.032 85.1463 18.1918 84.2727 18.1918ZM94.8372 18.1918C93.8443 18.1918 92.9856 17.9808 92.2612 17.5589C91.541 17.1328 90.9849 16.5405 90.5929 15.782C90.2008 15.0192 90.0048 14.1349 90.0048 13.1293C90.0048 12.1151 90.2008 11.2287 90.5929 10.4702C90.9849 9.70739 91.541 9.11506 92.2612 8.69318C92.9856 8.26705 93.8443 8.05398 94.8372 8.05398C95.8301 8.05398 96.6866 8.26705 97.4068 8.69318C98.1312 9.11506 98.6895 9.70739 99.0815 10.4702C99.4735 11.2287 99.6696 12.1151 99.6696 13.1293C99.6696 14.1349 99.4735 15.0192 99.0815 15.782C98.6895 16.5405 98.1312 17.1328 97.4068 17.5589C96.6866 17.9808 95.8301 18.1918 94.8372 18.1918ZM94.85 16.0824C95.3017 16.0824 95.6788 15.9545 95.9814 15.6989C96.2839 15.4389 96.5119 15.0852 96.6653 14.6378C96.823 14.1903 96.9018 13.6811 96.9018 13.1101C96.9018 12.5391 96.823 12.0298 96.6653 11.5824C96.5119 11.1349 96.2839 10.7812 95.9814 10.5213C95.6788 10.2614 95.3017 10.1314 94.85 10.1314C94.394 10.1314 94.0105 10.2614 93.6994 10.5213C93.3926 10.7812 93.1603 11.1349 93.0027 11.5824C92.8493 12.0298 92.7725 12.5391 92.7725 13.1101C92.7725 13.6811 92.8493 14.1903 93.0027 14.6378C93.1603 15.0852 93.3926 15.4389 93.6994 15.6989C94.0105 15.9545 94.394 16.0824 94.85 16.0824ZM104.163 4.90909V18H101.44V4.90909H104.163ZM112.641 13.8196V8.18182H115.364V18H112.749V16.2166H112.647C112.425 16.7919 112.057 17.2543 111.541 17.6037C111.03 17.9531 110.406 18.1278 109.668 18.1278C109.012 18.1278 108.435 17.9787 107.936 17.6804C107.438 17.3821 107.048 16.9581 106.766 16.4084C106.489 15.8587 106.349 15.2003 106.344 14.4332V8.18182H109.067V13.9474C109.072 14.527 109.227 14.9851 109.534 15.3217C109.841 15.6584 110.252 15.8267 110.768 15.8267C111.096 15.8267 111.403 15.7521 111.688 15.603C111.974 15.4496 112.204 15.2237 112.379 14.9254C112.558 14.6271 112.645 14.2585 112.641 13.8196ZM117.542 18V8.18182H120.137V9.91406H120.252C120.456 9.33878 120.797 8.88494 121.275 8.55256C121.752 8.22017 122.323 8.05398 122.988 8.05398C123.661 8.05398 124.234 8.2223 124.707 8.55895C125.18 8.89133 125.496 9.34304 125.653 9.91406H125.756C125.956 9.35156 126.318 8.90199 126.842 8.56534C127.371 8.22443 127.995 8.05398 128.715 8.05398C129.631 8.05398 130.375 8.34588 130.946 8.92969C131.521 9.50923 131.809 10.3317 131.809 11.397V18H129.092V11.9339C129.092 11.3885 128.947 10.9794 128.657 10.7067C128.368 10.4339 128.006 10.2976 127.571 10.2976C127.077 10.2976 126.691 10.4553 126.414 10.7706C126.137 11.0817 125.998 11.4929 125.998 12.0043V18H123.358V11.8764C123.358 11.3949 123.22 11.0114 122.943 10.7259C122.67 10.4403 122.31 10.2976 121.863 10.2976C121.56 10.2976 121.287 10.3743 121.045 10.5277C120.806 10.6768 120.616 10.8878 120.476 11.1605C120.335 11.429 120.265 11.7443 120.265 12.1065V18H117.542ZM136.683 12.3239V18H133.96V8.18182H136.555V9.91406H136.67C136.887 9.34304 137.252 8.89133 137.763 8.55895C138.274 8.2223 138.894 8.05398 139.623 8.05398C140.305 8.05398 140.899 8.20312 141.406 8.50142C141.914 8.79972 142.308 9.22585 142.589 9.77983C142.87 10.3295 143.011 10.9858 143.011 11.7486V18H140.288V12.2344C140.292 11.6335 140.139 11.1648 139.828 10.8281C139.517 10.4872 139.088 10.3168 138.543 10.3168C138.176 10.3168 137.852 10.3956 137.571 10.5533C137.294 10.7109 137.077 10.9411 136.919 11.2436C136.766 11.5419 136.687 11.902 136.683 12.3239Z" fill="black"/>
<circle cx="4" cy="49" r="3.5" stroke="black"/>
<circle cx="200" cy="49" r="3.5" stroke="black"/>
<path d="M28 49L18 43.2265V54.7735L28 49ZM8 50H19V48H8V50Z" fill="black"/>
<path d="M196 49L186 43.2265V54.7735L196 49ZM176 50H187V48H176V50Z" fill="black"/>
<path d="M46.5227 56.1918C45.517 56.1918 44.652 55.9787 43.9276 55.5526C43.2074 55.1222 42.6534 54.5256 42.2656 53.7628C41.8821 53 41.6903 52.1222 41.6903 51.1293C41.6903 50.1236 41.8842 49.2415 42.272 48.483C42.6641 47.7202 43.2202 47.1257 43.9403 46.6996C44.6605 46.2692 45.517 46.054 46.5099 46.054C47.3665 46.054 48.1165 46.2095 48.7599 46.5206C49.4034 46.8317 49.9126 47.2685 50.2876 47.831C50.6626 48.3935 50.8693 49.054 50.9077 49.8125H48.3381C48.2656 49.3224 48.0739 48.9283 47.7628 48.63C47.456 48.3274 47.0533 48.1761 46.5547 48.1761C46.1328 48.1761 45.7642 48.2912 45.4489 48.5213C45.1378 48.7472 44.8949 49.0774 44.7202 49.5121C44.5455 49.9467 44.4581 50.473 44.4581 51.0909C44.4581 51.7173 44.5433 52.25 44.7138 52.6889C44.8885 53.1278 45.1335 53.4624 45.4489 53.6925C45.7642 53.9226 46.1328 54.0376 46.5547 54.0376C46.8658 54.0376 47.1449 53.9737 47.392 53.8459C47.6435 53.718 47.8501 53.5327 48.0121 53.2898C48.1783 53.0426 48.2869 52.7464 48.3381 52.4013H50.9077C50.8651 53.1513 50.6605 53.8118 50.294 54.3828C49.9318 54.9496 49.4311 55.3928 48.7919 55.7124C48.1527 56.032 47.3963 56.1918 46.5227 56.1918ZM57.0872 56.1918C56.0943 56.1918 55.2356 55.9808 54.5112 55.5589C53.791 55.1328 53.2349 54.5405 52.8429 53.782C52.4508 53.0192 52.2548 52.1349 52.2548 51.1293C52.2548 50.1151 52.4508 49.2287 52.8429 48.4702C53.2349 47.7074 53.791 47.1151 54.5112 46.6932C55.2356 46.267 56.0943 46.054 57.0872 46.054C58.0801 46.054 58.9366 46.267 59.6568 46.6932C60.3812 47.1151 60.9395 47.7074 61.3315 48.4702C61.7235 49.2287 61.9196 50.1151 61.9196 51.1293C61.9196 52.1349 61.7235 53.0192 61.3315 53.782C60.9395 54.5405 60.3812 55.1328 59.6568 55.5589C58.9366 55.9808 58.0801 56.1918 57.0872 56.1918ZM57.1 54.0824C57.5517 54.0824 57.9288 53.9545 58.2314 53.6989C58.5339 53.4389 58.7619 53.0852 58.9153 52.6378C59.073 52.1903 59.1518 51.6811 59.1518 51.1101C59.1518 50.5391 59.073 50.0298 58.9153 49.5824C58.7619 49.1349 58.5339 48.7812 58.2314 48.5213C57.9288 48.2614 57.5517 48.1314 57.1 48.1314C56.644 48.1314 56.2605 48.2614 55.9494 48.5213C55.6426 48.7812 55.4103 49.1349 55.2527 49.5824C55.0993 50.0298 55.0225 50.5391 55.0225 51.1101C55.0225 51.6811 55.0993 52.1903 55.2527 52.6378C55.4103 53.0852 55.6426 53.4389 55.9494 53.6989C56.2605 53.9545 56.644 54.0824 57.1 54.0824ZM66.4132 42.9091V56H63.6902V42.9091H66.4132ZM74.8906 51.8196V46.1818H77.6136V56H74.9993V54.2166H74.897C74.6754 54.7919 74.3068 55.2543 73.7912 55.6037C73.2798 55.9531 72.6555 56.1278 71.9183 56.1278C71.2621 56.1278 70.6847 55.9787 70.1861 55.6804C69.6875 55.3821 69.2976 54.9581 69.0163 54.4084C68.7393 53.8587 68.5987 53.2003 68.5945 52.4332V46.1818H71.3175V51.9474C71.3217 52.527 71.4773 52.9851 71.7841 53.3217C72.0909 53.6584 72.5021 53.8267 73.0178 53.8267C73.3459 53.8267 73.6527 53.7521 73.9382 53.603C74.2237 53.4496 74.4538 53.2237 74.6286 52.9254C74.8075 52.6271 74.8949 52.2585 74.8906 51.8196ZM79.7917 56V46.1818H82.3869V47.9141H82.502C82.7065 47.3388 83.0474 46.8849 83.5247 46.5526C84.002 46.2202 84.573 46.054 85.2377 46.054C85.911 46.054 86.4842 46.2223 86.9572 46.5589C87.4302 46.8913 87.7456 47.343 87.9032 47.9141H88.0055C88.2058 47.3516 88.568 46.902 89.0922 46.5653C89.6206 46.2244 90.2449 46.054 90.965 46.054C91.8812 46.054 92.6248 46.3459 93.1958 46.9297C93.7711 47.5092 94.0588 48.3317 94.0588 49.397V56H91.3422V49.9339C91.3422 49.3885 91.1973 48.9794 90.9075 48.7067C90.6177 48.4339 90.2555 48.2976 89.8208 48.2976C89.3265 48.2976 88.9409 48.4553 88.6639 48.7706C88.3869 49.0817 88.2484 49.4929 88.2484 50.0043V56H85.6085V49.8764C85.6085 49.3949 85.47 49.0114 85.193 48.7259C84.9203 48.4403 84.5602 48.2976 84.1127 48.2976C83.8102 48.2976 83.5375 48.3743 83.2946 48.5277C83.0559 48.6768 82.8663 48.8878 82.7257 49.1605C82.585 49.429 82.5147 49.7443 82.5147 50.1065V56H79.7917ZM98.9327 50.3239V56H96.2097V46.1818H98.8049V47.9141H98.9199C99.1373 47.343 99.5016 46.8913 100.013 46.5589C100.524 46.2223 101.144 46.054 101.873 46.054C102.555 46.054 103.149 46.2031 103.656 46.5014C104.164 46.7997 104.558 47.2259 104.839 47.7798C105.12 48.3295 105.261 48.9858 105.261 49.7486V56H102.538V50.2344C102.542 49.6335 102.389 49.1648 102.078 48.8281C101.767 48.4872 101.338 48.3168 100.793 48.3168C100.426 48.3168 100.102 48.3956 99.8212 48.5533C99.5442 48.7109 99.3269 48.9411 99.1692 49.2436C99.0158 49.5419 98.937 49.902 98.9327 50.3239ZM113.524 49.544V51.7045H107.554V49.544H113.524ZM118.567 50.3239V56H115.844V46.1818H118.44V47.9141H118.555C118.772 47.343 119.136 46.8913 119.648 46.5589C120.159 46.2223 120.779 46.054 121.508 46.054C122.19 46.054 122.784 46.2031 123.291 46.5014C123.798 46.7997 124.192 47.2259 124.474 47.7798C124.755 48.3295 124.896 48.9858 124.896 49.7486V56H122.173V50.2344C122.177 49.6335 122.023 49.1648 121.712 48.8281C121.401 48.4872 120.973 48.3168 120.428 48.3168C120.061 48.3168 119.737 48.3956 119.456 48.5533C119.179 48.7109 118.962 48.9411 118.804 49.2436C118.651 49.5419 118.572 49.902 118.567 50.3239ZM129.841 56.1854C129.215 56.1854 128.657 56.0767 128.167 55.8594C127.677 55.6378 127.289 55.3118 127.003 54.8814C126.722 54.4467 126.581 53.9055 126.581 53.2578C126.581 52.7124 126.682 52.2543 126.882 51.8835C127.082 51.5128 127.355 51.2145 127.7 50.9886C128.045 50.7628 128.437 50.5923 128.876 50.4773C129.319 50.3622 129.784 50.2812 130.27 50.2344C130.841 50.1747 131.301 50.1193 131.65 50.0682C132 50.0128 132.253 49.9318 132.411 49.8253C132.569 49.7187 132.648 49.5611 132.648 49.3523V49.3139C132.648 48.9091 132.52 48.5959 132.264 48.3743C132.013 48.1527 131.655 48.0419 131.19 48.0419C130.7 48.0419 130.31 48.1506 130.02 48.3679C129.731 48.581 129.539 48.8494 129.445 49.1733L126.927 48.9688C127.055 48.3722 127.306 47.8565 127.681 47.4219C128.056 46.983 128.54 46.6463 129.132 46.4119C129.729 46.1733 130.419 46.054 131.203 46.054C131.748 46.054 132.27 46.1179 132.769 46.2457C133.272 46.3736 133.717 46.5717 134.105 46.8402C134.497 47.1087 134.806 47.4538 135.032 47.8757C135.258 48.2933 135.371 48.794 135.371 49.3778V56H132.788V54.6385H132.711C132.554 54.9453 132.343 55.2159 132.079 55.4503C131.814 55.6804 131.497 55.8615 131.126 55.9936C130.756 56.1214 130.327 56.1854 129.841 56.1854ZM130.621 54.3061C131.022 54.3061 131.376 54.2273 131.682 54.0696C131.989 53.9077 132.23 53.6903 132.405 53.4176C132.579 53.1449 132.667 52.8359 132.667 52.4908V51.4489C132.581 51.5043 132.464 51.5554 132.315 51.6023C132.17 51.6449 132.006 51.6854 131.823 51.7237C131.64 51.7578 131.456 51.7898 131.273 51.8196C131.09 51.8452 130.924 51.8686 130.775 51.8899C130.455 51.9368 130.176 52.0114 129.937 52.1136C129.699 52.2159 129.513 52.3544 129.381 52.5291C129.249 52.6996 129.183 52.9126 129.183 53.1683C129.183 53.5391 129.317 53.8224 129.586 54.0185C129.858 54.2102 130.204 54.3061 130.621 54.3061ZM137.483 56V46.1818H140.078V47.9141H140.193C140.398 47.3388 140.739 46.8849 141.216 46.5526C141.693 46.2202 142.264 46.054 142.929 46.054C143.602 46.054 144.176 46.2223 144.649 46.5589C145.122 46.8913 145.437 47.343 145.595 47.9141H145.697C145.897 47.3516 146.259 46.902 146.784 46.5653C147.312 46.2244 147.936 46.054 148.656 46.054C149.573 46.054 150.316 46.3459 150.887 46.9297C151.463 47.5092 151.75 48.3317 151.75 49.397V56H149.034V49.9339C149.034 49.3885 148.889 48.9794 148.599 48.7067C148.309 48.4339 147.947 48.2976 147.512 48.2976C147.018 48.2976 146.632 48.4553 146.355 48.7706C146.078 49.0817 145.94 49.4929 145.94 50.0043V56H143.3V49.8764C143.3 49.3949 143.161 49.0114 142.884 48.7259C142.612 48.4403 142.252 48.2976 141.804 48.2976C141.502 48.2976 141.229 48.3743 140.986 48.5277C140.747 48.6768 140.558 48.8878 140.417 49.1605C140.276 49.429 140.206 49.7443 140.206 50.1065V56H137.483ZM158.376 56.1918C157.366 56.1918 156.496 55.9872 155.768 55.5781C155.043 55.1648 154.485 54.581 154.093 53.8267C153.701 53.0682 153.505 52.1712 153.505 51.1357C153.505 50.1257 153.701 49.2393 154.093 48.4766C154.485 47.7138 155.037 47.1193 155.748 46.6932C156.464 46.267 157.304 46.054 158.267 46.054C158.915 46.054 159.518 46.1584 160.076 46.3672C160.638 46.5717 161.128 46.8807 161.546 47.294C161.968 47.7074 162.296 48.2273 162.53 48.8537C162.765 49.4759 162.882 50.2045 162.882 51.0398V51.7876H154.591V50.1001H160.319C160.319 49.7081 160.233 49.3608 160.063 49.0582C159.893 48.7557 159.656 48.5192 159.354 48.3487C159.055 48.174 158.708 48.0866 158.312 48.0866C157.898 48.0866 157.532 48.1825 157.212 48.3743C156.897 48.5618 156.65 48.8153 156.471 49.1349C156.292 49.4503 156.2 49.8018 156.196 50.1896V51.794C156.196 52.2798 156.285 52.6996 156.464 53.0533C156.648 53.407 156.905 53.6797 157.238 53.8714C157.57 54.0632 157.964 54.1591 158.42 54.1591C158.723 54.1591 159 54.1165 159.251 54.0312C159.503 53.946 159.718 53.8182 159.897 53.6477C160.076 53.4773 160.212 53.2685 160.306 53.0213L162.824 53.1875C162.697 53.7926 162.434 54.321 162.038 54.7727C161.646 55.2202 161.139 55.5696 160.517 55.821C159.899 56.0682 159.185 56.1918 158.376 56.1918Z" fill="black"/>
<rect x="28.5" y="33.5" width="147" height="32" rx="16" stroke="black"/>
</svg>
