<svg width="656" height="570" viewBox="0 0 656 570" fill="none" xmlns="http://www.w3.org/2000/svg">
<circle cx="4" cy="16" r="3.5" stroke="black"/>
<circle cx="652" cy="554" r="3.5" stroke="black"/>
<path d="M188.168 82.4545C188.168 83.8821 187.897 85.0966 187.356 86.098C186.819 87.0994 186.086 87.8643 185.157 88.3928C184.232 88.9169 183.192 89.179 182.038 89.179C180.874 89.179 179.83 88.9148 178.906 88.3864C177.981 87.858 177.25 87.093 176.713 86.0916C176.176 85.0902 175.908 83.8778 175.908 82.4545C175.908 81.027 176.176 79.8125 176.713 78.8111C177.25 77.8097 177.981 77.0469 178.906 76.5227C179.83 75.9943 180.874 75.7301 182.038 75.7301C183.192 75.7301 184.232 75.9943 185.157 76.5227C186.086 77.0469 186.819 77.8097 187.356 78.8111C187.897 79.8125 188.168 81.027 188.168 82.4545ZM185.362 82.4545C185.362 81.5298 185.223 80.75 184.946 80.1151C184.673 79.4801 184.288 78.9986 183.789 78.6705C183.29 78.3423 182.707 78.1783 182.038 78.1783C181.369 78.1783 180.785 78.3423 180.286 78.6705C179.788 78.9986 179.4 79.4801 179.123 80.1151C178.85 80.75 178.714 81.5298 178.714 82.4545C178.714 83.3793 178.85 84.1591 179.123 84.794C179.4 85.429 179.788 85.9105 180.286 86.2386C180.785 86.5668 181.369 86.7308 182.038 86.7308C182.707 86.7308 183.29 86.5668 183.789 86.2386C184.288 85.9105 184.673 85.429 184.946 84.794C185.223 84.1591 185.362 83.3793 185.362 82.4545ZM190.218 89V75.9091H195.383C196.371 75.9091 197.215 76.0859 197.914 76.4396C198.617 76.7891 199.152 77.2855 199.518 77.929C199.889 78.5682 200.074 79.3203 200.074 80.1854C200.074 81.0547 199.887 81.8026 199.512 82.429C199.137 83.0511 198.594 83.5284 197.882 83.8608C197.175 84.1932 196.318 84.3594 195.312 84.3594H191.854V82.1349H194.865C195.393 82.1349 195.832 82.0625 196.182 81.9176C196.531 81.7727 196.791 81.5554 196.961 81.2656C197.136 80.9759 197.224 80.6158 197.224 80.1854C197.224 79.7507 197.136 79.3842 196.961 79.0859C196.791 78.7876 196.529 78.5618 196.175 78.4084C195.826 78.2507 195.385 78.1719 194.852 78.1719H192.986V89H190.218ZM197.287 83.0426L200.541 89H197.486L194.302 83.0426H197.287Z" fill="black"/>
<path d="M394.906 9.90909V23H392.138V9.90909H394.906ZM408.132 9.90909V23H405.742L400.046 14.7607H399.95V23H397.183V9.90909H399.612L405.262 18.142H405.377V9.90909H408.132ZM409.92 12.1911V9.90909H420.672V12.1911H416.664V23H413.928V12.1911H409.92ZM433.875 16.4545C433.875 17.8821 433.604 19.0966 433.063 20.098C432.526 21.0994 431.793 21.8643 430.864 22.3928C429.939 22.9169 428.9 23.179 427.745 23.179C426.581 23.179 425.537 22.9148 424.613 22.3864C423.688 21.858 422.957 21.093 422.42 20.0916C421.883 19.0902 421.615 17.8778 421.615 16.4545C421.615 15.027 421.883 13.8125 422.42 12.8111C422.957 11.8097 423.688 11.0469 424.613 10.5227C425.537 9.99432 426.581 9.73011 427.745 9.73011C428.9 9.73011 429.939 9.99432 430.864 10.5227C431.793 11.0469 432.526 11.8097 433.063 12.8111C433.604 13.8125 433.875 15.027 433.875 16.4545ZM431.069 16.4545C431.069 15.5298 430.93 14.75 430.653 14.1151C430.38 13.4801 429.995 12.9986 429.496 12.6705C428.998 12.3423 428.414 12.1783 427.745 12.1783C427.076 12.1783 426.492 12.3423 425.993 12.6705C425.495 12.9986 425.107 13.4801 424.83 14.1151C424.557 14.75 424.421 15.5298 424.421 16.4545C424.421 17.3793 424.557 18.1591 424.83 18.794C425.107 19.429 425.495 19.9105 425.993 20.2386C426.492 20.5668 427.076 20.7308 427.745 20.7308C428.414 20.7308 428.998 20.5668 429.496 20.2386C429.995 19.9105 430.38 19.429 430.653 18.794C430.93 18.1591 431.069 17.3793 431.069 16.4545Z" fill="black"/>
<rect x="377.5" y="0.5" width="69" height="32" rx="16" stroke="black"/>
<rect x="164.5" y="66.5" width="48" height="32" rx="16" stroke="black"/>
<path d="M62.1378 23V9.90909H67.3026C68.2912 9.90909 69.1349 10.0859 69.8338 10.4396C70.5369 10.7891 71.0717 11.2855 71.4382 11.929C71.8089 12.5682 71.9943 13.3203 71.9943 14.1854C71.9943 15.0547 71.8068 15.8026 71.4318 16.429C71.0568 17.0511 70.5135 17.5284 69.8018 17.8608C69.0945 18.1932 68.2379 18.3594 67.2322 18.3594H63.7741V16.1349H66.7848C67.3132 16.1349 67.7521 16.0625 68.1016 15.9176C68.451 15.7727 68.7109 15.5554 68.8814 15.2656C69.0561 14.9759 69.1435 14.6158 69.1435 14.1854C69.1435 13.7507 69.0561 13.3842 68.8814 13.0859C68.7109 12.7876 68.4489 12.5618 68.0952 12.4084C67.7457 12.2507 67.3047 12.1719 66.772 12.1719H64.9055V23H62.1378ZM69.2074 17.0426L72.4609 23H69.4055L66.2223 17.0426H69.2074ZM73.9503 23V9.90909H82.7713V12.1911H76.718V15.3104H82.3175V17.5923H76.718V20.718H82.7969V23H73.9503ZM84.9718 23V9.90909H90.1365C91.1294 9.90909 91.9753 10.0987 92.6742 10.478C93.373 10.853 93.9057 11.375 94.2722 12.044C94.6429 12.7088 94.8283 13.4759 94.8283 14.3452C94.8283 15.2145 94.6408 15.9815 94.2658 16.6463C93.8908 17.3111 93.3475 17.8288 92.6358 18.1996C91.9284 18.5703 91.0719 18.7557 90.0662 18.7557H86.7743V16.5376H89.6188C90.1515 16.5376 90.5904 16.446 90.9355 16.2628C91.285 16.0753 91.5449 15.8175 91.7154 15.4893C91.8901 15.157 91.9775 14.7756 91.9775 14.3452C91.9775 13.9105 91.8901 13.5312 91.7154 13.2074C91.5449 12.8793 91.285 12.6257 90.9355 12.4467C90.5861 12.2635 90.1429 12.1719 89.606 12.1719H87.7395V23H84.9718ZM96.6261 23V9.90909H99.3938V20.718H105.006V23H96.6261ZM109.429 23H106.463L110.983 9.90909H114.549L119.062 23H116.096L112.817 12.9006H112.715L109.429 23ZM109.244 17.8544H116.25V20.0149H109.244V17.8544ZM131.573 14.4922H128.773C128.722 14.13 128.618 13.8082 128.46 13.527C128.302 13.2415 128.1 12.9986 127.853 12.7983C127.606 12.598 127.32 12.4446 126.996 12.3381C126.677 12.2315 126.329 12.1783 125.954 12.1783C125.277 12.1783 124.687 12.3466 124.184 12.6832C123.681 13.0156 123.291 13.5014 123.014 14.1406C122.737 14.7756 122.599 15.5469 122.599 16.4545C122.599 17.3878 122.737 18.1719 123.014 18.8068C123.295 19.4418 123.687 19.9212 124.19 20.245C124.693 20.5689 125.275 20.7308 125.935 20.7308C126.306 20.7308 126.649 20.6818 126.964 20.5838C127.284 20.4858 127.567 20.343 127.814 20.1555C128.062 19.9638 128.266 19.7315 128.428 19.4588C128.594 19.1861 128.709 18.875 128.773 18.5256L131.573 18.5384C131.501 19.1392 131.319 19.7188 131.03 20.277C130.744 20.831 130.358 21.3274 129.873 21.7663C129.391 22.201 128.816 22.5462 128.147 22.8018C127.482 23.0533 126.73 23.179 125.89 23.179C124.723 23.179 123.679 22.9148 122.758 22.3864C121.842 21.858 121.118 21.093 120.585 20.0916C120.057 19.0902 119.792 17.8778 119.792 16.4545C119.792 15.027 120.061 13.8125 120.598 12.8111C121.135 11.8097 121.863 11.0469 122.784 10.5227C123.704 9.99432 124.74 9.73011 125.89 9.73011C126.649 9.73011 127.352 9.83665 128 10.0497C128.652 10.2628 129.229 10.5739 129.732 10.983C130.235 11.3878 130.644 11.8842 130.959 12.4723C131.279 13.0604 131.483 13.7337 131.573 14.4922ZM133.558 23V9.90909H142.379V12.1911H136.325V15.3104H141.925V17.5923H136.325V20.718H142.404V23H133.558Z" fill="black"/>
<rect x="50.5" y="0.5" width="105" height="32" rx="16" stroke="black"/>
<path d="M64.9055 44.9091V58H62.1378V44.9091H64.9055ZM78.1323 44.9091V58H75.7417L70.0463 49.7607H69.9505V58H67.1827V44.9091H69.6117L75.2623 53.142H75.3773V44.9091H78.1323ZM87.5206 48.674C87.4695 48.1584 87.25 47.7578 86.8622 47.4723C86.4744 47.1868 85.9482 47.044 85.2834 47.044C84.8317 47.044 84.4503 47.108 84.1392 47.2358C83.8281 47.3594 83.5895 47.532 83.4233 47.7536C83.2614 47.9751 83.1804 48.2266 83.1804 48.5078C83.1719 48.7422 83.2209 48.9467 83.3274 49.1214C83.4382 49.2962 83.5895 49.4474 83.7812 49.5753C83.973 49.6989 84.1946 49.8075 84.446 49.9013C84.6974 49.9908 84.9659 50.0675 85.2514 50.1314L86.4276 50.4126C86.9986 50.5405 87.5227 50.7109 88 50.924C88.4773 51.1371 88.8906 51.3991 89.2401 51.7102C89.5895 52.0213 89.8601 52.3878 90.0518 52.8097C90.2479 53.2315 90.348 53.7152 90.3523 54.2607C90.348 55.0618 90.1435 55.7564 89.7386 56.3445C89.3381 56.9283 88.7585 57.3821 88 57.706C87.2457 58.0256 86.3359 58.1854 85.2706 58.1854C84.2138 58.1854 83.2933 58.0234 82.5092 57.6996C81.7294 57.3757 81.12 56.8963 80.6811 56.2614C80.2464 55.6222 80.0185 54.8317 79.9972 53.8899H82.6754C82.7053 54.3288 82.831 54.6953 83.0526 54.9893C83.2784 55.2791 83.5788 55.4986 83.9538 55.6477C84.3331 55.7926 84.7614 55.8651 85.2386 55.8651C85.7074 55.8651 86.1143 55.7969 86.4595 55.6605C86.8089 55.5241 87.0795 55.3345 87.2713 55.0916C87.4631 54.8487 87.5589 54.5696 87.5589 54.2543C87.5589 53.9602 87.4716 53.7131 87.2969 53.5128C87.1264 53.3125 86.875 53.142 86.5426 53.0014C86.2145 52.8608 85.8118 52.733 85.3345 52.6179L83.9091 52.2599C82.8054 51.9915 81.9339 51.5717 81.2947 51.0007C80.6555 50.4297 80.3381 49.6605 80.3423 48.6932C80.3381 47.9006 80.549 47.2081 80.9751 46.6158C81.4055 46.0234 81.9957 45.5611 82.7457 45.2287C83.4957 44.8963 84.348 44.7301 85.3026 44.7301C86.2741 44.7301 87.1222 44.8963 87.8466 45.2287C88.5753 45.5611 89.142 46.0234 89.5469 46.6158C89.9517 47.2081 90.1605 47.8942 90.1733 48.674H87.5206ZM92.214 58V44.9091H101.035V47.1911H94.9817V50.3104H100.581V52.5923H94.9817V55.718H101.061V58H92.214ZM103.235 58V44.9091H108.4C109.389 44.9091 110.233 45.0859 110.931 45.4396C111.635 45.7891 112.169 46.2855 112.536 46.929C112.907 47.5682 113.092 48.3203 113.092 49.1854C113.092 50.0547 112.904 50.8026 112.529 51.429C112.154 52.0511 111.611 52.5284 110.9 52.8608C110.192 53.1932 109.336 53.3594 108.33 53.3594H104.872V51.1349H107.882C108.411 51.1349 108.85 51.0625 109.199 50.9176C109.549 50.7727 109.809 50.5554 109.979 50.2656C110.154 49.9759 110.241 49.6158 110.241 49.1854C110.241 48.7507 110.154 48.3842 109.979 48.0859C109.809 47.7876 109.547 47.5618 109.193 47.4084C108.843 47.2507 108.402 47.1719 107.87 47.1719H106.003V58H103.235ZM110.305 52.0426L113.559 58H110.503L107.32 52.0426H110.305ZM114.549 47.1911V44.9091H125.301V47.1911H121.293V58H118.557V47.1911H114.549Z" fill="black"/>
<rect x="50.5" y="35.5" width="87" height="32" rx="16" stroke="black"/>
<path d="M75.5028 366.909L78.6669 376.855H78.7884L81.9588 366.909H85.027L80.5142 380H76.9474L72.4283 366.909H75.5028ZM87.1188 380H84.1529L88.6721 366.909H92.2388L96.7516 380H93.7857L90.5066 369.901H90.4043L87.1188 380ZM86.9334 374.854H93.9391V377.015H86.9334V374.854ZM98.3272 380V366.909H101.095V377.718H106.707V380H98.3272ZM116.626 366.909H119.394V375.411C119.394 376.365 119.166 377.2 118.71 377.916C118.258 378.632 117.625 379.19 116.811 379.591C115.998 379.987 115.049 380.185 113.967 380.185C112.88 380.185 111.93 379.987 111.116 379.591C110.302 379.19 109.669 378.632 109.218 377.916C108.766 377.2 108.54 376.365 108.54 375.411V366.909H111.308V375.174C111.308 375.673 111.417 376.116 111.634 376.504C111.855 376.891 112.167 377.196 112.567 377.418C112.968 377.639 113.434 377.75 113.967 377.75C114.504 377.75 114.971 377.639 115.367 377.418C115.767 377.196 116.076 376.891 116.294 376.504C116.515 376.116 116.626 375.673 116.626 375.174V366.909ZM121.671 380V366.909H130.492V369.191H124.439V372.31H130.038V374.592H124.439V377.718H130.518V380H121.671ZM139.794 370.674C139.743 370.158 139.523 369.758 139.136 369.472C138.748 369.187 138.222 369.044 137.557 369.044C137.105 369.044 136.724 369.108 136.413 369.236C136.102 369.359 135.863 369.532 135.697 369.754C135.535 369.975 135.454 370.227 135.454 370.508C135.445 370.742 135.494 370.947 135.601 371.121C135.712 371.296 135.863 371.447 136.055 371.575C136.246 371.699 136.468 371.808 136.719 371.901C136.971 371.991 137.239 372.067 137.525 372.131L138.701 372.413C139.272 372.54 139.796 372.711 140.273 372.924C140.751 373.137 141.164 373.399 141.513 373.71C141.863 374.021 142.134 374.388 142.325 374.81C142.521 375.232 142.621 375.715 142.626 376.261C142.621 377.062 142.417 377.756 142.012 378.344C141.612 378.928 141.032 379.382 140.273 379.706C139.519 380.026 138.609 380.185 137.544 380.185C136.487 380.185 135.567 380.023 134.783 379.7C134.003 379.376 133.393 378.896 132.955 378.261C132.52 377.622 132.292 376.832 132.271 375.89H134.949C134.979 376.329 135.104 376.695 135.326 376.989C135.552 377.279 135.852 377.499 136.227 377.648C136.607 377.793 137.035 377.865 137.512 377.865C137.981 377.865 138.388 377.797 138.733 377.661C139.082 377.524 139.353 377.335 139.545 377.092C139.737 376.849 139.832 376.57 139.832 376.254C139.832 375.96 139.745 375.713 139.57 375.513C139.4 375.312 139.148 375.142 138.816 375.001C138.488 374.861 138.085 374.733 137.608 374.618L136.183 374.26C135.079 373.991 134.207 373.572 133.568 373.001C132.929 372.43 132.612 371.661 132.616 370.693C132.612 369.901 132.822 369.208 133.249 368.616C133.679 368.023 134.269 367.561 135.019 367.229C135.769 366.896 136.621 366.73 137.576 366.73C138.548 366.73 139.396 366.896 140.12 367.229C140.849 367.561 141.415 368.023 141.82 368.616C142.225 369.208 142.434 369.894 142.447 370.674H139.794Z" fill="black"/>
<rect x="64.5" y="357.5" width="87" height="32" rx="16" stroke="black"/>
<path d="M255.138 89V75.9091H260.303C261.291 75.9091 262.135 76.0859 262.834 76.4396C263.537 76.7891 264.072 77.2855 264.438 77.929C264.809 78.5682 264.994 79.3203 264.994 80.1854C264.994 81.0547 264.807 81.8026 264.432 82.429C264.057 83.0511 263.513 83.5284 262.802 83.8608C262.094 84.1932 261.238 84.3594 260.232 84.3594H256.774V82.1349H259.785C260.313 82.1349 260.752 82.0625 261.102 81.9176C261.451 81.7727 261.711 81.5554 261.881 81.2656C262.056 80.9759 262.143 80.6158 262.143 80.1854C262.143 79.7507 262.056 79.3842 261.881 79.0859C261.711 78.7876 261.449 78.5618 261.095 78.4084C260.746 78.2507 260.305 78.1719 259.772 78.1719H257.906V89H255.138ZM262.207 83.0426L265.461 89H262.406L259.222 83.0426H262.207ZM266.95 89V75.9091H275.771V78.1911H269.718V81.3104H275.317V83.5923H269.718V86.718H275.797V89H266.95ZM277.972 89V75.9091H283.137C284.129 75.9091 284.975 76.0987 285.674 76.478C286.373 76.853 286.906 77.375 287.272 78.044C287.643 78.7088 287.828 79.4759 287.828 80.3452C287.828 81.2145 287.641 81.9815 287.266 82.6463C286.891 83.3111 286.347 83.8288 285.636 84.1996C284.928 84.5703 284.072 84.7557 283.066 84.7557H279.774V82.5376H282.619C283.151 82.5376 283.59 82.446 283.936 82.2628C284.285 82.0753 284.545 81.8175 284.715 81.4893C284.89 81.157 284.977 80.7756 284.977 80.3452C284.977 79.9105 284.89 79.5312 284.715 79.2074C284.545 78.8793 284.285 78.6257 283.936 78.4467C283.586 78.2635 283.143 78.1719 282.606 78.1719H280.74V89H277.972ZM289.626 89V75.9091H292.394V86.718H298.006V89H289.626ZM302.429 89H299.463L303.983 75.9091H307.549L312.062 89H309.096L305.817 78.9006H305.715L302.429 89ZM302.244 83.8544H309.25V86.0149H302.244V83.8544ZM324.573 80.4922H321.773C321.722 80.13 321.618 79.8082 321.46 79.527C321.302 79.2415 321.1 78.9986 320.853 78.7983C320.606 78.598 320.32 78.4446 319.996 78.3381C319.677 78.2315 319.329 78.1783 318.954 78.1783C318.277 78.1783 317.687 78.3466 317.184 78.6832C316.681 79.0156 316.291 79.5014 316.014 80.1406C315.737 80.7756 315.599 81.5469 315.599 82.4545C315.599 83.3878 315.737 84.1719 316.014 84.8068C316.295 85.4418 316.687 85.9212 317.19 86.245C317.693 86.5689 318.275 86.7308 318.935 86.7308C319.306 86.7308 319.649 86.6818 319.964 86.5838C320.284 86.4858 320.567 86.343 320.814 86.1555C321.062 85.9638 321.266 85.7315 321.428 85.4588C321.594 85.1861 321.709 84.875 321.773 84.5256L324.573 84.5384C324.501 85.1392 324.319 85.7188 324.03 86.277C323.744 86.831 323.358 87.3274 322.873 87.7663C322.391 88.201 321.816 88.5462 321.147 88.8018C320.482 89.0533 319.73 89.179 318.89 89.179C317.723 89.179 316.679 88.9148 315.758 88.3864C314.842 87.858 314.118 87.093 313.585 86.0916C313.057 85.0902 312.792 83.8778 312.792 82.4545C312.792 81.027 313.061 79.8125 313.598 78.8111C314.135 77.8097 314.863 77.0469 315.784 76.5227C316.704 75.9943 317.74 75.7301 318.89 75.7301C319.649 75.7301 320.352 75.8366 321 76.0497C321.652 76.2628 322.229 76.5739 322.732 76.983C323.235 77.3878 323.644 77.8842 323.959 78.4723C324.279 79.0604 324.483 79.7337 324.573 80.4922ZM326.558 89V75.9091H335.379V78.1911H329.325V81.3104H334.925V83.5923H329.325V86.718H335.404V89H326.558Z" fill="black"/>
<rect x="243.5" y="66.5" width="104" height="32" rx="16" stroke="black"/>
<path d="M50 16L40 10.2265V21.7735L50 16ZM8 17H41V15H8V17Z" fill="black"/>
<path d="M649 554L639 548.227L639 559.774L649 554ZM596 555L640 555L640 553L596 553L596 555Z" fill="black"/>
<path d="M435 554L425 548.226V559.774L435 554ZM586 490H613V488H586V490ZM622 499V513H624V499H622ZM376.5 533V544H378.5V533H376.5ZM387.5 555H426V553H387.5V555ZM613 522H505V524H613V522ZM505 522H387.5V524H505V522ZM376.5 544C376.5 550.075 381.425 555 387.5 555V553C382.529 553 378.5 548.971 378.5 544H376.5ZM378.5 533C378.5 528.029 382.529 524 387.5 524V522C381.425 522 376.5 526.925 376.5 533H378.5ZM622 513C622 517.971 617.971 522 613 522V524C619.075 524 624 519.075 624 513H622ZM613 490C617.971 490 622 494.029 622 499H624C624 492.925 619.075 488 613 488V490Z" fill="black"/>
<path d="M23 479L22 479L23 479ZM33 489L33 488L33 489ZM596 489L586 483.226L586 494.773L596 489ZM22.0001 359L22 479L24 479L24.0001 359L22.0001 359ZM33 490L587 490L587 488L33 488L33 490ZM22 479C22 485.075 26.9248 490 33 490L33 488C28.0294 488 24 483.971 24 479L22 479Z" fill="black"/>
<path d="M187 374L177 368.226V379.774L187 374ZM152 375H178V373H152V375Z" fill="black"/>
<path d="M198.5 154.5L188.5 148.727V160.273L198.5 154.5ZM446 19H456.5V17H446V19ZM465.5 28V97H467.5V28H465.5ZM456.5 106H164.5V108H456.5V106ZM153.5 117V144.5H155.5V117H153.5ZM164.5 155.5H189.5V153.5H164.5V155.5ZM153.5 144.5C153.5 150.575 158.425 155.5 164.5 155.5V153.5C159.529 153.5 155.5 149.471 155.5 144.5H153.5ZM164.5 106C158.425 106 153.5 110.925 153.5 117H155.5C155.5 112.029 159.529 108 164.5 108V106ZM465.5 97C465.5 101.971 461.471 106 456.5 106V108C462.575 108 467.5 103.075 467.5 97H465.5ZM456.5 19C461.471 19 465.5 23.0294 465.5 28H467.5C467.5 21.9249 462.575 17 456.5 17V19Z" fill="black"/>
<path d="M243 84L233 78.2265V89.7735L243 84ZM213 85H234V83H213V85Z" fill="black"/>
<path d="M366.394 160H363.428L367.947 146.909H371.514L376.027 160H373.061L369.782 149.901H369.68L366.394 160ZM366.209 154.854H373.214V157.015H366.209V154.854ZM384.405 150.674C384.354 150.158 384.135 149.758 383.747 149.472C383.359 149.187 382.833 149.044 382.168 149.044C381.716 149.044 381.335 149.108 381.024 149.236C380.713 149.359 380.474 149.532 380.308 149.754C380.146 149.975 380.065 150.227 380.065 150.508C380.057 150.742 380.106 150.947 380.212 151.121C380.323 151.296 380.474 151.447 380.666 151.575C380.858 151.699 381.079 151.808 381.331 151.901C381.582 151.991 381.851 152.067 382.136 152.131L383.312 152.413C383.883 152.54 384.407 152.711 384.885 152.924C385.362 153.137 385.775 153.399 386.125 153.71C386.474 154.021 386.745 154.388 386.937 154.81C387.133 155.232 387.233 155.715 387.237 156.261C387.233 157.062 387.028 157.756 386.623 158.344C386.223 158.928 385.643 159.382 384.885 159.706C384.131 160.026 383.221 160.185 382.155 160.185C381.099 160.185 380.178 160.023 379.394 159.7C378.614 159.376 378.005 158.896 377.566 158.261C377.131 157.622 376.903 156.832 376.882 155.89H379.56C379.59 156.329 379.716 156.695 379.937 156.989C380.163 157.279 380.464 157.499 380.839 157.648C381.218 157.793 381.646 157.865 382.123 157.865C382.592 157.865 382.999 157.797 383.344 157.661C383.694 157.524 383.964 157.335 384.156 157.092C384.348 156.849 384.444 156.57 384.444 156.254C384.444 155.96 384.356 155.713 384.182 155.513C384.011 155.312 383.76 155.142 383.427 155.001C383.099 154.861 382.697 154.733 382.219 154.618L380.794 154.26C379.69 153.991 378.819 153.572 378.18 153.001C377.54 152.43 377.223 151.661 377.227 150.693C377.223 149.901 377.434 149.208 377.86 148.616C378.29 148.023 378.881 147.561 379.631 147.229C380.381 146.896 381.233 146.73 382.187 146.73C383.159 146.73 384.007 146.896 384.731 147.229C385.46 147.561 386.027 148.023 386.432 148.616C386.836 149.208 387.045 149.894 387.058 150.674H384.405Z" fill="black"/>
<rect x="351.5" y="137.5" width="48" height="32" rx="16" stroke="black"/>
<path d="M444.886 160.185C444.26 160.185 443.702 160.077 443.212 159.859C442.722 159.638 442.334 159.312 442.048 158.881C441.767 158.447 441.626 157.906 441.626 157.258C441.626 156.712 441.727 156.254 441.927 155.884C442.127 155.513 442.4 155.214 442.745 154.989C443.09 154.763 443.482 154.592 443.921 154.477C444.364 154.362 444.829 154.281 445.315 154.234C445.886 154.175 446.346 154.119 446.695 154.068C447.045 154.013 447.298 153.932 447.456 153.825C447.614 153.719 447.692 153.561 447.692 153.352V153.314C447.692 152.909 447.565 152.596 447.309 152.374C447.058 152.153 446.7 152.042 446.235 152.042C445.745 152.042 445.355 152.151 445.065 152.368C444.776 152.581 444.584 152.849 444.49 153.173L441.972 152.969C442.099 152.372 442.351 151.857 442.726 151.422C443.101 150.983 443.585 150.646 444.177 150.412C444.773 150.173 445.464 150.054 446.248 150.054C446.793 150.054 447.315 150.118 447.814 150.246C448.317 150.374 448.762 150.572 449.15 150.84C449.542 151.109 449.851 151.454 450.077 151.876C450.303 152.293 450.415 152.794 450.415 153.378V160H447.833V158.638H447.756C447.599 158.945 447.388 159.216 447.124 159.45C446.859 159.68 446.542 159.862 446.171 159.994C445.8 160.121 445.372 160.185 444.886 160.185ZM445.666 158.306C446.067 158.306 446.42 158.227 446.727 158.07C447.034 157.908 447.275 157.69 447.45 157.418C447.624 157.145 447.712 156.836 447.712 156.491V155.449C447.626 155.504 447.509 155.555 447.36 155.602C447.215 155.645 447.051 155.685 446.868 155.724C446.685 155.758 446.501 155.79 446.318 155.82C446.135 155.845 445.969 155.869 445.82 155.89C445.5 155.937 445.221 156.011 444.982 156.114C444.744 156.216 444.558 156.354 444.426 156.529C444.294 156.7 444.228 156.913 444.228 157.168C444.228 157.539 444.362 157.822 444.631 158.018C444.903 158.21 445.249 158.306 445.666 158.306ZM455.251 146.909V160H452.528V146.909H455.251ZM457.432 160V150.182H460.155V160H457.432ZM458.8 148.916C458.395 148.916 458.048 148.782 457.758 148.513C457.473 148.241 457.33 147.915 457.33 147.536C457.33 147.161 457.473 146.839 457.758 146.57C458.048 146.298 458.395 146.161 458.8 146.161C459.205 146.161 459.55 146.298 459.836 146.57C460.126 146.839 460.27 147.161 460.27 147.536C460.27 147.915 460.126 148.241 459.836 148.513C459.55 148.782 459.205 148.916 458.8 148.916ZM465.136 160.185C464.51 160.185 463.952 160.077 463.462 159.859C462.972 159.638 462.584 159.312 462.298 158.881C462.017 158.447 461.876 157.906 461.876 157.258C461.876 156.712 461.977 156.254 462.177 155.884C462.377 155.513 462.65 155.214 462.995 154.989C463.34 154.763 463.732 154.592 464.171 154.477C464.614 154.362 465.079 154.281 465.565 154.234C466.136 154.175 466.596 154.119 466.945 154.068C467.295 154.013 467.548 153.932 467.706 153.825C467.864 153.719 467.942 153.561 467.942 153.352V153.314C467.942 152.909 467.815 152.596 467.559 152.374C467.308 152.153 466.95 152.042 466.485 152.042C465.995 152.042 465.605 152.151 465.315 152.368C465.026 152.581 464.834 152.849 464.74 153.173L462.222 152.969C462.349 152.372 462.601 151.857 462.976 151.422C463.351 150.983 463.835 150.646 464.427 150.412C465.023 150.173 465.714 150.054 466.498 150.054C467.043 150.054 467.565 150.118 468.064 150.246C468.567 150.374 469.012 150.572 469.4 150.84C469.792 151.109 470.101 151.454 470.327 151.876C470.553 152.293 470.665 152.794 470.665 153.378V160H468.083V158.638H468.006C467.849 158.945 467.638 159.216 467.374 159.45C467.109 159.68 466.792 159.862 466.421 159.994C466.05 160.121 465.622 160.185 465.136 160.185ZM465.916 158.306C466.317 158.306 466.67 158.227 466.977 158.07C467.284 157.908 467.525 157.69 467.7 157.418C467.874 157.145 467.962 156.836 467.962 156.491V155.449C467.876 155.504 467.759 155.555 467.61 155.602C467.465 155.645 467.301 155.685 467.118 155.724C466.935 155.758 466.751 155.79 466.568 155.82C466.385 155.845 466.219 155.869 466.07 155.89C465.75 155.937 465.471 156.011 465.232 156.114C464.994 156.216 464.808 156.354 464.676 156.529C464.544 156.7 464.478 156.913 464.478 157.168C464.478 157.539 464.612 157.822 464.881 158.018C465.153 158.21 465.499 158.306 465.916 158.306ZM480.947 152.982L478.454 153.135C478.412 152.922 478.32 152.73 478.179 152.56C478.039 152.385 477.853 152.246 477.623 152.144C477.397 152.038 477.127 151.984 476.811 151.984C476.39 151.984 476.034 152.074 475.744 152.253C475.454 152.428 475.309 152.662 475.309 152.956C475.309 153.19 475.403 153.388 475.591 153.55C475.778 153.712 476.1 153.842 476.556 153.94L478.333 154.298C479.287 154.494 479.999 154.81 480.468 155.244C480.936 155.679 481.171 156.25 481.171 156.957C481.171 157.601 480.981 158.165 480.602 158.651C480.227 159.137 479.711 159.516 479.055 159.789C478.403 160.058 477.651 160.192 476.799 160.192C475.499 160.192 474.463 159.921 473.692 159.38C472.925 158.835 472.475 158.093 472.343 157.156L475.022 157.015C475.103 157.411 475.299 157.714 475.61 157.923C475.921 158.127 476.319 158.229 476.805 158.229C477.282 158.229 477.666 158.138 477.956 157.955C478.25 157.767 478.399 157.526 478.403 157.232C478.399 156.985 478.294 156.783 478.09 156.625C477.885 156.463 477.57 156.339 477.144 156.254L475.444 155.915C474.485 155.724 473.771 155.391 473.302 154.918C472.838 154.445 472.605 153.842 472.605 153.109C472.605 152.479 472.776 151.935 473.117 151.479C473.462 151.023 473.946 150.672 474.568 150.425C475.194 150.178 475.927 150.054 476.767 150.054C478.007 150.054 478.983 150.316 479.694 150.84C480.41 151.364 480.828 152.078 480.947 152.982Z" fill="black"/>
<rect x="430.5" y="137.5" width="64" height="32" rx="16" stroke="black"/>
<path d="M215.309 150.182V152.227H209.396V150.182H215.309ZM210.739 147.83H213.462V156.983C213.462 157.234 213.5 157.43 213.577 157.571C213.653 157.707 213.76 157.803 213.896 157.859C214.037 157.914 214.199 157.942 214.382 157.942C214.51 157.942 214.638 157.931 214.766 157.91C214.893 157.884 214.991 157.865 215.06 157.852L215.488 159.879C215.352 159.921 215.16 159.97 214.913 160.026C214.665 160.085 214.365 160.121 214.011 160.134C213.355 160.16 212.78 160.072 212.286 159.872C211.795 159.672 211.414 159.361 211.141 158.939C210.869 158.517 210.734 157.984 210.739 157.341V147.83ZM219.882 160.185C219.256 160.185 218.698 160.077 218.208 159.859C217.718 159.638 217.33 159.312 217.044 158.881C216.763 158.447 216.623 157.906 216.623 157.258C216.623 156.712 216.723 156.254 216.923 155.884C217.123 155.513 217.396 155.214 217.741 154.989C218.086 154.763 218.478 154.592 218.917 154.477C219.36 154.362 219.825 154.281 220.311 154.234C220.882 154.175 221.342 154.119 221.691 154.068C222.041 154.013 222.294 153.932 222.452 153.825C222.61 153.719 222.689 153.561 222.689 153.352V153.314C222.689 152.909 222.561 152.596 222.305 152.374C222.054 152.153 221.696 152.042 221.231 152.042C220.741 152.042 220.351 152.151 220.061 152.368C219.772 152.581 219.58 152.849 219.486 153.173L216.968 152.969C217.096 152.372 217.347 151.857 217.722 151.422C218.097 150.983 218.581 150.646 219.173 150.412C219.77 150.173 220.46 150.054 221.244 150.054C221.789 150.054 222.311 150.118 222.81 150.246C223.313 150.374 223.758 150.572 224.146 150.84C224.538 151.109 224.847 151.454 225.073 151.876C225.299 152.293 225.412 152.794 225.412 153.378V160H222.829V158.638H222.752C222.595 158.945 222.384 159.216 222.12 159.45C221.855 159.68 221.538 159.862 221.167 159.994C220.797 160.121 220.368 160.185 219.882 160.185ZM220.662 158.306C221.063 158.306 221.417 158.227 221.723 158.07C222.03 157.908 222.271 157.69 222.446 157.418C222.62 157.145 222.708 156.836 222.708 156.491V155.449C222.623 155.504 222.505 155.555 222.356 155.602C222.211 155.645 222.047 155.685 221.864 155.724C221.681 155.758 221.498 155.79 221.314 155.82C221.131 155.845 220.965 155.869 220.816 155.89C220.496 155.937 220.217 156.011 219.978 156.114C219.74 156.216 219.554 156.354 219.422 156.529C219.29 156.7 219.224 156.913 219.224 157.168C219.224 157.539 219.358 157.822 219.627 158.018C219.9 158.21 220.245 158.306 220.662 158.306ZM227.575 160V146.909H230.298V151.831H230.381C230.501 151.567 230.673 151.298 230.899 151.026C231.129 150.749 231.428 150.518 231.794 150.335C232.165 150.148 232.625 150.054 233.175 150.054C233.891 150.054 234.551 150.241 235.156 150.616C235.761 150.987 236.245 151.548 236.607 152.298C236.969 153.043 237.151 153.979 237.151 155.104C237.151 156.199 236.974 157.124 236.62 157.878C236.271 158.628 235.793 159.197 235.188 159.585C234.587 159.968 233.914 160.16 233.168 160.16C232.64 160.16 232.19 160.072 231.82 159.898C231.453 159.723 231.153 159.504 230.918 159.239C230.684 158.971 230.505 158.7 230.381 158.428H230.26V160H227.575ZM230.241 155.091C230.241 155.675 230.322 156.184 230.484 156.619C230.646 157.053 230.88 157.392 231.187 157.635C231.494 157.874 231.866 157.993 232.305 157.993C232.749 157.993 233.124 157.871 233.43 157.629C233.737 157.381 233.969 157.04 234.127 156.606C234.289 156.167 234.37 155.662 234.37 155.091C234.37 154.524 234.291 154.026 234.134 153.595C233.976 153.165 233.744 152.828 233.437 152.585C233.13 152.342 232.753 152.221 232.305 152.221C231.862 152.221 231.487 152.338 231.18 152.572C230.878 152.807 230.646 153.139 230.484 153.57C230.322 154 230.241 154.507 230.241 155.091ZM241.691 146.909V160H238.968V146.909H241.691ZM248.346 160.192C247.336 160.192 246.467 159.987 245.738 159.578C245.014 159.165 244.456 158.581 244.064 157.827C243.672 157.068 243.475 156.171 243.475 155.136C243.475 154.126 243.672 153.239 244.064 152.477C244.456 151.714 245.007 151.119 245.719 150.693C246.435 150.267 247.275 150.054 248.238 150.054C248.885 150.054 249.488 150.158 250.047 150.367C250.609 150.572 251.099 150.881 251.517 151.294C251.939 151.707 252.267 152.227 252.501 152.854C252.735 153.476 252.853 154.205 252.853 155.04V155.788H244.562V154.1H250.289C250.289 153.708 250.204 153.361 250.034 153.058C249.863 152.756 249.627 152.519 249.324 152.349C249.026 152.174 248.679 152.087 248.282 152.087C247.869 152.087 247.502 152.183 247.183 152.374C246.868 152.562 246.62 152.815 246.441 153.135C246.262 153.45 246.171 153.802 246.167 154.19V155.794C246.167 156.28 246.256 156.7 246.435 157.053C246.618 157.407 246.876 157.68 247.208 157.871C247.541 158.063 247.935 158.159 248.391 158.159C248.694 158.159 248.971 158.116 249.222 158.031C249.473 157.946 249.689 157.818 249.868 157.648C250.047 157.477 250.183 157.268 250.277 157.021L252.795 157.188C252.667 157.793 252.405 158.321 252.009 158.773C251.617 159.22 251.11 159.57 250.488 159.821C249.87 160.068 249.156 160.192 248.346 160.192ZM260.747 153.544V155.705H254.777V153.544H260.747ZM265.79 154.324V160H263.067V150.182H265.662V151.914H265.777C265.995 151.343 266.359 150.891 266.87 150.559C267.382 150.222 268.002 150.054 268.73 150.054C269.412 150.054 270.007 150.203 270.514 150.501C271.021 150.8 271.415 151.226 271.696 151.78C271.978 152.33 272.118 152.986 272.118 153.749V160H269.395V154.234C269.4 153.634 269.246 153.165 268.935 152.828C268.624 152.487 268.196 152.317 267.65 152.317C267.284 152.317 266.96 152.396 266.679 152.553C266.402 152.711 266.184 152.941 266.027 153.244C265.873 153.542 265.794 153.902 265.79 154.324ZM277.064 160.185C276.438 160.185 275.879 160.077 275.389 159.859C274.899 159.638 274.512 159.312 274.226 158.881C273.945 158.447 273.804 157.906 273.804 157.258C273.804 156.712 273.904 156.254 274.105 155.884C274.305 155.513 274.578 155.214 274.923 154.989C275.268 154.763 275.66 154.592 276.099 154.477C276.542 154.362 277.007 154.281 277.492 154.234C278.063 154.175 278.524 154.119 278.873 154.068C279.222 154.013 279.476 153.932 279.634 153.825C279.791 153.719 279.87 153.561 279.87 153.352V153.314C279.87 152.909 279.742 152.596 279.487 152.374C279.235 152.153 278.877 152.042 278.413 152.042C277.923 152.042 277.533 152.151 277.243 152.368C276.953 152.581 276.762 152.849 276.668 153.173L274.149 152.969C274.277 152.372 274.529 151.857 274.904 151.422C275.279 150.983 275.762 150.646 276.355 150.412C276.951 150.173 277.642 150.054 278.426 150.054C278.971 150.054 279.493 150.118 279.992 150.246C280.494 150.374 280.94 150.572 281.328 150.84C281.72 151.109 282.029 151.454 282.254 151.876C282.48 152.293 282.593 152.794 282.593 153.378V160H280.011V158.638H279.934C279.776 158.945 279.566 159.216 279.301 159.45C279.037 159.68 278.72 159.862 278.349 159.994C277.978 160.121 277.55 160.185 277.064 160.185ZM277.844 158.306C278.244 158.306 278.598 158.227 278.905 158.07C279.212 157.908 279.453 157.69 279.627 157.418C279.802 157.145 279.889 156.836 279.889 156.491V155.449C279.804 155.504 279.687 155.555 279.538 155.602C279.393 155.645 279.229 155.685 279.046 155.724C278.862 155.758 278.679 155.79 278.496 155.82C278.313 155.845 278.146 155.869 277.997 155.89C277.678 155.937 277.399 156.011 277.16 156.114C276.921 156.216 276.736 156.354 276.604 156.529C276.472 156.7 276.406 156.913 276.406 157.168C276.406 157.539 276.54 157.822 276.808 158.018C277.081 158.21 277.426 158.306 277.844 158.306ZM284.706 160V150.182H287.301V151.914H287.416C287.621 151.339 287.961 150.885 288.439 150.553C288.916 150.22 289.487 150.054 290.152 150.054C290.825 150.054 291.398 150.222 291.871 150.559C292.344 150.891 292.66 151.343 292.817 151.914H292.92C293.12 151.352 293.482 150.902 294.006 150.565C294.535 150.224 295.159 150.054 295.879 150.054C296.795 150.054 297.539 150.346 298.11 150.93C298.685 151.509 298.973 152.332 298.973 153.397V160H296.256V153.934C296.256 153.388 296.111 152.979 295.822 152.707C295.532 152.434 295.17 152.298 294.735 152.298C294.241 152.298 293.855 152.455 293.578 152.771C293.301 153.082 293.162 153.493 293.162 154.004V160H290.523V153.876C290.523 153.395 290.384 153.011 290.107 152.726C289.834 152.44 289.474 152.298 289.027 152.298C288.724 152.298 288.452 152.374 288.209 152.528C287.97 152.677 287.78 152.888 287.64 153.161C287.499 153.429 287.429 153.744 287.429 154.107V160H284.706ZM305.598 160.192C304.588 160.192 303.719 159.987 302.99 159.578C302.266 159.165 301.708 158.581 301.316 157.827C300.923 157.068 300.727 156.171 300.727 155.136C300.727 154.126 300.923 153.239 301.316 152.477C301.708 151.714 302.259 151.119 302.971 150.693C303.687 150.267 304.526 150.054 305.49 150.054C306.137 150.054 306.74 150.158 307.298 150.367C307.861 150.572 308.351 150.881 308.769 151.294C309.191 151.707 309.519 152.227 309.753 152.854C309.987 153.476 310.105 154.205 310.105 155.04V155.788H301.814V154.1H307.541C307.541 153.708 307.456 153.361 307.286 153.058C307.115 152.756 306.879 152.519 306.576 152.349C306.278 152.174 305.931 152.087 305.534 152.087C305.121 152.087 304.754 152.183 304.435 152.374C304.119 152.562 303.872 152.815 303.693 153.135C303.514 153.45 303.423 153.802 303.419 154.19V155.794C303.419 156.28 303.508 156.7 303.687 157.053C303.87 157.407 304.128 157.68 304.46 157.871C304.793 158.063 305.187 158.159 305.643 158.159C305.945 158.159 306.222 158.116 306.474 158.031C306.725 157.946 306.941 157.818 307.119 157.648C307.298 157.477 307.435 157.268 307.529 157.021L310.047 157.188C309.919 157.793 309.657 158.321 309.261 158.773C308.869 159.22 308.362 159.57 307.74 159.821C307.122 160.068 306.408 160.192 305.598 160.192Z" fill="black"/>
<rect x="199.5" y="137.5" width="121" height="32" rx="16" stroke="black"/>
<path d="M430 155L420 149.226V160.774L430 155ZM400 156H421V154H400V156Z" fill="black"/>
<path d="M63.9579 373L53.9579 367.227V378.773L63.9579 373ZM494.015 156H499V154H494.015V156ZM508 165V184.5H510V165H508ZM499 193.5H33V195.5H499V193.5ZM22 204.5V363H24V204.5H22ZM33 374H54.9579V372H33V374ZM22 363C22 369.075 26.9249 374 33 374V372C28.0294 372 24 367.971 24 363H22ZM33 193.5C26.9249 193.5 22 198.425 22 204.5H24C24 199.529 28.0294 195.5 33 195.5V193.5ZM508 184.5C508 189.471 503.971 193.5 499 193.5V195.5C505.075 195.5 510 190.575 510 184.5H508ZM499 156C503.971 156 508 160.029 508 165H510C510 158.925 505.075 154 499 154V156Z" fill="black"/>
<path d="M351 155L341 149.226V160.774L351 155ZM321 156H342V154H321V156Z" fill="black"/>
<path d="M336 178.5L341.774 168.5H330.226L336 178.5ZM321 156H326V154H321V156ZM335 165V169.5H337V165H335ZM326 156C330.971 156 335 160.029 335 165H337C337 158.925 332.075 154 326 154V156Z" fill="black"/>
<path d="M272 194.5L282 200.274V188.726L272 194.5ZM335 167V184.5H337V167H335ZM326 193.5H281V195.5H326V193.5ZM335 184.5C335 189.471 330.971 193.5 326 193.5V195.5C332.075 195.5 337 190.575 337 184.5H335Z" fill="black"/>
<path d="M377 18L367 12.2265V23.7735L377 18ZM357.5 74.5V28H355.5V74.5H357.5ZM366.5 19H368V17H366.5V19ZM357.5 28C357.5 23.0294 361.529 19 366.5 19V17C360.425 17 355.5 21.9249 355.5 28H357.5ZM347 85C352.799 85 357.5 80.299 357.5 74.5H355.5C355.5 79.1944 351.694 83 347 83V85Z" fill="black"/>
<path d="M377 18L367 12.2265V23.7735L377 18ZM137 53H346.5V51H137V53ZM357.5 42V28H355.5V42H357.5ZM366.5 19H368V17H366.5V19ZM357.5 28C357.5 23.0294 361.529 19 366.5 19V17C360.425 17 355.5 21.9249 355.5 28H357.5ZM346.5 53C352.575 53 357.5 48.0751 357.5 42H355.5C355.5 46.9706 351.471 51 346.5 51V53Z" fill="black"/>
<path d="M377 18L367 12.2265L367 23.7735L377 18ZM156 19L368 19L368 17L156 17L156 19Z" fill="black"/>
<path d="M50 52L40 46.2265V57.7735L50 52ZM8 17H19V15H8V17ZM28 26V42H30V26H28ZM39 53H41V51H39V53ZM28 42C28 48.0751 32.9249 53 39 53V51C34.0294 51 30 46.9706 30 42H28ZM19 17C23.9706 17 28 21.0294 28 26H30C30 19.9249 25.0751 15 19 15V17Z" fill="black"/>
<path d="M165 84L155 78.2265V89.7735L165 84ZM145.151 60.1509V74H147.151V60.1509H145.151ZM145.151 74C145.151 80.0751 150.076 85 156.151 85V83C151.18 83 147.151 78.9706 147.151 74H145.151ZM138 53C141.949 53 145.151 56.2016 145.151 60.1509H147.151C147.151 55.097 143.054 51 138 51V53Z" fill="black"/>
<path d="M67 251L57 245.226V256.774L67 251ZM22 223V241H24V223H22ZM33 252H58V250H33V252ZM22 241C22 247.075 26.9249 252 33 252V250C28.0294 250 24 245.971 24 241H22Z" fill="black"/>
<path d="M129 251L119 245.226V256.774L129 251ZM103 252H120V250H103V252Z" fill="black"/>
<path d="M164 251L154 245.226V256.774L164 251ZM103 252H155V250H103V252Z" fill="black"/>
<path d="M361 251L351 245.226V256.774L361 251ZM308 252H352V250H308V252Z" fill="black"/>
<path d="M260 325H33C27.4771 325 23 329.477 23 335V351" stroke="black" stroke-width="2"/>
<path d="M231 325L241 330.774V319.226L231 325ZM394 252H418V250H394V252ZM427 261V315H429V261H427ZM418 324H240V326H418V324ZM427 315C427 319.971 422.971 324 418 324V326C424.075 326 429 321.075 429 315H427ZM418 252C422.971 252 427 256.029 427 261H429C429 254.925 424.075 250 418 250V252Z" fill="black"/>
<path d="M219 293L146 293C140.477 293 136 288.523 136 283L136 261C136 255.477 140.477 251 146 251L157.868 251" stroke="black" stroke-width="2"/>
<path d="M255 293L265 298.774V287.226L255 293ZM309.73 252H326V250H309.73V252ZM326 292H264V294H326V292ZM335 261V272H337V261H335ZM335 272V283H337V272H335ZM326 294C332.075 294 337 289.075 337 283H335C335 287.971 330.971 292 326 292V294ZM326 252C330.971 252 335 256.029 335 261H337C337 254.925 332.075 250 326 250V252Z" fill="black"/>
<circle cx="86.5" cy="251.5" r="16" stroke="black"/>
<path d="M83.6875 251.752C83.6875 250.167 83.8984 248.707 84.3203 247.374C84.7464 246.04 85.3963 244.804 86.2699 243.666H88.8714C88.5391 244.088 88.2301 244.604 87.9446 245.213C87.6591 245.818 87.4098 246.483 87.1967 247.207C86.9837 247.932 86.8175 248.682 86.6982 249.457C86.5788 250.229 86.5192 250.994 86.5192 251.752C86.5192 252.762 86.6214 253.783 86.826 254.814C87.0348 255.841 87.3161 256.795 87.6697 257.678C88.0277 258.56 88.4283 259.282 88.8714 259.844H86.2699C85.3963 258.707 84.7464 257.471 84.3203 256.137C83.8984 254.803 83.6875 253.342 83.6875 251.752Z" fill="black"/>
<circle cx="377.5" cy="251.5" r="16" stroke="black"/>
<circle cx="236.5" cy="293.5" r="16" stroke="black"/>
<path d="M380.676 251.752C380.676 253.342 380.463 254.803 380.037 256.137C379.615 257.471 378.967 258.707 378.094 259.844H375.492C375.825 259.423 376.134 258.907 376.419 258.298C376.705 257.688 376.954 257.023 377.167 256.303C377.38 255.579 377.546 254.829 377.665 254.053C377.785 253.278 377.844 252.511 377.844 251.752C377.844 250.742 377.74 249.724 377.531 248.697C377.327 247.665 377.045 246.711 376.688 245.833C376.334 244.951 375.935 244.229 375.492 243.666H378.094C378.967 244.804 379.615 246.04 380.037 247.374C380.463 248.707 380.676 250.167 380.676 251.752Z" fill="black"/>
<path d="M238.046 297.21L237.976 297.913C237.92 298.476 237.814 299.036 237.656 299.594C237.503 300.157 237.341 300.666 237.17 301.122C237.004 301.578 236.87 301.936 236.768 302.196H235.004C235.067 301.945 235.155 301.593 235.266 301.141C235.376 300.694 235.481 300.191 235.579 299.633C235.677 299.075 235.739 298.506 235.764 297.926L235.796 297.21H238.046Z" fill="black"/>
<path d="M313.046 421.21L312.976 421.913C312.92 422.476 312.814 423.036 312.656 423.594C312.503 424.157 312.341 424.666 312.17 425.122C312.004 425.578 311.87 425.936 311.768 426.196H310.004C310.067 425.945 310.155 425.593 310.266 425.141C310.376 424.694 310.481 424.191 310.579 423.633C310.677 423.075 310.739 422.506 310.764 421.926L310.796 421.21H313.046Z" fill="black"/>
<path d="M179.523 257.192C178.517 257.192 177.652 256.979 176.928 256.553C176.207 256.122 175.653 255.526 175.266 254.763C174.882 254 174.69 253.122 174.69 252.129C174.69 251.124 174.884 250.241 175.272 249.483C175.664 248.72 176.22 248.126 176.94 247.7C177.661 247.269 178.517 247.054 179.51 247.054C180.366 247.054 181.116 247.21 181.76 247.521C182.403 247.832 182.913 248.268 183.288 248.831C183.663 249.393 183.869 250.054 183.908 250.812H181.338C181.266 250.322 181.074 249.928 180.763 249.63C180.456 249.327 180.053 249.176 179.555 249.176C179.133 249.176 178.764 249.291 178.449 249.521C178.138 249.747 177.895 250.077 177.72 250.512C177.545 250.947 177.458 251.473 177.458 252.091C177.458 252.717 177.543 253.25 177.714 253.689C177.888 254.128 178.134 254.462 178.449 254.692C178.764 254.923 179.133 255.038 179.555 255.038C179.866 255.038 180.145 254.974 180.392 254.846C180.643 254.718 180.85 254.533 181.012 254.29C181.178 254.043 181.287 253.746 181.338 253.401H183.908C183.865 254.151 183.661 254.812 183.294 255.383C182.932 255.95 182.431 256.393 181.792 256.712C181.153 257.032 180.396 257.192 179.523 257.192ZM190.087 257.192C189.094 257.192 188.236 256.981 187.511 256.559C186.791 256.133 186.235 255.54 185.843 254.782C185.451 254.019 185.255 253.135 185.255 252.129C185.255 251.115 185.451 250.229 185.843 249.47C186.235 248.707 186.791 248.115 187.511 247.693C188.236 247.267 189.094 247.054 190.087 247.054C191.08 247.054 191.937 247.267 192.657 247.693C193.381 248.115 193.939 248.707 194.331 249.47C194.724 250.229 194.92 251.115 194.92 252.129C194.92 253.135 194.724 254.019 194.331 254.782C193.939 255.54 193.381 256.133 192.657 256.559C191.937 256.981 191.08 257.192 190.087 257.192ZM190.1 255.082C190.552 255.082 190.929 254.955 191.231 254.699C191.534 254.439 191.762 254.085 191.915 253.638C192.073 253.19 192.152 252.681 192.152 252.11C192.152 251.539 192.073 251.03 191.915 250.582C191.762 250.135 191.534 249.781 191.231 249.521C190.929 249.261 190.552 249.131 190.1 249.131C189.644 249.131 189.26 249.261 188.949 249.521C188.643 249.781 188.41 250.135 188.253 250.582C188.099 251.03 188.023 251.539 188.023 252.11C188.023 252.681 188.099 253.19 188.253 253.638C188.41 254.085 188.643 254.439 188.949 254.699C189.26 254.955 189.644 255.082 190.1 255.082ZM199.413 243.909V257H196.69V243.909H199.413ZM207.891 252.82V247.182H210.614V257H207.999V255.217H207.897C207.675 255.792 207.307 256.254 206.791 256.604C206.28 256.953 205.656 257.128 204.918 257.128C204.262 257.128 203.685 256.979 203.186 256.68C202.688 256.382 202.298 255.958 202.016 255.408C201.739 254.859 201.599 254.2 201.594 253.433V247.182H204.317V252.947C204.322 253.527 204.477 253.985 204.784 254.322C205.091 254.658 205.502 254.827 206.018 254.827C206.346 254.827 206.653 254.752 206.938 254.603C207.224 254.45 207.454 254.224 207.629 253.925C207.808 253.627 207.895 253.259 207.891 252.82ZM212.792 257V247.182H215.387V248.914H215.502C215.706 248.339 216.047 247.885 216.525 247.553C217.002 247.22 217.573 247.054 218.238 247.054C218.911 247.054 219.484 247.222 219.957 247.559C220.43 247.891 220.746 248.343 220.903 248.914H221.006C221.206 248.352 221.568 247.902 222.092 247.565C222.621 247.224 223.245 247.054 223.965 247.054C224.881 247.054 225.625 247.346 226.196 247.93C226.771 248.509 227.059 249.332 227.059 250.397V257H224.342V250.934C224.342 250.388 224.197 249.979 223.907 249.707C223.618 249.434 223.256 249.298 222.821 249.298C222.327 249.298 221.941 249.455 221.664 249.771C221.387 250.082 221.248 250.493 221.248 251.004V257H218.608V250.876C218.608 250.395 218.47 250.011 218.193 249.726C217.92 249.44 217.56 249.298 217.113 249.298C216.81 249.298 216.537 249.374 216.295 249.528C216.056 249.677 215.866 249.888 215.726 250.161C215.585 250.429 215.515 250.744 215.515 251.107V257H212.792ZM231.933 251.324V257H229.21V247.182H231.805V248.914H231.92C232.137 248.343 232.502 247.891 233.013 247.559C233.524 247.222 234.144 247.054 234.873 247.054C235.555 247.054 236.149 247.203 236.656 247.501C237.164 247.8 237.558 248.226 237.839 248.78C238.12 249.33 238.261 249.986 238.261 250.749V257H235.538V251.234C235.542 250.634 235.389 250.165 235.078 249.828C234.767 249.487 234.338 249.317 233.793 249.317C233.426 249.317 233.102 249.396 232.821 249.553C232.544 249.711 232.327 249.941 232.169 250.244C232.016 250.542 231.937 250.902 231.933 251.324ZM246.524 250.544V252.705H240.554V250.544H246.524ZM251.567 251.324V257H248.844V247.182H251.44V248.914H251.555C251.772 248.343 252.136 247.891 252.648 247.559C253.159 247.222 253.779 247.054 254.508 247.054C255.19 247.054 255.784 247.203 256.291 247.501C256.798 247.8 257.192 248.226 257.474 248.78C257.755 249.33 257.896 249.986 257.896 250.749V257H255.173V251.234C255.177 250.634 255.023 250.165 254.712 249.828C254.401 249.487 253.973 249.317 253.428 249.317C253.061 249.317 252.737 249.396 252.456 249.553C252.179 249.711 251.962 249.941 251.804 250.244C251.651 250.542 251.572 250.902 251.567 251.324ZM262.841 257.185C262.215 257.185 261.657 257.077 261.167 256.859C260.677 256.638 260.289 256.312 260.003 255.881C259.722 255.447 259.581 254.906 259.581 254.258C259.581 253.712 259.682 253.254 259.882 252.884C260.082 252.513 260.355 252.214 260.7 251.989C261.045 251.763 261.437 251.592 261.876 251.477C262.319 251.362 262.784 251.281 263.27 251.234C263.841 251.175 264.301 251.119 264.65 251.068C265 251.013 265.253 250.932 265.411 250.825C265.569 250.719 265.648 250.561 265.648 250.352V250.314C265.648 249.909 265.52 249.596 265.264 249.374C265.013 249.153 264.655 249.042 264.19 249.042C263.7 249.042 263.31 249.151 263.02 249.368C262.731 249.581 262.539 249.849 262.445 250.173L259.927 249.969C260.055 249.372 260.306 248.857 260.681 248.422C261.056 247.983 261.54 247.646 262.132 247.412C262.729 247.173 263.419 247.054 264.203 247.054C264.748 247.054 265.27 247.118 265.769 247.246C266.272 247.374 266.717 247.572 267.105 247.84C267.497 248.109 267.806 248.454 268.032 248.876C268.258 249.293 268.371 249.794 268.371 250.378V257H265.788V255.638H265.711C265.554 255.945 265.343 256.216 265.079 256.45C264.814 256.68 264.497 256.862 264.126 256.994C263.756 257.121 263.327 257.185 262.841 257.185ZM263.621 255.306C264.022 255.306 264.376 255.227 264.682 255.07C264.989 254.908 265.23 254.69 265.405 254.418C265.579 254.145 265.667 253.836 265.667 253.491V252.449C265.581 252.504 265.464 252.555 265.315 252.602C265.17 252.645 265.006 252.685 264.823 252.724C264.64 252.758 264.456 252.79 264.273 252.82C264.09 252.845 263.924 252.869 263.775 252.89C263.455 252.937 263.176 253.011 262.937 253.114C262.699 253.216 262.513 253.354 262.381 253.529C262.249 253.7 262.183 253.913 262.183 254.168C262.183 254.539 262.317 254.822 262.586 255.018C262.858 255.21 263.204 255.306 263.621 255.306ZM270.483 257V247.182H273.078V248.914H273.193C273.398 248.339 273.739 247.885 274.216 247.553C274.693 247.22 275.264 247.054 275.929 247.054C276.602 247.054 277.176 247.222 277.649 247.559C278.122 247.891 278.437 248.343 278.595 248.914H278.697C278.897 248.352 279.259 247.902 279.784 247.565C280.312 247.224 280.936 247.054 281.656 247.054C282.573 247.054 283.316 247.346 283.887 247.93C284.463 248.509 284.75 249.332 284.75 250.397V257H282.034V250.934C282.034 250.388 281.889 249.979 281.599 249.707C281.309 249.434 280.947 249.298 280.512 249.298C280.018 249.298 279.632 249.455 279.355 249.771C279.078 250.082 278.94 250.493 278.94 251.004V257H276.3V250.876C276.3 250.395 276.161 250.011 275.884 249.726C275.612 249.44 275.252 249.298 274.804 249.298C274.502 249.298 274.229 249.374 273.986 249.528C273.747 249.677 273.558 249.888 273.417 250.161C273.276 250.429 273.206 250.744 273.206 251.107V257H270.483ZM291.376 257.192C290.366 257.192 289.496 256.987 288.768 256.578C288.043 256.165 287.485 255.581 287.093 254.827C286.701 254.068 286.505 253.171 286.505 252.136C286.505 251.126 286.701 250.239 287.093 249.477C287.485 248.714 288.037 248.119 288.748 247.693C289.464 247.267 290.304 247.054 291.267 247.054C291.915 247.054 292.518 247.158 293.076 247.367C293.638 247.572 294.128 247.881 294.546 248.294C294.968 248.707 295.296 249.227 295.53 249.854C295.765 250.476 295.882 251.205 295.882 252.04V252.788H287.591V251.1H293.319C293.319 250.708 293.233 250.361 293.063 250.058C292.893 249.756 292.656 249.519 292.354 249.349C292.055 249.174 291.708 249.087 291.312 249.087C290.898 249.087 290.532 249.183 290.212 249.374C289.897 249.562 289.65 249.815 289.471 250.135C289.292 250.45 289.2 250.802 289.196 251.19V252.794C289.196 253.28 289.285 253.7 289.464 254.053C289.648 254.407 289.905 254.68 290.238 254.871C290.57 255.063 290.964 255.159 291.42 255.159C291.723 255.159 292 255.116 292.251 255.031C292.503 254.946 292.718 254.818 292.897 254.648C293.076 254.477 293.212 254.268 293.306 254.021L295.824 254.188C295.697 254.793 295.434 255.321 295.038 255.773C294.646 256.22 294.139 256.57 293.517 256.821C292.899 257.068 292.185 257.192 291.376 257.192Z" fill="black"/>
<rect x="164.5" y="235.5" width="143" height="32" rx="16" stroke="black"/>
<path d="M246 375L236 369.226V380.774L246 375ZM220 376H237V374H220V376Z" fill="black"/>
<path d="M281 375L271 369.226V380.774L281 375ZM220 376H272V374H220V376Z" fill="black"/>
<path d="M390.5 375L380.5 369.226V380.774L390.5 375ZM337.5 376H381.5V374H337.5V376Z" fill="black"/>
<path d="M648.5 554L638.5 548.227V559.773L648.5 554ZM423 376H613V374H423V376ZM622 385V544H624V385H622ZM633 555H639.5V553H633V555ZM622 544C622 550.075 626.925 555 633 555V553C628.029 553 624 548.971 624 544H622ZM613 376C617.971 376 622 380.029 622 385H624C624 378.925 619.075 374 613 374V376Z" fill="black"/>
<path d="M445.232 419V418V419ZM456 419L446 413.226L446 424.773L456 419ZM423 376H425.232V374H423V376ZM434.232 385V409H436.232V385H434.232ZM445.232 420H447V418H445.232V420ZM434.232 409C434.232 415.075 439.156 420 445.232 420V418C440.261 418 436.232 413.971 436.232 409H434.232ZM425.232 376C430.202 376 434.232 380.029 434.232 385H436.232C436.232 378.925 431.307 374 425.232 374V376Z" fill="black"/>
<path d="M612.808 418.196L612.827 419.196L612.808 418.196ZM633.196 553.8L633.176 552.8H633.176L633.196 553.8ZM648.5 553.5L638.389 547.924L638.615 559.468L648.5 553.5ZM597.019 419.5L612.827 419.196L612.789 417.196L596.981 417.5L597.019 419.5ZM622 428.194V543.802H624V428.194H622ZM633.216 554.8L639.521 554.676L639.482 552.677L633.176 552.8L633.216 554.8ZM622 543.802C622 549.962 627.057 554.921 633.216 554.8L633.176 552.8C628.138 552.899 624 548.842 624 543.802H622ZM612.827 419.196C617.864 419.099 622 423.156 622 428.194H624C624 422.036 618.945 417.078 612.789 417.196L612.827 419.196Z" fill="black"/>
<path d="M295 417L263 417C257.477 417 253 412.523 253 407L253 385C253 379.477 257.477 375 263 375L264.066 375" stroke="black" stroke-width="2"/>
<path d="M295 459L174 459C168.477 459 164 454.523 164 449L164 384C164 378.477 168.477 374 174 374L178 374" stroke="black" stroke-width="2"/>
<path d="M328.5 417L338.5 422.774V411.226L328.5 417ZM353.5 376H355.5V374H353.5V376ZM355.5 416H337.5V418H355.5V416ZM364.5 385V396H366.5V385H364.5ZM364.5 396V407H366.5V396H364.5ZM355.5 418C361.575 418 366.5 413.075 366.5 407H364.5C364.5 411.971 360.471 416 355.5 416V418ZM355.5 376C360.471 376 364.5 380.029 364.5 385H366.5C366.5 378.925 361.575 374 355.5 374V376Z" fill="black"/>
<path d="M328.5 459L338.5 464.774V453.226L328.5 459ZM423 376H425V374H423V376ZM434 385V417H436V385H434ZM434 417V449H436V417H434ZM425 458H383V460H425V458ZM383 458H337.5V460H383V458ZM434 449C434 453.971 429.971 458 425 458V460C431.075 460 436 455.075 436 449H434ZM425 376C429.971 376 434 380.029 434 385H436C436 378.925 431.075 374 425 374V376Z" fill="black"/>
<circle cx="203.5" cy="375.5" r="16" stroke="black"/>
<path d="M200.688 375.752C200.688 374.167 200.898 372.707 201.32 371.374C201.746 370.04 202.396 368.804 203.27 367.666H205.871C205.539 368.088 205.23 368.604 204.945 369.213C204.659 369.818 204.41 370.483 204.197 371.207C203.984 371.932 203.817 372.682 203.698 373.457C203.579 374.229 203.519 374.994 203.519 375.752C203.519 376.762 203.621 377.783 203.826 378.814C204.035 379.841 204.316 380.795 204.67 381.678C205.028 382.56 205.428 383.282 205.871 383.844H203.27C202.396 382.707 201.746 381.471 201.32 380.137C200.898 378.803 200.688 377.342 200.688 375.752Z" fill="black"/>
<circle cx="407" cy="375.5" r="16" stroke="black"/>
<circle cx="311.5" cy="417.5" r="16" stroke="black"/>
<path d="M313.046 463.21L312.976 463.913C312.92 464.476 312.814 465.036 312.656 465.594C312.503 466.157 312.341 466.666 312.17 467.122C312.004 467.578 311.87 467.936 311.768 468.196H310.004C310.067 467.945 310.155 467.593 310.266 467.141C310.376 466.694 310.481 466.191 310.579 465.633C310.677 465.075 310.739 464.506 310.764 463.926L310.796 463.21H313.046Z" fill="black"/>
<circle cx="311.5" cy="459.5" r="16" stroke="black"/>
<path d="M410.176 375.752C410.176 377.342 409.963 378.803 409.537 380.137C409.115 381.471 408.467 382.707 407.594 383.844H404.992C405.325 383.423 405.634 382.907 405.919 382.298C406.205 381.688 406.454 381.023 406.667 380.303C406.88 379.579 407.046 378.829 407.165 378.053C407.285 377.278 407.344 376.511 407.344 375.752C407.344 374.742 407.24 373.724 407.031 372.697C406.827 371.665 406.545 370.711 406.188 369.833C405.834 368.951 405.435 368.229 404.992 367.666H407.594C408.467 368.804 409.115 370.04 409.537 371.374C409.963 372.707 410.176 374.167 410.176 375.752Z" fill="black"/>
<path d="M294.561 381.192C293.551 381.192 292.682 380.987 291.953 380.578C291.229 380.165 290.67 379.581 290.278 378.827C289.886 378.068 289.69 377.171 289.69 376.136C289.69 375.126 289.886 374.239 290.278 373.477C290.67 372.714 291.222 372.119 291.934 371.693C292.65 371.267 293.489 371.054 294.452 371.054C295.1 371.054 295.703 371.158 296.261 371.367C296.824 371.572 297.314 371.881 297.732 372.294C298.153 372.707 298.482 373.227 298.716 373.854C298.95 374.476 299.067 375.205 299.067 376.04V376.788H290.777V375.1H296.504C296.504 374.708 296.419 374.361 296.249 374.058C296.078 373.756 295.842 373.519 295.539 373.349C295.241 373.174 294.893 373.087 294.497 373.087C294.084 373.087 293.717 373.183 293.398 373.374C293.082 373.562 292.835 373.815 292.656 374.135C292.477 374.45 292.386 374.802 292.381 375.19V376.794C292.381 377.28 292.471 377.7 292.65 378.053C292.833 378.407 293.091 378.68 293.423 378.871C293.756 379.063 294.15 379.159 294.606 379.159C294.908 379.159 295.185 379.116 295.437 379.031C295.688 378.946 295.903 378.818 296.082 378.648C296.261 378.477 296.398 378.268 296.491 378.021L299.01 378.188C298.882 378.793 298.62 379.321 298.224 379.773C297.832 380.22 297.325 380.57 296.702 380.821C296.085 381.068 295.371 381.192 294.561 381.192ZM302.944 371.182L304.747 374.614L306.594 371.182H309.387L306.543 376.091L309.464 381H306.684L304.747 377.606L302.842 381H300.029L302.944 376.091L300.132 371.182H302.944ZM311.005 384.682V371.182H313.689V372.831H313.811C313.93 372.567 314.103 372.298 314.328 372.026C314.559 371.749 314.857 371.518 315.223 371.335C315.594 371.148 316.054 371.054 316.604 371.054C317.32 371.054 317.98 371.241 318.586 371.616C319.191 371.987 319.674 372.548 320.037 373.298C320.399 374.043 320.58 374.979 320.58 376.104C320.58 377.199 320.403 378.124 320.049 378.878C319.7 379.628 319.223 380.197 318.618 380.585C318.017 380.968 317.343 381.16 316.598 381.16C316.069 381.16 315.62 381.072 315.249 380.898C314.882 380.723 314.582 380.504 314.348 380.239C314.113 379.971 313.934 379.7 313.811 379.428H313.728V384.682H311.005ZM313.67 376.091C313.67 376.675 313.751 377.184 313.913 377.619C314.075 378.053 314.309 378.392 314.616 378.635C314.923 378.874 315.296 378.993 315.735 378.993C316.178 378.993 316.553 378.871 316.86 378.629C317.167 378.381 317.399 378.04 317.556 377.606C317.718 377.167 317.799 376.662 317.799 376.091C317.799 375.524 317.721 375.026 317.563 374.595C317.405 374.165 317.173 373.828 316.866 373.585C316.559 373.342 316.182 373.221 315.735 373.221C315.292 373.221 314.917 373.338 314.61 373.572C314.307 373.807 314.075 374.139 313.913 374.57C313.751 375 313.67 375.507 313.67 376.091ZM322.395 381V371.182H325.035V372.895H325.137C325.316 372.286 325.617 371.825 326.039 371.514C326.461 371.199 326.946 371.041 327.496 371.041C327.632 371.041 327.779 371.05 327.937 371.067C328.095 371.084 328.233 371.107 328.353 371.137V373.553C328.225 373.515 328.048 373.481 327.822 373.451C327.596 373.421 327.39 373.406 327.202 373.406C326.801 373.406 326.444 373.494 326.128 373.668C325.817 373.839 325.57 374.077 325.387 374.384C325.208 374.691 325.118 375.045 325.118 375.445V381H322.395Z" fill="black"/>
<rect x="281.5" y="359.5" width="54" height="32" stroke="black"/>
<path d="M472.383 418.82V413.182H475.106V423H472.491V421.217H472.389C472.168 421.792 471.799 422.254 471.283 422.604C470.772 422.953 470.148 423.128 469.411 423.128C468.754 423.128 468.177 422.979 467.678 422.68C467.18 422.382 466.79 421.958 466.509 421.408C466.232 420.859 466.091 420.2 466.087 419.433V413.182H468.81V418.947C468.814 419.527 468.969 419.985 469.276 420.322C469.583 420.658 469.994 420.827 470.51 420.827C470.838 420.827 471.145 420.752 471.43 420.603C471.716 420.45 471.946 420.224 472.121 419.925C472.3 419.627 472.387 419.259 472.383 418.82ZM477.284 426.682V413.182H479.969V414.831H480.09C480.209 414.567 480.382 414.298 480.608 414.026C480.838 413.749 481.136 413.518 481.503 413.335C481.873 413.148 482.334 413.054 482.883 413.054C483.599 413.054 484.26 413.241 484.865 413.616C485.47 413.987 485.954 414.548 486.316 415.298C486.678 416.043 486.859 416.979 486.859 418.104C486.859 419.199 486.682 420.124 486.329 420.878C485.979 421.628 485.502 422.197 484.897 422.585C484.296 422.968 483.623 423.16 482.877 423.16C482.349 423.16 481.899 423.072 481.528 422.898C481.162 422.723 480.861 422.504 480.627 422.239C480.393 421.971 480.214 421.7 480.09 421.428H480.007V426.682H477.284ZM479.949 418.091C479.949 418.675 480.03 419.184 480.192 419.619C480.354 420.053 480.589 420.392 480.895 420.635C481.202 420.874 481.575 420.993 482.014 420.993C482.457 420.993 482.832 420.871 483.139 420.629C483.446 420.381 483.678 420.04 483.836 419.606C483.998 419.167 484.079 418.662 484.079 418.091C484.079 417.524 484 417.026 483.842 416.595C483.684 416.165 483.452 415.828 483.145 415.585C482.839 415.342 482.461 415.221 482.014 415.221C481.571 415.221 481.196 415.338 480.889 415.572C480.586 415.807 480.354 416.139 480.192 416.57C480.03 417 479.949 417.507 479.949 418.091ZM496.844 415.982L494.351 416.135C494.308 415.922 494.216 415.73 494.076 415.56C493.935 415.385 493.75 415.246 493.52 415.144C493.294 415.038 493.023 414.984 492.708 414.984C492.286 414.984 491.93 415.074 491.64 415.253C491.351 415.428 491.206 415.662 491.206 415.956C491.206 416.19 491.3 416.388 491.487 416.55C491.675 416.712 491.996 416.842 492.452 416.94L494.229 417.298C495.184 417.494 495.895 417.81 496.364 418.244C496.833 418.679 497.067 419.25 497.067 419.957C497.067 420.601 496.878 421.165 496.498 421.651C496.123 422.137 495.608 422.516 494.952 422.789C494.3 423.058 493.547 423.192 492.695 423.192C491.395 423.192 490.36 422.921 489.589 422.38C488.822 421.835 488.372 421.093 488.24 420.156L490.918 420.015C490.999 420.411 491.195 420.714 491.506 420.923C491.817 421.127 492.216 421.229 492.702 421.229C493.179 421.229 493.562 421.138 493.852 420.955C494.146 420.767 494.295 420.526 494.3 420.232C494.295 419.985 494.191 419.783 493.986 419.625C493.782 419.463 493.466 419.339 493.04 419.254L491.34 418.915C490.381 418.724 489.667 418.391 489.199 417.918C488.734 417.445 488.502 416.842 488.502 416.109C488.502 415.479 488.672 414.935 489.013 414.479C489.358 414.023 489.842 413.672 490.464 413.425C491.091 413.178 491.824 413.054 492.663 413.054C493.903 413.054 494.879 413.316 495.591 413.84C496.307 414.364 496.724 415.078 496.844 415.982ZM503.256 423.192C502.246 423.192 501.377 422.987 500.648 422.578C499.924 422.165 499.366 421.581 498.974 420.827C498.582 420.068 498.386 419.171 498.386 418.136C498.386 417.126 498.582 416.239 498.974 415.477C499.366 414.714 499.918 414.119 500.629 413.693C501.345 413.267 502.185 413.054 503.148 413.054C503.795 413.054 504.398 413.158 504.957 413.367C505.519 413.572 506.009 413.881 506.427 414.294C506.849 414.707 507.177 415.227 507.411 415.854C507.646 416.476 507.763 417.205 507.763 418.04V418.788H499.472V417.1H505.2C505.2 416.708 505.114 416.361 504.944 416.058C504.773 415.756 504.537 415.519 504.234 415.349C503.936 415.174 503.589 415.087 503.192 415.087C502.779 415.087 502.413 415.183 502.093 415.374C501.778 415.562 501.531 415.815 501.352 416.135C501.173 416.45 501.081 416.802 501.077 417.19V418.794C501.077 419.28 501.166 419.7 501.345 420.053C501.528 420.407 501.786 420.68 502.119 420.871C502.451 421.063 502.845 421.159 503.301 421.159C503.604 421.159 503.881 421.116 504.132 421.031C504.384 420.946 504.599 420.818 504.778 420.648C504.957 420.477 505.093 420.268 505.187 420.021L507.705 420.188C507.577 420.793 507.315 421.321 506.919 421.773C506.527 422.22 506.02 422.57 505.398 422.821C504.78 423.068 504.066 423.192 503.256 423.192ZM509.54 423V413.182H512.18V414.895H512.282C512.461 414.286 512.761 413.825 513.183 413.514C513.605 413.199 514.091 413.041 514.641 413.041C514.777 413.041 514.924 413.05 515.082 413.067C515.239 413.084 515.378 413.107 515.497 413.137V415.553C515.369 415.515 515.192 415.481 514.967 415.451C514.741 415.421 514.534 415.406 514.347 415.406C513.946 415.406 513.588 415.494 513.273 415.668C512.962 415.839 512.714 416.077 512.531 416.384C512.352 416.691 512.263 417.045 512.263 417.445V423H509.54ZM522.619 413.182V415.227H516.707V413.182H522.619ZM518.049 410.83H520.772V419.983C520.772 420.234 520.811 420.43 520.887 420.571C520.964 420.707 521.07 420.803 521.207 420.859C521.347 420.914 521.509 420.942 521.693 420.942C521.82 420.942 521.948 420.931 522.076 420.91C522.204 420.884 522.302 420.865 522.37 420.852L522.798 422.879C522.662 422.921 522.47 422.97 522.223 423.026C521.976 423.085 521.676 423.121 521.322 423.134C520.666 423.16 520.09 423.072 519.596 422.872C519.106 422.672 518.725 422.361 518.452 421.939C518.179 421.517 518.045 420.984 518.049 420.341V410.83ZM530.212 416.544V418.705H524.241V416.544H530.212ZM536.968 423.192C535.962 423.192 535.097 422.979 534.373 422.553C533.653 422.122 533.099 421.526 532.711 420.763C532.327 420 532.136 419.122 532.136 418.129C532.136 417.124 532.33 416.241 532.717 415.483C533.109 414.72 533.665 414.126 534.386 413.7C535.106 413.269 535.962 413.054 536.955 413.054C537.812 413.054 538.562 413.21 539.205 413.521C539.849 413.832 540.358 414.268 540.733 414.831C541.108 415.393 541.315 416.054 541.353 416.812H538.783C538.711 416.322 538.519 415.928 538.208 415.63C537.901 415.327 537.499 415.176 537 415.176C536.578 415.176 536.21 415.291 535.894 415.521C535.583 415.747 535.34 416.077 535.165 416.512C534.991 416.947 534.903 417.473 534.903 418.091C534.903 418.717 534.989 419.25 535.159 419.689C535.334 420.128 535.579 420.462 535.894 420.692C536.21 420.923 536.578 421.038 537 421.038C537.311 421.038 537.59 420.974 537.837 420.846C538.089 420.718 538.295 420.533 538.457 420.29C538.624 420.043 538.732 419.746 538.783 419.401H541.353C541.31 420.151 541.106 420.812 540.739 421.383C540.377 421.95 539.876 422.393 539.237 422.712C538.598 423.032 537.842 423.192 536.968 423.192ZM545.819 409.909V423H543.096V409.909H545.819ZM550.8 423.185C550.174 423.185 549.616 423.077 549.126 422.859C548.636 422.638 548.248 422.312 547.962 421.881C547.681 421.447 547.54 420.906 547.54 420.258C547.54 419.712 547.641 419.254 547.841 418.884C548.041 418.513 548.314 418.214 548.659 417.989C549.004 417.763 549.396 417.592 549.835 417.477C550.278 417.362 550.743 417.281 551.229 417.234C551.8 417.175 552.26 417.119 552.609 417.068C552.959 417.013 553.212 416.932 553.37 416.825C553.528 416.719 553.607 416.561 553.607 416.352V416.314C553.607 415.909 553.479 415.596 553.223 415.374C552.972 415.153 552.614 415.042 552.149 415.042C551.659 415.042 551.269 415.151 550.979 415.368C550.69 415.581 550.498 415.849 550.404 416.173L547.886 415.969C548.013 415.372 548.265 414.857 548.64 414.422C549.015 413.983 549.499 413.646 550.091 413.412C550.688 413.173 551.378 413.054 552.162 413.054C552.707 413.054 553.229 413.118 553.728 413.246C554.231 413.374 554.676 413.572 555.064 413.84C555.456 414.109 555.765 414.454 555.991 414.876C556.217 415.293 556.33 415.794 556.33 416.378V423H553.747V421.638H553.67C553.513 421.945 553.302 422.216 553.038 422.45C552.773 422.68 552.456 422.862 552.085 422.994C551.714 423.121 551.286 423.185 550.8 423.185ZM551.58 421.306C551.981 421.306 552.335 421.227 552.641 421.07C552.948 420.908 553.189 420.69 553.364 420.418C553.538 420.145 553.626 419.836 553.626 419.491V418.449C553.54 418.504 553.423 418.555 553.274 418.602C553.129 418.645 552.965 418.685 552.782 418.724C552.599 418.758 552.415 418.79 552.232 418.82C552.049 418.845 551.883 418.869 551.734 418.89C551.414 418.937 551.135 419.011 550.896 419.114C550.658 419.216 550.472 419.354 550.34 419.529C550.208 419.7 550.142 419.913 550.142 420.168C550.142 420.539 550.276 420.822 550.545 421.018C550.817 421.21 551.163 421.306 551.58 421.306ZM564.738 418.82V413.182H567.461V423H564.847V421.217H564.745C564.523 421.792 564.154 422.254 563.639 422.604C563.127 422.953 562.503 423.128 561.766 423.128C561.11 423.128 560.532 422.979 560.034 422.68C559.535 422.382 559.145 421.958 558.864 421.408C558.587 420.859 558.446 420.2 558.442 419.433V413.182H561.165V418.947C561.169 419.527 561.325 419.985 561.632 420.322C561.939 420.658 562.35 420.827 562.865 420.827C563.194 420.827 563.5 420.752 563.786 420.603C564.071 420.45 564.301 420.224 564.476 419.925C564.655 419.627 564.743 419.259 564.738 418.82ZM577.808 415.982L575.316 416.135C575.273 415.922 575.181 415.73 575.041 415.56C574.9 415.385 574.715 415.246 574.485 415.144C574.259 415.038 573.988 414.984 573.673 414.984C573.251 414.984 572.895 415.074 572.605 415.253C572.316 415.428 572.171 415.662 572.171 415.956C572.171 416.19 572.264 416.388 572.452 416.55C572.639 416.712 572.961 416.842 573.417 416.94L575.194 417.298C576.149 417.494 576.86 417.81 577.329 418.244C577.798 418.679 578.032 419.25 578.032 419.957C578.032 420.601 577.843 421.165 577.463 421.651C577.088 422.137 576.573 422.516 575.916 422.789C575.264 423.058 574.512 423.192 573.66 423.192C572.36 423.192 571.325 422.921 570.553 422.38C569.786 421.835 569.337 421.093 569.205 420.156L571.883 420.015C571.964 420.411 572.16 420.714 572.471 420.923C572.782 421.127 573.181 421.229 573.666 421.229C574.144 421.229 574.527 421.138 574.817 420.955C575.111 420.767 575.26 420.526 575.264 420.232C575.26 419.985 575.156 419.783 574.951 419.625C574.747 419.463 574.431 419.339 574.005 419.254L572.305 418.915C571.346 418.724 570.632 418.391 570.164 417.918C569.699 417.445 569.467 416.842 569.467 416.109C569.467 415.479 569.637 414.935 569.978 414.479C570.323 414.023 570.807 413.672 571.429 413.425C572.056 413.178 572.789 413.054 573.628 413.054C574.868 413.054 575.844 413.316 576.556 413.84C577.271 414.364 577.689 415.078 577.808 415.982ZM584.221 423.192C583.211 423.192 582.342 422.987 581.613 422.578C580.889 422.165 580.331 421.581 579.939 420.827C579.547 420.068 579.35 419.171 579.35 418.136C579.35 417.126 579.547 416.239 579.939 415.477C580.331 414.714 580.882 414.119 581.594 413.693C582.31 413.267 583.15 413.054 584.113 413.054C584.76 413.054 585.363 413.158 585.922 413.367C586.484 413.572 586.974 413.881 587.392 414.294C587.814 414.707 588.142 415.227 588.376 415.854C588.61 416.476 588.728 417.205 588.728 418.04V418.788H580.437V417.1H586.164C586.164 416.708 586.079 416.361 585.909 416.058C585.738 415.756 585.502 415.519 585.199 415.349C584.901 415.174 584.554 415.087 584.157 415.087C583.744 415.087 583.377 415.183 583.058 415.374C582.743 415.562 582.495 415.815 582.316 416.135C582.137 416.45 582.046 416.802 582.042 417.19V418.794C582.042 419.28 582.131 419.7 582.31 420.053C582.493 420.407 582.751 420.68 583.083 420.871C583.416 421.063 583.81 421.159 584.266 421.159C584.569 421.159 584.846 421.116 585.097 421.031C585.348 420.946 585.564 420.818 585.743 420.648C585.922 420.477 586.058 420.268 586.152 420.021L588.67 420.188C588.542 420.793 588.28 421.321 587.884 421.773C587.492 422.22 586.985 422.57 586.363 422.821C585.745 423.068 585.031 423.192 584.221 423.192Z" fill="black"/>
<rect x="457.5" y="401.5" width="139" height="32" stroke="black"/>
<path d="M444.087 559V549.182H446.727V550.895H446.829C447.008 550.286 447.308 549.825 447.73 549.514C448.152 549.199 448.638 549.041 449.188 549.041C449.324 549.041 449.471 549.05 449.629 549.067C449.786 549.084 449.925 549.107 450.044 549.137V551.553C449.916 551.515 449.739 551.481 449.513 551.451C449.288 551.421 449.081 551.406 448.893 551.406C448.493 551.406 448.135 551.494 447.82 551.668C447.509 551.839 447.261 552.077 447.078 552.384C446.899 552.691 446.81 553.045 446.81 553.445V559H444.087ZM455.469 559.192C454.459 559.192 453.59 558.987 452.861 558.578C452.137 558.165 451.579 557.581 451.187 556.827C450.795 556.068 450.599 555.171 450.599 554.136C450.599 553.126 450.795 552.239 451.187 551.477C451.579 550.714 452.131 550.119 452.842 549.693C453.558 549.267 454.398 549.054 455.361 549.054C456.008 549.054 456.611 549.158 457.17 549.367C457.732 549.572 458.222 549.881 458.64 550.294C459.062 550.707 459.39 551.227 459.624 551.854C459.858 552.476 459.976 553.205 459.976 554.04V554.788H451.685V553.1H457.412C457.412 552.708 457.327 552.361 457.157 552.058C456.986 551.756 456.75 551.519 456.447 551.349C456.149 551.174 455.802 551.087 455.405 551.087C454.992 551.087 454.626 551.183 454.306 551.374C453.991 551.562 453.743 551.815 453.564 552.135C453.385 552.45 453.294 552.802 453.29 553.19V554.794C453.29 555.28 453.379 555.7 453.558 556.053C453.741 556.407 453.999 556.68 454.331 556.871C454.664 557.063 455.058 557.159 455.514 557.159C455.817 557.159 456.094 557.116 456.345 557.031C456.596 556.946 456.812 556.818 456.991 556.648C457.17 556.477 457.306 556.268 457.4 556.021L459.918 556.188C459.79 556.793 459.528 557.321 459.132 557.773C458.74 558.22 458.233 558.57 457.611 558.821C456.993 559.068 456.279 559.192 455.469 559.192ZM466.975 549.182V551.227H461.062V549.182H466.975ZM462.405 546.83H465.128V555.983C465.128 556.234 465.166 556.43 465.243 556.571C465.319 556.707 465.426 556.803 465.562 556.859C465.703 556.914 465.865 556.942 466.048 556.942C466.176 556.942 466.304 556.931 466.432 556.91C466.559 556.884 466.657 556.865 466.726 556.852L467.154 558.879C467.018 558.921 466.826 558.97 466.579 559.026C466.331 559.085 466.031 559.121 465.677 559.134C465.021 559.16 464.446 559.072 463.952 558.872C463.461 558.672 463.08 558.361 462.807 557.939C462.535 557.517 462.4 556.984 462.405 556.341V546.83ZM475.045 554.82V549.182H477.768V559H475.154V557.217H475.051C474.83 557.792 474.461 558.254 473.945 558.604C473.434 558.953 472.81 559.128 472.073 559.128C471.416 559.128 470.839 558.979 470.34 558.68C469.842 558.382 469.452 557.958 469.171 557.408C468.894 556.859 468.753 556.2 468.749 555.433V549.182H471.472V554.947C471.476 555.527 471.632 555.985 471.938 556.322C472.245 556.658 472.656 556.827 473.172 556.827C473.5 556.827 473.807 556.752 474.093 556.603C474.378 556.45 474.608 556.224 474.783 555.925C474.962 555.627 475.049 555.259 475.045 554.82ZM479.946 559V549.182H482.586V550.895H482.688C482.867 550.286 483.168 549.825 483.589 549.514C484.011 549.199 484.497 549.041 485.047 549.041C485.183 549.041 485.33 549.05 485.488 549.067C485.646 549.084 485.784 549.107 485.903 549.137V551.553C485.776 551.515 485.599 551.481 485.373 551.451C485.147 551.421 484.94 551.406 484.753 551.406C484.352 551.406 483.994 551.494 483.679 551.668C483.368 551.839 483.121 552.077 482.938 552.384C482.759 552.691 482.669 553.045 482.669 553.445V559H479.946ZM490.034 553.324V559H487.311V549.182H489.906V550.914H490.021C490.239 550.343 490.603 549.891 491.115 549.559C491.626 549.222 492.246 549.054 492.975 549.054C493.656 549.054 494.251 549.203 494.758 549.501C495.265 549.8 495.659 550.226 495.941 550.78C496.222 551.33 496.362 551.986 496.362 552.749V559H493.639V553.234C493.644 552.634 493.49 552.165 493.179 551.828C492.868 551.487 492.44 551.317 491.894 551.317C491.528 551.317 491.204 551.396 490.923 551.553C490.646 551.711 490.428 551.941 490.271 552.244C490.117 552.542 490.039 552.902 490.034 553.324ZM498.509 559V549.182H501.232V559H498.509ZM499.876 547.916C499.472 547.916 499.124 547.782 498.835 547.513C498.549 547.241 498.406 546.915 498.406 546.536C498.406 546.161 498.549 545.839 498.835 545.57C499.124 545.298 499.472 545.161 499.876 545.161C500.281 545.161 500.626 545.298 500.912 545.57C501.202 545.839 501.347 546.161 501.347 546.536C501.347 546.915 501.202 547.241 500.912 547.513C500.626 547.782 500.281 547.916 499.876 547.916ZM506.136 553.324V559H503.413V549.182H506.008V550.914H506.123C506.34 550.343 506.705 549.891 507.216 549.559C507.727 549.222 508.347 549.054 509.076 549.054C509.758 549.054 510.352 549.203 510.86 549.501C511.367 549.8 511.761 550.226 512.042 550.78C512.323 551.33 512.464 551.986 512.464 552.749V559H509.741V553.234C509.745 552.634 509.592 552.165 509.281 551.828C508.97 551.487 508.541 551.317 507.996 551.317C507.629 551.317 507.306 551.396 507.024 551.553C506.747 551.711 506.53 551.941 506.372 552.244C506.219 552.542 506.14 552.902 506.136 553.324ZM519.033 562.886C518.151 562.886 517.395 562.765 516.764 562.522C516.138 562.283 515.639 561.957 515.268 561.544C514.898 561.131 514.657 560.666 514.546 560.151L517.065 559.812C517.141 560.008 517.263 560.191 517.429 560.362C517.595 560.532 517.815 560.668 518.087 560.771C518.364 560.877 518.701 560.93 519.097 560.93C519.69 560.93 520.178 560.786 520.561 560.496C520.949 560.21 521.143 559.731 521.143 559.058V557.261H521.028C520.908 557.534 520.729 557.792 520.491 558.035C520.252 558.278 519.945 558.476 519.57 558.629C519.195 558.783 518.748 558.859 518.228 558.859C517.491 558.859 516.82 558.689 516.214 558.348C515.614 558.003 515.134 557.477 514.776 556.769C514.423 556.058 514.246 555.158 514.246 554.072C514.246 552.96 514.427 552.031 514.789 551.285C515.151 550.539 515.633 549.981 516.234 549.61C516.839 549.239 517.501 549.054 518.222 549.054C518.771 549.054 519.232 549.148 519.602 549.335C519.973 549.518 520.271 549.749 520.497 550.026C520.727 550.298 520.904 550.567 521.028 550.831H521.13V549.182H523.834V559.096C523.834 559.931 523.629 560.63 523.22 561.192C522.811 561.755 522.244 562.177 521.52 562.458C520.8 562.744 519.971 562.886 519.033 562.886ZM519.091 556.814C519.53 556.814 519.901 556.705 520.203 556.488C520.51 556.266 520.744 555.951 520.906 555.542C521.072 555.129 521.156 554.634 521.156 554.059C521.156 553.484 521.075 552.985 520.913 552.563C520.751 552.137 520.516 551.807 520.21 551.572C519.903 551.338 519.53 551.221 519.091 551.221C518.643 551.221 518.266 551.342 517.96 551.585C517.653 551.824 517.42 552.156 517.263 552.582C517.105 553.009 517.026 553.501 517.026 554.059C517.026 554.626 517.105 555.116 517.263 555.529C517.425 555.938 517.657 556.256 517.96 556.482C518.266 556.703 518.643 556.814 519.091 556.814ZM532.118 552.544V554.705H526.148V552.544H532.118ZM538.874 559.192C537.869 559.192 537.004 558.979 536.279 558.553C535.559 558.122 535.005 557.526 534.617 556.763C534.234 556 534.042 555.122 534.042 554.129C534.042 553.124 534.236 552.241 534.624 551.483C535.016 550.72 535.572 550.126 536.292 549.7C537.012 549.269 537.869 549.054 538.862 549.054C539.718 549.054 540.468 549.21 541.112 549.521C541.755 549.832 542.264 550.268 542.639 550.831C543.014 551.393 543.221 552.054 543.259 552.812H540.69C540.617 552.322 540.425 551.928 540.114 551.63C539.808 551.327 539.405 551.176 538.906 551.176C538.484 551.176 538.116 551.291 537.8 551.521C537.489 551.747 537.246 552.077 537.072 552.512C536.897 552.947 536.81 553.473 536.81 554.091C536.81 554.717 536.895 555.25 537.065 555.689C537.24 556.128 537.485 556.462 537.8 556.692C538.116 556.923 538.484 557.038 538.906 557.038C539.217 557.038 539.496 556.974 539.744 556.846C539.995 556.718 540.202 556.533 540.364 556.29C540.53 556.043 540.638 555.746 540.69 555.401H543.259C543.217 556.151 543.012 556.812 542.646 557.383C542.283 557.95 541.783 558.393 541.143 558.712C540.504 559.032 539.748 559.192 538.874 559.192ZM547.726 545.909V559H545.003V545.909H547.726ZM552.707 559.185C552.08 559.185 551.522 559.077 551.032 558.859C550.542 558.638 550.154 558.312 549.869 557.881C549.587 557.447 549.447 556.906 549.447 556.258C549.447 555.712 549.547 555.254 549.747 554.884C549.947 554.513 550.22 554.214 550.565 553.989C550.911 553.763 551.303 553.592 551.741 553.477C552.185 553.362 552.649 553.281 553.135 553.234C553.706 553.175 554.166 553.119 554.516 553.068C554.865 553.013 555.119 552.932 555.276 552.825C555.434 552.719 555.513 552.561 555.513 552.352V552.314C555.513 551.909 555.385 551.596 555.129 551.374C554.878 551.153 554.52 551.042 554.055 551.042C553.565 551.042 553.175 551.151 552.886 551.368C552.596 551.581 552.404 551.849 552.31 552.173L549.792 551.969C549.92 551.372 550.171 550.857 550.546 550.422C550.921 549.983 551.405 549.646 551.997 549.412C552.594 549.173 553.284 549.054 554.068 549.054C554.614 549.054 555.136 549.118 555.634 549.246C556.137 549.374 556.582 549.572 556.97 549.84C557.362 550.109 557.671 550.454 557.897 550.876C558.123 551.293 558.236 551.794 558.236 552.378V559H555.653V557.638H555.577C555.419 557.945 555.208 558.216 554.944 558.45C554.68 558.68 554.362 558.862 553.991 558.994C553.621 559.121 553.192 559.185 552.707 559.185ZM553.487 557.306C553.887 557.306 554.241 557.227 554.548 557.07C554.854 556.908 555.095 556.69 555.27 556.418C555.445 556.145 555.532 555.836 555.532 555.491V554.449C555.447 554.504 555.33 554.555 555.18 554.602C555.036 554.645 554.871 554.685 554.688 554.724C554.505 554.758 554.322 554.79 554.138 554.82C553.955 554.845 553.789 554.869 553.64 554.89C553.32 554.937 553.041 555.011 552.803 555.114C552.564 555.216 552.379 555.354 552.246 555.529C552.114 555.7 552.048 555.913 552.048 556.168C552.048 556.539 552.183 556.822 552.451 557.018C552.724 557.21 553.069 557.306 553.487 557.306ZM566.645 554.82V549.182H569.368V559H566.753V557.217H566.651C566.429 557.792 566.061 558.254 565.545 558.604C565.034 558.953 564.409 559.128 563.672 559.128C563.016 559.128 562.439 558.979 561.94 558.68C561.441 558.382 561.051 557.958 560.77 557.408C560.493 556.859 560.353 556.2 560.348 555.433V549.182H563.071V554.947C563.076 555.527 563.231 555.985 563.538 556.322C563.845 556.658 564.256 556.827 564.772 556.827C565.1 556.827 565.407 556.752 565.692 556.603C565.978 556.45 566.208 556.224 566.382 555.925C566.561 555.627 566.649 555.259 566.645 554.82ZM579.715 551.982L577.222 552.135C577.179 551.922 577.088 551.73 576.947 551.56C576.806 551.385 576.621 551.246 576.391 551.144C576.165 551.038 575.894 550.984 575.579 550.984C575.157 550.984 574.801 551.074 574.512 551.253C574.222 551.428 574.077 551.662 574.077 551.956C574.077 552.19 574.171 552.388 574.358 552.55C574.546 552.712 574.867 552.842 575.323 552.94L577.1 553.298C578.055 553.494 578.767 553.81 579.235 554.244C579.704 554.679 579.938 555.25 579.938 555.957C579.938 556.601 579.749 557.165 579.369 557.651C578.994 558.137 578.479 558.516 577.823 558.789C577.171 559.058 576.419 559.192 575.566 559.192C574.267 559.192 573.231 558.921 572.46 558.38C571.693 557.835 571.243 557.093 571.111 556.156L573.789 556.015C573.87 556.411 574.066 556.714 574.377 556.923C574.688 557.127 575.087 557.229 575.573 557.229C576.05 557.229 576.433 557.138 576.723 556.955C577.017 556.767 577.166 556.526 577.171 556.232C577.166 555.985 577.062 555.783 576.857 555.625C576.653 555.463 576.338 555.339 575.911 555.254L574.211 554.915C573.252 554.724 572.539 554.391 572.07 553.918C571.605 553.445 571.373 552.842 571.373 552.109C571.373 551.479 571.544 550.935 571.884 550.479C572.23 550.023 572.713 549.672 573.335 549.425C573.962 549.178 574.695 549.054 575.534 549.054C576.774 549.054 577.75 549.316 578.462 549.84C579.178 550.364 579.595 551.078 579.715 551.982ZM586.127 559.192C585.118 559.192 584.248 558.987 583.52 558.578C582.795 558.165 582.237 557.581 581.845 556.827C581.453 556.068 581.257 555.171 581.257 554.136C581.257 553.126 581.453 552.239 581.845 551.477C582.237 550.714 582.789 550.119 583.5 549.693C584.216 549.267 585.056 549.054 586.019 549.054C586.667 549.054 587.27 549.158 587.828 549.367C588.39 549.572 588.88 549.881 589.298 550.294C589.72 550.707 590.048 551.227 590.282 551.854C590.517 552.476 590.634 553.205 590.634 554.04V554.788H582.343V553.1H588.071C588.071 552.708 587.985 552.361 587.815 552.058C587.645 551.756 587.408 551.519 587.105 551.349C586.807 551.174 586.46 551.087 586.064 551.087C585.65 551.087 585.284 551.183 584.964 551.374C584.649 551.562 584.402 551.815 584.223 552.135C584.044 552.45 583.952 552.802 583.948 553.19V554.794C583.948 555.28 584.037 555.7 584.216 556.053C584.4 556.407 584.657 556.68 584.99 556.871C585.322 557.063 585.716 557.159 586.172 557.159C586.475 557.159 586.752 557.116 587.003 557.031C587.255 556.946 587.47 556.818 587.649 556.648C587.828 556.477 587.964 556.268 588.058 556.021L590.576 556.188C590.449 556.793 590.186 557.321 589.79 557.773C589.398 558.22 588.891 558.57 588.269 558.821C587.651 559.068 586.937 559.192 586.127 559.192Z" fill="black"/>
<rect x="435.5" y="537.5" width="161" height="32" stroke="black"/>
</svg>
