<svg width="788" height="110" viewBox="0 0 788 110" fill="none" xmlns="http://www.w3.org/2000/svg">
<circle cx="4" cy="16" r="3.5" stroke="black"/>
<circle cx="784" cy="16" r="3.5" stroke="black"/>
<path d="M38.3089 12.1818V14.2273H32.3963V12.1818H38.3089ZM33.7386 9.82955H36.4616V18.983C36.4616 19.2344 36.5 19.4304 36.5767 19.571C36.6534 19.7074 36.7599 19.8033 36.8963 19.8587C37.0369 19.9141 37.1989 19.9418 37.3821 19.9418C37.5099 19.9418 37.6378 19.9311 37.7656 19.9098C37.8935 19.8842 37.9915 19.8651 38.0597 19.8523L38.4879 21.8786C38.3516 21.9212 38.1598 21.9702 37.9126 22.0256C37.6655 22.0852 37.3651 22.1214 37.0114 22.1342C36.3551 22.1598 35.7798 22.0724 35.2855 21.8722C34.7955 21.6719 34.4141 21.3608 34.1413 20.9389C33.8686 20.517 33.7344 19.9844 33.7386 19.3409V9.82955ZM42.8825 22.1854C42.256 22.1854 41.6978 22.0767 41.2077 21.8594C40.7177 21.6378 40.3299 21.3118 40.0444 20.8814C39.7631 20.4467 39.6225 19.9055 39.6225 19.2578C39.6225 18.7124 39.7227 18.2543 39.9229 17.8835C40.1232 17.5128 40.396 17.2145 40.7411 16.9886C41.0863 16.7628 41.4783 16.5923 41.9173 16.4773C42.3604 16.3622 42.8249 16.2812 43.3107 16.2344C43.8817 16.1747 44.342 16.1193 44.6914 16.0682C45.0408 16.0128 45.2944 15.9318 45.4521 15.8253C45.6097 15.7187 45.6886 15.5611 45.6886 15.3523V15.3139C45.6886 14.9091 45.5607 14.5959 45.305 14.3743C45.0536 14.1527 44.6957 14.0419 44.2312 14.0419C43.7411 14.0419 43.3512 14.1506 43.0614 14.3679C42.7717 14.581 42.5799 14.8494 42.4862 15.1733L39.9677 14.9688C40.0955 14.3722 40.3469 13.8565 40.7219 13.4219C41.0969 12.983 41.5806 12.6463 42.1729 12.4119C42.7695 12.1733 43.4599 12.054 44.244 12.054C44.7894 12.054 45.3114 12.1179 45.81 12.2457C46.3129 12.3736 46.7582 12.5717 47.146 12.8402C47.538 13.1087 47.8469 13.4538 48.0728 13.8757C48.2987 14.2933 48.4116 14.794 48.4116 15.3778V22H45.8292V20.6385H45.7525C45.5948 20.9453 45.3839 21.2159 45.1197 21.4503C44.8555 21.6804 44.538 21.8615 44.1673 21.9936C43.7965 22.1214 43.3683 22.1854 42.8825 22.1854ZM43.6623 20.3061C44.0629 20.3061 44.4165 20.2273 44.7234 20.0696C45.0302 19.9077 45.271 19.6903 45.4457 19.4176C45.6204 19.1449 45.7077 18.8359 45.7077 18.4908V17.4489C45.6225 17.5043 45.5053 17.5554 45.3562 17.6023C45.2113 17.6449 45.0472 17.6854 44.864 17.7237C44.6808 17.7578 44.4975 17.7898 44.3143 17.8196C44.131 17.8452 43.9648 17.8686 43.8157 17.8899C43.4961 17.9368 43.217 18.0114 42.9783 18.1136C42.7397 18.2159 42.5543 18.3544 42.4222 18.5291C42.2901 18.6996 42.2241 18.9126 42.2241 19.1683C42.2241 19.5391 42.3583 19.8224 42.6268 20.0185C42.8995 20.2102 43.2447 20.3061 43.6623 20.3061ZM50.5753 22V8.90909H53.2983V13.831H53.3814C53.5007 13.5668 53.6733 13.2983 53.8991 13.0256C54.1293 12.7486 54.4276 12.5185 54.794 12.3352C55.1648 12.1477 55.625 12.054 56.1747 12.054C56.8906 12.054 57.5511 12.2415 58.1562 12.6165C58.7614 12.9872 59.245 13.5476 59.6072 14.2976C59.9695 15.0433 60.1506 15.9787 60.1506 17.1037C60.1506 18.1989 59.9737 19.1236 59.62 19.8778C59.2706 20.6278 58.7933 21.1967 58.1882 21.5845C57.5874 21.968 56.9141 22.1598 56.1683 22.1598C55.6399 22.1598 55.1903 22.0724 54.8196 21.8977C54.4531 21.723 54.1527 21.5036 53.9183 21.2393C53.6839 20.9709 53.505 20.7003 53.3814 20.4276H53.2599V22H50.5753ZM53.2408 17.0909C53.2408 17.6747 53.3217 18.1839 53.4837 18.6186C53.6456 19.0533 53.88 19.392 54.1868 19.6349C54.4936 19.8736 54.8665 19.9929 55.3054 19.9929C55.7486 19.9929 56.1236 19.8714 56.4304 19.6286C56.7372 19.3814 56.9695 19.0405 57.1271 18.6058C57.2891 18.1669 57.37 17.6619 57.37 17.0909C57.37 16.5241 57.2912 16.0256 57.1335 15.5952C56.9759 15.1648 56.7436 14.8281 56.4368 14.5852C56.13 14.3423 55.7528 14.2209 55.3054 14.2209C54.8622 14.2209 54.4872 14.3381 54.1804 14.5724C53.8778 14.8068 53.6456 15.1392 53.4837 15.5696C53.3217 16 53.2408 16.5071 53.2408 17.0909ZM64.6905 8.90909V22H61.9675V8.90909H64.6905ZM71.3462 22.1918C70.3363 22.1918 69.467 21.9872 68.7383 21.5781C68.0138 21.1648 67.4556 20.581 67.0636 19.8267C66.6715 19.0682 66.4755 18.1712 66.4755 17.1357C66.4755 16.1257 66.6715 15.2393 67.0636 14.4766C67.4556 13.7138 68.0075 13.1193 68.7191 12.6932C69.435 12.267 70.2745 12.054 71.2376 12.054C71.8853 12.054 72.4883 12.1584 73.0465 12.3672C73.609 12.5717 74.0991 12.8807 74.5167 13.294C74.9386 13.7074 75.2667 14.2273 75.5011 14.8537C75.7354 15.4759 75.8526 16.2045 75.8526 17.0398V17.7876H67.5621V16.1001H73.2894C73.2894 15.7081 73.2042 15.3608 73.0337 15.0582C72.8633 14.7557 72.6268 14.5192 72.3242 14.3487C72.0259 14.174 71.6786 14.0866 71.2823 14.0866C70.869 14.0866 70.5025 14.1825 70.1829 14.3743C69.8675 14.5618 69.6204 14.8153 69.4414 15.1349C69.2624 15.4503 69.1708 15.8018 69.1665 16.1896V17.794C69.1665 18.2798 69.256 18.6996 69.435 19.0533C69.6183 19.407 69.8761 19.6797 70.2085 19.8714C70.5408 20.0632 70.935 20.1591 71.391 20.1591C71.6935 20.1591 71.9705 20.1165 72.2219 20.0312C72.4734 19.946 72.6886 19.8182 72.8675 19.6477C73.0465 19.4773 73.1829 19.2685 73.2766 19.0213L75.7951 19.1875C75.6673 19.7926 75.4052 20.321 75.0089 20.7727C74.6168 21.2202 74.1097 21.5696 73.4876 21.821C72.8697 22.0682 72.1559 22.1918 71.3462 22.1918ZM83.7468 15.544V17.7045H77.7766V15.544H83.7468ZM90.5032 22.1918C89.5103 22.1918 88.6516 21.9808 87.9272 21.5589C87.207 21.1328 86.6509 20.5405 86.2589 19.782C85.8668 19.0192 85.6708 18.1349 85.6708 17.1293C85.6708 16.1151 85.8668 15.2287 86.2589 14.4702C86.6509 13.7074 87.207 13.1151 87.9272 12.6932C88.6516 12.267 89.5103 12.054 90.5032 12.054C91.4961 12.054 92.3526 12.267 93.0728 12.6932C93.7972 13.1151 94.3555 13.7074 94.7475 14.4702C95.1396 15.2287 95.3356 16.1151 95.3356 17.1293C95.3356 18.1349 95.1396 19.0192 94.7475 19.782C94.3555 20.5405 93.7972 21.1328 93.0728 21.5589C92.3526 21.9808 91.4961 22.1918 90.5032 22.1918ZM90.516 20.0824C90.9677 20.0824 91.3448 19.9545 91.6474 19.6989C91.9499 19.4389 92.1779 19.0852 92.3313 18.6378C92.489 18.1903 92.5678 17.6811 92.5678 17.1101C92.5678 16.5391 92.489 16.0298 92.3313 15.5824C92.1779 15.1349 91.9499 14.7812 91.6474 14.5213C91.3448 14.2614 90.9677 14.1314 90.516 14.1314C90.06 14.1314 89.6765 14.2614 89.3654 14.5213C89.0586 14.7812 88.8263 15.1349 88.6687 15.5824C88.5153 16.0298 88.4386 16.5391 88.4386 17.1101C88.4386 17.6811 88.5153 18.1903 88.6687 18.6378C88.8263 19.0852 89.0586 19.4389 89.3654 19.6989C89.6765 19.9545 90.06 20.0824 90.516 20.0824ZM97.1062 22V12.1818H99.7461V13.8949H99.8484C100.027 13.2855 100.328 12.8253 100.75 12.5142C101.172 12.1989 101.657 12.0412 102.207 12.0412C102.343 12.0412 102.49 12.0497 102.648 12.0668C102.806 12.0838 102.944 12.1072 103.064 12.1371V14.5533C102.936 14.5149 102.759 14.4808 102.533 14.451C102.307 14.4212 102.1 14.4062 101.913 14.4062C101.512 14.4062 101.154 14.4936 100.839 14.6683C100.528 14.8388 100.281 15.0774 100.098 15.3842C99.9187 15.6911 99.8292 16.0447 99.8292 16.4453V22H97.1062ZM110.29 15.544V17.7045H104.32V15.544H110.29ZM120.779 14.9815L118.286 15.1349C118.244 14.9219 118.152 14.7301 118.011 14.5597C117.871 14.3849 117.685 14.2464 117.455 14.1442C117.229 14.0376 116.959 13.9844 116.643 13.9844C116.222 13.9844 115.866 14.0739 115.576 14.2528C115.286 14.4276 115.141 14.6619 115.141 14.956C115.141 15.1903 115.235 15.3885 115.423 15.5504C115.61 15.7124 115.932 15.8423 116.388 15.9403L118.165 16.2983C119.119 16.4943 119.831 16.8097 120.3 17.2443C120.768 17.679 121.003 18.25 121.003 18.9574C121.003 19.6009 120.813 20.1655 120.434 20.6513C120.059 21.1371 119.543 21.5163 118.887 21.7891C118.235 22.0575 117.483 22.1918 116.631 22.1918C115.331 22.1918 114.295 21.9212 113.524 21.38C112.757 20.8345 112.308 20.093 112.175 19.1555L114.854 19.0149C114.935 19.4112 115.131 19.7138 115.442 19.9226C115.753 20.1271 116.151 20.2294 116.637 20.2294C117.114 20.2294 117.498 20.1378 117.788 19.9545C118.082 19.767 118.231 19.5263 118.235 19.2322C118.231 18.9851 118.126 18.7827 117.922 18.625C117.717 18.4631 117.402 18.3395 116.976 18.2543L115.276 17.9155C114.317 17.7237 113.603 17.3913 113.134 16.9183C112.67 16.4453 112.438 15.8423 112.438 15.1094C112.438 14.4787 112.608 13.9354 112.949 13.4794C113.294 13.0234 113.778 12.6719 114.4 12.4247C115.026 12.1776 115.759 12.054 116.599 12.054C117.839 12.054 118.815 12.3161 119.526 12.8402C120.242 13.3643 120.66 14.0781 120.779 14.9815ZM129.014 17.8196V12.1818H131.737V22H129.122V20.2166H129.02C128.798 20.7919 128.43 21.2543 127.914 21.6037C127.403 21.9531 126.779 22.1278 126.041 22.1278C125.385 22.1278 124.808 21.9787 124.309 21.6804C123.811 21.3821 123.421 20.9581 123.139 20.4084C122.862 19.8587 122.722 19.2003 122.718 18.4332V12.1818H125.441V17.9474C125.445 18.527 125.6 18.9851 125.907 19.3217C126.214 19.6584 126.625 19.8267 127.141 19.8267C127.469 19.8267 127.776 19.7521 128.061 19.603C128.347 19.4496 128.577 19.2237 128.752 18.9254C128.931 18.6271 129.018 18.2585 129.014 17.8196ZM133.966 22V8.90909H136.689V13.831H136.772C136.891 13.5668 137.064 13.2983 137.29 13.0256C137.52 12.7486 137.818 12.5185 138.185 12.3352C138.555 12.1477 139.016 12.054 139.565 12.054C140.281 12.054 140.942 12.2415 141.547 12.6165C142.152 12.9872 142.636 13.5476 142.998 14.2976C143.36 15.0433 143.541 15.9787 143.541 17.1037C143.541 18.1989 143.364 19.1236 143.011 19.8778C142.661 20.6278 142.184 21.1967 141.579 21.5845C140.978 21.968 140.305 22.1598 139.559 22.1598C139.031 22.1598 138.581 22.0724 138.21 21.8977C137.844 21.723 137.543 21.5036 137.309 21.2393C137.075 20.9709 136.896 20.7003 136.772 20.4276H136.651V22H133.966ZM136.631 17.0909C136.631 17.6747 136.712 18.1839 136.874 18.6186C137.036 19.0533 137.271 19.392 137.577 19.6349C137.884 19.8736 138.257 19.9929 138.696 19.9929C139.139 19.9929 139.514 19.8714 139.821 19.6286C140.128 19.3814 140.36 19.0405 140.518 18.6058C140.68 18.1669 140.761 17.6619 140.761 17.0909C140.761 16.5241 140.682 16.0256 140.524 15.5952C140.366 15.1648 140.134 14.8281 139.827 14.5852C139.521 14.3423 139.143 14.2209 138.696 14.2209C138.253 14.2209 137.878 14.3381 137.571 14.5724C137.268 14.8068 137.036 15.1392 136.874 15.5696C136.712 16 136.631 16.5071 136.631 17.0909ZM151.846 25.6818V20.4276H151.763C151.635 20.7003 151.454 20.9709 151.22 21.2393C150.99 21.5036 150.689 21.723 150.318 21.8977C149.952 22.0724 149.504 22.1598 148.976 22.1598C148.23 22.1598 147.555 21.968 146.95 21.5845C146.349 21.1967 145.872 20.6278 145.518 19.8778C145.169 19.1236 144.994 18.1989 144.994 17.1037C144.994 15.9787 145.175 15.0433 145.537 14.2976C145.899 13.5476 146.381 12.9872 146.982 12.6165C147.587 12.2415 148.249 12.054 148.97 12.054C149.519 12.054 149.977 12.1477 150.344 12.3352C150.715 12.5185 151.013 12.7486 151.239 13.0256C151.469 13.2983 151.644 13.5668 151.763 13.831H151.878V12.1818H154.563V25.6818H151.846ZM149.839 19.9929C150.278 19.9929 150.649 19.8736 150.951 19.6349C151.258 19.392 151.492 19.0533 151.654 18.6186C151.82 18.1839 151.904 17.6747 151.904 17.0909C151.904 16.5071 151.823 16 151.661 15.5696C151.499 15.1392 151.264 14.8068 150.958 14.5724C150.651 14.3381 150.278 14.2209 149.839 14.2209C149.392 14.2209 149.014 14.3423 148.708 14.5852C148.401 14.8281 148.169 15.1648 148.011 15.5952C147.853 16.0256 147.774 16.5241 147.774 17.0909C147.774 17.6619 147.853 18.1669 148.011 18.6058C148.173 19.0405 148.405 19.3814 148.708 19.6286C149.014 19.8714 149.392 19.9929 149.839 19.9929ZM163.045 17.8196V12.1818H165.768V22H163.154V20.2166H163.051C162.83 20.7919 162.461 21.2543 161.945 21.6037C161.434 21.9531 160.81 22.1278 160.073 22.1278C159.416 22.1278 158.839 21.9787 158.34 21.6804C157.842 21.3821 157.452 20.9581 157.171 20.4084C156.894 19.8587 156.753 19.2003 156.749 18.4332V12.1818H159.472V17.9474C159.476 18.527 159.632 18.9851 159.938 19.3217C160.245 19.6584 160.656 19.8267 161.172 19.8267C161.5 19.8267 161.807 19.7521 162.093 19.603C162.378 19.4496 162.608 19.2237 162.783 18.9254C162.962 18.6271 163.049 18.2585 163.045 17.8196ZM172.42 22.1918C171.411 22.1918 170.541 21.9872 169.812 21.5781C169.088 21.1648 168.53 20.581 168.138 19.8267C167.746 19.0682 167.55 18.1712 167.55 17.1357C167.55 16.1257 167.746 15.2393 168.138 14.4766C168.53 13.7138 169.082 13.1193 169.793 12.6932C170.509 12.267 171.349 12.054 172.312 12.054C172.96 12.054 173.563 12.1584 174.121 12.3672C174.683 12.5717 175.173 12.8807 175.591 13.294C176.013 13.7074 176.341 14.2273 176.575 14.8537C176.81 15.4759 176.927 16.2045 176.927 17.0398V17.7876H168.636V16.1001H174.364C174.364 15.7081 174.278 15.3608 174.108 15.0582C173.938 14.7557 173.701 14.5192 173.398 14.3487C173.1 14.174 172.753 14.0866 172.357 14.0866C171.943 14.0866 171.577 14.1825 171.257 14.3743C170.942 14.5618 170.695 14.8153 170.516 15.1349C170.337 15.4503 170.245 15.8018 170.241 16.1896V17.794C170.241 18.2798 170.33 18.6996 170.509 19.0533C170.692 19.407 170.95 19.6797 171.283 19.8714C171.615 20.0632 172.009 20.1591 172.465 20.1591C172.768 20.1591 173.045 20.1165 173.296 20.0312C173.548 19.946 173.763 19.8182 173.942 19.6477C174.121 19.4773 174.257 19.2685 174.351 19.0213L176.869 19.1875C176.741 19.7926 176.479 20.321 176.083 20.7727C175.691 21.2202 175.184 21.5696 174.562 21.821C173.944 22.0682 173.23 22.1918 172.42 22.1918ZM178.704 22V12.1818H181.344V13.8949H181.446C181.625 13.2855 181.925 12.8253 182.347 12.5142C182.769 12.1989 183.255 12.0412 183.805 12.0412C183.941 12.0412 184.088 12.0497 184.246 12.0668C184.403 12.0838 184.542 12.1072 184.661 12.1371V14.5533C184.533 14.5149 184.357 14.4808 184.131 14.451C183.905 14.4212 183.698 14.4062 183.511 14.4062C183.11 14.4062 182.752 14.4936 182.437 14.6683C182.126 14.8388 181.879 15.0774 181.695 15.3842C181.516 15.6911 181.427 16.0447 181.427 16.4453V22H178.704ZM188.049 25.6818C187.704 25.6818 187.38 25.6541 187.077 25.5987C186.779 25.5476 186.532 25.4815 186.336 25.4006L186.95 23.3679C187.269 23.4659 187.557 23.5192 187.812 23.5277C188.072 23.5362 188.296 23.4766 188.484 23.3487C188.675 23.2209 188.831 23.0036 188.95 22.6967L189.11 22.2812L185.588 12.1818H188.452L190.484 19.392H190.587L192.638 12.1818H195.521L191.705 23.0611C191.522 23.5895 191.273 24.0497 190.957 24.4418C190.646 24.8381 190.252 25.1428 189.775 25.3558C189.298 25.5732 188.722 25.6818 188.049 25.6818Z" fill="black"/>
<rect x="28.5" y="0.5" width="170" height="32" stroke="black"/>
<path d="M396.309 64.1818V66.2273H390.396V64.1818H396.309ZM391.739 61.8295H394.462V70.983C394.462 71.2344 394.5 71.4304 394.577 71.571C394.653 71.7074 394.76 71.8033 394.896 71.8587C395.037 71.9141 395.199 71.9418 395.382 71.9418C395.51 71.9418 395.638 71.9311 395.766 71.9098C395.893 71.8842 395.991 71.8651 396.06 71.8523L396.488 73.8786C396.352 73.9212 396.16 73.9702 395.913 74.0256C395.665 74.0852 395.365 74.1214 395.011 74.1342C394.355 74.1598 393.78 74.0724 393.286 73.8722C392.795 73.6719 392.414 73.3608 392.141 72.9389C391.869 72.517 391.734 71.9844 391.739 71.3409V61.8295ZM400.882 74.1854C400.256 74.1854 399.698 74.0767 399.208 73.8594C398.718 73.6378 398.33 73.3118 398.044 72.8814C397.763 72.4467 397.623 71.9055 397.623 71.2578C397.623 70.7124 397.723 70.2543 397.923 69.8835C398.123 69.5128 398.396 69.2145 398.741 68.9886C399.086 68.7628 399.478 68.5923 399.917 68.4773C400.36 68.3622 400.825 68.2812 401.311 68.2344C401.882 68.1747 402.342 68.1193 402.691 68.0682C403.041 68.0128 403.294 67.9318 403.452 67.8253C403.61 67.7187 403.689 67.5611 403.689 67.3523V67.3139C403.689 66.9091 403.561 66.5959 403.305 66.3743C403.054 66.1527 402.696 66.0419 402.231 66.0419C401.741 66.0419 401.351 66.1506 401.061 66.3679C400.772 66.581 400.58 66.8494 400.486 67.1733L397.968 66.9688C398.096 66.3722 398.347 65.8565 398.722 65.4219C399.097 64.983 399.581 64.6463 400.173 64.4119C400.77 64.1733 401.46 64.054 402.244 64.054C402.789 64.054 403.311 64.1179 403.81 64.2457C404.313 64.3736 404.758 64.5717 405.146 64.8402C405.538 65.1087 405.847 65.4538 406.073 65.8757C406.299 66.2933 406.412 66.794 406.412 67.3778V74H403.829V72.6385H403.752C403.595 72.9453 403.384 73.2159 403.12 73.4503C402.855 73.6804 402.538 73.8615 402.167 73.9936C401.797 74.1214 401.368 74.1854 400.882 74.1854ZM401.662 72.3061C402.063 72.3061 402.417 72.2273 402.723 72.0696C403.03 71.9077 403.271 71.6903 403.446 71.4176C403.62 71.1449 403.708 70.8359 403.708 70.4908V69.4489C403.623 69.5043 403.505 69.5554 403.356 69.6023C403.211 69.6449 403.047 69.6854 402.864 69.7237C402.681 69.7578 402.498 69.7898 402.314 69.8196C402.131 69.8452 401.965 69.8686 401.816 69.8899C401.496 69.9368 401.217 70.0114 400.978 70.1136C400.74 70.2159 400.554 70.3544 400.422 70.5291C400.29 70.6996 400.224 70.9126 400.224 71.1683C400.224 71.5391 400.358 71.8224 400.627 72.0185C400.9 72.2102 401.245 72.3061 401.662 72.3061ZM408.575 74V60.9091H411.298V65.831H411.381C411.501 65.5668 411.673 65.2983 411.899 65.0256C412.129 64.7486 412.428 64.5185 412.794 64.3352C413.165 64.1477 413.625 64.054 414.175 64.054C414.891 64.054 415.551 64.2415 416.156 64.6165C416.761 64.9872 417.245 65.5476 417.607 66.2976C417.969 67.0433 418.151 67.9787 418.151 69.1037C418.151 70.1989 417.974 71.1236 417.62 71.8778C417.271 72.6278 416.793 73.1967 416.188 73.5845C415.587 73.968 414.914 74.1598 414.168 74.1598C413.64 74.1598 413.19 74.0724 412.82 73.8977C412.453 73.723 412.153 73.5036 411.918 73.2393C411.684 72.9709 411.505 72.7003 411.381 72.4276H411.26V74H408.575ZM411.241 69.0909C411.241 69.6747 411.322 70.1839 411.484 70.6186C411.646 71.0533 411.88 71.392 412.187 71.6349C412.494 71.8736 412.866 71.9929 413.305 71.9929C413.749 71.9929 414.124 71.8714 414.43 71.6286C414.737 71.3814 414.969 71.0405 415.127 70.6058C415.289 70.1669 415.37 69.6619 415.37 69.0909C415.37 68.5241 415.291 68.0256 415.134 67.5952C414.976 67.1648 414.744 66.8281 414.437 66.5852C414.13 66.3423 413.753 66.2209 413.305 66.2209C412.862 66.2209 412.487 66.3381 412.18 66.5724C411.878 66.8068 411.646 67.1392 411.484 67.5696C411.322 68 411.241 68.5071 411.241 69.0909ZM422.691 60.9091V74H419.968V60.9091H422.691ZM429.346 74.1918C428.336 74.1918 427.467 73.9872 426.738 73.5781C426.014 73.1648 425.456 72.581 425.064 71.8267C424.672 71.0682 424.475 70.1712 424.475 69.1357C424.475 68.1257 424.672 67.2393 425.064 66.4766C425.456 65.7138 426.007 65.1193 426.719 64.6932C427.435 64.267 428.275 64.054 429.238 64.054C429.885 64.054 430.488 64.1584 431.047 64.3672C431.609 64.5717 432.099 64.8807 432.517 65.294C432.939 65.7074 433.267 66.2273 433.501 66.8537C433.735 67.4759 433.853 68.2045 433.853 69.0398V69.7876H425.562V68.1001H431.289C431.289 67.7081 431.204 67.3608 431.034 67.0582C430.863 66.7557 430.627 66.5192 430.324 66.3487C430.026 66.174 429.679 66.0866 429.282 66.0866C428.869 66.0866 428.502 66.1825 428.183 66.3743C427.868 66.5618 427.62 66.8153 427.441 67.1349C427.262 67.4503 427.171 67.8018 427.167 68.1896V69.794C427.167 70.2798 427.256 70.6996 427.435 71.0533C427.618 71.407 427.876 71.6797 428.208 71.8714C428.541 72.0632 428.935 72.1591 429.391 72.1591C429.694 72.1591 429.971 72.1165 430.222 72.0312C430.473 71.946 430.689 71.8182 430.868 71.6477C431.047 71.4773 431.183 71.2685 431.277 71.0213L433.795 71.1875C433.667 71.7926 433.405 72.321 433.009 72.7727C432.617 73.2202 432.11 73.5696 431.488 73.821C430.87 74.0682 430.156 74.1918 429.346 74.1918ZM441.747 67.544V69.7045H435.777V67.544H441.747ZM448.503 74.1918C447.51 74.1918 446.652 73.9808 445.927 73.5589C445.207 73.1328 444.651 72.5405 444.259 71.782C443.867 71.0192 443.671 70.1349 443.671 69.1293C443.671 68.1151 443.867 67.2287 444.259 66.4702C444.651 65.7074 445.207 65.1151 445.927 64.6932C446.652 64.267 447.51 64.054 448.503 64.054C449.496 64.054 450.353 64.267 451.073 64.6932C451.797 65.1151 452.355 65.7074 452.748 66.4702C453.14 67.2287 453.336 68.1151 453.336 69.1293C453.336 70.1349 453.14 71.0192 452.748 71.782C452.355 72.5405 451.797 73.1328 451.073 73.5589C450.353 73.9808 449.496 74.1918 448.503 74.1918ZM448.516 72.0824C448.968 72.0824 449.345 71.9545 449.647 71.6989C449.95 71.4389 450.178 71.0852 450.331 70.6378C450.489 70.1903 450.568 69.6811 450.568 69.1101C450.568 68.5391 450.489 68.0298 450.331 67.5824C450.178 67.1349 449.95 66.7812 449.647 66.5213C449.345 66.2614 448.968 66.1314 448.516 66.1314C448.06 66.1314 447.676 66.2614 447.365 66.5213C447.059 66.7812 446.826 67.1349 446.669 67.5824C446.515 68.0298 446.439 68.5391 446.439 69.1101C446.439 69.6811 446.515 70.1903 446.669 70.6378C446.826 71.0852 447.059 71.4389 447.365 71.6989C447.676 71.9545 448.06 72.0824 448.516 72.0824ZM455.106 74V64.1818H457.746V65.8949H457.848C458.027 65.2855 458.328 64.8253 458.75 64.5142C459.172 64.1989 459.657 64.0412 460.207 64.0412C460.343 64.0412 460.49 64.0497 460.648 64.0668C460.806 64.0838 460.944 64.1072 461.064 64.1371V66.5533C460.936 66.5149 460.759 66.4808 460.533 66.451C460.307 66.4212 460.1 66.4062 459.913 66.4062C459.512 66.4062 459.154 66.4936 458.839 66.6683C458.528 66.8388 458.281 67.0774 458.098 67.3842C457.919 67.6911 457.829 68.0447 457.829 68.4453V74H455.106ZM468.29 67.544V69.7045H462.32V67.544H468.29ZM478.779 66.9815L476.286 67.1349C476.244 66.9219 476.152 66.7301 476.011 66.5597C475.871 66.3849 475.685 66.2464 475.455 66.1442C475.229 66.0376 474.959 65.9844 474.643 65.9844C474.222 65.9844 473.866 66.0739 473.576 66.2528C473.286 66.4276 473.141 66.6619 473.141 66.956C473.141 67.1903 473.235 67.3885 473.423 67.5504C473.61 67.7124 473.932 67.8423 474.388 67.9403L476.165 68.2983C477.119 68.4943 477.831 68.8097 478.3 69.2443C478.768 69.679 479.003 70.25 479.003 70.9574C479.003 71.6009 478.813 72.1655 478.434 72.6513C478.059 73.1371 477.543 73.5163 476.887 73.7891C476.235 74.0575 475.483 74.1918 474.631 74.1918C473.331 74.1918 472.295 73.9212 471.524 73.38C470.757 72.8345 470.308 72.093 470.175 71.1555L472.854 71.0149C472.935 71.4112 473.131 71.7138 473.442 71.9226C473.753 72.1271 474.151 72.2294 474.637 72.2294C475.114 72.2294 475.498 72.1378 475.788 71.9545C476.082 71.767 476.231 71.5263 476.235 71.2322C476.231 70.9851 476.126 70.7827 475.922 70.625C475.717 70.4631 475.402 70.3395 474.976 70.2543L473.276 69.9155C472.317 69.7237 471.603 69.3913 471.134 68.9183C470.67 68.4453 470.438 67.8423 470.438 67.1094C470.438 66.4787 470.608 65.9354 470.949 65.4794C471.294 65.0234 471.778 64.6719 472.4 64.4247C473.026 64.1776 473.759 64.054 474.599 64.054C475.839 64.054 476.815 64.3161 477.526 64.8402C478.242 65.3643 478.66 66.0781 478.779 66.9815ZM487.014 69.8196V64.1818H489.737V74H487.122V72.2166H487.02C486.798 72.7919 486.43 73.2543 485.914 73.6037C485.403 73.9531 484.779 74.1278 484.041 74.1278C483.385 74.1278 482.808 73.9787 482.309 73.6804C481.811 73.3821 481.421 72.9581 481.139 72.4084C480.862 71.8587 480.722 71.2003 480.718 70.4332V64.1818H483.441V69.9474C483.445 70.527 483.6 70.9851 483.907 71.3217C484.214 71.6584 484.625 71.8267 485.141 71.8267C485.469 71.8267 485.776 71.7521 486.061 71.603C486.347 71.4496 486.577 71.2237 486.752 70.9254C486.931 70.6271 487.018 70.2585 487.014 69.8196ZM491.966 74V60.9091H494.689V65.831H494.772C494.891 65.5668 495.064 65.2983 495.29 65.0256C495.52 64.7486 495.818 64.5185 496.185 64.3352C496.555 64.1477 497.016 64.054 497.565 64.054C498.281 64.054 498.942 64.2415 499.547 64.6165C500.152 64.9872 500.636 65.5476 500.998 66.2976C501.36 67.0433 501.541 67.9787 501.541 69.1037C501.541 70.1989 501.364 71.1236 501.011 71.8778C500.661 72.6278 500.184 73.1967 499.579 73.5845C498.978 73.968 498.305 74.1598 497.559 74.1598C497.031 74.1598 496.581 74.0724 496.21 73.8977C495.844 73.723 495.543 73.5036 495.309 73.2393C495.075 72.9709 494.896 72.7003 494.772 72.4276H494.651V74H491.966ZM494.631 69.0909C494.631 69.6747 494.712 70.1839 494.874 70.6186C495.036 71.0533 495.271 71.392 495.577 71.6349C495.884 71.8736 496.257 71.9929 496.696 71.9929C497.139 71.9929 497.514 71.8714 497.821 71.6286C498.128 71.3814 498.36 71.0405 498.518 70.6058C498.68 70.1669 498.761 69.6619 498.761 69.0909C498.761 68.5241 498.682 68.0256 498.524 67.5952C498.366 67.1648 498.134 66.8281 497.827 66.5852C497.521 66.3423 497.143 66.2209 496.696 66.2209C496.253 66.2209 495.878 66.3381 495.571 66.5724C495.268 66.8068 495.036 67.1392 494.874 67.5696C494.712 68 494.631 68.5071 494.631 69.0909ZM509.846 77.6818V72.4276H509.763C509.635 72.7003 509.454 72.9709 509.22 73.2393C508.99 73.5036 508.689 73.723 508.318 73.8977C507.952 74.0724 507.504 74.1598 506.976 74.1598C506.23 74.1598 505.555 73.968 504.95 73.5845C504.349 73.1967 503.872 72.6278 503.518 71.8778C503.169 71.1236 502.994 70.1989 502.994 69.1037C502.994 67.9787 503.175 67.0433 503.537 66.2976C503.899 65.5476 504.381 64.9872 504.982 64.6165C505.587 64.2415 506.249 64.054 506.97 64.054C507.519 64.054 507.977 64.1477 508.344 64.3352C508.715 64.5185 509.013 64.7486 509.239 65.0256C509.469 65.2983 509.644 65.5668 509.763 65.831H509.878V64.1818H512.563V77.6818H509.846ZM507.839 71.9929C508.278 71.9929 508.649 71.8736 508.951 71.6349C509.258 71.392 509.492 71.0533 509.654 70.6186C509.82 70.1839 509.904 69.6747 509.904 69.0909C509.904 68.5071 509.823 68 509.661 67.5696C509.499 67.1392 509.264 66.8068 508.958 66.5724C508.651 66.3381 508.278 66.2209 507.839 66.2209C507.392 66.2209 507.014 66.3423 506.708 66.5852C506.401 66.8281 506.169 67.1648 506.011 67.5952C505.853 68.0256 505.774 68.5241 505.774 69.0909C505.774 69.6619 505.853 70.1669 506.011 70.6058C506.173 71.0405 506.405 71.3814 506.708 71.6286C507.014 71.8714 507.392 71.9929 507.839 71.9929ZM521.045 69.8196V64.1818H523.768V74H521.154V72.2166H521.051C520.83 72.7919 520.461 73.2543 519.945 73.6037C519.434 73.9531 518.81 74.1278 518.073 74.1278C517.416 74.1278 516.839 73.9787 516.34 73.6804C515.842 73.3821 515.452 72.9581 515.171 72.4084C514.894 71.8587 514.753 71.2003 514.749 70.4332V64.1818H517.472V69.9474C517.476 70.527 517.632 70.9851 517.938 71.3217C518.245 71.6584 518.656 71.8267 519.172 71.8267C519.5 71.8267 519.807 71.7521 520.093 71.603C520.378 71.4496 520.608 71.2237 520.783 70.9254C520.962 70.6271 521.049 70.2585 521.045 69.8196ZM530.42 74.1918C529.411 74.1918 528.541 73.9872 527.812 73.5781C527.088 73.1648 526.53 72.581 526.138 71.8267C525.746 71.0682 525.55 70.1712 525.55 69.1357C525.55 68.1257 525.746 67.2393 526.138 66.4766C526.53 65.7138 527.082 65.1193 527.793 64.6932C528.509 64.267 529.349 64.054 530.312 64.054C530.96 64.054 531.563 64.1584 532.121 64.3672C532.683 64.5717 533.173 64.8807 533.591 65.294C534.013 65.7074 534.341 66.2273 534.575 66.8537C534.81 67.4759 534.927 68.2045 534.927 69.0398V69.7876H526.636V68.1001H532.364C532.364 67.7081 532.278 67.3608 532.108 67.0582C531.938 66.7557 531.701 66.5192 531.398 66.3487C531.1 66.174 530.753 66.0866 530.357 66.0866C529.943 66.0866 529.577 66.1825 529.257 66.3743C528.942 66.5618 528.695 66.8153 528.516 67.1349C528.337 67.4503 528.245 67.8018 528.241 68.1896V69.794C528.241 70.2798 528.33 70.6996 528.509 71.0533C528.692 71.407 528.95 71.6797 529.283 71.8714C529.615 72.0632 530.009 72.1591 530.465 72.1591C530.768 72.1591 531.045 72.1165 531.296 72.0312C531.548 71.946 531.763 71.8182 531.942 71.6477C532.121 71.4773 532.257 71.2685 532.351 71.0213L534.869 71.1875C534.741 71.7926 534.479 72.321 534.083 72.7727C533.691 73.2202 533.184 73.5696 532.562 73.821C531.944 74.0682 531.23 74.1918 530.42 74.1918ZM536.704 74V64.1818H539.344V65.8949H539.446C539.625 65.2855 539.925 64.8253 540.347 64.5142C540.769 64.1989 541.255 64.0412 541.805 64.0412C541.941 64.0412 542.088 64.0497 542.246 64.0668C542.403 64.0838 542.542 64.1072 542.661 64.1371V66.5533C542.533 66.5149 542.357 66.4808 542.131 66.451C541.905 66.4212 541.698 66.4062 541.511 66.4062C541.11 66.4062 540.752 66.4936 540.437 66.6683C540.126 66.8388 539.879 67.0774 539.695 67.3842C539.516 67.6911 539.427 68.0447 539.427 68.4453V74H536.704ZM546.049 77.6818C545.704 77.6818 545.38 77.6541 545.077 77.5987C544.779 77.5476 544.532 77.4815 544.336 77.4006L544.95 75.3679C545.269 75.4659 545.557 75.5192 545.812 75.5277C546.072 75.5362 546.296 75.4766 546.484 75.3487C546.675 75.2209 546.831 75.0036 546.95 74.6967L547.11 74.2812L543.588 64.1818H546.452L548.484 71.392H548.587L550.638 64.1818H553.521L549.705 75.0611C549.522 75.5895 549.273 76.0497 548.957 76.4418C548.646 76.8381 548.252 77.1428 547.775 77.3558C547.298 77.5732 546.722 77.6818 546.049 77.6818Z" fill="black"/>
<rect x="386.5" y="52.5" width="170" height="32" stroke="black"/>
<path d="M243.087 64.1818H245.81V74.4858C245.81 75.2443 245.661 75.858 245.362 76.3267C245.064 76.7955 244.636 77.1385 244.077 77.3558C243.523 77.5732 242.861 77.6818 242.089 77.6818C241.996 77.6818 241.906 77.6797 241.821 77.6754C241.732 77.6754 241.638 77.6733 241.54 77.669V75.5405C241.612 75.5447 241.676 75.5469 241.732 75.5469C241.783 75.5511 241.838 75.5533 241.898 75.5533C242.337 75.5533 242.643 75.4595 242.818 75.272C242.997 75.0888 243.087 74.8118 243.087 74.4411V64.1818ZM244.442 62.9162C244.041 62.9162 243.696 62.782 243.406 62.5135C243.116 62.2408 242.972 61.9148 242.972 61.5355C242.972 61.1605 243.116 60.8388 243.406 60.5703C243.696 60.2976 244.041 60.1612 244.442 60.1612C244.851 60.1612 245.198 60.2976 245.484 60.5703C245.773 60.8388 245.918 61.1605 245.918 61.5355C245.918 61.9148 245.773 62.2408 245.484 62.5135C245.198 62.782 244.851 62.9162 244.442 62.9162ZM252.427 74.1918C251.434 74.1918 250.575 73.9808 249.851 73.5589C249.131 73.1328 248.575 72.5405 248.183 71.782C247.791 71.0192 247.595 70.1349 247.595 69.1293C247.595 68.1151 247.791 67.2287 248.183 66.4702C248.575 65.7074 249.131 65.1151 249.851 64.6932C250.575 64.267 251.434 64.054 252.427 64.054C253.42 64.054 254.276 64.267 254.997 64.6932C255.721 65.1151 256.279 65.7074 256.671 66.4702C257.063 67.2287 257.259 68.1151 257.259 69.1293C257.259 70.1349 257.063 71.0192 256.671 71.782C256.279 72.5405 255.721 73.1328 254.997 73.5589C254.276 73.9808 253.42 74.1918 252.427 74.1918ZM252.44 72.0824C252.892 72.0824 253.269 71.9545 253.571 71.6989C253.874 71.4389 254.102 71.0852 254.255 70.6378C254.413 70.1903 254.492 69.6811 254.492 69.1101C254.492 68.5391 254.413 68.0298 254.255 67.5824C254.102 67.1349 253.874 66.7812 253.571 66.5213C253.269 66.2614 252.892 66.1314 252.44 66.1314C251.984 66.1314 251.6 66.2614 251.289 66.5213C250.982 66.7812 250.75 67.1349 250.593 67.5824C250.439 68.0298 250.362 68.5391 250.362 69.1101C250.362 69.6811 250.439 70.1903 250.593 70.6378C250.75 71.0852 250.982 71.4389 251.289 71.6989C251.6 71.9545 251.984 72.0824 252.44 72.0824ZM259.03 74V64.1818H261.753V74H259.03ZM260.398 62.9162C259.993 62.9162 259.646 62.782 259.356 62.5135C259.07 62.2408 258.928 61.9148 258.928 61.5355C258.928 61.1605 259.07 60.8388 259.356 60.5703C259.646 60.2976 259.993 60.1612 260.398 60.1612C260.803 60.1612 261.148 60.2976 261.433 60.5703C261.723 60.8388 261.868 61.1605 261.868 61.5355C261.868 61.9148 261.723 62.2408 261.433 62.5135C261.148 62.782 260.803 62.9162 260.398 62.9162ZM266.657 68.3239V74H263.934V64.1818H266.529V65.9141H266.645C266.862 65.343 267.226 64.8913 267.738 64.5589C268.249 64.2223 268.869 64.054 269.598 64.054C270.279 64.054 270.874 64.2031 271.381 64.5014C271.888 64.7997 272.282 65.2259 272.564 65.7798C272.845 66.3295 272.985 66.9858 272.985 67.7486V74H270.262V68.2344C270.267 67.6335 270.113 67.1648 269.802 66.8281C269.491 66.4872 269.063 66.3168 268.517 66.3168C268.151 66.3168 267.827 66.3956 267.546 66.5533C267.269 66.7109 267.051 66.9411 266.894 67.2436C266.74 67.5419 266.662 67.902 266.657 68.3239ZM281.249 67.544V69.7045H275.279V67.544H281.249ZM288.005 74.1918C287.012 74.1918 286.154 73.9808 285.429 73.5589C284.709 73.1328 284.153 72.5405 283.761 71.782C283.369 71.0192 283.173 70.1349 283.173 69.1293C283.173 68.1151 283.369 67.2287 283.761 66.4702C284.153 65.7074 284.709 65.1151 285.429 64.6932C286.154 64.267 287.012 64.054 288.005 64.054C288.998 64.054 289.855 64.267 290.575 64.6932C291.299 65.1151 291.857 65.7074 292.249 66.4702C292.642 67.2287 292.838 68.1151 292.838 69.1293C292.838 70.1349 292.642 71.0192 292.249 71.782C291.857 72.5405 291.299 73.1328 290.575 73.5589C289.855 73.9808 288.998 74.1918 288.005 74.1918ZM288.018 72.0824C288.47 72.0824 288.847 71.9545 289.149 71.6989C289.452 71.4389 289.68 71.0852 289.833 70.6378C289.991 70.1903 290.07 69.6811 290.07 69.1101C290.07 68.5391 289.991 68.0298 289.833 67.5824C289.68 67.1349 289.452 66.7812 289.149 66.5213C288.847 66.2614 288.47 66.1314 288.018 66.1314C287.562 66.1314 287.178 66.2614 286.867 66.5213C286.561 66.7812 286.328 67.1349 286.171 67.5824C286.017 68.0298 285.941 68.5391 285.941 69.1101C285.941 69.6811 286.017 70.1903 286.171 70.6378C286.328 71.0852 286.561 71.4389 286.867 71.6989C287.178 71.9545 287.562 72.0824 288.018 72.0824ZM294.608 77.6818V64.1818H297.293V65.831H297.414C297.534 65.5668 297.706 65.2983 297.932 65.0256C298.162 64.7486 298.46 64.5185 298.827 64.3352C299.198 64.1477 299.658 64.054 300.208 64.054C300.923 64.054 301.584 64.2415 302.189 64.6165C302.794 64.9872 303.278 65.5476 303.64 66.2976C304.002 67.0433 304.183 67.9787 304.183 69.1037C304.183 70.1989 304.007 71.1236 303.653 71.8778C303.303 72.6278 302.826 73.1967 302.221 73.5845C301.62 73.968 300.947 74.1598 300.201 74.1598C299.673 74.1598 299.223 74.0724 298.852 73.8977C298.486 73.723 298.186 73.5036 297.951 73.2393C297.717 72.9709 297.538 72.7003 297.414 72.4276H297.331V77.6818H294.608ZM297.274 69.0909C297.274 69.6747 297.355 70.1839 297.517 70.6186C297.678 71.0533 297.913 71.392 298.22 71.6349C298.526 71.8736 298.899 71.9929 299.338 71.9929C299.781 71.9929 300.156 71.8714 300.463 71.6286C300.77 71.3814 301.002 71.0405 301.16 70.6058C301.322 70.1669 301.403 69.6619 301.403 69.0909C301.403 68.5241 301.324 68.0256 301.166 67.5952C301.009 67.1648 300.776 66.8281 300.47 66.5852C300.163 66.3423 299.786 66.2209 299.338 66.2209C298.895 66.2209 298.52 66.3381 298.213 66.5724C297.911 66.8068 297.678 67.1392 297.517 67.5696C297.355 68 297.274 68.5071 297.274 69.0909ZM310.473 74.1918C309.463 74.1918 308.594 73.9872 307.865 73.5781C307.141 73.1648 306.583 72.581 306.191 71.8267C305.798 71.0682 305.602 70.1712 305.602 69.1357C305.602 68.1257 305.798 67.2393 306.191 66.4766C306.583 65.7138 307.134 65.1193 307.846 64.6932C308.562 64.267 309.401 64.054 310.365 64.054C311.012 64.054 311.615 64.1584 312.173 64.3672C312.736 64.5717 313.226 64.8807 313.644 65.294C314.066 65.7074 314.394 66.2273 314.628 66.8537C314.862 67.4759 314.98 68.2045 314.98 69.0398V69.7876H306.689V68.1001H312.416C312.416 67.7081 312.331 67.3608 312.161 67.0582C311.99 66.7557 311.754 66.5192 311.451 66.3487C311.153 66.174 310.806 66.0866 310.409 66.0866C309.996 66.0866 309.629 66.1825 309.31 66.3743C308.994 66.5618 308.747 66.8153 308.568 67.1349C308.389 67.4503 308.298 67.8018 308.294 68.1896V69.794C308.294 70.2798 308.383 70.6996 308.562 71.0533C308.745 71.407 309.003 71.6797 309.335 71.8714C309.668 72.0632 310.062 72.1591 310.518 72.1591C310.82 72.1591 311.097 72.1165 311.349 72.0312C311.6 71.946 311.816 71.8182 311.994 71.6477C312.173 71.4773 312.31 71.2685 312.404 71.0213L314.922 71.1875C314.794 71.7926 314.532 72.321 314.136 72.7727C313.744 73.2202 313.237 73.5696 312.615 73.821C311.997 74.0682 311.283 74.1918 310.473 74.1918ZM316.757 74V64.1818H319.396V65.8949H319.499C319.678 65.2855 319.978 64.8253 320.4 64.5142C320.822 64.1989 321.308 64.0412 321.857 64.0412C321.994 64.0412 322.141 64.0497 322.298 64.0668C322.456 64.0838 322.595 64.1072 322.714 64.1371V66.5533C322.586 66.5149 322.409 66.4808 322.183 66.451C321.958 66.4212 321.751 66.4062 321.563 66.4062C321.163 66.4062 320.805 66.4936 320.49 66.6683C320.178 66.8388 319.931 67.0774 319.748 67.3842C319.569 67.6911 319.48 68.0447 319.48 68.4453V74H316.757ZM326.64 74.1854C326.014 74.1854 325.456 74.0767 324.966 73.8594C324.475 73.6378 324.088 73.3118 323.802 72.8814C323.521 72.4467 323.38 71.9055 323.38 71.2578C323.38 70.7124 323.48 70.2543 323.681 69.8835C323.881 69.5128 324.154 69.2145 324.499 68.9886C324.844 68.7628 325.236 68.5923 325.675 68.4773C326.118 68.3622 326.583 68.2812 327.069 68.2344C327.64 68.1747 328.1 68.1193 328.449 68.0682C328.799 68.0128 329.052 67.9318 329.21 67.8253C329.368 67.7187 329.446 67.5611 329.446 67.3523V67.3139C329.446 66.9091 329.319 66.5959 329.063 66.3743C328.811 66.1527 328.453 66.0419 327.989 66.0419C327.499 66.0419 327.109 66.1506 326.819 66.3679C326.529 66.581 326.338 66.8494 326.244 67.1733L323.725 66.9688C323.853 66.3722 324.105 65.8565 324.48 65.4219C324.855 64.983 325.338 64.6463 325.931 64.4119C326.527 64.1733 327.218 64.054 328.002 64.054C328.547 64.054 329.069 64.1179 329.568 64.2457C330.071 64.3736 330.516 64.5717 330.904 64.8402C331.296 65.1087 331.605 65.4538 331.831 65.8757C332.056 66.2933 332.169 66.794 332.169 67.3778V74H329.587V72.6385H329.51C329.353 72.9453 329.142 73.2159 328.877 73.4503C328.613 73.6804 328.296 73.8615 327.925 73.9936C327.554 74.1214 327.126 74.1854 326.64 74.1854ZM327.42 72.3061C327.821 72.3061 328.174 72.2273 328.481 72.0696C328.788 71.9077 329.029 71.6903 329.203 71.4176C329.378 71.1449 329.466 70.8359 329.466 70.4908V69.4489C329.38 69.5043 329.263 69.5554 329.114 69.6023C328.969 69.6449 328.805 69.6854 328.622 69.7237C328.439 69.7578 328.255 69.7898 328.072 69.8196C327.889 69.8452 327.723 69.8686 327.574 69.8899C327.254 69.9368 326.975 70.0114 326.736 70.1136C326.498 70.2159 326.312 70.3544 326.18 70.5291C326.048 70.6996 325.982 70.9126 325.982 71.1683C325.982 71.5391 326.116 71.8224 326.385 72.0185C326.657 72.2102 327.002 72.3061 327.42 72.3061ZM339.504 64.1818V66.2273H333.592V64.1818H339.504ZM334.934 61.8295H337.657V70.983C337.657 71.2344 337.695 71.4304 337.772 71.571C337.849 71.7074 337.955 71.8033 338.092 71.8587C338.232 71.9141 338.394 71.9418 338.577 71.9418C338.705 71.9418 338.833 71.9311 338.961 71.9098C339.089 71.8842 339.187 71.8651 339.255 71.8523L339.683 73.8786C339.547 73.9212 339.355 73.9702 339.108 74.0256C338.861 74.0852 338.56 74.1214 338.207 74.1342C337.55 74.1598 336.975 74.0724 336.481 73.8722C335.991 73.6719 335.609 73.3608 335.337 72.9389C335.064 72.517 334.93 71.9844 334.934 71.3409V61.8295ZM345.609 74.1918C344.616 74.1918 343.757 73.9808 343.033 73.5589C342.313 73.1328 341.756 72.5405 341.364 71.782C340.972 71.0192 340.776 70.1349 340.776 69.1293C340.776 68.1151 340.972 67.2287 341.364 66.4702C341.756 65.7074 342.313 65.1151 343.033 64.6932C343.757 64.267 344.616 64.054 345.609 64.054C346.602 64.054 347.458 64.267 348.178 64.6932C348.903 65.1151 349.461 65.7074 349.853 66.4702C350.245 67.2287 350.441 68.1151 350.441 69.1293C350.441 70.1349 350.245 71.0192 349.853 71.782C349.461 72.5405 348.903 73.1328 348.178 73.5589C347.458 73.9808 346.602 74.1918 345.609 74.1918ZM345.621 72.0824C346.073 72.0824 346.45 71.9545 346.753 71.6989C347.055 71.4389 347.283 71.0852 347.437 70.6378C347.594 70.1903 347.673 69.6811 347.673 69.1101C347.673 68.5391 347.594 68.0298 347.437 67.5824C347.283 67.1349 347.055 66.7812 346.753 66.5213C346.45 66.2614 346.073 66.1314 345.621 66.1314C345.165 66.1314 344.782 66.2614 344.471 66.5213C344.164 66.7812 343.932 67.1349 343.774 67.5824C343.621 68.0298 343.544 68.5391 343.544 69.1101C343.544 69.6811 343.621 70.1903 343.774 70.6378C343.932 71.0852 344.164 71.4389 344.471 71.6989C344.782 71.9545 345.165 72.0824 345.621 72.0824ZM352.212 74V64.1818H354.852V65.8949H354.954C355.133 65.2855 355.433 64.8253 355.855 64.5142C356.277 64.1989 356.763 64.0412 357.312 64.0412C357.449 64.0412 357.596 64.0497 357.754 64.0668C357.911 64.0838 358.05 64.1072 358.169 64.1371V66.5533C358.041 66.5149 357.864 66.4808 357.638 66.451C357.413 66.4212 357.206 66.4062 357.018 66.4062C356.618 66.4062 356.26 66.4936 355.945 66.6683C355.634 66.8388 355.386 67.0774 355.203 67.3842C355.024 67.6911 354.935 68.0447 354.935 68.4453V74H352.212Z" fill="black"/>
<rect x="238.5" y="52.5" width="123" height="32" stroke="black"/>
<path d="M587.087 64.1818H589.81V74.4858C589.81 75.2443 589.661 75.858 589.362 76.3267C589.064 76.7955 588.636 77.1385 588.077 77.3558C587.523 77.5732 586.861 77.6818 586.089 77.6818C585.996 77.6818 585.906 77.6797 585.821 77.6754C585.732 77.6754 585.638 77.6733 585.54 77.669V75.5405C585.612 75.5447 585.676 75.5469 585.732 75.5469C585.783 75.5511 585.838 75.5533 585.898 75.5533C586.337 75.5533 586.643 75.4595 586.818 75.272C586.997 75.0888 587.087 74.8118 587.087 74.4411V64.1818ZM588.442 62.9162C588.041 62.9162 587.696 62.782 587.406 62.5135C587.116 62.2408 586.972 61.9148 586.972 61.5355C586.972 61.1605 587.116 60.8388 587.406 60.5703C587.696 60.2976 588.041 60.1612 588.442 60.1612C588.851 60.1612 589.198 60.2976 589.484 60.5703C589.773 60.8388 589.918 61.1605 589.918 61.5355C589.918 61.9148 589.773 62.2408 589.484 62.5135C589.198 62.782 588.851 62.9162 588.442 62.9162ZM596.427 74.1918C595.434 74.1918 594.575 73.9808 593.851 73.5589C593.131 73.1328 592.575 72.5405 592.183 71.782C591.791 71.0192 591.595 70.1349 591.595 69.1293C591.595 68.1151 591.791 67.2287 592.183 66.4702C592.575 65.7074 593.131 65.1151 593.851 64.6932C594.575 64.267 595.434 64.054 596.427 64.054C597.42 64.054 598.276 64.267 598.997 64.6932C599.721 65.1151 600.279 65.7074 600.671 66.4702C601.063 67.2287 601.259 68.1151 601.259 69.1293C601.259 70.1349 601.063 71.0192 600.671 71.782C600.279 72.5405 599.721 73.1328 598.997 73.5589C598.276 73.9808 597.42 74.1918 596.427 74.1918ZM596.44 72.0824C596.892 72.0824 597.269 71.9545 597.571 71.6989C597.874 71.4389 598.102 71.0852 598.255 70.6378C598.413 70.1903 598.492 69.6811 598.492 69.1101C598.492 68.5391 598.413 68.0298 598.255 67.5824C598.102 67.1349 597.874 66.7812 597.571 66.5213C597.269 66.2614 596.892 66.1314 596.44 66.1314C595.984 66.1314 595.6 66.2614 595.289 66.5213C594.982 66.7812 594.75 67.1349 594.593 67.5824C594.439 68.0298 594.362 68.5391 594.362 69.1101C594.362 69.6811 594.439 70.1903 594.593 70.6378C594.75 71.0852 594.982 71.4389 595.289 71.6989C595.6 71.9545 595.984 72.0824 596.44 72.0824ZM603.03 74V64.1818H605.753V74H603.03ZM604.398 62.9162C603.993 62.9162 603.646 62.782 603.356 62.5135C603.07 62.2408 602.928 61.9148 602.928 61.5355C602.928 61.1605 603.07 60.8388 603.356 60.5703C603.646 60.2976 603.993 60.1612 604.398 60.1612C604.803 60.1612 605.148 60.2976 605.433 60.5703C605.723 60.8388 605.868 61.1605 605.868 61.5355C605.868 61.9148 605.723 62.2408 605.433 62.5135C605.148 62.782 604.803 62.9162 604.398 62.9162ZM610.657 68.3239V74H607.934V64.1818H610.529V65.9141H610.645C610.862 65.343 611.226 64.8913 611.738 64.5589C612.249 64.2223 612.869 64.054 613.598 64.054C614.279 64.054 614.874 64.2031 615.381 64.5014C615.888 64.7997 616.282 65.2259 616.564 65.7798C616.845 66.3295 616.985 66.9858 616.985 67.7486V74H614.262V68.2344C614.267 67.6335 614.113 67.1648 613.802 66.8281C613.491 66.4872 613.063 66.3168 612.517 66.3168C612.151 66.3168 611.827 66.3956 611.546 66.5533C611.269 66.7109 611.051 66.9411 610.894 67.2436C610.74 67.5419 610.662 67.902 610.657 68.3239ZM625.249 67.544V69.7045H619.279V67.544H625.249ZM632.005 74.1918C630.999 74.1918 630.134 73.9787 629.41 73.5526C628.69 73.1222 628.136 72.5256 627.748 71.7628C627.365 71 627.173 70.1222 627.173 69.1293C627.173 68.1236 627.367 67.2415 627.754 66.483C628.146 65.7202 628.703 65.1257 629.423 64.6996C630.143 64.2692 630.999 64.054 631.992 64.054C632.849 64.054 633.599 64.2095 634.242 64.5206C634.886 64.8317 635.395 65.2685 635.77 65.831C636.145 66.3935 636.352 67.054 636.39 67.8125H633.82C633.748 67.3224 633.556 66.9283 633.245 66.63C632.938 66.3274 632.536 66.1761 632.037 66.1761C631.615 66.1761 631.247 66.2912 630.931 66.5213C630.62 66.7472 630.377 67.0774 630.203 67.5121C630.028 67.9467 629.941 68.473 629.941 69.0909C629.941 69.7173 630.026 70.25 630.196 70.6889C630.371 71.1278 630.616 71.4624 630.931 71.6925C631.247 71.9226 631.615 72.0376 632.037 72.0376C632.348 72.0376 632.627 71.9737 632.874 71.8459C633.126 71.718 633.333 71.5327 633.494 71.2898C633.661 71.0426 633.769 70.7464 633.82 70.4013H636.39C636.347 71.1513 636.143 71.8118 635.776 72.3828C635.414 72.9496 634.914 73.3928 634.274 73.7124C633.635 74.032 632.879 74.1918 632.005 74.1918ZM642.57 74.1918C641.577 74.1918 640.718 73.9808 639.994 73.5589C639.273 73.1328 638.717 72.5405 638.325 71.782C637.933 71.0192 637.737 70.1349 637.737 69.1293C637.737 68.1151 637.933 67.2287 638.325 66.4702C638.717 65.7074 639.273 65.1151 639.994 64.6932C640.718 64.267 641.577 64.054 642.57 64.054C643.562 64.054 644.419 64.267 645.139 64.6932C645.864 65.1151 646.422 65.7074 646.814 66.4702C647.206 67.2287 647.402 68.1151 647.402 69.1293C647.402 70.1349 647.206 71.0192 646.814 71.782C646.422 72.5405 645.864 73.1328 645.139 73.5589C644.419 73.9808 643.562 74.1918 642.57 74.1918ZM642.582 72.0824C643.034 72.0824 643.411 71.9545 643.714 71.6989C644.016 71.4389 644.244 71.0852 644.398 70.6378C644.555 70.1903 644.634 69.6811 644.634 69.1101C644.634 68.5391 644.555 68.0298 644.398 67.5824C644.244 67.1349 644.016 66.7812 643.714 66.5213C643.411 66.2614 643.034 66.1314 642.582 66.1314C642.126 66.1314 641.743 66.2614 641.432 66.5213C641.125 66.7812 640.893 67.1349 640.735 67.5824C640.582 68.0298 640.505 68.5391 640.505 69.1101C640.505 69.6811 640.582 70.1903 640.735 70.6378C640.893 71.0852 641.125 71.4389 641.432 71.6989C641.743 71.9545 642.126 72.0824 642.582 72.0824ZM651.896 68.3239V74H649.173V64.1818H651.768V65.9141H651.883C652.1 65.343 652.464 64.8913 652.976 64.5589C653.487 64.2223 654.107 64.054 654.836 64.054C655.518 64.054 656.112 64.2031 656.619 64.5014C657.126 64.7997 657.521 65.2259 657.802 65.7798C658.083 66.3295 658.224 66.9858 658.224 67.7486V74H655.501V68.2344C655.505 67.6335 655.352 67.1648 655.04 66.8281C654.729 66.4872 654.301 66.3168 653.756 66.3168C653.389 66.3168 653.065 66.3956 652.784 66.5533C652.507 66.7109 652.29 66.9411 652.132 67.2436C651.979 67.5419 651.9 67.902 651.896 68.3239ZM668.539 66.9815L666.046 67.1349C666.003 66.9219 665.912 66.7301 665.771 66.5597C665.631 66.3849 665.445 66.2464 665.215 66.1442C664.989 66.0376 664.719 65.9844 664.403 65.9844C663.981 65.9844 663.626 66.0739 663.336 66.2528C663.046 66.4276 662.901 66.6619 662.901 66.956C662.901 67.1903 662.995 67.3885 663.182 67.5504C663.37 67.7124 663.692 67.8423 664.148 67.9403L665.925 68.2983C666.879 68.4943 667.591 68.8097 668.059 69.2443C668.528 69.679 668.763 70.25 668.763 70.9574C668.763 71.6009 668.573 72.1655 668.194 72.6513C667.819 73.1371 667.303 73.5163 666.647 73.7891C665.995 74.0575 665.243 74.1918 664.39 74.1918C663.091 74.1918 662.055 73.9212 661.284 73.38C660.517 72.8345 660.067 72.093 659.935 71.1555L662.613 71.0149C662.694 71.4112 662.89 71.7138 663.202 71.9226C663.513 72.1271 663.911 72.2294 664.397 72.2294C664.874 72.2294 665.258 72.1378 665.547 71.9545C665.841 71.767 665.991 71.5263 665.995 71.2322C665.991 70.9851 665.886 70.7827 665.682 70.625C665.477 70.4631 665.162 70.3395 664.736 70.2543L663.035 69.9155C662.077 69.7237 661.363 69.3913 660.894 68.9183C660.43 68.4453 660.197 67.8423 660.197 67.1094C660.197 66.4787 660.368 65.9354 660.709 65.4794C661.054 65.0234 661.537 64.6719 662.16 64.4247C662.786 64.1776 663.519 64.054 664.358 64.054C665.599 64.054 666.574 64.3161 667.286 64.8402C668.002 65.3643 668.42 66.0781 668.539 66.9815ZM675.7 64.1818V66.2273H669.787V64.1818H675.7ZM671.129 61.8295H673.852V70.983C673.852 71.2344 673.891 71.4304 673.967 71.571C674.044 71.7074 674.151 71.8033 674.287 71.8587C674.428 71.9141 674.589 71.9418 674.773 71.9418C674.901 71.9418 675.028 71.9311 675.156 71.9098C675.284 71.8842 675.382 71.8651 675.45 71.8523L675.879 73.8786C675.742 73.9212 675.55 73.9702 675.303 74.0256C675.056 74.0852 674.756 74.1214 674.402 74.1342C673.746 74.1598 673.17 74.0724 672.676 73.8722C672.186 73.6719 671.805 73.3608 671.532 72.9389C671.259 72.517 671.125 71.9844 671.129 71.3409V61.8295ZM677.473 74V64.1818H680.113V65.8949H680.216C680.395 65.2855 680.695 64.8253 681.117 64.5142C681.539 64.1989 682.025 64.0412 682.574 64.0412C682.711 64.0412 682.858 64.0497 683.015 64.0668C683.173 64.0838 683.311 64.1072 683.431 64.1371V66.5533C683.303 66.5149 683.126 66.4808 682.9 66.451C682.674 66.4212 682.468 66.4062 682.28 66.4062C681.88 66.4062 681.522 66.4936 681.206 66.6683C680.895 66.8388 680.648 67.0774 680.465 67.3842C680.286 67.6911 680.196 68.0447 680.196 68.4453V74H677.473ZM687.357 74.1854C686.731 74.1854 686.172 74.0767 685.682 73.8594C685.192 73.6378 684.805 73.3118 684.519 72.8814C684.238 72.4467 684.097 71.9055 684.097 71.2578C684.097 70.7124 684.197 70.2543 684.398 69.8835C684.598 69.5128 684.871 69.2145 685.216 68.9886C685.561 68.7628 685.953 68.5923 686.392 68.4773C686.835 68.3622 687.3 68.2812 687.785 68.2344C688.356 68.1747 688.817 68.1193 689.166 68.0682C689.515 68.0128 689.769 67.9318 689.927 67.8253C690.084 67.7187 690.163 67.5611 690.163 67.3523V67.3139C690.163 66.9091 690.035 66.5959 689.78 66.3743C689.528 66.1527 689.17 66.0419 688.706 66.0419C688.216 66.0419 687.826 66.1506 687.536 66.3679C687.246 66.581 687.055 66.8494 686.961 67.1733L684.442 66.9688C684.57 66.3722 684.822 65.8565 685.197 65.4219C685.572 64.983 686.055 64.6463 686.648 64.4119C687.244 64.1733 687.934 64.054 688.719 64.054C689.264 64.054 689.786 64.1179 690.285 64.2457C690.787 64.3736 691.233 64.5717 691.621 64.8402C692.013 65.1087 692.322 65.4538 692.547 65.8757C692.773 66.2933 692.886 66.794 692.886 67.3778V74H690.304V72.6385H690.227C690.069 72.9453 689.858 73.2159 689.594 73.4503C689.33 73.6804 689.013 73.8615 688.642 73.9936C688.271 74.1214 687.843 74.1854 687.357 74.1854ZM688.137 72.3061C688.537 72.3061 688.891 72.2273 689.198 72.0696C689.505 71.9077 689.746 71.6903 689.92 71.4176C690.095 71.1449 690.182 70.8359 690.182 70.4908V69.4489C690.097 69.5043 689.98 69.5554 689.831 69.6023C689.686 69.6449 689.522 69.6854 689.339 69.7237C689.155 69.7578 688.972 69.7898 688.789 69.8196C688.606 69.8452 688.439 69.8686 688.29 69.8899C687.971 69.9368 687.692 70.0114 687.453 70.1136C687.214 70.2159 687.029 70.3544 686.897 70.5291C686.765 70.6996 686.699 70.9126 686.699 71.1683C686.699 71.5391 686.833 71.8224 687.101 72.0185C687.374 72.2102 687.719 72.3061 688.137 72.3061ZM694.999 74V64.1818H697.722V74H694.999ZM696.367 62.9162C695.962 62.9162 695.615 62.782 695.325 62.5135C695.039 62.2408 694.896 61.9148 694.896 61.5355C694.896 61.1605 695.039 60.8388 695.325 60.5703C695.615 60.2976 695.962 60.1612 696.367 60.1612C696.771 60.1612 697.117 60.2976 697.402 60.5703C697.692 60.8388 697.837 61.1605 697.837 61.5355C697.837 61.9148 697.692 62.2408 697.402 62.5135C697.117 62.782 696.771 62.9162 696.367 62.9162ZM702.626 68.3239V74H699.903V64.1818H702.498V65.9141H702.613C702.831 65.343 703.195 64.8913 703.706 64.5589C704.218 64.2223 704.838 64.054 705.566 64.054C706.248 64.054 706.843 64.2031 707.35 64.5014C707.857 64.7997 708.251 65.2259 708.532 65.7798C708.814 66.3295 708.954 66.9858 708.954 67.7486V74H706.231V68.2344C706.235 67.6335 706.082 67.1648 705.771 66.8281C705.46 66.4872 705.032 66.3168 704.486 66.3168C704.12 66.3168 703.796 66.3956 703.515 66.5533C703.238 66.7109 703.02 66.9411 702.863 67.2436C702.709 67.5419 702.63 67.902 702.626 68.3239ZM716.323 64.1818V66.2273H710.41V64.1818H716.323ZM711.752 61.8295H714.475V70.983C714.475 71.2344 714.514 71.4304 714.59 71.571C714.667 71.7074 714.774 71.8033 714.91 71.8587C715.051 71.9141 715.213 71.9418 715.396 71.9418C715.524 71.9418 715.651 71.9311 715.779 71.9098C715.907 71.8842 716.005 71.8651 716.073 71.8523L716.502 73.8786C716.365 73.9212 716.173 73.9702 715.926 74.0256C715.679 74.0852 715.379 74.1214 715.025 74.1342C714.369 74.1598 713.794 74.0724 713.299 73.8722C712.809 73.6719 712.428 73.3608 712.155 72.9389C711.882 72.517 711.748 71.9844 711.752 71.3409V61.8295Z" fill="black"/>
<rect x="582.5" y="52.5" width="138" height="32" stroke="black"/>
<path d="M28 16L18 10.2265V21.7735L28 16ZM8 17L19 17V15L8 15V17Z" fill="black"/>
<path d="M780 16L770 10.2265V21.7735L780 16ZM199 17L771 17V15L199 15V17Z" fill="black"/>
<path d="M443 16L433 10.2265V21.7735L443 16ZM199 17L434 17V15L199 15V17Z" fill="black"/>
<path d="M443 16L433 10.2265V21.7735L443 16ZM199 17L434 17V15L199 15V17Z" fill="black"/>
<path d="M215 103L215 104L215 103ZM215 69L215 68L215 69ZM237.5 69L227.5 63.2265L227.5 74.7735L237.5 69ZM495 102L215 102L215 104L495 104V102ZM206 93L206 79L204 79L204 93L206 93ZM215 70L228.5 70L228.5 68L215 68L215 70ZM206 79C206 74.0294 210.029 70 215 70L215 68C208.925 68 204 72.9249 204 79L206 79ZM215 102C210.029 102 206 97.9706 206 93L204 93C204 99.0751 208.925 104 215 104L215 102Z" fill="black"/>
<path d="M780 16L770 10.2265V21.7735L780 16ZM721 70H745.5V68H721V70ZM756.5 59V26H754.5V59H756.5ZM765.5 17H771V15L765.5 15V17ZM756.5 26C756.5 21.0294 760.529 17 765.5 17V15C759.425 15 754.5 19.9249 754.5 26H756.5ZM745.5 70C751.575 70 756.5 65.0751 756.5 59H754.5C754.5 63.9706 750.471 68 745.5 68V70Z" fill="black"/>
<path d="M479.5 103.25L489.5 109.024V97.4765L479.5 103.25ZM729.5 78.5V93.25H731.5V78.5H729.5ZM720.5 102.25L488.5 102.25V104.25L720.5 104.25V102.25ZM729.5 93.25C729.5 98.2206 725.471 102.25 720.5 102.25V104.25C726.575 104.25 731.5 99.3251 731.5 93.25H729.5ZM721 70C725.694 70 729.5 73.8056 729.5 78.5H731.5C731.5 72.701 726.799 68 721 68V70Z" fill="black"/>
<path d="M237.5 69L227.5 63.2265V74.7735L237.5 69ZM204.5 22.5V59H206.5V22.5H204.5ZM215.5 70H228.5V68H215.5V70ZM204.5 59C204.5 65.0751 209.425 70 215.5 70V68C210.529 68 206.5 63.9706 206.5 59H204.5ZM199 17C202.038 17 204.5 19.4624 204.5 22.5H206.5C206.5 18.3579 203.142 15 199 15V17Z" fill="black"/>
<path d="M386 68L376 62.2265V73.7735L386 68ZM362 69H377V67H362V69Z" fill="black"/>
<path d="M582 68L572 62.2265V73.7735L582 68ZM557 69H573V67H557V69Z" fill="black"/>
</svg>
