<svg width="648" height="214" viewBox="0 0 648 214" fill="none" xmlns="http://www.w3.org/2000/svg">
<circle cx="4" cy="18" r="3.5" stroke="black"/>
<circle cx="644" cy="18" r="3.5" stroke="black"/>
<path d="M530.999 18L520.999 12.2265V23.7735L530.999 18ZM484.5 69H496.401V67H484.5V69ZM507.401 58V28H505.401V58H507.401ZM516.401 19H521.999V17H516.401V19ZM507.401 28C507.401 23.0294 511.431 19 516.401 19V17C510.326 17 505.401 21.9249 505.401 28H507.401ZM496.401 69C502.476 69 507.401 64.0751 507.401 58H505.401C505.401 62.9706 501.372 67 496.401 67V69Z" fill="black"/>
<path d="M390 69L380 63.2265V74.7735L390 69ZM352 70H381V68H352V70Z" fill="black"/>
<path d="M445.5 18L435.5 12.2265V23.7735L445.5 18ZM332 70H364V68H332V70ZM375 59V28H373V59H375ZM384 19H436.5V17H384V19ZM375 28C375 23.0294 379.029 19 384 19V17C377.925 17 373 21.9249 373 28H375ZM364 70C370.075 70 375 65.0751 375 59H373C373 63.9706 368.971 68 364 68V70Z" fill="black"/>
<path d="M196.5 18L186.5 12.2265V23.7735L196.5 18ZM154.5 50.5H160.5V48.5H154.5V50.5ZM171.5 39.5V28H169.5V39.5H171.5ZM180.5 19H187.5V17H180.5V19ZM171.5 28C171.5 23.0294 175.529 19 180.5 19V17C174.425 17 169.5 21.9249 169.5 28H171.5ZM160.5 50.5C166.575 50.5 171.5 45.5751 171.5 39.5H169.5C169.5 44.4706 165.471 48.5 160.5 48.5V50.5Z" fill="black"/>
<path d="M320 69L362 69" stroke="black" stroke-width="2"/>
<path d="M364 69L354 63.2265V74.7735L364 69ZM320 156H333.2V154H320V156ZM344.2 145V79H342.2V145H344.2ZM353.2 70H355V68H353.2V70ZM344.2 79C344.2 74.0294 348.229 70 353.2 70V68C347.125 68 342.2 72.9249 342.2 79H344.2ZM333.2 156C339.275 156 344.2 151.075 344.2 145H342.2C342.2 149.971 338.171 154 333.2 154V156Z" fill="black"/>
<path d="M364 69L354 63.2265V74.7735L364 69ZM330.5 112H333V110H330.5V112ZM344 101V79H342V101H344ZM353 70H355V68H353V70ZM344 79C344 74.0294 348.029 70 353 70V68C346.925 68 342 72.9249 342 79H344ZM333 112C339.075 112 344 107.075 344 101H342C342 105.971 337.971 110 333 110V112Z" fill="black"/>
<path d="M485 198L475 192.226V203.774L485 198ZM331 199H476V197H331V199Z" fill="black"/>
<path d="M531 18L521 12.2265V23.7735L531 18ZM331 199H496.5V197H331V199ZM507.5 188V28H505.5V188H507.5ZM516.5 19H522V17H516.5V19ZM507.5 28C507.5 23.0294 511.529 19 516.5 19V17C510.425 17 505.5 21.9249 505.5 28H507.5ZM496.5 199C502.575 199 507.5 194.075 507.5 188H505.5C505.5 192.971 501.471 197 496.5 197V199Z" fill="black"/>
<path d="M247 200L237 194.226V205.774L247 200ZM182 19H196.69V17H182V19ZM205.69 28V190H207.69V28H205.69ZM216.69 201H238V199H216.69V201ZM205.69 190C205.69 196.075 210.615 201 216.69 201V199C211.719 199 207.69 194.971 207.69 190H205.69ZM196.69 19C201.66 19 205.69 23.0294 205.69 28H207.69C207.69 21.9249 202.765 17 196.69 17V19Z" fill="black"/>
<path d="M246 70L236 64.2265V75.7735L246 70ZM182 19H196.495V17H182V19ZM205.495 28V60H207.495V28H205.495ZM216.495 71H237V69H216.495V71ZM205.495 60C205.495 66.0751 210.42 71 216.495 71V69C211.525 69 207.495 64.9706 207.495 60H205.495ZM196.495 19C201.466 19 205.495 23.0294 205.495 28H207.495C207.495 21.9249 202.57 17 196.495 17V19Z" fill="black"/>
<path d="M47 49L37 43.2265V54.7735L47 49ZM8 19H9.83929V17H8V19ZM18.8393 28V39H20.8393V28H18.8393ZM29.8393 50H38V48H29.8393V50ZM18.8393 39C18.8393 45.0751 23.7642 50 29.8393 50V48C24.8687 48 20.8393 43.9706 20.8393 39H18.8393ZM9.83929 19C14.8098 19 18.8393 23.0294 18.8393 28H20.8393C20.8393 21.9249 15.9144 17 9.83929 17V19Z" fill="black"/>
<path d="M531 18L521 12.2265L521 23.7735L531 18ZM8 19L45.1173 19L45.1173 17L8 17L8 19ZM45.1173 19L522 19L522 17L45.1173 17L45.1173 19Z" fill="black"/>
<path d="M640 18L630 12.2265V23.7735L640 18ZM605 19H607.484V17H605V19ZM607.484 19H631V17H607.484V19Z" fill="black"/>
<path d="M246 113L236 107.226V118.774L246 113ZM182 19H196.304V17H182V19ZM205.304 28V103H207.304V28H205.304ZM216.304 114H237V112H216.304V114ZM205.304 103C205.304 109.075 210.229 114 216.304 114V112C211.333 112 207.304 107.971 207.304 103H205.304ZM196.304 19C201.275 19 205.304 23.0294 205.304 28H207.304C207.304 21.9249 202.379 17 196.304 17V19Z" fill="black"/>
<path d="M246 155L236 149.226V160.774L246 155ZM182 19H196.304V17H182V19ZM205.304 28V145H207.304V28H205.304ZM216.304 156H237V154H216.304V156ZM205.304 145C205.304 151.075 210.229 156 216.304 156V154C211.333 154 207.304 149.971 207.304 145H205.304ZM196.304 19C201.275 19 205.304 23.0294 205.304 28H207.304C207.304 21.9249 202.379 17 196.304 17V19Z" fill="black"/>
<path d="M263.138 75V61.9091H265.906V72.718H271.518V75H263.138ZM273.351 75V61.9091H282.172V64.1911H276.118V67.3104H281.718V69.5923H276.118V72.718H282.197V75H273.351ZM284.372 75V61.9091H293.04V64.1911H287.14V67.3104H292.464V69.5923H287.14V75H284.372ZM294.403 64.1911V61.9091H305.154V64.1911H301.146V75H298.411V64.1911H294.403Z" fill="black"/>
<rect x="247.5" y="52.5" width="72" height="32" rx="16" stroke="black"/>
<path d="M553.379 9.90909H556.115V19.0369C556.115 19.8807 555.925 20.6136 555.546 21.2358C555.171 21.858 554.649 22.3374 553.98 22.674C553.311 23.0107 552.533 23.179 551.647 23.179C550.859 23.179 550.143 23.0405 549.499 22.7635C548.86 22.4822 548.353 22.0561 547.978 21.4851C547.603 20.9098 547.418 20.1875 547.422 19.3182H550.177C550.185 19.6634 550.256 19.9595 550.388 20.2067C550.524 20.4496 550.71 20.6371 550.944 20.7692C551.183 20.897 551.464 20.9609 551.788 20.9609C552.129 20.9609 552.416 20.8885 552.651 20.7436C552.889 20.5945 553.07 20.3771 553.194 20.0916C553.317 19.8061 553.379 19.4545 553.379 19.0369V9.90909ZM570.433 16.4545C570.433 17.8821 570.163 19.0966 569.621 20.098C569.085 21.0994 568.352 21.8643 567.423 22.3928C566.498 22.9169 565.458 23.179 564.303 23.179C563.14 23.179 562.096 22.9148 561.171 22.3864C560.246 21.858 559.516 21.093 558.979 20.0916C558.442 19.0902 558.173 17.8778 558.173 16.4545C558.173 15.027 558.442 13.8125 558.979 12.8111C559.516 11.8097 560.246 11.0469 561.171 10.5227C562.096 9.99432 563.14 9.73011 564.303 9.73011C565.458 9.73011 566.498 9.99432 567.423 10.5227C568.352 11.0469 569.085 11.8097 569.621 12.8111C570.163 13.8125 570.433 15.027 570.433 16.4545ZM567.627 16.4545C567.627 15.5298 567.489 14.75 567.212 14.1151C566.939 13.4801 566.553 12.9986 566.055 12.6705C565.556 12.3423 564.972 12.1783 564.303 12.1783C563.634 12.1783 563.05 12.3423 562.552 12.6705C562.053 12.9986 561.665 13.4801 561.388 14.1151C561.116 14.75 560.979 15.5298 560.979 16.4545C560.979 17.3793 561.116 18.1591 561.388 18.794C561.665 19.429 562.053 19.9105 562.552 20.2386C563.05 20.5668 563.634 20.7308 564.303 20.7308C564.972 20.7308 565.556 20.5668 566.055 20.2386C566.553 19.9105 566.939 19.429 567.212 18.794C567.489 18.1591 567.627 17.3793 567.627 16.4545ZM575.251 9.90909V23H572.483V9.90909H575.251ZM588.478 9.90909V23H586.087L580.392 14.7607H580.296V23H577.528V9.90909H579.957L585.608 18.142H585.723V9.90909H588.478Z" fill="black"/>
<rect x="532.5" y="0.5" width="72" height="32" rx="16" stroke="black"/>
<path d="M263.138 161V147.909H271.805V150.191H265.906V153.31H271.23V155.592H265.906V161H263.138ZM281.753 147.909H284.521V156.411C284.521 157.365 284.293 158.2 283.837 158.916C283.385 159.632 282.752 160.19 281.938 160.591C281.124 160.987 280.176 161.185 279.094 161.185C278.007 161.185 277.057 160.987 276.243 160.591C275.429 160.19 274.796 159.632 274.345 158.916C273.893 158.2 273.667 157.365 273.667 156.411V147.909H276.435V156.174C276.435 156.673 276.544 157.116 276.761 157.504C276.982 157.891 277.294 158.196 277.694 158.418C278.095 158.639 278.561 158.75 279.094 158.75C279.631 158.75 280.097 158.639 280.494 158.418C280.894 158.196 281.203 157.891 281.421 157.504C281.642 157.116 281.753 156.673 281.753 156.174V147.909ZM286.798 161V147.909H289.566V158.718H295.178V161H286.798ZM297.011 161V147.909H299.779V158.718H305.391V161H297.011Z" fill="black"/>
<rect x="247.5" y="138.5" width="72" height="32" rx="16" stroke="black"/>
<path d="M263.138 118V104.909H268.303C269.291 104.909 270.135 105.086 270.834 105.44C271.537 105.789 272.072 106.286 272.438 106.929C272.809 107.568 272.994 108.32 272.994 109.185C272.994 110.055 272.807 110.803 272.432 111.429C272.057 112.051 271.513 112.528 270.802 112.861C270.094 113.193 269.238 113.359 268.232 113.359H264.774V111.135H267.785C268.313 111.135 268.752 111.062 269.102 110.918C269.451 110.773 269.711 110.555 269.881 110.266C270.056 109.976 270.143 109.616 270.143 109.185C270.143 108.751 270.056 108.384 269.881 108.086C269.711 107.788 269.449 107.562 269.095 107.408C268.746 107.251 268.305 107.172 267.772 107.172H265.906V118H263.138ZM270.207 112.043L273.461 118H270.406L267.222 112.043H270.207ZM277.718 104.909V118H274.95V104.909H277.718ZM288.676 109.141C288.586 108.83 288.46 108.555 288.298 108.316C288.137 108.073 287.938 107.869 287.704 107.702C287.474 107.532 287.21 107.402 286.911 107.312C286.617 107.223 286.291 107.178 285.933 107.178C285.264 107.178 284.676 107.344 284.169 107.677C283.666 108.009 283.274 108.493 282.993 109.128C282.712 109.759 282.571 110.53 282.571 111.442C282.571 112.354 282.71 113.129 282.987 113.768C283.264 114.408 283.656 114.896 284.163 115.232C284.67 115.565 285.269 115.731 285.959 115.731C286.585 115.731 287.12 115.62 287.563 115.398C288.011 115.173 288.352 114.855 288.586 114.446C288.825 114.037 288.944 113.553 288.944 112.995L289.507 113.078H286.132V110.994H291.61V112.643C291.61 113.794 291.367 114.783 290.881 115.609C290.395 116.432 289.726 117.067 288.874 117.514C288.021 117.957 287.046 118.179 285.946 118.179C284.719 118.179 283.641 117.908 282.712 117.367C281.783 116.822 281.058 116.048 280.539 115.047C280.023 114.041 279.765 112.848 279.765 111.467C279.765 110.406 279.919 109.46 280.225 108.629C280.536 107.794 280.971 107.087 281.529 106.507C282.088 105.928 282.737 105.487 283.479 105.184C284.22 104.881 285.024 104.73 285.889 104.73C286.63 104.73 287.32 104.839 287.96 105.056C288.599 105.269 289.166 105.572 289.66 105.964C290.159 106.356 290.566 106.822 290.881 107.364C291.196 107.901 291.399 108.493 291.488 109.141H288.676ZM293.689 118V104.909H296.456V110.31H302.075V104.909H304.836V118H302.075V112.592H296.456V118H293.689ZM306.62 107.191V104.909H317.371V107.191H313.363V118H310.627V107.191H306.62Z" fill="black"/>
<rect x="247.5" y="95.5" width="83" height="32" rx="16" stroke="black"/>
<path d="M418.168 68.4545C418.168 69.8821 417.897 71.0966 417.356 72.098C416.819 73.0994 416.086 73.8643 415.157 74.3928C414.232 74.9169 413.192 75.179 412.038 75.179C410.874 75.179 409.83 74.9148 408.906 74.3864C407.981 73.858 407.25 73.093 406.713 72.0916C406.176 71.0902 405.908 69.8778 405.908 68.4545C405.908 67.027 406.176 65.8125 406.713 64.8111C407.25 63.8097 407.981 63.0469 408.906 62.5227C409.83 61.9943 410.874 61.7301 412.038 61.7301C413.192 61.7301 414.232 61.9943 415.157 62.5227C416.086 63.0469 416.819 63.8097 417.356 64.8111C417.897 65.8125 418.168 67.027 418.168 68.4545ZM415.362 68.4545C415.362 67.5298 415.223 66.75 414.946 66.1151C414.673 65.4801 414.288 64.9986 413.789 64.6705C413.29 64.3423 412.707 64.1783 412.038 64.1783C411.369 64.1783 410.785 64.3423 410.286 64.6705C409.788 64.9986 409.4 65.4801 409.123 66.1151C408.85 66.75 408.714 67.5298 408.714 68.4545C408.714 69.3793 408.85 70.1591 409.123 70.794C409.4 71.429 409.788 71.9105 410.286 72.2386C410.785 72.5668 411.369 72.7308 412.038 72.7308C412.707 72.7308 413.29 72.5668 413.789 72.2386C414.288 71.9105 414.673 71.429 414.946 70.794C415.223 70.1591 415.362 69.3793 415.362 68.4545ZM428.304 61.9091H431.072V70.4105C431.072 71.3651 430.844 72.2003 430.388 72.9162C429.936 73.6321 429.303 74.1903 428.489 74.5909C427.675 74.9872 426.727 75.1854 425.645 75.1854C424.558 75.1854 423.608 74.9872 422.794 74.5909C421.98 74.1903 421.347 73.6321 420.895 72.9162C420.444 72.2003 420.218 71.3651 420.218 70.4105V61.9091H422.986V70.174C422.986 70.6726 423.094 71.1158 423.312 71.5036C423.533 71.8913 423.844 72.196 424.245 72.4176C424.645 72.6392 425.112 72.75 425.645 72.75C426.182 72.75 426.648 72.6392 427.045 72.4176C427.445 72.196 427.754 71.8913 427.971 71.5036C428.193 71.1158 428.304 70.6726 428.304 70.174V61.9091ZM432.85 64.1911V61.9091H443.602V64.1911H439.594V75H436.858V64.1911H432.85ZM445.372 75V61.9091H454.193V64.1911H448.14V67.3104H453.739V69.5923H448.14V72.718H454.219V75H445.372ZM456.394 75V61.9091H461.558C462.547 61.9091 463.391 62.0859 464.09 62.4396C464.793 62.7891 465.328 63.2855 465.694 63.929C466.065 64.5682 466.25 65.3203 466.25 66.1854C466.25 67.0547 466.063 67.8026 465.688 68.429C465.313 69.0511 464.769 69.5284 464.058 69.8608C463.35 70.1932 462.494 70.3594 461.488 70.3594H458.03V68.1349H461.041C461.569 68.1349 462.008 68.0625 462.357 67.9176C462.707 67.7727 462.967 67.5554 463.137 67.2656C463.312 66.9759 463.399 66.6158 463.399 66.1854C463.399 65.7507 463.312 65.3842 463.137 65.0859C462.967 64.7876 462.705 64.5618 462.351 64.4084C462.002 64.2507 461.561 64.1719 461.028 64.1719H459.161V75H456.394ZM463.463 69.0426L466.717 75H463.661L460.478 69.0426H463.463Z" fill="black"/>
<rect x="390.5" y="52.5" width="94" height="32" rx="16" stroke="black"/>
<path d="M70.0874 41.9091V55H67.6967L62.0014 46.7607H61.9055V55H59.1378V41.9091H61.5668L67.2173 50.142H67.3324V41.9091H70.0874ZM74.6305 55H71.6646L76.1838 41.9091H79.7505L84.2633 55H81.2974L78.0183 44.9006H77.916L74.6305 55ZM74.4451 49.8544H81.4508V52.0149H74.4451V49.8544ZM83.7408 44.1911V41.9091H94.4922V44.1911H90.4844V55H87.7486V44.1911H83.7408ZM104.349 41.9091H107.116V50.4105C107.116 51.3651 106.888 52.2003 106.433 52.9162C105.981 53.6321 105.348 54.1903 104.534 54.5909C103.72 54.9872 102.772 55.1854 101.69 55.1854C100.603 55.1854 99.6527 54.9872 98.8388 54.5909C98.0249 54.1903 97.392 53.6321 96.9403 52.9162C96.4886 52.2003 96.2628 51.3651 96.2628 50.4105V41.9091H99.0305V50.174C99.0305 50.6726 99.1392 51.1158 99.3565 51.5036C99.5781 51.8913 99.8892 52.196 100.29 52.4176C100.69 52.6392 101.157 52.75 101.69 52.75C102.227 52.75 102.693 52.6392 103.089 52.4176C103.49 52.196 103.799 51.8913 104.016 51.5036C104.238 51.1158 104.349 50.6726 104.349 50.174V41.9091ZM109.394 55V41.9091H114.558C115.547 41.9091 116.391 42.0859 117.09 42.4396C117.793 42.7891 118.328 43.2855 118.694 43.929C119.065 44.5682 119.25 45.3203 119.25 46.1854C119.25 47.0547 119.063 47.8026 118.688 48.429C118.313 49.0511 117.769 49.5284 117.058 49.8608C116.35 50.1932 115.494 50.3594 114.488 50.3594H111.03V48.1349H114.041C114.569 48.1349 115.008 48.0625 115.357 47.9176C115.707 47.7727 115.967 47.5554 116.137 47.2656C116.312 46.9759 116.399 46.6158 116.399 46.1854C116.399 45.7507 116.312 45.3842 116.137 45.0859C115.967 44.7876 115.705 44.5618 115.351 44.4084C115.002 44.2507 114.561 44.1719 114.028 44.1719H112.161V55H109.394ZM116.463 49.0426L119.717 55H116.661L113.478 49.0426H116.463ZM123.463 55H120.497L125.016 41.9091H128.583L133.095 55H130.129L126.85 44.9006H126.748L123.463 55ZM123.277 49.8544H130.283V52.0149H123.277V49.8544ZM134.671 55V41.9091H137.439V52.718H143.051V55H134.671Z" fill="black"/>
<rect x="47.5" y="32.5" width="107" height="32" rx="16" stroke="black"/>
<path d="M265.906 190.909V204H263.138V190.909H265.906ZM279.132 190.909V204H276.742L271.046 195.761H270.95V204H268.183V190.909H270.612L276.262 199.142H276.377V190.909H279.132ZM292.369 190.909V204H289.978L284.283 195.761H284.187V204H281.419V190.909H283.848L289.499 199.142H289.614V190.909H292.369ZM294.655 204V190.909H303.476V193.191H297.423V196.31H303.023V198.592H297.423V201.718H303.502V204H294.655ZM305.677 204V190.909H310.842C311.83 190.909 312.674 191.086 313.373 191.44C314.076 191.789 314.611 192.286 314.977 192.929C315.348 193.568 315.533 194.32 315.533 195.185C315.533 196.055 315.346 196.803 314.971 197.429C314.596 198.051 314.053 198.528 313.341 198.861C312.634 199.193 311.777 199.359 310.771 199.359H307.313V197.135H310.324C310.852 197.135 311.291 197.062 311.641 196.918C311.99 196.773 312.25 196.555 312.42 196.266C312.595 195.976 312.683 195.616 312.683 195.185C312.683 194.751 312.595 194.384 312.42 194.086C312.25 193.788 311.988 193.562 311.634 193.408C311.285 193.251 310.844 193.172 310.311 193.172H308.445V204H305.677ZM312.746 198.043L316 204H312.945L309.761 198.043H312.746Z" fill="black"/>
<rect x="247.5" y="181.5" width="83" height="32" rx="16" stroke="black"/>
</svg>
