<svg width="503" height="257" viewBox="0 0 503 257" fill="none" xmlns="http://www.w3.org/2000/svg">
<circle cx="204.5" cy="16.5" r="16" stroke="black"/>
<path d="M206.046 20.2102L205.976 20.9134C205.92 21.4759 205.814 22.0362 205.656 22.5945C205.503 23.157 205.341 23.6662 205.17 24.1222C205.004 24.5781 204.87 24.9361 204.768 25.196H203.004C203.067 24.9446 203.155 24.593 203.266 24.1413C203.376 23.6939 203.481 23.1911 203.579 22.6328C203.677 22.0746 203.739 21.5057 203.764 20.9261L203.796 20.2102H206.046Z" fill="black"/>
<circle cx="4" cy="16" r="3.5" stroke="black"/>
<circle cx="499" cy="16" r="3.5" stroke="black"/>
<path d="M188 16L178 10.2265V21.7735L188 16ZM8 17H179V15H8V17Z" fill="black"/>
<path d="M495 16L485 10.2265V21.7735L495 16ZM221 17H486V15H221V17Z" fill="black"/>
<path d="M495 16L485 10.2265V21.7735L495 16ZM431 62H447.5V60H431V62ZM458.5 51V26H456.5V51H458.5ZM467.5 17H486V15H467.5V17ZM458.5 26C458.5 21.0294 462.529 17 467.5 17V15C461.425 15 456.5 19.9249 456.5 26H458.5ZM447.5 62C453.575 62 458.5 57.0751 458.5 51H456.5C456.5 55.9706 452.471 60 447.5 60V62Z" fill="black"/>
<path d="M356.999 61L346.999 55.2265V66.7735L356.999 61ZM310.5 112H322.401V110H310.5V112ZM333.401 101V71H331.401V101H333.401ZM342.401 62H347.999V60H342.401V62ZM333.401 71C333.401 66.0294 337.431 62 342.401 62V60C336.326 60 331.401 64.9249 331.401 71H333.401ZM322.401 112C328.476 112 333.401 107.075 333.401 101H331.401C331.401 105.971 327.372 110 322.401 110V112Z" fill="black"/>
<path d="M216 112L206 106.226V117.774L216 112ZM178 113H207V111H178V113Z" fill="black"/>
<path d="M271.5 61L261.5 55.2265V66.7735L271.5 61ZM158 113H190V111H158V113ZM201 102V71H199V102H201ZM210 62H262.5V60H210V62ZM201 71C201 66.0294 205.029 62 210 62V60C203.925 60 199 64.9249 199 71H201ZM190 113C196.075 113 201 108.075 201 102H199C199 106.971 194.971 111 190 111V113Z" fill="black"/>
<path d="M146 112L188 112" stroke="black" stroke-width="2"/>
<path d="M190 112L180 106.226V117.774L190 112ZM146 199H159.2V197H146V199ZM170.2 188V122H168.2V188H170.2ZM179.2 113H181V111H179.2V113ZM170.2 122C170.2 117.029 174.229 113 179.2 113V111C173.125 111 168.2 115.925 168.2 122H170.2ZM159.2 199C165.275 199 170.2 194.075 170.2 188H168.2C168.2 192.971 164.171 197 159.2 197V199Z" fill="black"/>
<path d="M190 112L180 106.226V117.774L190 112ZM156.5 155H159V153H156.5V155ZM170 144V122H168V144H170ZM179 113H181V111H179V113ZM170 122C170 117.029 174.029 113 179 113V111C172.925 111 168 115.925 168 122H170ZM159 155C165.075 155 170 150.075 170 144H168C168 148.971 163.971 153 159 153V155Z" fill="black"/>
<path d="M311 241L301 235.226V246.774L311 241ZM157 242H302V240H157V242Z" fill="black"/>
<path d="M357 61L347 55.2265V66.7735L357 61ZM157 242H322.5V240H157V242ZM333.5 231V71H331.5V231H333.5ZM342.5 62H348V60H342.5V62ZM333.5 71C333.5 66.0294 337.529 62 342.5 62V60C336.425 60 331.5 64.9249 331.5 71H333.5ZM322.5 242C328.575 242 333.5 237.075 333.5 231H331.5C331.5 235.971 327.471 240 322.5 240V242Z" fill="black"/>
<path d="M72.5 243L62.5 237.227V248.773L72.5 243ZM8 17H22.5V15H8V17ZM31.5 26V233H33.5V26H31.5ZM42.5 244H63.5V242H42.5V244ZM31.5 233C31.5 239.075 36.4249 244 42.5 244V242C37.5294 242 33.5 237.971 33.5 233H31.5ZM22.5 17C27.4706 17 31.5 21.0294 31.5 26H33.5C33.5 19.9249 28.5751 15 22.5 15V17Z" fill="black"/>
<path d="M71.5 113L61.5 107.226V118.774L71.5 113ZM8 17H22.304V15H8V17ZM31.304 26V103H33.304V26H31.304ZM42.304 114H62.5V112H42.304V114ZM31.304 103C31.304 109.075 36.2289 114 42.304 114V112C37.3334 112 33.304 107.971 33.304 103H31.304ZM22.304 17C27.2746 17 31.304 21.0294 31.304 26H33.304C33.304 19.9249 28.3791 15 22.304 15V17Z" fill="black"/>
<path d="M357 61L347 55.2265V66.7735L357 61ZM8 17H22.304V15H8V17ZM31.304 26V51H33.304V26H31.304ZM42.304 62H348V60H42.304V62ZM31.304 51C31.304 57.0751 36.2289 62 42.304 62V60C37.3334 60 33.304 55.9706 33.304 51H31.304ZM22.304 17C27.2746 17 31.304 21.0294 31.304 26H33.304C33.304 19.9249 28.3791 15 22.304 15V17Z" fill="black"/>
<path d="M72 156L62 150.227V161.773L72 156ZM8 17H22.304V15H8V17ZM31.304 26V146H33.304V26H31.304ZM42.304 157H63V155H42.304V157ZM31.304 146C31.304 152.075 36.2289 157 42.304 157V155C37.3334 155 33.304 150.971 33.304 146H31.304ZM22.304 17C27.2746 17 31.304 21.0294 31.304 26H33.304C33.304 19.9249 28.3791 15 22.304 15V17Z" fill="black"/>
<path d="M72 198L62 192.227V203.773L72 198ZM8 17H22.304V15H8V17ZM31.304 26V188H33.304V26H31.304ZM42.304 199H63V197H42.304V199ZM31.304 188C31.304 194.075 36.2289 199 42.304 199V197C37.3334 197 33.304 192.971 33.304 188H31.304ZM22.304 17C27.2746 17 31.304 21.0294 31.304 26H33.304C33.304 19.9249 28.3791 15 22.304 15V17Z" fill="black"/>
<path d="M89.1378 118V104.909H91.9055V115.718H97.5178V118H89.1378ZM99.3507 118V104.909H108.172V107.191H102.118V110.31H107.718V112.592H102.118V115.718H108.197V118H99.3507ZM110.372 118V104.909H119.04V107.191H113.14V110.31H118.464V112.592H113.14V118H110.372ZM120.403 107.191V104.909H131.154V107.191H127.146V118H124.411V107.191H120.403Z" fill="black"/>
<rect x="73.5" y="95.5" width="72" height="32" rx="16" stroke="black"/>
<path d="M379.379 52.9091H382.115V62.0369C382.115 62.8807 381.925 63.6136 381.546 64.2358C381.171 64.858 380.649 65.3374 379.98 65.674C379.311 66.0107 378.533 66.179 377.647 66.179C376.859 66.179 376.143 66.0405 375.499 65.7635C374.86 65.4822 374.353 65.0561 373.978 64.4851C373.603 63.9098 373.418 63.1875 373.422 62.3182H376.177C376.185 62.6634 376.256 62.9595 376.388 63.2067C376.524 63.4496 376.71 63.6371 376.944 63.7692C377.183 63.897 377.464 63.9609 377.788 63.9609C378.129 63.9609 378.416 63.8885 378.651 63.7436C378.889 63.5945 379.07 63.3771 379.194 63.0916C379.317 62.8061 379.379 62.4545 379.379 62.0369V52.9091ZM396.433 59.4545C396.433 60.8821 396.163 62.0966 395.621 63.098C395.085 64.0994 394.352 64.8643 393.423 65.3928C392.498 65.9169 391.458 66.179 390.303 66.179C389.14 66.179 388.096 65.9148 387.171 65.3864C386.246 64.858 385.516 64.093 384.979 63.0916C384.442 62.0902 384.173 60.8778 384.173 59.4545C384.173 58.027 384.442 56.8125 384.979 55.8111C385.516 54.8097 386.246 54.0469 387.171 53.5227C388.096 52.9943 389.14 52.7301 390.303 52.7301C391.458 52.7301 392.498 52.9943 393.423 53.5227C394.352 54.0469 395.085 54.8097 395.621 55.8111C396.163 56.8125 396.433 58.027 396.433 59.4545ZM393.627 59.4545C393.627 58.5298 393.489 57.75 393.212 57.1151C392.939 56.4801 392.553 55.9986 392.055 55.6705C391.556 55.3423 390.972 55.1783 390.303 55.1783C389.634 55.1783 389.05 55.3423 388.552 55.6705C388.053 55.9986 387.665 56.4801 387.388 57.1151C387.116 57.75 386.979 58.5298 386.979 59.4545C386.979 60.3793 387.116 61.1591 387.388 61.794C387.665 62.429 388.053 62.9105 388.552 63.2386C389.05 63.5668 389.634 63.7308 390.303 63.7308C390.972 63.7308 391.556 63.5668 392.055 63.2386C392.553 62.9105 392.939 62.429 393.212 61.794C393.489 61.1591 393.627 60.3793 393.627 59.4545ZM401.251 52.9091V66H398.483V52.9091H401.251ZM414.478 52.9091V66H412.087L406.392 57.7607H406.296V66H403.528V52.9091H405.957L411.608 61.142H411.723V52.9091H414.478Z" fill="black"/>
<rect x="358.5" y="43.5" width="72" height="32" rx="16" stroke="black"/>
<path d="M89.1378 204V190.909H97.8054V193.191H91.9055V196.31H97.2301V198.592H91.9055V204H89.1378ZM107.753 190.909H110.521V199.411C110.521 200.365 110.293 201.2 109.837 201.916C109.385 202.632 108.752 203.19 107.938 203.591C107.124 203.987 106.176 204.185 105.094 204.185C104.007 204.185 103.057 203.987 102.243 203.591C101.429 203.19 100.796 202.632 100.345 201.916C99.8929 201.2 99.6671 200.365 99.6671 199.411V190.909H102.435V199.174C102.435 199.673 102.544 200.116 102.761 200.504C102.982 200.891 103.294 201.196 103.694 201.418C104.095 201.639 104.561 201.75 105.094 201.75C105.631 201.75 106.097 201.639 106.494 201.418C106.894 201.196 107.203 200.891 107.421 200.504C107.642 200.116 107.753 199.673 107.753 199.174V190.909ZM112.798 204V190.909H115.566V201.718H121.178V204H112.798ZM123.011 204V190.909H125.779V201.718H131.391V204H123.011Z" fill="black"/>
<rect x="73.5" y="181.5" width="72" height="32" rx="16" stroke="black"/>
<path d="M89.1378 161V147.909H94.3026C95.2912 147.909 96.1349 148.086 96.8338 148.44C97.5369 148.789 98.0717 149.286 98.4382 149.929C98.8089 150.568 98.9943 151.32 98.9943 152.185C98.9943 153.055 98.8068 153.803 98.4318 154.429C98.0568 155.051 97.5135 155.528 96.8018 155.861C96.0945 156.193 95.2379 156.359 94.2322 156.359H90.7741V154.135H93.7848C94.3132 154.135 94.7521 154.062 95.1016 153.918C95.451 153.773 95.7109 153.555 95.8814 153.266C96.0561 152.976 96.1435 152.616 96.1435 152.185C96.1435 151.751 96.0561 151.384 95.8814 151.086C95.7109 150.788 95.4489 150.562 95.0952 150.408C94.7457 150.251 94.3047 150.172 93.772 150.172H91.9055V161H89.1378ZM96.2074 155.043L99.4609 161H96.4055L93.2223 155.043H96.2074ZM103.718 147.909V161H100.95V147.909H103.718ZM114.676 152.141C114.586 151.83 114.46 151.555 114.298 151.316C114.137 151.073 113.938 150.869 113.704 150.702C113.474 150.532 113.21 150.402 112.911 150.312C112.617 150.223 112.291 150.178 111.933 150.178C111.264 150.178 110.676 150.344 110.169 150.677C109.666 151.009 109.274 151.493 108.993 152.128C108.712 152.759 108.571 153.53 108.571 154.442C108.571 155.354 108.71 156.129 108.987 156.768C109.264 157.408 109.656 157.896 110.163 158.232C110.67 158.565 111.269 158.731 111.959 158.731C112.585 158.731 113.12 158.62 113.563 158.398C114.011 158.173 114.352 157.855 114.586 157.446C114.825 157.037 114.944 156.553 114.944 155.995L115.507 156.078H112.132V153.994H117.61V155.643C117.61 156.794 117.367 157.783 116.881 158.609C116.395 159.432 115.726 160.067 114.874 160.514C114.021 160.957 113.046 161.179 111.946 161.179C110.719 161.179 109.641 160.908 108.712 160.367C107.783 159.822 107.058 159.048 106.539 158.047C106.023 157.041 105.765 155.848 105.765 154.467C105.765 153.406 105.919 152.46 106.225 151.629C106.536 150.794 106.971 150.087 107.529 149.507C108.088 148.928 108.737 148.487 109.479 148.184C110.22 147.881 111.024 147.73 111.889 147.73C112.63 147.73 113.32 147.839 113.96 148.056C114.599 148.269 115.166 148.572 115.66 148.964C116.159 149.356 116.566 149.822 116.881 150.364C117.196 150.901 117.399 151.493 117.488 152.141H114.676ZM119.689 161V147.909H122.456V153.31H128.075V147.909H130.836V161H128.075V155.592H122.456V161H119.689ZM132.62 150.191V147.909H143.371V150.191H139.363V161H136.627V150.191H132.62Z" fill="black"/>
<rect x="73.5" y="138.5" width="83" height="32" rx="16" stroke="black"/>
<path d="M244.168 111.455C244.168 112.882 243.897 114.097 243.356 115.098C242.819 116.099 242.086 116.864 241.157 117.393C240.232 117.917 239.192 118.179 238.038 118.179C236.874 118.179 235.83 117.915 234.906 117.386C233.981 116.858 233.25 116.093 232.713 115.092C232.176 114.09 231.908 112.878 231.908 111.455C231.908 110.027 232.176 108.812 232.713 107.811C233.25 106.81 233.981 106.047 234.906 105.523C235.83 104.994 236.874 104.73 238.038 104.73C239.192 104.73 240.232 104.994 241.157 105.523C242.086 106.047 242.819 106.81 243.356 107.811C243.897 108.812 244.168 110.027 244.168 111.455ZM241.362 111.455C241.362 110.53 241.223 109.75 240.946 109.115C240.673 108.48 240.288 107.999 239.789 107.67C239.29 107.342 238.707 107.178 238.038 107.178C237.369 107.178 236.785 107.342 236.286 107.67C235.788 107.999 235.4 108.48 235.123 109.115C234.85 109.75 234.714 110.53 234.714 111.455C234.714 112.379 234.85 113.159 235.123 113.794C235.4 114.429 235.788 114.911 236.286 115.239C236.785 115.567 237.369 115.731 238.038 115.731C238.707 115.731 239.29 115.567 239.789 115.239C240.288 114.911 240.673 114.429 240.946 113.794C241.223 113.159 241.362 112.379 241.362 111.455ZM254.304 104.909H257.072V113.411C257.072 114.365 256.844 115.2 256.388 115.916C255.936 116.632 255.303 117.19 254.489 117.591C253.675 117.987 252.727 118.185 251.645 118.185C250.558 118.185 249.608 117.987 248.794 117.591C247.98 117.19 247.347 116.632 246.895 115.916C246.444 115.2 246.218 114.365 246.218 113.411V104.909H248.986V113.174C248.986 113.673 249.094 114.116 249.312 114.504C249.533 114.891 249.844 115.196 250.245 115.418C250.645 115.639 251.112 115.75 251.645 115.75C252.182 115.75 252.648 115.639 253.045 115.418C253.445 115.196 253.754 114.891 253.971 114.504C254.193 114.116 254.304 113.673 254.304 113.174V104.909ZM258.85 107.191V104.909H269.602V107.191H265.594V118H262.858V107.191H258.85ZM271.372 118V104.909H280.193V107.191H274.14V110.31H279.739V112.592H274.14V115.718H280.219V118H271.372ZM282.394 118V104.909H287.558C288.547 104.909 289.391 105.086 290.09 105.44C290.793 105.789 291.328 106.286 291.694 106.929C292.065 107.568 292.25 108.32 292.25 109.185C292.25 110.055 292.063 110.803 291.688 111.429C291.313 112.051 290.769 112.528 290.058 112.861C289.35 113.193 288.494 113.359 287.488 113.359H284.03V111.135H287.041C287.569 111.135 288.008 111.062 288.357 110.918C288.707 110.773 288.967 110.555 289.137 110.266C289.312 109.976 289.399 109.616 289.399 109.185C289.399 108.751 289.312 108.384 289.137 108.086C288.967 107.788 288.705 107.562 288.351 107.408C288.002 107.251 287.561 107.172 287.028 107.172H285.161V118H282.394ZM289.463 112.043L292.717 118H289.661L286.478 112.043H289.463Z" fill="black"/>
<rect x="216.5" y="95.5" width="94" height="32" rx="16" stroke="black"/>
<path d="M91.9055 233.909V247H89.1378V233.909H91.9055ZM105.132 233.909V247H102.742L97.0463 238.761H96.9505V247H94.1827V233.909H96.6117L102.262 242.142H102.377V233.909H105.132ZM118.369 233.909V247H115.978L110.283 238.761H110.187V247H107.419V233.909H109.848L115.499 242.142H115.614V233.909H118.369ZM120.655 247V233.909H129.476V236.191H123.423V239.31H129.023V241.592H123.423V244.718H129.502V247H120.655ZM131.677 247V233.909H136.842C137.83 233.909 138.674 234.086 139.373 234.44C140.076 234.789 140.611 235.286 140.977 235.929C141.348 236.568 141.533 237.32 141.533 238.185C141.533 239.055 141.346 239.803 140.971 240.429C140.596 241.051 140.053 241.528 139.341 241.861C138.634 242.193 137.777 242.359 136.771 242.359H133.313V240.135H136.324C136.852 240.135 137.291 240.062 137.641 239.918C137.99 239.773 138.25 239.555 138.42 239.266C138.595 238.976 138.683 238.616 138.683 238.185C138.683 237.751 138.595 237.384 138.42 237.086C138.25 236.788 137.988 236.562 137.634 236.408C137.285 236.251 136.844 236.172 136.311 236.172H134.445V247H131.677ZM138.746 241.043L142 247H138.945L135.761 241.043H138.746Z" fill="black"/>
<rect x="73.5" y="224.5" width="83" height="32" rx="16" stroke="black"/>
</svg>
