<svg width="474" height="214" viewBox="0 0 474 214" fill="none" xmlns="http://www.w3.org/2000/svg">
<circle cx="4" cy="18" r="3.5" stroke="black"/>
<circle cx="470" cy="18" r="3.5" stroke="black"/>
<path d="M356.999 18L346.999 12.2265V23.7735L356.999 18ZM310.5 69H322.401V67H310.5V69ZM333.401 58V28H331.401V58H333.401ZM342.401 19H347.999V17H342.401V19ZM333.401 28C333.401 23.0294 337.431 19 342.401 19V17C336.326 17 331.401 21.9249 331.401 28H333.401ZM322.401 69C328.476 69 333.401 64.0751 333.401 58H331.401C331.401 62.9706 327.372 67 322.401 67V69Z" fill="black"/>
<path d="M216 69L206 63.2265V74.7735L216 69ZM178 70H207V68H178V70Z" fill="black"/>
<path d="M271.5 18L261.5 12.2265V23.7735L271.5 18ZM158 70H190V68H158V70ZM201 59V28H199V59H201ZM210 19H262.5V17H210V19ZM201 28C201 23.0294 205.029 19 210 19V17C203.925 17 199 21.9249 199 28H201ZM190 70C196.075 70 201 65.0751 201 59H199C199 63.9706 194.971 68 190 68V70Z" fill="black"/>
<path d="M146 69L188 69" stroke="black" stroke-width="2"/>
<path d="M190 69L180 63.2265V74.7735L190 69ZM146 156H159.2V154H146V156ZM170.2 145V79H168.2V145H170.2ZM179.2 70H181V68H179.2V70ZM170.2 79C170.2 74.0294 174.229 70 179.2 70V68C173.125 68 168.2 72.9249 168.2 79H170.2ZM159.2 156C165.275 156 170.2 151.075 170.2 145H168.2C168.2 149.971 164.171 154 159.2 154V156Z" fill="black"/>
<path d="M190 69L180 63.2265V74.7735L190 69ZM156.5 112H159V110H156.5V112ZM170 101V79H168V101H170ZM179 70H181V68H179V70ZM170 79C170 74.0294 174.029 70 179 70V68C172.925 68 168 72.9249 168 79H170ZM159 112C165.075 112 170 107.075 170 101H168C168 105.971 163.971 110 159 110V112Z" fill="black"/>
<path d="M311 198L301 192.226V203.774L311 198ZM157 199H302V197H157V199Z" fill="black"/>
<path d="M357 18L347 12.2265V23.7735L357 18ZM157 199H322.5V197H157V199ZM333.5 188V28H331.5V188H333.5ZM342.5 19H348V17H342.5V19ZM333.5 28C333.5 23.0294 337.529 19 342.5 19V17C336.425 17 331.5 21.9249 331.5 28H333.5ZM322.5 199C328.575 199 333.5 194.075 333.5 188H331.5C331.5 192.971 327.471 197 322.5 197V199Z" fill="black"/>
<path d="M73 200L63 194.226V205.774L73 200ZM8 19H22.6899V17H8V19ZM31.6899 28V190H33.6899V28H31.6899ZM42.6899 201H64V199H42.6899V201ZM31.6899 190C31.6899 196.075 36.6148 201 42.6899 201V199C37.7194 199 33.6899 194.971 33.6899 190H31.6899ZM22.6899 19C27.6605 19 31.6899 23.0294 31.6899 28H33.6899C33.6899 21.9249 28.7651 17 22.6899 17V19Z" fill="black"/>
<path d="M72 70L62 64.2265V75.7735L72 70ZM8 19H22.4954V17H8V19ZM31.4954 28V60H33.4954V28H31.4954ZM42.4954 71H63V69H42.4954V71ZM31.4954 60C31.4954 66.0751 36.4202 71 42.4954 71V69C37.5248 69 33.4954 64.9706 33.4954 60H31.4954ZM22.4954 19C27.4659 19 31.4954 23.0294 31.4954 28H33.4954C33.4954 21.9249 28.5705 17 22.4954 17V19Z" fill="black"/>
<path d="M357 18L347 12.2265V23.7735L357 18ZM7.5 19H32.304V17H7.5V19ZM32.304 19H348V17H32.304V19Z" fill="black"/>
<path d="M466 18L456 12.2265V23.7735L466 18ZM431 19H433.484V17H431V19ZM433.484 19H457V17H433.484V19Z" fill="black"/>
<path d="M72 113L62 107.226V118.774L72 113ZM8 19H22.304V17H8V19ZM31.304 28V103H33.304V28H31.304ZM42.304 114H63V112H42.304V114ZM31.304 103C31.304 109.075 36.2289 114 42.304 114V112C37.3334 112 33.304 107.971 33.304 103H31.304ZM22.304 19C27.2746 19 31.304 23.0294 31.304 28H33.304C33.304 21.9249 28.3791 17 22.304 17V19Z" fill="black"/>
<path d="M72 155L62 149.226V160.774L72 155ZM8 19H22.304V17H8V19ZM31.304 28V145H33.304V28H31.304ZM42.304 156H63V154H42.304V156ZM31.304 145C31.304 151.075 36.2289 156 42.304 156V154C37.3334 154 33.304 149.971 33.304 145H31.304ZM22.304 19C27.2746 19 31.304 23.0294 31.304 28H33.304C33.304 21.9249 28.3791 17 22.304 17V19Z" fill="black"/>
<path d="M89.1378 75V61.9091H91.9055V72.718H97.5178V75H89.1378ZM99.3507 75V61.9091H108.172V64.1911H102.118V67.3104H107.718V69.5923H102.118V72.718H108.197V75H99.3507ZM110.372 75V61.9091H119.04V64.1911H113.14V67.3104H118.464V69.5923H113.14V75H110.372ZM120.403 64.1911V61.9091H131.154V64.1911H127.146V75H124.411V64.1911H120.403Z" fill="black"/>
<rect x="73.5" y="52.5" width="72" height="32" rx="16" stroke="black"/>
<path d="M379.379 9.90909H382.115V19.0369C382.115 19.8807 381.925 20.6136 381.546 21.2358C381.171 21.858 380.649 22.3374 379.98 22.674C379.311 23.0107 378.533 23.179 377.647 23.179C376.859 23.179 376.143 23.0405 375.499 22.7635C374.86 22.4822 374.353 22.0561 373.978 21.4851C373.603 20.9098 373.418 20.1875 373.422 19.3182H376.177C376.185 19.6634 376.256 19.9595 376.388 20.2067C376.524 20.4496 376.71 20.6371 376.944 20.7692C377.183 20.897 377.464 20.9609 377.788 20.9609C378.129 20.9609 378.416 20.8885 378.651 20.7436C378.889 20.5945 379.07 20.3771 379.194 20.0916C379.317 19.8061 379.379 19.4545 379.379 19.0369V9.90909ZM396.433 16.4545C396.433 17.8821 396.163 19.0966 395.621 20.098C395.085 21.0994 394.352 21.8643 393.423 22.3928C392.498 22.9169 391.458 23.179 390.303 23.179C389.14 23.179 388.096 22.9148 387.171 22.3864C386.246 21.858 385.516 21.093 384.979 20.0916C384.442 19.0902 384.173 17.8778 384.173 16.4545C384.173 15.027 384.442 13.8125 384.979 12.8111C385.516 11.8097 386.246 11.0469 387.171 10.5227C388.096 9.99432 389.14 9.73011 390.303 9.73011C391.458 9.73011 392.498 9.99432 393.423 10.5227C394.352 11.0469 395.085 11.8097 395.621 12.8111C396.163 13.8125 396.433 15.027 396.433 16.4545ZM393.627 16.4545C393.627 15.5298 393.489 14.75 393.212 14.1151C392.939 13.4801 392.553 12.9986 392.055 12.6705C391.556 12.3423 390.972 12.1783 390.303 12.1783C389.634 12.1783 389.05 12.3423 388.552 12.6705C388.053 12.9986 387.665 13.4801 387.388 14.1151C387.116 14.75 386.979 15.5298 386.979 16.4545C386.979 17.3793 387.116 18.1591 387.388 18.794C387.665 19.429 388.053 19.9105 388.552 20.2386C389.05 20.5668 389.634 20.7308 390.303 20.7308C390.972 20.7308 391.556 20.5668 392.055 20.2386C392.553 19.9105 392.939 19.429 393.212 18.794C393.489 18.1591 393.627 17.3793 393.627 16.4545ZM401.251 9.90909V23H398.483V9.90909H401.251ZM414.478 9.90909V23H412.087L406.392 14.7607H406.296V23H403.528V9.90909H405.957L411.608 18.142H411.723V9.90909H414.478Z" fill="black"/>
<rect x="358.5" y="0.5" width="72" height="32" rx="16" stroke="black"/>
<path d="M89.1378 161V147.909H97.8054V150.191H91.9055V153.31H97.2301V155.592H91.9055V161H89.1378ZM107.753 147.909H110.521V156.411C110.521 157.365 110.293 158.2 109.837 158.916C109.385 159.632 108.752 160.19 107.938 160.591C107.124 160.987 106.176 161.185 105.094 161.185C104.007 161.185 103.057 160.987 102.243 160.591C101.429 160.19 100.796 159.632 100.345 158.916C99.8929 158.2 99.6671 157.365 99.6671 156.411V147.909H102.435V156.174C102.435 156.673 102.544 157.116 102.761 157.504C102.982 157.891 103.294 158.196 103.694 158.418C104.095 158.639 104.561 158.75 105.094 158.75C105.631 158.75 106.097 158.639 106.494 158.418C106.894 158.196 107.203 157.891 107.421 157.504C107.642 157.116 107.753 156.673 107.753 156.174V147.909ZM112.798 161V147.909H115.566V158.718H121.178V161H112.798ZM123.011 161V147.909H125.779V158.718H131.391V161H123.011Z" fill="black"/>
<rect x="73.5" y="138.5" width="72" height="32" rx="16" stroke="black"/>
<path d="M89.1378 118V104.909H94.3026C95.2912 104.909 96.1349 105.086 96.8338 105.44C97.5369 105.789 98.0717 106.286 98.4382 106.929C98.8089 107.568 98.9943 108.32 98.9943 109.185C98.9943 110.055 98.8068 110.803 98.4318 111.429C98.0568 112.051 97.5135 112.528 96.8018 112.861C96.0945 113.193 95.2379 113.359 94.2322 113.359H90.7741V111.135H93.7848C94.3132 111.135 94.7521 111.062 95.1016 110.918C95.451 110.773 95.7109 110.555 95.8814 110.266C96.0561 109.976 96.1435 109.616 96.1435 109.185C96.1435 108.751 96.0561 108.384 95.8814 108.086C95.7109 107.788 95.4489 107.562 95.0952 107.408C94.7457 107.251 94.3047 107.172 93.772 107.172H91.9055V118H89.1378ZM96.2074 112.043L99.4609 118H96.4055L93.2223 112.043H96.2074ZM103.718 104.909V118H100.95V104.909H103.718ZM114.676 109.141C114.586 108.83 114.46 108.555 114.298 108.316C114.137 108.073 113.938 107.869 113.704 107.702C113.474 107.532 113.21 107.402 112.911 107.312C112.617 107.223 112.291 107.178 111.933 107.178C111.264 107.178 110.676 107.344 110.169 107.677C109.666 108.009 109.274 108.493 108.993 109.128C108.712 109.759 108.571 110.53 108.571 111.442C108.571 112.354 108.71 113.129 108.987 113.768C109.264 114.408 109.656 114.896 110.163 115.232C110.67 115.565 111.269 115.731 111.959 115.731C112.585 115.731 113.12 115.62 113.563 115.398C114.011 115.173 114.352 114.855 114.586 114.446C114.825 114.037 114.944 113.553 114.944 112.995L115.507 113.078H112.132V110.994H117.61V112.643C117.61 113.794 117.367 114.783 116.881 115.609C116.395 116.432 115.726 117.067 114.874 117.514C114.021 117.957 113.046 118.179 111.946 118.179C110.719 118.179 109.641 117.908 108.712 117.367C107.783 116.822 107.058 116.048 106.539 115.047C106.023 114.041 105.765 112.848 105.765 111.467C105.765 110.406 105.919 109.46 106.225 108.629C106.536 107.794 106.971 107.087 107.529 106.507C108.088 105.928 108.737 105.487 109.479 105.184C110.22 104.881 111.024 104.73 111.889 104.73C112.63 104.73 113.32 104.839 113.96 105.056C114.599 105.269 115.166 105.572 115.66 105.964C116.159 106.356 116.566 106.822 116.881 107.364C117.196 107.901 117.399 108.493 117.488 109.141H114.676ZM119.689 118V104.909H122.456V110.31H128.075V104.909H130.836V118H128.075V112.592H122.456V118H119.689ZM132.62 107.191V104.909H143.371V107.191H139.363V118H136.627V107.191H132.62Z" fill="black"/>
<rect x="73.5" y="95.5" width="83" height="32" rx="16" stroke="black"/>
<path d="M244.168 68.4545C244.168 69.8821 243.897 71.0966 243.356 72.098C242.819 73.0994 242.086 73.8643 241.157 74.3928C240.232 74.9169 239.192 75.179 238.038 75.179C236.874 75.179 235.83 74.9148 234.906 74.3864C233.981 73.858 233.25 73.093 232.713 72.0916C232.176 71.0902 231.908 69.8778 231.908 68.4545C231.908 67.027 232.176 65.8125 232.713 64.8111C233.25 63.8097 233.981 63.0469 234.906 62.5227C235.83 61.9943 236.874 61.7301 238.038 61.7301C239.192 61.7301 240.232 61.9943 241.157 62.5227C242.086 63.0469 242.819 63.8097 243.356 64.8111C243.897 65.8125 244.168 67.027 244.168 68.4545ZM241.362 68.4545C241.362 67.5298 241.223 66.75 240.946 66.1151C240.673 65.4801 240.288 64.9986 239.789 64.6705C239.29 64.3423 238.707 64.1783 238.038 64.1783C237.369 64.1783 236.785 64.3423 236.286 64.6705C235.788 64.9986 235.4 65.4801 235.123 66.1151C234.85 66.75 234.714 67.5298 234.714 68.4545C234.714 69.3793 234.85 70.1591 235.123 70.794C235.4 71.429 235.788 71.9105 236.286 72.2386C236.785 72.5668 237.369 72.7308 238.038 72.7308C238.707 72.7308 239.29 72.5668 239.789 72.2386C240.288 71.9105 240.673 71.429 240.946 70.794C241.223 70.1591 241.362 69.3793 241.362 68.4545ZM254.304 61.9091H257.072V70.4105C257.072 71.3651 256.844 72.2003 256.388 72.9162C255.936 73.6321 255.303 74.1903 254.489 74.5909C253.675 74.9872 252.727 75.1854 251.645 75.1854C250.558 75.1854 249.608 74.9872 248.794 74.5909C247.98 74.1903 247.347 73.6321 246.895 72.9162C246.444 72.2003 246.218 71.3651 246.218 70.4105V61.9091H248.986V70.174C248.986 70.6726 249.094 71.1158 249.312 71.5036C249.533 71.8913 249.844 72.196 250.245 72.4176C250.645 72.6392 251.112 72.75 251.645 72.75C252.182 72.75 252.648 72.6392 253.045 72.4176C253.445 72.196 253.754 71.8913 253.971 71.5036C254.193 71.1158 254.304 70.6726 254.304 70.174V61.9091ZM258.85 64.1911V61.9091H269.602V64.1911H265.594V75H262.858V64.1911H258.85ZM271.372 75V61.9091H280.193V64.1911H274.14V67.3104H279.739V69.5923H274.14V72.718H280.219V75H271.372ZM282.394 75V61.9091H287.558C288.547 61.9091 289.391 62.0859 290.09 62.4396C290.793 62.7891 291.328 63.2855 291.694 63.929C292.065 64.5682 292.25 65.3203 292.25 66.1854C292.25 67.0547 292.063 67.8026 291.688 68.429C291.313 69.0511 290.769 69.5284 290.058 69.8608C289.35 70.1932 288.494 70.3594 287.488 70.3594H284.03V68.1349H287.041C287.569 68.1349 288.008 68.0625 288.357 67.9176C288.707 67.7727 288.967 67.5554 289.137 67.2656C289.312 66.9759 289.399 66.6158 289.399 66.1854C289.399 65.7507 289.312 65.3842 289.137 65.0859C288.967 64.7876 288.705 64.5618 288.351 64.4084C288.002 64.2507 287.561 64.1719 287.028 64.1719H285.161V75H282.394ZM289.463 69.0426L292.717 75H289.661L286.478 69.0426H289.463Z" fill="black"/>
<rect x="216.5" y="52.5" width="94" height="32" rx="16" stroke="black"/>
<path d="M91.9055 190.909V204H89.1378V190.909H91.9055ZM105.132 190.909V204H102.742L97.0463 195.761H96.9505V204H94.1827V190.909H96.6117L102.262 199.142H102.377V190.909H105.132ZM118.369 190.909V204H115.978L110.283 195.761H110.187V204H107.419V190.909H109.848L115.499 199.142H115.614V190.909H118.369ZM120.655 204V190.909H129.476V193.191H123.423V196.31H129.023V198.592H123.423V201.718H129.502V204H120.655ZM131.677 204V190.909H136.842C137.83 190.909 138.674 191.086 139.373 191.44C140.076 191.789 140.611 192.286 140.977 192.929C141.348 193.568 141.533 194.32 141.533 195.185C141.533 196.055 141.346 196.803 140.971 197.429C140.596 198.051 140.053 198.528 139.341 198.861C138.634 199.193 137.777 199.359 136.771 199.359H133.313V197.135H136.324C136.852 197.135 137.291 197.062 137.641 196.918C137.99 196.773 138.25 196.555 138.42 196.266C138.595 195.976 138.683 195.616 138.683 195.185C138.683 194.751 138.595 194.384 138.42 194.086C138.25 193.788 137.988 193.562 137.634 193.408C137.285 193.251 136.844 193.172 136.311 193.172H134.445V204H131.677ZM138.746 198.043L142 204H138.945L135.761 198.043H138.746Z" fill="black"/>
<rect x="73.5" y="181.5" width="83" height="32" rx="16" stroke="black"/>
</svg>
