<svg width="321" height="33" viewBox="0 0 321 33" fill="none" xmlns="http://www.w3.org/2000/svg">
<circle cx="4" cy="16" r="3.5" stroke="black"/>
<circle cx="317" cy="16" r="3.5" stroke="black"/>
<path d="M55.1676 16.4545C55.1676 17.8821 54.897 19.0966 54.3558 20.098C53.8189 21.0994 53.0859 21.8643 52.157 22.3928C51.2322 22.9169 50.1925 23.179 49.0376 23.179C47.8743 23.179 46.8303 22.9148 45.9055 22.3864C44.9808 21.858 44.25 21.093 43.7131 20.0916C43.1761 19.0902 42.9077 17.8778 42.9077 16.4545C42.9077 15.027 43.1761 13.8125 43.7131 12.8111C44.25 11.8097 44.9808 11.0469 45.9055 10.5227C46.8303 9.99432 47.8743 9.73011 49.0376 9.73011C50.1925 9.73011 51.2322 9.99432 52.157 10.5227C53.0859 11.0469 53.8189 11.8097 54.3558 12.8111C54.897 13.8125 55.1676 15.027 55.1676 16.4545ZM52.3615 16.4545C52.3615 15.5298 52.223 14.75 51.946 14.1151C51.6733 13.4801 51.2876 12.9986 50.7891 12.6705C50.2905 12.3423 49.7067 12.1783 49.0376 12.1783C48.3686 12.1783 47.7848 12.3423 47.2862 12.6705C46.7876 12.9986 46.3999 13.4801 46.1229 14.1151C45.8501 14.75 45.7138 15.5298 45.7138 16.4545C45.7138 17.3793 45.8501 18.1591 46.1229 18.794C46.3999 19.429 46.7876 19.9105 47.2862 20.2386C47.7848 20.5668 48.3686 20.7308 49.0376 20.7308C49.7067 20.7308 50.2905 20.5668 50.7891 20.2386C51.2876 19.9105 51.6733 19.429 51.946 18.794C52.223 18.1591 52.3615 17.3793 52.3615 16.4545ZM68.1674 9.90909V23H65.7768L60.0815 14.7607H59.9856V23H57.2179V9.90909H59.6468L65.2974 18.142H65.4125V9.90909H68.1674Z" fill="black"/>
<path d="M193.7 15.7741V13.505H202.528V15.7741H193.7ZM193.7 20.0185V17.7493H202.528V20.0185H193.7Z" fill="black"/>
<rect x="28.5" y="0.5" width="55" height="32" rx="16" stroke="black"/>
<rect x="182.5" y="0.5" width="32" height="32" rx="16" stroke="black"/>
<path d="M117.561 21.1918C116.551 21.1918 115.682 20.9872 114.953 20.5781C114.229 20.1648 113.67 19.581 113.278 18.8267C112.886 18.0682 112.69 17.1712 112.69 16.1357C112.69 15.1257 112.886 14.2393 113.278 13.4766C113.67 12.7138 114.222 12.1193 114.934 11.6932C115.65 11.267 116.489 11.054 117.452 11.054C118.1 11.054 118.703 11.1584 119.261 11.3672C119.824 11.5717 120.314 11.8807 120.732 12.294C121.153 12.7074 121.482 13.2273 121.716 13.8537C121.95 14.4759 122.067 15.2045 122.067 16.0398V16.7876H113.777V15.1001H119.504C119.504 14.7081 119.419 14.3608 119.249 14.0582C119.078 13.7557 118.842 13.5192 118.539 13.3487C118.241 13.174 117.893 13.0866 117.497 13.0866C117.084 13.0866 116.717 13.1825 116.398 13.3743C116.082 13.5618 115.835 13.8153 115.656 14.1349C115.477 14.4503 115.386 14.8018 115.381 15.1896V16.794C115.381 17.2798 115.471 17.6996 115.65 18.0533C115.833 18.407 116.091 18.6797 116.423 18.8714C116.756 19.0632 117.15 19.1591 117.606 19.1591C117.908 19.1591 118.185 19.1165 118.437 19.0312C118.688 18.946 118.903 18.8182 119.082 18.6477C119.261 18.4773 119.398 18.2685 119.491 18.0213L122.01 18.1875C121.882 18.7926 121.62 19.321 121.224 19.7727C120.832 20.2202 120.325 20.5696 119.702 20.821C119.085 21.0682 118.371 21.1918 117.561 21.1918ZM125.944 11.1818L127.747 14.6143L129.594 11.1818H132.387L129.543 16.0909L132.464 21H129.684L127.747 17.6058L125.842 21H123.029L125.944 16.0909L123.132 11.1818H125.944ZM134.005 24.6818V11.1818H136.689V12.831H136.811C136.93 12.5668 137.103 12.2983 137.328 12.0256C137.559 11.7486 137.857 11.5185 138.223 11.3352C138.594 11.1477 139.054 11.054 139.604 11.054C140.32 11.054 140.98 11.2415 141.586 11.6165C142.191 11.9872 142.674 12.5476 143.037 13.2976C143.399 14.0433 143.58 14.9787 143.58 16.1037C143.58 17.1989 143.403 18.1236 143.049 18.8778C142.7 19.6278 142.223 20.1967 141.618 20.5845C141.017 20.968 140.343 21.1598 139.598 21.1598C139.069 21.1598 138.62 21.0724 138.249 20.8977C137.882 20.723 137.582 20.5036 137.348 20.2393C137.113 19.9709 136.934 19.7003 136.811 19.4276H136.728V24.6818H134.005ZM136.67 16.0909C136.67 16.6747 136.751 17.1839 136.913 17.6186C137.075 18.0533 137.309 18.392 137.616 18.6349C137.923 18.8736 138.296 18.9929 138.735 18.9929C139.178 18.9929 139.553 18.8714 139.86 18.6286C140.167 18.3814 140.399 18.0405 140.556 17.6058C140.718 17.1669 140.799 16.6619 140.799 16.0909C140.799 15.5241 140.721 15.0256 140.563 14.5952C140.405 14.1648 140.173 13.8281 139.866 13.5852C139.559 13.3423 139.182 13.2209 138.735 13.2209C138.292 13.2209 137.917 13.3381 137.61 13.5724C137.307 13.8068 137.075 14.1392 136.913 14.5696C136.751 15 136.67 15.5071 136.67 16.0909ZM145.395 21V11.1818H148.035V12.8949H148.137C148.316 12.2855 148.617 11.8253 149.039 11.5142C149.461 11.1989 149.946 11.0412 150.496 11.0412C150.632 11.0412 150.779 11.0497 150.937 11.0668C151.095 11.0838 151.233 11.1072 151.353 11.1371V13.5533C151.225 13.5149 151.048 13.4808 150.822 13.451C150.596 13.4212 150.39 13.4062 150.202 13.4062C149.801 13.4062 149.444 13.4936 149.128 13.6683C148.817 13.8388 148.57 14.0774 148.387 14.3842C148.208 14.6911 148.118 15.0447 148.118 15.4453V21H145.395Z" fill="black"/>
<path d="M248.561 21.1918C247.551 21.1918 246.682 20.9872 245.953 20.5781C245.229 20.1648 244.67 19.581 244.278 18.8267C243.886 18.0682 243.69 17.1712 243.69 16.1357C243.69 15.1257 243.886 14.2393 244.278 13.4766C244.67 12.7138 245.222 12.1193 245.934 11.6932C246.65 11.267 247.489 11.054 248.452 11.054C249.1 11.054 249.703 11.1584 250.261 11.3672C250.824 11.5717 251.314 11.8807 251.732 12.294C252.153 12.7074 252.482 13.2273 252.716 13.8537C252.95 14.4759 253.067 15.2045 253.067 16.0398V16.7876H244.777V15.1001H250.504C250.504 14.7081 250.419 14.3608 250.249 14.0582C250.078 13.7557 249.842 13.5192 249.539 13.3487C249.241 13.174 248.893 13.0866 248.497 13.0866C248.084 13.0866 247.717 13.1825 247.398 13.3743C247.082 13.5618 246.835 13.8153 246.656 14.1349C246.477 14.4503 246.386 14.8018 246.381 15.1896V16.794C246.381 17.2798 246.471 17.6996 246.65 18.0533C246.833 18.407 247.091 18.6797 247.423 18.8714C247.756 19.0632 248.15 19.1591 248.606 19.1591C248.908 19.1591 249.185 19.1165 249.437 19.0312C249.688 18.946 249.903 18.8182 250.082 18.6477C250.261 18.4773 250.398 18.2685 250.491 18.0213L253.01 18.1875C252.882 18.7926 252.62 19.321 252.224 19.7727C251.832 20.2202 251.325 20.5696 250.702 20.821C250.085 21.0682 249.371 21.1918 248.561 21.1918ZM256.944 11.1818L258.747 14.6143L260.594 11.1818H263.387L260.543 16.0909L263.464 21H260.684L258.747 17.6058L256.842 21H254.029L256.944 16.0909L254.132 11.1818H256.944ZM265.005 24.6818V11.1818H267.689V12.831H267.811C267.93 12.5668 268.103 12.2983 268.328 12.0256C268.559 11.7486 268.857 11.5185 269.223 11.3352C269.594 11.1477 270.054 11.054 270.604 11.054C271.32 11.054 271.98 11.2415 272.586 11.6165C273.191 11.9872 273.674 12.5476 274.037 13.2976C274.399 14.0433 274.58 14.9787 274.58 16.1037C274.58 17.1989 274.403 18.1236 274.049 18.8778C273.7 19.6278 273.223 20.1967 272.618 20.5845C272.017 20.968 271.343 21.1598 270.598 21.1598C270.069 21.1598 269.62 21.0724 269.249 20.8977C268.882 20.723 268.582 20.5036 268.348 20.2393C268.113 19.9709 267.934 19.7003 267.811 19.4276H267.728V24.6818H265.005ZM267.67 16.0909C267.67 16.6747 267.751 17.1839 267.913 17.6186C268.075 18.0533 268.309 18.392 268.616 18.6349C268.923 18.8736 269.296 18.9929 269.735 18.9929C270.178 18.9929 270.553 18.8714 270.86 18.6286C271.167 18.3814 271.399 18.0405 271.556 17.6058C271.718 17.1669 271.799 16.6619 271.799 16.0909C271.799 15.5241 271.721 15.0256 271.563 14.5952C271.405 14.1648 271.173 13.8281 270.866 13.5852C270.559 13.3423 270.182 13.2209 269.735 13.2209C269.292 13.2209 268.917 13.3381 268.61 13.5724C268.307 13.8068 268.075 14.1392 267.913 14.5696C267.751 15 267.67 15.5071 267.67 16.0909ZM276.395 21V11.1818H279.035V12.8949H279.137C279.316 12.2855 279.617 11.8253 280.039 11.5142C280.461 11.1989 280.946 11.0412 281.496 11.0412C281.632 11.0412 281.779 11.0497 281.937 11.0668C282.095 11.0838 282.233 11.1072 282.353 11.1371V13.5533C282.225 13.5149 282.048 13.4808 281.822 13.451C281.596 13.4212 281.39 13.4062 281.202 13.4062C280.801 13.4062 280.444 13.4936 280.128 13.6683C279.817 13.8388 279.57 14.0774 279.387 14.3842C279.208 14.6911 279.118 15.0447 279.118 15.4453V21H276.395Z" fill="black"/>
<rect x="108.5" y="0.5" width="47" height="32" stroke="black"/>
<rect x="239.5" y="0.5" width="47" height="32" stroke="black"/>
<path d="M28 16L18 10.2265V21.7735L28 16ZM8 17L19 17V15L8 15V17Z" fill="black"/>
<path d="M108 16L98 10.2265V21.7735L108 16ZM84 17L99 17V15L84 15V17Z" fill="black"/>
<path d="M239 16L229 10.2265V21.7735L239 16ZM215 17L230 17V15L215 15V17Z" fill="black"/>
<path d="M181.5 16L171.5 10.2265V21.7735L181.5 16ZM156 17L172.5 17V15L156 15V17Z" fill="black"/>
<path d="M312.5 16L302.5 10.2265V21.7735L312.5 16ZM287 17L303.5 17V15L287 15V17Z" fill="black"/>
</svg>
