<svg width="302" height="248" viewBox="0 0 302 248" fill="none" xmlns="http://www.w3.org/2000/svg">
<circle cx="4" cy="17" r="3.5" stroke="black"/>
<circle cx="298" cy="17" r="3.5" stroke="black"/>
<path d="M73 234L63 228.227V239.773L73 234ZM8 18H22.6899V16H8V18ZM31.6899 27V224H33.6899V27H31.6899ZM42.6899 235H64V233H42.6899V235ZM31.6899 224C31.6899 230.075 36.6148 235 42.6899 235V233C37.7194 233 33.6899 228.971 33.6899 224H31.6899ZM22.6899 18C27.6605 18 31.6899 22.0294 31.6899 27H33.6899C33.6899 20.9249 28.7651 16 22.6899 16V18Z" fill="black"/>
<path d="M71 104L61 98.2265V109.774L71 104ZM8 18H22.1126V16H8V18ZM31.1126 27V94H33.1126V27H31.1126ZM42.1126 105H62V103H42.1126V105ZM31.1126 94C31.1126 100.075 36.0375 105 42.1126 105V103C37.1421 103 33.1126 98.9706 33.1126 94H31.1126ZM22.1126 18C27.0832 18 31.1126 22.0294 31.1126 27H33.1126C33.1126 20.9249 28.1878 16 22.1126 16V18Z" fill="black"/>
<path d="M71 60L61 54.2265V65.7735L71 60ZM8 18H22.1126V16H8V18ZM31.1126 27V50H33.1126V27H31.1126ZM42.1126 61H62V59H42.1126V61ZM31.1126 50C31.1126 56.0751 36.0375 61 42.1126 61V59C37.1421 59 33.1126 54.9706 33.1126 50H31.1126ZM22.1126 18C27.0832 18 31.1126 22.0294 31.1126 27H33.1126C33.1126 20.9249 28.1878 16 22.1126 16V18Z" fill="black"/>
<path d="M72 147L62 141.226V152.773L72 147ZM8 18H22.304V16H8V18ZM31.304 27V137H33.304V27H31.304ZM42.304 148H63V146H42.304V148ZM31.304 137C31.304 143.075 36.2289 148 42.304 148V146C37.3334 146 33.304 141.971 33.304 137H31.304ZM22.304 18C27.2746 18 31.304 22.0294 31.304 27H33.304C33.304 20.9249 28.3791 16 22.304 16V18Z" fill="black"/>
<path d="M72 189L62 183.227V194.773L72 189ZM8 18H22.304V16H8V18ZM31.304 27V179H33.304V27H31.304ZM42.304 190H63V188H42.304V190ZM31.304 179C31.304 185.075 36.2289 190 42.304 190V188C37.3334 188 33.304 183.971 33.304 179H31.304ZM22.304 18C27.2746 18 31.304 22.0294 31.304 27H33.304C33.304 20.9249 28.3791 16 22.304 16V18Z" fill="black"/>
<path d="M89.1378 109V95.9091H91.8608V100.831H91.9439C92.0632 100.567 92.2358 100.298 92.4616 100.026C92.6918 99.7486 92.9901 99.5185 93.3565 99.3352C93.7273 99.1477 94.1875 99.054 94.7372 99.054C95.4531 99.054 96.1136 99.2415 96.7188 99.6165C97.3239 99.9872 97.8075 100.548 98.1697 101.298C98.532 102.043 98.7131 102.979 98.7131 104.104C98.7131 105.199 98.5362 106.124 98.1825 106.878C97.8331 107.628 97.3558 108.197 96.7507 108.585C96.1499 108.968 95.4766 109.16 94.7308 109.16C94.2024 109.16 93.7528 109.072 93.3821 108.898C93.0156 108.723 92.7152 108.504 92.4808 108.239C92.2464 107.971 92.0675 107.7 91.9439 107.428H91.8224V109H89.1378ZM91.8033 104.091C91.8033 104.675 91.8842 105.184 92.0462 105.619C92.2081 106.053 92.4425 106.392 92.7493 106.635C93.0561 106.874 93.429 106.993 93.8679 106.993C94.3111 106.993 94.6861 106.871 94.9929 106.629C95.2997 106.381 95.532 106.04 95.6896 105.606C95.8516 105.167 95.9325 104.662 95.9325 104.091C95.9325 103.524 95.8537 103.026 95.696 102.595C95.5384 102.165 95.3061 101.828 94.9993 101.585C94.6925 101.342 94.3153 101.221 93.8679 101.221C93.4247 101.221 93.0497 101.338 92.7429 101.572C92.4403 101.807 92.2081 102.139 92.0462 102.57C91.8842 103 91.8033 103.507 91.8033 104.091ZM103.253 95.9091V109H100.53V95.9091H103.253ZM109.87 109.192C108.877 109.192 108.019 108.981 107.294 108.559C106.574 108.133 106.018 107.54 105.626 106.782C105.234 106.019 105.038 105.135 105.038 104.129C105.038 103.115 105.234 102.229 105.626 101.47C106.018 100.707 106.574 100.115 107.294 99.6932C108.019 99.267 108.877 99.054 109.87 99.054C110.863 99.054 111.72 99.267 112.44 99.6932C113.164 100.115 113.723 100.707 114.115 101.47C114.507 102.229 114.703 103.115 114.703 104.129C114.703 105.135 114.507 106.019 114.115 106.782C113.723 107.54 113.164 108.133 112.44 108.559C111.72 108.981 110.863 109.192 109.87 109.192ZM109.883 107.082C110.335 107.082 110.712 106.955 111.015 106.699C111.317 106.439 111.545 106.085 111.699 105.638C111.856 105.19 111.935 104.681 111.935 104.11C111.935 103.539 111.856 103.03 111.699 102.582C111.545 102.135 111.317 101.781 111.015 101.521C110.712 101.261 110.335 101.131 109.883 101.131C109.427 101.131 109.044 101.261 108.733 101.521C108.426 101.781 108.194 102.135 108.036 102.582C107.882 103.03 107.806 103.539 107.806 104.11C107.806 104.681 107.882 105.19 108.036 105.638C108.194 106.085 108.426 106.439 108.733 106.699C109.044 106.955 109.427 107.082 109.883 107.082ZM116.525 109V95.9091H119.248V100.831H119.331C119.45 100.567 119.623 100.298 119.848 100.026C120.078 99.7486 120.377 99.5185 120.743 99.3352C121.114 99.1477 121.574 99.054 122.124 99.054C122.84 99.054 123.5 99.2415 124.105 99.6165C124.711 99.9872 125.194 100.548 125.556 101.298C125.919 102.043 126.1 102.979 126.1 104.104C126.1 105.199 125.923 106.124 125.569 106.878C125.22 107.628 124.743 108.197 124.137 108.585C123.537 108.968 122.863 109.16 122.118 109.16C121.589 109.16 121.14 109.072 120.769 108.898C120.402 108.723 120.102 108.504 119.868 108.239C119.633 107.971 119.454 107.7 119.331 107.428H119.209V109H116.525ZM119.19 104.091C119.19 104.675 119.271 105.184 119.433 105.619C119.595 106.053 119.829 106.392 120.136 106.635C120.443 106.874 120.816 106.993 121.255 106.993C121.698 106.993 122.073 106.871 122.38 106.629C122.686 106.381 122.919 106.04 123.076 105.606C123.238 105.167 123.319 104.662 123.319 104.091C123.319 103.524 123.24 103.026 123.083 102.595C122.925 102.165 122.693 101.828 122.386 101.585C122.079 101.342 121.702 101.221 121.255 101.221C120.811 101.221 120.436 101.338 120.13 101.572C119.827 101.807 119.595 102.139 119.433 102.57C119.271 103 119.19 103.507 119.19 104.091ZM134.034 102.544V104.705H128.064V102.544H134.034ZM139.077 95.9091V109H136.354V95.9091H139.077ZM141.259 109V99.1818H143.982V109H141.259ZM142.626 97.9162C142.222 97.9162 141.874 97.782 141.585 97.5135C141.299 97.2408 141.156 96.9148 141.156 96.5355C141.156 96.1605 141.299 95.8388 141.585 95.5703C141.874 95.2976 142.222 95.1612 142.626 95.1612C143.031 95.1612 143.376 95.2976 143.662 95.5703C143.952 95.8388 144.097 96.1605 144.097 96.5355C144.097 96.9148 143.952 97.2408 143.662 97.5135C143.376 97.782 143.031 97.9162 142.626 97.9162ZM151.385 99.1818V101.227H145.472V99.1818H151.385ZM146.815 96.8295H149.538V105.983C149.538 106.234 149.576 106.43 149.653 106.571C149.73 106.707 149.836 106.803 149.972 106.859C150.113 106.914 150.275 106.942 150.458 106.942C150.586 106.942 150.714 106.931 150.842 106.91C150.97 106.884 151.068 106.865 151.136 106.852L151.564 108.879C151.428 108.921 151.236 108.97 150.989 109.026C150.742 109.085 150.441 109.121 150.088 109.134C149.431 109.16 148.856 109.072 148.362 108.872C147.872 108.672 147.49 108.361 147.218 107.939C146.945 107.517 146.811 106.984 146.815 106.341V96.8295ZM157.528 109.192C156.518 109.192 155.649 108.987 154.92 108.578C154.195 108.165 153.637 107.581 153.245 106.827C152.853 106.068 152.657 105.171 152.657 104.136C152.657 103.126 152.853 102.239 153.245 101.477C153.637 100.714 154.189 100.119 154.901 99.6932C155.617 99.267 156.456 99.054 157.419 99.054C158.067 99.054 158.67 99.1584 159.228 99.3672C159.791 99.5717 160.281 99.8807 160.698 100.294C161.12 100.707 161.448 101.227 161.683 101.854C161.917 102.476 162.034 103.205 162.034 104.04V104.788H153.744V103.1H159.471C159.471 102.708 159.386 102.361 159.215 102.058C159.045 101.756 158.808 101.519 158.506 101.349C158.208 101.174 157.86 101.087 157.464 101.087C157.051 101.087 156.684 101.183 156.365 101.374C156.049 101.562 155.802 101.815 155.623 102.135C155.444 102.45 155.352 102.802 155.348 103.19V104.794C155.348 105.28 155.438 105.7 155.617 106.053C155.8 106.407 156.058 106.68 156.39 106.871C156.722 107.063 157.117 107.159 157.573 107.159C157.875 107.159 158.152 107.116 158.404 107.031C158.655 106.946 158.87 106.818 159.049 106.648C159.228 106.477 159.365 106.268 159.458 106.021L161.977 106.188C161.849 106.793 161.587 107.321 161.191 107.773C160.798 108.22 160.291 108.57 159.669 108.821C159.051 109.068 158.338 109.192 157.528 109.192ZM163.811 109V99.1818H166.451V100.895H166.553C166.732 100.286 167.033 99.8253 167.455 99.5142C167.877 99.1989 168.362 99.0412 168.912 99.0412C169.048 99.0412 169.195 99.0497 169.353 99.0668C169.511 99.0838 169.649 99.1072 169.769 99.1371V101.553C169.641 101.515 169.464 101.481 169.238 101.451C169.012 101.421 168.806 101.406 168.618 101.406C168.218 101.406 167.86 101.494 167.544 101.668C167.233 101.839 166.986 102.077 166.803 102.384C166.624 102.691 166.534 103.045 166.534 103.445V109H163.811ZM173.695 109.185C173.069 109.185 172.51 109.077 172.02 108.859C171.53 108.638 171.142 108.312 170.857 107.881C170.576 107.447 170.435 106.906 170.435 106.258C170.435 105.712 170.535 105.254 170.735 104.884C170.936 104.513 171.208 104.214 171.554 103.989C171.899 103.763 172.291 103.592 172.73 103.477C173.173 103.362 173.637 103.281 174.123 103.234C174.694 103.175 175.154 103.119 175.504 103.068C175.853 103.013 176.107 102.932 176.265 102.825C176.422 102.719 176.501 102.561 176.501 102.352V102.314C176.501 101.909 176.373 101.596 176.118 101.374C175.866 101.153 175.508 101.042 175.044 101.042C174.554 101.042 174.164 101.151 173.874 101.368C173.584 101.581 173.392 101.849 173.299 102.173L170.78 101.969C170.908 101.372 171.159 100.857 171.534 100.422C171.909 99.983 172.393 99.6463 172.985 99.4119C173.582 99.1733 174.272 99.054 175.056 99.054C175.602 99.054 176.124 99.1179 176.623 99.2457C177.125 99.3736 177.571 99.5717 177.958 99.8402C178.35 100.109 178.659 100.454 178.885 100.876C179.111 101.293 179.224 101.794 179.224 102.378V109H176.642V107.638H176.565C176.407 107.945 176.196 108.216 175.932 108.45C175.668 108.68 175.35 108.862 174.98 108.994C174.609 109.121 174.181 109.185 173.695 109.185ZM174.475 107.306C174.875 107.306 175.229 107.227 175.536 107.07C175.843 106.908 176.083 106.69 176.258 106.418C176.433 106.145 176.52 105.836 176.52 105.491V104.449C176.435 104.504 176.318 104.555 176.169 104.602C176.024 104.645 175.86 104.685 175.676 104.724C175.493 104.758 175.31 104.79 175.127 104.82C174.944 104.845 174.777 104.869 174.628 104.89C174.309 104.937 174.029 105.011 173.791 105.114C173.552 105.216 173.367 105.354 173.235 105.529C173.103 105.7 173.037 105.913 173.037 106.168C173.037 106.539 173.171 106.822 173.439 107.018C173.712 107.21 174.057 107.306 174.475 107.306ZM184.06 95.9091V109H181.337V95.9091H184.06Z" fill="black"/>
<rect x="73.5" y="86.5" width="125" height="32" rx="16" stroke="black"/>
<path d="M88.6392 184.191V181.909H99.3906V184.191H95.3828V195H92.647V184.191H88.6392ZM101.161 195V181.909H106.326C107.315 181.909 108.158 182.086 108.857 182.44C109.56 182.789 110.095 183.286 110.462 183.929C110.832 184.568 111.018 185.32 111.018 186.185C111.018 187.055 110.83 187.803 110.455 188.429C110.08 189.051 109.537 189.528 108.825 189.861C108.118 190.193 107.261 190.359 106.256 190.359H102.798V188.135H105.808C106.337 188.135 106.776 188.062 107.125 187.918C107.474 187.773 107.734 187.555 107.905 187.266C108.08 186.976 108.167 186.616 108.167 186.185C108.167 185.751 108.08 185.384 107.905 185.086C107.734 184.788 107.472 184.562 107.119 184.408C106.769 184.251 106.328 184.172 105.795 184.172H103.929V195H101.161ZM108.231 189.043L111.484 195H108.429L105.246 189.043H108.231ZM121.06 181.909H123.827V190.411C123.827 191.365 123.599 192.2 123.143 192.916C122.692 193.632 122.059 194.19 121.245 194.591C120.431 194.987 119.483 195.185 118.401 195.185C117.314 195.185 116.364 194.987 115.55 194.591C114.736 194.19 114.103 193.632 113.651 192.916C113.2 192.2 112.974 191.365 112.974 190.411V181.909H115.741V190.174C115.741 190.673 115.85 191.116 116.067 191.504C116.289 191.891 116.6 192.196 117.001 192.418C117.401 192.639 117.868 192.75 118.401 192.75C118.938 192.75 119.404 192.639 119.8 192.418C120.201 192.196 120.51 191.891 120.727 191.504C120.949 191.116 121.06 190.673 121.06 190.174V181.909ZM126.105 195V181.909H134.926V184.191H128.872V187.31H134.472V189.592H128.872V192.718H134.951V195H126.105Z" fill="black"/>
<rect x="73.5" y="172.5" width="79" height="32" rx="16" stroke="black"/>
<path d="M100.087 138.909V152H97.6967L92.0014 143.761H91.9055V152H89.1378V138.909H91.5668L97.2173 147.142H97.3324V138.909H100.087ZM110.46 138.909H113.228V147.411C113.228 148.365 113 149.2 112.544 149.916C112.092 150.632 111.459 151.19 110.645 151.591C109.831 151.987 108.883 152.185 107.801 152.185C106.714 152.185 105.764 151.987 104.95 151.591C104.136 151.19 103.503 150.632 103.052 149.916C102.6 149.2 102.374 148.365 102.374 147.411V138.909H105.142V147.174C105.142 147.673 105.251 148.116 105.468 148.504C105.689 148.891 106.001 149.196 106.401 149.418C106.802 149.639 107.268 149.75 107.801 149.75C108.338 149.75 108.805 149.639 109.201 149.418C109.601 149.196 109.91 148.891 110.128 148.504C110.349 148.116 110.46 147.673 110.46 147.174V138.909ZM115.505 152V138.909H118.273V149.718H123.885V152H115.505ZM125.718 152V138.909H128.486V149.718H134.098V152H125.718Z" fill="black"/>
<rect x="73.5" y="129.5" width="72" height="32" rx="16" stroke="black"/>
<path d="M91.8097 17.3239V23H89.0866V13.1818H91.6818V14.9141H91.7969C92.0142 14.343 92.3786 13.8913 92.8899 13.5589C93.4013 13.2223 94.0213 13.054 94.75 13.054C95.4318 13.054 96.0263 13.2031 96.5334 13.5014C97.0405 13.7997 97.4347 14.2259 97.7159 14.7798C97.9972 15.3295 98.1378 15.9858 98.1378 16.7486V23H95.4148V17.2344C95.419 16.6335 95.2656 16.1648 94.9545 15.8281C94.6435 15.4872 94.2152 15.3168 93.6697 15.3168C93.3033 15.3168 92.9794 15.3956 92.6982 15.5533C92.4212 15.7109 92.2038 15.9411 92.0462 16.2436C91.8928 16.5419 91.8139 16.902 91.8097 17.3239ZM106.58 18.8196V13.1818H109.303V23H106.689V21.2166H106.586C106.365 21.7919 105.996 22.2543 105.481 22.6037C104.969 22.9531 104.345 23.1278 103.608 23.1278C102.952 23.1278 102.374 22.9787 101.876 22.6804C101.377 22.3821 100.987 21.9581 100.706 21.4084C100.429 20.8587 100.288 20.2003 100.284 19.4332V13.1818H103.007V18.9474C103.011 19.527 103.167 19.9851 103.474 20.3217C103.78 20.6584 104.192 20.8267 104.707 20.8267C105.035 20.8267 105.342 20.7521 105.628 20.603C105.913 20.4496 106.143 20.2237 106.318 19.9254C106.497 19.6271 106.584 19.2585 106.58 18.8196ZM111.481 23V13.1818H114.076V14.9141H114.191C114.396 14.3388 114.737 13.8849 115.214 13.5526C115.691 13.2202 116.262 13.054 116.927 13.054C117.6 13.054 118.174 13.2223 118.647 13.5589C119.12 13.8913 119.435 14.343 119.593 14.9141H119.695C119.895 14.3516 120.257 13.902 120.782 13.5653C121.31 13.2244 121.934 13.054 122.654 13.054C123.571 13.054 124.314 13.3459 124.885 13.9297C125.461 14.5092 125.748 15.3317 125.748 16.397V23H123.032V16.9339C123.032 16.3885 122.887 15.9794 122.597 15.7067C122.307 15.4339 121.945 15.2976 121.51 15.2976C121.016 15.2976 120.63 15.4553 120.353 15.7706C120.076 16.0817 119.938 16.4929 119.938 17.0043V23H117.298V16.8764C117.298 16.3949 117.159 16.0114 116.882 15.7259C116.61 15.4403 116.25 15.2976 115.802 15.2976C115.5 15.2976 115.227 15.3743 114.984 15.5277C114.745 15.6768 114.556 15.8878 114.415 16.1605C114.275 16.429 114.204 16.7443 114.204 17.1065V23H111.481ZM132.374 23.1918C131.364 23.1918 130.494 22.9872 129.766 22.5781C129.041 22.1648 128.483 21.581 128.091 20.8267C127.699 20.0682 127.503 19.1712 127.503 18.1357C127.503 17.1257 127.699 16.2393 128.091 15.4766C128.483 14.7138 129.035 14.1193 129.746 13.6932C130.462 13.267 131.302 13.054 132.265 13.054C132.913 13.054 133.516 13.1584 134.074 13.3672C134.636 13.5717 135.126 13.8807 135.544 14.294C135.966 14.7074 136.294 15.2273 136.528 15.8537C136.763 16.4759 136.88 17.2045 136.88 18.0398V18.7876H128.589V17.1001H134.317C134.317 16.7081 134.232 16.3608 134.061 16.0582C133.891 15.7557 133.654 15.5192 133.352 15.3487C133.053 15.174 132.706 15.0866 132.31 15.0866C131.896 15.0866 131.53 15.1825 131.21 15.3743C130.895 15.5618 130.648 15.8153 130.469 16.1349C130.29 16.4503 130.198 16.8018 130.194 17.1896V18.794C130.194 19.2798 130.283 19.6996 130.462 20.0533C130.646 20.407 130.903 20.6797 131.236 20.8714C131.568 21.0632 131.962 21.1591 132.418 21.1591C132.721 21.1591 132.998 21.1165 133.249 21.0312C133.501 20.946 133.716 20.8182 133.895 20.6477C134.074 20.4773 134.21 20.2685 134.304 20.0213L136.822 20.1875C136.695 20.7926 136.433 21.321 136.036 21.7727C135.644 22.2202 135.137 22.5696 134.515 22.821C133.897 23.0682 133.183 23.1918 132.374 23.1918ZM138.657 23V13.1818H141.297V14.8949H141.399C141.578 14.2855 141.879 13.8253 142.3 13.5142C142.722 13.1989 143.208 13.0412 143.758 13.0412C143.894 13.0412 144.041 13.0497 144.199 13.0668C144.357 13.0838 144.495 13.1072 144.614 13.1371V15.5533C144.487 15.5149 144.31 15.4808 144.084 15.451C143.858 15.4212 143.651 15.4062 143.464 15.4062C143.063 15.4062 142.705 15.4936 142.39 15.6683C142.079 15.8388 141.832 16.0774 141.648 16.3842C141.469 16.6911 141.38 17.0447 141.38 17.4453V23H138.657ZM146.022 23V13.1818H148.745V23H146.022ZM147.39 11.9162C146.985 11.9162 146.638 11.782 146.348 11.5135C146.063 11.2408 145.92 10.9148 145.92 10.5355C145.92 10.1605 146.063 9.83878 146.348 9.57031C146.638 9.29758 146.985 9.16122 147.39 9.16122C147.795 9.16122 148.14 9.29758 148.426 9.57031C148.715 9.83878 148.86 10.1605 148.86 10.5355C148.86 10.9148 148.715 11.2408 148.426 11.5135C148.14 11.782 147.795 11.9162 147.39 11.9162ZM155.363 23.1918C154.357 23.1918 153.492 22.9787 152.767 22.5526C152.047 22.1222 151.493 21.5256 151.105 20.7628C150.722 20 150.53 19.1222 150.53 18.1293C150.53 17.1236 150.724 16.2415 151.112 15.483C151.504 14.7202 152.06 14.1257 152.78 13.6996C153.5 13.2692 154.357 13.054 155.35 13.054C156.206 13.054 156.956 13.2095 157.6 13.5206C158.243 13.8317 158.752 14.2685 159.127 14.831C159.502 15.3935 159.709 16.054 159.748 16.8125H157.178C157.105 16.3224 156.914 15.9283 156.603 15.63C156.296 15.3274 155.893 15.1761 155.395 15.1761C154.973 15.1761 154.604 15.2912 154.289 15.5213C153.978 15.7472 153.735 16.0774 153.56 16.5121C153.385 16.9467 153.298 17.473 153.298 18.0909C153.298 18.7173 153.383 19.25 153.554 19.6889C153.728 20.1278 153.973 20.4624 154.289 20.6925C154.604 20.9226 154.973 21.0376 155.395 21.0376C155.706 21.0376 155.985 20.9737 156.232 20.8459C156.483 20.718 156.69 20.5327 156.852 20.2898C157.018 20.0426 157.127 19.7464 157.178 19.4013H159.748C159.705 20.1513 159.5 20.8118 159.134 21.3828C158.772 21.9496 158.271 22.3928 157.632 22.7124C156.993 23.032 156.236 23.1918 155.363 23.1918ZM167.608 16.544V18.7045H161.638V16.544H167.608ZM172.651 9.90909V23H169.928V9.90909H172.651ZM174.833 23V13.1818H177.556V23H174.833ZM176.201 11.9162C175.796 11.9162 175.449 11.782 175.159 11.5135C174.873 11.2408 174.73 10.9148 174.73 10.5355C174.73 10.1605 174.873 9.83878 175.159 9.57031C175.449 9.29758 175.796 9.16122 176.201 9.16122C176.605 9.16122 176.951 9.29758 177.236 9.57031C177.526 9.83878 177.671 10.1605 177.671 10.5355C177.671 10.9148 177.526 11.2408 177.236 11.5135C176.951 11.782 176.605 11.9162 176.201 11.9162ZM184.959 13.1818V15.2273H179.047V13.1818H184.959ZM180.389 10.8295H183.112V19.983C183.112 20.2344 183.15 20.4304 183.227 20.571C183.304 20.7074 183.41 20.8033 183.547 20.8587C183.687 20.9141 183.849 20.9418 184.032 20.9418C184.16 20.9418 184.288 20.9311 184.416 20.9098C184.544 20.8842 184.642 20.8651 184.71 20.8523L185.138 22.8786C185.002 22.9212 184.81 22.9702 184.563 23.0256C184.316 23.0852 184.015 23.1214 183.662 23.1342C183.006 23.1598 182.43 23.0724 181.936 22.8722C181.446 22.6719 181.064 22.3608 180.792 21.9389C180.519 21.517 180.385 20.9844 180.389 20.3409V10.8295ZM191.102 23.1918C190.092 23.1918 189.223 22.9872 188.494 22.5781C187.77 22.1648 187.211 21.581 186.819 20.8267C186.427 20.0682 186.231 19.1712 186.231 18.1357C186.231 17.1257 186.427 16.2393 186.819 15.4766C187.211 14.7138 187.763 14.1193 188.475 13.6932C189.191 13.267 190.03 13.054 190.993 13.054C191.641 13.054 192.244 13.1584 192.802 13.3672C193.365 13.5717 193.855 13.8807 194.273 14.294C194.694 14.7074 195.023 15.2273 195.257 15.8537C195.491 16.4759 195.608 17.2045 195.608 18.0398V18.7876H187.318V17.1001H193.045C193.045 16.7081 192.96 16.3608 192.79 16.0582C192.619 15.7557 192.383 15.5192 192.08 15.3487C191.782 15.174 191.434 15.0866 191.038 15.0866C190.625 15.0866 190.258 15.1825 189.939 15.3743C189.623 15.5618 189.376 15.8153 189.197 16.1349C189.018 16.4503 188.927 16.8018 188.922 17.1896V18.794C188.922 19.2798 189.012 19.6996 189.191 20.0533C189.374 20.407 189.632 20.6797 189.964 20.8714C190.297 21.0632 190.691 21.1591 191.147 21.1591C191.449 21.1591 191.726 21.1165 191.978 21.0312C192.229 20.946 192.444 20.8182 192.623 20.6477C192.802 20.4773 192.939 20.2685 193.032 20.0213L195.551 20.1875C195.423 20.7926 195.161 21.321 194.765 21.7727C194.373 22.2202 193.866 22.5696 193.243 22.821C192.626 23.0682 191.912 23.1918 191.102 23.1918ZM197.385 23V13.1818H200.025V14.8949H200.128C200.307 14.2855 200.607 13.8253 201.029 13.5142C201.451 13.1989 201.937 13.0412 202.486 13.0412C202.623 13.0412 202.77 13.0497 202.927 13.0668C203.085 13.0838 203.224 13.1072 203.343 13.1371V15.5533C203.215 15.5149 203.038 15.4808 202.812 15.451C202.586 15.4212 202.38 15.4062 202.192 15.4062C201.792 15.4062 201.434 15.4936 201.118 15.6683C200.807 15.8388 200.56 16.0774 200.377 16.3842C200.198 16.6911 200.108 17.0447 200.108 17.4453V23H197.385ZM207.269 23.1854C206.643 23.1854 206.085 23.0767 205.594 22.8594C205.104 22.6378 204.717 22.3118 204.431 21.8814C204.15 21.4467 204.009 20.9055 204.009 20.2578C204.009 19.7124 204.109 19.2543 204.31 18.8835C204.51 18.5128 204.783 18.2145 205.128 17.9886C205.473 17.7628 205.865 17.5923 206.304 17.4773C206.747 17.3622 207.212 17.2812 207.697 17.2344C208.268 17.1747 208.729 17.1193 209.078 17.0682C209.428 17.0128 209.681 16.9318 209.839 16.8253C209.996 16.7187 210.075 16.5611 210.075 16.3523V16.3139C210.075 15.9091 209.947 15.5959 209.692 15.3743C209.44 15.1527 209.082 15.0419 208.618 15.0419C208.128 15.0419 207.738 15.1506 207.448 15.3679C207.158 15.581 206.967 15.8494 206.873 16.1733L204.354 15.9688C204.482 15.3722 204.734 14.8565 205.109 14.4219C205.484 13.983 205.967 13.6463 206.56 13.4119C207.156 13.1733 207.847 13.054 208.631 13.054C209.176 13.054 209.698 13.1179 210.197 13.2457C210.7 13.3736 211.145 13.5717 211.533 13.8402C211.925 14.1087 212.234 14.4538 212.46 14.8757C212.685 15.2933 212.798 15.794 212.798 16.3778V23H210.216V21.6385H210.139C209.982 21.9453 209.771 22.2159 209.506 22.4503C209.242 22.6804 208.925 22.8615 208.554 22.9936C208.183 23.1214 207.755 23.1854 207.269 23.1854ZM208.049 21.3061C208.45 21.3061 208.803 21.2273 209.11 21.0696C209.417 20.9077 209.658 20.6903 209.832 20.4176C210.007 20.1449 210.094 19.8359 210.094 19.4908V18.4489C210.009 18.5043 209.892 18.5554 209.743 18.6023C209.598 18.6449 209.434 18.6854 209.251 18.7237C209.067 18.7578 208.884 18.7898 208.701 18.8196C208.518 18.8452 208.352 18.8686 208.202 18.8899C207.883 18.9368 207.604 19.0114 207.365 19.1136C207.126 19.2159 206.941 19.3544 206.809 19.5291C206.677 19.6996 206.611 19.9126 206.611 20.1683C206.611 20.5391 206.745 20.8224 207.013 21.0185C207.286 21.2102 207.631 21.3061 208.049 21.3061ZM217.634 9.90909V23H214.911V9.90909H217.634Z" fill="black"/>
<rect x="73.5" y="0.5" width="159" height="32" rx="16" stroke="black"/>
<path d="M97.2557 58.9815L94.7628 59.1349C94.7202 58.9219 94.6286 58.7301 94.4879 58.5597C94.3473 58.3849 94.1619 58.2464 93.9318 58.1442C93.706 58.0376 93.4354 57.9844 93.12 57.9844C92.6982 57.9844 92.3423 58.0739 92.0526 58.2528C91.7628 58.4276 91.6179 58.6619 91.6179 58.956C91.6179 59.1903 91.7116 59.3885 91.8991 59.5504C92.0866 59.7124 92.4084 59.8423 92.8643 59.9403L94.6413 60.2983C95.5959 60.4943 96.3075 60.8097 96.7763 61.2443C97.245 61.679 97.4794 62.25 97.4794 62.9574C97.4794 63.6009 97.2898 64.1655 96.9105 64.6513C96.5355 65.1371 96.0199 65.5163 95.3636 65.7891C94.7116 66.0575 93.9595 66.1918 93.1072 66.1918C91.8075 66.1918 90.772 65.9212 90.0007 65.38C89.2337 64.8345 88.7841 64.093 88.652 63.1555L91.3303 63.0149C91.4112 63.4112 91.6072 63.7138 91.9183 63.9226C92.2294 64.1271 92.6278 64.2294 93.1136 64.2294C93.5909 64.2294 93.9744 64.1378 94.2642 63.9545C94.5582 63.767 94.7074 63.5263 94.7116 63.2322C94.7074 62.9851 94.603 62.7827 94.3984 62.625C94.1939 62.4631 93.8786 62.3395 93.4524 62.2543L91.7521 61.9155C90.7933 61.7237 90.0795 61.3913 89.6108 60.9183C89.1463 60.4453 88.9141 59.8423 88.9141 59.1094C88.9141 58.4787 89.0845 57.9354 89.4254 57.4794C89.7706 57.0234 90.2543 56.6719 90.8764 56.4247C91.5028 56.1776 92.2358 56.054 93.0753 56.054C94.3153 56.054 95.2912 56.3161 96.0028 56.8402C96.7188 57.3643 97.1364 58.0781 97.2557 58.9815ZM104.416 56.1818V58.2273H98.5037V56.1818H104.416ZM99.8461 53.8295H102.569V62.983C102.569 63.2344 102.607 63.4304 102.684 63.571C102.761 63.7074 102.867 63.8033 103.004 63.8587C103.144 63.9141 103.306 63.9418 103.49 63.9418C103.617 63.9418 103.745 63.9311 103.873 63.9098C104.001 63.8842 104.099 63.8651 104.167 63.8523L104.595 65.8786C104.459 65.9212 104.267 65.9702 104.02 66.0256C103.773 66.0852 103.472 66.1214 103.119 66.1342C102.463 66.1598 101.887 66.0724 101.393 65.8722C100.903 65.6719 100.521 65.3608 100.249 64.9389C99.976 64.517 99.8418 63.9844 99.8461 63.3409V53.8295ZM106.19 66V56.1818H108.83V57.8949H108.932C109.111 57.2855 109.412 56.8253 109.834 56.5142C110.256 56.1989 110.741 56.0412 111.291 56.0412C111.427 56.0412 111.574 56.0497 111.732 56.0668C111.89 56.0838 112.028 56.1072 112.148 56.1371V58.5533C112.02 58.5149 111.843 58.4808 111.617 58.451C111.391 58.4212 111.184 58.4062 110.997 58.4062C110.596 58.4062 110.238 58.4936 109.923 58.6683C109.612 58.8388 109.365 59.0774 109.182 59.3842C109.003 59.6911 108.913 60.0447 108.913 60.4453V66H106.19ZM113.555 66V56.1818H116.278V66H113.555ZM114.923 54.9162C114.518 54.9162 114.171 54.782 113.881 54.5135C113.596 54.2408 113.453 53.9148 113.453 53.5355C113.453 53.1605 113.596 52.8388 113.881 52.5703C114.171 52.2976 114.518 52.1612 114.923 52.1612C115.328 52.1612 115.673 52.2976 115.959 52.5703C116.249 52.8388 116.393 53.1605 116.393 53.5355C116.393 53.9148 116.249 54.2408 115.959 54.5135C115.673 54.782 115.328 54.9162 114.923 54.9162ZM121.183 60.3239V66H118.46V56.1818H121.055V57.9141H121.17C121.387 57.343 121.752 56.8913 122.263 56.5589C122.774 56.2223 123.394 56.054 124.123 56.054C124.805 56.054 125.399 56.2031 125.906 56.5014C126.414 56.7997 126.808 57.2259 127.089 57.7798C127.37 58.3295 127.511 58.9858 127.511 59.7486V66H124.788V60.2344C124.792 59.6335 124.639 59.1648 124.328 58.8281C124.017 58.4872 123.588 58.3168 123.043 58.3168C122.676 58.3168 122.352 58.3956 122.071 58.5533C121.794 58.7109 121.577 58.9411 121.419 59.2436C121.266 59.5419 121.187 59.902 121.183 60.3239ZM134.08 69.8864C133.198 69.8864 132.442 69.7649 131.811 69.522C131.185 69.2834 130.686 68.9574 130.315 68.544C129.945 68.1307 129.704 67.6662 129.593 67.1506L132.112 66.8118C132.188 67.0078 132.31 67.1911 132.476 67.3615C132.642 67.532 132.862 67.6683 133.134 67.7706C133.411 67.8771 133.748 67.9304 134.144 67.9304C134.737 67.9304 135.224 67.7855 135.608 67.4957C135.996 67.2102 136.19 66.7308 136.19 66.0575V64.2614H136.075C135.955 64.5341 135.776 64.7919 135.538 65.0348C135.299 65.2777 134.992 65.4759 134.617 65.6293C134.242 65.7827 133.795 65.8594 133.275 65.8594C132.538 65.8594 131.866 65.6889 131.261 65.348C130.661 65.0028 130.181 64.4766 129.823 63.7692C129.469 63.0575 129.293 62.1584 129.293 61.0717C129.293 59.9595 129.474 59.0305 129.836 58.2848C130.198 57.5391 130.68 56.9808 131.281 56.6101C131.886 56.2393 132.548 56.054 133.268 56.054C133.818 56.054 134.278 56.1477 134.649 56.3352C135.02 56.5185 135.318 56.7486 135.544 57.0256C135.774 57.2983 135.951 57.5668 136.075 57.831H136.177V56.1818H138.881V66.0959C138.881 66.9311 138.676 67.63 138.267 68.1925C137.858 68.755 137.291 69.1768 136.567 69.4581C135.847 69.7436 135.018 69.8864 134.08 69.8864ZM134.138 63.8139C134.577 63.8139 134.947 63.7053 135.25 63.4879C135.557 63.2663 135.791 62.951 135.953 62.5419C136.119 62.1286 136.202 61.6342 136.202 61.0589C136.202 60.4837 136.121 59.9851 135.96 59.5632C135.798 59.1371 135.563 58.8068 135.256 58.5724C134.95 58.3381 134.577 58.2209 134.138 58.2209C133.69 58.2209 133.313 58.3423 133.006 58.5852C132.7 58.8239 132.467 59.1562 132.31 59.5824C132.152 60.0085 132.073 60.5007 132.073 61.0589C132.073 61.6257 132.152 62.1158 132.31 62.5291C132.472 62.9382 132.704 63.2557 133.006 63.4815C133.313 63.7031 133.69 63.8139 134.138 63.8139ZM147.165 59.544V61.7045H141.195V59.544H147.165ZM152.208 52.9091V66H149.485V52.9091H152.208ZM154.389 66V56.1818H157.112V66H154.389ZM155.757 54.9162C155.352 54.9162 155.005 54.782 154.715 54.5135C154.43 54.2408 154.287 53.9148 154.287 53.5355C154.287 53.1605 154.43 52.8388 154.715 52.5703C155.005 52.2976 155.352 52.1612 155.757 52.1612C156.162 52.1612 156.507 52.2976 156.793 52.5703C157.083 52.8388 157.227 53.1605 157.227 53.5355C157.227 53.9148 157.083 54.2408 156.793 54.5135C156.507 54.782 156.162 54.9162 155.757 54.9162ZM164.516 56.1818V58.2273H158.603V56.1818H164.516ZM159.946 53.8295H162.669V62.983C162.669 63.2344 162.707 63.4304 162.784 63.571C162.86 63.7074 162.967 63.8033 163.103 63.8587C163.244 63.9141 163.406 63.9418 163.589 63.9418C163.717 63.9418 163.845 63.9311 163.973 63.9098C164.1 63.8842 164.199 63.8651 164.267 63.8523L164.695 65.8786C164.559 65.9212 164.367 65.9702 164.12 66.0256C163.873 66.0852 163.572 66.1214 163.218 66.1342C162.562 66.1598 161.987 66.0724 161.493 65.8722C161.002 65.6719 160.621 65.3608 160.348 64.9389C160.076 64.517 159.941 63.9844 159.946 63.3409V53.8295ZM170.659 66.1918C169.649 66.1918 168.779 65.9872 168.051 65.5781C167.326 65.1648 166.768 64.581 166.376 63.8267C165.984 63.0682 165.788 62.1712 165.788 61.1357C165.788 60.1257 165.984 59.2393 166.376 58.4766C166.768 57.7138 167.32 57.1193 168.032 56.6932C168.748 56.267 169.587 56.054 170.55 56.054C171.198 56.054 171.801 56.1584 172.359 56.3672C172.922 56.5717 173.412 56.8807 173.829 57.294C174.251 57.7074 174.579 58.2273 174.814 58.8537C175.048 59.4759 175.165 60.2045 175.165 61.0398V61.7876H166.875V60.1001H172.602C172.602 59.7081 172.517 59.3608 172.346 59.0582C172.176 58.7557 171.939 58.5192 171.637 58.3487C171.338 58.174 170.991 58.0866 170.595 58.0866C170.181 58.0866 169.815 58.1825 169.495 58.3743C169.18 58.5618 168.933 58.8153 168.754 59.1349C168.575 59.4503 168.483 59.8018 168.479 60.1896V61.794C168.479 62.2798 168.569 62.6996 168.748 63.0533C168.931 63.407 169.189 63.6797 169.521 63.8714C169.853 64.0632 170.248 64.1591 170.703 64.1591C171.006 64.1591 171.283 64.1165 171.534 64.0312C171.786 63.946 172.001 63.8182 172.18 63.6477C172.359 63.4773 172.495 63.2685 172.589 63.0213L175.108 63.1875C174.98 63.7926 174.718 64.321 174.321 64.7727C173.929 65.2202 173.422 65.5696 172.8 65.821C172.182 66.0682 171.468 66.1918 170.659 66.1918ZM176.942 66V56.1818H179.582V57.8949H179.684C179.863 57.2855 180.164 56.8253 180.586 56.5142C181.007 56.1989 181.493 56.0412 182.043 56.0412C182.179 56.0412 182.326 56.0497 182.484 56.0668C182.642 56.0838 182.78 56.1072 182.9 56.1371V58.5533C182.772 58.5149 182.595 58.4808 182.369 58.451C182.143 58.4212 181.936 58.4062 181.749 58.4062C181.348 58.4062 180.99 58.4936 180.675 58.6683C180.364 58.8388 180.117 59.0774 179.934 59.3842C179.755 59.6911 179.665 60.0447 179.665 60.4453V66H176.942ZM186.826 66.1854C186.199 66.1854 185.641 66.0767 185.151 65.8594C184.661 65.6378 184.273 65.3118 183.988 64.8814C183.706 64.4467 183.566 63.9055 183.566 63.2578C183.566 62.7124 183.666 62.2543 183.866 61.8835C184.067 61.5128 184.339 61.2145 184.684 60.9886C185.03 60.7628 185.422 60.5923 185.861 60.4773C186.304 60.3622 186.768 60.2812 187.254 60.2344C187.825 60.1747 188.285 60.1193 188.635 60.0682C188.984 60.0128 189.238 59.9318 189.395 59.8253C189.553 59.7187 189.632 59.5611 189.632 59.3523V59.3139C189.632 58.9091 189.504 58.5959 189.248 58.3743C188.997 58.1527 188.639 58.0419 188.175 58.0419C187.684 58.0419 187.295 58.1506 187.005 58.3679C186.715 58.581 186.523 58.8494 186.43 59.1733L183.911 58.9688C184.039 58.3722 184.29 57.8565 184.665 57.4219C185.04 56.983 185.524 56.6463 186.116 56.4119C186.713 56.1733 187.403 56.054 188.187 56.054C188.733 56.054 189.255 56.1179 189.753 56.2457C190.256 56.3736 190.702 56.5717 191.089 56.8402C191.481 57.1087 191.79 57.4538 192.016 57.8757C192.242 58.2933 192.355 58.794 192.355 59.3778V66H189.773V64.6385H189.696C189.538 64.9453 189.327 65.2159 189.063 65.4503C188.799 65.6804 188.481 65.8615 188.111 65.9936C187.74 66.1214 187.312 66.1854 186.826 66.1854ZM187.606 64.3061C188.006 64.3061 188.36 64.2273 188.667 64.0696C188.974 63.9077 189.214 63.6903 189.389 63.4176C189.564 63.1449 189.651 62.8359 189.651 62.4908V61.4489C189.566 61.5043 189.449 61.5554 189.3 61.6023C189.155 61.6449 188.991 61.6854 188.807 61.7237C188.624 61.7578 188.441 61.7898 188.258 61.8196C188.074 61.8452 187.908 61.8686 187.759 61.8899C187.439 61.9368 187.16 62.0114 186.922 62.1136C186.683 62.2159 186.498 62.3544 186.366 62.5291C186.233 62.6996 186.167 62.9126 186.167 63.1683C186.167 63.5391 186.302 63.8224 186.57 64.0185C186.843 64.2102 187.188 64.3061 187.606 64.3061ZM197.191 52.9091V66H194.468V52.9091H197.191Z" fill="black"/>
<rect x="73.5" y="43.5" width="139" height="32" rx="16" stroke="black"/>
<path d="M89.1378 238V224.909H97.8054V227.191H91.9055V230.31H97.2301V232.592H91.9055V238H89.1378ZM100.289 238H97.3228L101.842 224.909H105.409L109.922 238H106.956L103.676 227.901H103.574L100.289 238ZM100.103 232.854H107.109V235.015H100.103V232.854ZM111.497 238V224.909H114.265V235.718H119.877V238H111.497ZM128.812 228.674C128.76 228.158 128.541 227.758 128.153 227.472C127.765 227.187 127.239 227.044 126.574 227.044C126.123 227.044 125.741 227.108 125.43 227.236C125.119 227.359 124.881 227.532 124.714 227.754C124.552 227.975 124.471 228.227 124.471 228.508C124.463 228.742 124.512 228.947 124.618 229.121C124.729 229.296 124.881 229.447 125.072 229.575C125.264 229.699 125.486 229.808 125.737 229.901C125.988 229.991 126.257 230.067 126.542 230.131L127.719 230.413C128.29 230.54 128.814 230.711 129.291 230.924C129.768 231.137 130.182 231.399 130.531 231.71C130.881 232.021 131.151 232.388 131.343 232.81C131.539 233.232 131.639 233.715 131.643 234.261C131.639 235.062 131.434 235.756 131.03 236.344C130.629 236.928 130.05 237.382 129.291 237.706C128.537 238.026 127.627 238.185 126.562 238.185C125.505 238.185 124.584 238.023 123.8 237.7C123.02 237.376 122.411 236.896 121.972 236.261C121.537 235.622 121.309 234.832 121.288 233.89H123.966C123.996 234.329 124.122 234.695 124.344 234.989C124.569 235.279 124.87 235.499 125.245 235.648C125.624 235.793 126.052 235.865 126.53 235.865C126.998 235.865 127.405 235.797 127.751 235.661C128.1 235.524 128.371 235.335 128.562 235.092C128.754 234.849 128.85 234.57 128.85 234.254C128.85 233.96 128.763 233.713 128.588 233.513C128.417 233.312 128.166 233.142 127.834 233.001C127.506 232.861 127.103 232.733 126.626 232.618L125.2 232.26C124.096 231.991 123.225 231.572 122.586 231.001C121.947 230.43 121.629 229.661 121.633 228.693C121.629 227.901 121.84 227.208 122.266 226.616C122.697 226.023 123.287 225.561 124.037 225.229C124.787 224.896 125.639 224.73 126.594 224.73C127.565 224.73 128.413 224.896 129.138 225.229C129.866 225.561 130.433 226.023 130.838 226.616C131.243 227.208 131.452 227.894 131.464 228.674H128.812ZM133.505 238V224.909H142.326V227.191H136.273V230.31H141.872V232.592H136.273V235.718H142.352V238H133.505Z" fill="black"/>
<rect x="73.5" y="215.5" width="83" height="32" rx="16" stroke="black"/>
<path d="M73 17L63 11.2265V22.7735L73 17ZM12.5 18L64 18V16L12.5 16V18Z" fill="black"/>
<path d="M293.5 17L283.5 11.2265V22.7735L293.5 17ZM233 18L284.5 18V16L233 16V18Z" fill="black"/>
<path d="M213 60L258.376 60C263.899 60 268.376 55.5228 268.376 50V27C268.376 21.4772 272.853 17 278.376 17H280" stroke="black" stroke-width="2"/>
<path d="M146 146L258.333 146C263.856 146 268.333 141.523 268.333 136V27C268.333 21.4771 272.81 17 278.333 17H280" stroke="black" stroke-width="2"/>
<path d="M153 189L258.333 189C263.856 189 268.333 184.523 268.333 179L268.333 27C268.333 21.4772 272.81 17 278.333 17H280" stroke="black" stroke-width="2"/>
<path d="M156 230L258.286 230C263.808 230 268.286 225.523 268.286 220L268.286 27C268.286 21.4772 272.763 17 278.286 17L280 17" stroke="black" stroke-width="2"/>
<path d="M199 103L233.652 103H258.304C263.827 103 268.304 98.5228 268.304 93V27C268.304 21.4772 272.781 17 278.304 17L280 17" stroke="black" stroke-width="2"/>
</svg>
