<svg width="847" height="160" viewBox="0 0 847 160" fill="none" xmlns="http://www.w3.org/2000/svg">
<path d="M5.52273 18.1918C4.52983 18.1918 3.67116 17.9808 2.94673 17.5589C2.22656 17.1328 1.67045 16.5405 1.27841 15.782C0.886364 15.0192 0.690341 14.1349 0.690341 13.1293C0.690341 12.1151 0.886364 11.2287 1.27841 10.4702C1.67045 9.70739 2.22656 9.11506 2.94673 8.69318C3.67116 8.26705 4.52983 8.05398 5.52273 8.05398C6.51562 8.05398 7.37216 8.26705 8.09233 8.69318C8.81676 9.11506 9.375 9.70739 9.76705 10.4702C10.1591 11.2287 10.3551 12.1151 10.3551 13.1293C10.3551 14.1349 10.1591 15.0192 9.76705 15.782C9.375 16.5405 8.81676 17.1328 8.09233 17.5589C7.37216 17.9808 6.51562 18.1918 5.52273 18.1918ZM5.53551 16.0824C5.98722 16.0824 6.36435 15.9545 6.6669 15.6989C6.96946 15.4389 7.19744 15.0852 7.35085 14.6378C7.50852 14.1903 7.58736 13.6811 7.58736 13.1101C7.58736 12.5391 7.50852 12.0298 7.35085 11.5824C7.19744 11.1349 6.96946 10.7812 6.6669 10.5213C6.36435 10.2614 5.98722 10.1314 5.53551 10.1314C5.07955 10.1314 4.69602 10.2614 4.38494 10.5213C4.07813 10.7812 3.84588 11.1349 3.68821 11.5824C3.5348 12.0298 3.4581 12.5391 3.4581 13.1101C3.4581 13.6811 3.5348 14.1903 3.68821 14.6378C3.84588 15.0852 4.07813 15.4389 4.38494 15.6989C4.69602 15.9545 5.07955 16.0824 5.53551 16.0824ZM12.1257 18V8.18182H14.7656V9.89489H14.8679C15.0469 9.28551 15.3473 8.82528 15.7692 8.5142C16.1911 8.19886 16.6768 8.04119 17.2266 8.04119C17.3629 8.04119 17.5099 8.04972 17.6676 8.06676C17.8253 8.08381 17.9638 8.10724 18.0831 8.13707V10.5533C17.9553 10.5149 17.7784 10.4808 17.5526 10.451C17.3267 10.4212 17.12 10.4062 16.9325 10.4062C16.532 10.4062 16.174 10.4936 15.8587 10.6683C15.5476 10.8388 15.3004 11.0774 15.1172 11.3842C14.9382 11.6911 14.8487 12.0447 14.8487 12.4453V18H12.1257ZM22.6518 18.1598C21.9061 18.1598 21.2306 17.968 20.6255 17.5845C20.0247 17.1967 19.5474 16.6278 19.1937 15.8778C18.8443 15.1236 18.6696 14.1989 18.6696 13.1037C18.6696 11.9787 18.8507 11.0433 19.2129 10.2976C19.5751 9.54759 20.0566 8.98722 20.6575 8.61648C21.2626 8.24148 21.9252 8.05398 22.6454 8.05398C23.1951 8.05398 23.6532 8.14773 24.0197 8.33523C24.3904 8.51847 24.6887 8.74858 24.9146 9.02557C25.1447 9.2983 25.3194 9.56676 25.4387 9.83097H25.5218V4.90909H28.2385V18H25.5538V16.4276H25.4387C25.3109 16.7003 25.1298 16.9709 24.8954 17.2393C24.6653 17.5036 24.3649 17.723 23.9941 17.8977C23.6277 18.0724 23.1802 18.1598 22.6518 18.1598ZM23.5147 15.9929C23.9537 15.9929 24.3244 15.8736 24.627 15.6349C24.9338 15.392 25.1681 15.0533 25.3301 14.6186C25.4963 14.1839 25.5794 13.6747 25.5794 13.0909C25.5794 12.5071 25.4984 12 25.3365 11.5696C25.1745 11.1392 24.9402 10.8068 24.6333 10.5724C24.3265 10.3381 23.9537 10.2209 23.5147 10.2209C23.0673 10.2209 22.6902 10.3423 22.3833 10.5852C22.0765 10.8281 21.8443 11.1648 21.6866 11.5952C21.5289 12.0256 21.4501 12.5241 21.4501 13.0909C21.4501 13.6619 21.5289 14.1669 21.6866 14.6058C21.8485 15.0405 22.0808 15.3814 22.3833 15.6286C22.6902 15.8714 23.0673 15.9929 23.5147 15.9929ZM34.9517 18.1918C33.9418 18.1918 33.0724 17.9872 32.3438 17.5781C31.6193 17.1648 31.0611 16.581 30.669 15.8267C30.277 15.0682 30.081 14.1712 30.081 13.1357C30.081 12.1257 30.277 11.2393 30.669 10.4766C31.0611 9.71378 31.6129 9.11932 32.3246 8.69318C33.0405 8.26705 33.88 8.05398 34.843 8.05398C35.4908 8.05398 36.0938 8.15838 36.652 8.36719C37.2145 8.57173 37.7045 8.88068 38.1222 9.29403C38.544 9.70739 38.8722 10.2273 39.1065 10.8537C39.3409 11.4759 39.4581 12.2045 39.4581 13.0398V13.7876H31.1676V12.1001H36.8949C36.8949 11.7081 36.8097 11.3608 36.6392 11.0582C36.4688 10.7557 36.2322 10.5192 35.9297 10.3487C35.6314 10.174 35.2841 10.0866 34.8878 10.0866C34.4744 10.0866 34.108 10.1825 33.7884 10.3743C33.473 10.5618 33.2259 10.8153 33.0469 11.1349C32.8679 11.4503 32.7763 11.8018 32.772 12.1896V13.794C32.772 14.2798 32.8615 14.6996 33.0405 15.0533C33.2237 15.407 33.4815 15.6797 33.8139 15.8714C34.1463 16.0632 34.5405 16.1591 34.9964 16.1591C35.299 16.1591 35.576 16.1165 35.8274 16.0312C36.0788 15.946 36.294 15.8182 36.473 15.6477C36.652 15.4773 36.7884 15.2685 36.8821 15.0213L39.4006 15.1875C39.2727 15.7926 39.0107 16.321 38.6143 16.7727C38.2223 17.2202 37.7152 17.5696 37.093 17.821C36.4751 18.0682 35.7614 18.1918 34.9517 18.1918ZM41.2351 18V8.18182H43.875V9.89489H43.9773C44.1563 9.28551 44.4567 8.82528 44.8786 8.5142C45.3004 8.19886 45.7862 8.04119 46.3359 8.04119C46.4723 8.04119 46.6193 8.04972 46.777 8.06676C46.9347 8.08381 47.0732 8.10724 47.1925 8.13707V10.5533C47.0646 10.5149 46.8878 10.4808 46.6619 10.451C46.4361 10.4212 46.2294 10.4062 46.0419 10.4062C45.6413 10.4062 45.2834 10.4936 44.968 10.6683C44.657 10.8388 44.4098 11.0774 44.2266 11.3842C44.0476 11.6911 43.9581 12.0447 43.9581 12.4453V18H41.2351ZM48.6003 18V8.18182H51.3233V18H48.6003ZM49.9682 6.91619C49.5634 6.91619 49.2161 6.78196 48.9263 6.51349C48.6408 6.24077 48.498 5.91477 48.498 5.53551C48.498 5.16051 48.6408 4.83878 48.9263 4.57031C49.2161 4.29758 49.5634 4.16122 49.9682 4.16122C50.373 4.16122 50.7182 4.29758 51.0037 4.57031C51.2935 4.83878 51.4384 5.16051 51.4384 5.53551C51.4384 5.91477 51.2935 6.24077 51.0037 6.51349C50.7182 6.78196 50.373 6.91619 49.9682 6.91619ZM56.2276 12.3239V18H53.5046V8.18182H56.0998V9.91406H56.2148C56.4322 9.34304 56.7965 8.89133 57.3079 8.55895C57.8192 8.2223 58.4393 8.05398 59.168 8.05398C59.8498 8.05398 60.4442 8.20312 60.9513 8.50142C61.4585 8.79972 61.8526 9.22585 62.1339 9.77983C62.4151 10.3295 62.5558 10.9858 62.5558 11.7486V18H59.8327V12.2344C59.837 11.6335 59.6836 11.1648 59.3725 10.8281C59.0614 10.4872 58.6332 10.3168 58.0877 10.3168C57.7212 10.3168 57.3974 10.3956 57.1161 10.5533C56.8391 10.7109 56.6218 10.9411 56.4641 11.2436C56.3107 11.5419 56.2319 11.902 56.2276 12.3239ZM69.1252 21.8864C68.2431 21.8864 67.4867 21.7649 66.856 21.522C66.2296 21.2834 65.731 20.9574 65.3603 20.544C64.9895 20.1307 64.7488 19.6662 64.638 19.1506L67.1564 18.8118C67.2331 19.0078 67.3546 19.1911 67.5208 19.3615C67.687 19.532 67.9064 19.6683 68.1792 19.7706C68.4561 19.8771 68.7928 19.9304 69.1891 19.9304C69.7814 19.9304 70.2694 19.7855 70.6529 19.4957C71.0407 19.2102 71.2346 18.7308 71.2346 18.0575V16.2614H71.1195C71.0002 16.5341 70.8212 16.7919 70.5826 17.0348C70.3439 17.2777 70.0371 17.4759 69.6621 17.6293C69.2871 17.7827 68.8397 17.8594 68.3198 17.8594C67.5826 17.8594 66.9114 17.6889 66.3063 17.348C65.7054 17.0028 65.226 16.4766 64.8681 15.7692C64.5144 15.0575 64.3375 14.1584 64.3375 13.0717C64.3375 11.9595 64.5186 11.0305 64.8809 10.2848C65.2431 9.53906 65.7246 8.98082 66.3255 8.61009C66.9306 8.23935 67.5932 8.05398 68.3134 8.05398C68.8631 8.05398 69.3233 8.14773 69.6941 8.33523C70.0648 8.51847 70.3631 8.74858 70.589 9.02557C70.8191 9.2983 70.9959 9.56676 71.1195 9.83097H71.2218V8.18182H73.9256V18.0959C73.9256 18.9311 73.7211 19.63 73.312 20.1925C72.9029 20.755 72.3361 21.1768 71.6117 21.4581C70.8915 21.7436 70.0627 21.8864 69.1252 21.8864ZM69.1827 15.8139C69.6216 15.8139 69.9924 15.7053 70.2949 15.4879C70.6017 15.2663 70.8361 14.951 70.998 14.5419C71.1642 14.1286 71.2473 13.6342 71.2473 13.0589C71.2473 12.4837 71.1664 11.9851 71.0044 11.5632C70.8425 11.1371 70.6081 10.8068 70.3013 10.5724C69.9945 10.3381 69.6216 10.2209 69.1827 10.2209C68.7353 10.2209 68.3581 10.3423 68.0513 10.5852C67.7445 10.8239 67.5123 11.1562 67.3546 11.5824C67.1969 12.0085 67.1181 12.5007 67.1181 13.0589C67.1181 13.6257 67.1969 14.1158 67.3546 14.5291C67.5165 14.9382 67.7488 15.2557 68.0513 15.4815C68.3581 15.7031 68.7353 15.8139 69.1827 15.8139ZM82.2097 11.544V13.7045H76.2395V11.544H82.2097ZM89.7523 8.18182V10.2273H83.8397V8.18182H89.7523ZM85.182 5.82955H87.905V14.983C87.905 15.2344 87.9434 15.4304 88.0201 15.571C88.0968 15.7074 88.2033 15.8033 88.3397 15.8587C88.4803 15.9141 88.6422 15.9418 88.8255 15.9418C88.9533 15.9418 89.0811 15.9311 89.209 15.9098C89.3368 15.8842 89.4348 15.8651 89.503 15.8523L89.9313 17.8786C89.7949 17.9212 89.6032 17.9702 89.356 18.0256C89.1088 18.0852 88.8084 18.1214 88.4547 18.1342C87.7985 18.1598 87.2232 18.0724 86.7289 17.8722C86.2388 17.6719 85.8574 17.3608 85.5847 16.9389C85.312 16.517 85.1777 15.9844 85.182 15.3409V5.82955ZM95.8951 18.1918C94.8851 18.1918 94.0158 17.9872 93.2871 17.5781C92.5627 17.1648 92.0044 16.581 91.6124 15.8267C91.2203 15.0682 91.0243 14.1712 91.0243 13.1357C91.0243 12.1257 91.2203 11.2393 91.6124 10.4766C92.0044 9.71378 92.5563 9.11932 93.2679 8.69318C93.9838 8.26705 94.8233 8.05398 95.7864 8.05398C96.4341 8.05398 97.0371 8.15838 97.5953 8.36719C98.1578 8.57173 98.6479 8.88068 99.0655 9.29403C99.4874 9.70739 99.8155 10.2273 100.05 10.8537C100.284 11.4759 100.401 12.2045 100.401 13.0398V13.7876H92.111V12.1001H97.8382C97.8382 11.7081 97.753 11.3608 97.5826 11.0582C97.4121 10.7557 97.1756 10.5192 96.873 10.3487C96.5748 10.174 96.2275 10.0866 95.8311 10.0866C95.4178 10.0866 95.0513 10.1825 94.7317 10.3743C94.4164 10.5618 94.1692 10.8153 93.9902 11.1349C93.8113 11.4503 93.7196 11.8018 93.7154 12.1896V13.794C93.7154 14.2798 93.8049 14.6996 93.9838 15.0533C94.1671 15.407 94.4249 15.6797 94.7573 15.8714C95.0897 16.0632 95.4838 16.1591 95.9398 16.1591C96.2424 16.1591 96.5194 16.1165 96.7708 16.0312C97.0222 15.946 97.2374 15.8182 97.4164 15.6477C97.5953 15.4773 97.7317 15.2685 97.8255 15.0213L100.344 15.1875C100.216 15.7926 99.954 16.321 99.5577 16.7727C99.1657 17.2202 98.6586 17.5696 98.0364 17.821C97.4185 18.0682 96.7047 18.1918 95.8951 18.1918ZM102.178 18V8.18182H104.818V9.89489H104.921C105.1 9.28551 105.4 8.82528 105.822 8.5142C106.244 8.19886 106.73 8.04119 107.279 8.04119C107.416 8.04119 107.563 8.04972 107.72 8.06676C107.878 8.08381 108.017 8.10724 108.136 8.13707V10.5533C108.008 10.5149 107.831 10.4808 107.605 10.451C107.379 10.4212 107.173 10.4062 106.985 10.4062C106.585 10.4062 106.227 10.4936 105.911 10.6683C105.6 10.8388 105.353 11.0774 105.17 11.3842C104.991 11.6911 104.901 12.0447 104.901 12.4453V18H102.178ZM109.544 18V8.18182H112.139V9.91406H112.254C112.458 9.33878 112.799 8.88494 113.277 8.55256C113.754 8.22017 114.325 8.05398 114.99 8.05398C115.663 8.05398 116.236 8.2223 116.709 8.55895C117.182 8.89133 117.498 9.34304 117.655 9.91406H117.757C117.958 9.35156 118.32 8.90199 118.844 8.56534C119.373 8.22443 119.997 8.05398 120.717 8.05398C121.633 8.05398 122.377 8.34588 122.948 8.92969C123.523 9.50923 123.811 10.3317 123.811 11.397V18H121.094V11.9339C121.094 11.3885 120.949 10.9794 120.659 10.7067C120.37 10.4339 120.007 10.2976 119.573 10.2976C119.078 10.2976 118.693 10.4553 118.416 10.7706C118.139 11.0817 118 11.4929 118 12.0043V18H115.36V11.8764C115.36 11.3949 115.222 11.0114 114.945 10.7259C114.672 10.4403 114.312 10.2976 113.865 10.2976C113.562 10.2976 113.289 10.3743 113.047 10.5277C112.808 10.6768 112.618 10.8878 112.478 11.1605C112.337 11.429 112.267 11.7443 112.267 12.1065V18H109.544Z" fill="black"/>
<circle cx="4" cy="49" r="3.5" stroke="black"/>
<circle cx="843" cy="49" r="3.5" stroke="black"/>
<path d="M37.5611 55.1918C36.5511 55.1918 35.6818 54.9872 34.9531 54.5781C34.2287 54.1648 33.6705 53.581 33.2784 52.8267C32.8864 52.0682 32.6903 51.1712 32.6903 50.1357C32.6903 49.1257 32.8864 48.2393 33.2784 47.4766C33.6705 46.7138 34.2223 46.1193 34.9339 45.6932C35.6499 45.267 36.4893 45.054 37.4524 45.054C38.1001 45.054 38.7031 45.1584 39.2614 45.3672C39.8239 45.5717 40.3139 45.8807 40.7315 46.294C41.1534 46.7074 41.4815 47.2273 41.7159 47.8537C41.9503 48.4759 42.0675 49.2045 42.0675 50.0398V50.7876H33.777V49.1001H39.5043C39.5043 48.7081 39.419 48.3608 39.2486 48.0582C39.0781 47.7557 38.8416 47.5192 38.5391 47.3487C38.2408 47.174 37.8935 47.0866 37.4972 47.0866C37.0838 47.0866 36.7173 47.1825 36.3977 47.3743C36.0824 47.5618 35.8352 47.8153 35.6562 48.1349C35.4773 48.4503 35.3857 48.8018 35.3814 49.1896V50.794C35.3814 51.2798 35.4709 51.6996 35.6499 52.0533C35.8331 52.407 36.0909 52.6797 36.4233 52.8714C36.7557 53.0632 37.1499 53.1591 37.6058 53.1591C37.9084 53.1591 38.1854 53.1165 38.4368 53.0312C38.6882 52.946 38.9034 52.8182 39.0824 52.6477C39.2614 52.4773 39.3977 52.2685 39.4915 52.0213L42.0099 52.1875C41.8821 52.7926 41.62 53.321 41.2237 53.7727C40.8317 54.2202 40.3246 54.5696 39.7024 54.821C39.0845 55.0682 38.3707 55.1918 37.5611 55.1918ZM45.9442 45.1818L47.7468 48.6143L49.5941 45.1818H52.3874L49.543 50.0909L52.4641 55H49.6836L47.7468 51.6058L45.842 55H43.0295L45.9442 50.0909L43.1317 45.1818H45.9442ZM54.0046 58.6818V45.1818H56.6893V46.831H56.8107C56.93 46.5668 57.1026 46.2983 57.3285 46.0256C57.5586 45.7486 57.8569 45.5185 58.2234 45.3352C58.5941 45.1477 59.0543 45.054 59.604 45.054C60.32 45.054 60.9805 45.2415 61.5856 45.6165C62.1907 45.9872 62.6744 46.5476 63.0366 47.2976C63.3988 48.0433 63.5799 48.9787 63.5799 50.1037C63.5799 51.1989 63.4031 52.1236 63.0494 52.8778C62.6999 53.6278 62.2227 54.1967 61.6175 54.5845C61.0167 54.968 60.3434 55.1598 59.5977 55.1598C59.0692 55.1598 58.6197 55.0724 58.2489 54.8977C57.8825 54.723 57.582 54.5036 57.3477 54.2393C57.1133 53.9709 56.9343 53.7003 56.8107 53.4276H56.7276V58.6818H54.0046ZM56.6701 50.0909C56.6701 50.6747 56.7511 51.1839 56.913 51.6186C57.0749 52.0533 57.3093 52.392 57.6161 52.6349C57.9229 52.8736 58.2958 52.9929 58.7347 52.9929C59.1779 52.9929 59.5529 52.8714 59.8597 52.6286C60.1665 52.3814 60.3988 52.0405 60.5565 51.6058C60.7184 51.1669 60.7994 50.6619 60.7994 50.0909C60.7994 49.5241 60.7205 49.0256 60.5629 48.5952C60.4052 48.1648 60.1729 47.8281 59.8661 47.5852C59.5593 47.3423 59.1822 47.2209 58.7347 47.2209C58.2915 47.2209 57.9165 47.3381 57.6097 47.5724C57.3072 47.8068 57.0749 48.1392 56.913 48.5696C56.7511 49 56.6701 49.5071 56.6701 50.0909ZM65.3952 55V45.1818H68.0352V46.8949H68.1374C68.3164 46.2855 68.6168 45.8253 69.0387 45.5142C69.4606 45.1989 69.9464 45.0412 70.4961 45.0412C70.6325 45.0412 70.7795 45.0497 70.9371 45.0668C71.0948 45.0838 71.2333 45.1072 71.3526 45.1371V47.5533C71.2248 47.5149 71.0479 47.4808 70.8221 47.451C70.5962 47.4212 70.3896 47.4062 70.2021 47.4062C69.8015 47.4062 69.4435 47.4936 69.1282 47.6683C68.8171 47.8388 68.57 48.0774 68.3867 48.3842C68.2077 48.6911 68.1183 49.0447 68.1183 49.4453V55H65.3952Z" fill="black"/>
<rect x="28.5" y="33.5" width="46" height="32" stroke="black"/>
<path d="M28 49L18 43.2265V54.7735L28 49ZM8 50H19V48H8V50Z" fill="black"/>
<path d="M594 49L584 43.2265V54.7735L594 49ZM545 97H557V95H545V97ZM568 86V59H566V86H568ZM577 50H585V48H577V50ZM568 59C568 54.0294 572.029 50 577 50V48C570.925 48 566 52.9249 566 59H568ZM557 97C563.075 97 568 92.0751 568 86H566C566 90.9706 561.971 95 557 95V97Z" fill="black"/>
<path d="M594 49L584 43.2265V54.7735L594 49ZM555 147H557V145H555V147ZM568 136V59H566V136H568ZM577 50H585V48H577V50ZM568 59C568 54.0294 572.029 50 577 50V48C570.925 48 566 52.9249 566 59H568ZM557 147C563.075 147 568 142.075 568 136H566C566 140.971 561.971 145 557 145V147Z" fill="black"/>
<path d="M839 49L829 43.2265V54.7735L839 49ZM813 86V59H811V86H813ZM822 50H830V48H822V50ZM813 59C813 54.0294 817.029 50 822 50V48C815.925 48 811 52.9249 811 59H813ZM802 97C808.075 97 813 92.0751 813 86H811C811 90.9706 806.971 95 802 95V97Z" fill="black"/>
<path d="M839 49L829 43.2265V54.7735L839 49ZM797.5 147H802V145H797.5V147ZM813 136V59H811V136H813ZM822 50H830V48H822V50ZM813 59C813 54.0294 817.029 50 822 50V48C815.925 48 811 52.9249 811 59H813ZM802 147C808.075 147 813 142.075 813 136H811C811 140.971 806.971 145 802 145V147Z" fill="black"/>
<path d="M484 97.5L474 91.7265V103.274L484 97.5ZM436 50H452V48H436V50ZM461 59V87.5H463V59H461ZM472 98.5H475V96.5H472V98.5ZM461 87.5C461 93.5751 465.925 98.5 472 98.5V96.5C467.029 96.5 463 92.4706 463 87.5H461ZM452 50C456.971 50 461 54.0294 461 59H463C463 52.9249 458.075 48 452 48V50Z" fill="black"/>
<path d="M484 146L474 140.226V151.774L484 146ZM436 50H452V48H436V50ZM461 59V136H463V59H461ZM472 147H475V145H472V147ZM461 136C461 142.075 465.925 147 472 147V145C467.029 145 463 140.971 463 136H461ZM452 50C456.971 50 461 54.0294 461 59H463C463 52.9249 458.075 48 452 48V50Z" fill="black"/>
<path d="M630 97.5L620 91.7265V103.274L630 97.5ZM582 50H598V48H582V50ZM607 59V87.5H609V59H607ZM618 98.5H621V96.5H618V98.5ZM607 87.5C607 93.5751 611.925 98.5 618 98.5V96.5C613.029 96.5 609 92.4706 609 87.5H607ZM598 50C602.971 50 607 54.0294 607 59H609C609 52.9249 604.075 48 598 48V50Z" fill="black"/>
<path d="M630 146L620 140.226V151.774L630 146ZM582 50H598V48H582V50ZM607 59V136H609V59H607ZM618 147H621V145H618V147ZM607 136C607 142.075 611.925 147 618 147V145C613.029 145 609 140.971 609 136H607ZM598 50C602.971 50 607 54.0294 607 59H609C609 52.9249 604.075 48 598 48V50Z" fill="black"/>
<path d="M445.5 49L435.5 43.2265V54.7735L445.5 49ZM406 99H413.5V97H406V99ZM424.5 88V59L422.5 59V88H424.5ZM433.5 50H436.5V48H433.5V50ZM424.5 59C424.5 54.0294 428.529 50 433.5 50V48C427.425 48 422.5 52.9249 422.5 59L424.5 59ZM413.5 99C419.575 99 424.5 94.0751 424.5 88H422.5C422.5 92.9706 418.471 97 413.5 97V99Z" fill="black"/>
<path d="M248 98L238 92.2265V103.774L248 98ZM231 99H239V97H231V99Z" fill="black"/>
<path d="M731 98L721 92.2265V103.774L731 98ZM710 99H722V97H710V99Z" fill="black"/>
<path d="M731 143L721 137.226V148.774L731 143ZM710 144H722V142H710V144Z" fill="black"/>
<path d="M839 49L829 43.2265V54.7735L839 49ZM199 50H830V48H199V50Z" fill="black"/>
<path d="M243 49L233 43.2265V54.7735L243 49ZM75 50H234V48H75V50Z" fill="black"/>
<path d="M519 49L509 43.2265V54.7735L519 49ZM75 50H510V48H75V50Z" fill="black"/>
<path d="M122.5 98L112.5 92.2265V103.774L122.5 98ZM75 50H81V48H75V50ZM90 59V88H92V59H90ZM101 99H113.5V97H101V99ZM90 88C90 94.0751 94.9249 99 101 99V97C96.0294 97 92 92.9706 92 88H90ZM81 50C85.9706 50 90 54.0294 90 59H92C92 52.9249 87.0751 48 81 48V50Z" fill="black"/>
<path d="M148.688 94.4922H145.888C145.837 94.13 145.733 93.8082 145.575 93.527C145.418 93.2415 145.215 92.9986 144.968 92.7983C144.721 92.598 144.435 92.4446 144.112 92.3381C143.792 92.2315 143.445 92.1783 143.07 92.1783C142.392 92.1783 141.802 92.3466 141.299 92.6832C140.796 93.0156 140.406 93.5014 140.129 94.1406C139.852 94.7756 139.714 95.5469 139.714 96.4545C139.714 97.3878 139.852 98.1719 140.129 98.8068C140.411 99.4418 140.803 99.9212 141.305 100.245C141.808 100.569 142.39 100.731 143.05 100.731C143.421 100.731 143.764 100.682 144.08 100.584C144.399 100.486 144.683 100.343 144.93 100.156C145.177 99.9638 145.381 99.7315 145.543 99.4588C145.71 99.1861 145.825 98.875 145.888 98.5256L148.688 98.5384C148.616 99.1392 148.435 99.7188 148.145 100.277C147.859 100.831 147.474 101.327 146.988 101.766C146.506 102.201 145.931 102.546 145.262 102.802C144.597 103.053 143.845 103.179 143.006 103.179C141.838 103.179 140.794 102.915 139.874 102.386C138.957 101.858 138.233 101.093 137.7 100.092C137.172 99.0902 136.908 97.8778 136.908 96.4545C136.908 95.027 137.176 93.8125 137.713 92.8111C138.25 91.8097 138.979 91.0469 139.899 90.5227C140.82 89.9943 141.855 89.7301 143.006 89.7301C143.764 89.7301 144.467 89.8366 145.115 90.0497C145.767 90.2628 146.344 90.5739 146.847 90.983C147.35 91.3878 147.759 91.8842 148.075 92.4723C148.394 93.0604 148.599 93.7337 148.688 94.4922ZM162.703 96.4545C162.703 97.8821 162.432 99.0966 161.891 100.098C161.354 101.099 160.621 101.864 159.692 102.393C158.767 102.917 157.728 103.179 156.573 103.179C155.409 103.179 154.365 102.915 153.441 102.386C152.516 101.858 151.785 101.093 151.248 100.092C150.711 99.0902 150.443 97.8778 150.443 96.4545C150.443 95.027 150.711 93.8125 151.248 92.8111C151.785 91.8097 152.516 91.0469 153.441 90.5227C154.365 89.9943 155.409 89.7301 156.573 89.7301C157.728 89.7301 158.767 89.9943 159.692 90.5227C160.621 91.0469 161.354 91.8097 161.891 92.8111C162.432 93.8125 162.703 95.027 162.703 96.4545ZM159.897 96.4545C159.897 95.5298 159.758 94.75 159.481 94.1151C159.208 93.4801 158.823 92.9986 158.324 92.6705C157.826 92.3423 157.242 92.1783 156.573 92.1783C155.904 92.1783 155.32 92.3423 154.821 92.6705C154.323 92.9986 153.935 93.4801 153.658 94.1151C153.385 94.75 153.249 95.5298 153.249 96.4545C153.249 97.3793 153.385 98.1591 153.658 98.794C153.935 99.429 154.323 99.9105 154.821 100.239C155.32 100.567 155.904 100.731 156.573 100.731C157.242 100.731 157.826 100.567 158.324 100.239C158.823 99.9105 159.208 99.429 159.481 98.794C159.758 98.1591 159.897 97.3793 159.897 96.4545ZM164.753 103V89.9091H167.521V100.718H173.133V103H164.753ZM174.966 103V89.9091H177.734V100.718H183.346V103H174.966ZM187.769 103H184.803L189.322 89.9091H192.889L197.402 103H194.436L191.157 92.9006H191.055L187.769 103ZM187.584 97.8544H194.589V100.015H187.584V97.8544ZM196.879 92.1911V89.9091H207.631V92.1911H203.623V103H200.887V92.1911H196.879ZM209.401 103V89.9091H218.222V92.1911H212.169V95.3104H217.769V97.5923H212.169V100.718H218.248V103H209.401Z" fill="black"/>
<path d="M266.523 104.192C265.517 104.192 264.652 103.979 263.928 103.553C263.207 103.122 262.653 102.526 262.266 101.763C261.882 101 261.69 100.122 261.69 99.1293C261.69 98.1236 261.884 97.2415 262.272 96.483C262.664 95.7202 263.22 95.1257 263.94 94.6996C264.661 94.2692 265.517 94.054 266.51 94.054C267.366 94.054 268.116 94.2095 268.76 94.5206C269.403 94.8317 269.913 95.2685 270.288 95.831C270.663 96.3935 270.869 97.054 270.908 97.8125H268.338C268.266 97.3224 268.074 96.9283 267.763 96.63C267.456 96.3274 267.053 96.1761 266.555 96.1761C266.133 96.1761 265.764 96.2912 265.449 96.5213C265.138 96.7472 264.895 97.0774 264.72 97.5121C264.545 97.9467 264.458 98.473 264.458 99.0909C264.458 99.7173 264.543 100.25 264.714 100.689C264.888 101.128 265.134 101.462 265.449 101.692C265.764 101.923 266.133 102.038 266.555 102.038C266.866 102.038 267.145 101.974 267.392 101.846C267.643 101.718 267.85 101.533 268.012 101.29C268.178 101.043 268.287 100.746 268.338 100.401H270.908C270.865 101.151 270.661 101.812 270.294 102.383C269.932 102.95 269.431 103.393 268.792 103.712C268.153 104.032 267.396 104.192 266.523 104.192ZM277.087 104.192C276.094 104.192 275.236 103.981 274.511 103.559C273.791 103.133 273.235 102.54 272.843 101.782C272.451 101.019 272.255 100.135 272.255 99.1293C272.255 98.1151 272.451 97.2287 272.843 96.4702C273.235 95.7074 273.791 95.1151 274.511 94.6932C275.236 94.267 276.094 94.054 277.087 94.054C278.08 94.054 278.937 94.267 279.657 94.6932C280.381 95.1151 280.939 95.7074 281.331 96.4702C281.724 97.2287 281.92 98.1151 281.92 99.1293C281.92 100.135 281.724 101.019 281.331 101.782C280.939 102.54 280.381 103.133 279.657 103.559C278.937 103.981 278.08 104.192 277.087 104.192ZM277.1 102.082C277.552 102.082 277.929 101.955 278.231 101.699C278.534 101.439 278.762 101.085 278.915 100.638C279.073 100.19 279.152 99.6811 279.152 99.1101C279.152 98.5391 279.073 98.0298 278.915 97.5824C278.762 97.1349 278.534 96.7812 278.231 96.5213C277.929 96.2614 277.552 96.1314 277.1 96.1314C276.644 96.1314 276.26 96.2614 275.949 96.5213C275.643 96.7812 275.41 97.1349 275.253 97.5824C275.099 98.0298 275.023 98.5391 275.023 99.1101C275.023 99.6811 275.099 100.19 275.253 100.638C275.41 101.085 275.643 101.439 275.949 101.699C276.26 101.955 276.644 102.082 277.1 102.082ZM286.413 90.9091V104H283.69V90.9091H286.413ZM291.317 90.9091V104H288.594V90.9091H291.317ZM296.298 104.185C295.672 104.185 295.114 104.077 294.624 103.859C294.134 103.638 293.746 103.312 293.46 102.881C293.179 102.447 293.039 101.906 293.039 101.258C293.039 100.712 293.139 100.254 293.339 99.8835C293.539 99.5128 293.812 99.2145 294.157 98.9886C294.502 98.7628 294.894 98.5923 295.333 98.4773C295.776 98.3622 296.241 98.2812 296.727 98.2344C297.298 98.1747 297.758 98.1193 298.107 98.0682C298.457 98.0128 298.71 97.9318 298.868 97.8253C299.026 97.7187 299.105 97.5611 299.105 97.3523V97.3139C299.105 96.9091 298.977 96.5959 298.721 96.3743C298.47 96.1527 298.112 96.0419 297.647 96.0419C297.157 96.0419 296.767 96.1506 296.477 96.3679C296.188 96.581 295.996 96.8494 295.902 97.1733L293.384 96.9688C293.512 96.3722 293.763 95.8565 294.138 95.4219C294.513 94.983 294.997 94.6463 295.589 94.4119C296.186 94.1733 296.876 94.054 297.66 94.054C298.205 94.054 298.727 94.1179 299.226 94.2457C299.729 94.3736 300.174 94.5717 300.562 94.8402C300.954 95.1087 301.263 95.4538 301.489 95.8757C301.715 96.2933 301.828 96.794 301.828 97.3778V104H299.245V102.638H299.169C299.011 102.945 298.8 103.216 298.536 103.45C298.271 103.68 297.954 103.862 297.583 103.994C297.213 104.121 296.784 104.185 296.298 104.185ZM297.078 102.306C297.479 102.306 297.833 102.227 298.139 102.07C298.446 101.908 298.687 101.69 298.862 101.418C299.036 101.145 299.124 100.836 299.124 100.491V99.4489C299.039 99.5043 298.921 99.5554 298.772 99.6023C298.627 99.6449 298.463 99.6854 298.28 99.7237C298.097 99.7578 297.914 99.7898 297.73 99.8196C297.547 99.8452 297.381 99.8686 297.232 99.8899C296.912 99.9368 296.633 100.011 296.394 100.114C296.156 100.216 295.97 100.354 295.838 100.529C295.706 100.7 295.64 100.913 295.64 101.168C295.64 101.539 295.774 101.822 296.043 102.018C296.316 102.21 296.661 102.306 297.078 102.306ZM309.162 94.1818V96.2273H303.25V94.1818H309.162ZM304.592 91.8295H307.315V100.983C307.315 101.234 307.354 101.43 307.43 101.571C307.507 101.707 307.613 101.803 307.75 101.859C307.89 101.914 308.052 101.942 308.236 101.942C308.363 101.942 308.491 101.931 308.619 101.91C308.747 101.884 308.845 101.865 308.913 101.852L309.341 103.879C309.205 103.921 309.013 103.97 308.766 104.026C308.519 104.085 308.219 104.121 307.865 104.134C307.209 104.16 306.633 104.072 306.139 103.872C305.649 103.672 305.268 103.361 304.995 102.939C304.722 102.517 304.588 101.984 304.592 101.341V91.8295ZM310.936 104V94.1818H313.659V104H310.936ZM312.304 92.9162C311.899 92.9162 311.552 92.782 311.262 92.5135C310.977 92.2408 310.834 91.9148 310.834 91.5355C310.834 91.1605 310.977 90.8388 311.262 90.5703C311.552 90.2976 311.899 90.1612 312.304 90.1612C312.709 90.1612 313.054 90.2976 313.34 90.5703C313.629 90.8388 313.774 91.1605 313.774 91.5355C313.774 91.9148 313.629 92.2408 313.34 92.5135C313.054 92.782 312.709 92.9162 312.304 92.9162ZM320.277 104.192C319.284 104.192 318.425 103.981 317.701 103.559C316.98 103.133 316.424 102.54 316.032 101.782C315.64 101.019 315.444 100.135 315.444 99.1293C315.444 98.1151 315.64 97.2287 316.032 96.4702C316.424 95.7074 316.98 95.1151 317.701 94.6932C318.425 94.267 319.284 94.054 320.277 94.054C321.27 94.054 322.126 94.267 322.846 94.6932C323.571 95.1151 324.129 95.7074 324.521 96.4702C324.913 97.2287 325.109 98.1151 325.109 99.1293C325.109 100.135 324.913 101.019 324.521 101.782C324.129 102.54 323.571 103.133 322.846 103.559C322.126 103.981 321.27 104.192 320.277 104.192ZM320.289 102.082C320.741 102.082 321.118 101.955 321.421 101.699C321.723 101.439 321.951 101.085 322.105 100.638C322.262 100.19 322.341 99.6811 322.341 99.1101C322.341 98.5391 322.262 98.0298 322.105 97.5824C321.951 97.1349 321.723 96.7812 321.421 96.5213C321.118 96.2614 320.741 96.1314 320.289 96.1314C319.833 96.1314 319.45 96.2614 319.139 96.5213C318.832 96.7812 318.6 97.1349 318.442 97.5824C318.289 98.0298 318.212 98.5391 318.212 99.1101C318.212 99.6811 318.289 100.19 318.442 100.638C318.6 101.085 318.832 101.439 319.139 101.699C319.45 101.955 319.833 102.082 320.289 102.082ZM329.603 98.3239V104H326.88V94.1818H329.475V95.9141H329.59C329.807 95.343 330.172 94.8913 330.683 94.5589C331.194 94.2223 331.814 94.054 332.543 94.054C333.225 94.054 333.819 94.2031 334.326 94.5014C334.833 94.7997 335.228 95.2259 335.509 95.7798C335.79 96.3295 335.931 96.9858 335.931 97.7486V104H333.208V98.2344C333.212 97.6335 333.059 97.1648 332.748 96.8281C332.436 96.4872 332.008 96.3168 331.463 96.3168C331.096 96.3168 330.772 96.3956 330.491 96.5533C330.214 96.7109 329.997 96.9411 329.839 97.2436C329.686 97.5419 329.607 97.902 329.603 98.3239ZM344.194 97.544V99.7045H338.224V97.544H344.194ZM349.237 98.3239V104H346.514V94.1818H349.11V95.9141H349.225C349.442 95.343 349.806 94.8913 350.318 94.5589C350.829 94.2223 351.449 94.054 352.178 94.054C352.86 94.054 353.454 94.2031 353.961 94.5014C354.468 94.7997 354.862 95.2259 355.144 95.7798C355.425 96.3295 355.566 96.9858 355.566 97.7486V104H352.843V98.2344C352.847 97.6335 352.693 97.1648 352.382 96.8281C352.071 96.4872 351.643 96.3168 351.097 96.3168C350.731 96.3168 350.407 96.3956 350.126 96.5533C349.849 96.7109 349.632 96.9411 349.474 97.2436C349.32 97.5419 349.242 97.902 349.237 98.3239ZM360.511 104.185C359.885 104.185 359.327 104.077 358.837 103.859C358.347 103.638 357.959 103.312 357.673 102.881C357.392 102.447 357.251 101.906 357.251 101.258C357.251 100.712 357.352 100.254 357.552 99.8835C357.752 99.5128 358.025 99.2145 358.37 98.9886C358.715 98.7628 359.107 98.5923 359.546 98.4773C359.989 98.3622 360.454 98.2812 360.94 98.2344C361.511 98.1747 361.971 98.1193 362.32 98.0682C362.67 98.0128 362.923 97.9318 363.081 97.8253C363.239 97.7187 363.317 97.5611 363.317 97.3523V97.3139C363.317 96.9091 363.19 96.5959 362.934 96.3743C362.683 96.1527 362.325 96.0419 361.86 96.0419C361.37 96.0419 360.98 96.1506 360.69 96.3679C360.401 96.581 360.209 96.8494 360.115 97.1733L357.597 96.9688C357.724 96.3722 357.976 95.8565 358.351 95.4219C358.726 94.983 359.21 94.6463 359.802 94.4119C360.398 94.1733 361.089 94.054 361.873 94.054C362.418 94.054 362.94 94.1179 363.439 94.2457C363.942 94.3736 364.387 94.5717 364.775 94.8402C365.167 95.1087 365.476 95.4538 365.702 95.8757C365.928 96.2933 366.04 96.794 366.04 97.3778V104H363.458V102.638H363.381C363.224 102.945 363.013 103.216 362.749 103.45C362.484 103.68 362.167 103.862 361.796 103.994C361.425 104.121 360.997 104.185 360.511 104.185ZM361.291 102.306C361.692 102.306 362.045 102.227 362.352 102.07C362.659 101.908 362.9 101.69 363.075 101.418C363.249 101.145 363.337 100.836 363.337 100.491V99.4489C363.251 99.5043 363.134 99.5554 362.985 99.6023C362.84 99.6449 362.676 99.6854 362.493 99.7237C362.31 99.7578 362.126 99.7898 361.943 99.8196C361.76 99.8452 361.594 99.8686 361.445 99.8899C361.125 99.9368 360.846 100.011 360.607 100.114C360.369 100.216 360.183 100.354 360.051 100.529C359.919 100.7 359.853 100.913 359.853 101.168C359.853 101.539 359.987 101.822 360.256 102.018C360.528 102.21 360.874 102.306 361.291 102.306ZM368.153 104V94.1818H370.748V95.9141H370.863C371.068 95.3388 371.409 94.8849 371.886 94.5526C372.363 94.2202 372.934 94.054 373.599 94.054C374.272 94.054 374.846 94.2223 375.319 94.5589C375.792 94.8913 376.107 95.343 376.265 95.9141H376.367C376.567 95.3516 376.929 94.902 377.453 94.5653C377.982 94.2244 378.606 94.054 379.326 94.054C380.243 94.054 380.986 94.3459 381.557 94.9297C382.132 95.5092 382.42 96.3317 382.42 97.397V104H379.703V97.9339C379.703 97.3885 379.559 96.9794 379.269 96.7067C378.979 96.4339 378.617 96.2976 378.182 96.2976C377.688 96.2976 377.302 96.4553 377.025 96.7706C376.748 97.0817 376.61 97.4929 376.61 98.0043V104H373.97V97.8764C373.97 97.3949 373.831 97.0114 373.554 96.7259C373.282 96.4403 372.922 96.2976 372.474 96.2976C372.172 96.2976 371.899 96.3743 371.656 96.5277C371.417 96.6768 371.228 96.8878 371.087 97.1605C370.946 97.429 370.876 97.7443 370.876 98.1065V104H368.153ZM389.045 104.192C388.036 104.192 387.166 103.987 386.438 103.578C385.713 103.165 385.155 102.581 384.763 101.827C384.371 101.068 384.175 100.171 384.175 99.1357C384.175 98.1257 384.371 97.2393 384.763 96.4766C385.155 95.7138 385.707 95.1193 386.418 94.6932C387.134 94.267 387.974 94.054 388.937 94.054C389.585 94.054 390.188 94.1584 390.746 94.3672C391.308 94.5717 391.798 94.8807 392.216 95.294C392.638 95.7074 392.966 96.2273 393.2 96.8537C393.435 97.4759 393.552 98.2045 393.552 99.0398V99.7876H385.261V98.1001H390.989C390.989 97.7081 390.903 97.3608 390.733 97.0582C390.563 96.7557 390.326 96.5192 390.023 96.3487C389.725 96.174 389.378 96.0866 388.982 96.0866C388.568 96.0866 388.202 96.1825 387.882 96.3743C387.567 96.5618 387.32 96.8153 387.141 97.1349C386.962 97.4503 386.87 97.8018 386.866 98.1896V99.794C386.866 100.28 386.955 100.7 387.134 101.053C387.317 101.407 387.575 101.68 387.908 101.871C388.24 102.063 388.634 102.159 389.09 102.159C389.393 102.159 389.67 102.116 389.921 102.031C390.173 101.946 390.388 101.818 390.567 101.648C390.746 101.477 390.882 101.268 390.976 101.021L393.494 101.188C393.366 101.793 393.104 102.321 392.708 102.773C392.316 103.22 391.809 103.57 391.187 103.821C390.569 104.068 389.855 104.192 389.045 104.192Z" fill="black"/>
<rect x="123.5" y="80.5" width="108" height="32" rx="16" stroke="black"/>
<rect x="248.5" y="81.5" width="157" height="32" rx="16" stroke="black"/>
<path d="M498.394 104H495.428L499.947 90.9091H503.514L508.027 104H505.061L501.782 93.9006H501.68L498.394 104ZM498.209 98.8544H505.214V101.015H498.209V98.8544ZM516.405 94.674C516.354 94.1584 516.135 93.7578 515.747 93.4723C515.359 93.1868 514.833 93.044 514.168 93.044C513.716 93.044 513.335 93.108 513.024 93.2358C512.713 93.3594 512.474 93.532 512.308 93.7536C512.146 93.9751 512.065 94.2266 512.065 94.5078C512.057 94.7422 512.106 94.9467 512.212 95.1214C512.323 95.2962 512.474 95.4474 512.666 95.5753C512.858 95.6989 513.079 95.8075 513.331 95.9013C513.582 95.9908 513.851 96.0675 514.136 96.1314L515.312 96.4126C515.883 96.5405 516.407 96.7109 516.885 96.924C517.362 97.1371 517.775 97.3991 518.125 97.7102C518.474 98.0213 518.745 98.3878 518.937 98.8097C519.133 99.2315 519.233 99.7152 519.237 100.261C519.233 101.062 519.028 101.756 518.623 102.344C518.223 102.928 517.643 103.382 516.885 103.706C516.131 104.026 515.221 104.185 514.155 104.185C513.099 104.185 512.178 104.023 511.394 103.7C510.614 103.376 510.005 102.896 509.566 102.261C509.131 101.622 508.903 100.832 508.882 99.8899H511.56C511.59 100.329 511.716 100.695 511.937 100.989C512.163 101.279 512.464 101.499 512.839 101.648C513.218 101.793 513.646 101.865 514.123 101.865C514.592 101.865 514.999 101.797 515.344 101.661C515.694 101.524 515.964 101.335 516.156 101.092C516.348 100.849 516.444 100.57 516.444 100.254C516.444 99.9602 516.356 99.7131 516.182 99.5128C516.011 99.3125 515.76 99.142 515.427 99.0014C515.099 98.8608 514.697 98.733 514.219 98.6179L512.794 98.2599C511.69 97.9915 510.819 97.5717 510.18 97.0007C509.54 96.4297 509.223 95.6605 509.227 94.6932C509.223 93.9006 509.434 93.2081 509.86 92.6158C510.29 92.0234 510.881 91.5611 511.631 91.2287C512.381 90.8963 513.233 90.7301 514.187 90.7301C515.159 90.7301 516.007 90.8963 516.731 91.2287C517.46 91.5611 518.027 92.0234 518.432 92.6158C518.836 93.2081 519.045 93.8942 519.058 94.674H516.405ZM532.649 95.4922H529.849C529.798 95.13 529.694 94.8082 529.536 94.527C529.379 94.2415 529.176 93.9986 528.929 93.7983C528.682 93.598 528.396 93.4446 528.072 93.3381C527.753 93.2315 527.406 93.1783 527.031 93.1783C526.353 93.1783 525.763 93.3466 525.26 93.6832C524.757 94.0156 524.367 94.5014 524.09 95.1406C523.813 95.7756 523.675 96.5469 523.675 97.4545C523.675 98.3878 523.813 99.1719 524.09 99.8068C524.371 100.442 524.763 100.921 525.266 101.245C525.769 101.569 526.351 101.731 527.011 101.731C527.382 101.731 527.725 101.682 528.04 101.584C528.36 101.486 528.643 101.343 528.891 101.156C529.138 100.964 529.342 100.732 529.504 100.459C529.67 100.186 529.786 99.875 529.849 99.5256L532.649 99.5384C532.577 100.139 532.396 100.719 532.106 101.277C531.82 101.831 531.435 102.327 530.949 102.766C530.467 103.201 529.892 103.546 529.223 103.802C528.558 104.053 527.806 104.179 526.967 104.179C525.799 104.179 524.755 103.915 523.835 103.386C522.918 102.858 522.194 102.093 521.661 101.092C521.133 100.09 520.869 98.8778 520.869 97.4545C520.869 96.027 521.137 94.8125 521.674 93.8111C522.211 92.8097 522.94 92.0469 523.86 91.5227C524.781 90.9943 525.816 90.7301 526.967 90.7301C527.725 90.7301 528.428 90.8366 529.076 91.0497C529.728 91.2628 530.305 91.5739 530.808 91.983C531.311 92.3878 531.72 92.8842 532.036 93.4723C532.355 94.0604 532.56 94.7337 532.649 95.4922Z" fill="black"/>
<rect x="484.5" y="81.5" width="60" height="32" rx="16" stroke="black"/>
<path d="M500.778 150H496.138V136.909H500.817C502.134 136.909 503.267 137.171 504.217 137.695C505.168 138.215 505.898 138.963 506.41 139.939C506.925 140.915 507.183 142.082 507.183 143.442C507.183 144.805 506.925 145.977 506.41 146.957C505.898 147.937 505.163 148.69 504.205 149.214C503.25 149.738 502.108 150 500.778 150ZM498.906 147.629H500.663C501.482 147.629 502.17 147.484 502.728 147.194C503.29 146.9 503.712 146.446 503.994 145.832C504.279 145.214 504.422 144.418 504.422 143.442C504.422 142.474 504.279 141.684 503.994 141.07C503.712 140.457 503.293 140.005 502.734 139.715C502.176 139.425 501.488 139.281 500.67 139.281H498.906V147.629ZM509.233 150V136.909H518.055V139.191H512.001V142.31H517.601V144.592H512.001V147.718H518.08V150H509.233ZM527.357 140.674C527.305 140.158 527.086 139.758 526.698 139.472C526.31 139.187 525.784 139.044 525.119 139.044C524.668 139.044 524.286 139.108 523.975 139.236C523.664 139.359 523.425 139.532 523.259 139.754C523.097 139.975 523.016 140.227 523.016 140.508C523.008 140.742 523.057 140.947 523.163 141.121C523.274 141.296 523.425 141.447 523.617 141.575C523.809 141.699 524.031 141.808 524.282 141.901C524.533 141.991 524.802 142.067 525.087 142.131L526.263 142.413C526.835 142.54 527.359 142.711 527.836 142.924C528.313 143.137 528.727 143.399 529.076 143.71C529.425 144.021 529.696 144.388 529.888 144.81C530.084 145.232 530.184 145.715 530.188 146.261C530.184 147.062 529.979 147.756 529.575 148.344C529.174 148.928 528.594 149.382 527.836 149.706C527.082 150.026 526.172 150.185 525.107 150.185C524.05 150.185 523.129 150.023 522.345 149.7C521.565 149.376 520.956 148.896 520.517 148.261C520.082 147.622 519.854 146.832 519.833 145.89H522.511C522.541 146.329 522.667 146.695 522.888 146.989C523.114 147.279 523.415 147.499 523.79 147.648C524.169 147.793 524.597 147.865 525.075 147.865C525.543 147.865 525.95 147.797 526.295 147.661C526.645 147.524 526.915 147.335 527.107 147.092C527.299 146.849 527.395 146.57 527.395 146.254C527.395 145.96 527.308 145.713 527.133 145.513C526.962 145.312 526.711 145.142 526.379 145.001C526.05 144.861 525.648 144.733 525.17 144.618L523.745 144.26C522.641 143.991 521.77 143.572 521.131 143.001C520.491 142.43 520.174 141.661 520.178 140.693C520.174 139.901 520.385 139.208 520.811 138.616C521.241 138.023 521.832 137.561 522.582 137.229C523.332 136.896 524.184 136.73 525.138 136.73C526.11 136.73 526.958 136.896 527.683 137.229C528.411 137.561 528.978 138.023 529.383 138.616C529.788 139.208 529.996 139.894 530.009 140.674H527.357ZM543.6 141.492H540.801C540.749 141.13 540.645 140.808 540.487 140.527C540.33 140.241 540.127 139.999 539.88 139.798C539.633 139.598 539.347 139.445 539.024 139.338C538.704 139.232 538.357 139.178 537.982 139.178C537.304 139.178 536.714 139.347 536.211 139.683C535.708 140.016 535.318 140.501 535.041 141.141C534.764 141.776 534.626 142.547 534.626 143.455C534.626 144.388 534.764 145.172 535.041 145.807C535.323 146.442 535.715 146.921 536.218 147.245C536.72 147.569 537.302 147.731 537.963 147.731C538.333 147.731 538.676 147.682 538.992 147.584C539.311 147.486 539.595 147.343 539.842 147.156C540.089 146.964 540.294 146.732 540.455 146.459C540.622 146.186 540.737 145.875 540.801 145.526L543.6 145.538C543.528 146.139 543.347 146.719 543.057 147.277C542.771 147.831 542.386 148.327 541.9 148.766C541.419 149.201 540.843 149.546 540.174 149.802C539.509 150.053 538.757 150.179 537.918 150.179C536.75 150.179 535.706 149.915 534.786 149.386C533.869 148.858 533.145 148.093 532.612 147.092C532.084 146.09 531.82 144.878 531.82 143.455C531.82 142.027 532.088 140.812 532.625 139.811C533.162 138.81 533.891 138.047 534.811 137.523C535.732 136.994 536.767 136.73 537.918 136.73C538.676 136.73 539.379 136.837 540.027 137.05C540.679 137.263 541.257 137.574 541.759 137.983C542.262 138.388 542.671 138.884 542.987 139.472C543.306 140.06 543.511 140.734 543.6 141.492Z" fill="black"/>
<rect x="484.5" y="127.5" width="71" height="32" rx="16" stroke="black"/>
<path d="M653.087 90.9091V104H650.697L645.001 95.7607H644.906V104H642.138V90.9091H644.567L650.217 99.142H650.332V90.9091H653.087ZM663.46 90.9091H666.228V99.4105C666.228 100.365 666 101.2 665.544 101.916C665.092 102.632 664.459 103.19 663.645 103.591C662.831 103.987 661.883 104.185 660.801 104.185C659.714 104.185 658.764 103.987 657.95 103.591C657.136 103.19 656.503 102.632 656.052 101.916C655.6 101.2 655.374 100.365 655.374 99.4105V90.9091H658.142V99.174C658.142 99.6726 658.251 100.116 658.468 100.504C658.689 100.891 659.001 101.196 659.401 101.418C659.802 101.639 660.268 101.75 660.801 101.75C661.338 101.75 661.805 101.639 662.201 101.418C662.601 101.196 662.91 100.891 663.128 100.504C663.349 100.116 663.46 99.6726 663.46 99.174V90.9091ZM668.505 104V90.9091H671.273V101.718H676.885V104H668.505ZM678.718 104V90.9091H681.486V101.718H687.098V104H678.718ZM696.032 94.674C695.981 94.1584 695.762 93.7578 695.374 93.4723C694.986 93.1868 694.46 93.044 693.795 93.044C693.343 93.044 692.962 93.108 692.651 93.2358C692.34 93.3594 692.101 93.532 691.935 93.7536C691.773 93.9751 691.692 94.2266 691.692 94.5078C691.684 94.7422 691.733 94.9467 691.839 95.1214C691.95 95.2962 692.101 95.4474 692.293 95.5753C692.485 95.6989 692.706 95.8075 692.958 95.9013C693.209 95.9908 693.478 96.0675 693.763 96.1314L694.939 96.4126C695.51 96.5405 696.034 96.7109 696.512 96.924C696.989 97.1371 697.402 97.3991 697.752 97.7102C698.101 98.0213 698.372 98.3878 698.564 98.8097C698.76 99.2315 698.86 99.7152 698.864 100.261C698.86 101.062 698.655 101.756 698.25 102.344C697.85 102.928 697.27 103.382 696.512 103.706C695.757 104.026 694.848 104.185 693.782 104.185C692.725 104.185 691.805 104.023 691.021 103.7C690.241 103.376 689.632 102.896 689.193 102.261C688.758 101.622 688.53 100.832 688.509 99.8899H691.187C691.217 100.329 691.343 100.695 691.564 100.989C691.79 101.279 692.091 101.499 692.466 101.648C692.845 101.793 693.273 101.865 693.75 101.865C694.219 101.865 694.626 101.797 694.971 101.661C695.321 101.524 695.591 101.335 695.783 101.092C695.975 100.849 696.071 100.57 696.071 100.254C696.071 99.9602 695.983 99.7131 695.809 99.5128C695.638 99.3125 695.387 99.142 695.054 99.0014C694.726 98.8608 694.324 98.733 693.846 98.6179L692.421 98.2599C691.317 97.9915 690.446 97.5717 689.806 97.0007C689.167 96.4297 688.85 95.6605 688.854 94.6932C688.85 93.9006 689.061 93.2081 689.487 92.6158C689.917 92.0234 690.507 91.5611 691.257 91.2287C692.007 90.8963 692.86 90.7301 693.814 90.7301C694.786 90.7301 695.634 90.8963 696.358 91.2287C697.087 91.5611 697.654 92.0234 698.059 92.6158C698.463 93.2081 698.672 93.8942 698.685 94.674H696.032Z" fill="black"/>
<rect x="630.5" y="81.5" width="79" height="32" rx="16" stroke="black"/>
<path d="M743.138 104V90.9091H751.805V93.1911H745.906V96.3104H751.23V98.5923H745.906V104H743.138ZM756.435 90.9091V104H753.667V90.9091H756.435ZM758.712 104V90.9091H763.877C764.865 90.9091 765.709 91.0859 766.408 91.4396C767.111 91.7891 767.646 92.2855 768.012 92.929C768.383 93.5682 768.569 94.3203 768.569 95.1854C768.569 96.0547 768.381 96.8026 768.006 97.429C767.631 98.0511 767.088 98.5284 766.376 98.8608C765.669 99.1932 764.812 99.3594 763.806 99.3594H760.348V97.1349H763.359C763.887 97.1349 764.326 97.0625 764.676 96.9176C765.025 96.7727 765.285 96.5554 765.456 96.2656C765.63 95.9759 765.718 95.6158 765.718 95.1854C765.718 94.7507 765.63 94.3842 765.456 94.0859C765.285 93.7876 765.023 93.5618 764.669 93.4084C764.32 93.2507 763.879 93.1719 763.346 93.1719H761.48V104H758.712ZM765.782 98.0426L769.035 104H765.98L762.797 98.0426H765.782ZM777.626 94.674C777.575 94.1584 777.355 93.7578 776.968 93.4723C776.58 93.1868 776.054 93.044 775.389 93.044C774.937 93.044 774.556 93.108 774.245 93.2358C773.934 93.3594 773.695 93.532 773.529 93.7536C773.367 93.9751 773.286 94.2266 773.286 94.5078C773.277 94.7422 773.326 94.9467 773.433 95.1214C773.544 95.2962 773.695 95.4474 773.887 95.5753C774.078 95.6989 774.3 95.8075 774.551 95.9013C774.803 95.9908 775.071 96.0675 775.357 96.1314L776.533 96.4126C777.104 96.5405 777.628 96.7109 778.105 96.924C778.583 97.1371 778.996 97.3991 779.346 97.7102C779.695 98.0213 779.966 98.3878 780.157 98.8097C780.353 99.2315 780.453 99.7152 780.458 100.261C780.453 101.062 780.249 101.756 779.844 102.344C779.444 102.928 778.864 103.382 778.105 103.706C777.351 104.026 776.441 104.185 775.376 104.185C774.319 104.185 773.399 104.023 772.615 103.7C771.835 103.376 771.225 102.896 770.787 102.261C770.352 101.622 770.124 100.832 770.103 99.8899H772.781C772.811 100.329 772.936 100.695 773.158 100.989C773.384 101.279 773.684 101.499 774.059 101.648C774.439 101.793 774.867 101.865 775.344 101.865C775.813 101.865 776.22 101.797 776.565 101.661C776.914 101.524 777.185 101.335 777.377 101.092C777.569 100.849 777.664 100.57 777.664 100.254C777.664 99.9602 777.577 99.7131 777.402 99.5128C777.232 99.3125 776.98 99.142 776.648 99.0014C776.32 98.8608 775.917 98.733 775.44 98.6179L774.015 98.2599C772.911 97.9915 772.039 97.5717 771.4 97.0007C770.761 96.4297 770.444 95.6605 770.448 94.6932C770.444 93.9006 770.654 93.2081 771.081 92.6158C771.511 92.0234 772.101 91.5611 772.851 91.2287C773.601 90.8963 774.453 90.7301 775.408 90.7301C776.38 90.7301 777.228 90.8963 777.952 91.2287C778.681 91.5611 779.248 92.0234 779.652 92.6158C780.057 93.2081 780.266 93.8942 780.279 94.674H777.626ZM781.821 93.1911V90.9091H792.572V93.1911H788.564V104H785.829V93.1911H781.821Z" fill="black"/>
<rect x="731.5" y="81.5" width="71" height="32" rx="16" stroke="black"/>
<path d="M743.138 150V136.909H745.906V147.718H751.518V150H743.138ZM755.941 150H752.975L757.494 136.909H761.061L765.574 150H762.608L759.329 139.901H759.227L755.941 150ZM755.756 144.854H762.761V147.015H755.756V144.854ZM773.952 140.674C773.901 140.158 773.682 139.758 773.294 139.472C772.906 139.187 772.38 139.044 771.715 139.044C771.263 139.044 770.882 139.108 770.571 139.236C770.26 139.359 770.021 139.532 769.855 139.754C769.693 139.975 769.612 140.227 769.612 140.508C769.604 140.742 769.653 140.947 769.759 141.121C769.87 141.296 770.021 141.447 770.213 141.575C770.405 141.699 770.626 141.808 770.878 141.901C771.129 141.991 771.398 142.067 771.683 142.131L772.859 142.413C773.43 142.54 773.954 142.711 774.432 142.924C774.909 143.137 775.322 143.399 775.672 143.71C776.021 144.021 776.292 144.388 776.483 144.81C776.68 145.232 776.78 145.715 776.784 146.261C776.78 147.062 776.575 147.756 776.17 148.344C775.77 148.928 775.19 149.382 774.432 149.706C773.677 150.026 772.768 150.185 771.702 150.185C770.645 150.185 769.725 150.023 768.941 149.7C768.161 149.376 767.552 148.896 767.113 148.261C766.678 147.622 766.45 146.832 766.429 145.89H769.107C769.137 146.329 769.263 146.695 769.484 146.989C769.71 147.279 770.01 147.499 770.385 147.648C770.765 147.793 771.193 147.865 771.67 147.865C772.139 147.865 772.546 147.797 772.891 147.661C773.241 147.524 773.511 147.335 773.703 147.092C773.895 146.849 773.991 146.57 773.991 146.254C773.991 145.96 773.903 145.713 773.729 145.513C773.558 145.312 773.307 145.142 772.974 145.001C772.646 144.861 772.243 144.733 771.766 144.618L770.341 144.26C769.237 143.991 768.366 143.572 767.726 143.001C767.087 142.43 766.77 141.661 766.774 140.693C766.77 139.901 766.981 139.208 767.407 138.616C767.837 138.023 768.427 137.561 769.177 137.229C769.927 136.896 770.78 136.73 771.734 136.73C772.706 136.73 773.554 136.896 774.278 137.229C775.007 137.561 775.574 138.023 775.979 138.616C776.383 139.208 776.592 139.894 776.605 140.674H773.952ZM778.147 139.191V136.909H788.898V139.191H784.891V150H782.155V139.191H778.147Z" fill="black"/>
<rect x="731.5" y="127.5" width="66" height="32" rx="16" stroke="black"/>
<path d="M653.087 136.909V150H650.697L645.001 141.761H644.906V150H642.138V136.909H644.567L650.217 145.142H650.332V136.909H653.087ZM663.46 136.909H666.228V145.411C666.228 146.365 666 147.2 665.544 147.916C665.092 148.632 664.459 149.19 663.645 149.591C662.831 149.987 661.883 150.185 660.801 150.185C659.714 150.185 658.764 149.987 657.95 149.591C657.136 149.19 656.503 148.632 656.052 147.916C655.6 147.2 655.374 146.365 655.374 145.411V136.909H658.142V145.174C658.142 145.673 658.251 146.116 658.468 146.504C658.689 146.891 659.001 147.196 659.401 147.418C659.802 147.639 660.268 147.75 660.801 147.75C661.338 147.75 661.805 147.639 662.201 147.418C662.601 147.196 662.91 146.891 663.128 146.504C663.349 146.116 663.46 145.673 663.46 145.174V136.909ZM668.505 150V136.909H671.273V147.718H676.885V150H668.505ZM678.718 150V136.909H681.486V147.718H687.098V150H678.718ZM696.032 140.674C695.981 140.158 695.762 139.758 695.374 139.472C694.986 139.187 694.46 139.044 693.795 139.044C693.343 139.044 692.962 139.108 692.651 139.236C692.34 139.359 692.101 139.532 691.935 139.754C691.773 139.975 691.692 140.227 691.692 140.508C691.684 140.742 691.733 140.947 691.839 141.121C691.95 141.296 692.101 141.447 692.293 141.575C692.485 141.699 692.706 141.808 692.958 141.901C693.209 141.991 693.478 142.067 693.763 142.131L694.939 142.413C695.51 142.54 696.034 142.711 696.512 142.924C696.989 143.137 697.402 143.399 697.752 143.71C698.101 144.021 698.372 144.388 698.564 144.81C698.76 145.232 698.86 145.715 698.864 146.261C698.86 147.062 698.655 147.756 698.25 148.344C697.85 148.928 697.27 149.382 696.512 149.706C695.757 150.026 694.848 150.185 693.782 150.185C692.725 150.185 691.805 150.023 691.021 149.7C690.241 149.376 689.632 148.896 689.193 148.261C688.758 147.622 688.53 146.832 688.509 145.89H691.187C691.217 146.329 691.343 146.695 691.564 146.989C691.79 147.279 692.091 147.499 692.466 147.648C692.845 147.793 693.273 147.865 693.75 147.865C694.219 147.865 694.626 147.797 694.971 147.661C695.321 147.524 695.591 147.335 695.783 147.092C695.975 146.849 696.071 146.57 696.071 146.254C696.071 145.96 695.983 145.713 695.809 145.513C695.638 145.312 695.387 145.142 695.054 145.001C694.726 144.861 694.324 144.733 693.846 144.618L692.421 144.26C691.317 143.991 690.446 143.572 689.806 143.001C689.167 142.43 688.85 141.661 688.854 140.693C688.85 139.901 689.061 139.208 689.487 138.616C689.917 138.023 690.507 137.561 691.257 137.229C692.007 136.896 692.86 136.73 693.814 136.73C694.786 136.73 695.634 136.896 696.358 137.229C697.087 137.561 697.654 138.023 698.059 138.616C698.463 139.208 698.672 139.894 698.685 140.674H696.032Z" fill="black"/>
<rect x="630.5" y="127.5" width="79" height="32" rx="16" stroke="black"/>
</svg>
