<svg width="847" height="127" viewBox="0 0 847 127" fill="none" xmlns="http://www.w3.org/2000/svg">
<circle cx="4" cy="16" r="3.5" stroke="black"/>
<circle cx="843" cy="16" r="3.5" stroke="black"/>
<path d="M37.5611 22.1918C36.5511 22.1918 35.6818 21.9872 34.9531 21.5781C34.2287 21.1648 33.6705 20.581 33.2784 19.8267C32.8864 19.0682 32.6903 18.1712 32.6903 17.1357C32.6903 16.1257 32.8864 15.2393 33.2784 14.4766C33.6705 13.7138 34.2223 13.1193 34.9339 12.6932C35.6499 12.267 36.4893 12.054 37.4524 12.054C38.1001 12.054 38.7031 12.1584 39.2614 12.3672C39.8239 12.5717 40.3139 12.8807 40.7315 13.294C41.1534 13.7074 41.4815 14.2273 41.7159 14.8537C41.9503 15.4759 42.0675 16.2045 42.0675 17.0398V17.7876H33.777V16.1001H39.5043C39.5043 15.7081 39.419 15.3608 39.2486 15.0582C39.0781 14.7557 38.8416 14.5192 38.5391 14.3487C38.2408 14.174 37.8935 14.0866 37.4972 14.0866C37.0838 14.0866 36.7173 14.1825 36.3977 14.3743C36.0824 14.5618 35.8352 14.8153 35.6562 15.1349C35.4773 15.4503 35.3857 15.8018 35.3814 16.1896V17.794C35.3814 18.2798 35.4709 18.6996 35.6499 19.0533C35.8331 19.407 36.0909 19.6797 36.4233 19.8714C36.7557 20.0632 37.1499 20.1591 37.6058 20.1591C37.9084 20.1591 38.1854 20.1165 38.4368 20.0312C38.6882 19.946 38.9034 19.8182 39.0824 19.6477C39.2614 19.4773 39.3977 19.2685 39.4915 19.0213L42.0099 19.1875C41.8821 19.7926 41.62 20.321 41.2237 20.7727C40.8317 21.2202 40.3246 21.5696 39.7024 21.821C39.0845 22.0682 38.3707 22.1918 37.5611 22.1918ZM45.9442 12.1818L47.7468 15.6143L49.5941 12.1818H52.3874L49.543 17.0909L52.4641 22H49.6836L47.7468 18.6058L45.842 22H43.0295L45.9442 17.0909L43.1317 12.1818H45.9442ZM54.0046 25.6818V12.1818H56.6893V13.831H56.8107C56.93 13.5668 57.1026 13.2983 57.3285 13.0256C57.5586 12.7486 57.8569 12.5185 58.2234 12.3352C58.5941 12.1477 59.0543 12.054 59.604 12.054C60.32 12.054 60.9805 12.2415 61.5856 12.6165C62.1907 12.9872 62.6744 13.5476 63.0366 14.2976C63.3988 15.0433 63.5799 15.9787 63.5799 17.1037C63.5799 18.1989 63.4031 19.1236 63.0494 19.8778C62.6999 20.6278 62.2227 21.1967 61.6175 21.5845C61.0167 21.968 60.3434 22.1598 59.5977 22.1598C59.0692 22.1598 58.6197 22.0724 58.2489 21.8977C57.8825 21.723 57.582 21.5036 57.3477 21.2393C57.1133 20.9709 56.9343 20.7003 56.8107 20.4276H56.7276V25.6818H54.0046ZM56.6701 17.0909C56.6701 17.6747 56.7511 18.1839 56.913 18.6186C57.0749 19.0533 57.3093 19.392 57.6161 19.6349C57.9229 19.8736 58.2958 19.9929 58.7347 19.9929C59.1779 19.9929 59.5529 19.8714 59.8597 19.6286C60.1665 19.3814 60.3988 19.0405 60.5565 18.6058C60.7184 18.1669 60.7994 17.6619 60.7994 17.0909C60.7994 16.5241 60.7205 16.0256 60.5629 15.5952C60.4052 15.1648 60.1729 14.8281 59.8661 14.5852C59.5593 14.3423 59.1822 14.2209 58.7347 14.2209C58.2915 14.2209 57.9165 14.3381 57.6097 14.5724C57.3072 14.8068 57.0749 15.1392 56.913 15.5696C56.7511 16 56.6701 16.5071 56.6701 17.0909ZM65.3952 22V12.1818H68.0352V13.8949H68.1374C68.3164 13.2855 68.6168 12.8253 69.0387 12.5142C69.4606 12.1989 69.9464 12.0412 70.4961 12.0412C70.6325 12.0412 70.7795 12.0497 70.9371 12.0668C71.0948 12.0838 71.2333 12.1072 71.3526 12.1371V14.5533C71.2248 14.5149 71.0479 14.4808 70.8221 14.451C70.5962 14.4212 70.3896 14.4062 70.2021 14.4062C69.8015 14.4062 69.4435 14.4936 69.1282 14.6683C68.8171 14.8388 68.57 15.0774 68.3867 15.3842C68.2077 15.6911 68.1183 16.0447 68.1183 16.4453V22H65.3952Z" fill="black"/>
<rect x="28.5" y="0.5" width="46" height="32" stroke="black"/>
<path d="M28 16L18 10.2265V21.7735L28 16ZM8 17L19 17V15L8 15V17Z" fill="black"/>
<path d="M594 16L584 10.2265V21.7735L594 16ZM545 64H557V62H545V64ZM568 53V26H566V53H568ZM577 17L585 17V15L577 15V17ZM568 26C568 21.0294 572.029 17 577 17V15C570.925 15 566 19.9249 566 26H568ZM557 64C563.075 64 568 59.0751 568 53H566C566 57.9706 561.971 62 557 62V64Z" fill="black"/>
<path d="M594 16L584 10.2265V21.7735L594 16ZM555 114H557V112H555V114ZM568 103V26H566V103H568ZM577 17H585V15L577 15V17ZM568 26C568 21.0294 572.029 17 577 17V15C570.925 15 566 19.9249 566 26H568ZM557 114C563.075 114 568 109.075 568 103H566C566 107.971 561.971 112 557 112V114Z" fill="black"/>
<path d="M839 16L829 10.2265V21.7735L839 16ZM813 53V26L811 26V53H813ZM822 17L830 17V15L822 15V17ZM813 26C813 21.0294 817.029 17 822 17V15C815.925 15 811 19.9249 811 26L813 26ZM802 64C808.075 64 813 59.0751 813 53H811C811 57.9706 806.971 62 802 62V64Z" fill="black"/>
<path d="M839 16L829 10.2265V21.7735L839 16ZM797.5 114H802V112H797.5V114ZM813 103V26H811V103H813ZM822 17H830V15L822 15V17ZM813 26C813 21.0294 817.029 17 822 17V15C815.925 15 811 19.9249 811 26H813ZM802 114C808.075 114 813 109.075 813 103H811C811 107.971 806.971 112 802 112V114Z" fill="black"/>
<path d="M484 64.5L474 58.7265V70.2735L484 64.5ZM436 17H452V15H436V17ZM461 26V54.5H463V26H461ZM472 65.5H475V63.5H472V65.5ZM461 54.5C461 60.5751 465.925 65.5 472 65.5V63.5C467.029 63.5 463 59.4706 463 54.5H461ZM452 17C456.971 17 461 21.0294 461 26H463C463 19.9249 458.075 15 452 15V17Z" fill="black"/>
<path d="M484 113L474 107.226V118.774L484 113ZM436 17H452V15H436V17ZM461 26V103H463V26H461ZM472 114H475V112H472V114ZM461 103C461 109.075 465.925 114 472 114V112C467.029 112 463 107.971 463 103H461ZM452 17C456.971 17 461 21.0294 461 26H463C463 19.9249 458.075 15 452 15V17Z" fill="black"/>
<path d="M630 64.5L620 58.7265V70.2735L630 64.5ZM582 17H598V15H582V17ZM607 26V54.5H609V26H607ZM618 65.5H621V63.5H618V65.5ZM607 54.5C607 60.5751 611.925 65.5 618 65.5V63.5C613.029 63.5 609 59.4706 609 54.5H607ZM598 17C602.971 17 607 21.0294 607 26H609C609 19.9249 604.075 15 598 15V17Z" fill="black"/>
<path d="M630 113L620 107.226V118.774L630 113ZM582 17H598V15H582V17ZM607 26V103H609V26H607ZM618 114H621V112H618V114ZM607 103C607 109.075 611.925 114 618 114V112C613.029 112 609 107.971 609 103H607ZM598 17C602.971 17 607 21.0294 607 26H609C609 19.9249 604.075 15 598 15V17Z" fill="black"/>
<path d="M445.5 16L435.5 10.2265V21.7735L445.5 16ZM406 66H413.5V64H406V66ZM424.5 55V26L422.5 26V55H424.5ZM433.5 17H436.5V15H433.5V17ZM424.5 26C424.5 21.0294 428.529 17 433.5 17V15C427.425 15 422.5 19.9249 422.5 26L424.5 26ZM413.5 66C419.575 66 424.5 61.0751 424.5 55H422.5C422.5 59.9706 418.471 64 413.5 64V66Z" fill="black"/>
<path d="M248 65L238 59.2265V70.7735L248 65ZM231 66H239V64H231V66Z" fill="black"/>
<path d="M731 65L721 59.2265V70.7735L731 65ZM710 66H722V64H710V66Z" fill="black"/>
<path d="M731 110L721 104.226V115.774L731 110ZM710 111H722V109H710V111Z" fill="black"/>
<path d="M839 16L829 10.2265V21.7735L839 16ZM199 17H830V15H199V17Z" fill="black"/>
<path d="M243 16L233 10.2265V21.7735L243 16ZM75 17H234V15H75V17Z" fill="black"/>
<path d="M519 16L509 10.2265V21.7735L519 16ZM75 17H510V15H75V17Z" fill="black"/>
<path d="M122.5 65L112.5 59.2265V70.7735L122.5 65ZM75 17H81V15H75V17ZM90 26V55H92V26H90ZM101 66H113.5V64H101V66ZM90 55C90 61.0751 94.9249 66 101 66V64C96.0294 64 92 59.9706 92 55H90ZM81 17C85.9706 17 90 21.0294 90 26H92C92 19.9249 87.0751 15 81 15V17Z" fill="black"/>
<path d="M148.688 61.4922H145.888C145.837 61.13 145.733 60.8082 145.575 60.527C145.418 60.2415 145.215 59.9986 144.968 59.7983C144.721 59.598 144.435 59.4446 144.112 59.3381C143.792 59.2315 143.445 59.1783 143.07 59.1783C142.392 59.1783 141.802 59.3466 141.299 59.6832C140.796 60.0156 140.406 60.5014 140.129 61.1406C139.852 61.7756 139.714 62.5469 139.714 63.4545C139.714 64.3878 139.852 65.1719 140.129 65.8068C140.411 66.4418 140.803 66.9212 141.305 67.245C141.808 67.5689 142.39 67.7308 143.05 67.7308C143.421 67.7308 143.764 67.6818 144.08 67.5838C144.399 67.4858 144.683 67.343 144.93 67.1555C145.177 66.9638 145.381 66.7315 145.543 66.4588C145.71 66.1861 145.825 65.875 145.888 65.5256L148.688 65.5384C148.616 66.1392 148.435 66.7188 148.145 67.277C147.859 67.831 147.474 68.3274 146.988 68.7663C146.506 69.201 145.931 69.5462 145.262 69.8018C144.597 70.0533 143.845 70.179 143.006 70.179C141.838 70.179 140.794 69.9148 139.874 69.3864C138.957 68.858 138.233 68.093 137.7 67.0916C137.172 66.0902 136.908 64.8778 136.908 63.4545C136.908 62.027 137.176 60.8125 137.713 59.8111C138.25 58.8097 138.979 58.0469 139.899 57.5227C140.82 56.9943 141.855 56.7301 143.006 56.7301C143.764 56.7301 144.467 56.8366 145.115 57.0497C145.767 57.2628 146.344 57.5739 146.847 57.983C147.35 58.3878 147.759 58.8842 148.075 59.4723C148.394 60.0604 148.599 60.7337 148.688 61.4922ZM162.703 63.4545C162.703 64.8821 162.432 66.0966 161.891 67.098C161.354 68.0994 160.621 68.8643 159.692 69.3928C158.767 69.9169 157.728 70.179 156.573 70.179C155.409 70.179 154.365 69.9148 153.441 69.3864C152.516 68.858 151.785 68.093 151.248 67.0916C150.711 66.0902 150.443 64.8778 150.443 63.4545C150.443 62.027 150.711 60.8125 151.248 59.8111C151.785 58.8097 152.516 58.0469 153.441 57.5227C154.365 56.9943 155.409 56.7301 156.573 56.7301C157.728 56.7301 158.767 56.9943 159.692 57.5227C160.621 58.0469 161.354 58.8097 161.891 59.8111C162.432 60.8125 162.703 62.027 162.703 63.4545ZM159.897 63.4545C159.897 62.5298 159.758 61.75 159.481 61.1151C159.208 60.4801 158.823 59.9986 158.324 59.6705C157.826 59.3423 157.242 59.1783 156.573 59.1783C155.904 59.1783 155.32 59.3423 154.821 59.6705C154.323 59.9986 153.935 60.4801 153.658 61.1151C153.385 61.75 153.249 62.5298 153.249 63.4545C153.249 64.3793 153.385 65.1591 153.658 65.794C153.935 66.429 154.323 66.9105 154.821 67.2386C155.32 67.5668 155.904 67.7308 156.573 67.7308C157.242 67.7308 157.826 67.5668 158.324 67.2386C158.823 66.9105 159.208 66.429 159.481 65.794C159.758 65.1591 159.897 64.3793 159.897 63.4545ZM164.753 70V56.9091H167.521V67.718H173.133V70H164.753ZM174.966 70V56.9091H177.734V67.718H183.346V70H174.966ZM187.769 70H184.803L189.322 56.9091H192.889L197.402 70H194.436L191.157 59.9006H191.055L187.769 70ZM187.584 64.8544H194.589V67.0149H187.584V64.8544ZM196.879 59.1911V56.9091H207.631V59.1911H203.623V70H200.887V59.1911H196.879ZM209.401 70V56.9091H218.222V59.1911H212.169V62.3104H217.769V64.5923H212.169V67.718H218.248V70H209.401Z" fill="black"/>
<path d="M266.523 71.1918C265.517 71.1918 264.652 70.9787 263.928 70.5526C263.207 70.1222 262.653 69.5256 262.266 68.7628C261.882 68 261.69 67.1222 261.69 66.1293C261.69 65.1236 261.884 64.2415 262.272 63.483C262.664 62.7202 263.22 62.1257 263.94 61.6996C264.661 61.2692 265.517 61.054 266.51 61.054C267.366 61.054 268.116 61.2095 268.76 61.5206C269.403 61.8317 269.913 62.2685 270.288 62.831C270.663 63.3935 270.869 64.054 270.908 64.8125H268.338C268.266 64.3224 268.074 63.9283 267.763 63.63C267.456 63.3274 267.053 63.1761 266.555 63.1761C266.133 63.1761 265.764 63.2912 265.449 63.5213C265.138 63.7472 264.895 64.0774 264.72 64.5121C264.545 64.9467 264.458 65.473 264.458 66.0909C264.458 66.7173 264.543 67.25 264.714 67.6889C264.888 68.1278 265.134 68.4624 265.449 68.6925C265.764 68.9226 266.133 69.0376 266.555 69.0376C266.866 69.0376 267.145 68.9737 267.392 68.8459C267.643 68.718 267.85 68.5327 268.012 68.2898C268.178 68.0426 268.287 67.7464 268.338 67.4013H270.908C270.865 68.1513 270.661 68.8118 270.294 69.3828C269.932 69.9496 269.431 70.3928 268.792 70.7124C268.153 71.032 267.396 71.1918 266.523 71.1918ZM277.087 71.1918C276.094 71.1918 275.236 70.9808 274.511 70.5589C273.791 70.1328 273.235 69.5405 272.843 68.782C272.451 68.0192 272.255 67.1349 272.255 66.1293C272.255 65.1151 272.451 64.2287 272.843 63.4702C273.235 62.7074 273.791 62.1151 274.511 61.6932C275.236 61.267 276.094 61.054 277.087 61.054C278.08 61.054 278.937 61.267 279.657 61.6932C280.381 62.1151 280.939 62.7074 281.331 63.4702C281.724 64.2287 281.92 65.1151 281.92 66.1293C281.92 67.1349 281.724 68.0192 281.331 68.782C280.939 69.5405 280.381 70.1328 279.657 70.5589C278.937 70.9808 278.08 71.1918 277.087 71.1918ZM277.1 69.0824C277.552 69.0824 277.929 68.9545 278.231 68.6989C278.534 68.4389 278.762 68.0852 278.915 67.6378C279.073 67.1903 279.152 66.6811 279.152 66.1101C279.152 65.5391 279.073 65.0298 278.915 64.5824C278.762 64.1349 278.534 63.7812 278.231 63.5213C277.929 63.2614 277.552 63.1314 277.1 63.1314C276.644 63.1314 276.26 63.2614 275.949 63.5213C275.643 63.7812 275.41 64.1349 275.253 64.5824C275.099 65.0298 275.023 65.5391 275.023 66.1101C275.023 66.6811 275.099 67.1903 275.253 67.6378C275.41 68.0852 275.643 68.4389 275.949 68.6989C276.26 68.9545 276.644 69.0824 277.1 69.0824ZM286.413 57.9091V71H283.69V57.9091H286.413ZM291.317 57.9091V71H288.594V57.9091H291.317ZM296.298 71.1854C295.672 71.1854 295.114 71.0767 294.624 70.8594C294.134 70.6378 293.746 70.3118 293.46 69.8814C293.179 69.4467 293.039 68.9055 293.039 68.2578C293.039 67.7124 293.139 67.2543 293.339 66.8835C293.539 66.5128 293.812 66.2145 294.157 65.9886C294.502 65.7628 294.894 65.5923 295.333 65.4773C295.776 65.3622 296.241 65.2812 296.727 65.2344C297.298 65.1747 297.758 65.1193 298.107 65.0682C298.457 65.0128 298.71 64.9318 298.868 64.8253C299.026 64.7187 299.105 64.5611 299.105 64.3523V64.3139C299.105 63.9091 298.977 63.5959 298.721 63.3743C298.47 63.1527 298.112 63.0419 297.647 63.0419C297.157 63.0419 296.767 63.1506 296.477 63.3679C296.188 63.581 295.996 63.8494 295.902 64.1733L293.384 63.9688C293.512 63.3722 293.763 62.8565 294.138 62.4219C294.513 61.983 294.997 61.6463 295.589 61.4119C296.186 61.1733 296.876 61.054 297.66 61.054C298.205 61.054 298.727 61.1179 299.226 61.2457C299.729 61.3736 300.174 61.5717 300.562 61.8402C300.954 62.1087 301.263 62.4538 301.489 62.8757C301.715 63.2933 301.828 63.794 301.828 64.3778V71H299.245V69.6385H299.169C299.011 69.9453 298.8 70.2159 298.536 70.4503C298.271 70.6804 297.954 70.8615 297.583 70.9936C297.213 71.1214 296.784 71.1854 296.298 71.1854ZM297.078 69.3061C297.479 69.3061 297.833 69.2273 298.139 69.0696C298.446 68.9077 298.687 68.6903 298.862 68.4176C299.036 68.1449 299.124 67.8359 299.124 67.4908V66.4489C299.039 66.5043 298.921 66.5554 298.772 66.6023C298.627 66.6449 298.463 66.6854 298.28 66.7237C298.097 66.7578 297.914 66.7898 297.73 66.8196C297.547 66.8452 297.381 66.8686 297.232 66.8899C296.912 66.9368 296.633 67.0114 296.394 67.1136C296.156 67.2159 295.97 67.3544 295.838 67.5291C295.706 67.6996 295.64 67.9126 295.64 68.1683C295.64 68.5391 295.774 68.8224 296.043 69.0185C296.316 69.2102 296.661 69.3061 297.078 69.3061ZM309.162 61.1818V63.2273H303.25V61.1818H309.162ZM304.592 58.8295H307.315V67.983C307.315 68.2344 307.354 68.4304 307.43 68.571C307.507 68.7074 307.613 68.8033 307.75 68.8587C307.89 68.9141 308.052 68.9418 308.236 68.9418C308.363 68.9418 308.491 68.9311 308.619 68.9098C308.747 68.8842 308.845 68.8651 308.913 68.8523L309.341 70.8786C309.205 70.9212 309.013 70.9702 308.766 71.0256C308.519 71.0852 308.219 71.1214 307.865 71.1342C307.209 71.1598 306.633 71.0724 306.139 70.8722C305.649 70.6719 305.268 70.3608 304.995 69.9389C304.722 69.517 304.588 68.9844 304.592 68.3409V58.8295ZM310.936 71V61.1818H313.659V71H310.936ZM312.304 59.9162C311.899 59.9162 311.552 59.782 311.262 59.5135C310.977 59.2408 310.834 58.9148 310.834 58.5355C310.834 58.1605 310.977 57.8388 311.262 57.5703C311.552 57.2976 311.899 57.1612 312.304 57.1612C312.709 57.1612 313.054 57.2976 313.34 57.5703C313.629 57.8388 313.774 58.1605 313.774 58.5355C313.774 58.9148 313.629 59.2408 313.34 59.5135C313.054 59.782 312.709 59.9162 312.304 59.9162ZM320.277 71.1918C319.284 71.1918 318.425 70.9808 317.701 70.5589C316.98 70.1328 316.424 69.5405 316.032 68.782C315.64 68.0192 315.444 67.1349 315.444 66.1293C315.444 65.1151 315.64 64.2287 316.032 63.4702C316.424 62.7074 316.98 62.1151 317.701 61.6932C318.425 61.267 319.284 61.054 320.277 61.054C321.27 61.054 322.126 61.267 322.846 61.6932C323.571 62.1151 324.129 62.7074 324.521 63.4702C324.913 64.2287 325.109 65.1151 325.109 66.1293C325.109 67.1349 324.913 68.0192 324.521 68.782C324.129 69.5405 323.571 70.1328 322.846 70.5589C322.126 70.9808 321.27 71.1918 320.277 71.1918ZM320.289 69.0824C320.741 69.0824 321.118 68.9545 321.421 68.6989C321.723 68.4389 321.951 68.0852 322.105 67.6378C322.262 67.1903 322.341 66.6811 322.341 66.1101C322.341 65.5391 322.262 65.0298 322.105 64.5824C321.951 64.1349 321.723 63.7812 321.421 63.5213C321.118 63.2614 320.741 63.1314 320.289 63.1314C319.833 63.1314 319.45 63.2614 319.139 63.5213C318.832 63.7812 318.6 64.1349 318.442 64.5824C318.289 65.0298 318.212 65.5391 318.212 66.1101C318.212 66.6811 318.289 67.1903 318.442 67.6378C318.6 68.0852 318.832 68.4389 319.139 68.6989C319.45 68.9545 319.833 69.0824 320.289 69.0824ZM329.603 65.3239V71H326.88V61.1818H329.475V62.9141H329.59C329.807 62.343 330.172 61.8913 330.683 61.5589C331.194 61.2223 331.814 61.054 332.543 61.054C333.225 61.054 333.819 61.2031 334.326 61.5014C334.833 61.7997 335.228 62.2259 335.509 62.7798C335.79 63.3295 335.931 63.9858 335.931 64.7486V71H333.208V65.2344C333.212 64.6335 333.059 64.1648 332.748 63.8281C332.436 63.4872 332.008 63.3168 331.463 63.3168C331.096 63.3168 330.772 63.3956 330.491 63.5533C330.214 63.7109 329.997 63.9411 329.839 64.2436C329.686 64.5419 329.607 64.902 329.603 65.3239ZM344.194 64.544V66.7045H338.224V64.544H344.194ZM349.237 65.3239V71H346.514V61.1818H349.11V62.9141H349.225C349.442 62.343 349.806 61.8913 350.318 61.5589C350.829 61.2223 351.449 61.054 352.178 61.054C352.86 61.054 353.454 61.2031 353.961 61.5014C354.468 61.7997 354.862 62.2259 355.144 62.7798C355.425 63.3295 355.566 63.9858 355.566 64.7486V71H352.843V65.2344C352.847 64.6335 352.693 64.1648 352.382 63.8281C352.071 63.4872 351.643 63.3168 351.097 63.3168C350.731 63.3168 350.407 63.3956 350.126 63.5533C349.849 63.7109 349.632 63.9411 349.474 64.2436C349.32 64.5419 349.242 64.902 349.237 65.3239ZM360.511 71.1854C359.885 71.1854 359.327 71.0767 358.837 70.8594C358.347 70.6378 357.959 70.3118 357.673 69.8814C357.392 69.4467 357.251 68.9055 357.251 68.2578C357.251 67.7124 357.352 67.2543 357.552 66.8835C357.752 66.5128 358.025 66.2145 358.37 65.9886C358.715 65.7628 359.107 65.5923 359.546 65.4773C359.989 65.3622 360.454 65.2812 360.94 65.2344C361.511 65.1747 361.971 65.1193 362.32 65.0682C362.67 65.0128 362.923 64.9318 363.081 64.8253C363.239 64.7187 363.317 64.5611 363.317 64.3523V64.3139C363.317 63.9091 363.19 63.5959 362.934 63.3743C362.683 63.1527 362.325 63.0419 361.86 63.0419C361.37 63.0419 360.98 63.1506 360.69 63.3679C360.401 63.581 360.209 63.8494 360.115 64.1733L357.597 63.9688C357.724 63.3722 357.976 62.8565 358.351 62.4219C358.726 61.983 359.21 61.6463 359.802 61.4119C360.398 61.1733 361.089 61.054 361.873 61.054C362.418 61.054 362.94 61.1179 363.439 61.2457C363.942 61.3736 364.387 61.5717 364.775 61.8402C365.167 62.1087 365.476 62.4538 365.702 62.8757C365.928 63.2933 366.04 63.794 366.04 64.3778V71H363.458V69.6385H363.381C363.224 69.9453 363.013 70.2159 362.749 70.4503C362.484 70.6804 362.167 70.8615 361.796 70.9936C361.425 71.1214 360.997 71.1854 360.511 71.1854ZM361.291 69.3061C361.692 69.3061 362.045 69.2273 362.352 69.0696C362.659 68.9077 362.9 68.6903 363.075 68.4176C363.249 68.1449 363.337 67.8359 363.337 67.4908V66.4489C363.251 66.5043 363.134 66.5554 362.985 66.6023C362.84 66.6449 362.676 66.6854 362.493 66.7237C362.31 66.7578 362.126 66.7898 361.943 66.8196C361.76 66.8452 361.594 66.8686 361.445 66.8899C361.125 66.9368 360.846 67.0114 360.607 67.1136C360.369 67.2159 360.183 67.3544 360.051 67.5291C359.919 67.6996 359.853 67.9126 359.853 68.1683C359.853 68.5391 359.987 68.8224 360.256 69.0185C360.528 69.2102 360.874 69.3061 361.291 69.3061ZM368.153 71V61.1818H370.748V62.9141H370.863C371.068 62.3388 371.409 61.8849 371.886 61.5526C372.363 61.2202 372.934 61.054 373.599 61.054C374.272 61.054 374.846 61.2223 375.319 61.5589C375.792 61.8913 376.107 62.343 376.265 62.9141H376.367C376.567 62.3516 376.929 61.902 377.453 61.5653C377.982 61.2244 378.606 61.054 379.326 61.054C380.243 61.054 380.986 61.3459 381.557 61.9297C382.132 62.5092 382.42 63.3317 382.42 64.397V71H379.703V64.9339C379.703 64.3885 379.559 63.9794 379.269 63.7067C378.979 63.4339 378.617 63.2976 378.182 63.2976C377.688 63.2976 377.302 63.4553 377.025 63.7706C376.748 64.0817 376.61 64.4929 376.61 65.0043V71H373.97V64.8764C373.97 64.3949 373.831 64.0114 373.554 63.7259C373.282 63.4403 372.922 63.2976 372.474 63.2976C372.172 63.2976 371.899 63.3743 371.656 63.5277C371.417 63.6768 371.228 63.8878 371.087 64.1605C370.946 64.429 370.876 64.7443 370.876 65.1065V71H368.153ZM389.045 71.1918C388.036 71.1918 387.166 70.9872 386.438 70.5781C385.713 70.1648 385.155 69.581 384.763 68.8267C384.371 68.0682 384.175 67.1712 384.175 66.1357C384.175 65.1257 384.371 64.2393 384.763 63.4766C385.155 62.7138 385.707 62.1193 386.418 61.6932C387.134 61.267 387.974 61.054 388.937 61.054C389.585 61.054 390.188 61.1584 390.746 61.3672C391.308 61.5717 391.798 61.8807 392.216 62.294C392.638 62.7074 392.966 63.2273 393.2 63.8537C393.435 64.4759 393.552 65.2045 393.552 66.0398V66.7876H385.261V65.1001H390.989C390.989 64.7081 390.903 64.3608 390.733 64.0582C390.563 63.7557 390.326 63.5192 390.023 63.3487C389.725 63.174 389.378 63.0866 388.982 63.0866C388.568 63.0866 388.202 63.1825 387.882 63.3743C387.567 63.5618 387.32 63.8153 387.141 64.1349C386.962 64.4503 386.87 64.8018 386.866 65.1896V66.794C386.866 67.2798 386.955 67.6996 387.134 68.0533C387.317 68.407 387.575 68.6797 387.908 68.8714C388.24 69.0632 388.634 69.1591 389.09 69.1591C389.393 69.1591 389.67 69.1165 389.921 69.0312C390.173 68.946 390.388 68.8182 390.567 68.6477C390.746 68.4773 390.882 68.2685 390.976 68.0213L393.494 68.1875C393.366 68.7926 393.104 69.321 392.708 69.7727C392.316 70.2202 391.809 70.5696 391.187 70.821C390.569 71.0682 389.855 71.1918 389.045 71.1918Z" fill="black"/>
<rect x="123.5" y="47.5" width="108" height="32" rx="16" stroke="black"/>
<rect x="248.5" y="48.5" width="157" height="32" rx="16" stroke="black"/>
<path d="M498.394 71H495.428L499.947 57.9091H503.514L508.027 71H505.061L501.782 60.9006H501.68L498.394 71ZM498.209 65.8544H505.214V68.0149H498.209V65.8544ZM516.405 61.674C516.354 61.1584 516.135 60.7578 515.747 60.4723C515.359 60.1868 514.833 60.044 514.168 60.044C513.716 60.044 513.335 60.108 513.024 60.2358C512.713 60.3594 512.474 60.532 512.308 60.7536C512.146 60.9751 512.065 61.2266 512.065 61.5078C512.057 61.7422 512.106 61.9467 512.212 62.1214C512.323 62.2962 512.474 62.4474 512.666 62.5753C512.858 62.6989 513.079 62.8075 513.331 62.9013C513.582 62.9908 513.851 63.0675 514.136 63.1314L515.312 63.4126C515.883 63.5405 516.407 63.7109 516.885 63.924C517.362 64.1371 517.775 64.3991 518.125 64.7102C518.474 65.0213 518.745 65.3878 518.937 65.8097C519.133 66.2315 519.233 66.7152 519.237 67.2607C519.233 68.0618 519.028 68.7564 518.623 69.3445C518.223 69.9283 517.643 70.3821 516.885 70.706C516.131 71.0256 515.221 71.1854 514.155 71.1854C513.099 71.1854 512.178 71.0234 511.394 70.6996C510.614 70.3757 510.005 69.8963 509.566 69.2614C509.131 68.6222 508.903 67.8317 508.882 66.8899H511.56C511.59 67.3288 511.716 67.6953 511.937 67.9893C512.163 68.2791 512.464 68.4986 512.839 68.6477C513.218 68.7926 513.646 68.8651 514.123 68.8651C514.592 68.8651 514.999 68.7969 515.344 68.6605C515.694 68.5241 515.964 68.3345 516.156 68.0916C516.348 67.8487 516.444 67.5696 516.444 67.2543C516.444 66.9602 516.356 66.7131 516.182 66.5128C516.011 66.3125 515.76 66.142 515.427 66.0014C515.099 65.8608 514.697 65.733 514.219 65.6179L512.794 65.2599C511.69 64.9915 510.819 64.5717 510.18 64.0007C509.54 63.4297 509.223 62.6605 509.227 61.6932C509.223 60.9006 509.434 60.2081 509.86 59.6158C510.29 59.0234 510.881 58.5611 511.631 58.2287C512.381 57.8963 513.233 57.7301 514.187 57.7301C515.159 57.7301 516.007 57.8963 516.731 58.2287C517.46 58.5611 518.027 59.0234 518.432 59.6158C518.836 60.2081 519.045 60.8942 519.058 61.674H516.405ZM532.649 62.4922H529.849C529.798 62.13 529.694 61.8082 529.536 61.527C529.379 61.2415 529.176 60.9986 528.929 60.7983C528.682 60.598 528.396 60.4446 528.072 60.3381C527.753 60.2315 527.406 60.1783 527.031 60.1783C526.353 60.1783 525.763 60.3466 525.26 60.6832C524.757 61.0156 524.367 61.5014 524.09 62.1406C523.813 62.7756 523.675 63.5469 523.675 64.4545C523.675 65.3878 523.813 66.1719 524.09 66.8068C524.371 67.4418 524.763 67.9212 525.266 68.245C525.769 68.5689 526.351 68.7308 527.011 68.7308C527.382 68.7308 527.725 68.6818 528.04 68.5838C528.36 68.4858 528.643 68.343 528.891 68.1555C529.138 67.9638 529.342 67.7315 529.504 67.4588C529.67 67.1861 529.786 66.875 529.849 66.5256L532.649 66.5384C532.577 67.1392 532.396 67.7188 532.106 68.277C531.82 68.831 531.435 69.3274 530.949 69.7663C530.467 70.201 529.892 70.5462 529.223 70.8018C528.558 71.0533 527.806 71.179 526.967 71.179C525.799 71.179 524.755 70.9148 523.835 70.3864C522.918 69.858 522.194 69.093 521.661 68.0916C521.133 67.0902 520.869 65.8778 520.869 64.4545C520.869 63.027 521.137 61.8125 521.674 60.8111C522.211 59.8097 522.94 59.0469 523.86 58.5227C524.781 57.9943 525.816 57.7301 526.967 57.7301C527.725 57.7301 528.428 57.8366 529.076 58.0497C529.728 58.2628 530.305 58.5739 530.808 58.983C531.311 59.3878 531.72 59.8842 532.036 60.4723C532.355 61.0604 532.56 61.7337 532.649 62.4922Z" fill="black"/>
<rect x="484.5" y="48.5" width="60" height="32" rx="16" stroke="black"/>
<path d="M500.778 117H496.138V103.909H500.817C502.134 103.909 503.267 104.171 504.217 104.695C505.168 105.215 505.898 105.963 506.41 106.939C506.925 107.915 507.183 109.082 507.183 110.442C507.183 111.805 506.925 112.977 506.41 113.957C505.898 114.937 505.163 115.69 504.205 116.214C503.25 116.738 502.108 117 500.778 117ZM498.906 114.629H500.663C501.482 114.629 502.17 114.484 502.728 114.194C503.29 113.9 503.712 113.446 503.994 112.832C504.279 112.214 504.422 111.418 504.422 110.442C504.422 109.474 504.279 108.684 503.994 108.07C503.712 107.457 503.293 107.005 502.734 106.715C502.176 106.425 501.488 106.281 500.67 106.281H498.906V114.629ZM509.233 117V103.909H518.055V106.191H512.001V109.31H517.601V111.592H512.001V114.718H518.08V117H509.233ZM527.357 107.674C527.305 107.158 527.086 106.758 526.698 106.472C526.31 106.187 525.784 106.044 525.119 106.044C524.668 106.044 524.286 106.108 523.975 106.236C523.664 106.359 523.425 106.532 523.259 106.754C523.097 106.975 523.016 107.227 523.016 107.508C523.008 107.742 523.057 107.947 523.163 108.121C523.274 108.296 523.425 108.447 523.617 108.575C523.809 108.699 524.031 108.808 524.282 108.901C524.533 108.991 524.802 109.067 525.087 109.131L526.263 109.413C526.835 109.54 527.359 109.711 527.836 109.924C528.313 110.137 528.727 110.399 529.076 110.71C529.425 111.021 529.696 111.388 529.888 111.81C530.084 112.232 530.184 112.715 530.188 113.261C530.184 114.062 529.979 114.756 529.575 115.344C529.174 115.928 528.594 116.382 527.836 116.706C527.082 117.026 526.172 117.185 525.107 117.185C524.05 117.185 523.129 117.023 522.345 116.7C521.565 116.376 520.956 115.896 520.517 115.261C520.082 114.622 519.854 113.832 519.833 112.89H522.511C522.541 113.329 522.667 113.695 522.888 113.989C523.114 114.279 523.415 114.499 523.79 114.648C524.169 114.793 524.597 114.865 525.075 114.865C525.543 114.865 525.95 114.797 526.295 114.661C526.645 114.524 526.915 114.335 527.107 114.092C527.299 113.849 527.395 113.57 527.395 113.254C527.395 112.96 527.308 112.713 527.133 112.513C526.962 112.312 526.711 112.142 526.379 112.001C526.05 111.861 525.648 111.733 525.17 111.618L523.745 111.26C522.641 110.991 521.77 110.572 521.131 110.001C520.491 109.43 520.174 108.661 520.178 107.693C520.174 106.901 520.385 106.208 520.811 105.616C521.241 105.023 521.832 104.561 522.582 104.229C523.332 103.896 524.184 103.73 525.138 103.73C526.11 103.73 526.958 103.896 527.683 104.229C528.411 104.561 528.978 105.023 529.383 105.616C529.788 106.208 529.996 106.894 530.009 107.674H527.357ZM543.6 108.492H540.801C540.749 108.13 540.645 107.808 540.487 107.527C540.33 107.241 540.127 106.999 539.88 106.798C539.633 106.598 539.347 106.445 539.024 106.338C538.704 106.232 538.357 106.178 537.982 106.178C537.304 106.178 536.714 106.347 536.211 106.683C535.708 107.016 535.318 107.501 535.041 108.141C534.764 108.776 534.626 109.547 534.626 110.455C534.626 111.388 534.764 112.172 535.041 112.807C535.323 113.442 535.715 113.921 536.218 114.245C536.72 114.569 537.302 114.731 537.963 114.731C538.333 114.731 538.676 114.682 538.992 114.584C539.311 114.486 539.595 114.343 539.842 114.156C540.089 113.964 540.294 113.732 540.455 113.459C540.622 113.186 540.737 112.875 540.801 112.526L543.6 112.538C543.528 113.139 543.347 113.719 543.057 114.277C542.771 114.831 542.386 115.327 541.9 115.766C541.419 116.201 540.843 116.546 540.174 116.802C539.509 117.053 538.757 117.179 537.918 117.179C536.75 117.179 535.706 116.915 534.786 116.386C533.869 115.858 533.145 115.093 532.612 114.092C532.084 113.09 531.82 111.878 531.82 110.455C531.82 109.027 532.088 107.812 532.625 106.811C533.162 105.81 533.891 105.047 534.811 104.523C535.732 103.994 536.767 103.73 537.918 103.73C538.676 103.73 539.379 103.837 540.027 104.05C540.679 104.263 541.257 104.574 541.759 104.983C542.262 105.388 542.671 105.884 542.987 106.472C543.306 107.06 543.511 107.734 543.6 108.492Z" fill="black"/>
<rect x="484.5" y="94.5" width="71" height="32" rx="16" stroke="black"/>
<path d="M653.087 57.9091V71H650.697L645.001 62.7607H644.906V71H642.138V57.9091H644.567L650.217 66.142H650.332V57.9091H653.087ZM663.46 57.9091H666.228V66.4105C666.228 67.3651 666 68.2003 665.544 68.9162C665.092 69.6321 664.459 70.1903 663.645 70.5909C662.831 70.9872 661.883 71.1854 660.801 71.1854C659.714 71.1854 658.764 70.9872 657.95 70.5909C657.136 70.1903 656.503 69.6321 656.052 68.9162C655.6 68.2003 655.374 67.3651 655.374 66.4105V57.9091H658.142V66.174C658.142 66.6726 658.251 67.1158 658.468 67.5036C658.689 67.8913 659.001 68.196 659.401 68.4176C659.802 68.6392 660.268 68.75 660.801 68.75C661.338 68.75 661.805 68.6392 662.201 68.4176C662.601 68.196 662.91 67.8913 663.128 67.5036C663.349 67.1158 663.46 66.6726 663.46 66.174V57.9091ZM668.505 71V57.9091H671.273V68.718H676.885V71H668.505ZM678.718 71V57.9091H681.486V68.718H687.098V71H678.718ZM696.032 61.674C695.981 61.1584 695.762 60.7578 695.374 60.4723C694.986 60.1868 694.46 60.044 693.795 60.044C693.343 60.044 692.962 60.108 692.651 60.2358C692.34 60.3594 692.101 60.532 691.935 60.7536C691.773 60.9751 691.692 61.2266 691.692 61.5078C691.684 61.7422 691.733 61.9467 691.839 62.1214C691.95 62.2962 692.101 62.4474 692.293 62.5753C692.485 62.6989 692.706 62.8075 692.958 62.9013C693.209 62.9908 693.478 63.0675 693.763 63.1314L694.939 63.4126C695.51 63.5405 696.034 63.7109 696.512 63.924C696.989 64.1371 697.402 64.3991 697.752 64.7102C698.101 65.0213 698.372 65.3878 698.564 65.8097C698.76 66.2315 698.86 66.7152 698.864 67.2607C698.86 68.0618 698.655 68.7564 698.25 69.3445C697.85 69.9283 697.27 70.3821 696.512 70.706C695.757 71.0256 694.848 71.1854 693.782 71.1854C692.725 71.1854 691.805 71.0234 691.021 70.6996C690.241 70.3757 689.632 69.8963 689.193 69.2614C688.758 68.6222 688.53 67.8317 688.509 66.8899H691.187C691.217 67.3288 691.343 67.6953 691.564 67.9893C691.79 68.2791 692.091 68.4986 692.466 68.6477C692.845 68.7926 693.273 68.8651 693.75 68.8651C694.219 68.8651 694.626 68.7969 694.971 68.6605C695.321 68.5241 695.591 68.3345 695.783 68.0916C695.975 67.8487 696.071 67.5696 696.071 67.2543C696.071 66.9602 695.983 66.7131 695.809 66.5128C695.638 66.3125 695.387 66.142 695.054 66.0014C694.726 65.8608 694.324 65.733 693.846 65.6179L692.421 65.2599C691.317 64.9915 690.446 64.5717 689.806 64.0007C689.167 63.4297 688.85 62.6605 688.854 61.6932C688.85 60.9006 689.061 60.2081 689.487 59.6158C689.917 59.0234 690.507 58.5611 691.257 58.2287C692.007 57.8963 692.86 57.7301 693.814 57.7301C694.786 57.7301 695.634 57.8963 696.358 58.2287C697.087 58.5611 697.654 59.0234 698.059 59.6158C698.463 60.2081 698.672 60.8942 698.685 61.674H696.032Z" fill="black"/>
<rect x="630.5" y="48.5" width="79" height="32" rx="16" stroke="black"/>
<path d="M743.138 71V57.9091H751.805V60.1911H745.906V63.3104H751.23V65.5923H745.906V71H743.138ZM756.435 57.9091V71H753.667V57.9091H756.435ZM758.712 71V57.9091H763.877C764.865 57.9091 765.709 58.0859 766.408 58.4396C767.111 58.7891 767.646 59.2855 768.012 59.929C768.383 60.5682 768.569 61.3203 768.569 62.1854C768.569 63.0547 768.381 63.8026 768.006 64.429C767.631 65.0511 767.088 65.5284 766.376 65.8608C765.669 66.1932 764.812 66.3594 763.806 66.3594H760.348V64.1349H763.359C763.887 64.1349 764.326 64.0625 764.676 63.9176C765.025 63.7727 765.285 63.5554 765.456 63.2656C765.63 62.9759 765.718 62.6158 765.718 62.1854C765.718 61.7507 765.63 61.3842 765.456 61.0859C765.285 60.7876 765.023 60.5618 764.669 60.4084C764.32 60.2507 763.879 60.1719 763.346 60.1719H761.48V71H758.712ZM765.782 65.0426L769.035 71H765.98L762.797 65.0426H765.782ZM777.626 61.674C777.575 61.1584 777.355 60.7578 776.968 60.4723C776.58 60.1868 776.054 60.044 775.389 60.044C774.937 60.044 774.556 60.108 774.245 60.2358C773.934 60.3594 773.695 60.532 773.529 60.7536C773.367 60.9751 773.286 61.2266 773.286 61.5078C773.277 61.7422 773.326 61.9467 773.433 62.1214C773.544 62.2962 773.695 62.4474 773.887 62.5753C774.078 62.6989 774.3 62.8075 774.551 62.9013C774.803 62.9908 775.071 63.0675 775.357 63.1314L776.533 63.4126C777.104 63.5405 777.628 63.7109 778.105 63.924C778.583 64.1371 778.996 64.3991 779.346 64.7102C779.695 65.0213 779.966 65.3878 780.157 65.8097C780.353 66.2315 780.453 66.7152 780.458 67.2607C780.453 68.0618 780.249 68.7564 779.844 69.3445C779.444 69.9283 778.864 70.3821 778.105 70.706C777.351 71.0256 776.441 71.1854 775.376 71.1854C774.319 71.1854 773.399 71.0234 772.615 70.6996C771.835 70.3757 771.225 69.8963 770.787 69.2614C770.352 68.6222 770.124 67.8317 770.103 66.8899H772.781C772.811 67.3288 772.936 67.6953 773.158 67.9893C773.384 68.2791 773.684 68.4986 774.059 68.6477C774.439 68.7926 774.867 68.8651 775.344 68.8651C775.813 68.8651 776.22 68.7969 776.565 68.6605C776.914 68.5241 777.185 68.3345 777.377 68.0916C777.569 67.8487 777.664 67.5696 777.664 67.2543C777.664 66.9602 777.577 66.7131 777.402 66.5128C777.232 66.3125 776.98 66.142 776.648 66.0014C776.32 65.8608 775.917 65.733 775.44 65.6179L774.015 65.2599C772.911 64.9915 772.039 64.5717 771.4 64.0007C770.761 63.4297 770.444 62.6605 770.448 61.6932C770.444 60.9006 770.654 60.2081 771.081 59.6158C771.511 59.0234 772.101 58.5611 772.851 58.2287C773.601 57.8963 774.453 57.7301 775.408 57.7301C776.38 57.7301 777.228 57.8963 777.952 58.2287C778.681 58.5611 779.248 59.0234 779.652 59.6158C780.057 60.2081 780.266 60.8942 780.279 61.674H777.626ZM781.821 60.1911V57.9091H792.572V60.1911H788.564V71H785.829V60.1911H781.821Z" fill="black"/>
<rect x="731.5" y="48.5" width="71" height="32" rx="16" stroke="black"/>
<path d="M743.138 117V103.909H745.906V114.718H751.518V117H743.138ZM755.941 117H752.975L757.494 103.909H761.061L765.574 117H762.608L759.329 106.901H759.227L755.941 117ZM755.756 111.854H762.761V114.015H755.756V111.854ZM773.952 107.674C773.901 107.158 773.682 106.758 773.294 106.472C772.906 106.187 772.38 106.044 771.715 106.044C771.263 106.044 770.882 106.108 770.571 106.236C770.26 106.359 770.021 106.532 769.855 106.754C769.693 106.975 769.612 107.227 769.612 107.508C769.604 107.742 769.653 107.947 769.759 108.121C769.87 108.296 770.021 108.447 770.213 108.575C770.405 108.699 770.626 108.808 770.878 108.901C771.129 108.991 771.398 109.067 771.683 109.131L772.859 109.413C773.43 109.54 773.954 109.711 774.432 109.924C774.909 110.137 775.322 110.399 775.672 110.71C776.021 111.021 776.292 111.388 776.483 111.81C776.68 112.232 776.78 112.715 776.784 113.261C776.78 114.062 776.575 114.756 776.17 115.344C775.77 115.928 775.19 116.382 774.432 116.706C773.677 117.026 772.768 117.185 771.702 117.185C770.645 117.185 769.725 117.023 768.941 116.7C768.161 116.376 767.552 115.896 767.113 115.261C766.678 114.622 766.45 113.832 766.429 112.89H769.107C769.137 113.329 769.263 113.695 769.484 113.989C769.71 114.279 770.01 114.499 770.385 114.648C770.765 114.793 771.193 114.865 771.67 114.865C772.139 114.865 772.546 114.797 772.891 114.661C773.241 114.524 773.511 114.335 773.703 114.092C773.895 113.849 773.991 113.57 773.991 113.254C773.991 112.96 773.903 112.713 773.729 112.513C773.558 112.312 773.307 112.142 772.974 112.001C772.646 111.861 772.243 111.733 771.766 111.618L770.341 111.26C769.237 110.991 768.366 110.572 767.726 110.001C767.087 109.43 766.77 108.661 766.774 107.693C766.77 106.901 766.981 106.208 767.407 105.616C767.837 105.023 768.427 104.561 769.177 104.229C769.927 103.896 770.78 103.73 771.734 103.73C772.706 103.73 773.554 103.896 774.278 104.229C775.007 104.561 775.574 105.023 775.979 105.616C776.383 106.208 776.592 106.894 776.605 107.674H773.952ZM778.147 106.191V103.909H788.898V106.191H784.891V117H782.155V106.191H778.147Z" fill="black"/>
<rect x="731.5" y="94.5" width="66" height="32" rx="16" stroke="black"/>
<path d="M653.087 103.909V117H650.697L645.001 108.761H644.906V117H642.138V103.909H644.567L650.217 112.142H650.332V103.909H653.087ZM663.46 103.909H666.228V112.411C666.228 113.365 666 114.2 665.544 114.916C665.092 115.632 664.459 116.19 663.645 116.591C662.831 116.987 661.883 117.185 660.801 117.185C659.714 117.185 658.764 116.987 657.95 116.591C657.136 116.19 656.503 115.632 656.052 114.916C655.6 114.2 655.374 113.365 655.374 112.411V103.909H658.142V112.174C658.142 112.673 658.251 113.116 658.468 113.504C658.689 113.891 659.001 114.196 659.401 114.418C659.802 114.639 660.268 114.75 660.801 114.75C661.338 114.75 661.805 114.639 662.201 114.418C662.601 114.196 662.91 113.891 663.128 113.504C663.349 113.116 663.46 112.673 663.46 112.174V103.909ZM668.505 117V103.909H671.273V114.718H676.885V117H668.505ZM678.718 117V103.909H681.486V114.718H687.098V117H678.718ZM696.032 107.674C695.981 107.158 695.762 106.758 695.374 106.472C694.986 106.187 694.46 106.044 693.795 106.044C693.343 106.044 692.962 106.108 692.651 106.236C692.34 106.359 692.101 106.532 691.935 106.754C691.773 106.975 691.692 107.227 691.692 107.508C691.684 107.742 691.733 107.947 691.839 108.121C691.95 108.296 692.101 108.447 692.293 108.575C692.485 108.699 692.706 108.808 692.958 108.901C693.209 108.991 693.478 109.067 693.763 109.131L694.939 109.413C695.51 109.54 696.034 109.711 696.512 109.924C696.989 110.137 697.402 110.399 697.752 110.71C698.101 111.021 698.372 111.388 698.564 111.81C698.76 112.232 698.86 112.715 698.864 113.261C698.86 114.062 698.655 114.756 698.25 115.344C697.85 115.928 697.27 116.382 696.512 116.706C695.757 117.026 694.848 117.185 693.782 117.185C692.725 117.185 691.805 117.023 691.021 116.7C690.241 116.376 689.632 115.896 689.193 115.261C688.758 114.622 688.53 113.832 688.509 112.89H691.187C691.217 113.329 691.343 113.695 691.564 113.989C691.79 114.279 692.091 114.499 692.466 114.648C692.845 114.793 693.273 114.865 693.75 114.865C694.219 114.865 694.626 114.797 694.971 114.661C695.321 114.524 695.591 114.335 695.783 114.092C695.975 113.849 696.071 113.57 696.071 113.254C696.071 112.96 695.983 112.713 695.809 112.513C695.638 112.312 695.387 112.142 695.054 112.001C694.726 111.861 694.324 111.733 693.846 111.618L692.421 111.26C691.317 110.991 690.446 110.572 689.806 110.001C689.167 109.43 688.85 108.661 688.854 107.693C688.85 106.901 689.061 106.208 689.487 105.616C689.917 105.023 690.507 104.561 691.257 104.229C692.007 103.896 692.86 103.73 693.814 103.73C694.786 103.73 695.634 103.896 696.358 104.229C697.087 104.561 697.654 105.023 698.059 105.616C698.463 106.208 698.672 106.894 698.685 107.674H696.032Z" fill="black"/>
<rect x="630.5" y="94.5" width="79" height="32" rx="16" stroke="black"/>
</svg>
