<svg width="424" height="212" viewBox="0 0 424 212" fill="none" xmlns="http://www.w3.org/2000/svg">
<circle cx="4" cy="16" r="3.5" stroke="black"/>
<circle cx="420" cy="196" r="3.5" stroke="black"/>
<path d="M28 16L18 10.2265V21.7735L28 16ZM8 17L19 17V15L8 15V17Z" fill="black"/>
<path d="M416 196L406 190.226V201.774L416 196ZM218 197L407 197V195L218 195V197Z" fill="black"/>
<path d="M416 196L406 190.226V201.774L416 196ZM350 144H360V142H350V144ZM369 153V186H371V153H369ZM380 197H407V195H380V197ZM369 186C369 192.075 373.925 197 380 197V195C375.029 195 371 190.971 371 186H369ZM360 144C364.971 144 369 148.029 369 153H371C371 146.925 366.075 142 360 142V144Z" fill="black"/>
<path d="M152 143L142 137.226V148.774L152 143ZM135 144H143V142H135V144Z" fill="black"/>
<path d="M113 196L103 190.226V201.774L113 196ZM93 197H103V195H93V197ZM103 197H104V195H103V197Z" fill="black"/>
<path d="M221 143L211 137.226V148.774L221 143ZM203 144H212V142H203V144Z" fill="black"/>
<path d="M30 143.5L20 137.726L20 149.274L30 143.5ZM169.5 106.5L18 106.5V108.5L169.5 108.5V106.5ZM7 117.5L7 133.5H9L9 117.5H7ZM18 144.5H21V142.5H18V144.5ZM7 133.5C7 139.575 11.9249 144.5 18 144.5V142.5C13.0294 142.5 9 138.471 9 133.5H7ZM18 106.5C11.9249 106.5 7 111.425 7 117.5H9C9 112.529 13.0294 108.5 18 108.5V106.5Z" fill="black"/>
<path d="M7.80933 117.5H6.80933H7.80933ZM7.80934 186H8.80934H7.80934ZM30.0681 196L20.0681 190.226V201.774L30.0681 196ZM170 106.5L17.8093 106.5V108.5L170 108.5V106.5ZM6.80933 117.5L6.80934 186H8.80934L8.80933 117.5H6.80933ZM17.8093 197H21.0681V195H17.8093V197ZM6.80934 186C6.80934 192.075 11.7342 197 17.8093 197V195C12.8388 195 8.80934 190.971 8.80934 186H6.80934ZM17.8093 106.5C11.7342 106.5 6.80933 111.425 6.80933 117.5H8.80933C8.80933 112.529 12.8388 108.5 17.8093 108.5V106.5Z" fill="black"/>
<path d="M352 59L342 53.2265V64.7735L352 59ZM332 60H343V58H332V60Z" fill="black"/>
<path d="M361 91L366.774 81H355.226L361 91ZM332 60H351V58H332V60ZM360 69V82H362V69H360ZM351 60C355.971 60 360 64.0294 360 69H362C362 62.9249 357.075 58 351 58V60Z" fill="black"/>
<path d="M267 59L257 53.2265V64.7735L267 59ZM247 60H258V58H247V60Z" fill="black"/>
<path d="M370 117.5L369 117.5L370 117.5ZM370 171.5L375.774 161.5L364.226 161.5L370 171.5ZM360 98L360 108.5L362 108.5L362 98L360 98ZM369 117.5L369 162.5L371 162.5L371 117.5L369 117.5ZM365.5 114C367.433 114 369 115.567 369 117.5L371 117.5C371 114.462 368.538 112 365.5 112L365.5 114ZM360 108.5C360 111.538 362.462 114 365.5 114L365.5 112C363.567 112 362 110.433 362 108.5L360 108.5Z" fill="black"/>
<path d="M267 16L257 10.2265V21.7735L267 16ZM158 17L258 17V15L158 15V17Z" fill="black"/>
<path d="M140.5 107.5L150.5 113.274V101.726L140.5 107.5ZM158 17H351V15H158V17ZM360 26V97.5H362V26H360ZM351 106.5H149.5V108.5H351V106.5ZM360 97.5C360 102.471 355.971 106.5 351 106.5V108.5C357.075 108.5 362 103.575 362 97.5H360ZM351 17C355.971 17 360 21.0294 360 26H362C362 19.9249 357.075 15 351 15V17Z" fill="black"/>
<path d="M196.5 59.5L186.5 53.7265V65.2735L196.5 59.5ZM158 17L166.5 17V15L158 15V17ZM175.5 26V49.5H177.5V26L175.5 26ZM186.5 60.5H187.5V58.5H186.5V60.5ZM175.5 49.5C175.5 55.5751 180.425 60.5 186.5 60.5V58.5C181.529 58.5 177.5 54.4706 177.5 49.5H175.5ZM166.5 17C171.471 17 175.5 21.0294 175.5 26L177.5 26C177.5 19.9249 172.575 15 166.5 15V17Z" fill="black"/>
<path d="M212.394 65H209.428L213.947 51.9091H217.514L222.027 65H219.061L215.782 54.9006H215.68L212.394 65ZM212.209 59.8544H219.214V62.0149H212.209V59.8544ZM230.405 55.674C230.354 55.1584 230.135 54.7578 229.747 54.4723C229.359 54.1868 228.833 54.044 228.168 54.044C227.716 54.044 227.335 54.108 227.024 54.2358C226.713 54.3594 226.474 54.532 226.308 54.7536C226.146 54.9751 226.065 55.2266 226.065 55.5078C226.057 55.7422 226.106 55.9467 226.212 56.1214C226.323 56.2962 226.474 56.4474 226.666 56.5753C226.858 56.6989 227.079 56.8075 227.331 56.9013C227.582 56.9908 227.851 57.0675 228.136 57.1314L229.312 57.4126C229.883 57.5405 230.407 57.7109 230.885 57.924C231.362 58.1371 231.775 58.3991 232.125 58.7102C232.474 59.0213 232.745 59.3878 232.937 59.8097C233.133 60.2315 233.233 60.7152 233.237 61.2607C233.233 62.0618 233.028 62.7564 232.623 63.3445C232.223 63.9283 231.643 64.3821 230.885 64.706C230.131 65.0256 229.221 65.1854 228.155 65.1854C227.099 65.1854 226.178 65.0234 225.394 64.6996C224.614 64.3757 224.005 63.8963 223.566 63.2614C223.131 62.6222 222.903 61.8317 222.882 60.8899H225.56C225.59 61.3288 225.716 61.6953 225.937 61.9893C226.163 62.2791 226.464 62.4986 226.839 62.6477C227.218 62.7926 227.646 62.8651 228.123 62.8651C228.592 62.8651 228.999 62.7969 229.344 62.6605C229.694 62.5241 229.964 62.3345 230.156 62.0916C230.348 61.8487 230.444 61.5696 230.444 61.2543C230.444 60.9602 230.356 60.7131 230.182 60.5128C230.011 60.3125 229.76 60.142 229.427 60.0014C229.099 59.8608 228.697 59.733 228.219 59.6179L226.794 59.2599C225.69 58.9915 224.819 58.5717 224.18 58.0007C223.54 57.4297 223.223 56.6605 223.227 55.6932C223.223 54.9006 223.434 54.2081 223.86 53.6158C224.29 53.0234 224.881 52.5611 225.631 52.2287C226.381 51.8963 227.233 51.7301 228.187 51.7301C229.159 51.7301 230.007 51.8963 230.731 52.2287C231.46 52.5611 232.027 53.0234 232.432 53.6158C232.836 54.2081 233.045 54.8942 233.058 55.674H230.405Z" fill="black"/>
<path d="M49.3089 13.1818V15.2273H43.3963V13.1818H49.3089ZM44.7386 10.8295H47.4616V19.983C47.4616 20.2344 47.5 20.4304 47.5767 20.571C47.6534 20.7074 47.7599 20.8033 47.8963 20.8587C48.0369 20.9141 48.1989 20.9418 48.3821 20.9418C48.5099 20.9418 48.6378 20.9311 48.7656 20.9098C48.8935 20.8842 48.9915 20.8651 49.0597 20.8523L49.4879 22.8786C49.3516 22.9212 49.1598 22.9702 48.9126 23.0256C48.6655 23.0852 48.3651 23.1214 48.0114 23.1342C47.3551 23.1598 46.7798 23.0724 46.2855 22.8722C45.7955 22.6719 45.4141 22.3608 45.1413 21.9389C44.8686 21.517 44.7344 20.9844 44.7386 20.3409V10.8295ZM53.8825 23.1854C53.256 23.1854 52.6978 23.0767 52.2077 22.8594C51.7177 22.6378 51.3299 22.3118 51.0444 21.8814C50.7631 21.4467 50.6225 20.9055 50.6225 20.2578C50.6225 19.7124 50.7227 19.2543 50.9229 18.8835C51.1232 18.5128 51.396 18.2145 51.7411 17.9886C52.0863 17.7628 52.4783 17.5923 52.9173 17.4773C53.3604 17.3622 53.8249 17.2812 54.3107 17.2344C54.8817 17.1747 55.342 17.1193 55.6914 17.0682C56.0408 17.0128 56.2944 16.9318 56.4521 16.8253C56.6097 16.7187 56.6886 16.5611 56.6886 16.3523V16.3139C56.6886 15.9091 56.5607 15.5959 56.305 15.3743C56.0536 15.1527 55.6957 15.0419 55.2312 15.0419C54.7411 15.0419 54.3512 15.1506 54.0614 15.3679C53.7717 15.581 53.5799 15.8494 53.4862 16.1733L50.9677 15.9688C51.0955 15.3722 51.3469 14.8565 51.7219 14.4219C52.0969 13.983 52.5806 13.6463 53.1729 13.4119C53.7695 13.1733 54.4599 13.054 55.244 13.054C55.7894 13.054 56.3114 13.1179 56.81 13.2457C57.3129 13.3736 57.7582 13.5717 58.146 13.8402C58.538 14.1087 58.8469 14.4538 59.0728 14.8757C59.2987 15.2933 59.4116 15.794 59.4116 16.3778V23H56.8292V21.6385H56.7525C56.5948 21.9453 56.3839 22.2159 56.1197 22.4503C55.8555 22.6804 55.538 22.8615 55.1673 22.9936C54.7965 23.1214 54.3683 23.1854 53.8825 23.1854ZM54.6623 21.3061C55.0629 21.3061 55.4165 21.2273 55.7234 21.0696C56.0302 20.9077 56.271 20.6903 56.4457 20.4176C56.6204 20.1449 56.7077 19.8359 56.7077 19.4908V18.4489C56.6225 18.5043 56.5053 18.5554 56.3562 18.6023C56.2113 18.6449 56.0472 18.6854 55.864 18.7237C55.6808 18.7578 55.4975 18.7898 55.3143 18.8196C55.131 18.8452 54.9648 18.8686 54.8157 18.8899C54.4961 18.9368 54.217 19.0114 53.9783 19.1136C53.7397 19.2159 53.5543 19.3544 53.4222 19.5291C53.2901 19.6996 53.2241 19.9126 53.2241 20.1683C53.2241 20.5391 53.3583 20.8224 53.6268 21.0185C53.8995 21.2102 54.2447 21.3061 54.6623 21.3061ZM61.5753 23V9.90909H64.2983V14.831H64.3814C64.5007 14.5668 64.6733 14.2983 64.8991 14.0256C65.1293 13.7486 65.4276 13.5185 65.794 13.3352C66.1648 13.1477 66.625 13.054 67.1747 13.054C67.8906 13.054 68.5511 13.2415 69.1562 13.6165C69.7614 13.9872 70.245 14.5476 70.6072 15.2976C70.9695 16.0433 71.1506 16.9787 71.1506 18.1037C71.1506 19.1989 70.9737 20.1236 70.62 20.8778C70.2706 21.6278 69.7933 22.1967 69.1882 22.5845C68.5874 22.968 67.9141 23.1598 67.1683 23.1598C66.6399 23.1598 66.1903 23.0724 65.8196 22.8977C65.4531 22.723 65.1527 22.5036 64.9183 22.2393C64.6839 21.9709 64.505 21.7003 64.3814 21.4276H64.2599V23H61.5753ZM64.2408 18.0909C64.2408 18.6747 64.3217 19.1839 64.4837 19.6186C64.6456 20.0533 64.88 20.392 65.1868 20.6349C65.4936 20.8736 65.8665 20.9929 66.3054 20.9929C66.7486 20.9929 67.1236 20.8714 67.4304 20.6286C67.7372 20.3814 67.9695 20.0405 68.1271 19.6058C68.2891 19.1669 68.37 18.6619 68.37 18.0909C68.37 17.5241 68.2912 17.0256 68.1335 16.5952C67.9759 16.1648 67.7436 15.8281 67.4368 15.5852C67.13 15.3423 66.7528 15.2209 66.3054 15.2209C65.8622 15.2209 65.4872 15.3381 65.1804 15.5724C64.8778 15.8068 64.6456 16.1392 64.4837 16.5696C64.3217 17 64.2408 17.5071 64.2408 18.0909ZM75.6905 9.90909V23H72.9675V9.90909H75.6905ZM82.3462 23.1918C81.3363 23.1918 80.467 22.9872 79.7383 22.5781C79.0138 22.1648 78.4556 21.581 78.0636 20.8267C77.6715 20.0682 77.4755 19.1712 77.4755 18.1357C77.4755 17.1257 77.6715 16.2393 78.0636 15.4766C78.4556 14.7138 79.0075 14.1193 79.7191 13.6932C80.435 13.267 81.2745 13.054 82.2376 13.054C82.8853 13.054 83.4883 13.1584 84.0465 13.3672C84.609 13.5717 85.0991 13.8807 85.5167 14.294C85.9386 14.7074 86.2667 15.2273 86.5011 15.8537C86.7354 16.4759 86.8526 17.2045 86.8526 18.0398V18.7876H78.5621V17.1001H84.2894C84.2894 16.7081 84.2042 16.3608 84.0337 16.0582C83.8633 15.7557 83.6268 15.5192 83.3242 15.3487C83.0259 15.174 82.6786 15.0866 82.2823 15.0866C81.869 15.0866 81.5025 15.1825 81.1829 15.3743C80.8675 15.5618 80.6204 15.8153 80.4414 16.1349C80.2624 16.4503 80.1708 16.8018 80.1665 17.1896V18.794C80.1665 19.2798 80.256 19.6996 80.435 20.0533C80.6183 20.407 80.8761 20.6797 81.2085 20.8714C81.5408 21.0632 81.935 21.1591 82.391 21.1591C82.6935 21.1591 82.9705 21.1165 83.2219 21.0312C83.4734 20.946 83.6886 20.8182 83.8675 20.6477C84.0465 20.4773 84.1829 20.2685 84.2766 20.0213L86.7951 20.1875C86.6673 20.7926 86.4052 21.321 86.0089 21.7727C85.6168 22.2202 85.1097 22.5696 84.4876 22.821C83.8697 23.0682 83.1559 23.1918 82.3462 23.1918ZM94.7468 16.544V18.7045H88.7766V16.544H94.7468ZM99.7901 17.3239V23H97.0671V13.1818H99.6623V14.9141H99.7773C99.9947 14.343 100.359 13.8913 100.87 13.5589C101.382 13.2223 102.002 13.054 102.73 13.054C103.412 13.054 104.007 13.2031 104.514 13.5014C105.021 13.7997 105.415 14.2259 105.696 14.7798C105.978 15.3295 106.118 15.9858 106.118 16.7486V23H103.395V17.2344C103.4 16.6335 103.246 16.1648 102.935 15.8281C102.624 15.4872 102.196 15.3168 101.65 15.3168C101.284 15.3168 100.96 15.3956 100.679 15.5533C100.402 15.7109 100.184 15.9411 100.027 16.2436C99.8732 16.5419 99.7944 16.902 99.7901 17.3239ZM111.064 23.1854C110.438 23.1854 109.879 23.0767 109.389 22.8594C108.899 22.6378 108.512 22.3118 108.226 21.8814C107.945 21.4467 107.804 20.9055 107.804 20.2578C107.804 19.7124 107.904 19.2543 108.105 18.8835C108.305 18.5128 108.578 18.2145 108.923 17.9886C109.268 17.7628 109.66 17.5923 110.099 17.4773C110.542 17.3622 111.007 17.2812 111.492 17.2344C112.063 17.1747 112.524 17.1193 112.873 17.0682C113.222 17.0128 113.476 16.9318 113.634 16.8253C113.791 16.7187 113.87 16.5611 113.87 16.3523V16.3139C113.87 15.9091 113.742 15.5959 113.487 15.3743C113.235 15.1527 112.877 15.0419 112.413 15.0419C111.923 15.0419 111.533 15.1506 111.243 15.3679C110.953 15.581 110.762 15.8494 110.668 16.1733L108.149 15.9688C108.277 15.3722 108.529 14.8565 108.904 14.4219C109.279 13.983 109.762 13.6463 110.355 13.4119C110.951 13.1733 111.642 13.054 112.426 13.054C112.971 13.054 113.493 13.1179 113.992 13.2457C114.494 13.3736 114.94 13.5717 115.328 13.8402C115.72 14.1087 116.029 14.4538 116.254 14.8757C116.48 15.2933 116.593 15.794 116.593 16.3778V23H114.011V21.6385H113.934C113.776 21.9453 113.566 22.2159 113.301 22.4503C113.037 22.6804 112.72 22.8615 112.349 22.9936C111.978 23.1214 111.55 23.1854 111.064 23.1854ZM111.844 21.3061C112.244 21.3061 112.598 21.2273 112.905 21.0696C113.212 20.9077 113.453 20.6903 113.627 20.4176C113.802 20.1449 113.889 19.8359 113.889 19.4908V18.4489C113.804 18.5043 113.687 18.5554 113.538 18.6023C113.393 18.6449 113.229 18.6854 113.046 18.7237C112.862 18.7578 112.679 18.7898 112.496 18.8196C112.313 18.8452 112.146 18.8686 111.997 18.8899C111.678 18.9368 111.399 19.0114 111.16 19.1136C110.921 19.2159 110.736 19.3544 110.604 19.5291C110.472 19.6996 110.406 19.9126 110.406 20.1683C110.406 20.5391 110.54 20.8224 110.808 21.0185C111.081 21.2102 111.426 21.3061 111.844 21.3061ZM118.706 23V13.1818H121.301V14.9141H121.416C121.621 14.3388 121.961 13.8849 122.439 13.5526C122.916 13.2202 123.487 13.054 124.152 13.054C124.825 13.054 125.398 13.2223 125.871 13.5589C126.344 13.8913 126.66 14.343 126.817 14.9141H126.92C127.12 14.3516 127.482 13.902 128.006 13.5653C128.535 13.2244 129.159 13.054 129.879 13.054C130.795 13.054 131.539 13.3459 132.11 13.9297C132.685 14.5092 132.973 15.3317 132.973 16.397V23H130.256V16.9339C130.256 16.3885 130.111 15.9794 129.822 15.7067C129.532 15.4339 129.17 15.2976 128.735 15.2976C128.241 15.2976 127.855 15.4553 127.578 15.7706C127.301 16.0817 127.162 16.4929 127.162 17.0043V23H124.523V16.8764C124.523 16.3949 124.384 16.0114 124.107 15.7259C123.834 15.4403 123.474 15.2976 123.027 15.2976C122.724 15.2976 122.452 15.3743 122.209 15.5277C121.97 15.6768 121.78 15.8878 121.64 16.1605C121.499 16.429 121.429 16.7443 121.429 17.1065V23H118.706ZM139.598 23.1918C138.588 23.1918 137.719 22.9872 136.99 22.5781C136.266 22.1648 135.708 21.581 135.316 20.8267C134.923 20.0682 134.727 19.1712 134.727 18.1357C134.727 17.1257 134.923 16.2393 135.316 15.4766C135.708 14.7138 136.259 14.1193 136.971 13.6932C137.687 13.267 138.526 13.054 139.49 13.054C140.137 13.054 140.74 13.1584 141.298 13.3672C141.861 13.5717 142.351 13.8807 142.769 14.294C143.191 14.7074 143.519 15.2273 143.753 15.8537C143.987 16.4759 144.105 17.2045 144.105 18.0398V18.7876H135.814V17.1001H141.541C141.541 16.7081 141.456 16.3608 141.286 16.0582C141.115 15.7557 140.879 15.5192 140.576 15.3487C140.278 15.174 139.931 15.0866 139.534 15.0866C139.121 15.0866 138.754 15.1825 138.435 15.3743C138.119 15.5618 137.872 15.8153 137.693 16.1349C137.514 16.4503 137.423 16.8018 137.419 17.1896V18.794C137.419 19.2798 137.508 19.6996 137.687 20.0533C137.87 20.407 138.128 20.6797 138.46 20.8714C138.793 21.0632 139.187 21.1591 139.643 21.1591C139.945 21.1591 140.222 21.1165 140.474 21.0312C140.725 20.946 140.941 20.8182 141.119 20.6477C141.298 20.4773 141.435 20.2685 141.529 20.0213L144.047 20.1875C143.919 20.7926 143.657 21.321 143.261 21.7727C142.869 22.2202 142.362 22.5696 141.74 22.821C141.122 23.0682 140.408 23.1918 139.598 23.1918Z" fill="black"/>
<rect x="196.5" y="42.5" width="50" height="32" rx="16" stroke="black"/>
<path d="M283.886 65.1854C283.26 65.1854 282.702 65.0767 282.212 64.8594C281.722 64.6378 281.334 64.3118 281.048 63.8814C280.767 63.4467 280.626 62.9055 280.626 62.2578C280.626 61.7124 280.727 61.2543 280.927 60.8835C281.127 60.5128 281.4 60.2145 281.745 59.9886C282.09 59.7628 282.482 59.5923 282.921 59.4773C283.364 59.3622 283.829 59.2812 284.315 59.2344C284.886 59.1747 285.346 59.1193 285.695 59.0682C286.045 59.0128 286.298 58.9318 286.456 58.8253C286.614 58.7187 286.692 58.5611 286.692 58.3523V58.3139C286.692 57.9091 286.565 57.5959 286.309 57.3743C286.058 57.1527 285.7 57.0419 285.235 57.0419C284.745 57.0419 284.355 57.1506 284.065 57.3679C283.776 57.581 283.584 57.8494 283.49 58.1733L280.972 57.9688C281.099 57.3722 281.351 56.8565 281.726 56.4219C282.101 55.983 282.585 55.6463 283.177 55.4119C283.773 55.1733 284.464 55.054 285.248 55.054C285.793 55.054 286.315 55.1179 286.814 55.2457C287.317 55.3736 287.762 55.5717 288.15 55.8402C288.542 56.1087 288.851 56.4538 289.077 56.8757C289.303 57.2933 289.415 57.794 289.415 58.3778V65H286.833V63.6385H286.756C286.599 63.9453 286.388 64.2159 286.124 64.4503C285.859 64.6804 285.542 64.8615 285.171 64.9936C284.8 65.1214 284.372 65.1854 283.886 65.1854ZM284.666 63.3061C285.067 63.3061 285.42 63.2273 285.727 63.0696C286.034 62.9077 286.275 62.6903 286.45 62.4176C286.624 62.1449 286.712 61.8359 286.712 61.4908V60.4489C286.626 60.5043 286.509 60.5554 286.36 60.6023C286.215 60.6449 286.051 60.6854 285.868 60.7237C285.685 60.7578 285.501 60.7898 285.318 60.8196C285.135 60.8452 284.969 60.8686 284.82 60.8899C284.5 60.9368 284.221 61.0114 283.982 61.1136C283.744 61.2159 283.558 61.3544 283.426 61.5291C283.294 61.6996 283.228 61.9126 283.228 62.1683C283.228 62.5391 283.362 62.8224 283.631 63.0185C283.903 63.2102 284.249 63.3061 284.666 63.3061ZM294.251 51.9091V65H291.528V51.9091H294.251ZM296.432 65V55.1818H299.155V65H296.432ZM297.8 53.9162C297.395 53.9162 297.048 53.782 296.758 53.5135C296.473 53.2408 296.33 52.9148 296.33 52.5355C296.33 52.1605 296.473 51.8388 296.758 51.5703C297.048 51.2976 297.395 51.1612 297.8 51.1612C298.205 51.1612 298.55 51.2976 298.836 51.5703C299.126 51.8388 299.27 52.1605 299.27 52.5355C299.27 52.9148 299.126 53.2408 298.836 53.5135C298.55 53.782 298.205 53.9162 297.8 53.9162ZM304.136 65.1854C303.51 65.1854 302.952 65.0767 302.462 64.8594C301.972 64.6378 301.584 64.3118 301.298 63.8814C301.017 63.4467 300.876 62.9055 300.876 62.2578C300.876 61.7124 300.977 61.2543 301.177 60.8835C301.377 60.5128 301.65 60.2145 301.995 59.9886C302.34 59.7628 302.732 59.5923 303.171 59.4773C303.614 59.3622 304.079 59.2812 304.565 59.2344C305.136 59.1747 305.596 59.1193 305.945 59.0682C306.295 59.0128 306.548 58.9318 306.706 58.8253C306.864 58.7187 306.942 58.5611 306.942 58.3523V58.3139C306.942 57.9091 306.815 57.5959 306.559 57.3743C306.308 57.1527 305.95 57.0419 305.485 57.0419C304.995 57.0419 304.605 57.1506 304.315 57.3679C304.026 57.581 303.834 57.8494 303.74 58.1733L301.222 57.9688C301.349 57.3722 301.601 56.8565 301.976 56.4219C302.351 55.983 302.835 55.6463 303.427 55.4119C304.023 55.1733 304.714 55.054 305.498 55.054C306.043 55.054 306.565 55.1179 307.064 55.2457C307.567 55.3736 308.012 55.5717 308.4 55.8402C308.792 56.1087 309.101 56.4538 309.327 56.8757C309.553 57.2933 309.665 57.794 309.665 58.3778V65H307.083V63.6385H307.006C306.849 63.9453 306.638 64.2159 306.374 64.4503C306.109 64.6804 305.792 64.8615 305.421 64.9936C305.05 65.1214 304.622 65.1854 304.136 65.1854ZM304.916 63.3061C305.317 63.3061 305.67 63.2273 305.977 63.0696C306.284 62.9077 306.525 62.6903 306.7 62.4176C306.874 62.1449 306.962 61.8359 306.962 61.4908V60.4489C306.876 60.5043 306.759 60.5554 306.61 60.6023C306.465 60.6449 306.301 60.6854 306.118 60.7237C305.935 60.7578 305.751 60.7898 305.568 60.8196C305.385 60.8452 305.219 60.8686 305.07 60.8899C304.75 60.9368 304.471 61.0114 304.232 61.1136C303.994 61.2159 303.808 61.3544 303.676 61.5291C303.544 61.6996 303.478 61.9126 303.478 62.1683C303.478 62.5391 303.612 62.8224 303.881 63.0185C304.153 63.2102 304.499 63.3061 304.916 63.3061ZM319.947 57.9815L317.454 58.1349C317.412 57.9219 317.32 57.7301 317.179 57.5597C317.039 57.3849 316.853 57.2464 316.623 57.1442C316.397 57.0376 316.127 56.9844 315.811 56.9844C315.39 56.9844 315.034 57.0739 314.744 57.2528C314.454 57.4276 314.309 57.6619 314.309 57.956C314.309 58.1903 314.403 58.3885 314.591 58.5504C314.778 58.7124 315.1 58.8423 315.556 58.9403L317.333 59.2983C318.287 59.4943 318.999 59.8097 319.468 60.2443C319.936 60.679 320.171 61.25 320.171 61.9574C320.171 62.6009 319.981 63.1655 319.602 63.6513C319.227 64.1371 318.711 64.5163 318.055 64.7891C317.403 65.0575 316.651 65.1918 315.799 65.1918C314.499 65.1918 313.463 64.9212 312.692 64.38C311.925 63.8345 311.475 63.093 311.343 62.1555L314.022 62.0149C314.103 62.4112 314.299 62.7138 314.61 62.9226C314.921 63.1271 315.319 63.2294 315.805 63.2294C316.282 63.2294 316.666 63.1378 316.956 62.9545C317.25 62.767 317.399 62.5263 317.403 62.2322C317.399 61.9851 317.294 61.7827 317.09 61.625C316.885 61.4631 316.57 61.3395 316.144 61.2543L314.444 60.9155C313.485 60.7237 312.771 60.3913 312.302 59.9183C311.838 59.4453 311.605 58.8423 311.605 58.1094C311.605 57.4787 311.776 56.9354 312.117 56.4794C312.462 56.0234 312.946 55.6719 313.568 55.4247C314.194 55.1776 314.927 55.054 315.767 55.054C317.007 55.054 317.983 55.3161 318.694 55.8402C319.41 56.3643 319.828 57.0781 319.947 57.9815Z" fill="black"/>
<rect x="267.5" y="42.5" width="65" height="32" rx="16" stroke="black"/>
<rect x="30.5" y="0.5" width="127" height="32" rx="16" stroke="black"/>
<path d="M46.9055 136.909V150H44.1378V136.909H46.9055ZM60.1323 136.909V150H57.7417L52.0463 141.761H51.9505V150H49.1827V136.909H51.6117L57.2623 145.142H57.3773V136.909H60.1323ZM67.0597 150H62.419V136.909H67.098C68.4148 136.909 69.5483 137.171 70.4986 137.695C71.4489 138.215 72.1797 138.963 72.6911 139.939C73.2067 140.915 73.4645 142.082 73.4645 143.442C73.4645 144.805 73.2067 145.977 72.6911 146.957C72.1797 147.937 71.4446 148.69 70.4858 149.214C69.5312 149.738 68.3892 150 67.0597 150ZM65.1868 147.629H66.9446C67.7628 147.629 68.451 147.484 69.0092 147.194C69.5717 146.9 69.9936 146.446 70.2749 145.832C70.5604 145.214 70.7031 144.418 70.7031 143.442C70.7031 142.474 70.5604 141.684 70.2749 141.07C69.9936 140.457 69.5739 140.005 69.0156 139.715C68.4574 139.425 67.7692 139.281 66.951 139.281H65.1868V147.629ZM75.5147 150V136.909H84.3358V139.191H78.2825V142.31H83.8819V144.592H78.2825V147.718H84.3613V150H75.5147ZM89.1314 136.909L91.7713 141.371H91.8736L94.5263 136.909H97.652L93.657 143.455L97.7415 150H94.5582L91.8736 145.532H91.7713L89.0866 150H85.9162L90.0135 143.455L85.9929 136.909H89.1314ZM99.4034 150V136.909H108.224V139.191H102.171V142.31H107.771V144.592H102.171V147.718H108.25V150H99.4034ZM115.066 150H110.425V136.909H115.104C116.421 136.909 117.554 137.171 118.504 137.695C119.455 138.215 120.186 138.963 120.697 139.939C121.213 140.915 121.47 142.082 121.47 143.442C121.47 144.805 121.213 145.977 120.697 146.957C120.186 147.937 119.45 148.69 118.492 149.214C117.537 149.738 116.395 150 115.066 150ZM113.193 147.629H114.95C115.769 147.629 116.457 147.484 117.015 147.194C117.578 146.9 117.999 146.446 118.281 145.832C118.566 145.214 118.709 144.418 118.709 143.442C118.709 142.474 118.566 141.684 118.281 141.07C117.999 140.457 117.58 140.005 117.021 139.715C116.463 139.425 115.775 139.281 114.957 139.281H113.193V147.629Z" fill="black"/>
<rect x="30.5" y="127.5" width="104" height="32" rx="16" stroke="black"/>
<path d="M129.906 188.909V202H127.138V188.909H129.906ZM143.132 188.909V202H140.742L135.046 193.761H134.95V202H132.183V188.909H134.612L140.262 197.142H140.377V188.909H143.132ZM150.06 202H145.419V188.909H150.098C151.415 188.909 152.548 189.171 153.499 189.695C154.449 190.215 155.18 190.963 155.691 191.939C156.207 192.915 156.464 194.082 156.464 195.442C156.464 196.805 156.207 197.977 155.691 198.957C155.18 199.937 154.445 200.69 153.486 201.214C152.531 201.738 151.389 202 150.06 202ZM148.187 199.629H149.945C150.763 199.629 151.451 199.484 152.009 199.194C152.572 198.9 152.994 198.446 153.275 197.832C153.56 197.214 153.703 196.418 153.703 195.442C153.703 194.474 153.56 193.684 153.275 193.07C152.994 192.457 152.574 192.005 152.016 191.715C151.457 191.425 150.769 191.281 149.951 191.281H148.187V199.629ZM158.515 202V188.909H167.336V191.191H161.282V194.31H166.882V196.592H161.282V199.718H167.361V202H158.515ZM172.131 188.909L174.771 193.371H174.874L177.526 188.909H180.652L176.657 195.455L180.741 202H177.558L174.874 197.532H174.771L172.087 202H168.916L173.013 195.455L168.993 188.909H172.131ZM182.403 202V188.909H191.224V191.191H185.171V194.31H190.771V196.592H185.171V199.718H191.25V202H182.403ZM198.066 202H193.425V188.909H198.104C199.421 188.909 200.554 189.171 201.504 189.695C202.455 190.215 203.186 190.963 203.697 191.939C204.213 192.915 204.47 194.082 204.47 195.442C204.47 196.805 204.213 197.977 203.697 198.957C203.186 199.937 202.45 200.69 201.492 201.214C200.537 201.738 199.395 202 198.066 202ZM196.193 199.629H197.95C198.769 199.629 199.457 199.484 200.015 199.194C200.578 198.9 200.999 198.446 201.281 197.832C201.566 197.214 201.709 196.418 201.709 195.442C201.709 194.474 201.566 193.684 201.281 193.07C200.999 192.457 200.58 192.005 200.021 191.715C199.463 191.425 198.775 191.281 197.957 191.281H196.193V199.629Z" fill="black"/>
<rect x="113.5" y="179.5" width="104" height="32" rx="16" stroke="black"/>
<path d="M235.087 150V140.182H237.81V150H235.087ZM236.455 138.916C236.05 138.916 235.702 138.782 235.413 138.513C235.127 138.241 234.984 137.915 234.984 137.536C234.984 137.161 235.127 136.839 235.413 136.57C235.702 136.298 236.05 136.161 236.455 136.161C236.859 136.161 237.205 136.298 237.49 136.57C237.78 136.839 237.925 137.161 237.925 137.536C237.925 137.915 237.78 138.241 237.49 138.513C237.205 138.782 236.859 138.916 236.455 138.916ZM242.714 144.324V150H239.991V140.182H242.586V141.914H242.701C242.919 141.343 243.283 140.891 243.794 140.559C244.306 140.222 244.926 140.054 245.654 140.054C246.336 140.054 246.931 140.203 247.438 140.501C247.945 140.8 248.339 141.226 248.62 141.78C248.901 142.33 249.042 142.986 249.042 143.749V150H246.319V144.234C246.323 143.634 246.17 143.165 245.859 142.828C245.548 142.487 245.119 142.317 244.574 142.317C244.208 142.317 243.884 142.396 243.602 142.553C243.325 142.711 243.108 142.941 242.95 143.244C242.797 143.542 242.718 143.902 242.714 144.324ZM254.806 150.16C254.06 150.16 253.385 149.968 252.78 149.585C252.179 149.197 251.702 148.628 251.348 147.878C250.999 147.124 250.824 146.199 250.824 145.104C250.824 143.979 251.005 143.043 251.367 142.298C251.729 141.548 252.211 140.987 252.812 140.616C253.417 140.241 254.08 140.054 254.8 140.054C255.349 140.054 255.808 140.148 256.174 140.335C256.545 140.518 256.843 140.749 257.069 141.026C257.299 141.298 257.474 141.567 257.593 141.831H257.676V136.909H260.393V150H257.708V148.428H257.593C257.465 148.7 257.284 148.971 257.05 149.239C256.82 149.504 256.519 149.723 256.148 149.898C255.782 150.072 255.335 150.16 254.806 150.16ZM255.669 147.993C256.108 147.993 256.479 147.874 256.781 147.635C257.088 147.392 257.322 147.053 257.484 146.619C257.651 146.184 257.734 145.675 257.734 145.091C257.734 144.507 257.653 144 257.491 143.57C257.329 143.139 257.094 142.807 256.788 142.572C256.481 142.338 256.108 142.221 255.669 142.221C255.222 142.221 254.844 142.342 254.538 142.585C254.231 142.828 253.999 143.165 253.841 143.595C253.683 144.026 253.604 144.524 253.604 145.091C253.604 145.662 253.683 146.167 253.841 146.606C254.003 147.04 254.235 147.381 254.538 147.629C254.844 147.871 255.222 147.993 255.669 147.993ZM267.106 150.192C266.096 150.192 265.227 149.987 264.498 149.578C263.774 149.165 263.215 148.581 262.823 147.827C262.431 147.068 262.235 146.171 262.235 145.136C262.235 144.126 262.431 143.239 262.823 142.477C263.215 141.714 263.767 141.119 264.479 140.693C265.195 140.267 266.034 140.054 266.997 140.054C267.645 140.054 268.248 140.158 268.806 140.367C269.369 140.572 269.859 140.881 270.276 141.294C270.698 141.707 271.026 142.227 271.261 142.854C271.495 143.476 271.612 144.205 271.612 145.04V145.788H263.322V144.1H269.049C269.049 143.708 268.964 143.361 268.794 143.058C268.623 142.756 268.387 142.519 268.084 142.349C267.786 142.174 267.438 142.087 267.042 142.087C266.629 142.087 266.262 142.183 265.943 142.374C265.627 142.562 265.38 142.815 265.201 143.135C265.022 143.45 264.931 143.802 264.926 144.19V145.794C264.926 146.28 265.016 146.7 265.195 147.053C265.378 147.407 265.636 147.68 265.968 147.871C266.301 148.063 266.695 148.159 267.151 148.159C267.453 148.159 267.73 148.116 267.982 148.031C268.233 147.946 268.448 147.818 268.627 147.648C268.806 147.477 268.943 147.268 269.036 147.021L271.555 147.188C271.427 147.793 271.165 148.321 270.769 148.773C270.377 149.22 269.869 149.57 269.247 149.821C268.629 150.068 267.916 150.192 267.106 150.192ZM275.489 140.182L277.292 143.614L279.139 140.182H281.932L279.088 145.091L282.009 150H279.229L277.292 146.606L275.387 150H272.574L275.489 145.091L272.677 140.182H275.489ZM289.262 143.544V145.705H283.292V143.544H289.262ZM294.306 144.324V150H291.583V140.182H294.178V141.914H294.293C294.51 141.343 294.875 140.891 295.386 140.559C295.897 140.222 296.517 140.054 297.246 140.054C297.928 140.054 298.522 140.203 299.029 140.501C299.537 140.8 299.931 141.226 300.212 141.78C300.493 142.33 300.634 142.986 300.634 143.749V150H297.911V144.234C297.915 143.634 297.762 143.165 297.451 142.828C297.14 142.487 296.711 142.317 296.166 142.317C295.799 142.317 295.475 142.396 295.194 142.553C294.917 142.711 294.7 142.941 294.542 143.244C294.389 143.542 294.31 143.902 294.306 144.324ZM305.58 150.185C304.953 150.185 304.395 150.077 303.905 149.859C303.415 149.638 303.027 149.312 302.742 148.881C302.46 148.447 302.32 147.906 302.32 147.258C302.32 146.712 302.42 146.254 302.62 145.884C302.82 145.513 303.093 145.214 303.438 144.989C303.784 144.763 304.176 144.592 304.615 144.477C305.058 144.362 305.522 144.281 306.008 144.234C306.579 144.175 307.039 144.119 307.389 144.068C307.738 144.013 307.992 143.932 308.149 143.825C308.307 143.719 308.386 143.561 308.386 143.352V143.314C308.386 142.909 308.258 142.596 308.002 142.374C307.751 142.153 307.393 142.042 306.928 142.042C306.438 142.042 306.048 142.151 305.759 142.368C305.469 142.581 305.277 142.849 305.183 143.173L302.665 142.969C302.793 142.372 303.044 141.857 303.419 141.422C303.794 140.983 304.278 140.646 304.87 140.412C305.467 140.173 306.157 140.054 306.941 140.054C307.487 140.054 308.009 140.118 308.507 140.246C309.01 140.374 309.455 140.572 309.843 140.84C310.235 141.109 310.544 141.454 310.77 141.876C310.996 142.293 311.109 142.794 311.109 143.378V150H308.526V148.638H308.45C308.292 148.945 308.081 149.216 307.817 149.45C307.553 149.68 307.235 149.862 306.865 149.994C306.494 150.121 306.066 150.185 305.58 150.185ZM306.36 148.306C306.76 148.306 307.114 148.227 307.421 148.07C307.727 147.908 307.968 147.69 308.143 147.418C308.318 147.145 308.405 146.836 308.405 146.491V145.449C308.32 145.504 308.203 145.555 308.053 145.602C307.909 145.645 307.744 145.685 307.561 145.724C307.378 145.758 307.195 145.79 307.012 145.82C306.828 145.845 306.662 145.869 306.513 145.89C306.193 145.937 305.914 146.011 305.676 146.114C305.437 146.216 305.252 146.354 305.119 146.529C304.987 146.7 304.921 146.913 304.921 147.168C304.921 147.539 305.056 147.822 305.324 148.018C305.597 148.21 305.942 148.306 306.36 148.306ZM313.221 150V140.182H315.817V141.914H315.932C316.136 141.339 316.477 140.885 316.954 140.553C317.432 140.22 318.003 140.054 318.667 140.054C319.341 140.054 319.914 140.222 320.387 140.559C320.86 140.891 321.175 141.343 321.333 141.914H321.435C321.635 141.352 321.998 140.902 322.522 140.565C323.05 140.224 323.675 140.054 324.395 140.054C325.311 140.054 326.055 140.346 326.626 140.93C327.201 141.509 327.488 142.332 327.488 143.397V150H324.772V143.934C324.772 143.388 324.627 142.979 324.337 142.707C324.047 142.434 323.685 142.298 323.251 142.298C322.756 142.298 322.371 142.455 322.094 142.771C321.817 143.082 321.678 143.493 321.678 144.004V150H319.038V143.876C319.038 143.395 318.9 143.011 318.623 142.726C318.35 142.44 317.99 142.298 317.542 142.298C317.24 142.298 316.967 142.374 316.724 142.528C316.486 142.677 316.296 142.888 316.155 143.161C316.015 143.429 315.944 143.744 315.944 144.107V150H313.221ZM334.114 150.192C333.104 150.192 332.235 149.987 331.506 149.578C330.781 149.165 330.223 148.581 329.831 147.827C329.439 147.068 329.243 146.171 329.243 145.136C329.243 144.126 329.439 143.239 329.831 142.477C330.223 141.714 330.775 141.119 331.487 140.693C332.203 140.267 333.042 140.054 334.005 140.054C334.653 140.054 335.256 140.158 335.814 140.367C336.377 140.572 336.867 140.881 337.284 141.294C337.706 141.707 338.034 142.227 338.269 142.854C338.503 143.476 338.62 144.205 338.62 145.04V145.788H330.33V144.1H336.057C336.057 143.708 335.972 143.361 335.801 143.058C335.631 142.756 335.394 142.519 335.092 142.349C334.794 142.174 334.446 142.087 334.05 142.087C333.637 142.087 333.27 142.183 332.95 142.374C332.635 142.562 332.388 142.815 332.209 143.135C332.03 143.45 331.938 143.802 331.934 144.19V145.794C331.934 146.28 332.024 146.7 332.203 147.053C332.386 147.407 332.644 147.68 332.976 147.871C333.308 148.063 333.703 148.159 334.159 148.159C334.461 148.159 334.738 148.116 334.99 148.031C335.241 147.946 335.456 147.818 335.635 147.648C335.814 147.477 335.95 147.268 336.044 147.021L338.563 147.188C338.435 147.793 338.173 148.321 337.776 148.773C337.384 149.22 336.877 149.57 336.255 149.821C335.637 150.068 334.923 150.192 334.114 150.192Z" fill="black"/>
<rect x="221.5" y="127.5" width="128" height="32" rx="16" stroke="black"/>
<path d="M166.138 150V136.909H171.379C172.342 136.909 173.146 137.052 173.789 137.337C174.433 137.623 174.916 138.019 175.24 138.526C175.564 139.029 175.726 139.609 175.726 140.265C175.726 140.776 175.624 141.226 175.419 141.614C175.214 141.997 174.933 142.312 174.575 142.56C174.222 142.803 173.817 142.975 173.361 143.077V143.205C173.859 143.227 174.326 143.367 174.761 143.627C175.2 143.887 175.555 144.251 175.828 144.72C176.101 145.185 176.237 145.739 176.237 146.382C176.237 147.077 176.065 147.697 175.719 148.242C175.379 148.783 174.874 149.212 174.205 149.527C173.536 149.842 172.711 150 171.731 150H166.138ZM168.906 147.737H171.162C171.933 147.737 172.496 147.59 172.849 147.296C173.203 146.998 173.38 146.602 173.38 146.107C173.38 145.745 173.293 145.425 173.118 145.148C172.943 144.871 172.694 144.654 172.37 144.496C172.05 144.339 171.669 144.26 171.226 144.26H168.906V147.737ZM168.906 142.387H170.957C171.337 142.387 171.673 142.321 171.967 142.189C172.266 142.053 172.5 141.861 172.67 141.614C172.845 141.366 172.933 141.07 172.933 140.725C172.933 140.252 172.764 139.871 172.428 139.581C172.095 139.291 171.622 139.146 171.009 139.146H168.906V142.387ZM177.271 136.909H180.371L183.356 142.547H183.484L186.469 136.909H189.569L184.795 145.372V150H182.046V145.372L177.271 136.909Z" fill="black"/>
<rect x="152.5" y="127.5" width="50" height="32" rx="16" stroke="black"/>
<path d="M55.0874 188.909V202H52.6967L47.0014 193.761H46.9055V202H44.1378V188.909H46.5668L52.2173 197.142H52.3324V188.909H55.0874ZM69.4039 195.455C69.4039 196.882 69.1333 198.097 68.5922 199.098C68.0552 200.099 67.3223 200.864 66.3933 201.393C65.4686 201.917 64.4288 202.179 63.274 202.179C62.1106 202.179 61.0666 201.915 60.1419 201.386C59.2172 200.858 58.4863 200.093 57.9494 199.092C57.4125 198.09 57.144 196.878 57.144 195.455C57.144 194.027 57.4125 192.812 57.9494 191.811C58.4863 190.81 59.2172 190.047 60.1419 189.523C61.0666 188.994 62.1106 188.73 63.274 188.73C64.4288 188.73 65.4686 188.994 66.3933 189.523C67.3223 190.047 68.0552 190.81 68.5922 191.811C69.1333 192.812 69.4039 194.027 69.4039 195.455ZM66.5978 195.455C66.5978 194.53 66.4593 193.75 66.1824 193.115C65.9096 192.48 65.524 191.999 65.0254 191.67C64.5268 191.342 63.943 191.178 63.274 191.178C62.6049 191.178 62.0211 191.342 61.5226 191.67C61.024 191.999 60.6362 192.48 60.3592 193.115C60.0865 193.75 59.9501 194.53 59.9501 195.455C59.9501 196.379 60.0865 197.159 60.3592 197.794C60.6362 198.429 61.024 198.911 61.5226 199.239C62.0211 199.567 62.6049 199.731 63.274 199.731C63.943 199.731 64.5268 199.567 65.0254 199.239C65.524 198.911 65.9096 198.429 66.1824 197.794C66.4593 197.159 66.5978 196.379 66.5978 195.455ZM70.358 191.191V188.909H81.1094V191.191H77.1016V202H74.3658V191.191H70.358Z" fill="black"/>
<rect x="30.5" y="179.5" width="62" height="32" rx="16" stroke="black"/>
</svg>
