<svg width="424" height="245" viewBox="0 0 424 245" fill="none" xmlns="http://www.w3.org/2000/svg">
<path d="M7.57457 21.6818V16.4276H7.49148C7.36364 16.7003 7.18253 16.9709 6.94815 17.2393C6.71804 17.5036 6.41761 17.723 6.04688 17.8977C5.6804 18.0724 5.23295 18.1598 4.70455 18.1598C3.95881 18.1598 3.28338 17.968 2.67827 17.5845C2.07741 17.1967 1.60014 16.6278 1.24645 15.8778C0.897017 15.1236 0.722301 14.1989 0.722301 13.1037C0.722301 11.9787 0.903409 11.0433 1.26562 10.2976C1.62784 9.54759 2.10938 8.98722 2.71023 8.61648C3.31534 8.24148 3.97798 8.05398 4.69815 8.05398C5.24787 8.05398 5.70597 8.14773 6.07244 8.33523C6.44318 8.51847 6.74148 8.74858 6.96733 9.02557C7.19744 9.2983 7.37216 9.56676 7.49148 9.83097H7.60653V8.18182H10.2912V21.6818H7.57457ZM5.56747 15.9929C6.00639 15.9929 6.37713 15.8736 6.67969 15.6349C6.98651 15.392 7.22088 15.0533 7.38281 14.6186C7.54901 14.1839 7.6321 13.6747 7.6321 13.0909C7.6321 12.5071 7.55114 12 7.3892 11.5696C7.22727 11.1392 6.9929 10.8068 6.68608 10.5724C6.37926 10.3381 6.00639 10.2209 5.56747 10.2209C5.12003 10.2209 4.7429 10.3423 4.43608 10.5852C4.12926 10.8281 3.89702 11.1648 3.73935 11.5952C3.58168 12.0256 3.50284 12.5241 3.50284 13.0909C3.50284 13.6619 3.58168 14.1669 3.73935 14.6058C3.90128 15.0405 4.13352 15.3814 4.43608 15.6286C4.7429 15.8714 5.12003 15.9929 5.56747 15.9929ZM18.7734 13.8196V8.18182H21.4964V18H18.8821V16.2166H18.7798C18.5582 16.7919 18.1896 17.2543 17.674 17.6037C17.1626 17.9531 16.5384 18.1278 15.8011 18.1278C15.1449 18.1278 14.5675 17.9787 14.0689 17.6804C13.5703 17.3821 13.1804 16.9581 12.8991 16.4084C12.6222 15.8587 12.4815 15.2003 12.4773 14.4332V8.18182H15.2003V13.9474C15.2045 14.527 15.3601 14.9851 15.6669 15.3217C15.9737 15.6584 16.3849 15.8267 16.9006 15.8267C17.2287 15.8267 17.5355 15.7521 17.821 15.603C18.1065 15.4496 18.3366 15.2237 18.5114 14.9254C18.6903 14.6271 18.7777 14.2585 18.7734 13.8196ZM26.4743 18.1854C25.8478 18.1854 25.2896 18.0767 24.7995 17.8594C24.3095 17.6378 23.9217 17.3118 23.6362 16.8814C23.3549 16.4467 23.2143 15.9055 23.2143 15.2578C23.2143 14.7124 23.3145 14.2543 23.5147 13.8835C23.715 13.5128 23.9877 13.2145 24.3329 12.9886C24.6781 12.7628 25.0701 12.5923 25.5091 12.4773C25.9522 12.3622 26.4167 12.2812 26.9025 12.2344C27.4735 12.1747 27.9338 12.1193 28.2832 12.0682C28.6326 12.0128 28.8862 11.9318 29.0439 11.8253C29.2015 11.7187 29.2804 11.5611 29.2804 11.3523V11.3139C29.2804 10.9091 29.1525 10.5959 28.8968 10.3743C28.6454 10.1527 28.2875 10.0419 27.823 10.0419C27.3329 10.0419 26.943 10.1506 26.6532 10.3679C26.3635 10.581 26.1717 10.8494 26.0779 11.1733L23.5595 10.9688C23.6873 10.3722 23.9387 9.85653 24.3137 9.42188C24.6887 8.98295 25.1724 8.64631 25.7647 8.41193C26.3613 8.1733 27.0517 8.05398 27.8358 8.05398C28.3812 8.05398 28.9032 8.1179 29.4018 8.24574C29.9047 8.37358 30.35 8.57173 30.7377 8.8402C31.1298 9.10866 31.4387 9.45384 31.6646 9.87571C31.8904 10.2933 32.0034 10.794 32.0034 11.3778V18H29.421V16.6385H29.3443C29.1866 16.9453 28.9757 17.2159 28.7115 17.4503C28.4473 17.6804 28.1298 17.8615 27.7591 17.9936C27.3883 18.1214 26.96 18.1854 26.4743 18.1854ZM27.2541 16.3061C27.6547 16.3061 28.0083 16.2273 28.3152 16.0696C28.622 15.9077 28.8627 15.6903 29.0375 15.4176C29.2122 15.1449 29.2995 14.8359 29.2995 14.4908V13.4489C29.2143 13.5043 29.0971 13.5554 28.948 13.6023C28.8031 13.6449 28.639 13.6854 28.4558 13.7237C28.2725 13.7578 28.0893 13.7898 27.9061 13.8196C27.7228 13.8452 27.5566 13.8686 27.4075 13.8899C27.0879 13.9368 26.8088 14.0114 26.5701 14.1136C26.3315 14.2159 26.1461 14.3544 26.014 14.5291C25.8819 14.6996 25.8159 14.9126 25.8159 15.1683C25.8159 15.5391 25.9501 15.8224 26.2186 16.0185C26.4913 16.2102 26.8365 16.3061 27.2541 16.3061ZM36.839 4.90909V18H34.1159V4.90909H36.839ZM39.0202 18V8.18182H41.7433V18H39.0202ZM40.3881 6.91619C39.9833 6.91619 39.636 6.78196 39.3462 6.51349C39.0607 6.24077 38.918 5.91477 38.918 5.53551C38.918 5.16051 39.0607 4.83878 39.3462 4.57031C39.636 4.29758 39.9833 4.16122 40.3881 4.16122C40.793 4.16122 41.1381 4.29758 41.4237 4.57031C41.7134 4.83878 41.8583 5.16051 41.8583 5.53551C41.8583 5.91477 41.7134 6.24077 41.4237 6.51349C41.1381 6.78196 40.793 6.91619 40.3881 6.91619ZM49.2044 8.18182V10.2273H43.1447V8.18182H49.2044ZM44.5318 18V7.4723C44.5318 6.76065 44.6703 6.17045 44.9473 5.7017C45.2285 5.23295 45.612 4.88139 46.0978 4.64702C46.5836 4.41264 47.1355 4.29545 47.7534 4.29545C48.171 4.29545 48.5524 4.32741 48.8976 4.39134C49.247 4.45526 49.5069 4.51278 49.6774 4.56392L49.1916 6.60938C49.085 6.57528 48.9529 6.54332 48.7953 6.51349C48.6419 6.48366 48.4842 6.46875 48.3223 6.46875C47.9217 6.46875 47.6426 6.5625 47.4849 6.75C47.3272 6.93324 47.2484 7.19105 47.2484 7.52344V18H44.5318ZM50.8679 18V8.18182H53.5909V18H50.8679ZM52.2358 6.91619C51.831 6.91619 51.4837 6.78196 51.1939 6.51349C50.9084 6.24077 50.7656 5.91477 50.7656 5.53551C50.7656 5.16051 50.9084 4.83878 51.1939 4.57031C51.4837 4.29758 51.831 4.16122 52.2358 4.16122C52.6406 4.16122 52.9858 4.29758 53.2713 4.57031C53.5611 4.83878 53.706 5.16051 53.706 5.53551C53.706 5.91477 53.5611 6.24077 53.2713 6.51349C52.9858 6.78196 52.6406 6.91619 52.2358 6.91619ZM60.2466 18.1918C59.2367 18.1918 58.3674 17.9872 57.6387 17.5781C56.9142 17.1648 56.356 16.581 55.964 15.8267C55.5719 15.0682 55.3759 14.1712 55.3759 13.1357C55.3759 12.1257 55.5719 11.2393 55.964 10.4766C56.356 9.71378 56.9078 9.11932 57.6195 8.69318C58.3354 8.26705 59.1749 8.05398 60.138 8.05398C60.7857 8.05398 61.3887 8.15838 61.9469 8.36719C62.5094 8.57173 62.9995 8.88068 63.4171 9.29403C63.839 9.70739 64.1671 10.2273 64.4015 10.8537C64.6358 11.4759 64.753 12.2045 64.753 13.0398V13.7876H56.4625V12.1001H62.1898C62.1898 11.7081 62.1046 11.3608 61.9341 11.0582C61.7637 10.7557 61.5272 10.5192 61.2246 10.3487C60.9263 10.174 60.579 10.0866 60.1827 10.0866C59.7694 10.0866 59.4029 10.1825 59.0833 10.3743C58.7679 10.5618 58.5208 10.8153 58.3418 11.1349C58.1628 11.4503 58.0712 11.8018 58.0669 12.1896V13.794C58.0669 14.2798 58.1564 14.6996 58.3354 15.0533C58.5186 15.407 58.7765 15.6797 59.1088 15.8714C59.4412 16.0632 59.8354 16.1591 60.2914 16.1591C60.5939 16.1591 60.8709 16.1165 61.1223 16.0312C61.3738 15.946 61.589 15.8182 61.7679 15.6477C61.9469 15.4773 62.0833 15.2685 62.177 15.0213L64.6955 15.1875C64.5676 15.7926 64.3056 16.321 63.9093 16.7727C63.5172 17.2202 63.0101 17.5696 62.388 17.821C61.7701 18.0682 61.0563 18.1918 60.2466 18.1918ZM70.1479 18.1598C69.4022 18.1598 68.7267 17.968 68.1216 17.5845C67.5208 17.1967 67.0435 16.6278 66.6898 15.8778C66.3404 15.1236 66.1657 14.1989 66.1657 13.1037C66.1657 11.9787 66.3468 11.0433 66.709 10.2976C67.0712 9.54759 67.5527 8.98722 68.1536 8.61648C68.7587 8.24148 69.4213 8.05398 70.1415 8.05398C70.6912 8.05398 71.1493 8.14773 71.5158 8.33523C71.8865 8.51847 72.1848 8.74858 72.4107 9.02557C72.6408 9.2983 72.8155 9.56676 72.9348 9.83097H73.0179V4.90909H75.7346V18H73.0499V16.4276H72.9348C72.807 16.7003 72.6259 16.9709 72.3915 17.2393C72.1614 17.5036 71.861 17.723 71.4902 17.8977C71.1238 18.0724 70.6763 18.1598 70.1479 18.1598ZM71.0108 15.9929C71.4498 15.9929 71.8205 15.8736 72.123 15.6349C72.4299 15.392 72.6642 15.0533 72.8262 14.6186C72.9924 14.1839 73.0755 13.6747 73.0755 13.0909C73.0755 12.5071 72.9945 12 72.8326 11.5696C72.6706 11.1392 72.4363 10.8068 72.1294 10.5724C71.8226 10.3381 71.4498 10.2209 71.0108 10.2209C70.5634 10.2209 70.1863 10.3423 69.8794 10.5852C69.5726 10.8281 69.3404 11.1648 69.1827 11.5952C69.025 12.0256 68.9462 12.5241 68.9462 13.0909C68.9462 13.6619 69.025 14.1669 69.1827 14.6058C69.3446 15.0405 69.5769 15.3814 69.8794 15.6286C70.1863 15.8714 70.5634 15.9929 71.0108 15.9929ZM84.0906 11.544V13.7045H78.1204V11.544H84.0906ZM91.6332 8.18182V10.2273H85.7205V8.18182H91.6332ZM87.0629 5.82955H89.7859V14.983C89.7859 15.2344 89.8242 15.4304 89.9009 15.571C89.9776 15.7074 90.0842 15.8033 90.2205 15.8587C90.3612 15.9141 90.5231 15.9418 90.7063 15.9418C90.8342 15.9418 90.962 15.9311 91.0898 15.9098C91.2177 15.8842 91.3157 15.8651 91.3839 15.8523L91.8121 17.8786C91.6758 17.9212 91.484 17.9702 91.2369 18.0256C90.9897 18.0852 90.6893 18.1214 90.3356 18.1342C89.6793 18.1598 89.104 18.0724 88.6097 17.8722C88.1197 17.6719 87.7383 17.3608 87.4656 16.9389C87.1928 16.517 87.0586 15.9844 87.0629 15.3409V5.82955ZM96.2067 18.1854C95.5803 18.1854 95.022 18.0767 94.532 17.8594C94.0419 17.6378 93.6541 17.3118 93.3686 16.8814C93.0874 16.4467 92.9467 15.9055 92.9467 15.2578C92.9467 14.7124 93.0469 14.2543 93.2472 13.8835C93.4474 13.5128 93.7202 13.2145 94.0653 12.9886C94.4105 12.7628 94.8026 12.5923 95.2415 12.4773C95.6847 12.3622 96.1491 12.2812 96.6349 12.2344C97.206 12.1747 97.6662 12.1193 98.0156 12.0682C98.3651 12.0128 98.6186 11.9318 98.7763 11.8253C98.9339 11.7187 99.0128 11.5611 99.0128 11.3523V11.3139C99.0128 10.9091 98.8849 10.5959 98.6293 10.3743C98.3778 10.1527 98.0199 10.0419 97.5554 10.0419C97.0653 10.0419 96.6754 10.1506 96.3857 10.3679C96.0959 10.581 95.9041 10.8494 95.8104 11.1733L93.2919 10.9688C93.4197 10.3722 93.6712 9.85653 94.0462 9.42188C94.4212 8.98295 94.9048 8.64631 95.4972 8.41193C96.0938 8.1733 96.7841 8.05398 97.5682 8.05398C98.1136 8.05398 98.6357 8.1179 99.1342 8.24574C99.6371 8.37358 100.082 8.57173 100.47 8.8402C100.862 9.10866 101.171 9.45384 101.397 9.87571C101.623 10.2933 101.736 10.794 101.736 11.3778V18H99.1534V16.6385H99.0767C98.919 16.9453 98.7081 17.2159 98.4439 17.4503C98.1797 17.6804 97.8622 17.8615 97.4915 17.9936C97.1207 18.1214 96.6925 18.1854 96.2067 18.1854ZM96.9865 16.3061C97.3871 16.3061 97.7408 16.2273 98.0476 16.0696C98.3544 15.9077 98.5952 15.6903 98.7699 15.4176C98.9446 15.1449 99.032 14.8359 99.032 14.4908V13.4489C98.9467 13.5043 98.8295 13.5554 98.6804 13.6023C98.5355 13.6449 98.3714 13.6854 98.1882 13.7237C98.005 13.7578 97.8217 13.7898 97.6385 13.8196C97.4553 13.8452 97.2891 13.8686 97.1399 13.8899C96.8203 13.9368 96.5412 14.0114 96.3026 14.1136C96.0639 14.2159 95.8786 14.3544 95.7464 14.5291C95.6143 14.6996 95.5483 14.9126 95.5483 15.1683C95.5483 15.5391 95.6825 15.8224 95.951 16.0185C96.2237 16.2102 96.5689 16.3061 96.9865 16.3061ZM103.9 18V4.90909H106.623V9.83097H106.706C106.825 9.56676 106.998 9.2983 107.223 9.02557C107.453 8.74858 107.752 8.51847 108.118 8.33523C108.489 8.14773 108.949 8.05398 109.499 8.05398C110.215 8.05398 110.875 8.24148 111.48 8.61648C112.086 8.98722 112.569 9.54759 112.931 10.2976C113.294 11.0433 113.475 11.9787 113.475 13.1037C113.475 14.1989 113.298 15.1236 112.944 15.8778C112.595 16.6278 112.118 17.1967 111.512 17.5845C110.912 17.968 110.238 18.1598 109.493 18.1598C108.964 18.1598 108.515 18.0724 108.144 17.8977C107.777 17.723 107.477 17.5036 107.243 17.2393C107.008 16.9709 106.829 16.7003 106.706 16.4276H106.584V18H103.9ZM106.565 13.0909C106.565 13.6747 106.646 14.1839 106.808 14.6186C106.97 15.0533 107.204 15.392 107.511 15.6349C107.818 15.8736 108.191 15.9929 108.63 15.9929C109.073 15.9929 109.448 15.8714 109.755 15.6286C110.061 15.3814 110.294 15.0405 110.451 14.6058C110.613 14.1669 110.694 13.6619 110.694 13.0909C110.694 12.5241 110.615 12.0256 110.458 11.5952C110.3 11.1648 110.068 10.8281 109.761 10.5852C109.454 10.3423 109.077 10.2209 108.63 10.2209C108.186 10.2209 107.811 10.3381 107.505 10.5724C107.202 10.8068 106.97 11.1392 106.808 11.5696C106.646 12 106.565 12.5071 106.565 13.0909ZM118.015 4.90909V18H115.292V4.90909H118.015ZM124.67 18.1918C123.661 18.1918 122.791 17.9872 122.062 17.5781C121.338 17.1648 120.78 16.581 120.388 15.8267C119.996 15.0682 119.8 14.1712 119.8 13.1357C119.8 12.1257 119.996 11.2393 120.388 10.4766C120.78 9.71378 121.332 9.11932 122.043 8.69318C122.759 8.26705 123.599 8.05398 124.562 8.05398C125.21 8.05398 125.813 8.15838 126.371 8.36719C126.933 8.57173 127.423 8.88068 127.841 9.29403C128.263 9.70739 128.591 10.2273 128.825 10.8537C129.06 11.4759 129.177 12.2045 129.177 13.0398V13.7876H120.886V12.1001H126.614C126.614 11.7081 126.528 11.3608 126.358 11.0582C126.188 10.7557 125.951 10.5192 125.648 10.3487C125.35 10.174 125.003 10.0866 124.607 10.0866C124.193 10.0866 123.827 10.1825 123.507 10.3743C123.192 10.5618 122.945 10.8153 122.766 11.1349C122.587 11.4503 122.495 11.8018 122.491 12.1896V13.794C122.491 14.2798 122.58 14.6996 122.759 15.0533C122.942 15.407 123.2 15.6797 123.533 15.8714C123.865 16.0632 124.259 16.1591 124.715 16.1591C125.018 16.1591 125.295 16.1165 125.546 16.0312C125.798 15.946 126.013 15.8182 126.192 15.6477C126.371 15.4773 126.507 15.2685 126.601 15.0213L129.119 15.1875C128.991 15.7926 128.729 16.321 128.333 16.7727C127.941 17.2202 127.434 17.5696 126.812 17.821C126.194 18.0682 125.48 18.1918 124.67 18.1918ZM137.071 11.544V13.7045H131.101V11.544H137.071ZM142.114 12.3239V18H139.391V8.18182H141.987V9.91406H142.102C142.319 9.34304 142.683 8.89133 143.195 8.55895C143.706 8.2223 144.326 8.05398 145.055 8.05398C145.737 8.05398 146.331 8.20312 146.838 8.50142C147.345 8.79972 147.739 9.22585 148.021 9.77983C148.302 10.3295 148.442 10.9858 148.442 11.7486V18H145.719V12.2344C145.724 11.6335 145.57 11.1648 145.259 10.8281C144.948 10.4872 144.52 10.3168 143.974 10.3168C143.608 10.3168 143.284 10.3956 143.003 10.5533C142.726 10.7109 142.509 10.9411 142.351 11.2436C142.197 11.5419 142.119 11.902 142.114 12.3239ZM153.388 18.1854C152.762 18.1854 152.204 18.0767 151.714 17.8594C151.224 17.6378 150.836 17.3118 150.55 16.8814C150.269 16.4467 150.128 15.9055 150.128 15.2578C150.128 14.7124 150.229 14.2543 150.429 13.8835C150.629 13.5128 150.902 13.2145 151.247 12.9886C151.592 12.7628 151.984 12.5923 152.423 12.4773C152.866 12.3622 153.331 12.2812 153.817 12.2344C154.388 12.1747 154.848 12.1193 155.197 12.0682C155.547 12.0128 155.8 11.9318 155.958 11.8253C156.116 11.7187 156.194 11.5611 156.194 11.3523V11.3139C156.194 10.9091 156.067 10.5959 155.811 10.3743C155.559 10.1527 155.202 10.0419 154.737 10.0419C154.247 10.0419 153.857 10.1506 153.567 10.3679C153.278 10.581 153.086 10.8494 152.992 11.1733L150.474 10.9688C150.601 10.3722 150.853 9.85653 151.228 9.42188C151.603 8.98295 152.086 8.64631 152.679 8.41193C153.275 8.1733 153.966 8.05398 154.75 8.05398C155.295 8.05398 155.817 8.1179 156.316 8.24574C156.819 8.37358 157.264 8.57173 157.652 8.8402C158.044 9.10866 158.353 9.45384 158.579 9.87571C158.805 10.2933 158.917 10.794 158.917 11.3778V18H156.335V16.6385H156.258C156.101 16.9453 155.89 17.2159 155.626 17.4503C155.361 17.6804 155.044 17.8615 154.673 17.9936C154.302 18.1214 153.874 18.1854 153.388 18.1854ZM154.168 16.3061C154.569 16.3061 154.922 16.2273 155.229 16.0696C155.536 15.9077 155.777 15.6903 155.952 15.4176C156.126 15.1449 156.214 14.8359 156.214 14.4908V13.4489C156.128 13.5043 156.011 13.5554 155.862 13.6023C155.717 13.6449 155.553 13.6854 155.37 13.7237C155.187 13.7578 155.003 13.7898 154.82 13.8196C154.637 13.8452 154.471 13.8686 154.322 13.8899C154.002 13.9368 153.723 14.0114 153.484 14.1136C153.246 14.2159 153.06 14.3544 152.928 14.5291C152.796 14.6996 152.73 14.9126 152.73 15.1683C152.73 15.5391 152.864 15.8224 153.133 16.0185C153.405 16.2102 153.751 16.3061 154.168 16.3061ZM161.03 18V8.18182H163.625V9.91406H163.74C163.945 9.33878 164.286 8.88494 164.763 8.55256C165.24 8.22017 165.811 8.05398 166.476 8.05398C167.149 8.05398 167.722 8.2223 168.195 8.55895C168.669 8.89133 168.984 9.34304 169.142 9.91406H169.244C169.444 9.35156 169.806 8.90199 170.33 8.56534C170.859 8.22443 171.483 8.05398 172.203 8.05398C173.119 8.05398 173.863 8.34588 174.434 8.92969C175.009 9.50923 175.297 10.3317 175.297 11.397V18H172.58V11.9339C172.58 11.3885 172.436 10.9794 172.146 10.7067C171.856 10.4339 171.494 10.2976 171.059 10.2976C170.565 10.2976 170.179 10.4553 169.902 10.7706C169.625 11.0817 169.487 11.4929 169.487 12.0043V18H166.847V11.8764C166.847 11.3949 166.708 11.0114 166.431 10.7259C166.159 10.4403 165.798 10.2976 165.351 10.2976C165.048 10.2976 164.776 10.3743 164.533 10.5277C164.294 10.6768 164.105 10.8878 163.964 11.1605C163.823 11.429 163.753 11.7443 163.753 12.1065V18H161.03ZM181.922 18.1918C180.912 18.1918 180.043 17.9872 179.314 17.5781C178.59 17.1648 178.032 16.581 177.64 15.8267C177.248 15.0682 177.052 14.1712 177.052 13.1357C177.052 12.1257 177.248 11.2393 177.64 10.4766C178.032 9.71378 178.584 9.11932 179.295 8.69318C180.011 8.26705 180.851 8.05398 181.814 8.05398C182.461 8.05398 183.064 8.15838 183.623 8.36719C184.185 8.57173 184.675 8.88068 185.093 9.29403C185.515 9.70739 185.843 10.2273 186.077 10.8537C186.312 11.4759 186.429 12.2045 186.429 13.0398V13.7876H178.138V12.1001H183.866C183.866 11.7081 183.78 11.3608 183.61 11.0582C183.439 10.7557 183.203 10.5192 182.9 10.3487C182.602 10.174 182.255 10.0866 181.858 10.0866C181.445 10.0866 181.079 10.1825 180.759 10.3743C180.444 10.5618 180.197 10.8153 180.018 11.1349C179.839 11.4503 179.747 11.8018 179.743 12.1896V13.794C179.743 14.2798 179.832 14.6996 180.011 15.0533C180.194 15.407 180.452 15.6797 180.785 15.8714C181.117 16.0632 181.511 16.1591 181.967 16.1591C182.27 16.1591 182.547 16.1165 182.798 16.0312C183.05 15.946 183.265 15.8182 183.444 15.6477C183.623 15.4773 183.759 15.2685 183.853 15.0213L186.371 15.1875C186.243 15.7926 185.981 16.321 185.585 16.7727C185.193 17.2202 184.686 17.5696 184.064 17.821C183.446 18.0682 182.732 18.1918 181.922 18.1918Z" fill="black"/>
<circle cx="4" cy="49" r="3.5" stroke="black"/>
<circle cx="420" cy="229" r="3.5" stroke="black"/>
<path d="M28 49L18 43.2265V54.7735L28 49ZM8 50H19V48H8V50Z" fill="black"/>
<path d="M416 229L406 223.226V234.774L416 229ZM218 230L407 230V228L218 228V230Z" fill="black"/>
<path d="M416 229L406 223.226V234.774L416 229ZM350 177H360V175H350V177ZM369 186V219H371V186H369ZM380 230H407V228H380V230ZM369 219C369 225.075 373.925 230 380 230V228C375.029 228 371 223.971 371 219H369ZM360 177C364.971 177 369 181.029 369 186H371C371 179.925 366.075 175 360 175V177Z" fill="black"/>
<path d="M152 176L142 170.226V181.774L152 176ZM135 177H143V175H135V177Z" fill="black"/>
<path d="M113 229L103 223.226V234.774L113 229ZM93 230H103V228H93V230ZM103 230H104V228H103V230Z" fill="black"/>
<path d="M221 176L211 170.226V181.774L221 176ZM203 177H212V175H203V177Z" fill="black"/>
<path d="M30 176.5L20 170.726L20 182.274L30 176.5ZM169.5 139.5L18 139.5V141.5L169.5 141.5V139.5ZM7 150.5L7 166.5H9L9 150.5H7ZM18 177.5H21V175.5H18V177.5ZM7 166.5C7 172.575 11.9249 177.5 18 177.5V175.5C13.0294 175.5 9 171.471 9 166.5H7ZM18 139.5C11.9249 139.5 7 144.425 7 150.5H9C9 145.529 13.0294 141.5 18 141.5V139.5Z" fill="black"/>
<path d="M7.80933 150.5H6.80933H7.80933ZM7.80934 219H8.80934H7.80934ZM30.0681 229L20.0681 223.226V234.774L30.0681 229ZM170 139.5L17.8093 139.5V141.5L170 141.5V139.5ZM6.80933 150.5L6.80934 219H8.80934L8.80933 150.5H6.80933ZM17.8093 230H21.0681V228H17.8093V230ZM6.80934 219C6.80934 225.075 11.7342 230 17.8093 230V228C12.8388 228 8.80934 223.971 8.80934 219H6.80934ZM17.8093 139.5C11.7342 139.5 6.80933 144.425 6.80933 150.5H8.80933C8.80933 145.529 12.8388 141.5 17.8093 141.5V139.5Z" fill="black"/>
<path d="M352 92L342 86.2265V97.7735L352 92ZM332 93H343V91H332V93Z" fill="black"/>
<path d="M361 124L366.774 114H355.226L361 124ZM332 93H351V91H332V93ZM360 102V115H362V102H360ZM351 93C355.971 93 360 97.0294 360 102H362C362 95.9249 357.075 91 351 91V93Z" fill="black"/>
<path d="M267 92L257 86.2265V97.7735L267 92ZM247 93H258V91H247V93Z" fill="black"/>
<path d="M370 150.5L369 150.5L370 150.5ZM370 204.5L375.774 194.5L364.226 194.5L370 204.5ZM360 131L360 141.5L362 141.5L362 131L360 131ZM369 150.5L369 195.5L371 195.5L371 150.5L369 150.5ZM365.5 147C367.433 147 369 148.567 369 150.5L371 150.5C371 147.462 368.538 145 365.5 145L365.5 147ZM360 141.5C360 144.538 362.462 147 365.5 147L365.5 145C363.567 145 362 143.433 362 141.5L360 141.5Z" fill="black"/>
<path d="M267 49L257 43.2265V54.7735L267 49ZM158 50L258 50V48L158 48V50Z" fill="black"/>
<path d="M140.5 140.5L150.5 146.274V134.726L140.5 140.5ZM158 50H351V48H158V50ZM360 59V130.5H362V59H360ZM351 139.5H149.5V141.5H351V139.5ZM360 130.5C360 135.471 355.971 139.5 351 139.5V141.5C357.075 141.5 362 136.575 362 130.5H360ZM351 50C355.971 50 360 54.0294 360 59H362C362 52.9249 357.075 48 351 48V50Z" fill="black"/>
<path d="M196.5 92.5L186.5 86.7265V98.2735L196.5 92.5ZM158 50H166.5V48H158V50ZM175.5 59V82.5H177.5V59L175.5 59ZM186.5 93.5H187.5V91.5H186.5V93.5ZM175.5 82.5C175.5 88.5751 180.425 93.5 186.5 93.5V91.5C181.529 91.5 177.5 87.4706 177.5 82.5H175.5ZM166.5 50C171.471 50 175.5 54.0294 175.5 59L177.5 59C177.5 52.9249 172.575 48 166.5 48V50Z" fill="black"/>
<path d="M212.394 98H209.428L213.947 84.9091H217.514L222.027 98H219.061L215.782 87.9006H215.68L212.394 98ZM212.209 92.8544H219.214V95.0149H212.209V92.8544ZM230.405 88.674C230.354 88.1584 230.135 87.7578 229.747 87.4723C229.359 87.1868 228.833 87.044 228.168 87.044C227.716 87.044 227.335 87.108 227.024 87.2358C226.713 87.3594 226.474 87.532 226.308 87.7536C226.146 87.9751 226.065 88.2266 226.065 88.5078C226.057 88.7422 226.106 88.9467 226.212 89.1214C226.323 89.2962 226.474 89.4474 226.666 89.5753C226.858 89.6989 227.079 89.8075 227.331 89.9013C227.582 89.9908 227.851 90.0675 228.136 90.1314L229.312 90.4126C229.883 90.5405 230.407 90.7109 230.885 90.924C231.362 91.1371 231.775 91.3991 232.125 91.7102C232.474 92.0213 232.745 92.3878 232.937 92.8097C233.133 93.2315 233.233 93.7152 233.237 94.2607C233.233 95.0618 233.028 95.7564 232.623 96.3445C232.223 96.9283 231.643 97.3821 230.885 97.706C230.131 98.0256 229.221 98.1854 228.155 98.1854C227.099 98.1854 226.178 98.0234 225.394 97.6996C224.614 97.3757 224.005 96.8963 223.566 96.2614C223.131 95.6222 222.903 94.8317 222.882 93.8899H225.56C225.59 94.3288 225.716 94.6953 225.937 94.9893C226.163 95.2791 226.464 95.4986 226.839 95.6477C227.218 95.7926 227.646 95.8651 228.123 95.8651C228.592 95.8651 228.999 95.7969 229.344 95.6605C229.694 95.5241 229.964 95.3345 230.156 95.0916C230.348 94.8487 230.444 94.5696 230.444 94.2543C230.444 93.9602 230.356 93.7131 230.182 93.5128C230.011 93.3125 229.76 93.142 229.427 93.0014C229.099 92.8608 228.697 92.733 228.219 92.6179L226.794 92.2599C225.69 91.9915 224.819 91.5717 224.18 91.0007C223.54 90.4297 223.223 89.6605 223.227 88.6932C223.223 87.9006 223.434 87.2081 223.86 86.6158C224.29 86.0234 224.881 85.5611 225.631 85.2287C226.381 84.8963 227.233 84.7301 228.187 84.7301C229.159 84.7301 230.007 84.8963 230.731 85.2287C231.46 85.5611 232.027 86.0234 232.432 86.6158C232.836 87.2081 233.045 87.8942 233.058 88.674H230.405Z" fill="black"/>
<path d="M49.3089 46.1818V48.2273H43.3963V46.1818H49.3089ZM44.7386 43.8295H47.4616V52.983C47.4616 53.2344 47.5 53.4304 47.5767 53.571C47.6534 53.7074 47.7599 53.8033 47.8963 53.8587C48.0369 53.9141 48.1989 53.9418 48.3821 53.9418C48.5099 53.9418 48.6378 53.9311 48.7656 53.9098C48.8935 53.8842 48.9915 53.8651 49.0597 53.8523L49.4879 55.8786C49.3516 55.9212 49.1598 55.9702 48.9126 56.0256C48.6655 56.0852 48.3651 56.1214 48.0114 56.1342C47.3551 56.1598 46.7798 56.0724 46.2855 55.8722C45.7955 55.6719 45.4141 55.3608 45.1413 54.9389C44.8686 54.517 44.7344 53.9844 44.7386 53.3409V43.8295ZM53.8825 56.1854C53.256 56.1854 52.6978 56.0767 52.2077 55.8594C51.7177 55.6378 51.3299 55.3118 51.0444 54.8814C50.7631 54.4467 50.6225 53.9055 50.6225 53.2578C50.6225 52.7124 50.7227 52.2543 50.9229 51.8835C51.1232 51.5128 51.396 51.2145 51.7411 50.9886C52.0863 50.7628 52.4783 50.5923 52.9173 50.4773C53.3604 50.3622 53.8249 50.2812 54.3107 50.2344C54.8817 50.1747 55.342 50.1193 55.6914 50.0682C56.0408 50.0128 56.2944 49.9318 56.4521 49.8253C56.6097 49.7187 56.6886 49.5611 56.6886 49.3523V49.3139C56.6886 48.9091 56.5607 48.5959 56.305 48.3743C56.0536 48.1527 55.6957 48.0419 55.2312 48.0419C54.7411 48.0419 54.3512 48.1506 54.0614 48.3679C53.7717 48.581 53.5799 48.8494 53.4862 49.1733L50.9677 48.9688C51.0955 48.3722 51.3469 47.8565 51.7219 47.4219C52.0969 46.983 52.5806 46.6463 53.1729 46.4119C53.7695 46.1733 54.4599 46.054 55.244 46.054C55.7894 46.054 56.3114 46.1179 56.81 46.2457C57.3129 46.3736 57.7582 46.5717 58.146 46.8402C58.538 47.1087 58.8469 47.4538 59.0728 47.8757C59.2987 48.2933 59.4116 48.794 59.4116 49.3778V56H56.8292V54.6385H56.7525C56.5948 54.9453 56.3839 55.2159 56.1197 55.4503C55.8555 55.6804 55.538 55.8615 55.1673 55.9936C54.7965 56.1214 54.3683 56.1854 53.8825 56.1854ZM54.6623 54.3061C55.0629 54.3061 55.4165 54.2273 55.7234 54.0696C56.0302 53.9077 56.271 53.6903 56.4457 53.4176C56.6204 53.1449 56.7077 52.8359 56.7077 52.4908V51.4489C56.6225 51.5043 56.5053 51.5554 56.3562 51.6023C56.2113 51.6449 56.0472 51.6854 55.864 51.7237C55.6808 51.7578 55.4975 51.7898 55.3143 51.8196C55.131 51.8452 54.9648 51.8686 54.8157 51.8899C54.4961 51.9368 54.217 52.0114 53.9783 52.1136C53.7397 52.2159 53.5543 52.3544 53.4222 52.5291C53.2901 52.6996 53.2241 52.9126 53.2241 53.1683C53.2241 53.5391 53.3583 53.8224 53.6268 54.0185C53.8995 54.2102 54.2447 54.3061 54.6623 54.3061ZM61.5753 56V42.9091H64.2983V47.831H64.3814C64.5007 47.5668 64.6733 47.2983 64.8991 47.0256C65.1293 46.7486 65.4276 46.5185 65.794 46.3352C66.1648 46.1477 66.625 46.054 67.1747 46.054C67.8906 46.054 68.5511 46.2415 69.1562 46.6165C69.7614 46.9872 70.245 47.5476 70.6072 48.2976C70.9695 49.0433 71.1506 49.9787 71.1506 51.1037C71.1506 52.1989 70.9737 53.1236 70.62 53.8778C70.2706 54.6278 69.7933 55.1967 69.1882 55.5845C68.5874 55.968 67.9141 56.1598 67.1683 56.1598C66.6399 56.1598 66.1903 56.0724 65.8196 55.8977C65.4531 55.723 65.1527 55.5036 64.9183 55.2393C64.6839 54.9709 64.505 54.7003 64.3814 54.4276H64.2599V56H61.5753ZM64.2408 51.0909C64.2408 51.6747 64.3217 52.1839 64.4837 52.6186C64.6456 53.0533 64.88 53.392 65.1868 53.6349C65.4936 53.8736 65.8665 53.9929 66.3054 53.9929C66.7486 53.9929 67.1236 53.8714 67.4304 53.6286C67.7372 53.3814 67.9695 53.0405 68.1271 52.6058C68.2891 52.1669 68.37 51.6619 68.37 51.0909C68.37 50.5241 68.2912 50.0256 68.1335 49.5952C67.9759 49.1648 67.7436 48.8281 67.4368 48.5852C67.13 48.3423 66.7528 48.2209 66.3054 48.2209C65.8622 48.2209 65.4872 48.3381 65.1804 48.5724C64.8778 48.8068 64.6456 49.1392 64.4837 49.5696C64.3217 50 64.2408 50.5071 64.2408 51.0909ZM75.6905 42.9091V56H72.9675V42.9091H75.6905ZM82.3462 56.1918C81.3363 56.1918 80.467 55.9872 79.7383 55.5781C79.0138 55.1648 78.4556 54.581 78.0636 53.8267C77.6715 53.0682 77.4755 52.1712 77.4755 51.1357C77.4755 50.1257 77.6715 49.2393 78.0636 48.4766C78.4556 47.7138 79.0075 47.1193 79.7191 46.6932C80.435 46.267 81.2745 46.054 82.2376 46.054C82.8853 46.054 83.4883 46.1584 84.0465 46.3672C84.609 46.5717 85.0991 46.8807 85.5167 47.294C85.9386 47.7074 86.2667 48.2273 86.5011 48.8537C86.7354 49.4759 86.8526 50.2045 86.8526 51.0398V51.7876H78.5621V50.1001H84.2894C84.2894 49.7081 84.2042 49.3608 84.0337 49.0582C83.8633 48.7557 83.6268 48.5192 83.3242 48.3487C83.0259 48.174 82.6786 48.0866 82.2823 48.0866C81.869 48.0866 81.5025 48.1825 81.1829 48.3743C80.8675 48.5618 80.6204 48.8153 80.4414 49.1349C80.2624 49.4503 80.1708 49.8018 80.1665 50.1896V51.794C80.1665 52.2798 80.256 52.6996 80.435 53.0533C80.6183 53.407 80.8761 53.6797 81.2085 53.8714C81.5408 54.0632 81.935 54.1591 82.391 54.1591C82.6935 54.1591 82.9705 54.1165 83.2219 54.0312C83.4734 53.946 83.6886 53.8182 83.8675 53.6477C84.0465 53.4773 84.1829 53.2685 84.2766 53.0213L86.7951 53.1875C86.6673 53.7926 86.4052 54.321 86.0089 54.7727C85.6168 55.2202 85.1097 55.5696 84.4876 55.821C83.8697 56.0682 83.1559 56.1918 82.3462 56.1918ZM94.7468 49.544V51.7045H88.7766V49.544H94.7468ZM99.7901 50.3239V56H97.0671V46.1818H99.6623V47.9141H99.7773C99.9947 47.343 100.359 46.8913 100.87 46.5589C101.382 46.2223 102.002 46.054 102.73 46.054C103.412 46.054 104.007 46.2031 104.514 46.5014C105.021 46.7997 105.415 47.2259 105.696 47.7798C105.978 48.3295 106.118 48.9858 106.118 49.7486V56H103.395V50.2344C103.4 49.6335 103.246 49.1648 102.935 48.8281C102.624 48.4872 102.196 48.3168 101.65 48.3168C101.284 48.3168 100.96 48.3956 100.679 48.5533C100.402 48.7109 100.184 48.9411 100.027 49.2436C99.8732 49.5419 99.7944 49.902 99.7901 50.3239ZM111.064 56.1854C110.438 56.1854 109.879 56.0767 109.389 55.8594C108.899 55.6378 108.512 55.3118 108.226 54.8814C107.945 54.4467 107.804 53.9055 107.804 53.2578C107.804 52.7124 107.904 52.2543 108.105 51.8835C108.305 51.5128 108.578 51.2145 108.923 50.9886C109.268 50.7628 109.66 50.5923 110.099 50.4773C110.542 50.3622 111.007 50.2812 111.492 50.2344C112.063 50.1747 112.524 50.1193 112.873 50.0682C113.222 50.0128 113.476 49.9318 113.634 49.8253C113.791 49.7187 113.87 49.5611 113.87 49.3523V49.3139C113.87 48.9091 113.742 48.5959 113.487 48.3743C113.235 48.1527 112.877 48.0419 112.413 48.0419C111.923 48.0419 111.533 48.1506 111.243 48.3679C110.953 48.581 110.762 48.8494 110.668 49.1733L108.149 48.9688C108.277 48.3722 108.529 47.8565 108.904 47.4219C109.279 46.983 109.762 46.6463 110.355 46.4119C110.951 46.1733 111.642 46.054 112.426 46.054C112.971 46.054 113.493 46.1179 113.992 46.2457C114.494 46.3736 114.94 46.5717 115.328 46.8402C115.72 47.1087 116.029 47.4538 116.254 47.8757C116.48 48.2933 116.593 48.794 116.593 49.3778V56H114.011V54.6385H113.934C113.776 54.9453 113.566 55.2159 113.301 55.4503C113.037 55.6804 112.72 55.8615 112.349 55.9936C111.978 56.1214 111.55 56.1854 111.064 56.1854ZM111.844 54.3061C112.244 54.3061 112.598 54.2273 112.905 54.0696C113.212 53.9077 113.453 53.6903 113.627 53.4176C113.802 53.1449 113.889 52.8359 113.889 52.4908V51.4489C113.804 51.5043 113.687 51.5554 113.538 51.6023C113.393 51.6449 113.229 51.6854 113.046 51.7237C112.862 51.7578 112.679 51.7898 112.496 51.8196C112.313 51.8452 112.146 51.8686 111.997 51.8899C111.678 51.9368 111.399 52.0114 111.16 52.1136C110.921 52.2159 110.736 52.3544 110.604 52.5291C110.472 52.6996 110.406 52.9126 110.406 53.1683C110.406 53.5391 110.54 53.8224 110.808 54.0185C111.081 54.2102 111.426 54.3061 111.844 54.3061ZM118.706 56V46.1818H121.301V47.9141H121.416C121.621 47.3388 121.961 46.8849 122.439 46.5526C122.916 46.2202 123.487 46.054 124.152 46.054C124.825 46.054 125.398 46.2223 125.871 46.5589C126.344 46.8913 126.66 47.343 126.817 47.9141H126.92C127.12 47.3516 127.482 46.902 128.006 46.5653C128.535 46.2244 129.159 46.054 129.879 46.054C130.795 46.054 131.539 46.3459 132.11 46.9297C132.685 47.5092 132.973 48.3317 132.973 49.397V56H130.256V49.9339C130.256 49.3885 130.111 48.9794 129.822 48.7067C129.532 48.4339 129.17 48.2976 128.735 48.2976C128.241 48.2976 127.855 48.4553 127.578 48.7706C127.301 49.0817 127.162 49.4929 127.162 50.0043V56H124.523V49.8764C124.523 49.3949 124.384 49.0114 124.107 48.7259C123.834 48.4403 123.474 48.2976 123.027 48.2976C122.724 48.2976 122.452 48.3743 122.209 48.5277C121.97 48.6768 121.78 48.8878 121.64 49.1605C121.499 49.429 121.429 49.7443 121.429 50.1065V56H118.706ZM139.598 56.1918C138.588 56.1918 137.719 55.9872 136.99 55.5781C136.266 55.1648 135.708 54.581 135.316 53.8267C134.923 53.0682 134.727 52.1712 134.727 51.1357C134.727 50.1257 134.923 49.2393 135.316 48.4766C135.708 47.7138 136.259 47.1193 136.971 46.6932C137.687 46.267 138.526 46.054 139.49 46.054C140.137 46.054 140.74 46.1584 141.298 46.3672C141.861 46.5717 142.351 46.8807 142.769 47.294C143.191 47.7074 143.519 48.2273 143.753 48.8537C143.987 49.4759 144.105 50.2045 144.105 51.0398V51.7876H135.814V50.1001H141.541C141.541 49.7081 141.456 49.3608 141.286 49.0582C141.115 48.7557 140.879 48.5192 140.576 48.3487C140.278 48.174 139.931 48.0866 139.534 48.0866C139.121 48.0866 138.754 48.1825 138.435 48.3743C138.119 48.5618 137.872 48.8153 137.693 49.1349C137.514 49.4503 137.423 49.8018 137.419 50.1896V51.794C137.419 52.2798 137.508 52.6996 137.687 53.0533C137.87 53.407 138.128 53.6797 138.46 53.8714C138.793 54.0632 139.187 54.1591 139.643 54.1591C139.945 54.1591 140.222 54.1165 140.474 54.0312C140.725 53.946 140.941 53.8182 141.119 53.6477C141.298 53.4773 141.435 53.2685 141.529 53.0213L144.047 53.1875C143.919 53.7926 143.657 54.321 143.261 54.7727C142.869 55.2202 142.362 55.5696 141.74 55.821C141.122 56.0682 140.408 56.1918 139.598 56.1918Z" fill="black"/>
<rect x="196.5" y="75.5" width="50" height="32" rx="16" stroke="black"/>
<path d="M283.886 98.1854C283.26 98.1854 282.702 98.0767 282.212 97.8594C281.722 97.6378 281.334 97.3118 281.048 96.8814C280.767 96.4467 280.626 95.9055 280.626 95.2578C280.626 94.7124 280.727 94.2543 280.927 93.8835C281.127 93.5128 281.4 93.2145 281.745 92.9886C282.09 92.7628 282.482 92.5923 282.921 92.4773C283.364 92.3622 283.829 92.2812 284.315 92.2344C284.886 92.1747 285.346 92.1193 285.695 92.0682C286.045 92.0128 286.298 91.9318 286.456 91.8253C286.614 91.7187 286.692 91.5611 286.692 91.3523V91.3139C286.692 90.9091 286.565 90.5959 286.309 90.3743C286.058 90.1527 285.7 90.0419 285.235 90.0419C284.745 90.0419 284.355 90.1506 284.065 90.3679C283.776 90.581 283.584 90.8494 283.49 91.1733L280.972 90.9688C281.099 90.3722 281.351 89.8565 281.726 89.4219C282.101 88.983 282.585 88.6463 283.177 88.4119C283.773 88.1733 284.464 88.054 285.248 88.054C285.793 88.054 286.315 88.1179 286.814 88.2457C287.317 88.3736 287.762 88.5717 288.15 88.8402C288.542 89.1087 288.851 89.4538 289.077 89.8757C289.303 90.2933 289.415 90.794 289.415 91.3778V98H286.833V96.6385H286.756C286.599 96.9453 286.388 97.2159 286.124 97.4503C285.859 97.6804 285.542 97.8615 285.171 97.9936C284.8 98.1214 284.372 98.1854 283.886 98.1854ZM284.666 96.3061C285.067 96.3061 285.42 96.2273 285.727 96.0696C286.034 95.9077 286.275 95.6903 286.45 95.4176C286.624 95.1449 286.712 94.8359 286.712 94.4908V93.4489C286.626 93.5043 286.509 93.5554 286.36 93.6023C286.215 93.6449 286.051 93.6854 285.868 93.7237C285.685 93.7578 285.501 93.7898 285.318 93.8196C285.135 93.8452 284.969 93.8686 284.82 93.8899C284.5 93.9368 284.221 94.0114 283.982 94.1136C283.744 94.2159 283.558 94.3544 283.426 94.5291C283.294 94.6996 283.228 94.9126 283.228 95.1683C283.228 95.5391 283.362 95.8224 283.631 96.0185C283.903 96.2102 284.249 96.3061 284.666 96.3061ZM294.251 84.9091V98H291.528V84.9091H294.251ZM296.432 98V88.1818H299.155V98H296.432ZM297.8 86.9162C297.395 86.9162 297.048 86.782 296.758 86.5135C296.473 86.2408 296.33 85.9148 296.33 85.5355C296.33 85.1605 296.473 84.8388 296.758 84.5703C297.048 84.2976 297.395 84.1612 297.8 84.1612C298.205 84.1612 298.55 84.2976 298.836 84.5703C299.126 84.8388 299.27 85.1605 299.27 85.5355C299.27 85.9148 299.126 86.2408 298.836 86.5135C298.55 86.782 298.205 86.9162 297.8 86.9162ZM304.136 98.1854C303.51 98.1854 302.952 98.0767 302.462 97.8594C301.972 97.6378 301.584 97.3118 301.298 96.8814C301.017 96.4467 300.876 95.9055 300.876 95.2578C300.876 94.7124 300.977 94.2543 301.177 93.8835C301.377 93.5128 301.65 93.2145 301.995 92.9886C302.34 92.7628 302.732 92.5923 303.171 92.4773C303.614 92.3622 304.079 92.2812 304.565 92.2344C305.136 92.1747 305.596 92.1193 305.945 92.0682C306.295 92.0128 306.548 91.9318 306.706 91.8253C306.864 91.7187 306.942 91.5611 306.942 91.3523V91.3139C306.942 90.9091 306.815 90.5959 306.559 90.3743C306.308 90.1527 305.95 90.0419 305.485 90.0419C304.995 90.0419 304.605 90.1506 304.315 90.3679C304.026 90.581 303.834 90.8494 303.74 91.1733L301.222 90.9688C301.349 90.3722 301.601 89.8565 301.976 89.4219C302.351 88.983 302.835 88.6463 303.427 88.4119C304.023 88.1733 304.714 88.054 305.498 88.054C306.043 88.054 306.565 88.1179 307.064 88.2457C307.567 88.3736 308.012 88.5717 308.4 88.8402C308.792 89.1087 309.101 89.4538 309.327 89.8757C309.553 90.2933 309.665 90.794 309.665 91.3778V98H307.083V96.6385H307.006C306.849 96.9453 306.638 97.2159 306.374 97.4503C306.109 97.6804 305.792 97.8615 305.421 97.9936C305.05 98.1214 304.622 98.1854 304.136 98.1854ZM304.916 96.3061C305.317 96.3061 305.67 96.2273 305.977 96.0696C306.284 95.9077 306.525 95.6903 306.7 95.4176C306.874 95.1449 306.962 94.8359 306.962 94.4908V93.4489C306.876 93.5043 306.759 93.5554 306.61 93.6023C306.465 93.6449 306.301 93.6854 306.118 93.7237C305.935 93.7578 305.751 93.7898 305.568 93.8196C305.385 93.8452 305.219 93.8686 305.07 93.8899C304.75 93.9368 304.471 94.0114 304.232 94.1136C303.994 94.2159 303.808 94.3544 303.676 94.5291C303.544 94.6996 303.478 94.9126 303.478 95.1683C303.478 95.5391 303.612 95.8224 303.881 96.0185C304.153 96.2102 304.499 96.3061 304.916 96.3061ZM319.947 90.9815L317.454 91.1349C317.412 90.9219 317.32 90.7301 317.179 90.5597C317.039 90.3849 316.853 90.2464 316.623 90.1442C316.397 90.0376 316.127 89.9844 315.811 89.9844C315.39 89.9844 315.034 90.0739 314.744 90.2528C314.454 90.4276 314.309 90.6619 314.309 90.956C314.309 91.1903 314.403 91.3885 314.591 91.5504C314.778 91.7124 315.1 91.8423 315.556 91.9403L317.333 92.2983C318.287 92.4943 318.999 92.8097 319.468 93.2443C319.936 93.679 320.171 94.25 320.171 94.9574C320.171 95.6009 319.981 96.1655 319.602 96.6513C319.227 97.1371 318.711 97.5163 318.055 97.7891C317.403 98.0575 316.651 98.1918 315.799 98.1918C314.499 98.1918 313.463 97.9212 312.692 97.38C311.925 96.8345 311.475 96.093 311.343 95.1555L314.022 95.0149C314.103 95.4112 314.299 95.7138 314.61 95.9226C314.921 96.1271 315.319 96.2294 315.805 96.2294C316.282 96.2294 316.666 96.1378 316.956 95.9545C317.25 95.767 317.399 95.5263 317.403 95.2322C317.399 94.9851 317.294 94.7827 317.09 94.625C316.885 94.4631 316.57 94.3395 316.144 94.2543L314.444 93.9155C313.485 93.7237 312.771 93.3913 312.302 92.9183C311.838 92.4453 311.605 91.8423 311.605 91.1094C311.605 90.4787 311.776 89.9354 312.117 89.4794C312.462 89.0234 312.946 88.6719 313.568 88.4247C314.194 88.1776 314.927 88.054 315.767 88.054C317.007 88.054 317.983 88.3161 318.694 88.8402C319.41 89.3643 319.828 90.0781 319.947 90.9815Z" fill="black"/>
<rect x="267.5" y="75.5" width="65" height="32" rx="16" stroke="black"/>
<rect x="30.5" y="33.5" width="127" height="32" rx="16" stroke="black"/>
<path d="M46.9055 169.909V183H44.1378V169.909H46.9055ZM60.1323 169.909V183H57.7417L52.0463 174.761H51.9505V183H49.1827V169.909H51.6117L57.2623 178.142H57.3773V169.909H60.1323ZM67.0597 183H62.419V169.909H67.098C68.4148 169.909 69.5483 170.171 70.4986 170.695C71.4489 171.215 72.1797 171.963 72.6911 172.939C73.2067 173.915 73.4645 175.082 73.4645 176.442C73.4645 177.805 73.2067 178.977 72.6911 179.957C72.1797 180.937 71.4446 181.69 70.4858 182.214C69.5312 182.738 68.3892 183 67.0597 183ZM65.1868 180.629H66.9446C67.7628 180.629 68.451 180.484 69.0092 180.194C69.5717 179.9 69.9936 179.446 70.2749 178.832C70.5604 178.214 70.7031 177.418 70.7031 176.442C70.7031 175.474 70.5604 174.684 70.2749 174.07C69.9936 173.457 69.5739 173.005 69.0156 172.715C68.4574 172.425 67.7692 172.281 66.951 172.281H65.1868V180.629ZM75.5147 183V169.909H84.3358V172.191H78.2825V175.31H83.8819V177.592H78.2825V180.718H84.3613V183H75.5147ZM89.1314 169.909L91.7713 174.371H91.8736L94.5263 169.909H97.652L93.657 176.455L97.7415 183H94.5582L91.8736 178.532H91.7713L89.0866 183H85.9162L90.0135 176.455L85.9929 169.909H89.1314ZM99.4034 183V169.909H108.224V172.191H102.171V175.31H107.771V177.592H102.171V180.718H108.25V183H99.4034ZM115.066 183H110.425V169.909H115.104C116.421 169.909 117.554 170.171 118.504 170.695C119.455 171.215 120.186 171.963 120.697 172.939C121.213 173.915 121.47 175.082 121.47 176.442C121.47 177.805 121.213 178.977 120.697 179.957C120.186 180.937 119.45 181.69 118.492 182.214C117.537 182.738 116.395 183 115.066 183ZM113.193 180.629H114.95C115.769 180.629 116.457 180.484 117.015 180.194C117.578 179.9 117.999 179.446 118.281 178.832C118.566 178.214 118.709 177.418 118.709 176.442C118.709 175.474 118.566 174.684 118.281 174.07C117.999 173.457 117.58 173.005 117.021 172.715C116.463 172.425 115.775 172.281 114.957 172.281H113.193V180.629Z" fill="black"/>
<rect x="30.5" y="160.5" width="104" height="32" rx="16" stroke="black"/>
<path d="M129.906 221.909V235H127.138V221.909H129.906ZM143.132 221.909V235H140.742L135.046 226.761H134.95V235H132.183V221.909H134.612L140.262 230.142H140.377V221.909H143.132ZM150.06 235H145.419V221.909H150.098C151.415 221.909 152.548 222.171 153.499 222.695C154.449 223.215 155.18 223.963 155.691 224.939C156.207 225.915 156.464 227.082 156.464 228.442C156.464 229.805 156.207 230.977 155.691 231.957C155.18 232.937 154.445 233.69 153.486 234.214C152.531 234.738 151.389 235 150.06 235ZM148.187 232.629H149.945C150.763 232.629 151.451 232.484 152.009 232.194C152.572 231.9 152.994 231.446 153.275 230.832C153.56 230.214 153.703 229.418 153.703 228.442C153.703 227.474 153.56 226.684 153.275 226.07C152.994 225.457 152.574 225.005 152.016 224.715C151.457 224.425 150.769 224.281 149.951 224.281H148.187V232.629ZM158.515 235V221.909H167.336V224.191H161.282V227.31H166.882V229.592H161.282V232.718H167.361V235H158.515ZM172.131 221.909L174.771 226.371H174.874L177.526 221.909H180.652L176.657 228.455L180.741 235H177.558L174.874 230.532H174.771L172.087 235H168.916L173.013 228.455L168.993 221.909H172.131ZM182.403 235V221.909H191.224V224.191H185.171V227.31H190.771V229.592H185.171V232.718H191.25V235H182.403ZM198.066 235H193.425V221.909H198.104C199.421 221.909 200.554 222.171 201.504 222.695C202.455 223.215 203.186 223.963 203.697 224.939C204.213 225.915 204.47 227.082 204.47 228.442C204.47 229.805 204.213 230.977 203.697 231.957C203.186 232.937 202.45 233.69 201.492 234.214C200.537 234.738 199.395 235 198.066 235ZM196.193 232.629H197.95C198.769 232.629 199.457 232.484 200.015 232.194C200.578 231.9 200.999 231.446 201.281 230.832C201.566 230.214 201.709 229.418 201.709 228.442C201.709 227.474 201.566 226.684 201.281 226.07C200.999 225.457 200.58 225.005 200.021 224.715C199.463 224.425 198.775 224.281 197.957 224.281H196.193V232.629Z" fill="black"/>
<rect x="113.5" y="212.5" width="104" height="32" rx="16" stroke="black"/>
<path d="M235.087 183V173.182H237.81V183H235.087ZM236.455 171.916C236.05 171.916 235.702 171.782 235.413 171.513C235.127 171.241 234.984 170.915 234.984 170.536C234.984 170.161 235.127 169.839 235.413 169.57C235.702 169.298 236.05 169.161 236.455 169.161C236.859 169.161 237.205 169.298 237.49 169.57C237.78 169.839 237.925 170.161 237.925 170.536C237.925 170.915 237.78 171.241 237.49 171.513C237.205 171.782 236.859 171.916 236.455 171.916ZM242.714 177.324V183H239.991V173.182H242.586V174.914H242.701C242.919 174.343 243.283 173.891 243.794 173.559C244.306 173.222 244.926 173.054 245.654 173.054C246.336 173.054 246.931 173.203 247.438 173.501C247.945 173.8 248.339 174.226 248.62 174.78C248.901 175.33 249.042 175.986 249.042 176.749V183H246.319V177.234C246.323 176.634 246.17 176.165 245.859 175.828C245.548 175.487 245.119 175.317 244.574 175.317C244.208 175.317 243.884 175.396 243.602 175.553C243.325 175.711 243.108 175.941 242.95 176.244C242.797 176.542 242.718 176.902 242.714 177.324ZM254.806 183.16C254.06 183.16 253.385 182.968 252.78 182.585C252.179 182.197 251.702 181.628 251.348 180.878C250.999 180.124 250.824 179.199 250.824 178.104C250.824 176.979 251.005 176.043 251.367 175.298C251.729 174.548 252.211 173.987 252.812 173.616C253.417 173.241 254.08 173.054 254.8 173.054C255.349 173.054 255.808 173.148 256.174 173.335C256.545 173.518 256.843 173.749 257.069 174.026C257.299 174.298 257.474 174.567 257.593 174.831H257.676V169.909H260.393V183H257.708V181.428H257.593C257.465 181.7 257.284 181.971 257.05 182.239C256.82 182.504 256.519 182.723 256.148 182.898C255.782 183.072 255.335 183.16 254.806 183.16ZM255.669 180.993C256.108 180.993 256.479 180.874 256.781 180.635C257.088 180.392 257.322 180.053 257.484 179.619C257.651 179.184 257.734 178.675 257.734 178.091C257.734 177.507 257.653 177 257.491 176.57C257.329 176.139 257.094 175.807 256.788 175.572C256.481 175.338 256.108 175.221 255.669 175.221C255.222 175.221 254.844 175.342 254.538 175.585C254.231 175.828 253.999 176.165 253.841 176.595C253.683 177.026 253.604 177.524 253.604 178.091C253.604 178.662 253.683 179.167 253.841 179.606C254.003 180.04 254.235 180.381 254.538 180.629C254.844 180.871 255.222 180.993 255.669 180.993ZM267.106 183.192C266.096 183.192 265.227 182.987 264.498 182.578C263.774 182.165 263.215 181.581 262.823 180.827C262.431 180.068 262.235 179.171 262.235 178.136C262.235 177.126 262.431 176.239 262.823 175.477C263.215 174.714 263.767 174.119 264.479 173.693C265.195 173.267 266.034 173.054 266.997 173.054C267.645 173.054 268.248 173.158 268.806 173.367C269.369 173.572 269.859 173.881 270.276 174.294C270.698 174.707 271.026 175.227 271.261 175.854C271.495 176.476 271.612 177.205 271.612 178.04V178.788H263.322V177.1H269.049C269.049 176.708 268.964 176.361 268.794 176.058C268.623 175.756 268.387 175.519 268.084 175.349C267.786 175.174 267.438 175.087 267.042 175.087C266.629 175.087 266.262 175.183 265.943 175.374C265.627 175.562 265.38 175.815 265.201 176.135C265.022 176.45 264.931 176.802 264.926 177.19V178.794C264.926 179.28 265.016 179.7 265.195 180.053C265.378 180.407 265.636 180.68 265.968 180.871C266.301 181.063 266.695 181.159 267.151 181.159C267.453 181.159 267.73 181.116 267.982 181.031C268.233 180.946 268.448 180.818 268.627 180.648C268.806 180.477 268.943 180.268 269.036 180.021L271.555 180.188C271.427 180.793 271.165 181.321 270.769 181.773C270.377 182.22 269.869 182.57 269.247 182.821C268.629 183.068 267.916 183.192 267.106 183.192ZM275.489 173.182L277.292 176.614L279.139 173.182H281.932L279.088 178.091L282.009 183H279.229L277.292 179.606L275.387 183H272.574L275.489 178.091L272.677 173.182H275.489ZM289.262 176.544V178.705H283.292V176.544H289.262ZM294.306 177.324V183H291.583V173.182H294.178V174.914H294.293C294.51 174.343 294.875 173.891 295.386 173.559C295.897 173.222 296.517 173.054 297.246 173.054C297.928 173.054 298.522 173.203 299.029 173.501C299.537 173.8 299.931 174.226 300.212 174.78C300.493 175.33 300.634 175.986 300.634 176.749V183H297.911V177.234C297.915 176.634 297.762 176.165 297.451 175.828C297.14 175.487 296.711 175.317 296.166 175.317C295.799 175.317 295.475 175.396 295.194 175.553C294.917 175.711 294.7 175.941 294.542 176.244C294.389 176.542 294.31 176.902 294.306 177.324ZM305.58 183.185C304.953 183.185 304.395 183.077 303.905 182.859C303.415 182.638 303.027 182.312 302.742 181.881C302.46 181.447 302.32 180.906 302.32 180.258C302.32 179.712 302.42 179.254 302.62 178.884C302.82 178.513 303.093 178.214 303.438 177.989C303.784 177.763 304.176 177.592 304.615 177.477C305.058 177.362 305.522 177.281 306.008 177.234C306.579 177.175 307.039 177.119 307.389 177.068C307.738 177.013 307.992 176.932 308.149 176.825C308.307 176.719 308.386 176.561 308.386 176.352V176.314C308.386 175.909 308.258 175.596 308.002 175.374C307.751 175.153 307.393 175.042 306.928 175.042C306.438 175.042 306.048 175.151 305.759 175.368C305.469 175.581 305.277 175.849 305.183 176.173L302.665 175.969C302.793 175.372 303.044 174.857 303.419 174.422C303.794 173.983 304.278 173.646 304.87 173.412C305.467 173.173 306.157 173.054 306.941 173.054C307.487 173.054 308.009 173.118 308.507 173.246C309.01 173.374 309.455 173.572 309.843 173.84C310.235 174.109 310.544 174.454 310.77 174.876C310.996 175.293 311.109 175.794 311.109 176.378V183H308.526V181.638H308.45C308.292 181.945 308.081 182.216 307.817 182.45C307.553 182.68 307.235 182.862 306.865 182.994C306.494 183.121 306.066 183.185 305.58 183.185ZM306.36 181.306C306.76 181.306 307.114 181.227 307.421 181.07C307.727 180.908 307.968 180.69 308.143 180.418C308.318 180.145 308.405 179.836 308.405 179.491V178.449C308.32 178.504 308.203 178.555 308.053 178.602C307.909 178.645 307.744 178.685 307.561 178.724C307.378 178.758 307.195 178.79 307.012 178.82C306.828 178.845 306.662 178.869 306.513 178.89C306.193 178.937 305.914 179.011 305.676 179.114C305.437 179.216 305.252 179.354 305.119 179.529C304.987 179.7 304.921 179.913 304.921 180.168C304.921 180.539 305.056 180.822 305.324 181.018C305.597 181.21 305.942 181.306 306.36 181.306ZM313.221 183V173.182H315.817V174.914H315.932C316.136 174.339 316.477 173.885 316.954 173.553C317.432 173.22 318.003 173.054 318.667 173.054C319.341 173.054 319.914 173.222 320.387 173.559C320.86 173.891 321.175 174.343 321.333 174.914H321.435C321.635 174.352 321.998 173.902 322.522 173.565C323.05 173.224 323.675 173.054 324.395 173.054C325.311 173.054 326.055 173.346 326.626 173.93C327.201 174.509 327.488 175.332 327.488 176.397V183H324.772V176.934C324.772 176.388 324.627 175.979 324.337 175.707C324.047 175.434 323.685 175.298 323.251 175.298C322.756 175.298 322.371 175.455 322.094 175.771C321.817 176.082 321.678 176.493 321.678 177.004V183H319.038V176.876C319.038 176.395 318.9 176.011 318.623 175.726C318.35 175.44 317.99 175.298 317.542 175.298C317.24 175.298 316.967 175.374 316.724 175.528C316.486 175.677 316.296 175.888 316.155 176.161C316.015 176.429 315.944 176.744 315.944 177.107V183H313.221ZM334.114 183.192C333.104 183.192 332.235 182.987 331.506 182.578C330.781 182.165 330.223 181.581 329.831 180.827C329.439 180.068 329.243 179.171 329.243 178.136C329.243 177.126 329.439 176.239 329.831 175.477C330.223 174.714 330.775 174.119 331.487 173.693C332.203 173.267 333.042 173.054 334.005 173.054C334.653 173.054 335.256 173.158 335.814 173.367C336.377 173.572 336.867 173.881 337.284 174.294C337.706 174.707 338.034 175.227 338.269 175.854C338.503 176.476 338.62 177.205 338.62 178.04V178.788H330.33V177.1H336.057C336.057 176.708 335.972 176.361 335.801 176.058C335.631 175.756 335.394 175.519 335.092 175.349C334.794 175.174 334.446 175.087 334.05 175.087C333.637 175.087 333.27 175.183 332.95 175.374C332.635 175.562 332.388 175.815 332.209 176.135C332.03 176.45 331.938 176.802 331.934 177.19V178.794C331.934 179.28 332.024 179.7 332.203 180.053C332.386 180.407 332.644 180.68 332.976 180.871C333.308 181.063 333.703 181.159 334.159 181.159C334.461 181.159 334.738 181.116 334.99 181.031C335.241 180.946 335.456 180.818 335.635 180.648C335.814 180.477 335.95 180.268 336.044 180.021L338.563 180.188C338.435 180.793 338.173 181.321 337.776 181.773C337.384 182.22 336.877 182.57 336.255 182.821C335.637 183.068 334.923 183.192 334.114 183.192Z" fill="black"/>
<rect x="221.5" y="160.5" width="128" height="32" rx="16" stroke="black"/>
<path d="M166.138 183V169.909H171.379C172.342 169.909 173.146 170.052 173.789 170.337C174.433 170.623 174.916 171.019 175.24 171.526C175.564 172.029 175.726 172.609 175.726 173.265C175.726 173.776 175.624 174.226 175.419 174.614C175.214 174.997 174.933 175.312 174.575 175.56C174.222 175.803 173.817 175.975 173.361 176.077V176.205C173.859 176.227 174.326 176.367 174.761 176.627C175.2 176.887 175.555 177.251 175.828 177.72C176.101 178.185 176.237 178.739 176.237 179.382C176.237 180.077 176.065 180.697 175.719 181.242C175.379 181.783 174.874 182.212 174.205 182.527C173.536 182.842 172.711 183 171.731 183H166.138ZM168.906 180.737H171.162C171.933 180.737 172.496 180.59 172.849 180.296C173.203 179.998 173.38 179.602 173.38 179.107C173.38 178.745 173.293 178.425 173.118 178.148C172.943 177.871 172.694 177.654 172.37 177.496C172.05 177.339 171.669 177.26 171.226 177.26H168.906V180.737ZM168.906 175.387H170.957C171.337 175.387 171.673 175.321 171.967 175.189C172.266 175.053 172.5 174.861 172.67 174.614C172.845 174.366 172.933 174.07 172.933 173.725C172.933 173.252 172.764 172.871 172.428 172.581C172.095 172.291 171.622 172.146 171.009 172.146H168.906V175.387ZM177.271 169.909H180.371L183.356 175.547H183.484L186.469 169.909H189.569L184.795 178.372V183H182.046V178.372L177.271 169.909Z" fill="black"/>
<rect x="152.5" y="160.5" width="50" height="32" rx="16" stroke="black"/>
<path d="M55.0874 221.909V235H52.6967L47.0014 226.761H46.9055V235H44.1378V221.909H46.5668L52.2173 230.142H52.3324V221.909H55.0874ZM69.4039 228.455C69.4039 229.882 69.1333 231.097 68.5922 232.098C68.0552 233.099 67.3223 233.864 66.3933 234.393C65.4686 234.917 64.4288 235.179 63.274 235.179C62.1106 235.179 61.0666 234.915 60.1419 234.386C59.2172 233.858 58.4863 233.093 57.9494 232.092C57.4125 231.09 57.144 229.878 57.144 228.455C57.144 227.027 57.4125 225.812 57.9494 224.811C58.4863 223.81 59.2172 223.047 60.1419 222.523C61.0666 221.994 62.1106 221.73 63.274 221.73C64.4288 221.73 65.4686 221.994 66.3933 222.523C67.3223 223.047 68.0552 223.81 68.5922 224.811C69.1333 225.812 69.4039 227.027 69.4039 228.455ZM66.5978 228.455C66.5978 227.53 66.4593 226.75 66.1824 226.115C65.9096 225.48 65.524 224.999 65.0254 224.67C64.5268 224.342 63.943 224.178 63.274 224.178C62.6049 224.178 62.0211 224.342 61.5226 224.67C61.024 224.999 60.6362 225.48 60.3592 226.115C60.0865 226.75 59.9501 227.53 59.9501 228.455C59.9501 229.379 60.0865 230.159 60.3592 230.794C60.6362 231.429 61.024 231.911 61.5226 232.239C62.0211 232.567 62.6049 232.731 63.274 232.731C63.943 232.731 64.5268 232.567 65.0254 232.239C65.524 231.911 65.9096 231.429 66.1824 230.794C66.4593 230.159 66.5978 229.379 66.5978 228.455ZM70.358 224.191V221.909H81.1094V224.191H77.1016V235H74.3658V224.191H70.358Z" fill="black"/>
<rect x="30.5" y="212.5" width="62" height="32" rx="16" stroke="black"/>
</svg>
