<svg width="427" height="162" viewBox="0 0 427 162" fill="none" xmlns="http://www.w3.org/2000/svg">
<circle cx="4" cy="17" r="3.5" stroke="black"/>
<circle cx="423" cy="17" r="3.5" stroke="black"/>
<path d="M71 104L61 98.2265V109.774L71 104ZM8 18H22.1126V16H8V18ZM31.1126 27V94H33.1126V27H31.1126ZM42.1126 105H62V103H42.1126V105ZM31.1126 94C31.1126 100.075 36.0375 105 42.1126 105V103C37.1421 103 33.1126 98.9706 33.1126 94H31.1126ZM22.1126 18C27.0832 18 31.1126 22.0294 31.1126 27H33.1126C33.1126 20.9249 28.1878 16 22.1126 16V18Z" fill="black"/>
<path d="M72 147L62 141.226V152.773L72 147ZM8 18H22.304V16H8V18ZM31.304 27V137H33.304V27H31.304ZM42.304 148H63V146H42.304V148ZM31.304 137C31.304 143.075 36.2289 148 42.304 148V146C37.3334 146 33.304 141.971 33.304 137H31.304ZM22.304 18C27.2746 18 31.304 22.0294 31.304 27H33.304C33.304 20.9249 28.3791 16 22.304 16V18Z" fill="black"/>
<path d="M88.2251 106.273L88.3849 103.799L86.3139 105.186L85.4574 103.678L87.6882 102.591L85.4574 101.504L86.3139 99.9957L88.3849 101.383L88.2251 98.9091H89.9446L89.7784 101.383L91.8494 99.9957L92.706 101.504L90.4815 102.591L92.706 103.678L91.8494 105.186L89.7784 103.799L89.9446 106.273H88.2251Z" fill="black"/>
<rect x="73.5" y="86.5" width="32" height="32" rx="16" stroke="black"/>
<path d="M179.394 62H176.428L180.947 48.9091H184.514L189.027 62H186.061L182.782 51.9006H182.68L179.394 62ZM179.209 56.8544H186.214V59.0149H179.209V56.8544ZM197.405 52.674C197.354 52.1584 197.135 51.7578 196.747 51.4723C196.359 51.1868 195.833 51.044 195.168 51.044C194.716 51.044 194.335 51.108 194.024 51.2358C193.713 51.3594 193.474 51.532 193.308 51.7536C193.146 51.9751 193.065 52.2266 193.065 52.5078C193.057 52.7422 193.106 52.9467 193.212 53.1214C193.323 53.2962 193.474 53.4474 193.666 53.5753C193.858 53.6989 194.079 53.8075 194.331 53.9013C194.582 53.9908 194.851 54.0675 195.136 54.1314L196.312 54.4126C196.883 54.5405 197.407 54.7109 197.885 54.924C198.362 55.1371 198.775 55.3991 199.125 55.7102C199.474 56.0213 199.745 56.3878 199.937 56.8097C200.133 57.2315 200.233 57.7152 200.237 58.2607C200.233 59.0618 200.028 59.7564 199.623 60.3445C199.223 60.9283 198.643 61.3821 197.885 61.706C197.131 62.0256 196.221 62.1854 195.155 62.1854C194.099 62.1854 193.178 62.0234 192.394 61.6996C191.614 61.3757 191.005 60.8963 190.566 60.2614C190.131 59.6222 189.903 58.8317 189.882 57.8899H192.56C192.59 58.3288 192.716 58.6953 192.937 58.9893C193.163 59.2791 193.464 59.4986 193.839 59.6477C194.218 59.7926 194.646 59.8651 195.123 59.8651C195.592 59.8651 195.999 59.7969 196.344 59.6605C196.694 59.5241 196.964 59.3345 197.156 59.0916C197.348 58.8487 197.444 58.5696 197.444 58.2543C197.444 57.9602 197.356 57.7131 197.182 57.5128C197.011 57.3125 196.76 57.142 196.427 57.0014C196.099 56.8608 195.697 56.733 195.219 56.6179L193.794 56.2599C192.69 55.9915 191.819 55.5717 191.18 55.0007C190.54 54.4297 190.223 53.6605 190.227 52.6932C190.223 51.9006 190.434 51.2081 190.86 50.6158C191.29 50.0234 191.881 49.5611 192.631 49.2287C193.381 48.8963 194.233 48.7301 195.187 48.7301C196.159 48.7301 197.007 48.8963 197.731 49.2287C198.46 49.5611 199.027 50.0234 199.432 50.6158C199.836 51.2081 200.045 51.8942 200.058 52.674H197.405Z" fill="black"/>
<rect x="165.5" y="39.5" width="46" height="32" rx="16" stroke="black"/>
<path d="M279.225 149.273L279.385 146.799L277.314 148.186L276.457 146.678L278.688 145.591L276.457 144.504L277.314 142.996L279.385 144.383L279.225 141.909H280.945L280.778 144.383L282.849 142.996L283.706 144.504L281.482 145.591L283.706 146.678L282.849 148.186L280.778 146.799L280.945 149.273H279.225Z" fill="black"/>
<rect x="264.5" y="129.5" width="32" height="32" rx="16" stroke="black"/>
<path d="M228.678 152.166C228.256 152.166 227.894 152.017 227.592 151.719C227.293 151.416 227.144 151.054 227.144 150.632C227.144 150.214 227.293 149.857 227.592 149.558C227.894 149.26 228.256 149.111 228.678 149.111C229.087 149.111 229.445 149.26 229.752 149.558C230.059 149.857 230.212 150.214 230.212 150.632C230.212 150.913 230.14 151.171 229.995 151.406C229.854 151.636 229.669 151.821 229.439 151.962C229.209 152.098 228.955 152.166 228.678 152.166Z" fill="black"/>
<rect x="212.5" y="129.5" width="32" height="32" rx="16" stroke="black"/>
<path d="M88.3089 142.182V144.227H82.3963V142.182H88.3089ZM83.7386 139.83H86.4616V148.983C86.4616 149.234 86.5 149.43 86.5767 149.571C86.6534 149.707 86.7599 149.803 86.8963 149.859C87.0369 149.914 87.1989 149.942 87.3821 149.942C87.5099 149.942 87.6378 149.931 87.7656 149.91C87.8935 149.884 87.9915 149.865 88.0597 149.852L88.4879 151.879C88.3516 151.921 88.1598 151.97 87.9126 152.026C87.6655 152.085 87.3651 152.121 87.0114 152.134C86.3551 152.16 85.7798 152.072 85.2855 151.872C84.7955 151.672 84.4141 151.361 84.1413 150.939C83.8686 150.517 83.7344 149.984 83.7386 149.341V139.83ZM92.8825 152.185C92.256 152.185 91.6978 152.077 91.2077 151.859C90.7177 151.638 90.3299 151.312 90.0444 150.881C89.7631 150.447 89.6225 149.906 89.6225 149.258C89.6225 148.712 89.7227 148.254 89.9229 147.884C90.1232 147.513 90.396 147.214 90.7411 146.989C91.0863 146.763 91.4783 146.592 91.9173 146.477C92.3604 146.362 92.8249 146.281 93.3107 146.234C93.8817 146.175 94.342 146.119 94.6914 146.068C95.0408 146.013 95.2944 145.932 95.4521 145.825C95.6097 145.719 95.6886 145.561 95.6886 145.352V145.314C95.6886 144.909 95.5607 144.596 95.305 144.374C95.0536 144.153 94.6957 144.042 94.2312 144.042C93.7411 144.042 93.3512 144.151 93.0614 144.368C92.7717 144.581 92.5799 144.849 92.4862 145.173L89.9677 144.969C90.0955 144.372 90.3469 143.857 90.7219 143.422C91.0969 142.983 91.5806 142.646 92.1729 142.412C92.7695 142.173 93.4599 142.054 94.244 142.054C94.7894 142.054 95.3114 142.118 95.81 142.246C96.3129 142.374 96.7582 142.572 97.146 142.84C97.538 143.109 97.8469 143.454 98.0728 143.876C98.2987 144.293 98.4116 144.794 98.4116 145.378V152H95.8292V150.638H95.7525C95.5948 150.945 95.3839 151.216 95.1197 151.45C94.8555 151.68 94.538 151.862 94.1673 151.994C93.7965 152.121 93.3683 152.185 92.8825 152.185ZM93.6623 150.306C94.0629 150.306 94.4165 150.227 94.7234 150.07C95.0302 149.908 95.271 149.69 95.4457 149.418C95.6204 149.145 95.7077 148.836 95.7077 148.491V147.449C95.6225 147.504 95.5053 147.555 95.3562 147.602C95.2113 147.645 95.0472 147.685 94.864 147.724C94.6808 147.758 94.4975 147.79 94.3143 147.82C94.131 147.845 93.9648 147.869 93.8157 147.89C93.4961 147.937 93.217 148.011 92.9783 148.114C92.7397 148.216 92.5543 148.354 92.4222 148.529C92.2901 148.7 92.2241 148.913 92.2241 149.168C92.2241 149.539 92.3583 149.822 92.6268 150.018C92.8995 150.21 93.2447 150.306 93.6623 150.306ZM100.575 152V138.909H103.298V143.831H103.381C103.501 143.567 103.673 143.298 103.899 143.026C104.129 142.749 104.428 142.518 104.794 142.335C105.165 142.148 105.625 142.054 106.175 142.054C106.891 142.054 107.551 142.241 108.156 142.616C108.761 142.987 109.245 143.548 109.607 144.298C109.969 145.043 110.151 145.979 110.151 147.104C110.151 148.199 109.974 149.124 109.62 149.878C109.271 150.628 108.793 151.197 108.188 151.585C107.587 151.968 106.914 152.16 106.168 152.16C105.64 152.16 105.19 152.072 104.82 151.898C104.453 151.723 104.153 151.504 103.918 151.239C103.684 150.971 103.505 150.7 103.381 150.428H103.26V152H100.575ZM103.241 147.091C103.241 147.675 103.322 148.184 103.484 148.619C103.646 149.053 103.88 149.392 104.187 149.635C104.494 149.874 104.866 149.993 105.305 149.993C105.749 149.993 106.124 149.871 106.43 149.629C106.737 149.381 106.969 149.04 107.127 148.606C107.289 148.167 107.37 147.662 107.37 147.091C107.37 146.524 107.291 146.026 107.134 145.595C106.976 145.165 106.744 144.828 106.437 144.585C106.13 144.342 105.753 144.221 105.305 144.221C104.862 144.221 104.487 144.338 104.18 144.572C103.878 144.807 103.646 145.139 103.484 145.57C103.322 146 103.241 146.507 103.241 147.091ZM114.691 138.909V152H111.968V138.909H114.691ZM121.346 152.192C120.336 152.192 119.467 151.987 118.738 151.578C118.014 151.165 117.456 150.581 117.064 149.827C116.672 149.068 116.475 148.171 116.475 147.136C116.475 146.126 116.672 145.239 117.064 144.477C117.456 143.714 118.007 143.119 118.719 142.693C119.435 142.267 120.275 142.054 121.238 142.054C121.885 142.054 122.488 142.158 123.047 142.367C123.609 142.572 124.099 142.881 124.517 143.294C124.939 143.707 125.267 144.227 125.501 144.854C125.735 145.476 125.853 146.205 125.853 147.04V147.788H117.562V146.1H123.289C123.289 145.708 123.204 145.361 123.034 145.058C122.863 144.756 122.627 144.519 122.324 144.349C122.026 144.174 121.679 144.087 121.282 144.087C120.869 144.087 120.502 144.183 120.183 144.374C119.868 144.562 119.62 144.815 119.441 145.135C119.262 145.45 119.171 145.802 119.167 146.19V147.794C119.167 148.28 119.256 148.7 119.435 149.053C119.618 149.407 119.876 149.68 120.208 149.871C120.541 150.063 120.935 150.159 121.391 150.159C121.694 150.159 121.971 150.116 122.222 150.031C122.473 149.946 122.689 149.818 122.868 149.648C123.047 149.477 123.183 149.268 123.277 149.021L125.795 149.188C125.667 149.793 125.405 150.321 125.009 150.773C124.617 151.22 124.11 151.57 123.488 151.821C122.87 152.068 122.156 152.192 121.346 152.192ZM133.747 145.544V147.705H127.777V145.544H133.747ZM138.79 146.324V152H136.067V142.182H138.662V143.914H138.777C138.995 143.343 139.359 142.891 139.87 142.559C140.382 142.222 141.002 142.054 141.73 142.054C142.412 142.054 143.007 142.203 143.514 142.501C144.021 142.8 144.415 143.226 144.696 143.78C144.978 144.33 145.118 144.986 145.118 145.749V152H142.395V146.234C142.4 145.634 142.246 145.165 141.935 144.828C141.624 144.487 141.196 144.317 140.65 144.317C140.284 144.317 139.96 144.396 139.679 144.553C139.402 144.711 139.184 144.941 139.027 145.244C138.873 145.542 138.794 145.902 138.79 146.324ZM150.064 152.185C149.438 152.185 148.879 152.077 148.389 151.859C147.899 151.638 147.512 151.312 147.226 150.881C146.945 150.447 146.804 149.906 146.804 149.258C146.804 148.712 146.904 148.254 147.105 147.884C147.305 147.513 147.578 147.214 147.923 146.989C148.268 146.763 148.66 146.592 149.099 146.477C149.542 146.362 150.007 146.281 150.492 146.234C151.063 146.175 151.524 146.119 151.873 146.068C152.222 146.013 152.476 145.932 152.634 145.825C152.791 145.719 152.87 145.561 152.87 145.352V145.314C152.87 144.909 152.742 144.596 152.487 144.374C152.235 144.153 151.877 144.042 151.413 144.042C150.923 144.042 150.533 144.151 150.243 144.368C149.953 144.581 149.762 144.849 149.668 145.173L147.149 144.969C147.277 144.372 147.529 143.857 147.904 143.422C148.279 142.983 148.762 142.646 149.355 142.412C149.951 142.173 150.642 142.054 151.426 142.054C151.971 142.054 152.493 142.118 152.992 142.246C153.494 142.374 153.94 142.572 154.328 142.84C154.72 143.109 155.029 143.454 155.254 143.876C155.48 144.293 155.593 144.794 155.593 145.378V152H153.011V150.638H152.934C152.776 150.945 152.566 151.216 152.301 151.45C152.037 151.68 151.72 151.862 151.349 151.994C150.978 152.121 150.55 152.185 150.064 152.185ZM150.844 150.306C151.244 150.306 151.598 150.227 151.905 150.07C152.212 149.908 152.453 149.69 152.627 149.418C152.802 149.145 152.889 148.836 152.889 148.491V147.449C152.804 147.504 152.687 147.555 152.538 147.602C152.393 147.645 152.229 147.685 152.046 147.724C151.862 147.758 151.679 147.79 151.496 147.82C151.313 147.845 151.146 147.869 150.997 147.89C150.678 147.937 150.399 148.011 150.16 148.114C149.921 148.216 149.736 148.354 149.604 148.529C149.472 148.7 149.406 148.913 149.406 149.168C149.406 149.539 149.54 149.822 149.808 150.018C150.081 150.21 150.426 150.306 150.844 150.306ZM157.706 152V142.182H160.301V143.914H160.416C160.621 143.339 160.961 142.885 161.439 142.553C161.916 142.22 162.487 142.054 163.152 142.054C163.825 142.054 164.398 142.222 164.871 142.559C165.344 142.891 165.66 143.343 165.817 143.914H165.92C166.12 143.352 166.482 142.902 167.006 142.565C167.535 142.224 168.159 142.054 168.879 142.054C169.795 142.054 170.539 142.346 171.11 142.93C171.685 143.509 171.973 144.332 171.973 145.397V152H169.256V145.934C169.256 145.388 169.111 144.979 168.822 144.707C168.532 144.434 168.17 144.298 167.735 144.298C167.241 144.298 166.855 144.455 166.578 144.771C166.301 145.082 166.162 145.493 166.162 146.004V152H163.523V145.876C163.523 145.395 163.384 145.011 163.107 144.726C162.834 144.44 162.474 144.298 162.027 144.298C161.724 144.298 161.452 144.374 161.209 144.528C160.97 144.677 160.78 144.888 160.64 145.161C160.499 145.429 160.429 145.744 160.429 146.107V152H157.706ZM178.598 152.192C177.588 152.192 176.719 151.987 175.99 151.578C175.266 151.165 174.708 150.581 174.316 149.827C173.923 149.068 173.727 148.171 173.727 147.136C173.727 146.126 173.923 145.239 174.316 144.477C174.708 143.714 175.259 143.119 175.971 142.693C176.687 142.267 177.526 142.054 178.49 142.054C179.137 142.054 179.74 142.158 180.298 142.367C180.861 142.572 181.351 142.881 181.769 143.294C182.191 143.707 182.519 144.227 182.753 144.854C182.987 145.476 183.105 146.205 183.105 147.04V147.788H174.814V146.1H180.541C180.541 145.708 180.456 145.361 180.286 145.058C180.115 144.756 179.879 144.519 179.576 144.349C179.278 144.174 178.931 144.087 178.534 144.087C178.121 144.087 177.754 144.183 177.435 144.374C177.119 144.562 176.872 144.815 176.693 145.135C176.514 145.45 176.423 145.802 176.419 146.19V147.794C176.419 148.28 176.508 148.7 176.687 149.053C176.87 149.407 177.128 149.68 177.46 149.871C177.793 150.063 178.187 150.159 178.643 150.159C178.945 150.159 179.222 150.116 179.474 150.031C179.725 149.946 179.941 149.818 180.119 149.648C180.298 149.477 180.435 149.268 180.529 149.021L183.047 149.188C182.919 149.793 182.657 150.321 182.261 150.773C181.869 151.22 181.362 151.57 180.74 151.821C180.122 152.068 179.408 152.192 178.598 152.192Z" fill="black"/>
<rect x="73.5" y="129.5" width="119" height="32" rx="16" stroke="black"/>
<path d="M251.523 62.1918C250.517 62.1918 249.652 61.9787 248.928 61.5526C248.207 61.1222 247.653 60.5256 247.266 59.7628C246.882 59 246.69 58.1222 246.69 57.1293C246.69 56.1236 246.884 55.2415 247.272 54.483C247.664 53.7202 248.22 53.1257 248.94 52.6996C249.661 52.2692 250.517 52.054 251.51 52.054C252.366 52.054 253.116 52.2095 253.76 52.5206C254.403 52.8317 254.913 53.2685 255.288 53.831C255.663 54.3935 255.869 55.054 255.908 55.8125H253.338C253.266 55.3224 253.074 54.9283 252.763 54.63C252.456 54.3274 252.053 54.1761 251.555 54.1761C251.133 54.1761 250.764 54.2912 250.449 54.5213C250.138 54.7472 249.895 55.0774 249.72 55.5121C249.545 55.9467 249.458 56.473 249.458 57.0909C249.458 57.7173 249.543 58.25 249.714 58.6889C249.888 59.1278 250.134 59.4624 250.449 59.6925C250.764 59.9226 251.133 60.0376 251.555 60.0376C251.866 60.0376 252.145 59.9737 252.392 59.8459C252.643 59.718 252.85 59.5327 253.012 59.2898C253.178 59.0426 253.287 58.7464 253.338 58.4013H255.908C255.865 59.1513 255.661 59.8118 255.294 60.3828C254.932 60.9496 254.431 61.3928 253.792 61.7124C253.153 62.032 252.396 62.1918 251.523 62.1918ZM262.087 62.1918C261.094 62.1918 260.236 61.9808 259.511 61.5589C258.791 61.1328 258.235 60.5405 257.843 59.782C257.451 59.0192 257.255 58.1349 257.255 57.1293C257.255 56.1151 257.451 55.2287 257.843 54.4702C258.235 53.7074 258.791 53.1151 259.511 52.6932C260.236 52.267 261.094 52.054 262.087 52.054C263.08 52.054 263.937 52.267 264.657 52.6932C265.381 53.1151 265.939 53.7074 266.331 54.4702C266.724 55.2287 266.92 56.1151 266.92 57.1293C266.92 58.1349 266.724 59.0192 266.331 59.782C265.939 60.5405 265.381 61.1328 264.657 61.5589C263.937 61.9808 263.08 62.1918 262.087 62.1918ZM262.1 60.0824C262.552 60.0824 262.929 59.9545 263.231 59.6989C263.534 59.4389 263.762 59.0852 263.915 58.6378C264.073 58.1903 264.152 57.6811 264.152 57.1101C264.152 56.5391 264.073 56.0298 263.915 55.5824C263.762 55.1349 263.534 54.7812 263.231 54.5213C262.929 54.2614 262.552 54.1314 262.1 54.1314C261.644 54.1314 261.26 54.2614 260.949 54.5213C260.643 54.7812 260.41 55.1349 260.253 55.5824C260.099 56.0298 260.023 56.5391 260.023 57.1101C260.023 57.6811 260.099 58.1903 260.253 58.6378C260.41 59.0852 260.643 59.4389 260.949 59.6989C261.26 59.9545 261.644 60.0824 262.1 60.0824ZM271.413 48.9091V62H268.69V48.9091H271.413ZM279.891 57.8196V52.1818H282.614V62H279.999V60.2166H279.897C279.675 60.7919 279.307 61.2543 278.791 61.6037C278.28 61.9531 277.656 62.1278 276.918 62.1278C276.262 62.1278 275.685 61.9787 275.186 61.6804C274.688 61.3821 274.298 60.9581 274.016 60.4084C273.739 59.8587 273.599 59.2003 273.594 58.4332V52.1818H276.317V57.9474C276.322 58.527 276.477 58.9851 276.784 59.3217C277.091 59.6584 277.502 59.8267 278.018 59.8267C278.346 59.8267 278.653 59.7521 278.938 59.603C279.224 59.4496 279.454 59.2237 279.629 58.9254C279.808 58.6271 279.895 58.2585 279.891 57.8196ZM284.792 62V52.1818H287.387V53.9141H287.502C287.706 53.3388 288.047 52.8849 288.525 52.5526C289.002 52.2202 289.573 52.054 290.238 52.054C290.911 52.054 291.484 52.2223 291.957 52.5589C292.43 52.8913 292.746 53.343 292.903 53.9141H293.006C293.206 53.3516 293.568 52.902 294.092 52.5653C294.621 52.2244 295.245 52.054 295.965 52.054C296.881 52.054 297.625 52.3459 298.196 52.9297C298.771 53.5092 299.059 54.3317 299.059 55.397V62H296.342V55.9339C296.342 55.3885 296.197 54.9794 295.907 54.7067C295.618 54.4339 295.256 54.2976 294.821 54.2976C294.327 54.2976 293.941 54.4553 293.664 54.7706C293.387 55.0817 293.248 55.4929 293.248 56.0043V62H290.608V55.8764C290.608 55.3949 290.47 55.0114 290.193 54.7259C289.92 54.4403 289.56 54.2976 289.113 54.2976C288.81 54.2976 288.537 54.3743 288.295 54.5277C288.056 54.6768 287.866 54.8878 287.726 55.1605C287.585 55.429 287.515 55.7443 287.515 56.1065V62H284.792ZM303.933 56.3239V62H301.21V52.1818H303.805V53.9141H303.92C304.137 53.343 304.502 52.8913 305.013 52.5589C305.524 52.2223 306.144 52.054 306.873 52.054C307.555 52.054 308.149 52.2031 308.656 52.5014C309.164 52.7997 309.558 53.2259 309.839 53.7798C310.12 54.3295 310.261 54.9858 310.261 55.7486V62H307.538V56.2344C307.542 55.6335 307.389 55.1648 307.078 54.8281C306.767 54.4872 306.338 54.3168 305.793 54.3168C305.426 54.3168 305.102 54.3956 304.821 54.5533C304.544 54.7109 304.327 54.9411 304.169 55.2436C304.016 55.5419 303.937 55.902 303.933 56.3239ZM318.524 55.544V57.7045H312.554V55.544H318.524ZM323.644 62.1854C323.018 62.1854 322.46 62.0767 321.969 61.8594C321.479 61.6378 321.092 61.3118 320.806 60.8814C320.525 60.4467 320.384 59.9055 320.384 59.2578C320.384 58.7124 320.484 58.2543 320.685 57.8835C320.885 57.5128 321.158 57.2145 321.503 56.9886C321.848 56.7628 322.24 56.5923 322.679 56.4773C323.122 56.3622 323.587 56.2812 324.072 56.2344C324.643 56.1747 325.104 56.1193 325.453 56.0682C325.803 56.0128 326.056 55.9318 326.214 55.8253C326.371 55.7187 326.45 55.5611 326.45 55.3523V55.3139C326.45 54.9091 326.322 54.5959 326.067 54.3743C325.815 54.1527 325.457 54.0419 324.993 54.0419C324.503 54.0419 324.113 54.1506 323.823 54.3679C323.533 54.581 323.342 54.8494 323.248 55.1733L320.729 54.9688C320.857 54.3722 321.109 53.8565 321.484 53.4219C321.859 52.983 322.342 52.6463 322.935 52.4119C323.531 52.1733 324.222 52.054 325.006 52.054C325.551 52.054 326.073 52.1179 326.572 52.2457C327.075 52.3736 327.52 52.5717 327.908 52.8402C328.3 53.1087 328.609 53.4538 328.835 53.8757C329.06 54.2933 329.173 54.794 329.173 55.3778V62H326.591V60.6385H326.514C326.357 60.9453 326.146 61.2159 325.881 61.4503C325.617 61.6804 325.3 61.8615 324.929 61.9936C324.558 62.1214 324.13 62.1854 323.644 62.1854ZM324.424 60.3061C324.825 60.3061 325.178 60.2273 325.485 60.0696C325.792 59.9077 326.033 59.6903 326.207 59.4176C326.382 59.1449 326.469 58.8359 326.469 58.4908V57.4489C326.384 57.5043 326.267 57.5554 326.118 57.6023C325.973 57.6449 325.809 57.6854 325.626 57.7237C325.442 57.7578 325.259 57.7898 325.076 57.8196C324.893 57.8452 324.727 57.8686 324.577 57.8899C324.258 57.9368 323.979 58.0114 323.74 58.1136C323.501 58.2159 323.316 58.3544 323.184 58.5291C323.052 58.6996 322.986 58.9126 322.986 59.1683C322.986 59.5391 323.12 59.8224 323.388 60.0185C323.661 60.2102 324.006 60.3061 324.424 60.3061ZM334.009 48.9091V62H331.286V48.9091H334.009ZM336.19 62V52.1818H338.913V62H336.19ZM337.558 50.9162C337.153 50.9162 336.806 50.782 336.516 50.5135C336.231 50.2408 336.088 49.9148 336.088 49.5355C336.088 49.1605 336.231 48.8388 336.516 48.5703C336.806 48.2976 337.153 48.1612 337.558 48.1612C337.963 48.1612 338.308 48.2976 338.594 48.5703C338.883 48.8388 339.028 49.1605 339.028 49.5355C339.028 49.9148 338.883 50.2408 338.594 50.5135C338.308 50.782 337.963 50.9162 337.558 50.9162ZM343.894 62.1854C343.268 62.1854 342.71 62.0767 342.219 61.8594C341.729 61.6378 341.342 61.3118 341.056 60.8814C340.775 60.4467 340.634 59.9055 340.634 59.2578C340.634 58.7124 340.734 58.2543 340.935 57.8835C341.135 57.5128 341.408 57.2145 341.753 56.9886C342.098 56.7628 342.49 56.5923 342.929 56.4773C343.372 56.3622 343.837 56.2812 344.322 56.2344C344.893 56.1747 345.354 56.1193 345.703 56.0682C346.053 56.0128 346.306 55.9318 346.464 55.8253C346.621 55.7187 346.7 55.5611 346.7 55.3523V55.3139C346.7 54.9091 346.572 54.5959 346.317 54.3743C346.065 54.1527 345.707 54.0419 345.243 54.0419C344.753 54.0419 344.363 54.1506 344.073 54.3679C343.783 54.581 343.592 54.8494 343.498 55.1733L340.979 54.9688C341.107 54.3722 341.359 53.8565 341.734 53.4219C342.109 52.983 342.592 52.6463 343.185 52.4119C343.781 52.1733 344.472 52.054 345.256 52.054C345.801 52.054 346.323 52.1179 346.822 52.2457C347.325 52.3736 347.77 52.5717 348.158 52.8402C348.55 53.1087 348.859 53.4538 349.085 53.8757C349.31 54.2933 349.423 54.794 349.423 55.3778V62H346.841V60.6385H346.764C346.607 60.9453 346.396 61.2159 346.131 61.4503C345.867 61.6804 345.55 61.8615 345.179 61.9936C344.808 62.1214 344.38 62.1854 343.894 62.1854ZM344.674 60.3061C345.075 60.3061 345.428 60.2273 345.735 60.0696C346.042 59.9077 346.283 59.6903 346.457 59.4176C346.632 59.1449 346.719 58.8359 346.719 58.4908V57.4489C346.634 57.5043 346.517 57.5554 346.368 57.6023C346.223 57.6449 346.059 57.6854 345.876 57.7237C345.692 57.7578 345.509 57.7898 345.326 57.8196C345.143 57.8452 344.977 57.8686 344.827 57.8899C344.508 57.9368 344.229 58.0114 343.99 58.1136C343.751 58.2159 343.566 58.3544 343.434 58.5291C343.302 58.6996 343.236 58.9126 343.236 59.1683C343.236 59.5391 343.37 59.8224 343.638 60.0185C343.911 60.2102 344.256 60.3061 344.674 60.3061ZM359.705 54.9815L357.212 55.1349C357.169 54.9219 357.078 54.7301 356.937 54.5597C356.797 54.3849 356.611 54.2464 356.381 54.1442C356.155 54.0376 355.885 53.9844 355.569 53.9844C355.147 53.9844 354.792 54.0739 354.502 54.2528C354.212 54.4276 354.067 54.6619 354.067 54.956C354.067 55.1903 354.161 55.3885 354.348 55.5504C354.536 55.7124 354.858 55.8423 355.314 55.9403L357.091 56.2983C358.045 56.4943 358.757 56.8097 359.225 57.2443C359.694 57.679 359.929 58.25 359.929 58.9574C359.929 59.6009 359.739 60.1655 359.36 60.6513C358.985 61.1371 358.469 61.5163 357.813 61.7891C357.161 62.0575 356.409 62.1918 355.556 62.1918C354.257 62.1918 353.221 61.9212 352.45 61.38C351.683 60.8345 351.233 60.093 351.101 59.1555L353.779 59.0149C353.86 59.4112 354.056 59.7138 354.368 59.9226C354.679 60.1271 355.077 60.2294 355.563 60.2294C356.04 60.2294 356.424 60.1378 356.713 59.9545C357.007 59.767 357.157 59.5263 357.161 59.2322C357.157 58.9851 357.052 58.7827 356.848 58.625C356.643 58.4631 356.328 58.3395 355.902 58.2543L354.201 57.9155C353.243 57.7237 352.529 57.3913 352.06 56.9183C351.596 56.4453 351.363 55.8423 351.363 55.1094C351.363 54.4787 351.534 53.9354 351.875 53.4794C352.22 53.0234 352.703 52.6719 353.326 52.4247C353.952 52.1776 354.685 52.054 355.525 52.054C356.765 52.054 357.74 52.3161 358.452 52.8402C359.168 53.3643 359.586 54.0781 359.705 54.9815Z" fill="black"/>
<rect x="237.5" y="39.5" width="133" height="32" rx="16" stroke="black"/>
<path d="M83.5611 22.1918C82.5511 22.1918 81.6818 21.9872 80.9531 21.5781C80.2287 21.1648 79.6705 20.581 79.2784 19.8267C78.8864 19.0682 78.6903 18.1712 78.6903 17.1357C78.6903 16.1257 78.8864 15.2393 79.2784 14.4766C79.6705 13.7138 80.2223 13.1193 80.9339 12.6932C81.6499 12.267 82.4893 12.054 83.4524 12.054C84.1001 12.054 84.7031 12.1584 85.2614 12.3672C85.8239 12.5717 86.3139 12.8807 86.7315 13.294C87.1534 13.7074 87.4815 14.2273 87.7159 14.8537C87.9503 15.4759 88.0675 16.2045 88.0675 17.0398V17.7876H79.777V16.1001H85.5043C85.5043 15.7081 85.419 15.3608 85.2486 15.0582C85.0781 14.7557 84.8416 14.5192 84.5391 14.3487C84.2408 14.174 83.8935 14.0866 83.4972 14.0866C83.0838 14.0866 82.7173 14.1825 82.3977 14.3743C82.0824 14.5618 81.8352 14.8153 81.6562 15.1349C81.4773 15.4503 81.3857 15.8018 81.3814 16.1896V17.794C81.3814 18.2798 81.4709 18.6996 81.6499 19.0533C81.8331 19.407 82.0909 19.6797 82.4233 19.8714C82.7557 20.0632 83.1499 20.1591 83.6058 20.1591C83.9084 20.1591 84.1854 20.1165 84.4368 20.0312C84.6882 19.946 84.9034 19.8182 85.0824 19.6477C85.2614 19.4773 85.3977 19.2685 85.4915 19.0213L88.0099 19.1875C87.8821 19.7926 87.62 20.321 87.2237 20.7727C86.8317 21.2202 86.3246 21.5696 85.7024 21.821C85.0845 22.0682 84.3707 22.1918 83.5611 22.1918ZM91.9442 12.1818L93.7468 15.6143L95.5941 12.1818H98.3874L95.543 17.0909L98.4641 22H95.6836L93.7468 18.6058L91.842 22H89.0295L91.9442 17.0909L89.1317 12.1818H91.9442ZM100.005 25.6818V12.1818H102.689V13.831H102.811C102.93 13.5668 103.103 13.2983 103.328 13.0256C103.559 12.7486 103.857 12.5185 104.223 12.3352C104.594 12.1477 105.054 12.054 105.604 12.054C106.32 12.054 106.98 12.2415 107.586 12.6165C108.191 12.9872 108.674 13.5476 109.037 14.2976C109.399 15.0433 109.58 15.9787 109.58 17.1037C109.58 18.1989 109.403 19.1236 109.049 19.8778C108.7 20.6278 108.223 21.1967 107.618 21.5845C107.017 21.968 106.343 22.1598 105.598 22.1598C105.069 22.1598 104.62 22.0724 104.249 21.8977C103.882 21.723 103.582 21.5036 103.348 21.2393C103.113 20.9709 102.934 20.7003 102.811 20.4276H102.728V25.6818H100.005ZM102.67 17.0909C102.67 17.6747 102.751 18.1839 102.913 18.6186C103.075 19.0533 103.309 19.392 103.616 19.6349C103.923 19.8736 104.296 19.9929 104.735 19.9929C105.178 19.9929 105.553 19.8714 105.86 19.6286C106.167 19.3814 106.399 19.0405 106.556 18.6058C106.718 18.1669 106.799 17.6619 106.799 17.0909C106.799 16.5241 106.721 16.0256 106.563 15.5952C106.405 15.1648 106.173 14.8281 105.866 14.5852C105.559 14.3423 105.182 14.2209 104.735 14.2209C104.292 14.2209 103.917 14.3381 103.61 14.5724C103.307 14.8068 103.075 15.1392 102.913 15.5696C102.751 16 102.67 16.5071 102.67 17.0909ZM111.395 22V12.1818H114.035V13.8949H114.137C114.316 13.2855 114.617 12.8253 115.039 12.5142C115.461 12.1989 115.946 12.0412 116.496 12.0412C116.632 12.0412 116.779 12.0497 116.937 12.0668C117.095 12.0838 117.233 12.1072 117.353 12.1371V14.5533C117.225 14.5149 117.048 14.4808 116.822 14.451C116.596 14.4212 116.39 14.4062 116.202 14.4062C115.801 14.4062 115.444 14.4936 115.128 14.6683C114.817 14.8388 114.57 15.0774 114.387 15.3842C114.208 15.6911 114.118 16.0447 114.118 16.4453V22H111.395Z" fill="black"/>
<rect x="73.5" y="0.5" width="50" height="32" stroke="black"/>
<path d="M73 17L63 11.2265V22.7735L73 17ZM12.5 18L64 18V16L12.5 16V18Z" fill="black"/>
<path d="M237 55L227 49.2265V60.7735L237 55ZM212 56L228 56V54L212 54V56Z" fill="black"/>
<path d="M137.549 27H136.549H137.549ZM137.549 45H138.549H137.549ZM165 55L155 49.2265V60.7735L165 55ZM125 18H127.549V16H125V18ZM136.549 27L136.549 45H138.549L138.549 27H136.549ZM147.549 56H151.275V54H147.549V56ZM151.275 56H156V54H151.275V56ZM136.549 45C136.549 51.0751 141.474 56 147.549 56V54C142.578 54 138.549 49.9706 138.549 45H136.549ZM127.549 18C132.52 18 136.549 22.0294 136.549 27H138.549C138.549 20.9249 133.624 16 127.549 16V18Z" fill="black"/>
<path d="M212 146L202 140.226V151.774L212 146ZM193 147H203V145H193V147Z" fill="black"/>
<path d="M264 146L254 140.226V151.774L264 146ZM245 147H255V145H245V147Z" fill="black"/>
<path d="M294 17L284 11.2265L284 22.7735L294 17ZM124 18L285 18L285 16L124 16L124 18Z" fill="black"/>
<path d="M419 17L409 11.2265L409 22.7735L419 17ZM249 18L410 18L410 16L249 16L249 18Z" fill="black"/>
<path d="M373.5 102L373.5 103L373.5 102ZM383.5 91.9995L382.5 91.9995L383.5 91.9995ZM383.5 27L384.5 27L383.5 27ZM393.5 17L393.5 16L393.5 17ZM419 17L409 11.2265L409 22.7735L419 17ZM356 103L373.5 103L373.5 101L356 101L356 103ZM384.5 91.9995L384.5 27L382.5 27L382.5 91.9995L384.5 91.9995ZM393.5 18L410 18L410 16L393.5 16L393.5 18ZM384.5 27C384.5 22.0294 388.529 18 393.5 18L393.5 16C387.425 16 382.5 20.9249 382.5 27L384.5 27ZM373.5 103C379.575 103 384.5 98.0747 384.5 91.9995L382.5 91.9995C382.5 96.9701 378.471 101 373.5 101L373.5 103Z" fill="black"/>
<path d="M383.5 46.5L382.5 46.5V46.5L383.5 46.5ZM383.5 27L384.5 27V27L383.5 27ZM393.5 17L393.5 16L393.5 16L393.5 17ZM419 17L409 11.2265L409 22.7735L419 17ZM370.5 57.5L373.5 57.5L373.5 55.5L370.5 55.5L370.5 57.5ZM384.5 46.5L384.5 27L382.5 27L382.5 46.5L384.5 46.5ZM393.5 18L410 18L410 16L393.5 16L393.5 18ZM384.5 27C384.5 22.0294 388.53 18 393.5 18L393.5 16C387.425 16 382.5 20.9249 382.5 27L384.5 27ZM373.5 57.5C379.575 57.5 384.5 52.5751 384.5 46.5L382.5 46.5C382.5 51.4706 378.471 55.5 373.5 55.5L373.5 57.5Z" fill="black"/>
<path d="M373.5 146L373.5 147L373.5 146ZM383.5 136L382.5 136L383.5 136ZM383.5 27L384.5 27L383.5 27ZM393.5 17L393.5 18L393.5 17ZM419 17L409 11.2265L409 22.7735L419 17ZM356 147L373.5 147L373.5 145L356 145L356 147ZM384.5 136L384.5 27L382.5 27L382.5 136L384.5 136ZM393.5 18L410 18L410 16L393.5 16L393.5 18ZM384.5 27C384.5 22.0294 388.529 18 393.5 18L393.5 16C387.425 16 382.5 20.9249 382.5 27L384.5 27ZM373.5 147C379.575 147 384.5 142.075 384.5 136L382.5 136C382.5 140.971 378.471 145 373.5 145L373.5 147Z" fill="black"/>
<path d="M360 102L350 96.2265L350 107.774L360 102ZM106 103L351 103L351 101L106 101V103Z" fill="black"/>
<path d="M360 146L350 140.227L350 151.774L360 146ZM297 147L351 147L351 145L297 145L297 147Z" fill="black"/>
</svg>
