<svg width="675" height="223" viewBox="0 0 675 223" fill="none" xmlns="http://www.w3.org/2000/svg">
<circle cx="4" cy="72" r="3.5" stroke="black"/>
<circle cx="671" cy="72" r="3.5" stroke="black"/>
<path d="M32 72L22 66.2265V77.7735L32 72ZM8 73H23V71H8V73Z" fill="black"/>
<path d="M615 128L605 122.226V133.774L615 128ZM591 129H606V127H591V129Z" fill="black"/>
<path d="M576 208L566 202.226V213.774L576 208ZM552 209H567V207H552V209Z" fill="black"/>
<path d="M236 72L226 66.2265V77.7735L236 72ZM166 73H227V71H166V73Z" fill="black"/>
<path d="M430 128L420 122.226V133.774L430 128ZM382 129H421V127H382V129Z" fill="black"/>
<path d="M328.5 128L318.5 122.226V133.774L328.5 128ZM285 73H289.5V71H285V73ZM298.5 82V118H300.5V82H298.5ZM309.5 129H319.5V127H309.5V129ZM298.5 118C298.5 124.075 303.425 129 309.5 129V127C304.529 127 300.5 122.971 300.5 118H298.5ZM289.5 73C294.471 73 298.5 77.0294 298.5 82H300.5C300.5 75.9249 295.575 71 289.5 71V73Z" fill="black"/>
<path d="M405.5 208L395.5 202.227V213.773L405.5 208ZM202 73H208.956V71H202V73ZM217.956 82V198H219.956V82H217.956ZM228.956 209H396.5V207H228.956V209ZM217.956 198C217.956 204.075 222.881 209 228.956 209V207C223.986 207 219.956 202.971 219.956 198H217.956ZM208.956 73C213.927 73 217.956 77.0294 217.956 82H219.956C219.956 75.9249 215.031 71 208.956 71V73Z" fill="black"/>
<path d="M430 128.5L420 122.726V134.274L430 128.5ZM285 73H289.333V71H285V73ZM298.333 82V156H300.333V82H298.333ZM309.333 167H398.5V165H309.333V167ZM409.5 156V138.5H407.5V156H409.5ZM418.5 129.5H421V127.5H418.5V129.5ZM409.5 138.5C409.5 133.529 413.529 129.5 418.5 129.5V127.5C412.425 127.5 407.5 132.425 407.5 138.5H409.5ZM398.5 167C404.575 167 409.5 162.075 409.5 156H407.5C407.5 160.971 403.471 165 398.5 165V167ZM298.333 156C298.333 162.075 303.258 167 309.333 167V165C304.363 165 300.333 160.971 300.333 156H298.333ZM289.333 73C294.304 73 298.333 77.0294 298.333 82H300.333C300.333 75.9249 295.408 71 289.333 71V73Z" fill="black"/>
<path d="M182 16.9989L182 17.9989L182 16.9989ZM182 71.9997L182 70.9997L182 71.9997ZM190.5 72L180.5 66.2261L180.5 77.7731L190.5 72ZM406 15.9989L182 15.9989L182 17.9989L406 17.9989L406 15.9989ZM171 26.9989L171 61.9997L173 61.9997L173 26.9989L171 26.9989ZM171 61.9997C171 68.0747 175.925 72.9995 182 72.9997L182 70.9997C177.029 70.9995 173 66.9701 173 61.9997L171 61.9997ZM182 15.9989C175.925 15.9989 171 20.9238 171 26.9989L173 26.9989C173 22.0284 177.029 17.9989 182 17.9989L182 15.9989Z" fill="black"/>
<path d="M500 72L490 66.2265V77.7735L500 72ZM285 73H491V71H285V73Z" fill="black"/>
<path d="M667 72L657 66.2265V77.7735L667 72ZM452 73H658V71H452V73Z" fill="black"/>
<path d="M667 72L657 66.2265V77.7735L667 72ZM438 209H619.5V207H438V209ZM630.5 198V82H628.5V198H630.5ZM639.5 73H658V71H639.5V73ZM630.5 82C630.5 77.0294 634.529 73 639.5 73V71C633.425 71 628.5 75.9249 628.5 82H630.5ZM619.5 209C625.575 209 630.5 204.075 630.5 198H628.5C628.5 202.971 624.471 207 619.5 207V209Z" fill="black"/>
<path d="M667 72L657 66.2265V77.7735L667 72ZM576 129H619.5V127H576V129ZM630.5 118V82H628.5V118H630.5ZM639.5 73H658V71H639.5V73ZM630.5 82C630.5 77.0294 634.529 73 639.5 73V71C633.425 71 628.5 75.9249 628.5 82H630.5ZM619.5 129C625.575 129 630.5 124.075 630.5 118H628.5C628.5 122.971 624.471 127 619.5 127V129Z" fill="black"/>
<path d="M438.5 17L448.5 22.7735V11.2265L438.5 17ZM452 73H613.5V71H452V73ZM624.5 62V27H622.5V62H624.5ZM613.5 16H447.5V18H613.5V16ZM624.5 27C624.5 20.9249 619.575 16 613.5 16V18C618.471 18 622.5 22.0294 622.5 27H624.5ZM613.5 73C619.575 73 624.5 68.0751 624.5 62H622.5C622.5 66.9706 618.471 71 613.5 71V73Z" fill="black"/>
<path d="M49.1378 78V64.9091H54.3026C55.2912 64.9091 56.1349 65.0859 56.8338 65.4396C57.5369 65.7891 58.0717 66.2855 58.4382 66.929C58.8089 67.5682 58.9943 68.3203 58.9943 69.1854C58.9943 70.0547 58.8068 70.8026 58.4318 71.429C58.0568 72.0511 57.5135 72.5284 56.8018 72.8608C56.0945 73.1932 55.2379 73.3594 54.2322 73.3594H50.7741V71.1349H53.7848C54.3132 71.1349 54.7521 71.0625 55.1016 70.9176C55.451 70.7727 55.7109 70.5554 55.8814 70.2656C56.0561 69.9759 56.1435 69.6158 56.1435 69.1854C56.1435 68.7507 56.0561 68.3842 55.8814 68.0859C55.7109 67.7876 55.4489 67.5618 55.0952 67.4084C54.7457 67.2507 54.3047 67.1719 53.772 67.1719H51.9055V78H49.1378ZM56.2074 72.0426L59.4609 78H56.4055L53.2223 72.0426H56.2074ZM60.9503 78V64.9091H69.7713V67.1911H63.718V70.3104H69.3175V72.5923H63.718V75.718H69.7969V78H60.9503ZM71.4732 67.1911V64.9091H82.2246V67.1911H78.2168V78H75.481V67.1911H71.4732ZM92.0811 64.9091H94.8489V73.4105C94.8489 74.3651 94.6209 75.2003 94.165 75.9162C93.7132 76.6321 93.0804 77.1903 92.2665 77.5909C91.4526 77.9872 90.5044 78.1854 89.4221 78.1854C88.3354 78.1854 87.3851 77.9872 86.5712 77.5909C85.7573 77.1903 85.1245 76.6321 84.6728 75.9162C84.2211 75.2003 83.9952 74.3651 83.9952 73.4105V64.9091H86.763V73.174C86.763 73.6726 86.8716 74.1158 87.089 74.5036C87.3105 74.8913 87.6216 75.196 88.0222 75.4176C88.4228 75.6392 88.8894 75.75 89.4221 75.75C89.959 75.75 90.4256 75.6392 90.8219 75.4176C91.2225 75.196 91.5314 74.8913 91.7488 74.5036C91.9703 74.1158 92.0811 73.6726 92.0811 73.174V64.9091ZM97.1261 78V64.9091H102.291C103.279 64.9091 104.123 65.0859 104.822 65.4396C105.525 65.7891 106.06 66.2855 106.426 66.929C106.797 67.5682 106.983 68.3203 106.983 69.1854C106.983 70.0547 106.795 70.8026 106.42 71.429C106.045 72.0511 105.502 72.5284 104.79 72.8608C104.083 73.1932 103.226 73.3594 102.221 73.3594H98.7624V71.1349H101.773C102.301 71.1349 102.74 71.0625 103.09 70.9176C103.439 70.7727 103.699 70.5554 103.87 70.2656C104.044 69.9759 104.132 69.6158 104.132 69.1854C104.132 68.7507 104.044 68.3842 103.87 68.0859C103.699 67.7876 103.437 67.5618 103.083 67.4084C102.734 67.2507 102.293 67.1719 101.76 67.1719H99.8938V78H97.1261ZM104.196 72.0426L107.449 78H104.394L101.211 72.0426H104.196ZM119.888 64.9091V78H117.498L111.802 69.7607H111.706V78H108.939V64.9091H111.368L117.018 73.142H117.133V64.9091H119.888ZM124.943 64.9091V78H122.175V64.9091H124.943ZM138.169 64.9091V78H135.779L130.083 69.7607H129.988V78H127.22V64.9091H129.649L135.299 73.142H135.414V64.9091H138.169ZM149.137 69.1406C149.047 68.8295 148.921 68.5547 148.759 68.3161C148.597 68.0732 148.399 67.8686 148.165 67.7024C147.935 67.532 147.671 67.402 147.372 67.3125C147.078 67.223 146.752 67.1783 146.394 67.1783C145.725 67.1783 145.137 67.3445 144.63 67.6768C144.127 68.0092 143.735 68.4929 143.454 69.1278C143.173 69.7585 143.032 70.5298 143.032 71.4418C143.032 72.3537 143.171 73.1293 143.448 73.7685C143.725 74.4077 144.117 74.8956 144.624 75.2322C145.131 75.5646 145.73 75.7308 146.42 75.7308C147.046 75.7308 147.581 75.62 148.024 75.3984C148.472 75.1726 148.813 74.8551 149.047 74.446C149.286 74.0369 149.405 73.5533 149.405 72.995L149.968 73.0781H146.593V70.9943H152.07V72.6435C152.07 73.794 151.828 74.7827 151.342 75.6094C150.856 76.4318 150.187 77.0668 149.335 77.5142C148.482 77.9574 147.507 78.179 146.407 78.179C145.18 78.179 144.102 77.9084 143.173 77.3672C142.244 76.8217 141.519 76.0483 140.999 75.0469C140.484 74.0412 140.226 72.848 140.226 71.4673C140.226 70.4062 140.379 69.4602 140.686 68.6293C140.997 67.794 141.432 67.0866 141.99 66.5071C142.548 65.9276 143.198 65.4865 143.94 65.1839C144.681 64.8814 145.485 64.7301 146.35 64.7301C147.091 64.7301 147.781 64.8388 148.421 65.0561C149.06 65.2692 149.627 65.5717 150.121 65.9638C150.619 66.3558 151.026 66.8224 151.342 67.3636C151.657 67.9006 151.86 68.4929 151.949 69.1406H149.137Z" fill="black"/>
<rect x="33.5" y="56.5" width="132" height="32" rx="16" stroke="black"/>
<path d="M450.523 133.192C449.517 133.192 448.652 132.979 447.928 132.553C447.207 132.122 446.653 131.526 446.266 130.763C445.882 130 445.69 129.122 445.69 128.129C445.69 127.124 445.884 126.241 446.272 125.483C446.664 124.72 447.22 124.126 447.94 123.7C448.661 123.269 449.517 123.054 450.51 123.054C451.366 123.054 452.116 123.21 452.76 123.521C453.403 123.832 453.913 124.268 454.288 124.831C454.663 125.393 454.869 126.054 454.908 126.812H452.338C452.266 126.322 452.074 125.928 451.763 125.63C451.456 125.327 451.053 125.176 450.555 125.176C450.133 125.176 449.764 125.291 449.449 125.521C449.138 125.747 448.895 126.077 448.72 126.512C448.545 126.947 448.458 127.473 448.458 128.091C448.458 128.717 448.543 129.25 448.714 129.689C448.888 130.128 449.134 130.462 449.449 130.692C449.764 130.923 450.133 131.038 450.555 131.038C450.866 131.038 451.145 130.974 451.392 130.846C451.643 130.718 451.85 130.533 452.012 130.29C452.178 130.043 452.287 129.746 452.338 129.401H454.908C454.865 130.151 454.661 130.812 454.294 131.383C453.932 131.95 453.431 132.393 452.792 132.712C452.153 133.032 451.396 133.192 450.523 133.192ZM461.087 133.192C460.094 133.192 459.236 132.981 458.511 132.559C457.791 132.133 457.235 131.54 456.843 130.782C456.451 130.019 456.255 129.135 456.255 128.129C456.255 127.115 456.451 126.229 456.843 125.47C457.235 124.707 457.791 124.115 458.511 123.693C459.236 123.267 460.094 123.054 461.087 123.054C462.08 123.054 462.937 123.267 463.657 123.693C464.381 124.115 464.939 124.707 465.331 125.47C465.724 126.229 465.92 127.115 465.92 128.129C465.92 129.135 465.724 130.019 465.331 130.782C464.939 131.54 464.381 132.133 463.657 132.559C462.937 132.981 462.08 133.192 461.087 133.192ZM461.1 131.082C461.552 131.082 461.929 130.955 462.231 130.699C462.534 130.439 462.762 130.085 462.915 129.638C463.073 129.19 463.152 128.681 463.152 128.11C463.152 127.539 463.073 127.03 462.915 126.582C462.762 126.135 462.534 125.781 462.231 125.521C461.929 125.261 461.552 125.131 461.1 125.131C460.644 125.131 460.26 125.261 459.949 125.521C459.643 125.781 459.41 126.135 459.253 126.582C459.099 127.03 459.023 127.539 459.023 128.11C459.023 128.681 459.099 129.19 459.253 129.638C459.41 130.085 459.643 130.439 459.949 130.699C460.26 130.955 460.644 131.082 461.1 131.082ZM470.413 119.909V133H467.69V119.909H470.413ZM478.891 128.82V123.182H481.614V133H478.999V131.217H478.897C478.675 131.792 478.307 132.254 477.791 132.604C477.28 132.953 476.656 133.128 475.918 133.128C475.262 133.128 474.685 132.979 474.186 132.68C473.688 132.382 473.298 131.958 473.016 131.408C472.739 130.859 472.599 130.2 472.594 129.433V123.182H475.317V128.947C475.322 129.527 475.477 129.985 475.784 130.322C476.091 130.658 476.502 130.827 477.018 130.827C477.346 130.827 477.653 130.752 477.938 130.603C478.224 130.45 478.454 130.224 478.629 129.925C478.808 129.627 478.895 129.259 478.891 128.82ZM483.792 133V123.182H486.387V124.914H486.502C486.706 124.339 487.047 123.885 487.525 123.553C488.002 123.22 488.573 123.054 489.238 123.054C489.911 123.054 490.484 123.222 490.957 123.559C491.43 123.891 491.746 124.343 491.903 124.914H492.006C492.206 124.352 492.568 123.902 493.092 123.565C493.621 123.224 494.245 123.054 494.965 123.054C495.881 123.054 496.625 123.346 497.196 123.93C497.771 124.509 498.059 125.332 498.059 126.397V133H495.342V126.934C495.342 126.388 495.197 125.979 494.907 125.707C494.618 125.434 494.256 125.298 493.821 125.298C493.327 125.298 492.941 125.455 492.664 125.771C492.387 126.082 492.248 126.493 492.248 127.004V133H489.608V126.876C489.608 126.395 489.47 126.011 489.193 125.726C488.92 125.44 488.56 125.298 488.113 125.298C487.81 125.298 487.537 125.374 487.295 125.528C487.056 125.677 486.866 125.888 486.726 126.161C486.585 126.429 486.515 126.744 486.515 127.107V133H483.792ZM502.933 127.324V133H500.21V123.182H502.805V124.914H502.92C503.137 124.343 503.502 123.891 504.013 123.559C504.524 123.222 505.144 123.054 505.873 123.054C506.555 123.054 507.149 123.203 507.656 123.501C508.164 123.8 508.558 124.226 508.839 124.78C509.12 125.33 509.261 125.986 509.261 126.749V133H506.538V127.234C506.542 126.634 506.389 126.165 506.078 125.828C505.767 125.487 505.338 125.317 504.793 125.317C504.426 125.317 504.102 125.396 503.821 125.553C503.544 125.711 503.327 125.941 503.169 126.244C503.016 126.542 502.937 126.902 502.933 127.324ZM517.524 126.544V128.705H511.554V126.544H517.524ZM522.644 133.185C522.018 133.185 521.46 133.077 520.969 132.859C520.479 132.638 520.092 132.312 519.806 131.881C519.525 131.447 519.384 130.906 519.384 130.258C519.384 129.712 519.484 129.254 519.685 128.884C519.885 128.513 520.158 128.214 520.503 127.989C520.848 127.763 521.24 127.592 521.679 127.477C522.122 127.362 522.587 127.281 523.072 127.234C523.643 127.175 524.104 127.119 524.453 127.068C524.803 127.013 525.056 126.932 525.214 126.825C525.371 126.719 525.45 126.561 525.45 126.352V126.314C525.45 125.909 525.322 125.596 525.067 125.374C524.815 125.153 524.457 125.042 523.993 125.042C523.503 125.042 523.113 125.151 522.823 125.368C522.533 125.581 522.342 125.849 522.248 126.173L519.729 125.969C519.857 125.372 520.109 124.857 520.484 124.422C520.859 123.983 521.342 123.646 521.935 123.412C522.531 123.173 523.222 123.054 524.006 123.054C524.551 123.054 525.073 123.118 525.572 123.246C526.075 123.374 526.52 123.572 526.908 123.84C527.3 124.109 527.609 124.454 527.835 124.876C528.06 125.293 528.173 125.794 528.173 126.378V133H525.591V131.638H525.514C525.357 131.945 525.146 132.216 524.881 132.45C524.617 132.68 524.3 132.862 523.929 132.994C523.558 133.121 523.13 133.185 522.644 133.185ZM523.424 131.306C523.825 131.306 524.178 131.227 524.485 131.07C524.792 130.908 525.033 130.69 525.207 130.418C525.382 130.145 525.469 129.836 525.469 129.491V128.449C525.384 128.504 525.267 128.555 525.118 128.602C524.973 128.645 524.809 128.685 524.626 128.724C524.442 128.758 524.259 128.79 524.076 128.82C523.893 128.845 523.727 128.869 523.577 128.89C523.258 128.937 522.979 129.011 522.74 129.114C522.501 129.216 522.316 129.354 522.184 129.529C522.052 129.7 521.986 129.913 521.986 130.168C521.986 130.539 522.12 130.822 522.388 131.018C522.661 131.21 523.006 131.306 523.424 131.306ZM533.009 119.909V133H530.286V119.909H533.009ZM535.19 133V123.182H537.913V133H535.19ZM536.558 121.916C536.153 121.916 535.806 121.782 535.516 121.513C535.231 121.241 535.088 120.915 535.088 120.536C535.088 120.161 535.231 119.839 535.516 119.57C535.806 119.298 536.153 119.161 536.558 119.161C536.963 119.161 537.308 119.298 537.594 119.57C537.883 119.839 538.028 120.161 538.028 120.536C538.028 120.915 537.883 121.241 537.594 121.513C537.308 121.782 536.963 121.916 536.558 121.916ZM542.894 133.185C542.268 133.185 541.71 133.077 541.219 132.859C540.729 132.638 540.342 132.312 540.056 131.881C539.775 131.447 539.634 130.906 539.634 130.258C539.634 129.712 539.734 129.254 539.935 128.884C540.135 128.513 540.408 128.214 540.753 127.989C541.098 127.763 541.49 127.592 541.929 127.477C542.372 127.362 542.837 127.281 543.322 127.234C543.893 127.175 544.354 127.119 544.703 127.068C545.053 127.013 545.306 126.932 545.464 126.825C545.621 126.719 545.7 126.561 545.7 126.352V126.314C545.7 125.909 545.572 125.596 545.317 125.374C545.065 125.153 544.707 125.042 544.243 125.042C543.753 125.042 543.363 125.151 543.073 125.368C542.783 125.581 542.592 125.849 542.498 126.173L539.979 125.969C540.107 125.372 540.359 124.857 540.734 124.422C541.109 123.983 541.592 123.646 542.185 123.412C542.781 123.173 543.472 123.054 544.256 123.054C544.801 123.054 545.323 123.118 545.822 123.246C546.325 123.374 546.77 123.572 547.158 123.84C547.55 124.109 547.859 124.454 548.085 124.876C548.31 125.293 548.423 125.794 548.423 126.378V133H545.841V131.638H545.764C545.607 131.945 545.396 132.216 545.131 132.45C544.867 132.68 544.55 132.862 544.179 132.994C543.808 133.121 543.38 133.185 542.894 133.185ZM543.674 131.306C544.075 131.306 544.428 131.227 544.735 131.07C545.042 130.908 545.283 130.69 545.457 130.418C545.632 130.145 545.719 129.836 545.719 129.491V128.449C545.634 128.504 545.517 128.555 545.368 128.602C545.223 128.645 545.059 128.685 544.876 128.724C544.692 128.758 544.509 128.79 544.326 128.82C544.143 128.845 543.977 128.869 543.827 128.89C543.508 128.937 543.229 129.011 542.99 129.114C542.751 129.216 542.566 129.354 542.434 129.529C542.302 129.7 542.236 129.913 542.236 130.168C542.236 130.539 542.37 130.822 542.638 131.018C542.911 131.21 543.256 131.306 543.674 131.306ZM558.705 125.982L556.212 126.135C556.169 125.922 556.078 125.73 555.937 125.56C555.797 125.385 555.611 125.246 555.381 125.144C555.155 125.038 554.885 124.984 554.569 124.984C554.147 124.984 553.792 125.074 553.502 125.253C553.212 125.428 553.067 125.662 553.067 125.956C553.067 126.19 553.161 126.388 553.348 126.55C553.536 126.712 553.858 126.842 554.314 126.94L556.091 127.298C557.045 127.494 557.757 127.81 558.225 128.244C558.694 128.679 558.929 129.25 558.929 129.957C558.929 130.601 558.739 131.165 558.36 131.651C557.985 132.137 557.469 132.516 556.813 132.789C556.161 133.058 555.409 133.192 554.556 133.192C553.257 133.192 552.221 132.921 551.45 132.38C550.683 131.835 550.233 131.093 550.101 130.156L552.779 130.015C552.86 130.411 553.056 130.714 553.368 130.923C553.679 131.127 554.077 131.229 554.563 131.229C555.04 131.229 555.424 131.138 555.713 130.955C556.007 130.767 556.157 130.526 556.161 130.232C556.157 129.985 556.052 129.783 555.848 129.625C555.643 129.463 555.328 129.339 554.902 129.254L553.201 128.915C552.243 128.724 551.529 128.391 551.06 127.918C550.596 127.445 550.363 126.842 550.363 126.109C550.363 125.479 550.534 124.935 550.875 124.479C551.22 124.023 551.703 123.672 552.326 123.425C552.952 123.178 553.685 123.054 554.525 123.054C555.765 123.054 556.74 123.316 557.452 123.84C558.168 124.364 558.586 125.078 558.705 125.982Z" fill="black"/>
<rect x="430.5" y="111.5" width="145" height="32" rx="16" stroke="black"/>
<path d="M346.394 133H343.428L347.947 119.909H351.514L356.027 133H353.061L349.782 122.901H349.68L346.394 133ZM346.209 127.854H353.214V130.015H346.209V127.854ZM364.405 123.674C364.354 123.158 364.135 122.758 363.747 122.472C363.359 122.187 362.833 122.044 362.168 122.044C361.716 122.044 361.335 122.108 361.024 122.236C360.713 122.359 360.474 122.532 360.308 122.754C360.146 122.975 360.065 123.227 360.065 123.508C360.057 123.742 360.106 123.947 360.212 124.121C360.323 124.296 360.474 124.447 360.666 124.575C360.858 124.699 361.079 124.808 361.331 124.901C361.582 124.991 361.851 125.067 362.136 125.131L363.312 125.413C363.883 125.54 364.407 125.711 364.885 125.924C365.362 126.137 365.775 126.399 366.125 126.71C366.474 127.021 366.745 127.388 366.937 127.81C367.133 128.232 367.233 128.715 367.237 129.261C367.233 130.062 367.028 130.756 366.623 131.344C366.223 131.928 365.643 132.382 364.885 132.706C364.131 133.026 363.221 133.185 362.155 133.185C361.099 133.185 360.178 133.023 359.394 132.7C358.614 132.376 358.005 131.896 357.566 131.261C357.131 130.622 356.903 129.832 356.882 128.89H359.56C359.59 129.329 359.716 129.695 359.937 129.989C360.163 130.279 360.464 130.499 360.839 130.648C361.218 130.793 361.646 130.865 362.123 130.865C362.592 130.865 362.999 130.797 363.344 130.661C363.694 130.524 363.964 130.335 364.156 130.092C364.348 129.849 364.444 129.57 364.444 129.254C364.444 128.96 364.356 128.713 364.182 128.513C364.011 128.312 363.76 128.142 363.427 128.001C363.099 127.861 362.697 127.733 362.219 127.618L360.794 127.26C359.69 126.991 358.819 126.572 358.18 126.001C357.54 125.43 357.223 124.661 357.227 123.693C357.223 122.901 357.434 122.208 357.86 121.616C358.29 121.023 358.881 120.561 359.631 120.229C360.381 119.896 361.233 119.73 362.187 119.73C363.159 119.73 364.007 119.896 364.731 120.229C365.46 120.561 366.027 121.023 366.432 121.616C366.836 122.208 367.045 122.894 367.058 123.674H364.405Z" fill="black"/>
<rect x="328.5" y="111.5" width="53" height="32" rx="16" stroke="black"/>
<path d="M423.046 19.2102L422.976 19.9134C422.92 20.4759 422.814 21.0362 422.656 21.5945C422.503 22.157 422.341 22.6662 422.17 23.1222C422.004 23.5781 421.87 23.9361 421.768 24.196H420.004C420.067 23.9446 420.155 23.593 420.266 23.1413C420.376 22.6939 420.481 22.1911 420.579 21.6328C420.677 21.0746 420.739 20.5057 420.764 19.9261L420.796 19.2102H423.046Z" fill="black"/>
<rect x="406.5" y="0.5" width="31" height="32" rx="15.5" stroke="black"/>
<path d="M421.225 210.273L421.385 207.799L419.314 209.186L418.457 207.678L420.688 206.591L418.457 205.504L419.314 203.996L421.385 205.383L421.225 202.909H422.945L422.778 205.383L424.849 203.996L425.706 205.504L423.482 206.591L425.706 207.678L424.849 209.186L422.778 207.799L422.945 210.273H421.225Z" fill="black"/>
<rect x="406.5" y="190.5" width="31" height="32" rx="15.5" stroke="black"/>
<path d="M246.561 77.1918C245.551 77.1918 244.682 76.9872 243.953 76.5781C243.229 76.1648 242.67 75.581 242.278 74.8267C241.886 74.0682 241.69 73.1712 241.69 72.1357C241.69 71.1257 241.886 70.2393 242.278 69.4766C242.67 68.7138 243.222 68.1193 243.934 67.6932C244.65 67.267 245.489 67.054 246.452 67.054C247.1 67.054 247.703 67.1584 248.261 67.3672C248.824 67.5717 249.314 67.8807 249.732 68.294C250.153 68.7074 250.482 69.2273 250.716 69.8537C250.95 70.4759 251.067 71.2045 251.067 72.0398V72.7876H242.777V71.1001H248.504C248.504 70.7081 248.419 70.3608 248.249 70.0582C248.078 69.7557 247.842 69.5192 247.539 69.3487C247.241 69.174 246.893 69.0866 246.497 69.0866C246.084 69.0866 245.717 69.1825 245.398 69.3743C245.082 69.5618 244.835 69.8153 244.656 70.1349C244.477 70.4503 244.386 70.8018 244.381 71.1896V72.794C244.381 73.2798 244.471 73.6996 244.65 74.0533C244.833 74.407 245.091 74.6797 245.423 74.8714C245.756 75.0632 246.15 75.1591 246.606 75.1591C246.908 75.1591 247.185 75.1165 247.437 75.0312C247.688 74.946 247.903 74.8182 248.082 74.6477C248.261 74.4773 248.398 74.2685 248.491 74.0213L251.01 74.1875C250.882 74.7926 250.62 75.321 250.224 75.7727C249.832 76.2202 249.325 76.5696 248.702 76.821C248.085 77.0682 247.371 77.1918 246.561 77.1918ZM254.944 67.1818L256.747 70.6143L258.594 67.1818H261.387L258.543 72.0909L261.464 77H258.684L256.747 73.6058L254.842 77H252.029L254.944 72.0909L252.132 67.1818H254.944ZM263.005 80.6818V67.1818H265.689V68.831H265.811C265.93 68.5668 266.103 68.2983 266.328 68.0256C266.559 67.7486 266.857 67.5185 267.223 67.3352C267.594 67.1477 268.054 67.054 268.604 67.054C269.32 67.054 269.98 67.2415 270.586 67.6165C271.191 67.9872 271.674 68.5476 272.037 69.2976C272.399 70.0433 272.58 70.9787 272.58 72.1037C272.58 73.1989 272.403 74.1236 272.049 74.8778C271.7 75.6278 271.223 76.1967 270.618 76.5845C270.017 76.968 269.343 77.1598 268.598 77.1598C268.069 77.1598 267.62 77.0724 267.249 76.8977C266.882 76.723 266.582 76.5036 266.348 76.2393C266.113 75.9709 265.934 75.7003 265.811 75.4276H265.728V80.6818H263.005ZM265.67 72.0909C265.67 72.6747 265.751 73.1839 265.913 73.6186C266.075 74.0533 266.309 74.392 266.616 74.6349C266.923 74.8736 267.296 74.9929 267.735 74.9929C268.178 74.9929 268.553 74.8714 268.86 74.6286C269.167 74.3814 269.399 74.0405 269.556 73.6058C269.718 73.1669 269.799 72.6619 269.799 72.0909C269.799 71.5241 269.721 71.0256 269.563 70.5952C269.405 70.1648 269.173 69.8281 268.866 69.5852C268.559 69.3423 268.182 69.2209 267.735 69.2209C267.292 69.2209 266.917 69.3381 266.61 69.5724C266.307 69.8068 266.075 70.1392 265.913 70.5696C265.751 71 265.67 71.5071 265.67 72.0909ZM274.395 77V67.1818H277.035V68.8949H277.137C277.316 68.2855 277.617 67.8253 278.039 67.5142C278.461 67.1989 278.946 67.0412 279.496 67.0412C279.632 67.0412 279.779 67.0497 279.937 67.0668C280.095 67.0838 280.233 67.1072 280.353 67.1371V69.5533C280.225 69.5149 280.048 69.4808 279.822 69.451C279.596 69.4212 279.39 69.4062 279.202 69.4062C278.801 69.4062 278.444 69.4936 278.128 69.6683C277.817 69.8388 277.57 70.0774 277.387 70.3842C277.208 70.6911 277.118 71.0447 277.118 71.4453V77H274.395Z" fill="black"/>
<rect x="237.5" y="56.5" width="47" height="32" stroke="black"/>
</svg>
