<svg width="675" height="225" viewBox="0 0 675 225" fill="none" xmlns="http://www.w3.org/2000/svg">
<circle cx="4" cy="74" r="3.5" stroke="black"/>
<circle cx="671" cy="74" r="3.5" stroke="black"/>
<path d="M32 74L22 68.2265V79.7735L32 74ZM8 75H23V73H8V75Z" fill="black"/>
<path d="M615 130L605 124.226V135.774L615 130ZM591 131H606V129H591V131Z" fill="black"/>
<path d="M576 210L566 204.226V215.774L576 210ZM552 211H567V209H552V211Z" fill="black"/>
<path d="M236 74L226 68.2265V79.7735L236 74ZM166 75H227V73H166V75Z" fill="black"/>
<path d="M430 130L420 124.226V135.774L430 130ZM382 131H421V129H382V131Z" fill="black"/>
<path d="M328.5 130L318.5 124.226V135.774L328.5 130ZM285 75H289.5V73H285V75ZM298.5 84V120H300.5V84H298.5ZM309.5 131H319.5V129H309.5V131ZM298.5 120C298.5 126.075 303.425 131 309.5 131V129C304.529 129 300.5 124.971 300.5 120H298.5ZM289.5 75C294.471 75 298.5 79.0294 298.5 84H300.5C300.5 77.9249 295.575 73 289.5 73V75Z" fill="black"/>
<path d="M405.5 210L395.5 204.227V215.773L405.5 210ZM202 75H208.956V73H202V75ZM217.956 84V200H219.956V84H217.956ZM228.956 211H396.5V209H228.956V211ZM217.956 200C217.956 206.075 222.881 211 228.956 211V209C223.986 209 219.956 204.971 219.956 200H217.956ZM208.956 75C213.927 75 217.956 79.0294 217.956 84H219.956C219.956 77.9249 215.031 73 208.956 73V75Z" fill="black"/>
<path d="M430 130.5L420 124.726V136.274L430 130.5ZM285 75H289.333V73H285V75ZM298.333 84V158H300.333V84H298.333ZM309.333 169H398.5V167H309.333V169ZM409.5 158V140.5H407.5V158H409.5ZM418.5 131.5H421V129.5H418.5V131.5ZM409.5 140.5C409.5 135.529 413.529 131.5 418.5 131.5V129.5C412.425 129.5 407.5 134.425 407.5 140.5H409.5ZM398.5 169C404.575 169 409.5 164.075 409.5 158H407.5C407.5 162.971 403.471 167 398.5 167V169ZM298.333 158C298.333 164.075 303.258 169 309.333 169V167C304.363 167 300.333 162.971 300.333 158H298.333ZM289.333 75C294.304 75 298.333 79.0294 298.333 84H300.333C300.333 77.9249 295.408 73 289.333 73V75Z" fill="black"/>
<path d="M182 18.9989L182 19.9989L182 18.9989ZM182 73.9997L182 72.9997L182 73.9997ZM190.5 74L180.5 68.2261L180.5 79.7731L190.5 74ZM406 17.9989L182 17.9989L182 19.9989L406 19.9989L406 17.9989ZM171 28.9989L171 63.9997L173 63.9997L173 28.9989L171 28.9989ZM171 63.9997C171 70.0747 175.925 74.9995 182 74.9997L182 72.9997C177.029 72.9995 173 68.9701 173 63.9997L171 63.9997ZM182 17.9989C175.925 17.9989 171 22.9238 171 28.9989L173 28.9989C173 24.0284 177.029 19.9989 182 19.9989L182 17.9989Z" fill="black"/>
<path d="M500 74L490 68.2265V79.7735L500 74ZM285 75H491V73H285V75Z" fill="black"/>
<path d="M667 74L657 68.2265V79.7735L667 74ZM452 75H658V73H452V75Z" fill="black"/>
<path d="M667 74L657 68.2265V79.7735L667 74ZM438 211H619.5V209H438V211ZM630.5 200V84H628.5V200H630.5ZM639.5 75H658V73H639.5V75ZM630.5 84C630.5 79.0294 634.529 75 639.5 75V73C633.425 73 628.5 77.9249 628.5 84H630.5ZM619.5 211C625.575 211 630.5 206.075 630.5 200H628.5C628.5 204.971 624.471 209 619.5 209V211Z" fill="black"/>
<path d="M667 74L657 68.2265V79.7735L667 74ZM576 131H619.5V129H576V131ZM630.5 120V84H628.5V120H630.5ZM639.5 75H658V73H639.5V75ZM630.5 84C630.5 79.0294 634.529 75 639.5 75V73C633.425 73 628.5 77.9249 628.5 84H630.5ZM619.5 131C625.575 131 630.5 126.075 630.5 120H628.5C628.5 124.971 624.471 129 619.5 129V131Z" fill="black"/>
<path d="M438.5 19L448.5 24.7735V13.2265L438.5 19ZM452 75H613.5V73H452V75ZM624.5 64V29H622.5V64H624.5ZM613.5 18H447.5V20H613.5V18ZM624.5 29C624.5 22.9249 619.575 18 613.5 18V20C618.471 20 622.5 24.0294 622.5 29H624.5ZM613.5 75C619.575 75 624.5 70.0751 624.5 64H622.5C622.5 68.9706 618.471 73 613.5 73V75Z" fill="black"/>
<path d="M49.1378 80V66.9091H54.3026C55.2912 66.9091 56.1349 67.0859 56.8338 67.4396C57.5369 67.7891 58.0717 68.2855 58.4382 68.929C58.8089 69.5682 58.9943 70.3203 58.9943 71.1854C58.9943 72.0547 58.8068 72.8026 58.4318 73.429C58.0568 74.0511 57.5135 74.5284 56.8018 74.8608C56.0945 75.1932 55.2379 75.3594 54.2322 75.3594H50.7741V73.1349H53.7848C54.3132 73.1349 54.7521 73.0625 55.1016 72.9176C55.451 72.7727 55.7109 72.5554 55.8814 72.2656C56.0561 71.9759 56.1435 71.6158 56.1435 71.1854C56.1435 70.7507 56.0561 70.3842 55.8814 70.0859C55.7109 69.7876 55.4489 69.5618 55.0952 69.4084C54.7457 69.2507 54.3047 69.1719 53.772 69.1719H51.9055V80H49.1378ZM56.2074 74.0426L59.4609 80H56.4055L53.2223 74.0426H56.2074ZM60.9503 80V66.9091H69.7713V69.1911H63.718V72.3104H69.3175V74.5923H63.718V77.718H69.7969V80H60.9503ZM71.4732 69.1911V66.9091H82.2246V69.1911H78.2168V80H75.481V69.1911H71.4732ZM92.0811 66.9091H94.8489V75.4105C94.8489 76.3651 94.6209 77.2003 94.165 77.9162C93.7132 78.6321 93.0804 79.1903 92.2665 79.5909C91.4526 79.9872 90.5044 80.1854 89.4221 80.1854C88.3354 80.1854 87.3851 79.9872 86.5712 79.5909C85.7573 79.1903 85.1245 78.6321 84.6728 77.9162C84.2211 77.2003 83.9952 76.3651 83.9952 75.4105V66.9091H86.763V75.174C86.763 75.6726 86.8716 76.1158 87.089 76.5036C87.3105 76.8913 87.6216 77.196 88.0222 77.4176C88.4228 77.6392 88.8894 77.75 89.4221 77.75C89.959 77.75 90.4256 77.6392 90.8219 77.4176C91.2225 77.196 91.5314 76.8913 91.7488 76.5036C91.9703 76.1158 92.0811 75.6726 92.0811 75.174V66.9091ZM97.1261 80V66.9091H102.291C103.279 66.9091 104.123 67.0859 104.822 67.4396C105.525 67.7891 106.06 68.2855 106.426 68.929C106.797 69.5682 106.983 70.3203 106.983 71.1854C106.983 72.0547 106.795 72.8026 106.42 73.429C106.045 74.0511 105.502 74.5284 104.79 74.8608C104.083 75.1932 103.226 75.3594 102.221 75.3594H98.7624V73.1349H101.773C102.301 73.1349 102.74 73.0625 103.09 72.9176C103.439 72.7727 103.699 72.5554 103.87 72.2656C104.044 71.9759 104.132 71.6158 104.132 71.1854C104.132 70.7507 104.044 70.3842 103.87 70.0859C103.699 69.7876 103.437 69.5618 103.083 69.4084C102.734 69.2507 102.293 69.1719 101.76 69.1719H99.8938V80H97.1261ZM104.196 74.0426L107.449 80H104.394L101.211 74.0426H104.196ZM119.888 66.9091V80H117.498L111.802 71.7607H111.706V80H108.939V66.9091H111.368L117.018 75.142H117.133V66.9091H119.888ZM124.943 66.9091V80H122.175V66.9091H124.943ZM138.169 66.9091V80H135.779L130.083 71.7607H129.988V80H127.22V66.9091H129.649L135.299 75.142H135.414V66.9091H138.169ZM149.137 71.1406C149.047 70.8295 148.921 70.5547 148.759 70.3161C148.597 70.0732 148.399 69.8686 148.165 69.7024C147.935 69.532 147.671 69.402 147.372 69.3125C147.078 69.223 146.752 69.1783 146.394 69.1783C145.725 69.1783 145.137 69.3445 144.63 69.6768C144.127 70.0092 143.735 70.4929 143.454 71.1278C143.173 71.7585 143.032 72.5298 143.032 73.4418C143.032 74.3537 143.171 75.1293 143.448 75.7685C143.725 76.4077 144.117 76.8956 144.624 77.2322C145.131 77.5646 145.73 77.7308 146.42 77.7308C147.046 77.7308 147.581 77.62 148.024 77.3984C148.472 77.1726 148.813 76.8551 149.047 76.446C149.286 76.0369 149.405 75.5533 149.405 74.995L149.968 75.0781H146.593V72.9943H152.07V74.6435C152.07 75.794 151.828 76.7827 151.342 77.6094C150.856 78.4318 150.187 79.0668 149.335 79.5142C148.482 79.9574 147.507 80.179 146.407 80.179C145.18 80.179 144.102 79.9084 143.173 79.3672C142.244 78.8217 141.519 78.0483 140.999 77.0469C140.484 76.0412 140.226 74.848 140.226 73.4673C140.226 72.4062 140.379 71.4602 140.686 70.6293C140.997 69.794 141.432 69.0866 141.99 68.5071C142.548 67.9276 143.198 67.4865 143.94 67.1839C144.681 66.8814 145.485 66.7301 146.35 66.7301C147.091 66.7301 147.781 66.8388 148.421 67.0561C149.06 67.2692 149.627 67.5717 150.121 67.9638C150.619 68.3558 151.026 68.8224 151.342 69.3636C151.657 69.9006 151.86 70.4929 151.949 71.1406H149.137Z" fill="black"/>
<rect x="33.5" y="58.5" width="132" height="32" rx="16" stroke="black"/>
<path d="M450.523 135.192C449.517 135.192 448.652 134.979 447.928 134.553C447.207 134.122 446.653 133.526 446.266 132.763C445.882 132 445.69 131.122 445.69 130.129C445.69 129.124 445.884 128.241 446.272 127.483C446.664 126.72 447.22 126.126 447.94 125.7C448.661 125.269 449.517 125.054 450.51 125.054C451.366 125.054 452.116 125.21 452.76 125.521C453.403 125.832 453.913 126.268 454.288 126.831C454.663 127.393 454.869 128.054 454.908 128.812H452.338C452.266 128.322 452.074 127.928 451.763 127.63C451.456 127.327 451.053 127.176 450.555 127.176C450.133 127.176 449.764 127.291 449.449 127.521C449.138 127.747 448.895 128.077 448.72 128.512C448.545 128.947 448.458 129.473 448.458 130.091C448.458 130.717 448.543 131.25 448.714 131.689C448.888 132.128 449.134 132.462 449.449 132.692C449.764 132.923 450.133 133.038 450.555 133.038C450.866 133.038 451.145 132.974 451.392 132.846C451.643 132.718 451.85 132.533 452.012 132.29C452.178 132.043 452.287 131.746 452.338 131.401H454.908C454.865 132.151 454.661 132.812 454.294 133.383C453.932 133.95 453.431 134.393 452.792 134.712C452.153 135.032 451.396 135.192 450.523 135.192ZM461.087 135.192C460.094 135.192 459.236 134.981 458.511 134.559C457.791 134.133 457.235 133.54 456.843 132.782C456.451 132.019 456.255 131.135 456.255 130.129C456.255 129.115 456.451 128.229 456.843 127.47C457.235 126.707 457.791 126.115 458.511 125.693C459.236 125.267 460.094 125.054 461.087 125.054C462.08 125.054 462.937 125.267 463.657 125.693C464.381 126.115 464.939 126.707 465.331 127.47C465.724 128.229 465.92 129.115 465.92 130.129C465.92 131.135 465.724 132.019 465.331 132.782C464.939 133.54 464.381 134.133 463.657 134.559C462.937 134.981 462.08 135.192 461.087 135.192ZM461.1 133.082C461.552 133.082 461.929 132.955 462.231 132.699C462.534 132.439 462.762 132.085 462.915 131.638C463.073 131.19 463.152 130.681 463.152 130.11C463.152 129.539 463.073 129.03 462.915 128.582C462.762 128.135 462.534 127.781 462.231 127.521C461.929 127.261 461.552 127.131 461.1 127.131C460.644 127.131 460.26 127.261 459.949 127.521C459.643 127.781 459.41 128.135 459.253 128.582C459.099 129.03 459.023 129.539 459.023 130.11C459.023 130.681 459.099 131.19 459.253 131.638C459.41 132.085 459.643 132.439 459.949 132.699C460.26 132.955 460.644 133.082 461.1 133.082ZM470.413 121.909V135H467.69V121.909H470.413ZM478.891 130.82V125.182H481.614V135H478.999V133.217H478.897C478.675 133.792 478.307 134.254 477.791 134.604C477.28 134.953 476.656 135.128 475.918 135.128C475.262 135.128 474.685 134.979 474.186 134.68C473.688 134.382 473.298 133.958 473.016 133.408C472.739 132.859 472.599 132.2 472.594 131.433V125.182H475.317V130.947C475.322 131.527 475.477 131.985 475.784 132.322C476.091 132.658 476.502 132.827 477.018 132.827C477.346 132.827 477.653 132.752 477.938 132.603C478.224 132.45 478.454 132.224 478.629 131.925C478.808 131.627 478.895 131.259 478.891 130.82ZM483.792 135V125.182H486.387V126.914H486.502C486.706 126.339 487.047 125.885 487.525 125.553C488.002 125.22 488.573 125.054 489.238 125.054C489.911 125.054 490.484 125.222 490.957 125.559C491.43 125.891 491.746 126.343 491.903 126.914H492.006C492.206 126.352 492.568 125.902 493.092 125.565C493.621 125.224 494.245 125.054 494.965 125.054C495.881 125.054 496.625 125.346 497.196 125.93C497.771 126.509 498.059 127.332 498.059 128.397V135H495.342V128.934C495.342 128.388 495.197 127.979 494.907 127.707C494.618 127.434 494.256 127.298 493.821 127.298C493.327 127.298 492.941 127.455 492.664 127.771C492.387 128.082 492.248 128.493 492.248 129.004V135H489.608V128.876C489.608 128.395 489.47 128.011 489.193 127.726C488.92 127.44 488.56 127.298 488.113 127.298C487.81 127.298 487.537 127.374 487.295 127.528C487.056 127.677 486.866 127.888 486.726 128.161C486.585 128.429 486.515 128.744 486.515 129.107V135H483.792ZM502.933 129.324V135H500.21V125.182H502.805V126.914H502.92C503.137 126.343 503.502 125.891 504.013 125.559C504.524 125.222 505.144 125.054 505.873 125.054C506.555 125.054 507.149 125.203 507.656 125.501C508.164 125.8 508.558 126.226 508.839 126.78C509.12 127.33 509.261 127.986 509.261 128.749V135H506.538V129.234C506.542 128.634 506.389 128.165 506.078 127.828C505.767 127.487 505.338 127.317 504.793 127.317C504.426 127.317 504.102 127.396 503.821 127.553C503.544 127.711 503.327 127.941 503.169 128.244C503.016 128.542 502.937 128.902 502.933 129.324ZM517.524 128.544V130.705H511.554V128.544H517.524ZM522.644 135.185C522.018 135.185 521.46 135.077 520.969 134.859C520.479 134.638 520.092 134.312 519.806 133.881C519.525 133.447 519.384 132.906 519.384 132.258C519.384 131.712 519.484 131.254 519.685 130.884C519.885 130.513 520.158 130.214 520.503 129.989C520.848 129.763 521.24 129.592 521.679 129.477C522.122 129.362 522.587 129.281 523.072 129.234C523.643 129.175 524.104 129.119 524.453 129.068C524.803 129.013 525.056 128.932 525.214 128.825C525.371 128.719 525.45 128.561 525.45 128.352V128.314C525.45 127.909 525.322 127.596 525.067 127.374C524.815 127.153 524.457 127.042 523.993 127.042C523.503 127.042 523.113 127.151 522.823 127.368C522.533 127.581 522.342 127.849 522.248 128.173L519.729 127.969C519.857 127.372 520.109 126.857 520.484 126.422C520.859 125.983 521.342 125.646 521.935 125.412C522.531 125.173 523.222 125.054 524.006 125.054C524.551 125.054 525.073 125.118 525.572 125.246C526.075 125.374 526.52 125.572 526.908 125.84C527.3 126.109 527.609 126.454 527.835 126.876C528.06 127.293 528.173 127.794 528.173 128.378V135H525.591V133.638H525.514C525.357 133.945 525.146 134.216 524.881 134.45C524.617 134.68 524.3 134.862 523.929 134.994C523.558 135.121 523.13 135.185 522.644 135.185ZM523.424 133.306C523.825 133.306 524.178 133.227 524.485 133.07C524.792 132.908 525.033 132.69 525.207 132.418C525.382 132.145 525.469 131.836 525.469 131.491V130.449C525.384 130.504 525.267 130.555 525.118 130.602C524.973 130.645 524.809 130.685 524.626 130.724C524.442 130.758 524.259 130.79 524.076 130.82C523.893 130.845 523.727 130.869 523.577 130.89C523.258 130.937 522.979 131.011 522.74 131.114C522.501 131.216 522.316 131.354 522.184 131.529C522.052 131.7 521.986 131.913 521.986 132.168C521.986 132.539 522.12 132.822 522.388 133.018C522.661 133.21 523.006 133.306 523.424 133.306ZM533.009 121.909V135H530.286V121.909H533.009ZM535.19 135V125.182H537.913V135H535.19ZM536.558 123.916C536.153 123.916 535.806 123.782 535.516 123.513C535.231 123.241 535.088 122.915 535.088 122.536C535.088 122.161 535.231 121.839 535.516 121.57C535.806 121.298 536.153 121.161 536.558 121.161C536.963 121.161 537.308 121.298 537.594 121.57C537.883 121.839 538.028 122.161 538.028 122.536C538.028 122.915 537.883 123.241 537.594 123.513C537.308 123.782 536.963 123.916 536.558 123.916ZM542.894 135.185C542.268 135.185 541.71 135.077 541.219 134.859C540.729 134.638 540.342 134.312 540.056 133.881C539.775 133.447 539.634 132.906 539.634 132.258C539.634 131.712 539.734 131.254 539.935 130.884C540.135 130.513 540.408 130.214 540.753 129.989C541.098 129.763 541.49 129.592 541.929 129.477C542.372 129.362 542.837 129.281 543.322 129.234C543.893 129.175 544.354 129.119 544.703 129.068C545.053 129.013 545.306 128.932 545.464 128.825C545.621 128.719 545.7 128.561 545.7 128.352V128.314C545.7 127.909 545.572 127.596 545.317 127.374C545.065 127.153 544.707 127.042 544.243 127.042C543.753 127.042 543.363 127.151 543.073 127.368C542.783 127.581 542.592 127.849 542.498 128.173L539.979 127.969C540.107 127.372 540.359 126.857 540.734 126.422C541.109 125.983 541.592 125.646 542.185 125.412C542.781 125.173 543.472 125.054 544.256 125.054C544.801 125.054 545.323 125.118 545.822 125.246C546.325 125.374 546.77 125.572 547.158 125.84C547.55 126.109 547.859 126.454 548.085 126.876C548.31 127.293 548.423 127.794 548.423 128.378V135H545.841V133.638H545.764C545.607 133.945 545.396 134.216 545.131 134.45C544.867 134.68 544.55 134.862 544.179 134.994C543.808 135.121 543.38 135.185 542.894 135.185ZM543.674 133.306C544.075 133.306 544.428 133.227 544.735 133.07C545.042 132.908 545.283 132.69 545.457 132.418C545.632 132.145 545.719 131.836 545.719 131.491V130.449C545.634 130.504 545.517 130.555 545.368 130.602C545.223 130.645 545.059 130.685 544.876 130.724C544.692 130.758 544.509 130.79 544.326 130.82C544.143 130.845 543.977 130.869 543.827 130.89C543.508 130.937 543.229 131.011 542.99 131.114C542.751 131.216 542.566 131.354 542.434 131.529C542.302 131.7 542.236 131.913 542.236 132.168C542.236 132.539 542.37 132.822 542.638 133.018C542.911 133.21 543.256 133.306 543.674 133.306ZM558.705 127.982L556.212 128.135C556.169 127.922 556.078 127.73 555.937 127.56C555.797 127.385 555.611 127.246 555.381 127.144C555.155 127.038 554.885 126.984 554.569 126.984C554.147 126.984 553.792 127.074 553.502 127.253C553.212 127.428 553.067 127.662 553.067 127.956C553.067 128.19 553.161 128.388 553.348 128.55C553.536 128.712 553.858 128.842 554.314 128.94L556.091 129.298C557.045 129.494 557.757 129.81 558.225 130.244C558.694 130.679 558.929 131.25 558.929 131.957C558.929 132.601 558.739 133.165 558.36 133.651C557.985 134.137 557.469 134.516 556.813 134.789C556.161 135.058 555.409 135.192 554.556 135.192C553.257 135.192 552.221 134.921 551.45 134.38C550.683 133.835 550.233 133.093 550.101 132.156L552.779 132.015C552.86 132.411 553.056 132.714 553.368 132.923C553.679 133.127 554.077 133.229 554.563 133.229C555.04 133.229 555.424 133.138 555.713 132.955C556.007 132.767 556.157 132.526 556.161 132.232C556.157 131.985 556.052 131.783 555.848 131.625C555.643 131.463 555.328 131.339 554.902 131.254L553.201 130.915C552.243 130.724 551.529 130.391 551.06 129.918C550.596 129.445 550.363 128.842 550.363 128.109C550.363 127.479 550.534 126.935 550.875 126.479C551.22 126.023 551.703 125.672 552.326 125.425C552.952 125.178 553.685 125.054 554.525 125.054C555.765 125.054 556.74 125.316 557.452 125.84C558.168 126.364 558.586 127.078 558.705 127.982Z" fill="black"/>
<rect x="430.5" y="113.5" width="145" height="32" rx="16" stroke="black"/>
<path d="M346.394 135H343.428L347.947 121.909H351.514L356.027 135H353.061L349.782 124.901H349.68L346.394 135ZM346.209 129.854H353.214V132.015H346.209V129.854ZM364.405 125.674C364.354 125.158 364.135 124.758 363.747 124.472C363.359 124.187 362.833 124.044 362.168 124.044C361.716 124.044 361.335 124.108 361.024 124.236C360.713 124.359 360.474 124.532 360.308 124.754C360.146 124.975 360.065 125.227 360.065 125.508C360.057 125.742 360.106 125.947 360.212 126.121C360.323 126.296 360.474 126.447 360.666 126.575C360.858 126.699 361.079 126.808 361.331 126.901C361.582 126.991 361.851 127.067 362.136 127.131L363.312 127.413C363.883 127.54 364.407 127.711 364.885 127.924C365.362 128.137 365.775 128.399 366.125 128.71C366.474 129.021 366.745 129.388 366.937 129.81C367.133 130.232 367.233 130.715 367.237 131.261C367.233 132.062 367.028 132.756 366.623 133.344C366.223 133.928 365.643 134.382 364.885 134.706C364.131 135.026 363.221 135.185 362.155 135.185C361.099 135.185 360.178 135.023 359.394 134.7C358.614 134.376 358.005 133.896 357.566 133.261C357.131 132.622 356.903 131.832 356.882 130.89H359.56C359.59 131.329 359.716 131.695 359.937 131.989C360.163 132.279 360.464 132.499 360.839 132.648C361.218 132.793 361.646 132.865 362.123 132.865C362.592 132.865 362.999 132.797 363.344 132.661C363.694 132.524 363.964 132.335 364.156 132.092C364.348 131.849 364.444 131.57 364.444 131.254C364.444 130.96 364.356 130.713 364.182 130.513C364.011 130.312 363.76 130.142 363.427 130.001C363.099 129.861 362.697 129.733 362.219 129.618L360.794 129.26C359.69 128.991 358.819 128.572 358.18 128.001C357.54 127.43 357.223 126.661 357.227 125.693C357.223 124.901 357.434 124.208 357.86 123.616C358.29 123.023 358.881 122.561 359.631 122.229C360.381 121.896 361.233 121.73 362.187 121.73C363.159 121.73 364.007 121.896 364.731 122.229C365.46 122.561 366.027 123.023 366.432 123.616C366.836 124.208 367.045 124.894 367.058 125.674H364.405Z" fill="black"/>
<rect x="328.5" y="113.5" width="53" height="32" rx="16" stroke="black"/>
<path d="M423.046 16.2102L422.976 16.9134C422.92 17.4759 422.814 18.0362 422.656 18.5945C422.503 19.157 422.341 19.6662 422.17 20.1222C422.004 20.5781 421.87 20.9361 421.768 21.196H420.004C420.067 20.9446 420.155 20.593 420.266 20.1413C420.376 19.6939 420.481 19.1911 420.579 18.6328C420.677 18.0746 420.739 17.5057 420.764 16.9261L420.796 16.2102H423.046Z" fill="black"/>
<rect x="406.5" y="2.5" width="31" height="32" rx="15.5" stroke="black"/>
<path d="M421.225 212.273L421.385 209.799L419.314 211.186L418.457 209.678L420.688 208.591L418.457 207.504L419.314 205.996L421.385 207.383L421.225 204.909H422.945L422.778 207.383L424.849 205.996L425.706 207.504L423.482 208.591L425.706 209.678L424.849 211.186L422.778 209.799L422.945 212.273H421.225Z" fill="black"/>
<rect x="406.5" y="192.5" width="31" height="32" rx="15.5" stroke="black"/>
<path d="M246.561 79.1918C245.551 79.1918 244.682 78.9872 243.953 78.5781C243.229 78.1648 242.67 77.581 242.278 76.8267C241.886 76.0682 241.69 75.1712 241.69 74.1357C241.69 73.1257 241.886 72.2393 242.278 71.4766C242.67 70.7138 243.222 70.1193 243.934 69.6932C244.65 69.267 245.489 69.054 246.452 69.054C247.1 69.054 247.703 69.1584 248.261 69.3672C248.824 69.5717 249.314 69.8807 249.732 70.294C250.153 70.7074 250.482 71.2273 250.716 71.8537C250.95 72.4759 251.067 73.2045 251.067 74.0398V74.7876H242.777V73.1001H248.504C248.504 72.7081 248.419 72.3608 248.249 72.0582C248.078 71.7557 247.842 71.5192 247.539 71.3487C247.241 71.174 246.893 71.0866 246.497 71.0866C246.084 71.0866 245.717 71.1825 245.398 71.3743C245.082 71.5618 244.835 71.8153 244.656 72.1349C244.477 72.4503 244.386 72.8018 244.381 73.1896V74.794C244.381 75.2798 244.471 75.6996 244.65 76.0533C244.833 76.407 245.091 76.6797 245.423 76.8714C245.756 77.0632 246.15 77.1591 246.606 77.1591C246.908 77.1591 247.185 77.1165 247.437 77.0312C247.688 76.946 247.903 76.8182 248.082 76.6477C248.261 76.4773 248.398 76.2685 248.491 76.0213L251.01 76.1875C250.882 76.7926 250.62 77.321 250.224 77.7727C249.832 78.2202 249.325 78.5696 248.702 78.821C248.085 79.0682 247.371 79.1918 246.561 79.1918ZM254.944 69.1818L256.747 72.6143L258.594 69.1818H261.387L258.543 74.0909L261.464 79H258.684L256.747 75.6058L254.842 79H252.029L254.944 74.0909L252.132 69.1818H254.944ZM263.005 82.6818V69.1818H265.689V70.831H265.811C265.93 70.5668 266.103 70.2983 266.328 70.0256C266.559 69.7486 266.857 69.5185 267.223 69.3352C267.594 69.1477 268.054 69.054 268.604 69.054C269.32 69.054 269.98 69.2415 270.586 69.6165C271.191 69.9872 271.674 70.5476 272.037 71.2976C272.399 72.0433 272.58 72.9787 272.58 74.1037C272.58 75.1989 272.403 76.1236 272.049 76.8778C271.7 77.6278 271.223 78.1967 270.618 78.5845C270.017 78.968 269.343 79.1598 268.598 79.1598C268.069 79.1598 267.62 79.0724 267.249 78.8977C266.882 78.723 266.582 78.5036 266.348 78.2393C266.113 77.9709 265.934 77.7003 265.811 77.4276H265.728V82.6818H263.005ZM265.67 74.0909C265.67 74.6747 265.751 75.1839 265.913 75.6186C266.075 76.0533 266.309 76.392 266.616 76.6349C266.923 76.8736 267.296 76.9929 267.735 76.9929C268.178 76.9929 268.553 76.8714 268.86 76.6286C269.167 76.3814 269.399 76.0405 269.556 75.6058C269.718 75.1669 269.799 74.6619 269.799 74.0909C269.799 73.5241 269.721 73.0256 269.563 72.5952C269.405 72.1648 269.173 71.8281 268.866 71.5852C268.559 71.3423 268.182 71.2209 267.735 71.2209C267.292 71.2209 266.917 71.3381 266.61 71.5724C266.307 71.8068 266.075 72.1392 265.913 72.5696C265.751 73 265.67 73.5071 265.67 74.0909ZM274.395 79V69.1818H277.035V70.8949H277.137C277.316 70.2855 277.617 69.8253 278.039 69.5142C278.461 69.1989 278.946 69.0412 279.496 69.0412C279.632 69.0412 279.779 69.0497 279.937 69.0668C280.095 69.0838 280.233 69.1072 280.353 69.1371V71.5533C280.225 71.5149 280.048 71.4808 279.822 71.451C279.596 71.4212 279.39 71.4062 279.202 71.4062C278.801 71.4062 278.444 71.4936 278.128 71.6683C277.817 71.8388 277.57 72.0774 277.387 72.3842C277.208 72.6911 277.118 73.0447 277.118 73.4453V79H274.395Z" fill="black"/>
<rect x="237.5" y="58.5" width="47" height="32" stroke="black"/>
</svg>
