<svg width="302" height="162" viewBox="0 0 302 162" fill="none" xmlns="http://www.w3.org/2000/svg">
<circle cx="4" cy="17" r="3.5" stroke="black"/>
<circle cx="298" cy="17" r="3.5" stroke="black"/>
<path d="M71 104L61 98.2265V109.774L71 104ZM8 18H22.1126V16H8V18ZM31.1126 27V94H33.1126V27H31.1126ZM42.1126 105H62V103H42.1126V105ZM31.1126 94C31.1126 100.075 36.0375 105 42.1126 105V103C37.1421 103 33.1126 98.9706 33.1126 94H31.1126ZM22.1126 18C27.0832 18 31.1126 22.0294 31.1126 27H33.1126C33.1126 20.9249 28.1878 16 22.1126 16V18Z" fill="black"/>
<path d="M71 60L61 54.2265V65.7735L71 60ZM8 18H22.1126V16H8V18ZM31.1126 27V50H33.1126V27H31.1126ZM42.1126 61H62V59H42.1126V61ZM31.1126 50C31.1126 56.0751 36.0375 61 42.1126 61V59C37.1421 59 33.1126 54.9706 33.1126 50H31.1126ZM22.1126 18C27.0832 18 31.1126 22.0294 31.1126 27H33.1126C33.1126 20.9249 28.1878 16 22.1126 16V18Z" fill="black"/>
<path d="M72 147L62 141.226V152.774L72 147ZM8 18H22.304V16H8V18ZM31.304 27V137H33.304V27H31.304ZM42.304 148H63V146H42.304V148ZM31.304 137C31.304 143.075 36.2289 148 42.304 148V146C37.3334 146 33.304 141.971 33.304 137H31.304ZM22.304 18C27.2746 18 31.304 22.0294 31.304 27H33.304C33.304 20.9249 28.3791 16 22.304 16V18Z" fill="black"/>
<path d="M84.2557 101.982L81.7628 102.135C81.7202 101.922 81.6286 101.73 81.4879 101.56C81.3473 101.385 81.1619 101.246 80.9318 101.144C80.706 101.038 80.4354 100.984 80.12 100.984C79.6982 100.984 79.3423 101.074 79.0526 101.253C78.7628 101.428 78.6179 101.662 78.6179 101.956C78.6179 102.19 78.7116 102.388 78.8991 102.55C79.0866 102.712 79.4084 102.842 79.8643 102.94L81.6413 103.298C82.5959 103.494 83.3075 103.81 83.7763 104.244C84.245 104.679 84.4794 105.25 84.4794 105.957C84.4794 106.601 84.2898 107.165 83.9105 107.651C83.5355 108.137 83.0199 108.516 82.3636 108.789C81.7116 109.058 80.9595 109.192 80.1072 109.192C78.8075 109.192 77.772 108.921 77.0007 108.38C76.2337 107.835 75.7841 107.093 75.652 106.156L78.3303 106.015C78.4112 106.411 78.6072 106.714 78.9183 106.923C79.2294 107.127 79.6278 107.229 80.1136 107.229C80.5909 107.229 80.9744 107.138 81.2642 106.955C81.5582 106.767 81.7074 106.526 81.7116 106.232C81.7074 105.985 81.603 105.783 81.3984 105.625C81.1939 105.463 80.8786 105.339 80.4524 105.254L78.7521 104.915C77.7933 104.724 77.0795 104.391 76.6108 103.918C76.1463 103.445 75.9141 102.842 75.9141 102.109C75.9141 101.479 76.0845 100.935 76.4254 100.479C76.7706 100.023 77.2543 99.6719 77.8764 99.4247C78.5028 99.1776 79.2358 99.054 80.0753 99.054C81.3153 99.054 82.2912 99.3161 83.0028 99.8402C83.7188 100.364 84.1364 101.078 84.2557 101.982ZM90.6685 109.192C89.6586 109.192 88.7892 108.987 88.0605 108.578C87.3361 108.165 86.7779 107.581 86.3858 106.827C85.9938 106.068 85.7978 105.171 85.7978 104.136C85.7978 103.126 85.9938 102.239 86.3858 101.477C86.7779 100.714 87.3297 100.119 88.0414 99.6932C88.7573 99.267 89.5968 99.054 90.5598 99.054C91.2076 99.054 91.8105 99.1584 92.3688 99.3672C92.9313 99.5717 93.4213 99.8807 93.839 100.294C94.2608 100.707 94.589 101.227 94.8233 101.854C95.0577 102.476 95.1749 103.205 95.1749 104.04V104.788H86.8844V103.1H92.6117C92.6117 102.708 92.5265 102.361 92.356 102.058C92.1855 101.756 91.949 101.519 91.6465 101.349C91.3482 101.174 91.0009 101.087 90.6046 101.087C90.1912 101.087 89.8248 101.183 89.5051 101.374C89.1898 101.562 88.9426 101.815 88.7637 102.135C88.5847 102.45 88.4931 102.802 88.4888 103.19V104.794C88.4888 105.28 88.5783 105.7 88.7573 106.053C88.9405 106.407 89.1983 106.68 89.5307 106.871C89.8631 107.063 90.2573 107.159 90.7132 107.159C91.0158 107.159 91.2928 107.116 91.5442 107.031C91.7956 106.946 92.0108 106.818 92.1898 106.648C92.3688 106.477 92.5051 106.268 92.5989 106.021L95.1174 106.188C94.9895 106.793 94.7275 107.321 94.3311 107.773C93.9391 108.22 93.432 108.57 92.8098 108.821C92.1919 109.068 91.4782 109.192 90.6685 109.192ZM99.6749 95.9091V109H96.9519V95.9091H99.6749ZM106.331 109.192C105.321 109.192 104.451 108.987 103.723 108.578C102.998 108.165 102.44 107.581 102.048 106.827C101.656 106.068 101.46 105.171 101.46 104.136C101.46 103.126 101.656 102.239 102.048 101.477C102.44 100.714 102.992 100.119 103.703 99.6932C104.419 99.267 105.259 99.054 106.222 99.054C106.87 99.054 107.473 99.1584 108.031 99.3672C108.593 99.5717 109.083 99.8807 109.501 100.294C109.923 100.707 110.251 101.227 110.485 101.854C110.72 102.476 110.837 103.205 110.837 104.04V104.788H102.547V103.1H108.274C108.274 102.708 108.189 102.361 108.018 102.058C107.848 101.756 107.611 101.519 107.309 101.349C107.01 101.174 106.663 101.087 106.267 101.087C105.853 101.087 105.487 101.183 105.167 101.374C104.852 101.562 104.605 101.815 104.426 102.135C104.247 102.45 104.155 102.802 104.151 103.19V104.794C104.151 105.28 104.24 105.7 104.419 106.053C104.603 106.407 104.86 106.68 105.193 106.871C105.525 107.063 105.919 107.159 106.375 107.159C106.678 107.159 106.955 107.116 107.206 107.031C107.458 106.946 107.673 106.818 107.852 106.648C108.031 106.477 108.167 106.268 108.261 106.021L110.779 106.188C110.652 106.793 110.39 107.321 109.993 107.773C109.601 108.22 109.094 108.57 108.472 108.821C107.854 109.068 107.14 109.192 106.331 109.192ZM117.05 109.192C116.044 109.192 115.179 108.979 114.455 108.553C113.735 108.122 113.181 107.526 112.793 106.763C112.409 106 112.218 105.122 112.218 104.129C112.218 103.124 112.412 102.241 112.799 101.483C113.191 100.72 113.748 100.126 114.468 99.6996C115.188 99.2692 116.044 99.054 117.037 99.054C117.894 99.054 118.644 99.2095 119.287 99.5206C119.931 99.8317 120.44 100.268 120.815 100.831C121.19 101.393 121.397 102.054 121.435 102.812H118.865C118.793 102.322 118.601 101.928 118.29 101.63C117.983 101.327 117.581 101.176 117.082 101.176C116.66 101.176 116.292 101.291 115.976 101.521C115.665 101.747 115.422 102.077 115.248 102.512C115.073 102.947 114.985 103.473 114.985 104.091C114.985 104.717 115.071 105.25 115.241 105.689C115.416 106.128 115.661 106.462 115.976 106.692C116.292 106.923 116.66 107.038 117.082 107.038C117.393 107.038 117.672 106.974 117.919 106.846C118.171 106.718 118.377 106.533 118.539 106.29C118.706 106.043 118.814 105.746 118.865 105.401H121.435C121.392 106.151 121.188 106.812 120.821 107.383C120.459 107.95 119.958 108.393 119.319 108.712C118.68 109.032 117.924 109.192 117.05 109.192ZM128.401 99.1818V101.227H122.488V99.1818H128.401ZM123.83 96.8295H126.553V105.983C126.553 106.234 126.592 106.43 126.669 106.571C126.745 106.707 126.852 106.803 126.988 106.859C127.129 106.914 127.291 106.942 127.474 106.942C127.602 106.942 127.73 106.931 127.857 106.91C127.985 106.884 128.083 106.865 128.151 106.852L128.58 108.879C128.443 108.921 128.252 108.97 128.004 109.026C127.757 109.085 127.457 109.121 127.103 109.134C126.447 109.16 125.872 109.072 125.377 108.872C124.887 108.672 124.506 108.361 124.233 107.939C123.96 107.517 123.826 106.984 123.83 106.341V96.8295ZM135.993 102.544V104.705H130.023V102.544H135.993ZM146.482 101.982L143.989 102.135C143.947 101.922 143.855 101.73 143.714 101.56C143.574 101.385 143.388 101.246 143.158 101.144C142.933 101.038 142.662 100.984 142.347 100.984C141.925 100.984 141.569 101.074 141.279 101.253C140.989 101.428 140.844 101.662 140.844 101.956C140.844 102.19 140.938 102.388 141.126 102.55C141.313 102.712 141.635 102.842 142.091 102.94L143.868 103.298C144.822 103.494 145.534 103.81 146.003 104.244C146.472 104.679 146.706 105.25 146.706 105.957C146.706 106.601 146.516 107.165 146.137 107.651C145.762 108.137 145.246 108.516 144.59 108.789C143.938 109.058 143.186 109.192 142.334 109.192C141.034 109.192 139.999 108.921 139.227 108.38C138.46 107.835 138.011 107.093 137.879 106.156L140.557 106.015C140.638 106.411 140.834 106.714 141.145 106.923C141.456 107.127 141.854 107.229 142.34 107.229C142.817 107.229 143.201 107.138 143.491 106.955C143.785 106.767 143.934 106.526 143.938 106.232C143.934 105.985 143.83 105.783 143.625 105.625C143.42 105.463 143.105 105.339 142.679 105.254L140.979 104.915C140.02 104.724 139.306 104.391 138.837 103.918C138.373 103.445 138.141 102.842 138.141 102.109C138.141 101.479 138.311 100.935 138.652 100.479C138.997 100.023 139.481 99.6719 140.103 99.4247C140.729 99.1776 141.462 99.054 142.302 99.054C143.542 99.054 144.518 99.3161 145.229 99.8402C145.945 100.364 146.363 101.078 146.482 101.982ZM153.643 99.1818V101.227H147.73V99.1818H153.643ZM149.073 96.8295H151.796V105.983C151.796 106.234 151.834 106.43 151.911 106.571C151.987 106.707 152.094 106.803 152.23 106.859C152.371 106.914 152.533 106.942 152.716 106.942C152.844 106.942 152.972 106.931 153.1 106.91C153.227 106.884 153.325 106.865 153.394 106.852L153.822 108.879C153.686 108.921 153.494 108.97 153.247 109.026C152.999 109.085 152.699 109.121 152.345 109.134C151.689 109.16 151.114 109.072 150.619 108.872C150.129 108.672 149.748 108.361 149.475 107.939C149.203 107.517 149.068 106.984 149.073 106.341V96.8295ZM155.417 109V99.1818H158.012V100.914H158.127C158.331 100.339 158.672 99.8849 159.15 99.5526C159.627 99.2202 160.198 99.054 160.863 99.054C161.536 99.054 162.109 99.2223 162.582 99.5589C163.055 99.8913 163.371 100.343 163.528 100.914H163.631C163.831 100.352 164.193 99.902 164.717 99.5653C165.246 99.2244 165.87 99.054 166.59 99.054C167.506 99.054 168.25 99.3459 168.821 99.9297C169.396 100.509 169.684 101.332 169.684 102.397V109H166.967V102.934C166.967 102.388 166.822 101.979 166.532 101.707C166.243 101.434 165.881 101.298 165.446 101.298C164.952 101.298 164.566 101.455 164.289 101.771C164.012 102.082 163.873 102.493 163.873 103.004V109H161.233V102.876C161.233 102.395 161.095 102.011 160.818 101.726C160.545 101.44 160.185 101.298 159.738 101.298C159.435 101.298 159.162 101.374 158.92 101.528C158.681 101.677 158.491 101.888 158.351 102.161C158.21 102.429 158.14 102.744 158.14 103.107V109H155.417ZM177.057 99.1818V101.227H171.144V99.1818H177.057ZM172.487 96.8295H175.21V105.983C175.21 106.234 175.248 106.43 175.325 106.571C175.401 106.707 175.508 106.803 175.644 106.859C175.785 106.914 175.947 106.942 176.13 106.942C176.258 106.942 176.386 106.931 176.514 106.91C176.642 106.884 176.74 106.865 176.808 106.852L177.236 108.879C177.1 108.921 176.908 108.97 176.661 109.026C176.414 109.085 176.113 109.121 175.759 109.134C175.103 109.16 174.528 109.072 174.034 108.872C173.544 108.672 173.162 108.361 172.889 107.939C172.617 107.517 172.482 106.984 172.487 106.341V96.8295Z" fill="black"/>
<rect x="71.5" y="86.5" width="109" height="32" stroke="black"/>
<path d="M83.3828 147.82V142.182H86.1058V152H83.4915V150.217H83.3892C83.1676 150.792 82.799 151.254 82.2834 151.604C81.772 151.953 81.1477 152.128 80.4105 152.128C79.7543 152.128 79.1768 151.979 78.6783 151.68C78.1797 151.382 77.7898 150.958 77.5085 150.408C77.2315 149.859 77.0909 149.2 77.0866 148.433V142.182H79.8097V147.947C79.8139 148.527 79.9695 148.985 80.2763 149.322C80.5831 149.658 80.9943 149.827 81.5099 149.827C81.8381 149.827 82.1449 149.752 82.4304 149.603C82.7159 149.45 82.946 149.224 83.1207 148.925C83.2997 148.627 83.3871 148.259 83.3828 147.82ZM88.2839 155.682V142.182H90.9686V143.831H91.09C91.2093 143.567 91.3819 143.298 91.6078 143.026C91.8379 142.749 92.1362 142.518 92.5027 142.335C92.8734 142.148 93.3336 142.054 93.8833 142.054C94.5993 142.054 95.2598 142.241 95.8649 142.616C96.47 142.987 96.9537 143.548 97.3159 144.298C97.6781 145.043 97.8592 145.979 97.8592 147.104C97.8592 148.199 97.6824 149.124 97.3287 149.878C96.9792 150.628 96.502 151.197 95.8968 151.585C95.296 151.968 94.6227 152.16 93.877 152.16C93.3485 152.16 92.899 152.072 92.5282 151.898C92.1618 151.723 91.8613 151.504 91.627 151.239C91.3926 150.971 91.2136 150.7 91.09 150.428H91.0069V155.682H88.2839ZM90.9494 147.091C90.9494 147.675 91.0304 148.184 91.1923 148.619C91.3542 149.053 91.5886 149.392 91.8954 149.635C92.2022 149.874 92.5751 149.993 93.014 149.993C93.4572 149.993 93.8322 149.871 94.139 149.629C94.4458 149.381 94.6781 149.04 94.8358 148.606C94.9977 148.167 95.0787 147.662 95.0787 147.091C95.0787 146.524 94.9998 146.026 94.8422 145.595C94.6845 145.165 94.4522 144.828 94.1454 144.585C93.8386 144.342 93.4615 144.221 93.014 144.221C92.5708 144.221 92.1958 144.338 91.889 144.572C91.5865 144.807 91.3542 145.139 91.1923 145.57C91.0304 146 90.9494 146.507 90.9494 147.091ZM103.292 152.16C102.547 152.16 101.871 151.968 101.266 151.585C100.665 151.197 100.188 150.628 99.8343 149.878C99.4849 149.124 99.3102 148.199 99.3102 147.104C99.3102 145.979 99.4913 145.043 99.8535 144.298C100.216 143.548 100.697 142.987 101.298 142.616C101.903 142.241 102.566 142.054 103.286 142.054C103.836 142.054 104.294 142.148 104.66 142.335C105.031 142.518 105.329 142.749 105.555 143.026C105.785 143.298 105.96 143.567 106.079 143.831H106.162V138.909H108.879V152H106.194V150.428H106.079C105.952 150.7 105.77 150.971 105.536 151.239C105.306 151.504 105.006 151.723 104.635 151.898C104.268 152.072 103.821 152.16 103.292 152.16ZM104.155 149.993C104.594 149.993 104.965 149.874 105.268 149.635C105.574 149.392 105.809 149.053 105.971 148.619C106.137 148.184 106.22 147.675 106.22 147.091C106.22 146.507 106.139 146 105.977 145.57C105.815 145.139 105.581 144.807 105.274 144.572C104.967 144.338 104.594 144.221 104.155 144.221C103.708 144.221 103.331 144.342 103.024 144.585C102.717 144.828 102.485 145.165 102.327 145.595C102.17 146.026 102.091 146.524 102.091 147.091C102.091 147.662 102.17 148.167 102.327 148.606C102.489 149.04 102.721 149.381 103.024 149.629C103.331 149.871 103.708 149.993 104.155 149.993ZM113.918 152.185C113.291 152.185 112.733 152.077 112.243 151.859C111.753 151.638 111.365 151.312 111.08 150.881C110.798 150.447 110.658 149.906 110.658 149.258C110.658 148.712 110.758 148.254 110.958 147.884C111.158 147.513 111.431 147.214 111.776 146.989C112.121 146.763 112.513 146.592 112.952 146.477C113.396 146.362 113.86 146.281 114.346 146.234C114.917 146.175 115.377 146.119 115.727 146.068C116.076 146.013 116.33 145.932 116.487 145.825C116.645 145.719 116.724 145.561 116.724 145.352V145.314C116.724 144.909 116.596 144.596 116.34 144.374C116.089 144.153 115.731 144.042 115.266 144.042C114.776 144.042 114.386 144.151 114.097 144.368C113.807 144.581 113.615 144.849 113.521 145.173L111.003 144.969C111.131 144.372 111.382 143.857 111.757 143.422C112.132 142.983 112.616 142.646 113.208 142.412C113.805 142.173 114.495 142.054 115.279 142.054C115.825 142.054 116.347 142.118 116.845 142.246C117.348 142.374 117.793 142.572 118.181 142.84C118.573 143.109 118.882 143.454 119.108 143.876C119.334 144.293 119.447 144.794 119.447 145.378V152H116.864V150.638H116.788C116.63 150.945 116.419 151.216 116.155 151.45C115.891 151.68 115.573 151.862 115.202 151.994C114.832 152.121 114.403 152.185 113.918 152.185ZM114.697 150.306C115.098 150.306 115.452 150.227 115.759 150.07C116.065 149.908 116.306 149.69 116.481 149.418C116.656 149.145 116.743 148.836 116.743 148.491V147.449C116.658 147.504 116.54 147.555 116.391 147.602C116.246 147.645 116.082 147.685 115.899 147.724C115.716 147.758 115.533 147.79 115.349 147.82C115.166 147.845 115 147.869 114.851 147.89C114.531 147.937 114.252 148.011 114.013 148.114C113.775 148.216 113.589 148.354 113.457 148.529C113.325 148.7 113.259 148.913 113.259 149.168C113.259 149.539 113.393 149.822 113.662 150.018C113.935 150.21 114.28 150.306 114.697 150.306ZM126.782 142.182V144.227H120.869V142.182H126.782ZM122.211 139.83H124.934V148.983C124.934 149.234 124.973 149.43 125.049 149.571C125.126 149.707 125.233 149.803 125.369 149.859C125.51 149.914 125.672 149.942 125.855 149.942C125.983 149.942 126.11 149.931 126.238 149.91C126.366 149.884 126.464 149.865 126.532 149.852L126.961 151.879C126.824 151.921 126.632 151.97 126.385 152.026C126.138 152.085 125.838 152.121 125.484 152.134C124.828 152.16 124.252 152.072 123.758 151.872C123.268 151.672 122.887 151.361 122.614 150.939C122.341 150.517 122.207 149.984 122.211 149.341V139.83ZM132.924 152.192C131.914 152.192 131.045 151.987 130.316 151.578C129.592 151.165 129.034 150.581 128.642 149.827C128.25 149.068 128.054 148.171 128.054 147.136C128.054 146.126 128.25 145.239 128.642 144.477C129.034 143.714 129.586 143.119 130.297 142.693C131.013 142.267 131.853 142.054 132.816 142.054C133.463 142.054 134.066 142.158 134.625 142.367C135.187 142.572 135.677 142.881 136.095 143.294C136.517 143.707 136.845 144.227 137.079 144.854C137.314 145.476 137.431 146.205 137.431 147.04V147.788H129.14V146.1H134.868C134.868 145.708 134.782 145.361 134.612 145.058C134.441 144.756 134.205 144.519 133.902 144.349C133.604 144.174 133.257 144.087 132.86 144.087C132.447 144.087 132.081 144.183 131.761 144.374C131.446 144.562 131.199 144.815 131.02 145.135C130.841 145.45 130.749 145.802 130.745 146.19V147.794C130.745 148.28 130.834 148.7 131.013 149.053C131.196 149.407 131.454 149.68 131.787 149.871C132.119 150.063 132.513 150.159 132.969 150.159C133.272 150.159 133.549 150.116 133.8 150.031C134.051 149.946 134.267 149.818 134.446 149.648C134.625 149.477 134.761 149.268 134.855 149.021L137.373 149.188C137.245 149.793 136.983 150.321 136.587 150.773C136.195 151.22 135.688 151.57 135.066 151.821C134.448 152.068 133.734 152.192 132.924 152.192ZM145.325 145.544V147.705H139.355V145.544H145.325ZM155.814 144.982L153.321 145.135C153.279 144.922 153.187 144.73 153.047 144.56C152.906 144.385 152.721 144.246 152.49 144.144C152.265 144.038 151.994 143.984 151.679 143.984C151.257 143.984 150.901 144.074 150.611 144.253C150.321 144.428 150.176 144.662 150.176 144.956C150.176 145.19 150.27 145.388 150.458 145.55C150.645 145.712 150.967 145.842 151.423 145.94L153.2 146.298C154.154 146.494 154.866 146.81 155.335 147.244C155.804 147.679 156.038 148.25 156.038 148.957C156.038 149.601 155.848 150.165 155.469 150.651C155.094 151.137 154.578 151.516 153.922 151.789C153.27 152.058 152.518 152.192 151.666 152.192C150.366 152.192 149.331 151.921 148.559 151.38C147.792 150.835 147.343 150.093 147.211 149.156L149.889 149.015C149.97 149.411 150.166 149.714 150.477 149.923C150.788 150.127 151.186 150.229 151.672 150.229C152.15 150.229 152.533 150.138 152.823 149.955C153.117 149.767 153.266 149.526 153.27 149.232C153.266 148.985 153.162 148.783 152.957 148.625C152.752 148.463 152.437 148.339 152.011 148.254L150.311 147.915C149.352 147.724 148.638 147.391 148.169 146.918C147.705 146.445 147.473 145.842 147.473 145.109C147.473 144.479 147.643 143.935 147.984 143.479C148.329 143.023 148.813 142.672 149.435 142.425C150.061 142.178 150.794 142.054 151.634 142.054C152.874 142.054 153.85 142.316 154.561 142.84C155.277 143.364 155.695 144.078 155.814 144.982ZM162.975 142.182V144.227H157.062V142.182H162.975ZM158.405 139.83H161.128V148.983C161.128 149.234 161.166 149.43 161.243 149.571C161.319 149.707 161.426 149.803 161.562 149.859C161.703 149.914 161.865 149.942 162.048 149.942C162.176 149.942 162.304 149.931 162.432 149.91C162.559 149.884 162.657 149.865 162.726 149.852L163.154 151.879C163.018 151.921 162.826 151.97 162.579 152.026C162.331 152.085 162.031 152.121 161.677 152.134C161.021 152.16 160.446 152.072 159.952 151.872C159.461 151.672 159.08 151.361 158.807 150.939C158.535 150.517 158.4 149.984 158.405 149.341V139.83ZM164.749 152V142.182H167.344V143.914H167.459C167.664 143.339 168.004 142.885 168.482 142.553C168.959 142.22 169.53 142.054 170.195 142.054C170.868 142.054 171.441 142.222 171.914 142.559C172.387 142.891 172.703 143.343 172.86 143.914H172.963C173.163 143.352 173.525 142.902 174.049 142.565C174.578 142.224 175.202 142.054 175.922 142.054C176.838 142.054 177.582 142.346 178.153 142.93C178.728 143.509 179.016 144.332 179.016 145.397V152H176.299V145.934C176.299 145.388 176.154 144.979 175.865 144.707C175.575 144.434 175.213 144.298 174.778 144.298C174.284 144.298 173.898 144.455 173.621 144.771C173.344 145.082 173.205 145.493 173.205 146.004V152H170.566V145.876C170.566 145.395 170.427 145.011 170.15 144.726C169.877 144.44 169.517 144.298 169.07 144.298C168.767 144.298 168.494 144.374 168.252 144.528C168.013 144.677 167.823 144.888 167.683 145.161C167.542 145.429 167.472 145.744 167.472 146.107V152H164.749ZM186.389 142.182V144.227H180.476V142.182H186.389ZM181.819 139.83H184.542V148.983C184.542 149.234 184.58 149.43 184.657 149.571C184.733 149.707 184.84 149.803 184.976 149.859C185.117 149.914 185.279 149.942 185.462 149.942C185.59 149.942 185.718 149.931 185.846 149.91C185.974 149.884 186.072 149.865 186.14 149.852L186.568 151.879C186.432 151.921 186.24 151.97 185.993 152.026C185.746 152.085 185.445 152.121 185.091 152.134C184.435 152.16 183.86 152.072 183.366 151.872C182.876 151.672 182.494 151.361 182.221 150.939C181.949 150.517 181.814 149.984 181.819 149.341V139.83Z" fill="black"/>
<rect x="73.5" y="129.5" width="119" height="32" stroke="black"/>
<path d="M83.7045 23.1598C82.9588 23.1598 82.2834 22.968 81.6783 22.5845C81.0774 22.1967 80.6001 21.6278 80.2464 20.8778C79.897 20.1236 79.7223 19.1989 79.7223 18.1037C79.7223 16.9787 79.9034 16.0433 80.2656 15.2976C80.6278 14.5476 81.1094 13.9872 81.7102 13.6165C82.3153 13.2415 82.978 13.054 83.6982 13.054C84.2479 13.054 84.706 13.1477 85.0724 13.3352C85.4432 13.5185 85.7415 13.7486 85.9673 14.0256C86.1974 14.2983 86.3722 14.5668 86.4915 14.831H86.5746V9.90909H89.2912V23H86.6065V21.4276H86.4915C86.3636 21.7003 86.1825 21.9709 85.9482 22.2393C85.718 22.5036 85.4176 22.723 85.0469 22.8977C84.6804 23.0724 84.233 23.1598 83.7045 23.1598ZM84.5675 20.9929C85.0064 20.9929 85.3771 20.8736 85.6797 20.6349C85.9865 20.392 86.2209 20.0533 86.3828 19.6186C86.549 19.1839 86.6321 18.6747 86.6321 18.0909C86.6321 17.5071 86.5511 17 86.3892 16.5696C86.2273 16.1392 85.9929 15.8068 85.6861 15.5724C85.3793 15.3381 85.0064 15.2209 84.5675 15.2209C84.12 15.2209 83.7429 15.3423 83.4361 15.5852C83.1293 15.8281 82.897 16.1648 82.7393 16.5952C82.5817 17.0256 82.5028 17.5241 82.5028 18.0909C82.5028 18.6619 82.5817 19.1669 82.7393 19.6058C82.9013 20.0405 83.1335 20.3814 83.4361 20.6286C83.7429 20.8714 84.12 20.9929 84.5675 20.9929ZM96.0044 23.1918C94.9945 23.1918 94.1252 22.9872 93.3965 22.5781C92.6721 22.1648 92.1138 21.581 91.7218 20.8267C91.3297 20.0682 91.1337 19.1712 91.1337 18.1357C91.1337 17.1257 91.3297 16.2393 91.7218 15.4766C92.1138 14.7138 92.6657 14.1193 93.3773 13.6932C94.0932 13.267 94.9327 13.054 95.8958 13.054C96.5435 13.054 97.1465 13.1584 97.7047 13.3672C98.2672 13.5717 98.7573 13.8807 99.1749 14.294C99.5968 14.7074 99.9249 15.2273 100.159 15.8537C100.394 16.4759 100.511 17.2045 100.511 18.0398V18.7876H92.2203V17.1001H97.9476C97.9476 16.7081 97.8624 16.3608 97.6919 16.0582C97.5215 15.7557 97.285 15.5192 96.9824 15.3487C96.6841 15.174 96.3368 15.0866 95.9405 15.0866C95.5272 15.0866 95.1607 15.1825 94.8411 15.3743C94.5257 15.5618 94.2786 15.8153 94.0996 16.1349C93.9206 16.4503 93.829 16.8018 93.8248 17.1896V18.794C93.8248 19.2798 93.9142 19.6996 94.0932 20.0533C94.2765 20.407 94.5343 20.6797 94.8667 20.8714C95.199 21.0632 95.5932 21.1591 96.0492 21.1591C96.3517 21.1591 96.6287 21.1165 96.8801 21.0312C97.1316 20.946 97.3468 20.8182 97.5257 20.6477C97.7047 20.4773 97.8411 20.2685 97.9348 20.0213L100.453 20.1875C100.325 20.7926 100.063 21.321 99.6671 21.7727C99.275 22.2202 98.7679 22.5696 98.1458 22.821C97.5279 23.0682 96.8141 23.1918 96.0044 23.1918ZM105.011 9.90909V23H102.288V9.90909H105.011ZM111.667 23.1918C110.657 23.1918 109.787 22.9872 109.059 22.5781C108.334 22.1648 107.776 21.581 107.384 20.8267C106.992 20.0682 106.796 19.1712 106.796 18.1357C106.796 17.1257 106.992 16.2393 107.384 15.4766C107.776 14.7138 108.328 14.1193 109.039 13.6932C109.755 13.267 110.595 13.054 111.558 13.054C112.206 13.054 112.809 13.1584 113.367 13.3672C113.929 13.5717 114.419 13.8807 114.837 14.294C115.259 14.7074 115.587 15.2273 115.821 15.8537C116.056 16.4759 116.173 17.2045 116.173 18.0398V18.7876H107.882V17.1001H113.61C113.61 16.7081 113.525 16.3608 113.354 16.0582C113.184 15.7557 112.947 15.5192 112.645 15.3487C112.346 15.174 111.999 15.0866 111.603 15.0866C111.189 15.0866 110.823 15.1825 110.503 15.3743C110.188 15.5618 109.941 15.8153 109.762 16.1349C109.583 16.4503 109.491 16.8018 109.487 17.1896V18.794C109.487 19.2798 109.576 19.6996 109.755 20.0533C109.939 20.407 110.196 20.6797 110.529 20.8714C110.861 21.0632 111.255 21.1591 111.711 21.1591C112.014 21.1591 112.291 21.1165 112.542 21.0312C112.794 20.946 113.009 20.8182 113.188 20.6477C113.367 20.4773 113.503 20.2685 113.597 20.0213L116.115 20.1875C115.988 20.7926 115.725 21.321 115.329 21.7727C114.937 22.2202 114.43 22.5696 113.808 22.821C113.19 23.0682 112.476 23.1918 111.667 23.1918ZM123.172 13.1818V15.2273H117.26V13.1818H123.172ZM118.602 10.8295H121.325V19.983C121.325 20.2344 121.363 20.4304 121.44 20.571C121.517 20.7074 121.623 20.8033 121.76 20.8587C121.9 20.9141 122.062 20.9418 122.245 20.9418C122.373 20.9418 122.501 20.9311 122.629 20.9098C122.757 20.8842 122.855 20.8651 122.923 20.8523L123.351 22.8786C123.215 22.9212 123.023 22.9702 122.776 23.0256C122.529 23.0852 122.228 23.1214 121.875 23.1342C121.218 23.1598 120.643 23.0724 120.149 22.8722C119.659 22.6719 119.277 22.3608 119.005 21.9389C118.732 21.517 118.598 20.9844 118.602 20.3409V10.8295ZM129.315 23.1918C128.305 23.1918 127.436 22.9872 126.707 22.5781C125.983 22.1648 125.424 21.581 125.032 20.8267C124.64 20.0682 124.444 19.1712 124.444 18.1357C124.444 17.1257 124.64 16.2393 125.032 15.4766C125.424 14.7138 125.976 14.1193 126.688 13.6932C127.404 13.267 128.243 13.054 129.206 13.054C129.854 13.054 130.457 13.1584 131.015 13.3672C131.578 13.5717 132.068 13.8807 132.485 14.294C132.907 14.7074 133.235 15.2273 133.47 15.8537C133.704 16.4759 133.821 17.2045 133.821 18.0398V18.7876H125.531V17.1001H131.258C131.258 16.7081 131.173 16.3608 131.002 16.0582C130.832 15.7557 130.596 15.5192 130.293 15.3487C129.995 15.174 129.647 15.0866 129.251 15.0866C128.838 15.0866 128.471 15.1825 128.152 15.3743C127.836 15.5618 127.589 15.8153 127.41 16.1349C127.231 16.4503 127.14 16.8018 127.135 17.1896V18.794C127.135 19.2798 127.225 19.6996 127.404 20.0533C127.587 20.407 127.845 20.6797 128.177 20.8714C128.51 21.0632 128.904 21.1591 129.36 21.1591C129.662 21.1591 129.939 21.1165 130.191 21.0312C130.442 20.946 130.657 20.8182 130.836 20.6477C131.015 20.4773 131.152 20.2685 131.245 20.0213L133.764 20.1875C133.636 20.7926 133.374 21.321 132.978 21.7727C132.586 22.2202 132.078 22.5696 131.456 22.821C130.838 23.0682 130.125 23.1918 129.315 23.1918ZM141.716 16.544V18.7045H135.745V16.544H141.716ZM152.205 15.9815L149.712 16.1349C149.669 15.9219 149.578 15.7301 149.437 15.5597C149.297 15.3849 149.111 15.2464 148.881 15.1442C148.655 15.0376 148.385 14.9844 148.069 14.9844C147.647 14.9844 147.292 15.0739 147.002 15.2528C146.712 15.4276 146.567 15.6619 146.567 15.956C146.567 16.1903 146.661 16.3885 146.848 16.5504C147.036 16.7124 147.358 16.8423 147.814 16.9403L149.591 17.2983C150.545 17.4943 151.257 17.8097 151.725 18.2443C152.194 18.679 152.429 19.25 152.429 19.9574C152.429 20.6009 152.239 21.1655 151.86 21.6513C151.485 22.1371 150.969 22.5163 150.313 22.7891C149.661 23.0575 148.909 23.1918 148.056 23.1918C146.757 23.1918 145.721 22.9212 144.95 22.38C144.183 21.8345 143.733 21.093 143.601 20.1555L146.279 20.0149C146.36 20.4112 146.556 20.7138 146.868 20.9226C147.179 21.1271 147.577 21.2294 148.063 21.2294C148.54 21.2294 148.924 21.1378 149.213 20.9545C149.507 20.767 149.657 20.5263 149.661 20.2322C149.657 19.9851 149.552 19.7827 149.348 19.625C149.143 19.4631 148.828 19.3395 148.402 19.2543L146.701 18.9155C145.743 18.7237 145.029 18.3913 144.56 17.9183C144.096 17.4453 143.863 16.8423 143.863 16.1094C143.863 15.4787 144.034 14.9354 144.375 14.4794C144.72 14.0234 145.203 13.6719 145.826 13.4247C146.452 13.1776 147.185 13.054 148.025 13.054C149.265 13.054 150.24 13.3161 150.952 13.8402C151.668 14.3643 152.086 15.0781 152.205 15.9815ZM159.366 13.1818V15.2273H153.453V13.1818H159.366ZM154.795 10.8295H157.518V19.983C157.518 20.2344 157.557 20.4304 157.633 20.571C157.71 20.7074 157.817 20.8033 157.953 20.8587C158.094 20.9141 158.256 20.9418 158.439 20.9418C158.567 20.9418 158.694 20.9311 158.822 20.9098C158.95 20.8842 159.048 20.8651 159.116 20.8523L159.545 22.8786C159.408 22.9212 159.216 22.9702 158.969 23.0256C158.722 23.0852 158.422 23.1214 158.068 23.1342C157.412 23.1598 156.836 23.0724 156.342 22.8722C155.852 22.6719 155.471 22.3608 155.198 21.9389C154.925 21.517 154.791 20.9844 154.795 20.3409V10.8295ZM161.139 23V13.1818H163.735V14.9141H163.85C164.054 14.3388 164.395 13.8849 164.872 13.5526C165.35 13.2202 165.921 13.054 166.585 13.054C167.259 13.054 167.832 13.2223 168.305 13.5589C168.778 13.8913 169.093 14.343 169.251 14.9141H169.353C169.553 14.3516 169.916 13.902 170.44 13.5653C170.968 13.2244 171.593 13.054 172.313 13.054C173.229 13.054 173.972 13.3459 174.544 13.9297C175.119 14.5092 175.406 15.3317 175.406 16.397V23H172.69V16.9339C172.69 16.3885 172.545 15.9794 172.255 15.7067C171.965 15.4339 171.603 15.2976 171.169 15.2976C170.674 15.2976 170.289 15.4553 170.012 15.7706C169.735 16.0817 169.596 16.4929 169.596 17.0043V23H166.956V16.8764C166.956 16.3949 166.818 16.0114 166.541 15.7259C166.268 15.4403 165.908 15.2976 165.46 15.2976C165.158 15.2976 164.885 15.3743 164.642 15.5277C164.404 15.6768 164.214 15.8878 164.073 16.1605C163.933 16.429 163.862 16.7443 163.862 17.1065V23H161.139ZM182.78 13.1818V15.2273H176.867V13.1818H182.78ZM178.209 10.8295H180.932V19.983C180.932 20.2344 180.971 20.4304 181.047 20.571C181.124 20.7074 181.231 20.8033 181.367 20.8587C181.508 20.9141 181.67 20.9418 181.853 20.9418C181.981 20.9418 182.108 20.9311 182.236 20.9098C182.364 20.8842 182.462 20.8651 182.53 20.8523L182.959 22.8786C182.822 22.9212 182.631 22.9702 182.383 23.0256C182.136 23.0852 181.836 23.1214 181.482 23.1342C180.826 23.1598 180.251 23.0724 179.756 22.8722C179.266 22.6719 178.885 22.3608 178.612 21.9389C178.339 21.517 178.205 20.9844 178.209 20.3409V10.8295Z" fill="black"/>
<rect x="73.5" y="0.5" width="116" height="32" stroke="black"/>
<path d="M77.0866 66V56.1818H79.8097V66H77.0866ZM78.4545 54.9162C78.0497 54.9162 77.7024 54.782 77.4126 54.5135C77.1271 54.2408 76.9844 53.9148 76.9844 53.5355C76.9844 53.1605 77.1271 52.8388 77.4126 52.5703C77.7024 52.2976 78.0497 52.1612 78.4545 52.1612C78.8594 52.1612 79.2045 52.2976 79.4901 52.5703C79.7798 52.8388 79.9247 53.1605 79.9247 53.5355C79.9247 53.9148 79.7798 54.2408 79.4901 54.5135C79.2045 54.782 78.8594 54.9162 78.4545 54.9162ZM84.714 60.3239V66H81.9909V56.1818H84.5861V57.9141H84.7012C84.9185 57.343 85.2828 56.8913 85.7942 56.5589C86.3056 56.2223 86.9256 56.054 87.6543 56.054C88.3361 56.054 88.9306 56.2031 89.4377 56.5014C89.9448 56.7997 90.339 57.2259 90.6202 57.7798C90.9015 58.3295 91.0421 58.9858 91.0421 59.7486V66H88.3191V60.2344C88.3233 59.6335 88.1699 59.1648 87.8588 58.8281C87.5478 58.4872 87.1195 58.3168 86.574 58.3168C86.2076 58.3168 85.8837 58.3956 85.6025 58.5533C85.3255 58.7109 85.1081 58.9411 84.9505 59.2436C84.7971 59.5419 84.7182 59.902 84.714 60.3239ZM101.357 58.9815L98.8643 59.1349C98.8217 58.9219 98.7301 58.7301 98.5895 58.5597C98.4489 58.3849 98.2635 58.2464 98.0334 58.1442C97.8075 58.0376 97.5369 57.9844 97.2216 57.9844C96.7997 57.9844 96.4439 58.0739 96.1541 58.2528C95.8643 58.4276 95.7195 58.6619 95.7195 58.956C95.7195 59.1903 95.8132 59.3885 96.0007 59.5504C96.1882 59.7124 96.5099 59.8423 96.9659 59.9403L98.7429 60.2983C99.6974 60.4943 100.409 60.8097 100.878 61.2443C101.347 61.679 101.581 62.25 101.581 62.9574C101.581 63.6009 101.391 64.1655 101.012 64.6513C100.637 65.1371 100.121 65.5163 99.4652 65.7891C98.8132 66.0575 98.0611 66.1918 97.2088 66.1918C95.9091 66.1918 94.8736 65.9212 94.1023 65.38C93.3352 64.8345 92.8857 64.093 92.7536 63.1555L95.4318 63.0149C95.5128 63.4112 95.7088 63.7138 96.0199 63.9226C96.331 64.1271 96.7294 64.2294 97.2152 64.2294C97.6925 64.2294 98.076 64.1378 98.3658 63.9545C98.6598 63.767 98.8089 63.5263 98.8132 63.2322C98.8089 62.9851 98.7045 62.7827 98.5 62.625C98.2955 62.4631 97.9801 62.3395 97.554 62.2543L95.8537 61.9155C94.8949 61.7237 94.1811 61.3913 93.7124 60.9183C93.2479 60.4453 93.0156 59.8423 93.0156 59.1094C93.0156 58.4787 93.1861 57.9354 93.527 57.4794C93.8722 57.0234 94.3558 56.6719 94.978 56.4247C95.6044 56.1776 96.3374 56.054 97.1768 56.054C98.4169 56.054 99.3928 56.3161 100.104 56.8402C100.82 57.3643 101.238 58.0781 101.357 58.9815ZM107.77 66.1918C106.76 66.1918 105.891 65.9872 105.162 65.5781C104.438 65.1648 103.879 64.581 103.487 63.8267C103.095 63.0682 102.899 62.1712 102.899 61.1357C102.899 60.1257 103.095 59.2393 103.487 58.4766C103.879 57.7138 104.431 57.1193 105.143 56.6932C105.859 56.267 106.698 56.054 107.661 56.054C108.309 56.054 108.912 56.1584 109.47 56.3672C110.033 56.5717 110.523 56.8807 110.941 57.294C111.362 57.7074 111.691 58.2273 111.925 58.8537C112.159 59.4759 112.276 60.2045 112.276 61.0398V61.7876H103.986V60.1001H109.713C109.713 59.7081 109.628 59.3608 109.458 59.0582C109.287 58.7557 109.051 58.5192 108.748 58.3487C108.45 58.174 108.102 58.0866 107.706 58.0866C107.293 58.0866 106.926 58.1825 106.607 58.3743C106.291 58.5618 106.044 58.8153 105.865 59.1349C105.686 59.4503 105.595 59.8018 105.59 60.1896V61.794C105.59 62.2798 105.68 62.6996 105.859 63.0533C106.042 63.407 106.3 63.6797 106.632 63.8714C106.965 64.0632 107.359 64.1591 107.815 64.1591C108.117 64.1591 108.394 64.1165 108.646 64.0312C108.897 63.946 109.112 63.8182 109.291 63.6477C109.47 63.4773 109.607 63.2685 109.7 63.0213L112.219 63.1875C112.091 63.7926 111.829 64.321 111.433 64.7727C111.041 65.2202 110.534 65.5696 109.911 65.821C109.294 66.0682 108.58 66.1918 107.77 66.1918ZM114.053 66V56.1818H116.693V57.8949H116.796C116.975 57.2855 117.275 56.8253 117.697 56.5142C118.119 56.1989 118.605 56.0412 119.154 56.0412C119.291 56.0412 119.438 56.0497 119.595 56.0668C119.753 56.0838 119.892 56.1072 120.011 56.1371V58.5533C119.883 58.5149 119.706 58.4808 119.48 58.451C119.254 58.4212 119.048 58.4062 118.86 58.4062C118.46 58.4062 118.102 58.4936 117.786 58.6683C117.475 58.8388 117.228 59.0774 117.045 59.3842C116.866 59.6911 116.776 60.0447 116.776 60.4453V66H114.053ZM127.133 56.1818V58.2273H121.221V56.1818H127.133ZM122.563 53.8295H125.286V62.983C125.286 63.2344 125.324 63.4304 125.401 63.571C125.478 63.7074 125.584 63.8033 125.721 63.8587C125.861 63.9141 126.023 63.9418 126.206 63.9418C126.334 63.9418 126.462 63.9311 126.59 63.9098C126.718 63.8842 126.816 63.8651 126.884 63.8523L127.312 65.8786C127.176 65.9212 126.984 65.9702 126.737 66.0256C126.49 66.0852 126.189 66.1214 125.836 66.1342C125.179 66.1598 124.604 66.0724 124.11 65.8722C123.62 65.6719 123.238 65.3608 122.966 64.9389C122.693 64.517 122.559 63.9844 122.563 63.3409V53.8295ZM134.725 59.544V61.7045H128.755V59.544H134.725ZM145.215 58.9815L142.722 59.1349C142.679 58.9219 142.588 58.7301 142.447 58.5597C142.306 58.3849 142.121 58.2464 141.891 58.1442C141.665 58.0376 141.394 57.9844 141.079 57.9844C140.657 57.9844 140.301 58.0739 140.012 58.2528C139.722 58.4276 139.577 58.6619 139.577 58.956C139.577 59.1903 139.671 59.3885 139.858 59.5504C140.046 59.7124 140.367 59.8423 140.823 59.9403L142.6 60.2983C143.555 60.4943 144.267 60.8097 144.735 61.2443C145.204 61.679 145.438 62.25 145.438 62.9574C145.438 63.6009 145.249 64.1655 144.869 64.6513C144.494 65.1371 143.979 65.5163 143.323 65.7891C142.671 66.0575 141.919 66.1918 141.066 66.1918C139.767 66.1918 138.731 65.9212 137.96 65.38C137.193 64.8345 136.743 64.093 136.611 63.1555L139.289 63.0149C139.37 63.4112 139.566 63.7138 139.877 63.9226C140.188 64.1271 140.587 64.2294 141.073 64.2294C141.55 64.2294 141.933 64.1378 142.223 63.9545C142.517 63.767 142.666 63.5263 142.671 63.2322C142.666 62.9851 142.562 62.7827 142.357 62.625C142.153 62.4631 141.838 62.3395 141.411 62.2543L139.711 61.9155C138.752 61.7237 138.039 61.3913 137.57 60.9183C137.105 60.4453 136.873 59.8423 136.873 59.1094C136.873 58.4787 137.044 57.9354 137.384 57.4794C137.73 57.0234 138.213 56.6719 138.835 56.4247C139.462 56.1776 140.195 56.054 141.034 56.054C142.274 56.054 143.25 56.3161 143.962 56.8402C144.678 57.3643 145.095 58.0781 145.215 58.9815ZM152.375 56.1818V58.2273H146.463V56.1818H152.375ZM147.805 53.8295H150.528V62.983C150.528 63.2344 150.566 63.4304 150.643 63.571C150.72 63.7074 150.826 63.8033 150.963 63.8587C151.103 63.9141 151.265 63.9418 151.449 63.9418C151.576 63.9418 151.704 63.9311 151.832 63.9098C151.96 63.8842 152.058 63.8651 152.126 63.8523L152.554 65.8786C152.418 65.9212 152.226 65.9702 151.979 66.0256C151.732 66.0852 151.431 66.1214 151.078 66.1342C150.422 66.1598 149.846 66.0724 149.352 65.8722C148.862 65.6719 148.48 65.3608 148.208 64.9389C147.935 64.517 147.801 63.9844 147.805 63.3409V53.8295ZM154.149 66V56.1818H156.744V57.9141H156.859C157.064 57.3388 157.405 56.8849 157.882 56.5526C158.359 56.2202 158.93 56.054 159.595 56.054C160.268 56.054 160.842 56.2223 161.315 56.5589C161.788 56.8913 162.103 57.343 162.261 57.9141H162.363C162.563 57.3516 162.925 56.902 163.45 56.5653C163.978 56.2244 164.602 56.054 165.322 56.054C166.239 56.054 166.982 56.3459 167.553 56.9297C168.129 57.5092 168.416 58.3317 168.416 59.397V66H165.7V59.9339C165.7 59.3885 165.555 58.9794 165.265 58.7067C164.975 58.4339 164.613 58.2976 164.178 58.2976C163.684 58.2976 163.298 58.4553 163.021 58.7706C162.744 59.0817 162.606 59.4929 162.606 60.0043V66H159.966V59.8764C159.966 59.3949 159.827 59.0114 159.55 58.7259C159.278 58.4403 158.918 58.2976 158.47 58.2976C158.168 58.2976 157.895 58.3743 157.652 58.5277C157.413 58.6768 157.224 58.8878 157.083 59.1605C156.942 59.429 156.872 59.7443 156.872 60.1065V66H154.149ZM175.789 56.1818V58.2273H169.877V56.1818H175.789ZM171.219 53.8295H173.942V62.983C173.942 63.2344 173.98 63.4304 174.057 63.571C174.134 63.7074 174.24 63.8033 174.377 63.8587C174.517 63.9141 174.679 63.9418 174.863 63.9418C174.99 63.9418 175.118 63.9311 175.246 63.9098C175.374 63.8842 175.472 63.8651 175.54 63.8523L175.968 65.8786C175.832 65.9212 175.64 65.9702 175.393 66.0256C175.146 66.0852 174.846 66.1214 174.492 66.1342C173.836 66.1598 173.26 66.0724 172.766 65.8722C172.276 65.6719 171.895 65.3608 171.622 64.9389C171.349 64.517 171.215 63.9844 171.219 63.3409V53.8295Z" fill="black"/>
<rect x="72.5" y="43.5" width="108" height="32" stroke="black"/>
<path d="M73 17L63 11.2265V22.7735L73 17ZM12.5 18L64 18V16L12.5 16V18Z" fill="black"/>
<path d="M222 17L212 11.2265V22.7735L222 17ZM201 18H213V16H201V18Z" fill="black"/>
<path d="M222 60L212 54.2265V65.7735L222 60ZM201 61H213V59H201V61Z" fill="black"/>
<path d="M222 103L212 97.2265V108.774L222 103ZM201 104H213V102H201V104Z" fill="black"/>
<path d="M222 146L212 140.226V151.774L222 146ZM201 147H213V145H201V147Z" fill="black"/>
<path d="M294 17L284 11.2265L284 22.7735L294 17ZM190 18L285 18L285 16L190 16L190 18Z" fill="black"/>
<path d="M181 60L258.376 60C263.899 60 268.376 55.5228 268.376 50V27C268.376 21.4772 272.853 17 278.376 17H280" stroke="black" stroke-width="2"/>
<path d="M192.5 146L258.248 146C263.771 146 268.248 141.523 268.248 136V26.7517C268.248 21.366 272.614 17 278 17V17" stroke="black" stroke-width="2"/>
<path d="M180.5 103L233.652 103H258.304C263.827 103 268.304 98.5228 268.304 93V27C268.304 21.4772 272.781 17 278.304 17H280" stroke="black" stroke-width="2"/>
</svg>
