<svg width="717" height="162" viewBox="0 0 717 162" fill="none" xmlns="http://www.w3.org/2000/svg">
<circle cx="4" cy="17" r="3.5" stroke="black"/>
<circle cx="713" cy="17" r="3.5" stroke="black"/>
<path d="M486 104L476 98.2265V109.774L486 104ZM423 18H437.113V16H423V18ZM446.113 27V94H448.113V27H446.113ZM457.113 105H477V103H457.113V105ZM446.113 94C446.113 100.075 451.037 105 457.113 105V103C452.142 103 448.113 98.9706 448.113 94H446.113ZM437.113 18C442.083 18 446.113 22.0294 446.113 27H448.113C448.113 20.9249 443.188 16 437.113 16V18Z" fill="black"/>
<path d="M486 60L476 54.2265V65.7735L486 60ZM423 18H437.113V16H423V18ZM446.113 27V50H448.113V27H446.113ZM457.113 61H477V59H457.113V61ZM446.113 50C446.113 56.0751 451.037 61 457.113 61V59C452.142 59 448.113 54.9706 448.113 50H446.113ZM437.113 18C442.083 18 446.113 22.0294 446.113 27H448.113C448.113 20.9249 443.188 16 437.113 16V18Z" fill="black"/>
<path d="M487 147L477 141.226V152.774L487 147ZM423 18H437.304V16H423V18ZM446.304 27V137H448.304V27H446.304ZM457.304 148H478V146H457.304V148ZM446.304 137C446.304 143.075 451.229 148 457.304 148V146C452.333 146 448.304 141.971 448.304 137H446.304ZM437.304 18C442.275 18 446.304 22.0294 446.304 27H448.304C448.304 20.9249 443.379 16 437.304 16V18Z" fill="black"/>
<path d="M499.256 101.982L496.763 102.135C496.72 101.922 496.629 101.73 496.488 101.56C496.347 101.385 496.162 101.246 495.932 101.144C495.706 101.038 495.435 100.984 495.12 100.984C494.698 100.984 494.342 101.074 494.053 101.253C493.763 101.428 493.618 101.662 493.618 101.956C493.618 102.19 493.712 102.388 493.899 102.55C494.087 102.712 494.408 102.842 494.864 102.94L496.641 103.298C497.596 103.494 498.308 103.81 498.776 104.244C499.245 104.679 499.479 105.25 499.479 105.957C499.479 106.601 499.29 107.165 498.911 107.651C498.536 108.137 498.02 108.516 497.364 108.789C496.712 109.058 495.96 109.192 495.107 109.192C493.808 109.192 492.772 108.921 492.001 108.38C491.234 107.835 490.784 107.093 490.652 106.156L493.33 106.015C493.411 106.411 493.607 106.714 493.918 106.923C494.229 107.127 494.628 107.229 495.114 107.229C495.591 107.229 495.974 107.138 496.264 106.955C496.558 106.767 496.707 106.526 496.712 106.232C496.707 105.985 496.603 105.783 496.398 105.625C496.194 105.463 495.879 105.339 495.452 105.254L493.752 104.915C492.793 104.724 492.08 104.391 491.611 103.918C491.146 103.445 490.914 102.842 490.914 102.109C490.914 101.479 491.085 100.935 491.425 100.479C491.771 100.023 492.254 99.6719 492.876 99.4247C493.503 99.1776 494.236 99.054 495.075 99.054C496.315 99.054 497.291 99.3161 498.003 99.8402C498.719 100.364 499.136 101.078 499.256 101.982ZM505.669 109.192C504.659 109.192 503.789 108.987 503.061 108.578C502.336 108.165 501.778 107.581 501.386 106.827C500.994 106.068 500.798 105.171 500.798 104.136C500.798 103.126 500.994 102.239 501.386 101.477C501.778 100.714 502.33 100.119 503.041 99.6932C503.757 99.267 504.597 99.054 505.56 99.054C506.208 99.054 506.811 99.1584 507.369 99.3672C507.931 99.5717 508.421 99.8807 508.839 100.294C509.261 100.707 509.589 101.227 509.823 101.854C510.058 102.476 510.175 103.205 510.175 104.04V104.788H501.884V103.1H507.612C507.612 102.708 507.526 102.361 507.356 102.058C507.186 101.756 506.949 101.519 506.646 101.349C506.348 101.174 506.001 101.087 505.605 101.087C505.191 101.087 504.825 101.183 504.505 101.374C504.19 101.562 503.943 101.815 503.764 102.135C503.585 102.45 503.493 102.802 503.489 103.19V104.794C503.489 105.28 503.578 105.7 503.757 106.053C503.941 106.407 504.198 106.68 504.531 106.871C504.863 107.063 505.257 107.159 505.713 107.159C506.016 107.159 506.293 107.116 506.544 107.031C506.796 106.946 507.011 106.818 507.19 106.648C507.369 106.477 507.505 106.268 507.599 106.021L510.117 106.188C509.99 106.793 509.727 107.321 509.331 107.773C508.939 108.22 508.432 108.57 507.81 108.821C507.192 109.068 506.478 109.192 505.669 109.192ZM514.675 95.9091V109H511.952V95.9091H514.675ZM521.331 109.192C520.321 109.192 519.451 108.987 518.723 108.578C517.998 108.165 517.44 107.581 517.048 106.827C516.656 106.068 516.46 105.171 516.46 104.136C516.46 103.126 516.656 102.239 517.048 101.477C517.44 100.714 517.992 100.119 518.703 99.6932C519.419 99.267 520.259 99.054 521.222 99.054C521.87 99.054 522.473 99.1584 523.031 99.3672C523.593 99.5717 524.083 99.8807 524.501 100.294C524.923 100.707 525.251 101.227 525.485 101.854C525.72 102.476 525.837 103.205 525.837 104.04V104.788H517.547V103.1H523.274C523.274 102.708 523.189 102.361 523.018 102.058C522.848 101.756 522.611 101.519 522.309 101.349C522.01 101.174 521.663 101.087 521.267 101.087C520.853 101.087 520.487 101.183 520.167 101.374C519.852 101.562 519.605 101.815 519.426 102.135C519.247 102.45 519.155 102.802 519.151 103.19V104.794C519.151 105.28 519.24 105.7 519.419 106.053C519.603 106.407 519.86 106.68 520.193 106.871C520.525 107.063 520.919 107.159 521.375 107.159C521.678 107.159 521.955 107.116 522.206 107.031C522.458 106.946 522.673 106.818 522.852 106.648C523.031 106.477 523.167 106.268 523.261 106.021L525.779 106.188C525.652 106.793 525.39 107.321 524.993 107.773C524.601 108.22 524.094 108.57 523.472 108.821C522.854 109.068 522.14 109.192 521.331 109.192ZM532.05 109.192C531.044 109.192 530.179 108.979 529.455 108.553C528.735 108.122 528.181 107.526 527.793 106.763C527.409 106 527.218 105.122 527.218 104.129C527.218 103.124 527.412 102.241 527.799 101.483C528.191 100.72 528.748 100.126 529.468 99.6996C530.188 99.2692 531.044 99.054 532.037 99.054C532.894 99.054 533.644 99.2095 534.287 99.5206C534.931 99.8317 535.44 100.268 535.815 100.831C536.19 101.393 536.397 102.054 536.435 102.812H533.865C533.793 102.322 533.601 101.928 533.29 101.63C532.983 101.327 532.581 101.176 532.082 101.176C531.66 101.176 531.292 101.291 530.976 101.521C530.665 101.747 530.422 102.077 530.248 102.512C530.073 102.947 529.985 103.473 529.985 104.091C529.985 104.717 530.071 105.25 530.241 105.689C530.416 106.128 530.661 106.462 530.976 106.692C531.292 106.923 531.66 107.038 532.082 107.038C532.393 107.038 532.672 106.974 532.919 106.846C533.171 106.718 533.377 106.533 533.539 106.29C533.706 106.043 533.814 105.746 533.865 105.401H536.435C536.392 106.151 536.188 106.812 535.821 107.383C535.459 107.95 534.958 108.393 534.319 108.712C533.68 109.032 532.924 109.192 532.05 109.192ZM543.401 99.1818V101.227H537.488V99.1818H543.401ZM538.83 96.8295H541.553V105.983C541.553 106.234 541.592 106.43 541.669 106.571C541.745 106.707 541.852 106.803 541.988 106.859C542.129 106.914 542.291 106.942 542.474 106.942C542.602 106.942 542.73 106.931 542.857 106.91C542.985 106.884 543.083 106.865 543.151 106.852L543.58 108.879C543.443 108.921 543.252 108.97 543.004 109.026C542.757 109.085 542.457 109.121 542.103 109.134C541.447 109.16 540.872 109.072 540.377 108.872C539.887 108.672 539.506 108.361 539.233 107.939C538.96 107.517 538.826 106.984 538.83 106.341V96.8295ZM550.993 102.544V104.705H545.023V102.544H550.993ZM561.482 101.982L558.989 102.135C558.947 101.922 558.855 101.73 558.714 101.56C558.574 101.385 558.388 101.246 558.158 101.144C557.933 101.038 557.662 100.984 557.347 100.984C556.925 100.984 556.569 101.074 556.279 101.253C555.989 101.428 555.844 101.662 555.844 101.956C555.844 102.19 555.938 102.388 556.126 102.55C556.313 102.712 556.635 102.842 557.091 102.94L558.868 103.298C559.822 103.494 560.534 103.81 561.003 104.244C561.472 104.679 561.706 105.25 561.706 105.957C561.706 106.601 561.516 107.165 561.137 107.651C560.762 108.137 560.246 108.516 559.59 108.789C558.938 109.058 558.186 109.192 557.334 109.192C556.034 109.192 554.999 108.921 554.227 108.38C553.46 107.835 553.011 107.093 552.879 106.156L555.557 106.015C555.638 106.411 555.834 106.714 556.145 106.923C556.456 107.127 556.854 107.229 557.34 107.229C557.817 107.229 558.201 107.138 558.491 106.955C558.785 106.767 558.934 106.526 558.938 106.232C558.934 105.985 558.83 105.783 558.625 105.625C558.42 105.463 558.105 105.339 557.679 105.254L555.979 104.915C555.02 104.724 554.306 104.391 553.837 103.918C553.373 103.445 553.141 102.842 553.141 102.109C553.141 101.479 553.311 100.935 553.652 100.479C553.997 100.023 554.481 99.6719 555.103 99.4247C555.729 99.1776 556.462 99.054 557.302 99.054C558.542 99.054 559.518 99.3161 560.229 99.8402C560.945 100.364 561.363 101.078 561.482 101.982ZM568.643 99.1818V101.227H562.73V99.1818H568.643ZM564.073 96.8295H566.796V105.983C566.796 106.234 566.834 106.43 566.911 106.571C566.987 106.707 567.094 106.803 567.23 106.859C567.371 106.914 567.533 106.942 567.716 106.942C567.844 106.942 567.972 106.931 568.1 106.91C568.227 106.884 568.325 106.865 568.394 106.852L568.822 108.879C568.686 108.921 568.494 108.97 568.247 109.026C567.999 109.085 567.699 109.121 567.345 109.134C566.689 109.16 566.114 109.072 565.619 108.872C565.129 108.672 564.748 108.361 564.475 107.939C564.203 107.517 564.068 106.984 564.073 106.341V96.8295ZM570.417 109V99.1818H573.012V100.914H573.127C573.331 100.339 573.672 99.8849 574.15 99.5526C574.627 99.2202 575.198 99.054 575.863 99.054C576.536 99.054 577.109 99.2223 577.582 99.5589C578.055 99.8913 578.371 100.343 578.528 100.914H578.631C578.831 100.352 579.193 99.902 579.717 99.5653C580.246 99.2244 580.87 99.054 581.59 99.054C582.506 99.054 583.25 99.3459 583.821 99.9297C584.396 100.509 584.684 101.332 584.684 102.397V109H581.967V102.934C581.967 102.388 581.822 101.979 581.532 101.707C581.243 101.434 580.881 101.298 580.446 101.298C579.952 101.298 579.566 101.455 579.289 101.771C579.012 102.082 578.873 102.493 578.873 103.004V109H576.233V102.876C576.233 102.395 576.095 102.011 575.818 101.726C575.545 101.44 575.185 101.298 574.738 101.298C574.435 101.298 574.162 101.374 573.92 101.528C573.681 101.677 573.491 101.888 573.351 102.161C573.21 102.429 573.14 102.744 573.14 103.107V109H570.417ZM592.057 99.1818V101.227H586.144V99.1818H592.057ZM587.487 96.8295H590.21V105.983C590.21 106.234 590.248 106.43 590.325 106.571C590.401 106.707 590.508 106.803 590.644 106.859C590.785 106.914 590.947 106.942 591.13 106.942C591.258 106.942 591.386 106.931 591.514 106.91C591.642 106.884 591.74 106.865 591.808 106.852L592.236 108.879C592.1 108.921 591.908 108.97 591.661 109.026C591.414 109.085 591.113 109.121 590.759 109.134C590.103 109.16 589.528 109.072 589.034 108.872C588.544 108.672 588.162 108.361 587.889 107.939C587.617 107.517 587.482 106.984 587.487 106.341V96.8295Z" fill="black"/>
<rect x="486.5" y="86.5" width="109" height="32" stroke="black"/>
<path d="M498.383 147.82V142.182H501.106V152H498.491V150.217H498.389C498.168 150.792 497.799 151.254 497.283 151.604C496.772 151.953 496.148 152.128 495.411 152.128C494.754 152.128 494.177 151.979 493.678 151.68C493.18 151.382 492.79 150.958 492.509 150.408C492.232 149.859 492.091 149.2 492.087 148.433V142.182H494.81V147.947C494.814 148.527 494.969 148.985 495.276 149.322C495.583 149.658 495.994 149.827 496.51 149.827C496.838 149.827 497.145 149.752 497.43 149.603C497.716 149.45 497.946 149.224 498.121 148.925C498.3 148.627 498.387 148.259 498.383 147.82ZM503.284 155.682V142.182H505.969V143.831H506.09C506.209 143.567 506.382 143.298 506.608 143.026C506.838 142.749 507.136 142.518 507.503 142.335C507.873 142.148 508.334 142.054 508.883 142.054C509.599 142.054 510.26 142.241 510.865 142.616C511.47 142.987 511.954 143.548 512.316 144.298C512.678 145.043 512.859 145.979 512.859 147.104C512.859 148.199 512.682 149.124 512.329 149.878C511.979 150.628 511.502 151.197 510.897 151.585C510.296 151.968 509.623 152.16 508.877 152.16C508.349 152.16 507.899 152.072 507.528 151.898C507.162 151.723 506.861 151.504 506.627 151.239C506.393 150.971 506.214 150.7 506.09 150.428H506.007V155.682H503.284ZM505.949 147.091C505.949 147.675 506.03 148.184 506.192 148.619C506.354 149.053 506.589 149.392 506.895 149.635C507.202 149.874 507.575 149.993 508.014 149.993C508.457 149.993 508.832 149.871 509.139 149.629C509.446 149.381 509.678 149.04 509.836 148.606C509.998 148.167 510.079 147.662 510.079 147.091C510.079 146.524 510 146.026 509.842 145.595C509.684 145.165 509.452 144.828 509.145 144.585C508.839 144.342 508.461 144.221 508.014 144.221C507.571 144.221 507.196 144.338 506.889 144.572C506.586 144.807 506.354 145.139 506.192 145.57C506.03 146 505.949 146.507 505.949 147.091ZM518.292 152.16C517.547 152.16 516.871 151.968 516.266 151.585C515.665 151.197 515.188 150.628 514.834 149.878C514.485 149.124 514.31 148.199 514.31 147.104C514.31 145.979 514.491 145.043 514.854 144.298C515.216 143.548 515.697 142.987 516.298 142.616C516.903 142.241 517.566 142.054 518.286 142.054C518.836 142.054 519.294 142.148 519.66 142.335C520.031 142.518 520.329 142.749 520.555 143.026C520.785 143.298 520.96 143.567 521.079 143.831H521.162V138.909H523.879V152H521.194V150.428H521.079C520.952 150.7 520.77 150.971 520.536 151.239C520.306 151.504 520.006 151.723 519.635 151.898C519.268 152.072 518.821 152.16 518.292 152.16ZM519.155 149.993C519.594 149.993 519.965 149.874 520.268 149.635C520.574 149.392 520.809 149.053 520.971 148.619C521.137 148.184 521.22 147.675 521.22 147.091C521.22 146.507 521.139 146 520.977 145.57C520.815 145.139 520.581 144.807 520.274 144.572C519.967 144.338 519.594 144.221 519.155 144.221C518.708 144.221 518.331 144.342 518.024 144.585C517.717 144.828 517.485 145.165 517.327 145.595C517.17 146.026 517.091 146.524 517.091 147.091C517.091 147.662 517.17 148.167 517.327 148.606C517.489 149.04 517.721 149.381 518.024 149.629C518.331 149.871 518.708 149.993 519.155 149.993ZM528.918 152.185C528.291 152.185 527.733 152.077 527.243 151.859C526.753 151.638 526.365 151.312 526.08 150.881C525.798 150.447 525.658 149.906 525.658 149.258C525.658 148.712 525.758 148.254 525.958 147.884C526.158 147.513 526.431 147.214 526.776 146.989C527.121 146.763 527.513 146.592 527.952 146.477C528.396 146.362 528.86 146.281 529.346 146.234C529.917 146.175 530.377 146.119 530.727 146.068C531.076 146.013 531.33 145.932 531.487 145.825C531.645 145.719 531.724 145.561 531.724 145.352V145.314C531.724 144.909 531.596 144.596 531.34 144.374C531.089 144.153 530.731 144.042 530.266 144.042C529.776 144.042 529.386 144.151 529.097 144.368C528.807 144.581 528.615 144.849 528.521 145.173L526.003 144.969C526.131 144.372 526.382 143.857 526.757 143.422C527.132 142.983 527.616 142.646 528.208 142.412C528.805 142.173 529.495 142.054 530.279 142.054C530.825 142.054 531.347 142.118 531.845 142.246C532.348 142.374 532.793 142.572 533.181 142.84C533.573 143.109 533.882 143.454 534.108 143.876C534.334 144.293 534.447 144.794 534.447 145.378V152H531.864V150.638H531.788C531.63 150.945 531.419 151.216 531.155 151.45C530.891 151.68 530.573 151.862 530.202 151.994C529.832 152.121 529.403 152.185 528.918 152.185ZM529.697 150.306C530.098 150.306 530.452 150.227 530.759 150.07C531.065 149.908 531.306 149.69 531.481 149.418C531.656 149.145 531.743 148.836 531.743 148.491V147.449C531.658 147.504 531.54 147.555 531.391 147.602C531.246 147.645 531.082 147.685 530.899 147.724C530.716 147.758 530.533 147.79 530.349 147.82C530.166 147.845 530 147.869 529.851 147.89C529.531 147.937 529.252 148.011 529.013 148.114C528.775 148.216 528.589 148.354 528.457 148.529C528.325 148.7 528.259 148.913 528.259 149.168C528.259 149.539 528.393 149.822 528.662 150.018C528.935 150.21 529.28 150.306 529.697 150.306ZM541.782 142.182V144.227H535.869V142.182H541.782ZM537.211 139.83H539.934V148.983C539.934 149.234 539.973 149.43 540.049 149.571C540.126 149.707 540.233 149.803 540.369 149.859C540.51 149.914 540.672 149.942 540.855 149.942C540.983 149.942 541.11 149.931 541.238 149.91C541.366 149.884 541.464 149.865 541.532 149.852L541.961 151.879C541.824 151.921 541.632 151.97 541.385 152.026C541.138 152.085 540.838 152.121 540.484 152.134C539.828 152.16 539.252 152.072 538.758 151.872C538.268 151.672 537.887 151.361 537.614 150.939C537.341 150.517 537.207 149.984 537.211 149.341V139.83ZM547.924 152.192C546.914 152.192 546.045 151.987 545.316 151.578C544.592 151.165 544.034 150.581 543.642 149.827C543.25 149.068 543.054 148.171 543.054 147.136C543.054 146.126 543.25 145.239 543.642 144.477C544.034 143.714 544.586 143.119 545.297 142.693C546.013 142.267 546.853 142.054 547.816 142.054C548.463 142.054 549.066 142.158 549.625 142.367C550.187 142.572 550.677 142.881 551.095 143.294C551.517 143.707 551.845 144.227 552.079 144.854C552.314 145.476 552.431 146.205 552.431 147.04V147.788H544.14V146.1H549.868C549.868 145.708 549.782 145.361 549.612 145.058C549.441 144.756 549.205 144.519 548.902 144.349C548.604 144.174 548.257 144.087 547.86 144.087C547.447 144.087 547.081 144.183 546.761 144.374C546.446 144.562 546.199 144.815 546.02 145.135C545.841 145.45 545.749 145.802 545.745 146.19V147.794C545.745 148.28 545.834 148.7 546.013 149.053C546.196 149.407 546.454 149.68 546.787 149.871C547.119 150.063 547.513 150.159 547.969 150.159C548.272 150.159 548.549 150.116 548.8 150.031C549.051 149.946 549.267 149.818 549.446 149.648C549.625 149.477 549.761 149.268 549.855 149.021L552.373 149.188C552.245 149.793 551.983 150.321 551.587 150.773C551.195 151.22 550.688 151.57 550.066 151.821C549.448 152.068 548.734 152.192 547.924 152.192ZM560.325 145.544V147.705H554.355V145.544H560.325ZM570.814 144.982L568.321 145.135C568.279 144.922 568.187 144.73 568.047 144.56C567.906 144.385 567.721 144.246 567.49 144.144C567.265 144.038 566.994 143.984 566.679 143.984C566.257 143.984 565.901 144.074 565.611 144.253C565.321 144.428 565.176 144.662 565.176 144.956C565.176 145.19 565.27 145.388 565.458 145.55C565.645 145.712 565.967 145.842 566.423 145.94L568.2 146.298C569.154 146.494 569.866 146.81 570.335 147.244C570.804 147.679 571.038 148.25 571.038 148.957C571.038 149.601 570.848 150.165 570.469 150.651C570.094 151.137 569.578 151.516 568.922 151.789C568.27 152.058 567.518 152.192 566.666 152.192C565.366 152.192 564.331 151.921 563.559 151.38C562.792 150.835 562.343 150.093 562.211 149.156L564.889 149.015C564.97 149.411 565.166 149.714 565.477 149.923C565.788 150.127 566.186 150.229 566.672 150.229C567.15 150.229 567.533 150.138 567.823 149.955C568.117 149.767 568.266 149.526 568.27 149.232C568.266 148.985 568.162 148.783 567.957 148.625C567.752 148.463 567.437 148.339 567.011 148.254L565.311 147.915C564.352 147.724 563.638 147.391 563.169 146.918C562.705 146.445 562.473 145.842 562.473 145.109C562.473 144.479 562.643 143.935 562.984 143.479C563.329 143.023 563.813 142.672 564.435 142.425C565.061 142.178 565.794 142.054 566.634 142.054C567.874 142.054 568.85 142.316 569.561 142.84C570.277 143.364 570.695 144.078 570.814 144.982ZM577.975 142.182V144.227H572.062V142.182H577.975ZM573.405 139.83H576.128V148.983C576.128 149.234 576.166 149.43 576.243 149.571C576.319 149.707 576.426 149.803 576.562 149.859C576.703 149.914 576.865 149.942 577.048 149.942C577.176 149.942 577.304 149.931 577.432 149.91C577.559 149.884 577.657 149.865 577.726 149.852L578.154 151.879C578.018 151.921 577.826 151.97 577.579 152.026C577.331 152.085 577.031 152.121 576.677 152.134C576.021 152.16 575.446 152.072 574.952 151.872C574.461 151.672 574.08 151.361 573.807 150.939C573.535 150.517 573.4 149.984 573.405 149.341V139.83ZM579.749 152V142.182H582.344V143.914H582.459C582.664 143.339 583.004 142.885 583.482 142.553C583.959 142.22 584.53 142.054 585.195 142.054C585.868 142.054 586.441 142.222 586.914 142.559C587.387 142.891 587.703 143.343 587.86 143.914H587.963C588.163 143.352 588.525 142.902 589.049 142.565C589.578 142.224 590.202 142.054 590.922 142.054C591.838 142.054 592.582 142.346 593.153 142.93C593.728 143.509 594.016 144.332 594.016 145.397V152H591.299V145.934C591.299 145.388 591.154 144.979 590.865 144.707C590.575 144.434 590.213 144.298 589.778 144.298C589.284 144.298 588.898 144.455 588.621 144.771C588.344 145.082 588.205 145.493 588.205 146.004V152H585.566V145.876C585.566 145.395 585.427 145.011 585.15 144.726C584.877 144.44 584.517 144.298 584.07 144.298C583.767 144.298 583.494 144.374 583.252 144.528C583.013 144.677 582.823 144.888 582.683 145.161C582.542 145.429 582.472 145.744 582.472 146.107V152H579.749ZM601.389 142.182V144.227H595.476V142.182H601.389ZM596.819 139.83H599.542V148.983C599.542 149.234 599.58 149.43 599.657 149.571C599.733 149.707 599.84 149.803 599.976 149.859C600.117 149.914 600.279 149.942 600.462 149.942C600.59 149.942 600.718 149.931 600.846 149.91C600.974 149.884 601.072 149.865 601.14 149.852L601.568 151.879C601.432 151.921 601.24 151.97 600.993 152.026C600.746 152.085 600.445 152.121 600.091 152.134C599.435 152.16 598.86 152.072 598.366 151.872C597.876 151.672 597.494 151.361 597.221 150.939C596.949 150.517 596.814 149.984 596.819 149.341V139.83Z" fill="black"/>
<rect x="488.5" y="129.5" width="119" height="32" stroke="black"/>
<path d="M498.705 23.1598C497.959 23.1598 497.283 22.968 496.678 22.5845C496.077 22.1967 495.6 21.6278 495.246 20.8778C494.897 20.1236 494.722 19.1989 494.722 18.1037C494.722 16.9787 494.903 16.0433 495.266 15.2976C495.628 14.5476 496.109 13.9872 496.71 13.6165C497.315 13.2415 497.978 13.054 498.698 13.054C499.248 13.054 499.706 13.1477 500.072 13.3352C500.443 13.5185 500.741 13.7486 500.967 14.0256C501.197 14.2983 501.372 14.5668 501.491 14.831H501.575V9.90909H504.291V23H501.607V21.4276H501.491C501.364 21.7003 501.183 21.9709 500.948 22.2393C500.718 22.5036 500.418 22.723 500.047 22.8977C499.68 23.0724 499.233 23.1598 498.705 23.1598ZM499.567 20.9929C500.006 20.9929 500.377 20.8736 500.68 20.6349C500.987 20.392 501.221 20.0533 501.383 19.6186C501.549 19.1839 501.632 18.6747 501.632 18.0909C501.632 17.5071 501.551 17 501.389 16.5696C501.227 16.1392 500.993 15.8068 500.686 15.5724C500.379 15.3381 500.006 15.2209 499.567 15.2209C499.12 15.2209 498.743 15.3423 498.436 15.5852C498.129 15.8281 497.897 16.1648 497.739 16.5952C497.582 17.0256 497.503 17.5241 497.503 18.0909C497.503 18.6619 497.582 19.1669 497.739 19.6058C497.901 20.0405 498.134 20.3814 498.436 20.6286C498.743 20.8714 499.12 20.9929 499.567 20.9929ZM511.004 23.1918C509.994 23.1918 509.125 22.9872 508.396 22.5781C507.672 22.1648 507.114 21.581 506.722 20.8267C506.33 20.0682 506.134 19.1712 506.134 18.1357C506.134 17.1257 506.33 16.2393 506.722 15.4766C507.114 14.7138 507.666 14.1193 508.377 13.6932C509.093 13.267 509.933 13.054 510.896 13.054C511.544 13.054 512.146 13.1584 512.705 13.3672C513.267 13.5717 513.757 13.8807 514.175 14.294C514.597 14.7074 514.925 15.2273 515.159 15.8537C515.394 16.4759 515.511 17.2045 515.511 18.0398V18.7876H507.22V17.1001H512.948C512.948 16.7081 512.862 16.3608 512.692 16.0582C512.521 15.7557 512.285 15.5192 511.982 15.3487C511.684 15.174 511.337 15.0866 510.941 15.0866C510.527 15.0866 510.161 15.1825 509.841 15.3743C509.526 15.5618 509.279 15.8153 509.1 16.1349C508.921 16.4503 508.829 16.8018 508.825 17.1896V18.794C508.825 19.2798 508.914 19.6996 509.093 20.0533C509.276 20.407 509.534 20.6797 509.867 20.8714C510.199 21.0632 510.593 21.1591 511.049 21.1591C511.352 21.1591 511.629 21.1165 511.88 21.0312C512.132 20.946 512.347 20.8182 512.526 20.6477C512.705 20.4773 512.841 20.2685 512.935 20.0213L515.453 20.1875C515.325 20.7926 515.063 21.321 514.667 21.7727C514.275 22.2202 513.768 22.5696 513.146 22.821C512.528 23.0682 511.814 23.1918 511.004 23.1918ZM520.011 9.90909V23H517.288V9.90909H520.011ZM526.667 23.1918C525.657 23.1918 524.787 22.9872 524.059 22.5781C523.334 22.1648 522.776 21.581 522.384 20.8267C521.992 20.0682 521.796 19.1712 521.796 18.1357C521.796 17.1257 521.992 16.2393 522.384 15.4766C522.776 14.7138 523.328 14.1193 524.039 13.6932C524.755 13.267 525.595 13.054 526.558 13.054C527.206 13.054 527.809 13.1584 528.367 13.3672C528.929 13.5717 529.419 13.8807 529.837 14.294C530.259 14.7074 530.587 15.2273 530.821 15.8537C531.056 16.4759 531.173 17.2045 531.173 18.0398V18.7876H522.882V17.1001H528.61C528.61 16.7081 528.525 16.3608 528.354 16.0582C528.184 15.7557 527.947 15.5192 527.645 15.3487C527.346 15.174 526.999 15.0866 526.603 15.0866C526.189 15.0866 525.823 15.1825 525.503 15.3743C525.188 15.5618 524.941 15.8153 524.762 16.1349C524.583 16.4503 524.491 16.8018 524.487 17.1896V18.794C524.487 19.2798 524.576 19.6996 524.755 20.0533C524.939 20.407 525.196 20.6797 525.529 20.8714C525.861 21.0632 526.255 21.1591 526.711 21.1591C527.014 21.1591 527.291 21.1165 527.542 21.0312C527.794 20.946 528.009 20.8182 528.188 20.6477C528.367 20.4773 528.503 20.2685 528.597 20.0213L531.115 20.1875C530.988 20.7926 530.725 21.321 530.329 21.7727C529.937 22.2202 529.43 22.5696 528.808 22.821C528.19 23.0682 527.476 23.1918 526.667 23.1918ZM538.172 13.1818V15.2273H532.26V13.1818H538.172ZM533.602 10.8295H536.325V19.983C536.325 20.2344 536.363 20.4304 536.44 20.571C536.517 20.7074 536.623 20.8033 536.76 20.8587C536.9 20.9141 537.062 20.9418 537.245 20.9418C537.373 20.9418 537.501 20.9311 537.629 20.9098C537.757 20.8842 537.855 20.8651 537.923 20.8523L538.351 22.8786C538.215 22.9212 538.023 22.9702 537.776 23.0256C537.529 23.0852 537.228 23.1214 536.875 23.1342C536.218 23.1598 535.643 23.0724 535.149 22.8722C534.659 22.6719 534.277 22.3608 534.005 21.9389C533.732 21.517 533.598 20.9844 533.602 20.3409V10.8295ZM544.315 23.1918C543.305 23.1918 542.436 22.9872 541.707 22.5781C540.983 22.1648 540.424 21.581 540.032 20.8267C539.64 20.0682 539.444 19.1712 539.444 18.1357C539.444 17.1257 539.64 16.2393 540.032 15.4766C540.424 14.7138 540.976 14.1193 541.688 13.6932C542.404 13.267 543.243 13.054 544.206 13.054C544.854 13.054 545.457 13.1584 546.015 13.3672C546.578 13.5717 547.068 13.8807 547.485 14.294C547.907 14.7074 548.235 15.2273 548.47 15.8537C548.704 16.4759 548.821 17.2045 548.821 18.0398V18.7876H540.531V17.1001H546.258C546.258 16.7081 546.173 16.3608 546.002 16.0582C545.832 15.7557 545.596 15.5192 545.293 15.3487C544.995 15.174 544.647 15.0866 544.251 15.0866C543.838 15.0866 543.471 15.1825 543.152 15.3743C542.836 15.5618 542.589 15.8153 542.41 16.1349C542.231 16.4503 542.14 16.8018 542.135 17.1896V18.794C542.135 19.2798 542.225 19.6996 542.404 20.0533C542.587 20.407 542.845 20.6797 543.177 20.8714C543.51 21.0632 543.904 21.1591 544.36 21.1591C544.662 21.1591 544.939 21.1165 545.191 21.0312C545.442 20.946 545.657 20.8182 545.836 20.6477C546.015 20.4773 546.152 20.2685 546.245 20.0213L548.764 20.1875C548.636 20.7926 548.374 21.321 547.978 21.7727C547.586 22.2202 547.078 22.5696 546.456 22.821C545.838 23.0682 545.125 23.1918 544.315 23.1918ZM556.716 16.544V18.7045H550.745V16.544H556.716ZM567.205 15.9815L564.712 16.1349C564.669 15.9219 564.578 15.7301 564.437 15.5597C564.297 15.3849 564.111 15.2464 563.881 15.1442C563.655 15.0376 563.385 14.9844 563.069 14.9844C562.647 14.9844 562.292 15.0739 562.002 15.2528C561.712 15.4276 561.567 15.6619 561.567 15.956C561.567 16.1903 561.661 16.3885 561.848 16.5504C562.036 16.7124 562.358 16.8423 562.814 16.9403L564.591 17.2983C565.545 17.4943 566.257 17.8097 566.725 18.2443C567.194 18.679 567.429 19.25 567.429 19.9574C567.429 20.6009 567.239 21.1655 566.86 21.6513C566.485 22.1371 565.969 22.5163 565.313 22.7891C564.661 23.0575 563.909 23.1918 563.056 23.1918C561.757 23.1918 560.721 22.9212 559.95 22.38C559.183 21.8345 558.733 21.093 558.601 20.1555L561.279 20.0149C561.36 20.4112 561.556 20.7138 561.868 20.9226C562.179 21.1271 562.577 21.2294 563.063 21.2294C563.54 21.2294 563.924 21.1378 564.213 20.9545C564.507 20.767 564.657 20.5263 564.661 20.2322C564.657 19.9851 564.552 19.7827 564.348 19.625C564.143 19.4631 563.828 19.3395 563.402 19.2543L561.701 18.9155C560.743 18.7237 560.029 18.3913 559.56 17.9183C559.096 17.4453 558.863 16.8423 558.863 16.1094C558.863 15.4787 559.034 14.9354 559.375 14.4794C559.72 14.0234 560.203 13.6719 560.826 13.4247C561.452 13.1776 562.185 13.054 563.025 13.054C564.265 13.054 565.24 13.3161 565.952 13.8402C566.668 14.3643 567.086 15.0781 567.205 15.9815ZM574.366 13.1818V15.2273H568.453V13.1818H574.366ZM569.795 10.8295H572.518V19.983C572.518 20.2344 572.557 20.4304 572.633 20.571C572.71 20.7074 572.817 20.8033 572.953 20.8587C573.094 20.9141 573.256 20.9418 573.439 20.9418C573.567 20.9418 573.694 20.9311 573.822 20.9098C573.95 20.8842 574.048 20.8651 574.116 20.8523L574.545 22.8786C574.408 22.9212 574.216 22.9702 573.969 23.0256C573.722 23.0852 573.422 23.1214 573.068 23.1342C572.412 23.1598 571.836 23.0724 571.342 22.8722C570.852 22.6719 570.471 22.3608 570.198 21.9389C569.925 21.517 569.791 20.9844 569.795 20.3409V10.8295ZM576.139 23V13.1818H578.735V14.9141H578.85C579.054 14.3388 579.395 13.8849 579.872 13.5526C580.35 13.2202 580.921 13.054 581.585 13.054C582.259 13.054 582.832 13.2223 583.305 13.5589C583.778 13.8913 584.093 14.343 584.251 14.9141H584.353C584.553 14.3516 584.916 13.902 585.44 13.5653C585.968 13.2244 586.593 13.054 587.313 13.054C588.229 13.054 588.972 13.3459 589.544 13.9297C590.119 14.5092 590.406 15.3317 590.406 16.397V23H587.69V16.9339C587.69 16.3885 587.545 15.9794 587.255 15.7067C586.965 15.4339 586.603 15.2976 586.169 15.2976C585.674 15.2976 585.289 15.4553 585.012 15.7706C584.735 16.0817 584.596 16.4929 584.596 17.0043V23H581.956V16.8764C581.956 16.3949 581.818 16.0114 581.541 15.7259C581.268 15.4403 580.908 15.2976 580.46 15.2976C580.158 15.2976 579.885 15.3743 579.642 15.5277C579.404 15.6768 579.214 15.8878 579.073 16.1605C578.933 16.429 578.862 16.7443 578.862 17.1065V23H576.139ZM597.78 13.1818V15.2273H591.867V13.1818H597.78ZM593.209 10.8295H595.932V19.983C595.932 20.2344 595.971 20.4304 596.047 20.571C596.124 20.7074 596.231 20.8033 596.367 20.8587C596.508 20.9141 596.67 20.9418 596.853 20.9418C596.981 20.9418 597.108 20.9311 597.236 20.9098C597.364 20.8842 597.462 20.8651 597.53 20.8523L597.959 22.8786C597.822 22.9212 597.631 22.9702 597.383 23.0256C597.136 23.0852 596.836 23.1214 596.482 23.1342C595.826 23.1598 595.251 23.0724 594.756 22.8722C594.266 22.6719 593.885 22.3608 593.612 21.9389C593.339 21.517 593.205 20.9844 593.209 20.3409V10.8295Z" fill="black"/>
<rect x="488.5" y="0.5" width="116" height="32" stroke="black"/>
<path d="M158.523 76.1918C157.517 76.1918 156.652 75.9787 155.928 75.5526C155.207 75.1222 154.653 74.5256 154.266 73.7628C153.882 73 153.69 72.1222 153.69 71.1293C153.69 70.1236 153.884 69.2415 154.272 68.483C154.664 67.7202 155.22 67.1257 155.94 66.6996C156.661 66.2692 157.517 66.054 158.51 66.054C159.366 66.054 160.116 66.2095 160.76 66.5206C161.403 66.8317 161.913 67.2685 162.288 67.831C162.663 68.3935 162.869 69.054 162.908 69.8125H160.338C160.266 69.3224 160.074 68.9283 159.763 68.63C159.456 68.3274 159.053 68.1761 158.555 68.1761C158.133 68.1761 157.764 68.2912 157.449 68.5213C157.138 68.7472 156.895 69.0774 156.72 69.5121C156.545 69.9467 156.458 70.473 156.458 71.0909C156.458 71.7173 156.543 72.25 156.714 72.6889C156.888 73.1278 157.134 73.4624 157.449 73.6925C157.764 73.9226 158.133 74.0376 158.555 74.0376C158.866 74.0376 159.145 73.9737 159.392 73.8459C159.643 73.718 159.85 73.5327 160.012 73.2898C160.178 73.0426 160.287 72.7464 160.338 72.4013H162.908C162.865 73.1513 162.661 73.8118 162.294 74.3828C161.932 74.9496 161.431 75.3928 160.792 75.7124C160.153 76.032 159.396 76.1918 158.523 76.1918ZM169.087 76.1918C168.094 76.1918 167.236 75.9808 166.511 75.5589C165.791 75.1328 165.235 74.5405 164.843 73.782C164.451 73.0192 164.255 72.1349 164.255 71.1293C164.255 70.1151 164.451 69.2287 164.843 68.4702C165.235 67.7074 165.791 67.1151 166.511 66.6932C167.236 66.267 168.094 66.054 169.087 66.054C170.08 66.054 170.937 66.267 171.657 66.6932C172.381 67.1151 172.939 67.7074 173.331 68.4702C173.724 69.2287 173.92 70.1151 173.92 71.1293C173.92 72.1349 173.724 73.0192 173.331 73.782C172.939 74.5405 172.381 75.1328 171.657 75.5589C170.937 75.9808 170.08 76.1918 169.087 76.1918ZM169.1 74.0824C169.552 74.0824 169.929 73.9545 170.231 73.6989C170.534 73.4389 170.762 73.0852 170.915 72.6378C171.073 72.1903 171.152 71.6811 171.152 71.1101C171.152 70.5391 171.073 70.0298 170.915 69.5824C170.762 69.1349 170.534 68.7812 170.231 68.5213C169.929 68.2614 169.552 68.1314 169.1 68.1314C168.644 68.1314 168.26 68.2614 167.949 68.5213C167.643 68.7812 167.41 69.1349 167.253 69.5824C167.099 70.0298 167.023 70.5391 167.023 71.1101C167.023 71.6811 167.099 72.1903 167.253 72.6378C167.41 73.0852 167.643 73.4389 167.949 73.6989C168.26 73.9545 168.644 74.0824 169.1 74.0824ZM175.69 76V66.1818H178.285V67.9141H178.4C178.605 67.3388 178.946 66.8849 179.423 66.5526C179.9 66.2202 180.471 66.054 181.136 66.054C181.809 66.054 182.383 66.2223 182.856 66.5589C183.329 66.8913 183.644 67.343 183.802 67.9141H183.904C184.104 67.3516 184.466 66.902 184.991 66.5653C185.519 66.2244 186.143 66.054 186.863 66.054C187.78 66.054 188.523 66.3459 189.094 66.9297C189.67 67.5092 189.957 68.3317 189.957 69.397V76H187.241V69.9339C187.241 69.3885 187.096 68.9794 186.806 68.7067C186.516 68.4339 186.154 68.2976 185.719 68.2976C185.225 68.2976 184.839 68.4553 184.562 68.7706C184.285 69.0817 184.147 69.4929 184.147 70.0043V76H181.507V69.8764C181.507 69.3949 181.368 69.0114 181.091 68.7259C180.819 68.4403 180.459 68.2976 180.011 68.2976C179.709 68.2976 179.436 68.3743 179.193 68.5277C178.954 68.6768 178.765 68.8878 178.624 69.1605C178.483 69.429 178.413 69.7443 178.413 70.1065V76H175.69ZM192.108 76V66.1818H194.703V67.9141H194.818C195.023 67.3388 195.364 66.8849 195.841 66.5526C196.318 66.2202 196.889 66.054 197.554 66.054C198.227 66.054 198.801 66.2223 199.274 66.5589C199.747 66.8913 200.062 67.343 200.22 67.9141H200.322C200.522 67.3516 200.884 66.902 201.409 66.5653C201.937 66.2244 202.561 66.054 203.281 66.054C204.198 66.054 204.941 66.3459 205.512 66.9297C206.088 67.5092 206.375 68.3317 206.375 69.397V76H203.659V69.9339C203.659 69.3885 203.514 68.9794 203.224 68.7067C202.934 68.4339 202.572 68.2976 202.137 68.2976C201.643 68.2976 201.257 68.4553 200.98 68.7706C200.703 69.0817 200.565 69.4929 200.565 70.0043V76H197.925V69.8764C197.925 69.3949 197.786 69.0114 197.509 68.7259C197.237 68.4403 196.877 68.2976 196.429 68.2976C196.127 68.2976 195.854 68.3743 195.611 68.5277C195.372 68.6768 195.183 68.8878 195.042 69.1605C194.901 69.429 194.831 69.7443 194.831 70.1065V76H192.108ZM212.962 76.1918C211.969 76.1918 211.111 75.9808 210.386 75.5589C209.666 75.1328 209.11 74.5405 208.718 73.782C208.326 73.0192 208.13 72.1349 208.13 71.1293C208.13 70.1151 208.326 69.2287 208.718 68.4702C209.11 67.7074 209.666 67.1151 210.386 66.6932C211.111 66.267 211.969 66.054 212.962 66.054C213.955 66.054 214.812 66.267 215.532 66.6932C216.256 67.1151 216.814 67.7074 217.206 68.4702C217.599 69.2287 217.795 70.1151 217.795 71.1293C217.795 72.1349 217.599 73.0192 217.206 73.782C216.814 74.5405 216.256 75.1328 215.532 75.5589C214.812 75.9808 213.955 76.1918 212.962 76.1918ZM212.975 74.0824C213.427 74.0824 213.804 73.9545 214.106 73.6989C214.409 73.4389 214.637 73.0852 214.79 72.6378C214.948 72.1903 215.027 71.6811 215.027 71.1101C215.027 70.5391 214.948 70.0298 214.79 69.5824C214.637 69.1349 214.409 68.7812 214.106 68.5213C213.804 68.2614 213.427 68.1314 212.975 68.1314C212.519 68.1314 212.135 68.2614 211.824 68.5213C211.518 68.7812 211.285 69.1349 211.128 69.5824C210.974 70.0298 210.898 70.5391 210.898 71.1101C210.898 71.6811 210.974 72.1903 211.128 72.6378C211.285 73.0852 211.518 73.4389 211.824 73.6989C212.135 73.9545 212.519 74.0824 212.975 74.0824ZM222.288 70.3239V76H219.565V66.1818H222.16V67.9141H222.275C222.493 67.343 222.857 66.8913 223.368 66.5589C223.88 66.2223 224.5 66.054 225.229 66.054C225.91 66.054 226.505 66.2031 227.012 66.5014C227.519 66.7997 227.913 67.2259 228.194 67.7798C228.476 68.3295 228.616 68.9858 228.616 69.7486V76H225.893V70.2344C225.898 69.6335 225.744 69.1648 225.433 68.8281C225.122 68.4872 224.694 68.3168 224.148 68.3168C223.782 68.3168 223.458 68.3956 223.177 68.5533C222.9 68.7109 222.682 68.9411 222.525 69.2436C222.371 69.5419 222.292 69.902 222.288 70.3239ZM236.88 69.544V71.7045H230.909V69.544H236.88ZM244.422 66.1818V68.2273H238.51V66.1818H244.422ZM239.852 63.8295H242.575V72.983C242.575 73.2344 242.613 73.4304 242.69 73.571C242.767 73.7074 242.873 73.8033 243.01 73.8587C243.15 73.9141 243.312 73.9418 243.495 73.9418C243.623 73.9418 243.751 73.9311 243.879 73.9098C244.007 73.8842 244.105 73.8651 244.173 73.8523L244.601 75.8786C244.465 75.9212 244.273 75.9702 244.026 76.0256C243.779 76.0852 243.478 76.1214 243.125 76.1342C242.468 76.1598 241.893 76.0724 241.399 75.8722C240.909 75.6719 240.527 75.3608 240.255 74.9389C239.982 74.517 239.848 73.9844 239.852 73.3409V63.8295ZM248.996 76.1854C248.369 76.1854 247.811 76.0767 247.321 75.8594C246.831 75.6378 246.443 75.3118 246.158 74.8814C245.876 74.4467 245.736 73.9055 245.736 73.2578C245.736 72.7124 245.836 72.2543 246.036 71.8835C246.237 71.5128 246.509 71.2145 246.854 70.9886C247.2 70.7628 247.592 70.5923 248.031 70.4773C248.474 70.3622 248.938 70.2812 249.424 70.2344C249.995 70.1747 250.455 70.1193 250.805 70.0682C251.154 70.0128 251.408 69.9318 251.565 69.8253C251.723 69.7187 251.802 69.5611 251.802 69.3523V69.3139C251.802 68.9091 251.674 68.5959 251.418 68.3743C251.167 68.1527 250.809 68.0419 250.344 68.0419C249.854 68.0419 249.464 68.1506 249.175 68.3679C248.885 68.581 248.693 68.8494 248.599 69.1733L246.081 68.9688C246.209 68.3722 246.46 67.8565 246.835 67.4219C247.21 66.983 247.694 66.6463 248.286 66.4119C248.883 66.1733 249.573 66.054 250.357 66.054C250.903 66.054 251.425 66.1179 251.923 66.2457C252.426 66.3736 252.871 66.5717 253.259 66.8402C253.651 67.1087 253.96 67.4538 254.186 67.8757C254.412 68.2933 254.525 68.794 254.525 69.3778V76H251.942V74.6385H251.866C251.708 74.9453 251.497 75.2159 251.233 75.4503C250.969 75.6804 250.651 75.8615 250.281 75.9936C249.91 76.1214 249.482 76.1854 248.996 76.1854ZM249.776 74.3061C250.176 74.3061 250.53 74.2273 250.837 74.0696C251.143 73.9077 251.384 73.6903 251.559 73.4176C251.734 73.1449 251.821 72.8359 251.821 72.4908V71.4489C251.736 71.5043 251.619 71.5554 251.469 71.6023C251.325 71.6449 251.161 71.6854 250.977 71.7237C250.794 71.7578 250.611 71.7898 250.428 71.8196C250.244 71.8452 250.078 71.8686 249.929 71.8899C249.609 71.9368 249.33 72.0114 249.092 72.1136C248.853 72.2159 248.668 72.3544 248.536 72.5291C248.403 72.6996 248.337 72.9126 248.337 73.1683C248.337 73.5391 248.472 73.8224 248.74 74.0185C249.013 74.2102 249.358 74.3061 249.776 74.3061ZM256.689 76V62.9091H259.412V67.831H259.495C259.614 67.5668 259.787 67.2983 260.012 67.0256C260.243 66.7486 260.541 66.5185 260.907 66.3352C261.278 66.1477 261.738 66.054 262.288 66.054C263.004 66.054 263.664 66.2415 264.27 66.6165C264.875 66.9872 265.358 67.5476 265.721 68.2976C266.083 69.0433 266.264 69.9787 266.264 71.1037C266.264 72.1989 266.087 73.1236 265.733 73.8778C265.384 74.6278 264.907 75.1967 264.301 75.5845C263.701 75.968 263.027 76.1598 262.282 76.1598C261.753 76.1598 261.304 76.0724 260.933 75.8977C260.566 75.723 260.266 75.5036 260.032 75.2393C259.797 74.9709 259.618 74.7003 259.495 74.4276H259.373V76H256.689ZM259.354 71.0909C259.354 71.6747 259.435 72.1839 259.597 72.6186C259.759 73.0533 259.993 73.392 260.3 73.6349C260.607 73.8736 260.98 73.9929 261.419 73.9929C261.862 73.9929 262.237 73.8714 262.544 73.6286C262.85 73.3814 263.083 73.0405 263.24 72.6058C263.402 72.1669 263.483 71.6619 263.483 71.0909C263.483 70.5241 263.404 70.0256 263.247 69.5952C263.089 69.1648 262.857 68.8281 262.55 68.5852C262.243 68.3423 261.866 68.2209 261.419 68.2209C260.975 68.2209 260.6 68.3381 260.294 68.5724C259.991 68.8068 259.759 69.1392 259.597 69.5696C259.435 70 259.354 70.5071 259.354 71.0909ZM270.804 62.9091V76H268.081V62.9091H270.804ZM277.46 76.1918C276.45 76.1918 275.58 75.9872 274.852 75.5781C274.127 75.1648 273.569 74.581 273.177 73.8267C272.785 73.0682 272.589 72.1712 272.589 71.1357C272.589 70.1257 272.785 69.2393 273.177 68.4766C273.569 67.7138 274.121 67.1193 274.832 66.6932C275.548 66.267 276.388 66.054 277.351 66.054C277.999 66.054 278.602 66.1584 279.16 66.3672C279.722 66.5717 280.212 66.8807 280.63 67.294C281.052 67.7074 281.38 68.2273 281.614 68.8537C281.849 69.4759 281.966 70.2045 281.966 71.0398V71.7876H273.675V70.1001H279.403C279.403 69.7081 279.317 69.3608 279.147 69.0582C278.977 68.7557 278.74 68.5192 278.438 68.3487C278.139 68.174 277.792 68.0866 277.396 68.0866C276.982 68.0866 276.616 68.1825 276.296 68.3743C275.981 68.5618 275.734 68.8153 275.555 69.1349C275.376 69.4503 275.284 69.8018 275.28 70.1896V71.794C275.28 72.2798 275.369 72.6996 275.548 73.0533C275.732 73.407 275.989 73.6797 276.322 73.8714C276.654 74.0632 277.048 74.1591 277.504 74.1591C277.807 74.1591 278.084 74.1165 278.335 74.0312C278.587 73.946 278.802 73.8182 278.981 73.6477C279.16 73.4773 279.296 73.2685 279.39 73.0213L281.908 73.1875C281.781 73.7926 281.518 74.321 281.122 74.7727C280.73 75.2202 280.223 75.5696 279.601 75.821C278.983 76.0682 278.269 76.1918 277.46 76.1918ZM289.86 69.544V71.7045H283.89V69.544H289.86ZM296.655 76.1918C295.645 76.1918 294.776 75.9872 294.047 75.5781C293.322 75.1648 292.764 74.581 292.372 73.8267C291.98 73.0682 291.784 72.1712 291.784 71.1357C291.784 70.1257 291.98 69.2393 292.372 68.4766C292.764 67.7138 293.316 67.1193 294.028 66.6932C294.744 66.267 295.583 66.054 296.546 66.054C297.194 66.054 297.797 66.1584 298.355 66.3672C298.918 66.5717 299.408 66.8807 299.825 67.294C300.247 67.7074 300.575 68.2273 300.81 68.8537C301.044 69.4759 301.161 70.2045 301.161 71.0398V71.7876H292.871V70.1001H298.598C298.598 69.7081 298.513 69.3608 298.342 69.0582C298.172 68.7557 297.935 68.5192 297.633 68.3487C297.335 68.174 296.987 68.0866 296.591 68.0866C296.178 68.0866 295.811 68.1825 295.491 68.3743C295.176 68.5618 294.929 68.8153 294.75 69.1349C294.571 69.4503 294.479 69.8018 294.475 70.1896V71.794C294.475 72.2798 294.565 72.6996 294.744 73.0533C294.927 73.407 295.185 73.6797 295.517 73.8714C295.849 74.0632 296.244 74.1591 296.7 74.1591C297.002 74.1591 297.279 74.1165 297.531 74.0312C297.782 73.946 297.997 73.8182 298.176 73.6477C298.355 73.4773 298.491 73.2685 298.585 73.0213L301.104 73.1875C300.976 73.7926 300.714 74.321 300.317 74.7727C299.925 75.2202 299.418 75.5696 298.796 75.821C298.178 76.0682 297.464 76.1918 296.655 76.1918ZM305.038 66.1818L306.841 69.6143L308.688 66.1818H311.481L308.637 71.0909L311.558 76H308.777L306.841 72.6058L304.936 76H302.123L305.038 71.0909L302.225 66.1818H305.038ZM313.098 79.6818V66.1818H315.783V67.831H315.904C316.024 67.5668 316.196 67.2983 316.422 67.0256C316.652 66.7486 316.951 66.5185 317.317 66.3352C317.688 66.1477 318.148 66.054 318.698 66.054C319.414 66.054 320.074 66.2415 320.679 66.6165C321.284 66.9872 321.768 67.5476 322.13 68.2976C322.493 69.0433 322.674 69.9787 322.674 71.1037C322.674 72.1989 322.497 73.1236 322.143 73.8778C321.794 74.6278 321.316 75.1967 320.711 75.5845C320.11 75.968 319.437 76.1598 318.691 76.1598C318.163 76.1598 317.713 76.0724 317.343 75.8977C316.976 75.723 316.676 75.5036 316.441 75.2393C316.207 74.9709 316.028 74.7003 315.904 74.4276H315.821V79.6818H313.098ZM315.764 71.0909C315.764 71.6747 315.845 72.1839 316.007 72.6186C316.169 73.0533 316.403 73.392 316.71 73.6349C317.017 73.8736 317.39 73.9929 317.828 73.9929C318.272 73.9929 318.647 73.8714 318.953 73.6286C319.26 73.3814 319.493 73.0405 319.65 72.6058C319.812 72.1669 319.893 71.6619 319.893 71.0909C319.893 70.5241 319.814 70.0256 319.657 69.5952C319.499 69.1648 319.267 68.8281 318.96 68.5852C318.653 68.3423 318.276 68.2209 317.828 68.2209C317.385 68.2209 317.01 68.3381 316.703 68.5724C316.401 68.8068 316.169 69.1392 316.007 69.5696C315.845 70 315.764 70.5071 315.764 71.0909ZM324.489 76V66.1818H327.129V67.8949H327.231C327.41 67.2855 327.711 66.8253 328.132 66.5142C328.554 66.1989 329.04 66.0412 329.59 66.0412C329.726 66.0412 329.873 66.0497 330.031 66.0668C330.189 66.0838 330.327 66.1072 330.446 66.1371V68.5533C330.319 68.5149 330.142 68.4808 329.916 68.451C329.69 68.4212 329.483 68.4062 329.296 68.4062C328.895 68.4062 328.537 68.4936 328.222 68.6683C327.911 68.8388 327.664 69.0774 327.48 69.3842C327.301 69.6911 327.212 70.0447 327.212 70.4453V76H324.489ZM335.872 76.1918C334.862 76.1918 333.992 75.9872 333.264 75.5781C332.539 75.1648 331.981 74.581 331.589 73.8267C331.197 73.0682 331.001 72.1712 331.001 71.1357C331.001 70.1257 331.197 69.2393 331.589 68.4766C331.981 67.7138 332.533 67.1193 333.244 66.6932C333.96 66.267 334.8 66.054 335.763 66.054C336.411 66.054 337.014 66.1584 337.572 66.3672C338.134 66.5717 338.624 66.8807 339.042 67.294C339.464 67.7074 339.792 68.2273 340.026 68.8537C340.261 69.4759 340.378 70.2045 340.378 71.0398V71.7876H332.088V70.1001H337.815C337.815 69.7081 337.73 69.3608 337.559 69.0582C337.389 68.7557 337.152 68.5192 336.85 68.3487C336.551 68.174 336.204 68.0866 335.808 68.0866C335.394 68.0866 335.028 68.1825 334.708 68.3743C334.393 68.5618 334.146 68.8153 333.967 69.1349C333.788 69.4503 333.696 69.8018 333.692 70.1896V71.794C333.692 72.2798 333.781 72.6996 333.96 73.0533C334.144 73.407 334.401 73.6797 334.734 73.8714C335.066 74.0632 335.46 74.1591 335.916 74.1591C336.219 74.1591 336.496 74.1165 336.747 74.0312C336.999 73.946 337.214 73.8182 337.393 73.6477C337.572 73.4773 337.708 73.2685 337.802 73.0213L340.32 73.1875C340.193 73.7926 339.931 74.321 339.534 74.7727C339.142 75.2202 338.635 75.5696 338.013 75.821C337.395 76.0682 336.681 76.1918 335.872 76.1918ZM350.324 68.9815L347.831 69.1349C347.789 68.9219 347.697 68.7301 347.556 68.5597C347.416 68.3849 347.23 68.2464 347 68.1442C346.774 68.0376 346.504 67.9844 346.188 67.9844C345.767 67.9844 345.411 68.0739 345.121 68.2528C344.831 68.4276 344.686 68.6619 344.686 68.956C344.686 69.1903 344.78 69.3885 344.968 69.5504C345.155 69.7124 345.477 69.8423 345.933 69.9403L347.71 70.2983C348.664 70.4943 349.376 70.8097 349.845 71.2443C350.313 71.679 350.548 72.25 350.548 72.9574C350.548 73.6009 350.358 74.1655 349.979 74.6513C349.604 75.1371 349.088 75.5163 348.432 75.7891C347.78 76.0575 347.028 76.1918 346.176 76.1918C344.876 76.1918 343.84 75.9212 343.069 75.38C342.302 74.8345 341.852 74.093 341.72 73.1555L344.399 73.0149C344.48 73.4112 344.676 73.7138 344.987 73.9226C345.298 74.1271 345.696 74.2294 346.182 74.2294C346.659 74.2294 347.043 74.1378 347.333 73.9545C347.627 73.767 347.776 73.5263 347.78 73.2322C347.776 72.9851 347.671 72.7827 347.467 72.625C347.262 72.4631 346.947 72.3395 346.521 72.2543L344.82 71.9155C343.862 71.7237 343.148 71.3913 342.679 70.9183C342.215 70.4453 341.982 69.8423 341.982 69.1094C341.982 68.4787 342.153 67.9354 342.494 67.4794C342.839 67.0234 343.323 66.6719 343.945 66.4247C344.571 66.1776 345.304 66.054 346.144 66.054C347.384 66.054 348.36 66.3161 349.071 66.8402C349.787 67.3643 350.205 68.0781 350.324 68.9815ZM360.431 68.9815L357.939 69.1349C357.896 68.9219 357.804 68.7301 357.664 68.5597C357.523 68.3849 357.338 68.2464 357.108 68.1442C356.882 68.0376 356.611 67.9844 356.296 67.9844C355.874 67.9844 355.518 68.0739 355.228 68.2528C354.939 68.4276 354.794 68.6619 354.794 68.956C354.794 69.1903 354.887 69.3885 355.075 69.5504C355.262 69.7124 355.584 69.8423 356.04 69.9403L357.817 70.2983C358.772 70.4943 359.483 70.8097 359.952 71.2443C360.421 71.679 360.655 72.25 360.655 72.9574C360.655 73.6009 360.466 74.1655 360.086 74.6513C359.711 75.1371 359.196 75.5163 358.539 75.7891C357.887 76.0575 357.135 76.1918 356.283 76.1918C354.983 76.1918 353.948 75.9212 353.176 75.38C352.409 74.8345 351.96 74.093 351.828 73.1555L354.506 73.0149C354.587 73.4112 354.783 73.7138 355.094 73.9226C355.405 74.1271 355.804 74.2294 356.289 74.2294C356.767 74.2294 357.15 74.1378 357.44 73.9545C357.734 73.767 357.883 73.5263 357.887 73.2322C357.883 72.9851 357.779 72.7827 357.574 72.625C357.37 72.4631 357.054 72.3395 356.628 72.2543L354.928 71.9155C353.969 71.7237 353.255 71.3913 352.787 70.9183C352.322 70.4453 352.09 69.8423 352.09 69.1094C352.09 68.4787 352.26 67.9354 352.601 67.4794C352.946 67.0234 353.43 66.6719 354.052 66.4247C354.679 66.1776 355.412 66.054 356.251 66.054C357.491 66.054 358.467 66.3161 359.179 66.8402C359.895 67.3643 360.312 68.0781 360.431 68.9815ZM362.37 76V66.1818H365.093V76H362.37ZM363.738 64.9162C363.333 64.9162 362.986 64.782 362.696 64.5135C362.41 64.2408 362.268 63.9148 362.268 63.5355C362.268 63.1605 362.41 62.8388 362.696 62.5703C362.986 62.2976 363.333 62.1612 363.738 62.1612C364.143 62.1612 364.488 62.2976 364.773 62.5703C365.063 62.8388 365.208 63.1605 365.208 63.5355C365.208 63.9148 365.063 64.2408 364.773 64.5135C364.488 64.782 364.143 64.9162 363.738 64.9162ZM371.71 76.1918C370.717 76.1918 369.859 75.9808 369.134 75.5589C368.414 75.1328 367.858 74.5405 367.466 73.782C367.074 73.0192 366.878 72.1349 366.878 71.1293C366.878 70.1151 367.074 69.2287 367.466 68.4702C367.858 67.7074 368.414 67.1151 369.134 66.6932C369.859 66.267 370.717 66.054 371.71 66.054C372.703 66.054 373.56 66.267 374.28 66.6932C375.004 67.1151 375.562 67.7074 375.955 68.4702C376.347 69.2287 376.543 70.1151 376.543 71.1293C376.543 72.1349 376.347 73.0192 375.955 73.782C375.562 74.5405 375.004 75.1328 374.28 75.5589C373.56 75.9808 372.703 76.1918 371.71 76.1918ZM371.723 74.0824C372.175 74.0824 372.552 73.9545 372.854 73.6989C373.157 73.4389 373.385 73.0852 373.538 72.6378C373.696 72.1903 373.775 71.6811 373.775 71.1101C373.775 70.5391 373.696 70.0298 373.538 69.5824C373.385 69.1349 373.157 68.7812 372.854 68.5213C372.552 68.2614 372.175 68.1314 371.723 68.1314C371.267 68.1314 370.884 68.2614 370.572 68.5213C370.266 68.7812 370.033 69.1349 369.876 69.5824C369.722 70.0298 369.646 70.5391 369.646 71.1101C369.646 71.6811 369.722 72.1903 369.876 72.6378C370.033 73.0852 370.266 73.4389 370.572 73.6989C370.884 73.9545 371.267 74.0824 371.723 74.0824ZM381.036 70.3239V76H378.313V66.1818H380.908V67.9141H381.023C381.241 67.343 381.605 66.8913 382.116 66.5589C382.628 66.2223 383.248 66.054 383.977 66.054C384.658 66.054 385.253 66.2031 385.76 66.5014C386.267 66.7997 386.661 67.2259 386.942 67.7798C387.224 68.3295 387.364 68.9858 387.364 69.7486V76H384.641V70.2344C384.646 69.6335 384.492 69.1648 384.181 68.8281C383.87 68.4872 383.442 68.3168 382.896 68.3168C382.53 68.3168 382.206 68.3956 381.925 68.5533C381.648 68.7109 381.43 68.9411 381.273 69.2436C381.119 69.5419 381.04 69.902 381.036 70.3239Z" fill="black"/>
<rect x="146.5" y="53.5" width="248" height="32" stroke="black"/>
<path d="M55.0845 76L51.3388 62.9091H54.3622L56.5291 72.005H56.6378L59.0284 62.9091H61.6172L64.0014 72.0241H64.1165L66.2834 62.9091H69.3068L65.5611 76H62.8636L60.3707 67.4411H60.2685L57.782 76H55.0845ZM73.5559 62.9091V76H70.7882V62.9091H73.5559ZM75.3345 65.1911V62.9091H86.0859V65.1911H82.0781V76H79.3423V65.1911H75.3345ZM87.8565 76V62.9091H90.6243V68.3104H96.2429V62.9091H99.0043V76H96.2429V70.5923H90.6243V76H87.8565Z" fill="black"/>
<rect x="42.5" y="53.5" width="65" height="32" rx="16" stroke="black"/>
<path d="M256.046 121.21L255.976 121.913C255.92 122.476 255.814 123.036 255.656 123.594C255.503 124.157 255.341 124.666 255.17 125.122C255.004 125.578 254.87 125.936 254.768 126.196H253.004C253.067 125.945 253.155 125.593 253.266 125.141C253.376 124.694 253.481 124.191 253.579 123.633C253.677 123.075 253.739 122.506 253.764 121.926L253.796 121.21H256.046Z" fill="black"/>
<rect x="238.5" y="101.5" width="32" height="32" rx="16" stroke="black"/>
<path d="M492.087 66V56.1818H494.81V66H492.087ZM493.455 54.9162C493.05 54.9162 492.702 54.782 492.413 54.5135C492.127 54.2408 491.984 53.9148 491.984 53.5355C491.984 53.1605 492.127 52.8388 492.413 52.5703C492.702 52.2976 493.05 52.1612 493.455 52.1612C493.859 52.1612 494.205 52.2976 494.49 52.5703C494.78 52.8388 494.925 53.1605 494.925 53.5355C494.925 53.9148 494.78 54.2408 494.49 54.5135C494.205 54.782 493.859 54.9162 493.455 54.9162ZM499.714 60.3239V66H496.991V56.1818H499.586V57.9141H499.701C499.919 57.343 500.283 56.8913 500.794 56.5589C501.306 56.2223 501.926 56.054 502.654 56.054C503.336 56.054 503.931 56.2031 504.438 56.5014C504.945 56.7997 505.339 57.2259 505.62 57.7798C505.901 58.3295 506.042 58.9858 506.042 59.7486V66H503.319V60.2344C503.323 59.6335 503.17 59.1648 502.859 58.8281C502.548 58.4872 502.119 58.3168 501.574 58.3168C501.208 58.3168 500.884 58.3956 500.602 58.5533C500.325 58.7109 500.108 58.9411 499.95 59.2436C499.797 59.5419 499.718 59.902 499.714 60.3239ZM516.357 58.9815L513.864 59.1349C513.822 58.9219 513.73 58.7301 513.589 58.5597C513.449 58.3849 513.263 58.2464 513.033 58.1442C512.808 58.0376 512.537 57.9844 512.222 57.9844C511.8 57.9844 511.444 58.0739 511.154 58.2528C510.864 58.4276 510.719 58.6619 510.719 58.956C510.719 59.1903 510.813 59.3885 511.001 59.5504C511.188 59.7124 511.51 59.8423 511.966 59.9403L513.743 60.2983C514.697 60.4943 515.409 60.8097 515.878 61.2443C516.347 61.679 516.581 62.25 516.581 62.9574C516.581 63.6009 516.391 64.1655 516.012 64.6513C515.637 65.1371 515.121 65.5163 514.465 65.7891C513.813 66.0575 513.061 66.1918 512.209 66.1918C510.909 66.1918 509.874 65.9212 509.102 65.38C508.335 64.8345 507.886 64.093 507.754 63.1555L510.432 63.0149C510.513 63.4112 510.709 63.7138 511.02 63.9226C511.331 64.1271 511.729 64.2294 512.215 64.2294C512.692 64.2294 513.076 64.1378 513.366 63.9545C513.66 63.767 513.809 63.5263 513.813 63.2322C513.809 62.9851 513.705 62.7827 513.5 62.625C513.295 62.4631 512.98 62.3395 512.554 62.2543L510.854 61.9155C509.895 61.7237 509.181 61.3913 508.712 60.9183C508.248 60.4453 508.016 59.8423 508.016 59.1094C508.016 58.4787 508.186 57.9354 508.527 57.4794C508.872 57.0234 509.356 56.6719 509.978 56.4247C510.604 56.1776 511.337 56.054 512.177 56.054C513.417 56.054 514.393 56.3161 515.104 56.8402C515.82 57.3643 516.238 58.0781 516.357 58.9815ZM522.77 66.1918C521.76 66.1918 520.891 65.9872 520.162 65.5781C519.438 65.1648 518.879 64.581 518.487 63.8267C518.095 63.0682 517.899 62.1712 517.899 61.1357C517.899 60.1257 518.095 59.2393 518.487 58.4766C518.879 57.7138 519.431 57.1193 520.143 56.6932C520.859 56.267 521.698 56.054 522.661 56.054C523.309 56.054 523.912 56.1584 524.47 56.3672C525.033 56.5717 525.523 56.8807 525.941 57.294C526.362 57.7074 526.691 58.2273 526.925 58.8537C527.159 59.4759 527.276 60.2045 527.276 61.0398V61.7876H518.986V60.1001H524.713C524.713 59.7081 524.628 59.3608 524.458 59.0582C524.287 58.7557 524.051 58.5192 523.748 58.3487C523.45 58.174 523.102 58.0866 522.706 58.0866C522.293 58.0866 521.926 58.1825 521.607 58.3743C521.291 58.5618 521.044 58.8153 520.865 59.1349C520.686 59.4503 520.595 59.8018 520.59 60.1896V61.794C520.59 62.2798 520.68 62.6996 520.859 63.0533C521.042 63.407 521.3 63.6797 521.632 63.8714C521.965 64.0632 522.359 64.1591 522.815 64.1591C523.117 64.1591 523.394 64.1165 523.646 64.0312C523.897 63.946 524.112 63.8182 524.291 63.6477C524.47 63.4773 524.607 63.2685 524.7 63.0213L527.219 63.1875C527.091 63.7926 526.829 64.321 526.433 64.7727C526.041 65.2202 525.534 65.5696 524.911 65.821C524.294 66.0682 523.58 66.1918 522.77 66.1918ZM529.053 66V56.1818H531.693V57.8949H531.796C531.975 57.2855 532.275 56.8253 532.697 56.5142C533.119 56.1989 533.605 56.0412 534.154 56.0412C534.291 56.0412 534.438 56.0497 534.595 56.0668C534.753 56.0838 534.892 56.1072 535.011 56.1371V58.5533C534.883 58.5149 534.706 58.4808 534.48 58.451C534.254 58.4212 534.048 58.4062 533.86 58.4062C533.46 58.4062 533.102 58.4936 532.786 58.6683C532.475 58.8388 532.228 59.0774 532.045 59.3842C531.866 59.6911 531.776 60.0447 531.776 60.4453V66H529.053ZM542.133 56.1818V58.2273H536.221V56.1818H542.133ZM537.563 53.8295H540.286V62.983C540.286 63.2344 540.324 63.4304 540.401 63.571C540.478 63.7074 540.584 63.8033 540.721 63.8587C540.861 63.9141 541.023 63.9418 541.206 63.9418C541.334 63.9418 541.462 63.9311 541.59 63.9098C541.718 63.8842 541.816 63.8651 541.884 63.8523L542.312 65.8786C542.176 65.9212 541.984 65.9702 541.737 66.0256C541.49 66.0852 541.189 66.1214 540.836 66.1342C540.179 66.1598 539.604 66.0724 539.11 65.8722C538.62 65.6719 538.238 65.3608 537.966 64.9389C537.693 64.517 537.559 63.9844 537.563 63.3409V53.8295ZM549.725 59.544V61.7045H543.755V59.544H549.725ZM560.215 58.9815L557.722 59.1349C557.679 58.9219 557.588 58.7301 557.447 58.5597C557.306 58.3849 557.121 58.2464 556.891 58.1442C556.665 58.0376 556.394 57.9844 556.079 57.9844C555.657 57.9844 555.301 58.0739 555.012 58.2528C554.722 58.4276 554.577 58.6619 554.577 58.956C554.577 59.1903 554.671 59.3885 554.858 59.5504C555.046 59.7124 555.367 59.8423 555.823 59.9403L557.6 60.2983C558.555 60.4943 559.267 60.8097 559.735 61.2443C560.204 61.679 560.438 62.25 560.438 62.9574C560.438 63.6009 560.249 64.1655 559.869 64.6513C559.494 65.1371 558.979 65.5163 558.323 65.7891C557.671 66.0575 556.919 66.1918 556.066 66.1918C554.767 66.1918 553.731 65.9212 552.96 65.38C552.193 64.8345 551.743 64.093 551.611 63.1555L554.289 63.0149C554.37 63.4112 554.566 63.7138 554.877 63.9226C555.188 64.1271 555.587 64.2294 556.073 64.2294C556.55 64.2294 556.933 64.1378 557.223 63.9545C557.517 63.767 557.666 63.5263 557.671 63.2322C557.666 62.9851 557.562 62.7827 557.357 62.625C557.153 62.4631 556.838 62.3395 556.411 62.2543L554.711 61.9155C553.752 61.7237 553.039 61.3913 552.57 60.9183C552.105 60.4453 551.873 59.8423 551.873 59.1094C551.873 58.4787 552.044 57.9354 552.384 57.4794C552.73 57.0234 553.213 56.6719 553.835 56.4247C554.462 56.1776 555.195 56.054 556.034 56.054C557.274 56.054 558.25 56.3161 558.962 56.8402C559.678 57.3643 560.095 58.0781 560.215 58.9815ZM567.375 56.1818V58.2273H561.463V56.1818H567.375ZM562.805 53.8295H565.528V62.983C565.528 63.2344 565.566 63.4304 565.643 63.571C565.72 63.7074 565.826 63.8033 565.963 63.8587C566.103 63.9141 566.265 63.9418 566.449 63.9418C566.576 63.9418 566.704 63.9311 566.832 63.9098C566.96 63.8842 567.058 63.8651 567.126 63.8523L567.554 65.8786C567.418 65.9212 567.226 65.9702 566.979 66.0256C566.732 66.0852 566.431 66.1214 566.078 66.1342C565.422 66.1598 564.846 66.0724 564.352 65.8722C563.862 65.6719 563.48 65.3608 563.208 64.9389C562.935 64.517 562.801 63.9844 562.805 63.3409V53.8295ZM569.149 66V56.1818H571.744V57.9141H571.859C572.064 57.3388 572.405 56.8849 572.882 56.5526C573.359 56.2202 573.93 56.054 574.595 56.054C575.268 56.054 575.842 56.2223 576.315 56.5589C576.788 56.8913 577.103 57.343 577.261 57.9141H577.363C577.563 57.3516 577.925 56.902 578.45 56.5653C578.978 56.2244 579.602 56.054 580.322 56.054C581.239 56.054 581.982 56.3459 582.553 56.9297C583.129 57.5092 583.416 58.3317 583.416 59.397V66H580.7V59.9339C580.7 59.3885 580.555 58.9794 580.265 58.7067C579.975 58.4339 579.613 58.2976 579.178 58.2976C578.684 58.2976 578.298 58.4553 578.021 58.7706C577.744 59.0817 577.606 59.4929 577.606 60.0043V66H574.966V59.8764C574.966 59.3949 574.827 59.0114 574.55 58.7259C574.278 58.4403 573.918 58.2976 573.47 58.2976C573.168 58.2976 572.895 58.3743 572.652 58.5277C572.413 58.6768 572.224 58.8878 572.083 59.1605C571.942 59.429 571.872 59.7443 571.872 60.1065V66H569.149ZM590.789 56.1818V58.2273H584.877V56.1818H590.789ZM586.219 53.8295H588.942V62.983C588.942 63.2344 588.98 63.4304 589.057 63.571C589.134 63.7074 589.24 63.8033 589.377 63.8587C589.517 63.9141 589.679 63.9418 589.863 63.9418C589.99 63.9418 590.118 63.9311 590.246 63.9098C590.374 63.8842 590.472 63.8651 590.54 63.8523L590.968 65.8786C590.832 65.9212 590.64 65.9702 590.393 66.0256C590.146 66.0852 589.846 66.1214 589.492 66.1342C588.836 66.1598 588.26 66.0724 587.766 65.8722C587.276 65.6719 586.895 65.3608 586.622 64.9389C586.349 64.517 586.215 63.9844 586.219 63.3409V53.8295Z" fill="black"/>
<rect x="487.5" y="43.5" width="108" height="32" stroke="black"/>
<path d="M488 17L478 11.2265L478 22.7735L488 17ZM188 18L479 18L479 16L188 16L188 18Z" fill="black"/>
<path d="M251 17.001L241 11.2275L241 22.7745L251 17.001ZM8 18.0013L242 18.001L242 16.001L8 16.0013L8 18.0013Z" fill="black"/>
<path d="M20 27L21 27L21 27L20 27ZM20 60L21 60L21 60L20 60ZM42 70L32 64.2265L32 75.7735L42 70ZM8 18L10 18L10 16L8 16L8 18ZM19 27L19 60L21 60L21 27L19 27ZM30 71L33 71L33 69L30 69L30 71ZM19 60C19 66.0751 23.9249 71 30 71L30 69C25.0294 69 21 64.9706 21 60L19 60ZM10 18C14.9706 18 19 22.0294 19 27L21 27C21 20.9249 16.0751 16 10 16L10 18Z" fill="black"/>
<path d="M146 70L136 64.2265L136 75.7735L146 70ZM108 71L137 71L137 69L108 69L108 71Z" fill="black"/>
<path d="M146 70L136 64.2265V75.7735L146 70ZM238 116L125.5 116V118L238 118V116ZM116.5 107V80H114.5V107H116.5ZM125.5 71H137V69H125.5V71ZM116.5 80C116.5 75.0294 120.529 71 125.5 71V69C119.425 69 114.5 73.9249 114.5 80H116.5ZM125.5 116C120.529 116 116.5 111.971 116.5 107H114.5C114.5 113.075 119.425 118 125.5 118V116Z" fill="black"/>
<path d="M409 60L408 60V60L409 60ZM409 27L410 27L410 27L409 27ZM419 17L419 16L419 16L419 17ZM426 17L416 11.2265L416 22.7735L426 17ZM395 71L399 71L399 69L395 69L395 71ZM410 60L410 27L408 27L408 60L410 60ZM410 27C410 22.0295 414.029 18 419 18L419 16C412.925 16 408 20.9249 408 27L410 27ZM399 71C405.075 71 410 66.0752 410 60L408 60C408 64.9706 403.971 69 399 69L399 71Z" fill="black"/>
<path d="M271.5 116L281.5 121.774L281.5 110.226L271.5 116ZM393.999 71L399.5 71L399.5 69L393.999 69L393.999 71ZM408.5 80L408.5 106L410.5 106L410.5 80L408.5 80ZM399.5 115L280.5 115L280.5 117L399.5 117L399.5 115ZM408.5 106C408.5 110.971 404.47 115 399.5 115L399.5 117C405.575 117 410.5 112.075 410.5 106L408.5 106ZM399.5 71C404.47 71 408.5 75.0295 408.5 80L410.5 80C410.5 73.9249 405.575 69 399.5 69L399.5 71Z" fill="black"/>
<path d="M637 17L627 11.2265V22.7735L637 17ZM616 18H628V16H616V18Z" fill="black"/>
<path d="M637 60L627 54.2265V65.7735L637 60ZM616 61H628V59H616V61Z" fill="black"/>
<path d="M637 103L627 97.2265V108.774L637 103ZM616 104H628V102H616V104Z" fill="black"/>
<path d="M637 146L627 140.226V151.774L637 146ZM616 147H628V145H616V147Z" fill="black"/>
<path d="M709 17L699 11.2265L699 22.7735L709 17ZM605 18L700 18L700 16L605 16L605 18Z" fill="black"/>
<path d="M596 60L673.376 60C678.899 60 683.376 55.5228 683.376 50V27C683.376 21.4772 687.853 17 693.376 17H695" stroke="black" stroke-width="2"/>
<path d="M607.5 146L673.248 146C678.771 146 683.248 141.523 683.248 136V26.7517C683.248 21.366 687.614 17 693 17V17" stroke="black" stroke-width="2"/>
<path d="M595.5 103L648.652 103H673.304C678.827 103 683.304 98.5228 683.304 93V27C683.304 21.4772 687.781 17 693.304 17H695" stroke="black" stroke-width="2"/>
</svg>
