<svg width="561" height="267" viewBox="0 0 561 267" fill="none" xmlns="http://www.w3.org/2000/svg">
<circle cx="557" cy="34" r="3.5" stroke="black"/>
<circle cx="4" cy="34" r="3.5" stroke="black"/>
<path d="M228.394 39H225.428L229.947 25.9091H233.514L238.027 39H235.061L231.782 28.9006H231.68L228.394 39ZM228.209 33.8544H235.214V36.0149H228.209V33.8544ZM246.405 29.674C246.354 29.1584 246.135 28.7578 245.747 28.4723C245.359 28.1868 244.833 28.044 244.168 28.044C243.716 28.044 243.335 28.108 243.024 28.2358C242.713 28.3594 242.474 28.532 242.308 28.7536C242.146 28.9751 242.065 29.2266 242.065 29.5078C242.057 29.7422 242.106 29.9467 242.212 30.1214C242.323 30.2962 242.474 30.4474 242.666 30.5753C242.858 30.6989 243.079 30.8075 243.331 30.9013C243.582 30.9908 243.851 31.0675 244.136 31.1314L245.312 31.4126C245.883 31.5405 246.407 31.7109 246.885 31.924C247.362 32.1371 247.775 32.3991 248.125 32.7102C248.474 33.0213 248.745 33.3878 248.937 33.8097C249.133 34.2315 249.233 34.7152 249.237 35.2607C249.233 36.0618 249.028 36.7564 248.623 37.3445C248.223 37.9283 247.643 38.3821 246.885 38.706C246.131 39.0256 245.221 39.1854 244.155 39.1854C243.099 39.1854 242.178 39.0234 241.394 38.6996C240.614 38.3757 240.005 37.8963 239.566 37.2614C239.131 36.6222 238.903 35.8317 238.882 34.8899H241.56C241.59 35.3288 241.716 35.6953 241.937 35.9893C242.163 36.2791 242.464 36.4986 242.839 36.6477C243.218 36.7926 243.646 36.8651 244.123 36.8651C244.592 36.8651 244.999 36.7969 245.344 36.6605C245.694 36.5241 245.964 36.3345 246.156 36.0916C246.348 35.8487 246.444 35.5696 246.444 35.2543C246.444 34.9602 246.356 34.7131 246.182 34.5128C246.011 34.3125 245.76 34.142 245.427 34.0014C245.099 33.8608 244.697 33.733 244.219 33.6179L242.794 33.2599C241.69 32.9915 240.819 32.5717 240.18 32.0007C239.54 31.4297 239.223 30.6605 239.227 29.6932C239.223 28.9006 239.434 28.2081 239.86 27.6158C240.29 27.0234 240.881 26.5611 241.631 26.2287C242.381 25.8963 243.233 25.7301 244.187 25.7301C245.159 25.7301 246.007 25.8963 246.731 26.2287C247.46 26.5611 248.027 27.0234 248.432 27.6158C248.836 28.2081 249.045 28.8942 249.058 29.674H246.405Z" fill="black"/>
<rect x="213.5" y="16.5" width="48" height="32" rx="16" stroke="black"/>
<path d="M68.6875 132.752C68.6875 131.167 68.8984 129.707 69.3203 128.374C69.7464 127.04 70.3963 125.804 71.2699 124.666H73.8714C73.5391 125.088 73.2301 125.604 72.9446 126.213C72.6591 126.818 72.4098 127.483 72.1967 128.207C71.9837 128.932 71.8175 129.682 71.6982 130.457C71.5788 131.229 71.5192 131.994 71.5192 132.752C71.5192 133.762 71.6214 134.783 71.826 135.814C72.0348 136.841 72.3161 137.795 72.6697 138.678C73.0277 139.56 73.4283 140.282 73.8714 140.844H71.2699C70.3963 139.707 69.7464 138.471 69.3203 137.137C68.8984 135.803 68.6875 134.342 68.6875 132.752Z" fill="black"/>
<rect x="55.5" y="116.5" width="32" height="32" rx="16" stroke="black"/>
<path d="M281.676 132.752C281.676 134.342 281.463 135.803 281.037 137.137C280.615 138.471 279.967 139.707 279.094 140.844H276.492C276.825 140.423 277.134 139.907 277.419 139.298C277.705 138.688 277.954 138.023 278.167 137.303C278.38 136.579 278.546 135.829 278.665 135.053C278.785 134.278 278.844 133.511 278.844 132.752C278.844 131.742 278.74 130.724 278.531 129.697C278.327 128.665 278.045 127.711 277.688 126.833C277.334 125.951 276.935 125.229 276.492 124.666H279.094C279.967 125.804 280.615 127.04 281.037 128.374C281.463 129.707 281.676 131.167 281.676 132.752Z" fill="black"/>
<rect x="262.5" y="116.5" width="32" height="32" rx="16" stroke="black"/>
<path d="M132.256 130.982L129.763 131.135C129.72 130.922 129.629 130.73 129.488 130.56C129.347 130.385 129.162 130.246 128.932 130.144C128.706 130.038 128.435 129.984 128.12 129.984C127.698 129.984 127.342 130.074 127.053 130.253C126.763 130.428 126.618 130.662 126.618 130.956C126.618 131.19 126.712 131.388 126.899 131.55C127.087 131.712 127.408 131.842 127.864 131.94L129.641 132.298C130.596 132.494 131.308 132.81 131.776 133.244C132.245 133.679 132.479 134.25 132.479 134.957C132.479 135.601 132.29 136.165 131.911 136.651C131.536 137.137 131.02 137.516 130.364 137.789C129.712 138.058 128.96 138.192 128.107 138.192C126.808 138.192 125.772 137.921 125.001 137.38C124.234 136.835 123.784 136.093 123.652 135.156L126.33 135.015C126.411 135.411 126.607 135.714 126.918 135.923C127.229 136.127 127.628 136.229 128.114 136.229C128.591 136.229 128.974 136.138 129.264 135.955C129.558 135.767 129.707 135.526 129.712 135.232C129.707 134.985 129.603 134.783 129.398 134.625C129.194 134.463 128.879 134.339 128.452 134.254L126.752 133.915C125.793 133.724 125.08 133.391 124.611 132.918C124.146 132.445 123.914 131.842 123.914 131.109C123.914 130.479 124.085 129.935 124.425 129.479C124.771 129.023 125.254 128.672 125.876 128.425C126.503 128.178 127.236 128.054 128.075 128.054C129.315 128.054 130.291 128.316 131.003 128.84C131.719 129.364 132.136 130.078 132.256 130.982ZM138.669 138.192C137.659 138.192 136.789 137.987 136.061 137.578C135.336 137.165 134.778 136.581 134.386 135.827C133.994 135.068 133.798 134.171 133.798 133.136C133.798 132.126 133.994 131.239 134.386 130.477C134.778 129.714 135.33 129.119 136.041 128.693C136.757 128.267 137.597 128.054 138.56 128.054C139.208 128.054 139.811 128.158 140.369 128.367C140.931 128.572 141.421 128.881 141.839 129.294C142.261 129.707 142.589 130.227 142.823 130.854C143.058 131.476 143.175 132.205 143.175 133.04V133.788H134.884V132.1H140.612C140.612 131.708 140.526 131.361 140.356 131.058C140.186 130.756 139.949 130.519 139.646 130.349C139.348 130.174 139.001 130.087 138.605 130.087C138.191 130.087 137.825 130.183 137.505 130.374C137.19 130.562 136.943 130.815 136.764 131.135C136.585 131.45 136.493 131.802 136.489 132.19V133.794C136.489 134.28 136.578 134.7 136.757 135.053C136.941 135.407 137.198 135.68 137.531 135.871C137.863 136.063 138.257 136.159 138.713 136.159C139.016 136.159 139.293 136.116 139.544 136.031C139.796 135.946 140.011 135.818 140.19 135.648C140.369 135.477 140.505 135.268 140.599 135.021L143.117 135.188C142.99 135.793 142.727 136.321 142.331 136.773C141.939 137.22 141.432 137.57 140.81 137.821C140.192 138.068 139.478 138.192 138.669 138.192ZM147.675 124.909V138H144.952V124.909H147.675ZM154.331 138.192C153.321 138.192 152.451 137.987 151.723 137.578C150.998 137.165 150.44 136.581 150.048 135.827C149.656 135.068 149.46 134.171 149.46 133.136C149.46 132.126 149.656 131.239 150.048 130.477C150.44 129.714 150.992 129.119 151.703 128.693C152.419 128.267 153.259 128.054 154.222 128.054C154.87 128.054 155.473 128.158 156.031 128.367C156.593 128.572 157.083 128.881 157.501 129.294C157.923 129.707 158.251 130.227 158.485 130.854C158.72 131.476 158.837 132.205 158.837 133.04V133.788H150.547V132.1H156.274C156.274 131.708 156.189 131.361 156.018 131.058C155.848 130.756 155.611 130.519 155.309 130.349C155.01 130.174 154.663 130.087 154.267 130.087C153.853 130.087 153.487 130.183 153.167 130.374C152.852 130.562 152.605 130.815 152.426 131.135C152.247 131.45 152.155 131.802 152.151 132.19V133.794C152.151 134.28 152.24 134.7 152.419 135.053C152.603 135.407 152.86 135.68 153.193 135.871C153.525 136.063 153.919 136.159 154.375 136.159C154.678 136.159 154.955 136.116 155.206 136.031C155.458 135.946 155.673 135.818 155.852 135.648C156.031 135.477 156.167 135.268 156.261 135.021L158.779 135.188C158.652 135.793 158.39 136.321 157.993 136.773C157.601 137.22 157.094 137.57 156.472 137.821C155.854 138.068 155.14 138.192 154.331 138.192ZM165.05 138.192C164.044 138.192 163.179 137.979 162.455 137.553C161.735 137.122 161.181 136.526 160.793 135.763C160.409 135 160.218 134.122 160.218 133.129C160.218 132.124 160.412 131.241 160.799 130.483C161.191 129.72 161.748 129.126 162.468 128.7C163.188 128.269 164.044 128.054 165.037 128.054C165.894 128.054 166.644 128.21 167.287 128.521C167.931 128.832 168.44 129.268 168.815 129.831C169.19 130.393 169.397 131.054 169.435 131.812H166.865C166.793 131.322 166.601 130.928 166.29 130.63C165.983 130.327 165.581 130.176 165.082 130.176C164.66 130.176 164.292 130.291 163.976 130.521C163.665 130.747 163.422 131.077 163.248 131.512C163.073 131.947 162.985 132.473 162.985 133.091C162.985 133.717 163.071 134.25 163.241 134.689C163.416 135.128 163.661 135.462 163.976 135.692C164.292 135.923 164.66 136.038 165.082 136.038C165.393 136.038 165.672 135.974 165.919 135.846C166.171 135.718 166.377 135.533 166.539 135.29C166.706 135.043 166.814 134.746 166.865 134.401H169.435C169.392 135.151 169.188 135.812 168.821 136.383C168.459 136.95 167.958 137.393 167.319 137.712C166.68 138.032 165.924 138.192 165.05 138.192ZM176.401 128.182V130.227H170.488V128.182H176.401ZM171.83 125.83H174.553V134.983C174.553 135.234 174.592 135.43 174.669 135.571C174.745 135.707 174.852 135.803 174.988 135.859C175.129 135.914 175.291 135.942 175.474 135.942C175.602 135.942 175.73 135.931 175.857 135.91C175.985 135.884 176.083 135.865 176.151 135.852L176.58 137.879C176.443 137.921 176.252 137.97 176.004 138.026C175.757 138.085 175.457 138.121 175.103 138.134C174.447 138.16 173.872 138.072 173.377 137.872C172.887 137.672 172.506 137.361 172.233 136.939C171.96 136.517 171.826 135.984 171.83 135.341V125.83ZM183.993 131.544V133.705H178.023V131.544H183.993ZM194.482 130.982L191.989 131.135C191.947 130.922 191.855 130.73 191.714 130.56C191.574 130.385 191.388 130.246 191.158 130.144C190.933 130.038 190.662 129.984 190.347 129.984C189.925 129.984 189.569 130.074 189.279 130.253C188.989 130.428 188.844 130.662 188.844 130.956C188.844 131.19 188.938 131.388 189.126 131.55C189.313 131.712 189.635 131.842 190.091 131.94L191.868 132.298C192.822 132.494 193.534 132.81 194.003 133.244C194.472 133.679 194.706 134.25 194.706 134.957C194.706 135.601 194.516 136.165 194.137 136.651C193.762 137.137 193.246 137.516 192.59 137.789C191.938 138.058 191.186 138.192 190.334 138.192C189.034 138.192 187.999 137.921 187.227 137.38C186.46 136.835 186.011 136.093 185.879 135.156L188.557 135.015C188.638 135.411 188.834 135.714 189.145 135.923C189.456 136.127 189.854 136.229 190.34 136.229C190.817 136.229 191.201 136.138 191.491 135.955C191.785 135.767 191.934 135.526 191.938 135.232C191.934 134.985 191.83 134.783 191.625 134.625C191.42 134.463 191.105 134.339 190.679 134.254L188.979 133.915C188.02 133.724 187.306 133.391 186.837 132.918C186.373 132.445 186.141 131.842 186.141 131.109C186.141 130.479 186.311 129.935 186.652 129.479C186.997 129.023 187.481 128.672 188.103 128.425C188.729 128.178 189.462 128.054 190.302 128.054C191.542 128.054 192.518 128.316 193.229 128.84C193.945 129.364 194.363 130.078 194.482 130.982ZM201.643 128.182V130.227H195.73V128.182H201.643ZM197.073 125.83H199.796V134.983C199.796 135.234 199.834 135.43 199.911 135.571C199.987 135.707 200.094 135.803 200.23 135.859C200.371 135.914 200.533 135.942 200.716 135.942C200.844 135.942 200.972 135.931 201.1 135.91C201.227 135.884 201.325 135.865 201.394 135.852L201.822 137.879C201.686 137.921 201.494 137.97 201.247 138.026C200.999 138.085 200.699 138.121 200.345 138.134C199.689 138.16 199.114 138.072 198.619 137.872C198.129 137.672 197.748 137.361 197.475 136.939C197.203 136.517 197.068 135.984 197.073 135.341V125.83ZM203.417 138V128.182H206.012V129.914H206.127C206.331 129.339 206.672 128.885 207.15 128.553C207.627 128.22 208.198 128.054 208.863 128.054C209.536 128.054 210.109 128.222 210.582 128.559C211.055 128.891 211.371 129.343 211.528 129.914H211.631C211.831 129.352 212.193 128.902 212.717 128.565C213.246 128.224 213.87 128.054 214.59 128.054C215.506 128.054 216.25 128.346 216.821 128.93C217.396 129.509 217.684 130.332 217.684 131.397V138H214.967V131.934C214.967 131.388 214.822 130.979 214.532 130.707C214.243 130.434 213.881 130.298 213.446 130.298C212.952 130.298 212.566 130.455 212.289 130.771C212.012 131.082 211.873 131.493 211.873 132.004V138H209.233V131.876C209.233 131.395 209.095 131.011 208.818 130.726C208.545 130.44 208.185 130.298 207.738 130.298C207.435 130.298 207.162 130.374 206.92 130.528C206.681 130.677 206.491 130.888 206.351 131.161C206.21 131.429 206.14 131.744 206.14 132.107V138H203.417ZM225.057 128.182V130.227H219.144V128.182H225.057ZM220.487 125.83H223.21V134.983C223.21 135.234 223.248 135.43 223.325 135.571C223.401 135.707 223.508 135.803 223.644 135.859C223.785 135.914 223.947 135.942 224.13 135.942C224.258 135.942 224.386 135.931 224.514 135.91C224.642 135.884 224.74 135.865 224.808 135.852L225.236 137.879C225.1 137.921 224.908 137.97 224.661 138.026C224.414 138.085 224.113 138.121 223.759 138.134C223.103 138.16 222.528 138.072 222.034 137.872C221.544 137.672 221.162 137.361 220.889 136.939C220.617 136.517 220.482 135.984 220.487 135.341V125.83Z" fill="black"/>
<rect x="118.5" y="116.5" width="113" height="32" stroke="black"/>
<path d="M150.087 246.182H152.81V256.486C152.81 257.244 152.661 257.858 152.362 258.327C152.064 258.795 151.636 259.138 151.077 259.356C150.523 259.573 149.861 259.682 149.089 259.682C148.996 259.682 148.906 259.68 148.821 259.675C148.732 259.675 148.638 259.673 148.54 259.669V257.54C148.612 257.545 148.676 257.547 148.732 257.547C148.783 257.551 148.838 257.553 148.898 257.553C149.337 257.553 149.643 257.46 149.818 257.272C149.997 257.089 150.087 256.812 150.087 256.441V246.182ZM151.442 244.916C151.041 244.916 150.696 244.782 150.406 244.513C150.116 244.241 149.972 243.915 149.972 243.536C149.972 243.161 150.116 242.839 150.406 242.57C150.696 242.298 151.041 242.161 151.442 242.161C151.851 242.161 152.198 242.298 152.484 242.57C152.773 242.839 152.918 243.161 152.918 243.536C152.918 243.915 152.773 244.241 152.484 244.513C152.198 244.782 151.851 244.916 151.442 244.916ZM159.427 256.192C158.434 256.192 157.575 255.981 156.851 255.559C156.131 255.133 155.575 254.54 155.183 253.782C154.791 253.019 154.595 252.135 154.595 251.129C154.595 250.115 154.791 249.229 155.183 248.47C155.575 247.707 156.131 247.115 156.851 246.693C157.575 246.267 158.434 246.054 159.427 246.054C160.42 246.054 161.276 246.267 161.997 246.693C162.721 247.115 163.279 247.707 163.671 248.47C164.063 249.229 164.259 250.115 164.259 251.129C164.259 252.135 164.063 253.019 163.671 253.782C163.279 254.54 162.721 255.133 161.997 255.559C161.276 255.981 160.42 256.192 159.427 256.192ZM159.44 254.082C159.892 254.082 160.269 253.955 160.571 253.699C160.874 253.439 161.102 253.085 161.255 252.638C161.413 252.19 161.492 251.681 161.492 251.11C161.492 250.539 161.413 250.03 161.255 249.582C161.102 249.135 160.874 248.781 160.571 248.521C160.269 248.261 159.892 248.131 159.44 248.131C158.984 248.131 158.6 248.261 158.289 248.521C157.982 248.781 157.75 249.135 157.593 249.582C157.439 250.03 157.362 250.539 157.362 251.11C157.362 251.681 157.439 252.19 157.593 252.638C157.75 253.085 157.982 253.439 158.289 253.699C158.6 253.955 158.984 254.082 159.44 254.082ZM166.03 256V246.182H168.753V256H166.03ZM167.398 244.916C166.993 244.916 166.646 244.782 166.356 244.513C166.07 244.241 165.928 243.915 165.928 243.536C165.928 243.161 166.07 242.839 166.356 242.57C166.646 242.298 166.993 242.161 167.398 242.161C167.803 242.161 168.148 242.298 168.433 242.57C168.723 242.839 168.868 243.161 168.868 243.536C168.868 243.915 168.723 244.241 168.433 244.513C168.148 244.782 167.803 244.916 167.398 244.916ZM173.657 250.324V256H170.934V246.182H173.529V247.914H173.645C173.862 247.343 174.226 246.891 174.738 246.559C175.249 246.222 175.869 246.054 176.598 246.054C177.279 246.054 177.874 246.203 178.381 246.501C178.888 246.8 179.282 247.226 179.564 247.78C179.845 248.33 179.985 248.986 179.985 249.749V256H177.262V250.234C177.267 249.634 177.113 249.165 176.802 248.828C176.491 248.487 176.063 248.317 175.517 248.317C175.151 248.317 174.827 248.396 174.546 248.553C174.269 248.711 174.051 248.941 173.894 249.244C173.74 249.542 173.662 249.902 173.657 250.324ZM188.249 249.544V251.705H182.279V249.544H188.249ZM195.005 256.192C193.999 256.192 193.134 255.979 192.41 255.553C191.69 255.122 191.136 254.526 190.748 253.763C190.365 253 190.173 252.122 190.173 251.129C190.173 250.124 190.367 249.241 190.754 248.483C191.146 247.72 191.703 247.126 192.423 246.7C193.143 246.269 193.999 246.054 194.992 246.054C195.849 246.054 196.599 246.21 197.242 246.521C197.886 246.832 198.395 247.268 198.77 247.831C199.145 248.393 199.352 249.054 199.39 249.812H196.82C196.748 249.322 196.556 248.928 196.245 248.63C195.938 248.327 195.536 248.176 195.037 248.176C194.615 248.176 194.247 248.291 193.931 248.521C193.62 248.747 193.377 249.077 193.203 249.512C193.028 249.947 192.941 250.473 192.941 251.091C192.941 251.717 193.026 252.25 193.196 252.689C193.371 253.128 193.616 253.462 193.931 253.692C194.247 253.923 194.615 254.038 195.037 254.038C195.348 254.038 195.627 253.974 195.874 253.846C196.126 253.718 196.333 253.533 196.494 253.29C196.661 253.043 196.769 252.746 196.82 252.401H199.39C199.347 253.151 199.143 253.812 198.776 254.383C198.414 254.95 197.914 255.393 197.274 255.712C196.635 256.032 195.879 256.192 195.005 256.192ZM203.857 242.909V256H201.134V242.909H203.857ZM208.838 256.185C208.211 256.185 207.653 256.077 207.163 255.859C206.673 255.638 206.285 255.312 205.999 254.881C205.718 254.447 205.578 253.906 205.578 253.258C205.578 252.712 205.678 252.254 205.878 251.884C206.078 251.513 206.351 251.214 206.696 250.989C207.041 250.763 207.433 250.592 207.872 250.477C208.316 250.362 208.78 250.281 209.266 250.234C209.837 250.175 210.297 250.119 210.646 250.068C210.996 250.013 211.249 249.932 211.407 249.825C211.565 249.719 211.644 249.561 211.644 249.352V249.314C211.644 248.909 211.516 248.596 211.26 248.374C211.009 248.153 210.651 248.042 210.186 248.042C209.696 248.042 209.306 248.151 209.017 248.368C208.727 248.581 208.535 248.849 208.441 249.173L205.923 248.969C206.051 248.372 206.302 247.857 206.677 247.422C207.052 246.983 207.536 246.646 208.128 246.412C208.725 246.173 209.415 246.054 210.199 246.054C210.744 246.054 211.267 246.118 211.765 246.246C212.268 246.374 212.713 246.572 213.101 246.84C213.493 247.109 213.802 247.454 214.028 247.876C214.254 248.293 214.367 248.794 214.367 249.378V256H211.784V254.638H211.708C211.55 254.945 211.339 255.216 211.075 255.45C210.811 255.68 210.493 255.862 210.122 255.994C209.752 256.121 209.323 256.185 208.838 256.185ZM209.617 254.306C210.018 254.306 210.372 254.227 210.678 254.07C210.985 253.908 211.226 253.69 211.401 253.418C211.575 253.145 211.663 252.836 211.663 252.491V251.449C211.578 251.504 211.46 251.555 211.311 251.602C211.166 251.645 211.002 251.685 210.819 251.724C210.636 251.758 210.453 251.79 210.269 251.82C210.086 251.845 209.92 251.869 209.771 251.89C209.451 251.937 209.172 252.011 208.933 252.114C208.695 252.216 208.509 252.354 208.377 252.529C208.245 252.7 208.179 252.913 208.179 253.168C208.179 253.539 208.313 253.822 208.582 254.018C208.855 254.21 209.2 254.306 209.617 254.306ZM222.775 251.82V246.182H225.498V256H222.884V254.217H222.782C222.56 254.792 222.192 255.254 221.676 255.604C221.165 255.953 220.54 256.128 219.803 256.128C219.147 256.128 218.569 255.979 218.071 255.68C217.572 255.382 217.182 254.958 216.901 254.408C216.624 253.859 216.483 253.2 216.479 252.433V246.182H219.202V251.947C219.206 252.527 219.362 252.985 219.669 253.322C219.976 253.658 220.387 253.827 220.903 253.827C221.231 253.827 221.537 253.752 221.823 253.603C222.108 253.45 222.339 253.224 222.513 252.925C222.692 252.627 222.78 252.259 222.775 251.82ZM235.846 248.982L233.353 249.135C233.31 248.922 233.218 248.73 233.078 248.56C232.937 248.385 232.752 248.246 232.522 248.144C232.296 248.038 232.025 247.984 231.71 247.984C231.288 247.984 230.932 248.074 230.642 248.253C230.353 248.428 230.208 248.662 230.208 248.956C230.208 249.19 230.301 249.388 230.489 249.55C230.676 249.712 230.998 249.842 231.454 249.94L233.231 250.298C234.186 250.494 234.897 250.81 235.366 251.244C235.835 251.679 236.069 252.25 236.069 252.957C236.069 253.601 235.88 254.165 235.5 254.651C235.125 255.137 234.61 255.516 233.953 255.789C233.301 256.058 232.549 256.192 231.697 256.192C230.397 256.192 229.362 255.921 228.591 255.38C227.824 254.835 227.374 254.093 227.242 253.156L229.92 253.015C230.001 253.411 230.197 253.714 230.508 253.923C230.819 254.127 231.218 254.229 231.703 254.229C232.181 254.229 232.564 254.138 232.854 253.955C233.148 253.767 233.297 253.526 233.301 253.232C233.297 252.985 233.193 252.783 232.988 252.625C232.784 252.463 232.468 252.339 232.042 252.254L230.342 251.915C229.383 251.724 228.669 251.391 228.201 250.918C227.736 250.445 227.504 249.842 227.504 249.109C227.504 248.479 227.674 247.935 228.015 247.479C228.36 247.023 228.844 246.672 229.466 246.425C230.093 246.178 230.826 246.054 231.665 246.054C232.905 246.054 233.881 246.316 234.593 246.84C235.309 247.364 235.726 248.078 235.846 248.982ZM242.258 256.192C241.248 256.192 240.379 255.987 239.65 255.578C238.926 255.165 238.368 254.581 237.976 253.827C237.584 253.068 237.388 252.171 237.388 251.136C237.388 250.126 237.584 249.239 237.976 248.477C238.368 247.714 238.92 247.119 239.631 246.693C240.347 246.267 241.187 246.054 242.15 246.054C242.797 246.054 243.4 246.158 243.959 246.367C244.521 246.572 245.011 246.881 245.429 247.294C245.851 247.707 246.179 248.227 246.413 248.854C246.648 249.476 246.765 250.205 246.765 251.04V251.788H238.474V250.1H244.202C244.202 249.708 244.116 249.361 243.946 249.058C243.775 248.756 243.539 248.519 243.236 248.349C242.938 248.174 242.591 248.087 242.194 248.087C241.781 248.087 241.415 248.183 241.095 248.374C240.78 248.562 240.532 248.815 240.354 249.135C240.175 249.45 240.083 249.802 240.079 250.19V251.794C240.079 252.28 240.168 252.7 240.347 253.053C240.53 253.407 240.788 253.68 241.121 253.871C241.453 254.063 241.847 254.159 242.303 254.159C242.606 254.159 242.883 254.116 243.134 254.031C243.385 253.946 243.601 253.818 243.78 253.648C243.959 253.477 244.095 253.268 244.189 253.021L246.707 253.188C246.579 253.793 246.317 254.321 245.921 254.773C245.529 255.22 245.022 255.57 244.4 255.821C243.782 256.068 243.068 256.192 242.258 256.192Z" fill="black"/>
<rect x="144.5" y="234.5" width="106" height="32" stroke="black"/>
<path d="M313.309 29.1818V31.2273H307.396V29.1818H313.309ZM308.739 26.8295H311.462V35.983C311.462 36.2344 311.5 36.4304 311.577 36.571C311.653 36.7074 311.76 36.8033 311.896 36.8587C312.037 36.9141 312.199 36.9418 312.382 36.9418C312.51 36.9418 312.638 36.9311 312.766 36.9098C312.893 36.8842 312.991 36.8651 313.06 36.8523L313.488 38.8786C313.352 38.9212 313.16 38.9702 312.913 39.0256C312.665 39.0852 312.365 39.1214 312.011 39.1342C311.355 39.1598 310.78 39.0724 310.286 38.8722C309.795 38.6719 309.414 38.3608 309.141 37.9389C308.869 37.517 308.734 36.9844 308.739 36.3409V26.8295ZM317.882 39.1854C317.256 39.1854 316.698 39.0767 316.208 38.8594C315.718 38.6378 315.33 38.3118 315.044 37.8814C314.763 37.4467 314.623 36.9055 314.623 36.2578C314.623 35.7124 314.723 35.2543 314.923 34.8835C315.123 34.5128 315.396 34.2145 315.741 33.9886C316.086 33.7628 316.478 33.5923 316.917 33.4773C317.36 33.3622 317.825 33.2812 318.311 33.2344C318.882 33.1747 319.342 33.1193 319.691 33.0682C320.041 33.0128 320.294 32.9318 320.452 32.8253C320.61 32.7187 320.689 32.5611 320.689 32.3523V32.3139C320.689 31.9091 320.561 31.5959 320.305 31.3743C320.054 31.1527 319.696 31.0419 319.231 31.0419C318.741 31.0419 318.351 31.1506 318.061 31.3679C317.772 31.581 317.58 31.8494 317.486 32.1733L314.968 31.9688C315.096 31.3722 315.347 30.8565 315.722 30.4219C316.097 29.983 316.581 29.6463 317.173 29.4119C317.77 29.1733 318.46 29.054 319.244 29.054C319.789 29.054 320.311 29.1179 320.81 29.2457C321.313 29.3736 321.758 29.5717 322.146 29.8402C322.538 30.1087 322.847 30.4538 323.073 30.8757C323.299 31.2933 323.412 31.794 323.412 32.3778V39H320.829V37.6385H320.752C320.595 37.9453 320.384 38.2159 320.12 38.4503C319.855 38.6804 319.538 38.8615 319.167 38.9936C318.797 39.1214 318.368 39.1854 317.882 39.1854ZM318.662 37.3061C319.063 37.3061 319.417 37.2273 319.723 37.0696C320.03 36.9077 320.271 36.6903 320.446 36.4176C320.62 36.1449 320.708 35.8359 320.708 35.4908V34.4489C320.623 34.5043 320.505 34.5554 320.356 34.6023C320.211 34.6449 320.047 34.6854 319.864 34.7237C319.681 34.7578 319.498 34.7898 319.314 34.8196C319.131 34.8452 318.965 34.8686 318.816 34.8899C318.496 34.9368 318.217 35.0114 317.978 35.1136C317.74 35.2159 317.554 35.3544 317.422 35.5291C317.29 35.6996 317.224 35.9126 317.224 36.1683C317.224 36.5391 317.358 36.8224 317.627 37.0185C317.9 37.2102 318.245 37.3061 318.662 37.3061ZM325.575 39V25.9091H328.298V30.831H328.381C328.501 30.5668 328.673 30.2983 328.899 30.0256C329.129 29.7486 329.428 29.5185 329.794 29.3352C330.165 29.1477 330.625 29.054 331.175 29.054C331.891 29.054 332.551 29.2415 333.156 29.6165C333.761 29.9872 334.245 30.5476 334.607 31.2976C334.969 32.0433 335.151 32.9787 335.151 34.1037C335.151 35.1989 334.974 36.1236 334.62 36.8778C334.271 37.6278 333.793 38.1967 333.188 38.5845C332.587 38.968 331.914 39.1598 331.168 39.1598C330.64 39.1598 330.19 39.0724 329.82 38.8977C329.453 38.723 329.153 38.5036 328.918 38.2393C328.684 37.9709 328.505 37.7003 328.381 37.4276H328.26V39H325.575ZM328.241 34.0909C328.241 34.6747 328.322 35.1839 328.484 35.6186C328.646 36.0533 328.88 36.392 329.187 36.6349C329.494 36.8736 329.866 36.9929 330.305 36.9929C330.749 36.9929 331.124 36.8714 331.43 36.6286C331.737 36.3814 331.969 36.0405 332.127 35.6058C332.289 35.1669 332.37 34.6619 332.37 34.0909C332.37 33.5241 332.291 33.0256 332.134 32.5952C331.976 32.1648 331.744 31.8281 331.437 31.5852C331.13 31.3423 330.753 31.2209 330.305 31.2209C329.862 31.2209 329.487 31.3381 329.18 31.5724C328.878 31.8068 328.646 32.1392 328.484 32.5696C328.322 33 328.241 33.5071 328.241 34.0909ZM339.691 25.9091V39H336.968V25.9091H339.691ZM346.346 39.1918C345.336 39.1918 344.467 38.9872 343.738 38.5781C343.014 38.1648 342.456 37.581 342.064 36.8267C341.672 36.0682 341.475 35.1712 341.475 34.1357C341.475 33.1257 341.672 32.2393 342.064 31.4766C342.456 30.7138 343.007 30.1193 343.719 29.6932C344.435 29.267 345.275 29.054 346.238 29.054C346.885 29.054 347.488 29.1584 348.047 29.3672C348.609 29.5717 349.099 29.8807 349.517 30.294C349.939 30.7074 350.267 31.2273 350.501 31.8537C350.735 32.4759 350.853 33.2045 350.853 34.0398V34.7876H342.562V33.1001H348.289C348.289 32.7081 348.204 32.3608 348.034 32.0582C347.863 31.7557 347.627 31.5192 347.324 31.3487C347.026 31.174 346.679 31.0866 346.282 31.0866C345.869 31.0866 345.502 31.1825 345.183 31.3743C344.868 31.5618 344.62 31.8153 344.441 32.1349C344.262 32.4503 344.171 32.8018 344.167 33.1896V34.794C344.167 35.2798 344.256 35.6996 344.435 36.0533C344.618 36.407 344.876 36.6797 345.208 36.8714C345.541 37.0632 345.935 37.1591 346.391 37.1591C346.694 37.1591 346.971 37.1165 347.222 37.0312C347.473 36.946 347.689 36.8182 347.868 36.6477C348.047 36.4773 348.183 36.2685 348.277 36.0213L350.795 36.1875C350.667 36.7926 350.405 37.321 350.009 37.7727C349.617 38.2202 349.11 38.5696 348.488 38.821C347.87 39.0682 347.156 39.1918 346.346 39.1918ZM358.747 32.544V34.7045H352.777V32.544H358.747ZM363.867 39.1854C363.24 39.1854 362.682 39.0767 362.192 38.8594C361.702 38.6378 361.314 38.3118 361.029 37.8814C360.748 37.4467 360.607 36.9055 360.607 36.2578C360.607 35.7124 360.707 35.2543 360.907 34.8835C361.108 34.5128 361.38 34.2145 361.725 33.9886C362.071 33.7628 362.463 33.5923 362.902 33.4773C363.345 33.3622 363.809 33.2812 364.295 33.2344C364.866 33.1747 365.326 33.1193 365.676 33.0682C366.025 33.0128 366.279 32.9318 366.436 32.8253C366.594 32.7187 366.673 32.5611 366.673 32.3523V32.3139C366.673 31.9091 366.545 31.5959 366.289 31.3743C366.038 31.1527 365.68 31.0419 365.216 31.0419C364.725 31.0419 364.336 31.1506 364.046 31.3679C363.756 31.581 363.564 31.8494 363.471 32.1733L360.952 31.9688C361.08 31.3722 361.331 30.8565 361.706 30.4219C362.081 29.983 362.565 29.6463 363.157 29.4119C363.754 29.1733 364.444 29.054 365.228 29.054C365.774 29.054 366.296 29.1179 366.794 29.2457C367.297 29.3736 367.743 29.5717 368.13 29.8402C368.522 30.1087 368.831 30.4538 369.057 30.8757C369.283 31.2933 369.396 31.794 369.396 32.3778V39H366.814V37.6385H366.737C366.579 37.9453 366.368 38.2159 366.104 38.4503C365.84 38.6804 365.522 38.8615 365.152 38.9936C364.781 39.1214 364.353 39.1854 363.867 39.1854ZM364.647 37.3061C365.047 37.3061 365.401 37.2273 365.708 37.0696C366.015 36.9077 366.255 36.6903 366.43 36.4176C366.605 36.1449 366.692 35.8359 366.692 35.4908V34.4489C366.607 34.5043 366.49 34.5554 366.341 34.6023C366.196 34.6449 366.032 34.6854 365.848 34.7237C365.665 34.7578 365.482 34.7898 365.299 34.8196C365.115 34.8452 364.949 34.8686 364.8 34.8899C364.48 34.9368 364.201 35.0114 363.963 35.1136C363.724 35.2159 363.539 35.3544 363.407 35.5291C363.275 35.6996 363.208 35.9126 363.208 36.1683C363.208 36.5391 363.343 36.8224 363.611 37.0185C363.884 37.2102 364.229 37.3061 364.647 37.3061ZM374.232 25.9091V39H371.509V25.9091H374.232ZM376.413 39V29.1818H379.136V39H376.413ZM377.781 27.9162C377.376 27.9162 377.029 27.782 376.739 27.5135C376.453 27.2408 376.311 26.9148 376.311 26.5355C376.311 26.1605 376.453 25.8388 376.739 25.5703C377.029 25.2976 377.376 25.1612 377.781 25.1612C378.186 25.1612 378.531 25.2976 378.816 25.5703C379.106 25.8388 379.251 26.1605 379.251 26.5355C379.251 26.9148 379.106 27.2408 378.816 27.5135C378.531 27.782 378.186 27.9162 377.781 27.9162ZM384.117 39.1854C383.49 39.1854 382.932 39.0767 382.442 38.8594C381.952 38.6378 381.564 38.3118 381.279 37.8814C380.998 37.4467 380.857 36.9055 380.857 36.2578C380.857 35.7124 380.957 35.2543 381.157 34.8835C381.358 34.5128 381.63 34.2145 381.975 33.9886C382.321 33.7628 382.713 33.5923 383.152 33.4773C383.595 33.3622 384.059 33.2812 384.545 33.2344C385.116 33.1747 385.576 33.1193 385.926 33.0682C386.275 33.0128 386.529 32.9318 386.686 32.8253C386.844 32.7187 386.923 32.5611 386.923 32.3523V32.3139C386.923 31.9091 386.795 31.5959 386.539 31.3743C386.288 31.1527 385.93 31.0419 385.466 31.0419C384.975 31.0419 384.586 31.1506 384.296 31.3679C384.006 31.581 383.814 31.8494 383.721 32.1733L381.202 31.9688C381.33 31.3722 381.581 30.8565 381.956 30.4219C382.331 29.983 382.815 29.6463 383.407 29.4119C384.004 29.1733 384.694 29.054 385.478 29.054C386.024 29.054 386.546 29.1179 387.044 29.2457C387.547 29.3736 387.993 29.5717 388.38 29.8402C388.772 30.1087 389.081 30.4538 389.307 30.8757C389.533 31.2933 389.646 31.794 389.646 32.3778V39H387.064V37.6385H386.987C386.829 37.9453 386.618 38.2159 386.354 38.4503C386.09 38.6804 385.772 38.8615 385.402 38.9936C385.031 39.1214 384.603 39.1854 384.117 39.1854ZM384.897 37.3061C385.297 37.3061 385.651 37.2273 385.958 37.0696C386.265 36.9077 386.505 36.6903 386.68 36.4176C386.855 36.1449 386.942 35.8359 386.942 35.4908V34.4489C386.857 34.5043 386.74 34.5554 386.591 34.6023C386.446 34.6449 386.282 34.6854 386.098 34.7237C385.915 34.7578 385.732 34.7898 385.549 34.8196C385.365 34.8452 385.199 34.8686 385.05 34.8899C384.73 34.9368 384.451 35.0114 384.213 35.1136C383.974 35.2159 383.789 35.3544 383.657 35.5291C383.525 35.6996 383.458 35.9126 383.458 36.1683C383.458 36.5391 383.593 36.8224 383.861 37.0185C384.134 37.2102 384.479 37.3061 384.897 37.3061ZM399.928 31.9815L397.435 32.1349C397.392 31.9219 397.3 31.7301 397.16 31.5597C397.019 31.3849 396.834 31.2464 396.604 31.1442C396.378 31.0376 396.107 30.9844 395.792 30.9844C395.37 30.9844 395.014 31.0739 394.724 31.2528C394.435 31.4276 394.29 31.6619 394.29 31.956C394.29 32.1903 394.384 32.3885 394.571 32.5504C394.759 32.7124 395.08 32.8423 395.536 32.9403L397.313 33.2983C398.268 33.4943 398.979 33.8097 399.448 34.2443C399.917 34.679 400.151 35.25 400.151 35.9574C400.151 36.6009 399.962 37.1655 399.582 37.6513C399.207 38.1371 398.692 38.5163 398.036 38.7891C397.384 39.0575 396.631 39.1918 395.779 39.1918C394.479 39.1918 393.444 38.9212 392.673 38.38C391.906 37.8345 391.456 37.093 391.324 36.1555L394.002 36.0149C394.083 36.4112 394.279 36.7138 394.59 36.9226C394.901 37.1271 395.3 37.2294 395.786 37.2294C396.263 37.2294 396.646 37.1378 396.936 36.9545C397.23 36.767 397.379 36.5263 397.384 36.2322C397.379 35.9851 397.275 35.7827 397.07 35.625C396.866 35.4631 396.55 35.3395 396.124 35.2543L394.424 34.9155C393.465 34.7237 392.751 34.3913 392.283 33.9183C391.818 33.4453 391.586 32.8423 391.586 32.1094C391.586 31.4787 391.756 30.9354 392.097 30.4794C392.442 30.0234 392.926 29.6719 393.548 29.4247C394.175 29.1776 394.908 29.054 395.747 29.054C396.987 29.054 397.963 29.3161 398.675 29.8402C399.391 30.3643 399.808 31.0781 399.928 31.9815Z" fill="black"/>
<rect x="292.5" y="16.5" width="119" height="32" rx="16" stroke="black"/>
<path d="M77.3089 29.1818V31.2273H71.3963V29.1818H77.3089ZM72.7386 26.8295H75.4616V35.983C75.4616 36.2344 75.5 36.4304 75.5767 36.571C75.6534 36.7074 75.7599 36.8033 75.8963 36.8587C76.0369 36.9141 76.1989 36.9418 76.3821 36.9418C76.5099 36.9418 76.6378 36.9311 76.7656 36.9098C76.8935 36.8842 76.9915 36.8651 77.0597 36.8523L77.4879 38.8786C77.3516 38.9212 77.1598 38.9702 76.9126 39.0256C76.6655 39.0852 76.3651 39.1214 76.0114 39.1342C75.3551 39.1598 74.7798 39.0724 74.2855 38.8722C73.7955 38.6719 73.4141 38.3608 73.1413 37.9389C72.8686 37.517 72.7344 36.9844 72.7386 36.3409V26.8295ZM81.8825 39.1854C81.256 39.1854 80.6978 39.0767 80.2077 38.8594C79.7177 38.6378 79.3299 38.3118 79.0444 37.8814C78.7631 37.4467 78.6225 36.9055 78.6225 36.2578C78.6225 35.7124 78.7227 35.2543 78.9229 34.8835C79.1232 34.5128 79.396 34.2145 79.7411 33.9886C80.0863 33.7628 80.4783 33.5923 80.9173 33.4773C81.3604 33.3622 81.8249 33.2812 82.3107 33.2344C82.8817 33.1747 83.342 33.1193 83.6914 33.0682C84.0408 33.0128 84.2944 32.9318 84.4521 32.8253C84.6097 32.7187 84.6886 32.5611 84.6886 32.3523V32.3139C84.6886 31.9091 84.5607 31.5959 84.305 31.3743C84.0536 31.1527 83.6957 31.0419 83.2312 31.0419C82.7411 31.0419 82.3512 31.1506 82.0614 31.3679C81.7717 31.581 81.5799 31.8494 81.4862 32.1733L78.9677 31.9688C79.0955 31.3722 79.3469 30.8565 79.7219 30.4219C80.0969 29.983 80.5806 29.6463 81.1729 29.4119C81.7695 29.1733 82.4599 29.054 83.244 29.054C83.7894 29.054 84.3114 29.1179 84.81 29.2457C85.3129 29.3736 85.7582 29.5717 86.146 29.8402C86.538 30.1087 86.8469 30.4538 87.0728 30.8757C87.2987 31.2933 87.4116 31.794 87.4116 32.3778V39H84.8292V37.6385H84.7525C84.5948 37.9453 84.3839 38.2159 84.1197 38.4503C83.8555 38.6804 83.538 38.8615 83.1673 38.9936C82.7965 39.1214 82.3683 39.1854 81.8825 39.1854ZM82.6623 37.3061C83.0629 37.3061 83.4165 37.2273 83.7234 37.0696C84.0302 36.9077 84.271 36.6903 84.4457 36.4176C84.6204 36.1449 84.7077 35.8359 84.7077 35.4908V34.4489C84.6225 34.5043 84.5053 34.5554 84.3562 34.6023C84.2113 34.6449 84.0472 34.6854 83.864 34.7237C83.6808 34.7578 83.4975 34.7898 83.3143 34.8196C83.131 34.8452 82.9648 34.8686 82.8157 34.8899C82.4961 34.9368 82.217 35.0114 81.9783 35.1136C81.7397 35.2159 81.5543 35.3544 81.4222 35.5291C81.2901 35.6996 81.2241 35.9126 81.2241 36.1683C81.2241 36.5391 81.3583 36.8224 81.6268 37.0185C81.8995 37.2102 82.2447 37.3061 82.6623 37.3061ZM89.5753 39V25.9091H92.2983V30.831H92.3814C92.5007 30.5668 92.6733 30.2983 92.8991 30.0256C93.1293 29.7486 93.4276 29.5185 93.794 29.3352C94.1648 29.1477 94.625 29.054 95.1747 29.054C95.8906 29.054 96.5511 29.2415 97.1562 29.6165C97.7614 29.9872 98.245 30.5476 98.6072 31.2976C98.9695 32.0433 99.1506 32.9787 99.1506 34.1037C99.1506 35.1989 98.9737 36.1236 98.62 36.8778C98.2706 37.6278 97.7933 38.1967 97.1882 38.5845C96.5874 38.968 95.9141 39.1598 95.1683 39.1598C94.6399 39.1598 94.1903 39.0724 93.8196 38.8977C93.4531 38.723 93.1527 38.5036 92.9183 38.2393C92.6839 37.9709 92.505 37.7003 92.3814 37.4276H92.2599V39H89.5753ZM92.2408 34.0909C92.2408 34.6747 92.3217 35.1839 92.4837 35.6186C92.6456 36.0533 92.88 36.392 93.1868 36.6349C93.4936 36.8736 93.8665 36.9929 94.3054 36.9929C94.7486 36.9929 95.1236 36.8714 95.4304 36.6286C95.7372 36.3814 95.9695 36.0405 96.1271 35.6058C96.2891 35.1669 96.37 34.6619 96.37 34.0909C96.37 33.5241 96.2912 33.0256 96.1335 32.5952C95.9759 32.1648 95.7436 31.8281 95.4368 31.5852C95.13 31.3423 94.7528 31.2209 94.3054 31.2209C93.8622 31.2209 93.4872 31.3381 93.1804 31.5724C92.8778 31.8068 92.6456 32.1392 92.4837 32.5696C92.3217 33 92.2408 33.5071 92.2408 34.0909ZM103.691 25.9091V39H100.968V25.9091H103.691ZM110.346 39.1918C109.336 39.1918 108.467 38.9872 107.738 38.5781C107.014 38.1648 106.456 37.581 106.064 36.8267C105.672 36.0682 105.475 35.1712 105.475 34.1357C105.475 33.1257 105.672 32.2393 106.064 31.4766C106.456 30.7138 107.007 30.1193 107.719 29.6932C108.435 29.267 109.275 29.054 110.238 29.054C110.885 29.054 111.488 29.1584 112.047 29.3672C112.609 29.5717 113.099 29.8807 113.517 30.294C113.939 30.7074 114.267 31.2273 114.501 31.8537C114.735 32.4759 114.853 33.2045 114.853 34.0398V34.7876H106.562V33.1001H112.289C112.289 32.7081 112.204 32.3608 112.034 32.0582C111.863 31.7557 111.627 31.5192 111.324 31.3487C111.026 31.174 110.679 31.0866 110.282 31.0866C109.869 31.0866 109.502 31.1825 109.183 31.3743C108.868 31.5618 108.62 31.8153 108.441 32.1349C108.262 32.4503 108.171 32.8018 108.167 33.1896V34.794C108.167 35.2798 108.256 35.6996 108.435 36.0533C108.618 36.407 108.876 36.6797 109.208 36.8714C109.541 37.0632 109.935 37.1591 110.391 37.1591C110.694 37.1591 110.971 37.1165 111.222 37.0312C111.473 36.946 111.689 36.8182 111.868 36.6477C112.047 36.4773 112.183 36.2685 112.277 36.0213L114.795 36.1875C114.667 36.7926 114.405 37.321 114.009 37.7727C113.617 38.2202 113.11 38.5696 112.488 38.821C111.87 39.0682 111.156 39.1918 110.346 39.1918ZM122.747 32.544V34.7045H116.777V32.544H122.747ZM127.79 33.3239V39H125.067V29.1818H127.662V30.9141H127.777C127.995 30.343 128.359 29.8913 128.87 29.5589C129.382 29.2223 130.002 29.054 130.73 29.054C131.412 29.054 132.007 29.2031 132.514 29.5014C133.021 29.7997 133.415 30.2259 133.696 30.7798C133.978 31.3295 134.118 31.9858 134.118 32.7486V39H131.395V33.2344C131.4 32.6335 131.246 32.1648 130.935 31.8281C130.624 31.4872 130.196 31.3168 129.65 31.3168C129.284 31.3168 128.96 31.3956 128.679 31.5533C128.402 31.7109 128.184 31.9411 128.027 32.2436C127.873 32.5419 127.794 32.902 127.79 33.3239ZM139.064 39.1854C138.438 39.1854 137.879 39.0767 137.389 38.8594C136.899 38.6378 136.512 38.3118 136.226 37.8814C135.945 37.4467 135.804 36.9055 135.804 36.2578C135.804 35.7124 135.904 35.2543 136.105 34.8835C136.305 34.5128 136.578 34.2145 136.923 33.9886C137.268 33.7628 137.66 33.5923 138.099 33.4773C138.542 33.3622 139.007 33.2812 139.492 33.2344C140.063 33.1747 140.524 33.1193 140.873 33.0682C141.222 33.0128 141.476 32.9318 141.634 32.8253C141.791 32.7187 141.87 32.5611 141.87 32.3523V32.3139C141.87 31.9091 141.742 31.5959 141.487 31.3743C141.235 31.1527 140.877 31.0419 140.413 31.0419C139.923 31.0419 139.533 31.1506 139.243 31.3679C138.953 31.581 138.762 31.8494 138.668 32.1733L136.149 31.9688C136.277 31.3722 136.529 30.8565 136.904 30.4219C137.279 29.983 137.762 29.6463 138.355 29.4119C138.951 29.1733 139.642 29.054 140.426 29.054C140.971 29.054 141.493 29.1179 141.992 29.2457C142.494 29.3736 142.94 29.5717 143.328 29.8402C143.72 30.1087 144.029 30.4538 144.254 30.8757C144.48 31.2933 144.593 31.794 144.593 32.3778V39H142.011V37.6385H141.934C141.776 37.9453 141.566 38.2159 141.301 38.4503C141.037 38.6804 140.72 38.8615 140.349 38.9936C139.978 39.1214 139.55 39.1854 139.064 39.1854ZM139.844 37.3061C140.244 37.3061 140.598 37.2273 140.905 37.0696C141.212 36.9077 141.453 36.6903 141.627 36.4176C141.802 36.1449 141.889 35.8359 141.889 35.4908V34.4489C141.804 34.5043 141.687 34.5554 141.538 34.6023C141.393 34.6449 141.229 34.6854 141.046 34.7237C140.862 34.7578 140.679 34.7898 140.496 34.8196C140.313 34.8452 140.146 34.8686 139.997 34.8899C139.678 34.9368 139.399 35.0114 139.16 35.1136C138.921 35.2159 138.736 35.3544 138.604 35.5291C138.472 35.6996 138.406 35.9126 138.406 36.1683C138.406 36.5391 138.54 36.8224 138.808 37.0185C139.081 37.2102 139.426 37.3061 139.844 37.3061ZM146.706 39V29.1818H149.301V30.9141H149.416C149.621 30.3388 149.961 29.8849 150.439 29.5526C150.916 29.2202 151.487 29.054 152.152 29.054C152.825 29.054 153.398 29.2223 153.871 29.5589C154.344 29.8913 154.66 30.343 154.817 30.9141H154.92C155.12 30.3516 155.482 29.902 156.006 29.5653C156.535 29.2244 157.159 29.054 157.879 29.054C158.795 29.054 159.539 29.3459 160.11 29.9297C160.685 30.5092 160.973 31.3317 160.973 32.397V39H158.256V32.9339C158.256 32.3885 158.111 31.9794 157.822 31.7067C157.532 31.4339 157.17 31.2976 156.735 31.2976C156.241 31.2976 155.855 31.4553 155.578 31.7706C155.301 32.0817 155.162 32.4929 155.162 33.0043V39H152.523V32.8764C152.523 32.3949 152.384 32.0114 152.107 31.7259C151.834 31.4403 151.474 31.2976 151.027 31.2976C150.724 31.2976 150.452 31.3743 150.209 31.5277C149.97 31.6768 149.78 31.8878 149.64 32.1605C149.499 32.429 149.429 32.7443 149.429 33.1065V39H146.706ZM167.598 39.1918C166.588 39.1918 165.719 38.9872 164.99 38.5781C164.266 38.1648 163.708 37.581 163.316 36.8267C162.923 36.0682 162.727 35.1712 162.727 34.1357C162.727 33.1257 162.923 32.2393 163.316 31.4766C163.708 30.7138 164.259 30.1193 164.971 29.6932C165.687 29.267 166.526 29.054 167.49 29.054C168.137 29.054 168.74 29.1584 169.298 29.3672C169.861 29.5717 170.351 29.8807 170.769 30.294C171.191 30.7074 171.519 31.2273 171.753 31.8537C171.987 32.4759 172.105 33.2045 172.105 34.0398V34.7876H163.814V33.1001H169.541C169.541 32.7081 169.456 32.3608 169.286 32.0582C169.115 31.7557 168.879 31.5192 168.576 31.3487C168.278 31.174 167.931 31.0866 167.534 31.0866C167.121 31.0866 166.754 31.1825 166.435 31.3743C166.119 31.5618 165.872 31.8153 165.693 32.1349C165.514 32.4503 165.423 32.8018 165.419 33.1896V34.794C165.419 35.2798 165.508 35.6996 165.687 36.0533C165.87 36.407 166.128 36.6797 166.46 36.8714C166.793 37.0632 167.187 37.1591 167.643 37.1591C167.945 37.1591 168.222 37.1165 168.474 37.0312C168.725 36.946 168.941 36.8182 169.119 36.6477C169.298 36.4773 169.435 36.2685 169.529 36.0213L172.047 36.1875C171.919 36.7926 171.657 37.321 171.261 37.7727C170.869 38.2202 170.362 38.5696 169.74 38.821C169.122 39.0682 168.408 39.1918 167.598 39.1918Z" fill="black"/>
<rect x="61.5" y="16.5" width="121" height="32" rx="16" stroke="black"/>
<path d="M292 34L282 28.2265V39.7735L292 34ZM262 35H283V33H262V35Z" fill="black"/>
<path d="M337.394 90H334.428L338.947 76.9091H342.514L347.027 90H344.061L340.782 79.9006H340.68L337.394 90ZM337.209 84.8544H344.214V87.0149H337.209V84.8544ZM355.405 80.674C355.354 80.1584 355.135 79.7578 354.747 79.4723C354.359 79.1868 353.833 79.044 353.168 79.044C352.716 79.044 352.335 79.108 352.024 79.2358C351.713 79.3594 351.474 79.532 351.308 79.7536C351.146 79.9751 351.065 80.2266 351.065 80.5078C351.057 80.7422 351.106 80.9467 351.212 81.1214C351.323 81.2962 351.474 81.4474 351.666 81.5753C351.858 81.6989 352.079 81.8075 352.331 81.9013C352.582 81.9908 352.851 82.0675 353.136 82.1314L354.312 82.4126C354.883 82.5405 355.407 82.7109 355.885 82.924C356.362 83.1371 356.775 83.3991 357.125 83.7102C357.474 84.0213 357.745 84.3878 357.937 84.8097C358.133 85.2315 358.233 85.7152 358.237 86.2607C358.233 87.0618 358.028 87.7564 357.623 88.3445C357.223 88.9283 356.643 89.3821 355.885 89.706C355.131 90.0256 354.221 90.1854 353.155 90.1854C352.099 90.1854 351.178 90.0234 350.394 89.6996C349.614 89.3757 349.005 88.8963 348.566 88.2614C348.131 87.6222 347.903 86.8317 347.882 85.8899H350.56C350.59 86.3288 350.716 86.6953 350.937 86.9893C351.163 87.2791 351.464 87.4986 351.839 87.6477C352.218 87.7926 352.646 87.8651 353.123 87.8651C353.592 87.8651 353.999 87.7969 354.344 87.6605C354.694 87.5241 354.964 87.3345 355.156 87.0916C355.348 86.8487 355.444 86.5696 355.444 86.2543C355.444 85.9602 355.356 85.7131 355.182 85.5128C355.011 85.3125 354.76 85.142 354.427 85.0014C354.099 84.8608 353.697 84.733 353.219 84.6179L351.794 84.2599C350.69 83.9915 349.819 83.5717 349.18 83.0007C348.54 82.4297 348.223 81.6605 348.227 80.6932C348.223 79.9006 348.434 79.2081 348.86 78.6158C349.29 78.0234 349.881 77.5611 350.631 77.2287C351.381 76.8963 352.233 76.7301 353.187 76.7301C354.159 76.7301 355.007 76.8963 355.731 77.2287C356.46 77.5611 357.027 78.0234 357.432 78.6158C357.836 79.2081 358.045 79.8942 358.058 80.674H355.405Z" fill="black"/>
<rect x="322.5" y="67.5" width="48" height="32" rx="16" stroke="black"/>
<path d="M422.309 80.1818V82.2273H416.396V80.1818H422.309ZM417.739 77.8295H420.462V86.983C420.462 87.2344 420.5 87.4304 420.577 87.571C420.653 87.7074 420.76 87.8033 420.896 87.8587C421.037 87.9141 421.199 87.9418 421.382 87.9418C421.51 87.9418 421.638 87.9311 421.766 87.9098C421.893 87.8842 421.991 87.8651 422.06 87.8523L422.488 89.8786C422.352 89.9212 422.16 89.9702 421.913 90.0256C421.665 90.0852 421.365 90.1214 421.011 90.1342C420.355 90.1598 419.78 90.0724 419.286 89.8722C418.795 89.6719 418.414 89.3608 418.141 88.9389C417.869 88.517 417.734 87.9844 417.739 87.3409V77.8295ZM426.882 90.1854C426.256 90.1854 425.698 90.0767 425.208 89.8594C424.718 89.6378 424.33 89.3118 424.044 88.8814C423.763 88.4467 423.623 87.9055 423.623 87.2578C423.623 86.7124 423.723 86.2543 423.923 85.8835C424.123 85.5128 424.396 85.2145 424.741 84.9886C425.086 84.7628 425.478 84.5923 425.917 84.4773C426.36 84.3622 426.825 84.2812 427.311 84.2344C427.882 84.1747 428.342 84.1193 428.691 84.0682C429.041 84.0128 429.294 83.9318 429.452 83.8253C429.61 83.7187 429.689 83.5611 429.689 83.3523V83.3139C429.689 82.9091 429.561 82.5959 429.305 82.3743C429.054 82.1527 428.696 82.0419 428.231 82.0419C427.741 82.0419 427.351 82.1506 427.061 82.3679C426.772 82.581 426.58 82.8494 426.486 83.1733L423.968 82.9688C424.096 82.3722 424.347 81.8565 424.722 81.4219C425.097 80.983 425.581 80.6463 426.173 80.4119C426.77 80.1733 427.46 80.054 428.244 80.054C428.789 80.054 429.311 80.1179 429.81 80.2457C430.313 80.3736 430.758 80.5717 431.146 80.8402C431.538 81.1087 431.847 81.4538 432.073 81.8757C432.299 82.2933 432.412 82.794 432.412 83.3778V90H429.829V88.6385H429.752C429.595 88.9453 429.384 89.2159 429.12 89.4503C428.855 89.6804 428.538 89.8615 428.167 89.9936C427.797 90.1214 427.368 90.1854 426.882 90.1854ZM427.662 88.3061C428.063 88.3061 428.417 88.2273 428.723 88.0696C429.03 87.9077 429.271 87.6903 429.446 87.4176C429.62 87.1449 429.708 86.8359 429.708 86.4908V85.4489C429.623 85.5043 429.505 85.5554 429.356 85.6023C429.211 85.6449 429.047 85.6854 428.864 85.7237C428.681 85.7578 428.498 85.7898 428.314 85.8196C428.131 85.8452 427.965 85.8686 427.816 85.8899C427.496 85.9368 427.217 86.0114 426.978 86.1136C426.74 86.2159 426.554 86.3544 426.422 86.5291C426.29 86.6996 426.224 86.9126 426.224 87.1683C426.224 87.5391 426.358 87.8224 426.627 88.0185C426.9 88.2102 427.245 88.3061 427.662 88.3061ZM434.575 90V76.9091H437.298V81.831H437.381C437.501 81.5668 437.673 81.2983 437.899 81.0256C438.129 80.7486 438.428 80.5185 438.794 80.3352C439.165 80.1477 439.625 80.054 440.175 80.054C440.891 80.054 441.551 80.2415 442.156 80.6165C442.761 80.9872 443.245 81.5476 443.607 82.2976C443.969 83.0433 444.151 83.9787 444.151 85.1037C444.151 86.1989 443.974 87.1236 443.62 87.8778C443.271 88.6278 442.793 89.1967 442.188 89.5845C441.587 89.968 440.914 90.1598 440.168 90.1598C439.64 90.1598 439.19 90.0724 438.82 89.8977C438.453 89.723 438.153 89.5036 437.918 89.2393C437.684 88.9709 437.505 88.7003 437.381 88.4276H437.26V90H434.575ZM437.241 85.0909C437.241 85.6747 437.322 86.1839 437.484 86.6186C437.646 87.0533 437.88 87.392 438.187 87.6349C438.494 87.8736 438.866 87.9929 439.305 87.9929C439.749 87.9929 440.124 87.8714 440.43 87.6286C440.737 87.3814 440.969 87.0405 441.127 86.6058C441.289 86.1669 441.37 85.6619 441.37 85.0909C441.37 84.5241 441.291 84.0256 441.134 83.5952C440.976 83.1648 440.744 82.8281 440.437 82.5852C440.13 82.3423 439.753 82.2209 439.305 82.2209C438.862 82.2209 438.487 82.3381 438.18 82.5724C437.878 82.8068 437.646 83.1392 437.484 83.5696C437.322 84 437.241 84.5071 437.241 85.0909ZM448.691 76.9091V90H445.968V76.9091H448.691ZM455.346 90.1918C454.336 90.1918 453.467 89.9872 452.738 89.5781C452.014 89.1648 451.456 88.581 451.064 87.8267C450.672 87.0682 450.475 86.1712 450.475 85.1357C450.475 84.1257 450.672 83.2393 451.064 82.4766C451.456 81.7138 452.007 81.1193 452.719 80.6932C453.435 80.267 454.275 80.054 455.238 80.054C455.885 80.054 456.488 80.1584 457.047 80.3672C457.609 80.5717 458.099 80.8807 458.517 81.294C458.939 81.7074 459.267 82.2273 459.501 82.8537C459.735 83.4759 459.853 84.2045 459.853 85.0398V85.7876H451.562V84.1001H457.289C457.289 83.7081 457.204 83.3608 457.034 83.0582C456.863 82.7557 456.627 82.5192 456.324 82.3487C456.026 82.174 455.679 82.0866 455.282 82.0866C454.869 82.0866 454.502 82.1825 454.183 82.3743C453.868 82.5618 453.62 82.8153 453.441 83.1349C453.262 83.4503 453.171 83.8018 453.167 84.1896V85.794C453.167 86.2798 453.256 86.6996 453.435 87.0533C453.618 87.407 453.876 87.6797 454.208 87.8714C454.541 88.0632 454.935 88.1591 455.391 88.1591C455.694 88.1591 455.971 88.1165 456.222 88.0312C456.473 87.946 456.689 87.8182 456.868 87.6477C457.047 87.4773 457.183 87.2685 457.277 87.0213L459.795 87.1875C459.667 87.7926 459.405 88.321 459.009 88.7727C458.617 89.2202 458.11 89.5696 457.488 89.821C456.87 90.0682 456.156 90.1918 455.346 90.1918ZM467.747 83.544V85.7045H461.777V83.544H467.747ZM472.867 90.1854C472.24 90.1854 471.682 90.0767 471.192 89.8594C470.702 89.6378 470.314 89.3118 470.029 88.8814C469.748 88.4467 469.607 87.9055 469.607 87.2578C469.607 86.7124 469.707 86.2543 469.907 85.8835C470.108 85.5128 470.38 85.2145 470.725 84.9886C471.071 84.7628 471.463 84.5923 471.902 84.4773C472.345 84.3622 472.809 84.2812 473.295 84.2344C473.866 84.1747 474.326 84.1193 474.676 84.0682C475.025 84.0128 475.279 83.9318 475.436 83.8253C475.594 83.7187 475.673 83.5611 475.673 83.3523V83.3139C475.673 82.9091 475.545 82.5959 475.289 82.3743C475.038 82.1527 474.68 82.0419 474.216 82.0419C473.725 82.0419 473.336 82.1506 473.046 82.3679C472.756 82.581 472.564 82.8494 472.471 83.1733L469.952 82.9688C470.08 82.3722 470.331 81.8565 470.706 81.4219C471.081 80.983 471.565 80.6463 472.157 80.4119C472.754 80.1733 473.444 80.054 474.228 80.054C474.774 80.054 475.296 80.1179 475.794 80.2457C476.297 80.3736 476.743 80.5717 477.13 80.8402C477.522 81.1087 477.831 81.4538 478.057 81.8757C478.283 82.2933 478.396 82.794 478.396 83.3778V90H475.814V88.6385H475.737C475.579 88.9453 475.368 89.2159 475.104 89.4503C474.84 89.6804 474.522 89.8615 474.152 89.9936C473.781 90.1214 473.353 90.1854 472.867 90.1854ZM473.647 88.3061C474.047 88.3061 474.401 88.2273 474.708 88.0696C475.015 87.9077 475.255 87.6903 475.43 87.4176C475.605 87.1449 475.692 86.8359 475.692 86.4908V85.4489C475.607 85.5043 475.49 85.5554 475.341 85.6023C475.196 85.6449 475.032 85.6854 474.848 85.7237C474.665 85.7578 474.482 85.7898 474.299 85.8196C474.115 85.8452 473.949 85.8686 473.8 85.8899C473.48 85.9368 473.201 86.0114 472.963 86.1136C472.724 86.2159 472.539 86.3544 472.407 86.5291C472.275 86.6996 472.208 86.9126 472.208 87.1683C472.208 87.5391 472.343 87.8224 472.611 88.0185C472.884 88.2102 473.229 88.3061 473.647 88.3061ZM483.232 76.9091V90H480.509V76.9091H483.232ZM485.413 90V80.1818H488.136V90H485.413ZM486.781 78.9162C486.376 78.9162 486.029 78.782 485.739 78.5135C485.453 78.2408 485.311 77.9148 485.311 77.5355C485.311 77.1605 485.453 76.8388 485.739 76.5703C486.029 76.2976 486.376 76.1612 486.781 76.1612C487.186 76.1612 487.531 76.2976 487.816 76.5703C488.106 76.8388 488.251 77.1605 488.251 77.5355C488.251 77.9148 488.106 78.2408 487.816 78.5135C487.531 78.782 487.186 78.9162 486.781 78.9162ZM493.117 90.1854C492.49 90.1854 491.932 90.0767 491.442 89.8594C490.952 89.6378 490.564 89.3118 490.279 88.8814C489.998 88.4467 489.857 87.9055 489.857 87.2578C489.857 86.7124 489.957 86.2543 490.157 85.8835C490.358 85.5128 490.63 85.2145 490.975 84.9886C491.321 84.7628 491.713 84.5923 492.152 84.4773C492.595 84.3622 493.059 84.2812 493.545 84.2344C494.116 84.1747 494.576 84.1193 494.926 84.0682C495.275 84.0128 495.529 83.9318 495.686 83.8253C495.844 83.7187 495.923 83.5611 495.923 83.3523V83.3139C495.923 82.9091 495.795 82.5959 495.539 82.3743C495.288 82.1527 494.93 82.0419 494.466 82.0419C493.975 82.0419 493.586 82.1506 493.296 82.3679C493.006 82.581 492.814 82.8494 492.721 83.1733L490.202 82.9688C490.33 82.3722 490.581 81.8565 490.956 81.4219C491.331 80.983 491.815 80.6463 492.407 80.4119C493.004 80.1733 493.694 80.054 494.478 80.054C495.024 80.054 495.546 80.1179 496.044 80.2457C496.547 80.3736 496.993 80.5717 497.38 80.8402C497.772 81.1087 498.081 81.4538 498.307 81.8757C498.533 82.2933 498.646 82.794 498.646 83.3778V90H496.064V88.6385H495.987C495.829 88.9453 495.618 89.2159 495.354 89.4503C495.09 89.6804 494.772 89.8615 494.402 89.9936C494.031 90.1214 493.603 90.1854 493.117 90.1854ZM493.897 88.3061C494.297 88.3061 494.651 88.2273 494.958 88.0696C495.265 87.9077 495.505 87.6903 495.68 87.4176C495.855 87.1449 495.942 86.8359 495.942 86.4908V85.4489C495.857 85.5043 495.74 85.5554 495.591 85.6023C495.446 85.6449 495.282 85.6854 495.098 85.7237C494.915 85.7578 494.732 85.7898 494.549 85.8196C494.365 85.8452 494.199 85.8686 494.05 85.8899C493.73 85.9368 493.451 86.0114 493.213 86.1136C492.974 86.2159 492.789 86.3544 492.657 86.5291C492.525 86.6996 492.458 86.9126 492.458 87.1683C492.458 87.5391 492.593 87.8224 492.861 88.0185C493.134 88.2102 493.479 88.3061 493.897 88.3061ZM508.928 82.9815L506.435 83.1349C506.392 82.9219 506.3 82.7301 506.16 82.5597C506.019 82.3849 505.834 82.2464 505.604 82.1442C505.378 82.0376 505.107 81.9844 504.792 81.9844C504.37 81.9844 504.014 82.0739 503.724 82.2528C503.435 82.4276 503.29 82.6619 503.29 82.956C503.29 83.1903 503.384 83.3885 503.571 83.5504C503.759 83.7124 504.08 83.8423 504.536 83.9403L506.313 84.2983C507.268 84.4943 507.979 84.8097 508.448 85.2443C508.917 85.679 509.151 86.25 509.151 86.9574C509.151 87.6009 508.962 88.1655 508.582 88.6513C508.207 89.1371 507.692 89.5163 507.036 89.7891C506.384 90.0575 505.631 90.1918 504.779 90.1918C503.479 90.1918 502.444 89.9212 501.673 89.38C500.906 88.8345 500.456 88.093 500.324 87.1555L503.002 87.0149C503.083 87.4112 503.279 87.7138 503.59 87.9226C503.901 88.1271 504.3 88.2294 504.786 88.2294C505.263 88.2294 505.646 88.1378 505.936 87.9545C506.23 87.767 506.379 87.5263 506.384 87.2322C506.379 86.9851 506.275 86.7827 506.07 86.625C505.866 86.4631 505.55 86.3395 505.124 86.2543L503.424 85.9155C502.465 85.7237 501.751 85.3913 501.283 84.9183C500.818 84.4453 500.586 83.8423 500.586 83.1094C500.586 82.4787 500.756 81.9354 501.097 81.4794C501.442 81.0234 501.926 80.6719 502.548 80.4247C503.175 80.1776 503.908 80.054 504.747 80.054C505.987 80.054 506.963 80.3161 507.675 80.8402C508.391 81.3643 508.808 82.0781 508.928 82.9815Z" fill="black"/>
<rect x="401.5" y="67.5" width="119" height="32" rx="16" stroke="black"/>
<path d="M401 85L391 79.2265V90.7735L401 85ZM371 86H392V84H371V86Z" fill="black"/>
<path d="M412 34H551" stroke="black" stroke-width="2"/>
<path d="M213 34L203 28.2265V39.7735L213 34ZM183 35H204V33H183V35Z" fill="black"/>
<path d="M118 133L108 127.226V138.774L118 133ZM88 134H109V132H88V134Z" fill="black"/>
<path d="M262 133L252 127.226V138.774L262 133ZM232 134H253V132H232V134Z" fill="black"/>
<path d="M68.6875 189.752C68.6875 188.167 68.8984 186.707 69.3203 185.374C69.7464 184.04 70.3963 182.804 71.2699 181.666H73.8714C73.5391 182.088 73.2301 182.604 72.9446 183.213C72.6591 183.818 72.4098 184.483 72.1967 185.207C71.9837 185.932 71.8175 186.682 71.6982 187.457C71.5788 188.229 71.5192 188.994 71.5192 189.752C71.5192 190.762 71.6214 191.783 71.826 192.814C72.0348 193.841 72.3161 194.795 72.6697 195.678C73.0277 196.56 73.4283 197.282 73.8714 197.844H71.2699C70.3963 196.707 69.7464 195.471 69.3203 194.137C68.8984 192.803 68.6875 191.342 68.6875 189.752Z" fill="black"/>
<rect x="55.5" y="173.5" width="32" height="32" rx="16" stroke="black"/>
<path d="M341.676 189.752C341.676 191.342 341.463 192.803 341.037 194.137C340.615 195.471 339.967 196.707 339.094 197.844H336.492C336.825 197.423 337.134 196.907 337.419 196.298C337.705 195.688 337.954 195.023 338.167 194.303C338.38 193.579 338.546 192.829 338.665 192.053C338.785 191.278 338.844 190.511 338.844 189.752C338.844 188.742 338.74 187.724 338.531 186.697C338.327 185.665 338.045 184.711 337.688 183.833C337.334 182.951 336.935 182.229 336.492 181.666H339.094C339.967 182.804 340.615 184.04 341.037 185.374C341.463 186.707 341.676 188.167 341.676 189.752Z" fill="black"/>
<rect x="322.5" y="173.5" width="32" height="32" rx="16" stroke="black"/>
<path d="M129.309 185.182V187.227H123.396V185.182H129.309ZM124.739 182.83H127.462V191.983C127.462 192.234 127.5 192.43 127.577 192.571C127.653 192.707 127.76 192.803 127.896 192.859C128.037 192.914 128.199 192.942 128.382 192.942C128.51 192.942 128.638 192.931 128.766 192.91C128.893 192.884 128.991 192.865 129.06 192.852L129.488 194.879C129.352 194.921 129.16 194.97 128.913 195.026C128.665 195.085 128.365 195.121 128.011 195.134C127.355 195.16 126.78 195.072 126.286 194.872C125.795 194.672 125.414 194.361 125.141 193.939C124.869 193.517 124.734 192.984 124.739 192.341V182.83ZM133.882 195.185C133.256 195.185 132.698 195.077 132.208 194.859C131.718 194.638 131.33 194.312 131.044 193.881C130.763 193.447 130.623 192.906 130.623 192.258C130.623 191.712 130.723 191.254 130.923 190.884C131.123 190.513 131.396 190.214 131.741 189.989C132.086 189.763 132.478 189.592 132.917 189.477C133.36 189.362 133.825 189.281 134.311 189.234C134.882 189.175 135.342 189.119 135.691 189.068C136.041 189.013 136.294 188.932 136.452 188.825C136.61 188.719 136.689 188.561 136.689 188.352V188.314C136.689 187.909 136.561 187.596 136.305 187.374C136.054 187.153 135.696 187.042 135.231 187.042C134.741 187.042 134.351 187.151 134.061 187.368C133.772 187.581 133.58 187.849 133.486 188.173L130.968 187.969C131.096 187.372 131.347 186.857 131.722 186.422C132.097 185.983 132.581 185.646 133.173 185.412C133.77 185.173 134.46 185.054 135.244 185.054C135.789 185.054 136.311 185.118 136.81 185.246C137.313 185.374 137.758 185.572 138.146 185.84C138.538 186.109 138.847 186.454 139.073 186.876C139.299 187.293 139.412 187.794 139.412 188.378V195H136.829V193.638H136.752C136.595 193.945 136.384 194.216 136.12 194.45C135.855 194.68 135.538 194.862 135.167 194.994C134.797 195.121 134.368 195.185 133.882 195.185ZM134.662 193.306C135.063 193.306 135.417 193.227 135.723 193.07C136.03 192.908 136.271 192.69 136.446 192.418C136.62 192.145 136.708 191.836 136.708 191.491V190.449C136.623 190.504 136.505 190.555 136.356 190.602C136.211 190.645 136.047 190.685 135.864 190.724C135.681 190.758 135.498 190.79 135.314 190.82C135.131 190.845 134.965 190.869 134.816 190.89C134.496 190.937 134.217 191.011 133.978 191.114C133.74 191.216 133.554 191.354 133.422 191.529C133.29 191.7 133.224 191.913 133.224 192.168C133.224 192.539 133.358 192.822 133.627 193.018C133.9 193.21 134.245 193.306 134.662 193.306ZM141.575 195V181.909H144.298V186.831H144.381C144.501 186.567 144.673 186.298 144.899 186.026C145.129 185.749 145.428 185.518 145.794 185.335C146.165 185.148 146.625 185.054 147.175 185.054C147.891 185.054 148.551 185.241 149.156 185.616C149.761 185.987 150.245 186.548 150.607 187.298C150.969 188.043 151.151 188.979 151.151 190.104C151.151 191.199 150.974 192.124 150.62 192.878C150.271 193.628 149.793 194.197 149.188 194.585C148.587 194.968 147.914 195.16 147.168 195.16C146.64 195.16 146.19 195.072 145.82 194.898C145.453 194.723 145.153 194.504 144.918 194.239C144.684 193.971 144.505 193.7 144.381 193.428H144.26V195H141.575ZM144.241 190.091C144.241 190.675 144.322 191.184 144.484 191.619C144.646 192.053 144.88 192.392 145.187 192.635C145.494 192.874 145.866 192.993 146.305 192.993C146.749 192.993 147.124 192.871 147.43 192.629C147.737 192.381 147.969 192.04 148.127 191.606C148.289 191.167 148.37 190.662 148.37 190.091C148.37 189.524 148.291 189.026 148.134 188.595C147.976 188.165 147.744 187.828 147.437 187.585C147.13 187.342 146.753 187.221 146.305 187.221C145.862 187.221 145.487 187.338 145.18 187.572C144.878 187.807 144.646 188.139 144.484 188.57C144.322 189 144.241 189.507 144.241 190.091ZM155.691 181.909V195H152.968V181.909H155.691ZM162.346 195.192C161.336 195.192 160.467 194.987 159.738 194.578C159.014 194.165 158.456 193.581 158.064 192.827C157.672 192.068 157.475 191.171 157.475 190.136C157.475 189.126 157.672 188.239 158.064 187.477C158.456 186.714 159.007 186.119 159.719 185.693C160.435 185.267 161.275 185.054 162.238 185.054C162.885 185.054 163.488 185.158 164.047 185.367C164.609 185.572 165.099 185.881 165.517 186.294C165.939 186.707 166.267 187.227 166.501 187.854C166.735 188.476 166.853 189.205 166.853 190.04V190.788H158.562V189.1H164.289C164.289 188.708 164.204 188.361 164.034 188.058C163.863 187.756 163.627 187.519 163.324 187.349C163.026 187.174 162.679 187.087 162.282 187.087C161.869 187.087 161.502 187.183 161.183 187.374C160.868 187.562 160.62 187.815 160.441 188.135C160.262 188.45 160.171 188.802 160.167 189.19V190.794C160.167 191.28 160.256 191.7 160.435 192.053C160.618 192.407 160.876 192.68 161.208 192.871C161.541 193.063 161.935 193.159 162.391 193.159C162.694 193.159 162.971 193.116 163.222 193.031C163.473 192.946 163.689 192.818 163.868 192.648C164.047 192.477 164.183 192.268 164.277 192.021L166.795 192.188C166.667 192.793 166.405 193.321 166.009 193.773C165.617 194.22 165.11 194.57 164.488 194.821C163.87 195.068 163.156 195.192 162.346 195.192ZM174.747 188.544V190.705H168.777V188.544H174.747ZM181.503 195.192C180.51 195.192 179.652 194.981 178.927 194.559C178.207 194.133 177.651 193.54 177.259 192.782C176.867 192.019 176.671 191.135 176.671 190.129C176.671 189.115 176.867 188.229 177.259 187.47C177.651 186.707 178.207 186.115 178.927 185.693C179.652 185.267 180.51 185.054 181.503 185.054C182.496 185.054 183.353 185.267 184.073 185.693C184.797 186.115 185.355 186.707 185.748 187.47C186.14 188.229 186.336 189.115 186.336 190.129C186.336 191.135 186.14 192.019 185.748 192.782C185.355 193.54 184.797 194.133 184.073 194.559C183.353 194.981 182.496 195.192 181.503 195.192ZM181.516 193.082C181.968 193.082 182.345 192.955 182.647 192.699C182.95 192.439 183.178 192.085 183.331 191.638C183.489 191.19 183.568 190.681 183.568 190.11C183.568 189.539 183.489 189.03 183.331 188.582C183.178 188.135 182.95 187.781 182.647 187.521C182.345 187.261 181.968 187.131 181.516 187.131C181.06 187.131 180.676 187.261 180.365 187.521C180.059 187.781 179.826 188.135 179.669 188.582C179.515 189.03 179.439 189.539 179.439 190.11C179.439 190.681 179.515 191.19 179.669 191.638C179.826 192.085 180.059 192.439 180.365 192.699C180.676 192.955 181.06 193.082 181.516 193.082ZM188.106 195V185.182H190.746V186.895H190.848C191.027 186.286 191.328 185.825 191.75 185.514C192.172 185.199 192.657 185.041 193.207 185.041C193.343 185.041 193.49 185.05 193.648 185.067C193.806 185.084 193.944 185.107 194.064 185.137V187.553C193.936 187.515 193.759 187.481 193.533 187.451C193.307 187.421 193.1 187.406 192.913 187.406C192.512 187.406 192.154 187.494 191.839 187.668C191.528 187.839 191.281 188.077 191.098 188.384C190.919 188.691 190.829 189.045 190.829 189.445V195H188.106ZM201.29 188.544V190.705H195.32V188.544H201.29ZM211.779 187.982L209.286 188.135C209.244 187.922 209.152 187.73 209.011 187.56C208.871 187.385 208.685 187.246 208.455 187.144C208.229 187.038 207.959 186.984 207.643 186.984C207.222 186.984 206.866 187.074 206.576 187.253C206.286 187.428 206.141 187.662 206.141 187.956C206.141 188.19 206.235 188.388 206.423 188.55C206.61 188.712 206.932 188.842 207.388 188.94L209.165 189.298C210.119 189.494 210.831 189.81 211.3 190.244C211.768 190.679 212.003 191.25 212.003 191.957C212.003 192.601 211.813 193.165 211.434 193.651C211.059 194.137 210.543 194.516 209.887 194.789C209.235 195.058 208.483 195.192 207.631 195.192C206.331 195.192 205.295 194.921 204.524 194.38C203.757 193.835 203.308 193.093 203.175 192.156L205.854 192.015C205.935 192.411 206.131 192.714 206.442 192.923C206.753 193.127 207.151 193.229 207.637 193.229C208.114 193.229 208.498 193.138 208.788 192.955C209.082 192.767 209.231 192.526 209.235 192.232C209.231 191.985 209.126 191.783 208.922 191.625C208.717 191.463 208.402 191.339 207.976 191.254L206.276 190.915C205.317 190.724 204.603 190.391 204.134 189.918C203.67 189.445 203.438 188.842 203.438 188.109C203.438 187.479 203.608 186.935 203.949 186.479C204.294 186.023 204.778 185.672 205.4 185.425C206.026 185.178 206.759 185.054 207.599 185.054C208.839 185.054 209.815 185.316 210.526 185.84C211.242 186.364 211.66 187.078 211.779 187.982ZM220.014 190.82V185.182H222.737V195H220.122V193.217H220.02C219.798 193.792 219.43 194.254 218.914 194.604C218.403 194.953 217.779 195.128 217.041 195.128C216.385 195.128 215.808 194.979 215.309 194.68C214.811 194.382 214.421 193.958 214.139 193.408C213.862 192.859 213.722 192.2 213.718 191.433V185.182H216.441V190.947C216.445 191.527 216.6 191.985 216.907 192.322C217.214 192.658 217.625 192.827 218.141 192.827C218.469 192.827 218.776 192.752 219.061 192.603C219.347 192.45 219.577 192.224 219.752 191.925C219.931 191.627 220.018 191.259 220.014 190.82ZM224.966 195V181.909H227.689V186.831H227.772C227.891 186.567 228.064 186.298 228.29 186.026C228.52 185.749 228.818 185.518 229.185 185.335C229.555 185.148 230.016 185.054 230.565 185.054C231.281 185.054 231.942 185.241 232.547 185.616C233.152 185.987 233.636 186.548 233.998 187.298C234.36 188.043 234.541 188.979 234.541 190.104C234.541 191.199 234.364 192.124 234.011 192.878C233.661 193.628 233.184 194.197 232.579 194.585C231.978 194.968 231.305 195.16 230.559 195.16C230.031 195.16 229.581 195.072 229.21 194.898C228.844 194.723 228.543 194.504 228.309 194.239C228.075 193.971 227.896 193.7 227.772 193.428H227.651V195H224.966ZM227.631 190.091C227.631 190.675 227.712 191.184 227.874 191.619C228.036 192.053 228.271 192.392 228.577 192.635C228.884 192.874 229.257 192.993 229.696 192.993C230.139 192.993 230.514 192.871 230.821 192.629C231.128 192.381 231.36 192.04 231.518 191.606C231.68 191.167 231.761 190.662 231.761 190.091C231.761 189.524 231.682 189.026 231.524 188.595C231.366 188.165 231.134 187.828 230.827 187.585C230.521 187.342 230.143 187.221 229.696 187.221C229.253 187.221 228.878 187.338 228.571 187.572C228.268 187.807 228.036 188.139 227.874 188.57C227.712 189 227.631 189.507 227.631 190.091ZM242.846 198.682V193.428H242.763C242.635 193.7 242.454 193.971 242.22 194.239C241.99 194.504 241.689 194.723 241.318 194.898C240.952 195.072 240.504 195.16 239.976 195.16C239.23 195.16 238.555 194.968 237.95 194.585C237.349 194.197 236.872 193.628 236.518 192.878C236.169 192.124 235.994 191.199 235.994 190.104C235.994 188.979 236.175 188.043 236.537 187.298C236.899 186.548 237.381 185.987 237.982 185.616C238.587 185.241 239.249 185.054 239.97 185.054C240.519 185.054 240.977 185.148 241.344 185.335C241.715 185.518 242.013 185.749 242.239 186.026C242.469 186.298 242.644 186.567 242.763 186.831H242.878V185.182H245.563V198.682H242.846ZM240.839 192.993C241.278 192.993 241.649 192.874 241.951 192.635C242.258 192.392 242.492 192.053 242.654 191.619C242.82 191.184 242.904 190.675 242.904 190.091C242.904 189.507 242.823 189 242.661 188.57C242.499 188.139 242.264 187.807 241.958 187.572C241.651 187.338 241.278 187.221 240.839 187.221C240.392 187.221 240.014 187.342 239.708 187.585C239.401 187.828 239.169 188.165 239.011 188.595C238.853 189.026 238.774 189.524 238.774 190.091C238.774 190.662 238.853 191.167 239.011 191.606C239.173 192.04 239.405 192.381 239.708 192.629C240.014 192.871 240.392 192.993 240.839 192.993ZM254.045 190.82V185.182H256.768V195H254.154V193.217H254.051C253.83 193.792 253.461 194.254 252.945 194.604C252.434 194.953 251.81 195.128 251.073 195.128C250.416 195.128 249.839 194.979 249.34 194.68C248.842 194.382 248.452 193.958 248.171 193.408C247.894 192.859 247.753 192.2 247.749 191.433V185.182H250.472V190.947C250.476 191.527 250.632 191.985 250.938 192.322C251.245 192.658 251.656 192.827 252.172 192.827C252.5 192.827 252.807 192.752 253.093 192.603C253.378 192.45 253.608 192.224 253.783 191.925C253.962 191.627 254.049 191.259 254.045 190.82ZM263.42 195.192C262.411 195.192 261.541 194.987 260.812 194.578C260.088 194.165 259.53 193.581 259.138 192.827C258.746 192.068 258.55 191.171 258.55 190.136C258.55 189.126 258.746 188.239 259.138 187.477C259.53 186.714 260.082 186.119 260.793 185.693C261.509 185.267 262.349 185.054 263.312 185.054C263.96 185.054 264.563 185.158 265.121 185.367C265.683 185.572 266.173 185.881 266.591 186.294C267.013 186.707 267.341 187.227 267.575 187.854C267.81 188.476 267.927 189.205 267.927 190.04V190.788H259.636V189.1H265.364C265.364 188.708 265.278 188.361 265.108 188.058C264.938 187.756 264.701 187.519 264.398 187.349C264.1 187.174 263.753 187.087 263.357 187.087C262.943 187.087 262.577 187.183 262.257 187.374C261.942 187.562 261.695 187.815 261.516 188.135C261.337 188.45 261.245 188.802 261.241 189.19V190.794C261.241 191.28 261.33 191.7 261.509 192.053C261.692 192.407 261.95 192.68 262.283 192.871C262.615 193.063 263.009 193.159 263.465 193.159C263.768 193.159 264.045 193.116 264.296 193.031C264.548 192.946 264.763 192.818 264.942 192.648C265.121 192.477 265.257 192.268 265.351 192.021L267.869 192.188C267.741 192.793 267.479 193.321 267.083 193.773C266.691 194.22 266.184 194.57 265.562 194.821C264.944 195.068 264.23 195.192 263.42 195.192ZM269.704 195V185.182H272.344V186.895H272.446C272.625 186.286 272.925 185.825 273.347 185.514C273.769 185.199 274.255 185.041 274.805 185.041C274.941 185.041 275.088 185.05 275.246 185.067C275.403 185.084 275.542 185.107 275.661 185.137V187.553C275.533 187.515 275.357 187.481 275.131 187.451C274.905 187.421 274.698 187.406 274.511 187.406C274.11 187.406 273.752 187.494 273.437 187.668C273.126 187.839 272.879 188.077 272.695 188.384C272.516 188.691 272.427 189.045 272.427 189.445V195H269.704ZM279.049 198.682C278.704 198.682 278.38 198.654 278.077 198.599C277.779 198.548 277.532 198.482 277.336 198.401L277.95 196.368C278.269 196.466 278.557 196.519 278.812 196.528C279.072 196.536 279.296 196.477 279.484 196.349C279.675 196.221 279.831 196.004 279.95 195.697L280.11 195.281L276.588 185.182H279.452L281.484 192.392H281.587L283.638 185.182H286.521L282.705 196.061C282.522 196.589 282.273 197.05 281.957 197.442C281.646 197.838 281.252 198.143 280.775 198.356C280.298 198.573 279.722 198.682 279.049 198.682Z" fill="black"/>
<rect x="118.5" y="173.5" width="173" height="32" stroke="black"/>
<path d="M118 190L108 184.226V195.774L118 190ZM88 191H109V189H88V191Z" fill="black"/>
<path d="M144 251L134 245.226V256.774L144 251ZM88 191H93V189H88V191ZM102 200V241H104V200H102ZM113 252H135V250H113V252ZM102 241C102 247.075 106.925 252 113 252V250C108.029 250 104 245.971 104 241H102ZM93 191C97.9706 191 102 195.029 102 200H104C104 193.925 99.0751 189 93 189V191Z" fill="black"/>
<path d="M322 190L312 184.226V195.774L322 190ZM292 191H313V189H292V191Z" fill="black"/>
<path d="M322 190L312 184.226V195.774L322 190ZM251 252H289V250H251V252ZM300 241V200H298V241H300ZM309 191H313V189H309V191ZM300 200C300 195.029 304.029 191 309 191V189C302.925 189 298 193.925 298 200H300ZM289 252C295.075 252 300 247.075 300 241H298C298 245.971 293.971 250 289 250V252Z" fill="black"/>
<path d="M323 84.5L313 78.7265V90.2735L323 84.5ZM303.5 125.5V94.5H301.5V125.5H303.5ZM312.5 85.5H314V83.5H312.5V85.5ZM303.5 94.5C303.5 89.5294 307.529 85.5 312.5 85.5V83.5C306.425 83.5 301.5 88.4249 301.5 94.5H303.5ZM295 134C299.694 134 303.5 130.194 303.5 125.5H301.5C301.5 129.09 298.59 132 295 132V134Z" fill="black"/>
<path d="M553 34L543 28.2265V39.7735L553 34ZM520 83.5H522.5V81.5H520V83.5ZM533.5 72.5V44H531.5V72.5H533.5ZM542.5 35H544V33H542.5V35ZM533.5 44C533.5 39.0294 537.529 35 542.5 35V33C536.425 33 531.5 37.9249 531.5 44H533.5ZM522.5 83.5C528.575 83.5 533.5 78.5751 533.5 72.5H531.5C531.5 77.4706 527.471 81.5 522.5 81.5V83.5Z" fill="black"/>
<path d="M553 34L543 28.2265V39.7735L553 34ZM353.5 134H522.5V132H353.5V134ZM533.5 123V44H531.5V123H533.5ZM542.5 35H544V33H542.5V35ZM533.5 44C533.5 39.0294 537.529 35 542.5 35V33C536.425 33 531.5 37.9249 531.5 44H533.5ZM522.5 134C528.575 134 533.5 129.075 533.5 123H531.5C531.5 127.971 527.471 132 522.5 132V134Z" fill="black"/>
<path d="M553 34L543 28.2265V39.7735L553 34ZM354 191H522.551V189H354V191ZM533.551 180V44H531.551V180H533.551ZM542.551 35H544V33H542.551V35ZM533.551 44C533.551 39.0294 537.581 35 542.551 35V33C536.476 33 531.551 37.9249 531.551 44H533.551ZM522.551 191C528.626 191 533.551 186.075 533.551 180H531.551C531.551 184.971 527.522 189 522.551 189V191Z" fill="black"/>
<path d="M401 85L391 79.2265V90.7735L401 85ZM295 134H362.5V132H295V134ZM373.5 123V95H371.5V123H373.5ZM382.5 86H392V84H382.5V86ZM373.5 95C373.5 90.0294 377.529 86 382.5 86V84C376.425 84 371.5 88.9249 371.5 95H373.5ZM362.5 134C368.575 134 373.5 129.075 373.5 123H371.5C371.5 127.971 367.471 132 362.5 132V134Z" fill="black"/>
<path d="M61 34L51 28.2265L51 39.7735L61 34ZM8 35L52 35L52 33L8 33L8 35Z" fill="black"/>
<path d="M30.2366 44L31.2366 44L30.2366 44ZM30.2366 124L29.2366 124L30.2366 124ZM55 134L45 128.226L45 139.774L55 134ZM19.1183 34L19.1183 33L19.1183 34ZM29.2366 44L29.2366 124L31.2366 124L31.2366 44L29.2366 44ZM40.2366 135L46 135L46 133L40.2366 133L40.2366 135ZM8 35L19.1183 35L19.1183 33L8 33L8 35ZM19.1183 35L20.2366 35L20.2366 33L19.1183 33L19.1183 35ZM29.2366 124C29.2366 130.075 34.1614 135 40.2366 135L40.2366 133C35.266 133 31.2366 128.971 31.2366 124L29.2366 124ZM31.2366 44C31.2366 37.9249 26.3117 33 20.2366 33L20.2366 35C25.2071 35 29.2366 39.0294 29.2366 44L31.2366 44Z" fill="black"/>
<path d="M20.2366 34L20.2366 35L20.2366 34ZM30.2366 44L29.2366 44L30.2366 44ZM30.2366 180L29.2366 180L30.2366 180ZM55 190L45 184.226L45 195.773L55 190ZM8 35L20.2366 35L20.2366 33L8 33L8 35ZM29.2366 44L29.2366 180L31.2366 180L31.2366 44L29.2366 44ZM40.2366 191L46 191L46 189L40.2366 189L40.2366 191ZM29.2366 180C29.2366 186.075 34.1614 191 40.2366 191L40.2366 189C35.266 189 31.2366 184.971 31.2366 180L29.2366 180ZM20.2366 35C25.2071 35 29.2366 39.0294 29.2366 44L31.2366 44C31.2366 37.9249 26.3117 33 20.2366 33L20.2366 35Z" fill="black"/>
<path d="M250 6H255C260.523 6 265 10.4772 265 16V24C265 29.5228 269.477 34 275 34H278.5" stroke="black" stroke-width="2"/>
<path d="M553.5 34L543.5 28.2265V39.7735L553.5 34ZM228 7H430.5V5H228V7ZM439.5 16V24H441.5V16H439.5ZM450.5 35H544.5V33H450.5V35ZM439.5 24C439.5 30.0751 444.425 35 450.5 35V33C445.529 33 441.5 28.9706 441.5 24H439.5ZM430.5 7C435.471 7 439.5 11.0294 439.5 16H441.5C441.5 9.92487 436.575 5 430.5 5V7Z" fill="black"/>
<path d="M243 6L233 0.226497V11.7735L243 6ZM183 35H188V33H183V35ZM199 24V16H197V24H199ZM208 7H234V5H208V7ZM199 16C199 11.0294 203.029 7 208 7V5C201.925 5 197 9.92487 197 16H199ZM188 35C194.075 35 199 30.0751 199 24H197C197 28.9706 192.971 33 188 33V35Z" fill="black"/>
</svg>
