<svg width="1019" height="437" viewBox="0 0 1019 437" fill="none" xmlns="http://www.w3.org/2000/svg">
<circle cx="4" cy="40" r="3.5" stroke="black"/>
<circle cx="1015" cy="254" r="3.5" stroke="black"/>
<path d="M32 40L22 34.2265V45.7735L32 40ZM8 41H23V39H8V41Z" fill="black"/>
<path d="M120 40L110 34.2265V45.7735L120 40ZM87 41H111V39H87V41Z" fill="black"/>
<path d="M287 305L277 299.226V310.774L287 305ZM355 421H230V423H355V421ZM221 412V315H219V412H221ZM230 306H278V304H230V306ZM221 315C221 310.029 225.029 306 230 306V304C223.925 304 219 308.925 219 315H221ZM230 421C225.029 421 221 416.971 221 412H219C219 418.075 223.925 423 230 423V421Z" fill="black"/>
<path d="M287 305L277 299.226V310.774L287 305ZM209 306H278V304H209V306Z" fill="black"/>
<path d="M287.5 361.5L277.5 355.726V367.274L287.5 361.5ZM209 306H246V304H209V306ZM255 315V351.5H257V315H255ZM266 362.5H278.5V360.5H266V362.5ZM255 351.5C255 357.575 259.925 362.5 266 362.5V360.5C261.029 360.5 257 356.471 257 351.5H255ZM246 306C250.971 306 255 310.029 255 315H257C257 308.925 252.075 304 246 304V306Z" fill="black"/>
<path d="M511 305L501 299.226V310.774L511 305ZM434 306H502V304H434V306Z" fill="black"/>
<path d="M511 305L501 299.226V310.774L511 305ZM457 363H460.5V361H457V363ZM471.5 352V315H469.5V352H471.5ZM480.5 306H502V304H480.5V306ZM471.5 315C471.5 310.029 475.529 306 480.5 306V304C474.425 304 469.5 308.925 469.5 315H471.5ZM460.5 363C466.575 363 471.5 358.075 471.5 352H469.5C469.5 356.971 465.471 361 460.5 361V363Z" fill="black"/>
<path d="M151 305L141 299.226V310.774L151 305ZM129 306H142V304H129V306Z" fill="black"/>
<path d="M1011 254L1001 248.226V259.774L1011 254ZM142 255H1002V253H142V255Z" fill="black"/>
<path d="M32 40L22 34.2265V45.7735L32 40ZM142 255H908.5V253H142V255ZM919.5 244V11.5H917.5V244H919.5ZM908.5 0.5H21V2.5H908.5V0.5ZM10 11.5V30H12V11.5H10ZM21 41H23V39H21V41ZM10 30C10 36.0751 14.9249 41 21 41V39C16.0294 39 12 34.9706 12 30H10ZM21 0.5C14.9249 0.5 10 5.42487 10 11.5H12C12 6.52944 16.0294 2.5 21 2.5V0.5ZM919.5 11.5C919.5 5.42486 914.575 0.5 908.5 0.5V2.5C913.471 2.5 917.5 6.52944 917.5 11.5H919.5ZM908.5 255C914.575 255 919.5 250.075 919.5 244H917.5C917.5 248.971 913.471 253 908.5 253V255Z" fill="black"/>
<path d="M814 40L804 34.2265V45.7735L814 40ZM247 41H805V39H247V41Z" fill="black"/>
<path d="M32.5 253.5L22.5 247.727V259.273L32.5 253.5ZM868 41H880V39H868V41ZM889 50V195H891V50H889ZM880 204H22.5V206H880V204ZM11.5 215V243.5H13.5V215H11.5ZM22.5 254.5H23.5V252.5H22.5V254.5ZM11.5 243.5C11.5 249.575 16.4249 254.5 22.5 254.5V252.5C17.5294 252.5 13.5 248.471 13.5 243.5H11.5ZM22.5 204C16.4248 204 11.5 208.925 11.5 215H13.5C13.5 210.029 17.5294 206 22.5 206V204ZM889 195C889 199.971 884.971 204 880 204V206C886.075 206 891 201.075 891 195H889ZM880 41C884.971 41 889 45.0294 889 50H891C891 43.9249 886.075 39 880 39V41Z" fill="black"/>
<path d="M32.5 305.5L22.5 299.727V311.273L32.5 305.5ZM868 41H880V39H868V41ZM889 50V195H891V50H889ZM880 204H22.5V206H880V204ZM11.5 215V295.5H13.5V215H11.5ZM22.5 306.5H23.5V304.5H22.5V306.5ZM11.5 295.5C11.5 301.575 16.4249 306.5 22.5 306.5V304.5C17.5294 304.5 13.5 300.471 13.5 295.5H11.5ZM22.5 204C16.4248 204 11.5 208.925 11.5 215H13.5C13.5 210.029 17.5294 206 22.5 206V204ZM889 195C889 199.971 884.971 204 880 204V206C886.075 206 891 201.075 891 195H889ZM880 41C884.971 41 889 45.0294 889 50H891C891 43.9249 886.075 39 880 39V41Z" fill="black"/>
<path d="M58.1676 40.4545C58.1676 41.8821 57.897 43.0966 57.3558 44.098C56.8189 45.0994 56.0859 45.8643 55.157 46.3928C54.2322 46.9169 53.1925 47.179 52.0376 47.179C50.8743 47.179 49.8303 46.9148 48.9055 46.3864C47.9808 45.858 47.25 45.093 46.7131 44.0916C46.1761 43.0902 45.9077 41.8778 45.9077 40.4545C45.9077 39.027 46.1761 37.8125 46.7131 36.8111C47.25 35.8097 47.9808 35.0469 48.9055 34.5227C49.8303 33.9943 50.8743 33.7301 52.0376 33.7301C53.1925 33.7301 54.2322 33.9943 55.157 34.5227C56.0859 35.0469 56.8189 35.8097 57.3558 36.8111C57.897 37.8125 58.1676 39.027 58.1676 40.4545ZM55.3615 40.4545C55.3615 39.5298 55.223 38.75 54.946 38.1151C54.6733 37.4801 54.2876 36.9986 53.7891 36.6705C53.2905 36.3423 52.7067 36.1783 52.0376 36.1783C51.3686 36.1783 50.7848 36.3423 50.2862 36.6705C49.7876 36.9986 49.3999 37.4801 49.1229 38.1151C48.8501 38.75 48.7138 39.5298 48.7138 40.4545C48.7138 41.3793 48.8501 42.1591 49.1229 42.794C49.3999 43.429 49.7876 43.9105 50.2862 44.2386C50.7848 44.5668 51.3686 44.7308 52.0376 44.7308C52.7067 44.7308 53.2905 44.5668 53.7891 44.2386C54.2876 43.9105 54.6733 43.429 54.946 42.794C55.223 42.1591 55.3615 41.3793 55.3615 40.4545ZM71.1674 33.9091V47H68.7768L63.0815 38.7607H62.9856V47H60.2179V33.9091H62.6468L68.2974 42.142H68.4125V33.9091H71.1674Z" fill="black"/>
<rect x="33.5" y="24.5" width="53" height="32" rx="16" stroke="black"/>
<path d="M832.778 48H828.138V34.9091H832.817C834.134 34.9091 835.267 35.1712 836.217 35.6953C837.168 36.2152 837.898 36.9631 838.41 37.9389C838.925 38.9148 839.183 40.0824 839.183 41.4418C839.183 42.8054 838.925 43.9773 838.41 44.9574C837.898 45.9375 837.163 46.6896 836.205 47.2138C835.25 47.7379 834.108 48 832.778 48ZM830.906 45.6286H832.663C833.482 45.6286 834.17 45.4837 834.728 45.1939C835.29 44.8999 835.712 44.446 835.994 43.8324C836.279 43.2145 836.422 42.4176 836.422 41.4418C836.422 40.4744 836.279 39.6839 835.994 39.0703C835.712 38.4567 835.293 38.005 834.734 37.7152C834.176 37.4254 833.488 37.2805 832.67 37.2805H830.906V45.6286ZM853.263 41.4545C853.263 42.8821 852.993 44.0966 852.452 45.098C851.915 46.0994 851.182 46.8643 850.253 47.3928C849.328 47.9169 848.288 48.179 847.133 48.179C845.97 48.179 844.926 47.9148 844.001 47.3864C843.077 46.858 842.346 46.093 841.809 45.0916C841.272 44.0902 841.003 42.8778 841.003 41.4545C841.003 40.027 841.272 38.8125 841.809 37.8111C842.346 36.8097 843.077 36.0469 844.001 35.5227C844.926 34.9943 845.97 34.7301 847.133 34.7301C848.288 34.7301 849.328 34.9943 850.253 35.5227C851.182 36.0469 851.915 36.8097 852.452 37.8111C852.993 38.8125 853.263 40.027 853.263 41.4545ZM850.457 41.4545C850.457 40.5298 850.319 39.75 850.042 39.1151C849.769 38.4801 849.383 37.9986 848.885 37.6705C848.386 37.3423 847.802 37.1783 847.133 37.1783C846.464 37.1783 845.881 37.3423 845.382 37.6705C844.883 37.9986 844.496 38.4801 844.219 39.1151C843.946 39.75 843.809 40.5298 843.809 41.4545C843.809 42.3793 843.946 43.1591 844.219 43.794C844.496 44.429 844.883 44.9105 845.382 45.2386C845.881 45.5668 846.464 45.7308 847.133 45.7308C847.802 45.7308 848.386 45.5668 848.885 45.2386C849.383 44.9105 849.769 44.429 850.042 43.794C850.319 43.1591 850.457 42.3793 850.457 41.4545Z" fill="black"/>
<rect x="814.5" y="24.5" width="53" height="32" rx="16" stroke="black"/>
<path d="M144.688 38.4922H141.888C141.837 38.13 141.733 37.8082 141.575 37.527C141.418 37.2415 141.215 36.9986 140.968 36.7983C140.721 36.598 140.435 36.4446 140.112 36.3381C139.792 36.2315 139.445 36.1783 139.07 36.1783C138.392 36.1783 137.802 36.3466 137.299 36.6832C136.796 37.0156 136.406 37.5014 136.129 38.1406C135.852 38.7756 135.714 39.5469 135.714 40.4545C135.714 41.3878 135.852 42.1719 136.129 42.8068C136.411 43.4418 136.803 43.9212 137.305 44.245C137.808 44.5689 138.39 44.7308 139.05 44.7308C139.421 44.7308 139.764 44.6818 140.08 44.5838C140.399 44.4858 140.683 44.343 140.93 44.1555C141.177 43.9638 141.381 43.7315 141.543 43.4588C141.71 43.1861 141.825 42.875 141.888 42.5256L144.688 42.5384C144.616 43.1392 144.435 43.7188 144.145 44.277C143.859 44.831 143.474 45.3274 142.988 45.7663C142.506 46.201 141.931 46.5462 141.262 46.8018C140.597 47.0533 139.845 47.179 139.006 47.179C137.838 47.179 136.794 46.9148 135.874 46.3864C134.957 45.858 134.233 45.093 133.7 44.0916C133.172 43.0902 132.908 41.8778 132.908 40.4545C132.908 39.027 133.176 37.8125 133.713 36.8111C134.25 35.8097 134.979 35.0469 135.899 34.5227C136.82 33.9943 137.855 33.7301 139.006 33.7301C139.764 33.7301 140.467 33.8366 141.115 34.0497C141.767 34.2628 142.344 34.5739 142.847 34.983C143.35 35.3878 143.759 35.8842 144.075 36.4723C144.394 37.0604 144.599 37.7337 144.688 38.4922ZM158.703 40.4545C158.703 41.8821 158.432 43.0966 157.891 44.098C157.354 45.0994 156.621 45.8643 155.692 46.3928C154.767 46.9169 153.728 47.179 152.573 47.179C151.409 47.179 150.365 46.9148 149.441 46.3864C148.516 45.858 147.785 45.093 147.248 44.0916C146.711 43.0902 146.443 41.8778 146.443 40.4545C146.443 39.027 146.711 37.8125 147.248 36.8111C147.785 35.8097 148.516 35.0469 149.441 34.5227C150.365 33.9943 151.409 33.7301 152.573 33.7301C153.728 33.7301 154.767 33.9943 155.692 34.5227C156.621 35.0469 157.354 35.8097 157.891 36.8111C158.432 37.8125 158.703 39.027 158.703 40.4545ZM155.897 40.4545C155.897 39.5298 155.758 38.75 155.481 38.1151C155.208 37.4801 154.823 36.9986 154.324 36.6705C153.826 36.3423 153.242 36.1783 152.573 36.1783C151.904 36.1783 151.32 36.3423 150.821 36.6705C150.323 36.9986 149.935 37.4801 149.658 38.1151C149.385 38.75 149.249 39.5298 149.249 40.4545C149.249 41.3793 149.385 42.1591 149.658 42.794C149.935 43.429 150.323 43.9105 150.821 44.2386C151.32 44.5668 151.904 44.7308 152.573 44.7308C153.242 44.7308 153.826 44.5668 154.324 44.2386C154.823 43.9105 155.208 43.429 155.481 42.794C155.758 42.1591 155.897 41.3793 155.897 40.4545ZM171.703 33.9091V47H169.312L163.617 38.7607H163.521V47H160.753V33.9091H163.182L168.833 42.142H168.948V33.9091H171.703ZM173.989 47V33.9091H182.657V36.1911H176.757V39.3104H182.082V41.5923H176.757V47H173.989ZM184.519 47V33.9091H187.286V44.718H192.899V47H184.519ZM197.499 33.9091V47H194.732V33.9091H197.499ZM211.327 38.4922H208.527C208.476 38.13 208.372 37.8082 208.214 37.527C208.056 37.2415 207.854 36.9986 207.607 36.7983C207.36 36.598 207.074 36.4446 206.75 36.3381C206.431 36.2315 206.083 36.1783 205.708 36.1783C205.031 36.1783 204.441 36.3466 203.938 36.6832C203.435 37.0156 203.045 37.5014 202.768 38.1406C202.491 38.7756 202.352 39.5469 202.352 40.4545C202.352 41.3878 202.491 42.1719 202.768 42.8068C203.049 43.4418 203.441 43.9212 203.944 44.245C204.447 44.5689 205.029 44.7308 205.689 44.7308C206.06 44.7308 206.403 44.6818 206.718 44.5838C207.038 44.4858 207.321 44.343 207.568 44.1555C207.816 43.9638 208.02 43.7315 208.182 43.4588C208.348 43.1861 208.463 42.875 208.527 42.5256L211.327 42.5384C211.254 43.1392 211.073 43.7188 210.784 44.277C210.498 44.831 210.112 45.3274 209.627 45.7663C209.145 46.201 208.57 46.5462 207.901 46.8018C207.236 47.0533 206.484 47.179 205.644 47.179C204.477 47.179 203.433 46.9148 202.512 46.3864C201.596 45.858 200.872 45.093 200.339 44.0916C199.811 43.0902 199.546 41.8778 199.546 40.4545C199.546 39.027 199.815 37.8125 200.352 36.8111C200.889 35.8097 201.617 35.0469 202.538 34.5227C203.458 33.9943 204.494 33.7301 205.644 33.7301C206.403 33.7301 207.106 33.8366 207.754 34.0497C208.406 34.2628 208.983 34.5739 209.486 34.983C209.989 35.3878 210.398 35.8842 210.713 36.4723C211.033 37.0604 211.237 37.7337 211.327 38.4922ZM212.813 36.1911V33.9091H223.564V36.1911H219.557V47H216.821V36.1911H212.813Z" fill="black"/>
<rect x="120.5" y="24.5" width="116" height="32" rx="16" stroke="black"/>
<path d="M57.0874 246.909V260H54.6967L49.0014 251.761H48.9055V260H46.1378V246.909H48.5668L54.2173 255.142H54.3324V246.909H57.0874ZM71.4039 253.455C71.4039 254.882 71.1333 256.097 70.5922 257.098C70.0552 258.099 69.3223 258.864 68.3933 259.393C67.4686 259.917 66.4288 260.179 65.274 260.179C64.1106 260.179 63.0666 259.915 62.1419 259.386C61.2172 258.858 60.4863 258.093 59.9494 257.092C59.4125 256.09 59.144 254.878 59.144 253.455C59.144 252.027 59.4125 250.812 59.9494 249.811C60.4863 248.81 61.2172 248.047 62.1419 247.523C63.0666 246.994 64.1106 246.73 65.274 246.73C66.4288 246.73 67.4686 246.994 68.3933 247.523C69.3223 248.047 70.0552 248.81 70.5922 249.811C71.1333 250.812 71.4039 252.027 71.4039 253.455ZM68.5978 253.455C68.5978 252.53 68.4593 251.75 68.1824 251.115C67.9096 250.48 67.524 249.999 67.0254 249.67C66.5268 249.342 65.943 249.178 65.274 249.178C64.6049 249.178 64.0211 249.342 63.5226 249.67C63.024 249.999 62.6362 250.48 62.3592 251.115C62.0865 251.75 61.9501 252.53 61.9501 253.455C61.9501 254.379 62.0865 255.159 62.3592 255.794C62.6362 256.429 63.024 256.911 63.5226 257.239C64.0211 257.567 64.6049 257.731 65.274 257.731C65.943 257.731 66.5268 257.567 67.0254 257.239C67.524 256.911 67.9096 256.429 68.1824 255.794C68.4593 255.159 68.5978 254.379 68.5978 253.455ZM72.358 249.191V246.909H83.1094V249.191H79.1016V260H76.3658V249.191H72.358ZM84.88 260V246.909H87.6477V252.31H93.2663V246.909H96.0277V260H93.2663V254.592H87.6477V260H84.88ZM101.077 246.909V260H98.3097V246.909H101.077ZM114.304 246.909V260H111.914L106.218 251.761H106.122V260H103.355V246.909H105.784L111.434 255.142H111.549V246.909H114.304ZM125.271 251.141C125.182 250.83 125.056 250.555 124.894 250.316C124.732 250.073 124.534 249.869 124.3 249.702C124.07 249.532 123.805 249.402 123.507 249.312C123.213 249.223 122.887 249.178 122.529 249.178C121.86 249.178 121.272 249.344 120.765 249.677C120.262 250.009 119.87 250.493 119.589 251.128C119.308 251.759 119.167 252.53 119.167 253.442C119.167 254.354 119.305 255.129 119.582 255.768C119.859 256.408 120.251 256.896 120.759 257.232C121.266 257.565 121.864 257.731 122.555 257.731C123.181 257.731 123.716 257.62 124.159 257.398C124.607 257.173 124.947 256.855 125.182 256.446C125.42 256.037 125.54 255.553 125.54 254.995L126.102 255.078H122.727V252.994H128.205V254.643C128.205 255.794 127.962 256.783 127.477 257.609C126.991 258.432 126.322 259.067 125.469 259.514C124.617 259.957 123.641 260.179 122.542 260.179C121.315 260.179 120.237 259.908 119.308 259.367C118.379 258.822 117.654 258.048 117.134 257.047C116.619 256.041 116.361 254.848 116.361 253.467C116.361 252.406 116.514 251.46 116.821 250.629C117.132 249.794 117.567 249.087 118.125 248.507C118.683 247.928 119.333 247.487 120.075 247.184C120.816 246.881 121.619 246.73 122.484 246.73C123.226 246.73 123.916 246.839 124.555 247.056C125.195 247.269 125.761 247.572 126.256 247.964C126.754 248.356 127.161 248.822 127.477 249.364C127.792 249.901 127.994 250.493 128.084 251.141H125.271Z" fill="black"/>
<rect x="33.5" y="237.5" width="108" height="32" rx="16" stroke="black"/>
<path d="M304.523 311.192C303.517 311.192 302.652 310.979 301.928 310.553C301.207 310.122 300.653 309.526 300.266 308.763C299.882 308 299.69 307.122 299.69 306.129C299.69 305.124 299.884 304.241 300.272 303.483C300.664 302.72 301.22 302.126 301.94 301.7C302.661 301.269 303.517 301.054 304.51 301.054C305.366 301.054 306.116 301.21 306.76 301.521C307.403 301.832 307.913 302.268 308.288 302.831C308.663 303.393 308.869 304.054 308.908 304.812H306.338C306.266 304.322 306.074 303.928 305.763 303.63C305.456 303.327 305.053 303.176 304.555 303.176C304.133 303.176 303.764 303.291 303.449 303.521C303.138 303.747 302.895 304.077 302.72 304.512C302.545 304.947 302.458 305.473 302.458 306.091C302.458 306.717 302.543 307.25 302.714 307.689C302.888 308.128 303.134 308.462 303.449 308.692C303.764 308.923 304.133 309.038 304.555 309.038C304.866 309.038 305.145 308.974 305.392 308.846C305.643 308.718 305.85 308.533 306.012 308.29C306.178 308.043 306.287 307.746 306.338 307.401H308.908C308.865 308.151 308.661 308.812 308.294 309.383C307.932 309.95 307.431 310.393 306.792 310.712C306.153 311.032 305.396 311.192 304.523 311.192ZM315.087 311.192C314.094 311.192 313.236 310.981 312.511 310.559C311.791 310.133 311.235 309.54 310.843 308.782C310.451 308.019 310.255 307.135 310.255 306.129C310.255 305.115 310.451 304.229 310.843 303.47C311.235 302.707 311.791 302.115 312.511 301.693C313.236 301.267 314.094 301.054 315.087 301.054C316.08 301.054 316.937 301.267 317.657 301.693C318.381 302.115 318.939 302.707 319.331 303.47C319.724 304.229 319.92 305.115 319.92 306.129C319.92 307.135 319.724 308.019 319.331 308.782C318.939 309.54 318.381 310.133 317.657 310.559C316.937 310.981 316.08 311.192 315.087 311.192ZM315.1 309.082C315.552 309.082 315.929 308.955 316.231 308.699C316.534 308.439 316.762 308.085 316.915 307.638C317.073 307.19 317.152 306.681 317.152 306.11C317.152 305.539 317.073 305.03 316.915 304.582C316.762 304.135 316.534 303.781 316.231 303.521C315.929 303.261 315.552 303.131 315.1 303.131C314.644 303.131 314.26 303.261 313.949 303.521C313.643 303.781 313.41 304.135 313.253 304.582C313.099 305.03 313.023 305.539 313.023 306.11C313.023 306.681 313.099 307.19 313.253 307.638C313.41 308.085 313.643 308.439 313.949 308.699C314.26 308.955 314.644 309.082 315.1 309.082ZM324.413 297.909V311H321.69V297.909H324.413ZM332.891 306.82V301.182H335.614V311H332.999V309.217H332.897C332.675 309.792 332.307 310.254 331.791 310.604C331.28 310.953 330.656 311.128 329.918 311.128C329.262 311.128 328.685 310.979 328.186 310.68C327.688 310.382 327.298 309.958 327.016 309.408C326.739 308.859 326.599 308.2 326.594 307.433V301.182H329.317V306.947C329.322 307.527 329.477 307.985 329.784 308.322C330.091 308.658 330.502 308.827 331.018 308.827C331.346 308.827 331.653 308.752 331.938 308.603C332.224 308.45 332.454 308.224 332.629 307.925C332.808 307.627 332.895 307.259 332.891 306.82ZM337.792 311V301.182H340.387V302.914H340.502C340.706 302.339 341.047 301.885 341.525 301.553C342.002 301.22 342.573 301.054 343.238 301.054C343.911 301.054 344.484 301.222 344.957 301.559C345.43 301.891 345.746 302.343 345.903 302.914H346.006C346.206 302.352 346.568 301.902 347.092 301.565C347.621 301.224 348.245 301.054 348.965 301.054C349.881 301.054 350.625 301.346 351.196 301.93C351.771 302.509 352.059 303.332 352.059 304.397V311H349.342V304.934C349.342 304.388 349.197 303.979 348.907 303.707C348.618 303.434 348.256 303.298 347.821 303.298C347.327 303.298 346.941 303.455 346.664 303.771C346.387 304.082 346.248 304.493 346.248 305.004V311H343.608V304.876C343.608 304.395 343.47 304.011 343.193 303.726C342.92 303.44 342.56 303.298 342.113 303.298C341.81 303.298 341.537 303.374 341.295 303.528C341.056 303.677 340.866 303.888 340.726 304.161C340.585 304.429 340.515 304.744 340.515 305.107V311H337.792ZM356.933 305.324V311H354.21V301.182H356.805V302.914H356.92C357.137 302.343 357.502 301.891 358.013 301.559C358.524 301.222 359.144 301.054 359.873 301.054C360.555 301.054 361.149 301.203 361.656 301.501C362.164 301.8 362.558 302.226 362.839 302.78C363.12 303.33 363.261 303.986 363.261 304.749V311H360.538V305.234C360.542 304.634 360.389 304.165 360.078 303.828C359.767 303.487 359.338 303.317 358.793 303.317C358.426 303.317 358.102 303.396 357.821 303.553C357.544 303.711 357.327 303.941 357.169 304.244C357.016 304.542 356.937 304.902 356.933 305.324ZM371.524 304.544V306.705H365.554V304.544H371.524ZM376.567 305.324V311H373.844V301.182H376.44V302.914H376.555C376.772 302.343 377.136 301.891 377.648 301.559C378.159 301.222 378.779 301.054 379.508 301.054C380.19 301.054 380.784 301.203 381.291 301.501C381.798 301.8 382.192 302.226 382.474 302.78C382.755 303.33 382.896 303.986 382.896 304.749V311H380.173V305.234C380.177 304.634 380.023 304.165 379.712 303.828C379.401 303.487 378.973 303.317 378.428 303.317C378.061 303.317 377.737 303.396 377.456 303.553C377.179 303.711 376.962 303.941 376.804 304.244C376.651 304.542 376.572 304.902 376.567 305.324ZM387.841 311.185C387.215 311.185 386.657 311.077 386.167 310.859C385.677 310.638 385.289 310.312 385.003 309.881C384.722 309.447 384.581 308.906 384.581 308.258C384.581 307.712 384.682 307.254 384.882 306.884C385.082 306.513 385.355 306.214 385.7 305.989C386.045 305.763 386.437 305.592 386.876 305.477C387.319 305.362 387.784 305.281 388.27 305.234C388.841 305.175 389.301 305.119 389.65 305.068C390 305.013 390.253 304.932 390.411 304.825C390.569 304.719 390.648 304.561 390.648 304.352V304.314C390.648 303.909 390.52 303.596 390.264 303.374C390.013 303.153 389.655 303.042 389.19 303.042C388.7 303.042 388.31 303.151 388.02 303.368C387.731 303.581 387.539 303.849 387.445 304.173L384.927 303.969C385.055 303.372 385.306 302.857 385.681 302.422C386.056 301.983 386.54 301.646 387.132 301.412C387.729 301.173 388.419 301.054 389.203 301.054C389.748 301.054 390.27 301.118 390.769 301.246C391.272 301.374 391.717 301.572 392.105 301.84C392.497 302.109 392.806 302.454 393.032 302.876C393.258 303.293 393.371 303.794 393.371 304.378V311H390.788V309.638H390.711C390.554 309.945 390.343 310.216 390.079 310.45C389.814 310.68 389.497 310.862 389.126 310.994C388.756 311.121 388.327 311.185 387.841 311.185ZM388.621 309.306C389.022 309.306 389.376 309.227 389.682 309.07C389.989 308.908 390.23 308.69 390.405 308.418C390.579 308.145 390.667 307.836 390.667 307.491V306.449C390.581 306.504 390.464 306.555 390.315 306.602C390.17 306.645 390.006 306.685 389.823 306.724C389.64 306.758 389.456 306.79 389.273 306.82C389.09 306.845 388.924 306.869 388.775 306.89C388.455 306.937 388.176 307.011 387.937 307.114C387.699 307.216 387.513 307.354 387.381 307.529C387.249 307.7 387.183 307.913 387.183 308.168C387.183 308.539 387.317 308.822 387.586 309.018C387.858 309.21 388.204 309.306 388.621 309.306ZM395.483 311V301.182H398.078V302.914H398.193C398.398 302.339 398.739 301.885 399.216 301.553C399.693 301.22 400.264 301.054 400.929 301.054C401.602 301.054 402.176 301.222 402.649 301.559C403.122 301.891 403.437 302.343 403.595 302.914H403.697C403.897 302.352 404.259 301.902 404.784 301.565C405.312 301.224 405.936 301.054 406.656 301.054C407.573 301.054 408.316 301.346 408.887 301.93C409.463 302.509 409.75 303.332 409.75 304.397V311H407.034V304.934C407.034 304.388 406.889 303.979 406.599 303.707C406.309 303.434 405.947 303.298 405.512 303.298C405.018 303.298 404.632 303.455 404.355 303.771C404.078 304.082 403.94 304.493 403.94 305.004V311H401.3V304.876C401.3 304.395 401.161 304.011 400.884 303.726C400.612 303.44 400.252 303.298 399.804 303.298C399.502 303.298 399.229 303.374 398.986 303.528C398.747 303.677 398.558 303.888 398.417 304.161C398.276 304.429 398.206 304.744 398.206 305.107V311H395.483ZM416.376 311.192C415.366 311.192 414.496 310.987 413.768 310.578C413.043 310.165 412.485 309.581 412.093 308.827C411.701 308.068 411.505 307.171 411.505 306.136C411.505 305.126 411.701 304.239 412.093 303.477C412.485 302.714 413.037 302.119 413.748 301.693C414.464 301.267 415.304 301.054 416.267 301.054C416.915 301.054 417.518 301.158 418.076 301.367C418.638 301.572 419.128 301.881 419.546 302.294C419.968 302.707 420.296 303.227 420.53 303.854C420.765 304.476 420.882 305.205 420.882 306.04V306.788H412.591V305.1H418.319C418.319 304.708 418.233 304.361 418.063 304.058C417.893 303.756 417.656 303.519 417.354 303.349C417.055 303.174 416.708 303.087 416.312 303.087C415.898 303.087 415.532 303.183 415.212 303.374C414.897 303.562 414.65 303.815 414.471 304.135C414.292 304.45 414.2 304.802 414.196 305.19V306.794C414.196 307.28 414.285 307.7 414.464 308.053C414.648 308.407 414.905 308.68 415.238 308.871C415.57 309.063 415.964 309.159 416.42 309.159C416.723 309.159 417 309.116 417.251 309.031C417.503 308.946 417.718 308.818 417.897 308.648C418.076 308.477 418.212 308.268 418.306 308.021L420.824 308.188C420.697 308.793 420.434 309.321 420.038 309.773C419.646 310.22 419.139 310.57 418.517 310.821C417.899 311.068 417.185 311.192 416.376 311.192Z" fill="black"/>
<rect x="287.5" y="288.5" width="146" height="32" rx="16" stroke="black"/>
<path d="M299.523 368.192C298.517 368.192 297.652 367.979 296.928 367.553C296.207 367.122 295.653 366.526 295.266 365.763C294.882 365 294.69 364.122 294.69 363.129C294.69 362.124 294.884 361.241 295.272 360.483C295.664 359.72 296.22 359.126 296.94 358.7C297.661 358.269 298.517 358.054 299.51 358.054C300.366 358.054 301.116 358.21 301.76 358.521C302.403 358.832 302.913 359.268 303.288 359.831C303.663 360.393 303.869 361.054 303.908 361.812H301.338C301.266 361.322 301.074 360.928 300.763 360.63C300.456 360.327 300.053 360.176 299.555 360.176C299.133 360.176 298.764 360.291 298.449 360.521C298.138 360.747 297.895 361.077 297.72 361.512C297.545 361.947 297.458 362.473 297.458 363.091C297.458 363.717 297.543 364.25 297.714 364.689C297.888 365.128 298.134 365.462 298.449 365.692C298.764 365.923 299.133 366.038 299.555 366.038C299.866 366.038 300.145 365.974 300.392 365.846C300.643 365.718 300.85 365.533 301.012 365.29C301.178 365.043 301.287 364.746 301.338 364.401H303.908C303.865 365.151 303.661 365.812 303.294 366.383C302.932 366.95 302.431 367.393 301.792 367.712C301.153 368.032 300.396 368.192 299.523 368.192ZM310.087 368.192C309.094 368.192 308.236 367.981 307.511 367.559C306.791 367.133 306.235 366.54 305.843 365.782C305.451 365.019 305.255 364.135 305.255 363.129C305.255 362.115 305.451 361.229 305.843 360.47C306.235 359.707 306.791 359.115 307.511 358.693C308.236 358.267 309.094 358.054 310.087 358.054C311.08 358.054 311.937 358.267 312.657 358.693C313.381 359.115 313.939 359.707 314.331 360.47C314.724 361.229 314.92 362.115 314.92 363.129C314.92 364.135 314.724 365.019 314.331 365.782C313.939 366.54 313.381 367.133 312.657 367.559C311.937 367.981 311.08 368.192 310.087 368.192ZM310.1 366.082C310.552 366.082 310.929 365.955 311.231 365.699C311.534 365.439 311.762 365.085 311.915 364.638C312.073 364.19 312.152 363.681 312.152 363.11C312.152 362.539 312.073 362.03 311.915 361.582C311.762 361.135 311.534 360.781 311.231 360.521C310.929 360.261 310.552 360.131 310.1 360.131C309.644 360.131 309.26 360.261 308.949 360.521C308.643 360.781 308.41 361.135 308.253 361.582C308.099 362.03 308.023 362.539 308.023 363.11C308.023 363.681 308.099 364.19 308.253 364.638C308.41 365.085 308.643 365.439 308.949 365.699C309.26 365.955 309.644 366.082 310.1 366.082ZM319.413 354.909V368H316.69V354.909H319.413ZM327.891 363.82V358.182H330.614V368H327.999V366.217H327.897C327.675 366.792 327.307 367.254 326.791 367.604C326.28 367.953 325.656 368.128 324.918 368.128C324.262 368.128 323.685 367.979 323.186 367.68C322.688 367.382 322.298 366.958 322.016 366.408C321.739 365.859 321.599 365.2 321.594 364.433V358.182H324.317V363.947C324.322 364.527 324.477 364.985 324.784 365.322C325.091 365.658 325.502 365.827 326.018 365.827C326.346 365.827 326.653 365.752 326.938 365.603C327.224 365.45 327.454 365.224 327.629 364.925C327.808 364.627 327.895 364.259 327.891 363.82ZM332.792 368V358.182H335.387V359.914H335.502C335.706 359.339 336.047 358.885 336.525 358.553C337.002 358.22 337.573 358.054 338.238 358.054C338.911 358.054 339.484 358.222 339.957 358.559C340.43 358.891 340.746 359.343 340.903 359.914H341.006C341.206 359.352 341.568 358.902 342.092 358.565C342.621 358.224 343.245 358.054 343.965 358.054C344.881 358.054 345.625 358.346 346.196 358.93C346.771 359.509 347.059 360.332 347.059 361.397V368H344.342V361.934C344.342 361.388 344.197 360.979 343.907 360.707C343.618 360.434 343.256 360.298 342.821 360.298C342.327 360.298 341.941 360.455 341.664 360.771C341.387 361.082 341.248 361.493 341.248 362.004V368H338.608V361.876C338.608 361.395 338.47 361.011 338.193 360.726C337.92 360.44 337.56 360.298 337.113 360.298C336.81 360.298 336.537 360.374 336.295 360.528C336.056 360.677 335.866 360.888 335.726 361.161C335.585 361.429 335.515 361.744 335.515 362.107V368H332.792ZM351.933 362.324V368H349.21V358.182H351.805V359.914H351.92C352.137 359.343 352.502 358.891 353.013 358.559C353.524 358.222 354.144 358.054 354.873 358.054C355.555 358.054 356.149 358.203 356.656 358.501C357.164 358.8 357.558 359.226 357.839 359.78C358.12 360.33 358.261 360.986 358.261 361.749V368H355.538V362.234C355.542 361.634 355.389 361.165 355.078 360.828C354.767 360.487 354.338 360.317 353.793 360.317C353.426 360.317 353.102 360.396 352.821 360.553C352.544 360.711 352.327 360.941 352.169 361.244C352.016 361.542 351.937 361.902 351.933 362.324ZM366.524 361.544V363.705H360.554V361.544H366.524ZM371.567 362.324V368H368.844V358.182H371.44V359.914H371.555C371.772 359.343 372.136 358.891 372.648 358.559C373.159 358.222 373.779 358.054 374.508 358.054C375.19 358.054 375.784 358.203 376.291 358.501C376.798 358.8 377.192 359.226 377.474 359.78C377.755 360.33 377.896 360.986 377.896 361.749V368H375.173V362.234C375.177 361.634 375.023 361.165 374.712 360.828C374.401 360.487 373.973 360.317 373.428 360.317C373.061 360.317 372.737 360.396 372.456 360.553C372.179 360.711 371.962 360.941 371.804 361.244C371.651 361.542 371.572 361.902 371.567 362.324ZM382.841 368.185C382.215 368.185 381.657 368.077 381.167 367.859C380.677 367.638 380.289 367.312 380.003 366.881C379.722 366.447 379.581 365.906 379.581 365.258C379.581 364.712 379.682 364.254 379.882 363.884C380.082 363.513 380.355 363.214 380.7 362.989C381.045 362.763 381.437 362.592 381.876 362.477C382.319 362.362 382.784 362.281 383.27 362.234C383.841 362.175 384.301 362.119 384.65 362.068C385 362.013 385.253 361.932 385.411 361.825C385.569 361.719 385.648 361.561 385.648 361.352V361.314C385.648 360.909 385.52 360.596 385.264 360.374C385.013 360.153 384.655 360.042 384.19 360.042C383.7 360.042 383.31 360.151 383.02 360.368C382.731 360.581 382.539 360.849 382.445 361.173L379.927 360.969C380.055 360.372 380.306 359.857 380.681 359.422C381.056 358.983 381.54 358.646 382.132 358.412C382.729 358.173 383.419 358.054 384.203 358.054C384.748 358.054 385.27 358.118 385.769 358.246C386.272 358.374 386.717 358.572 387.105 358.84C387.497 359.109 387.806 359.454 388.032 359.876C388.258 360.293 388.371 360.794 388.371 361.378V368H385.788V366.638H385.711C385.554 366.945 385.343 367.216 385.079 367.45C384.814 367.68 384.497 367.862 384.126 367.994C383.756 368.121 383.327 368.185 382.841 368.185ZM383.621 366.306C384.022 366.306 384.376 366.227 384.682 366.07C384.989 365.908 385.23 365.69 385.405 365.418C385.579 365.145 385.667 364.836 385.667 364.491V363.449C385.581 363.504 385.464 363.555 385.315 363.602C385.17 363.645 385.006 363.685 384.823 363.724C384.64 363.758 384.456 363.79 384.273 363.82C384.09 363.845 383.924 363.869 383.775 363.89C383.455 363.937 383.176 364.011 382.937 364.114C382.699 364.216 382.513 364.354 382.381 364.529C382.249 364.7 382.183 364.913 382.183 365.168C382.183 365.539 382.317 365.822 382.586 366.018C382.858 366.21 383.204 366.306 383.621 366.306ZM390.483 368V358.182H393.078V359.914H393.193C393.398 359.339 393.739 358.885 394.216 358.553C394.693 358.22 395.264 358.054 395.929 358.054C396.602 358.054 397.176 358.222 397.649 358.559C398.122 358.891 398.437 359.343 398.595 359.914H398.697C398.897 359.352 399.259 358.902 399.784 358.565C400.312 358.224 400.936 358.054 401.656 358.054C402.573 358.054 403.316 358.346 403.887 358.93C404.463 359.509 404.75 360.332 404.75 361.397V368H402.034V361.934C402.034 361.388 401.889 360.979 401.599 360.707C401.309 360.434 400.947 360.298 400.512 360.298C400.018 360.298 399.632 360.455 399.355 360.771C399.078 361.082 398.94 361.493 398.94 362.004V368H396.3V361.876C396.3 361.395 396.161 361.011 395.884 360.726C395.612 360.44 395.252 360.298 394.804 360.298C394.502 360.298 394.229 360.374 393.986 360.528C393.747 360.677 393.558 360.888 393.417 361.161C393.276 361.429 393.206 361.744 393.206 362.107V368H390.483ZM411.376 368.192C410.366 368.192 409.496 367.987 408.768 367.578C408.043 367.165 407.485 366.581 407.093 365.827C406.701 365.068 406.505 364.171 406.505 363.136C406.505 362.126 406.701 361.239 407.093 360.477C407.485 359.714 408.037 359.119 408.748 358.693C409.464 358.267 410.304 358.054 411.267 358.054C411.915 358.054 412.518 358.158 413.076 358.367C413.638 358.572 414.128 358.881 414.546 359.294C414.968 359.707 415.296 360.227 415.53 360.854C415.765 361.476 415.882 362.205 415.882 363.04V363.788H407.591V362.1H413.319C413.319 361.708 413.233 361.361 413.063 361.058C412.893 360.756 412.656 360.519 412.354 360.349C412.055 360.174 411.708 360.087 411.312 360.087C410.898 360.087 410.532 360.183 410.212 360.374C409.897 360.562 409.65 360.815 409.471 361.135C409.292 361.45 409.2 361.802 409.196 362.19V363.794C409.196 364.28 409.285 364.7 409.464 365.053C409.648 365.407 409.905 365.68 410.238 365.871C410.57 366.063 410.964 366.159 411.42 366.159C411.723 366.159 412 366.116 412.251 366.031C412.503 365.946 412.718 365.818 412.897 365.648C413.076 365.477 413.212 365.268 413.306 365.021L415.824 365.188C415.697 365.793 415.434 366.321 415.038 366.773C414.646 367.22 414.139 367.57 413.517 367.821C412.899 368.068 412.185 368.192 411.376 368.192ZM423.776 361.544V363.705H417.806V361.544H423.776ZM428.819 354.909V368H426.096V354.909H428.819ZM431.001 368V358.182H433.724V368H431.001ZM432.369 356.916C431.964 356.916 431.616 356.782 431.327 356.513C431.041 356.241 430.898 355.915 430.898 355.536C430.898 355.161 431.041 354.839 431.327 354.57C431.616 354.298 431.964 354.161 432.369 354.161C432.773 354.161 433.119 354.298 433.404 354.57C433.694 354.839 433.839 355.161 433.839 355.536C433.839 355.915 433.694 356.241 433.404 356.513C433.119 356.782 432.773 356.916 432.369 356.916ZM444.074 360.982L441.581 361.135C441.539 360.922 441.447 360.73 441.306 360.56C441.166 360.385 440.98 360.246 440.75 360.144C440.524 360.038 440.254 359.984 439.938 359.984C439.517 359.984 439.161 360.074 438.871 360.253C438.581 360.428 438.436 360.662 438.436 360.956C438.436 361.19 438.53 361.388 438.718 361.55C438.905 361.712 439.227 361.842 439.683 361.94L441.46 362.298C442.414 362.494 443.126 362.81 443.595 363.244C444.063 363.679 444.298 364.25 444.298 364.957C444.298 365.601 444.108 366.165 443.729 366.651C443.354 367.137 442.838 367.516 442.182 367.789C441.53 368.058 440.778 368.192 439.926 368.192C438.626 368.192 437.59 367.921 436.819 367.38C436.052 366.835 435.602 366.093 435.47 365.156L438.149 365.015C438.23 365.411 438.426 365.714 438.737 365.923C439.048 366.127 439.446 366.229 439.932 366.229C440.409 366.229 440.793 366.138 441.083 365.955C441.377 365.767 441.526 365.526 441.53 365.232C441.526 364.985 441.421 364.783 441.217 364.625C441.012 364.463 440.697 364.339 440.271 364.254L438.57 363.915C437.612 363.724 436.898 363.391 436.429 362.918C435.965 362.445 435.732 361.842 435.732 361.109C435.732 360.479 435.903 359.935 436.244 359.479C436.589 359.023 437.073 358.672 437.695 358.425C438.321 358.178 439.054 358.054 439.894 358.054C441.134 358.054 442.11 358.316 442.821 358.84C443.537 359.364 443.955 360.078 444.074 360.982ZM451.235 358.182V360.227H445.322V358.182H451.235ZM446.664 355.83H449.387V364.983C449.387 365.234 449.426 365.43 449.502 365.571C449.579 365.707 449.686 365.803 449.822 365.859C449.963 365.914 450.125 365.942 450.308 365.942C450.436 365.942 450.564 365.931 450.691 365.91C450.819 365.884 450.917 365.865 450.985 365.852L451.414 367.879C451.277 367.921 451.086 367.97 450.838 368.026C450.591 368.085 450.291 368.121 449.937 368.134C449.281 368.16 448.706 368.072 448.211 367.872C447.721 367.672 447.34 367.361 447.067 366.939C446.794 366.517 446.66 365.984 446.664 365.341V355.83Z" fill="black"/>
<rect x="288.5" y="345.5" width="168" height="32" stroke="black"/>
<path d="M54.2237 297.909H56.9915V306.411C56.9915 307.365 56.7635 308.2 56.3075 308.916C55.8558 309.632 55.223 310.19 54.4091 310.591C53.5952 310.987 52.647 311.185 51.5646 311.185C50.478 311.185 49.5277 310.987 48.7138 310.591C47.8999 310.19 47.267 309.632 46.8153 308.916C46.3636 308.2 46.1378 307.365 46.1378 306.411V297.909H48.9055V306.174C48.9055 306.673 49.0142 307.116 49.2315 307.504C49.4531 307.891 49.7642 308.196 50.1648 308.418C50.5653 308.639 51.032 308.75 51.5646 308.75C52.1016 308.75 52.5682 308.639 52.9645 308.418C53.3651 308.196 53.674 307.891 53.8913 307.504C54.1129 307.116 54.2237 306.673 54.2237 306.174V297.909ZM59.2686 311V297.909H64.4334C65.4263 297.909 66.2722 298.099 66.9711 298.478C67.6699 298.853 68.2026 299.375 68.5691 300.044C68.9398 300.709 69.1252 301.476 69.1252 302.345C69.1252 303.214 68.9377 303.982 68.5627 304.646C68.1877 305.311 67.6444 305.829 66.9327 306.2C66.2253 306.57 65.3688 306.756 64.3631 306.756H61.0712V304.538H63.9157C64.4483 304.538 64.8873 304.446 65.2324 304.263C65.5819 304.075 65.8418 303.817 66.0123 303.489C66.187 303.157 66.2743 302.776 66.2743 302.345C66.2743 301.911 66.187 301.531 66.0123 301.207C65.8418 300.879 65.5819 300.626 65.2324 300.447C64.883 300.263 64.4398 300.172 63.9029 300.172H62.0364V311H59.2686ZM75.5636 311H70.9229V297.909H75.6019C76.9187 297.909 78.0522 298.171 79.0025 298.695C79.9528 299.215 80.6836 299.963 81.195 300.939C81.7106 301.915 81.9684 303.082 81.9684 304.442C81.9684 305.805 81.7106 306.977 81.195 307.957C80.6836 308.937 79.9485 309.69 78.9897 310.214C78.0352 310.738 76.8931 311 75.5636 311ZM73.6907 308.629H75.4485C76.2667 308.629 76.9549 308.484 77.5131 308.194C78.0756 307.9 78.4975 307.446 78.7788 306.832C79.0643 306.214 79.207 305.418 79.207 304.442C79.207 303.474 79.0643 302.684 78.7788 302.07C78.4975 301.457 78.0778 301.005 77.5195 300.715C76.9613 300.425 76.2731 300.281 75.4549 300.281H73.6907V308.629ZM85.5368 311H82.5708L87.09 297.909H90.6568L95.1696 311H92.2037L88.9245 300.901H88.8223L85.5368 311ZM85.3514 305.854H92.3571V308.015H85.3514V305.854ZM94.647 300.191V297.909H105.398V300.191H101.391V311H98.6548V300.191H94.647ZM107.169 311V297.909H115.99V300.191H109.937V303.31H115.536V305.592H109.937V308.718H116.016V311H107.169Z" fill="black"/>
<rect x="33.5" y="288.5" width="95" height="32" rx="16" stroke="black"/>
<path d="M171.239 301.674C171.188 301.158 170.969 300.758 170.581 300.472C170.193 300.187 169.667 300.044 169.002 300.044C168.55 300.044 168.169 300.108 167.858 300.236C167.547 300.359 167.308 300.532 167.142 300.754C166.98 300.975 166.899 301.227 166.899 301.508C166.891 301.742 166.94 301.947 167.046 302.121C167.157 302.296 167.308 302.447 167.5 302.575C167.692 302.699 167.913 302.808 168.165 302.901C168.416 302.991 168.685 303.067 168.97 303.131L170.146 303.413C170.717 303.54 171.241 303.711 171.719 303.924C172.196 304.137 172.609 304.399 172.959 304.71C173.308 305.021 173.579 305.388 173.771 305.81C173.967 306.232 174.067 306.715 174.071 307.261C174.067 308.062 173.862 308.756 173.457 309.344C173.057 309.928 172.477 310.382 171.719 310.706C170.964 311.026 170.055 311.185 168.989 311.185C167.933 311.185 167.012 311.023 166.228 310.7C165.448 310.376 164.839 309.896 164.4 309.261C163.965 308.622 163.737 307.832 163.716 306.89H166.394C166.424 307.329 166.55 307.695 166.771 307.989C166.997 308.279 167.298 308.499 167.673 308.648C168.052 308.793 168.48 308.865 168.957 308.865C169.426 308.865 169.833 308.797 170.178 308.661C170.528 308.524 170.798 308.335 170.99 308.092C171.182 307.849 171.278 307.57 171.278 307.254C171.278 306.96 171.19 306.713 171.016 306.513C170.845 306.312 170.594 306.142 170.261 306.001C169.933 305.861 169.531 305.733 169.053 305.618L167.628 305.26C166.524 304.991 165.653 304.572 165.013 304.001C164.374 303.43 164.057 302.661 164.061 301.693C164.057 300.901 164.268 300.208 164.694 299.616C165.124 299.023 165.714 298.561 166.464 298.229C167.214 297.896 168.067 297.73 169.021 297.73C169.993 297.73 170.841 297.896 171.565 298.229C172.294 298.561 172.861 299.023 173.266 299.616C173.67 300.208 173.879 300.894 173.892 301.674H171.239ZM175.933 311V297.909H184.754V300.191H178.7V303.31H184.3V305.592H178.7V308.718H184.779V311H175.933ZM186.456 300.191V297.909H197.207V300.191H193.199V311H190.463V300.191H186.456Z" fill="black"/>
<rect x="151.5" y="288.5" width="57" height="32" rx="16" stroke="black"/>
<path d="M613.085 176L609.339 162.909H612.362L614.529 172.005H614.638L617.028 162.909H619.617L622.001 172.024H622.116L624.283 162.909H627.307L623.561 176H620.864L618.371 167.441H618.268L615.782 176H613.085ZM628.788 176V162.909H631.556V168.31H637.175V162.909H639.936V176H637.175V170.592H631.556V176H628.788ZM642.218 176V162.909H651.039V165.191H644.986V168.31H650.585V170.592H644.986V173.718H651.064V176H642.218ZM653.239 176V162.909H658.404C659.393 162.909 660.237 163.086 660.935 163.44C661.638 163.789 662.173 164.286 662.54 164.929C662.911 165.568 663.096 166.32 663.096 167.185C663.096 168.055 662.908 168.803 662.533 169.429C662.158 170.051 661.615 170.528 660.903 170.861C660.196 171.193 659.339 171.359 658.334 171.359H654.876V169.135H657.886C658.415 169.135 658.854 169.062 659.203 168.918C659.553 168.773 659.813 168.555 659.983 168.266C660.158 167.976 660.245 167.616 660.245 167.185C660.245 166.751 660.158 166.384 659.983 166.086C659.813 165.788 659.55 165.562 659.197 165.408C658.847 165.251 658.406 165.172 657.874 165.172H656.007V176H653.239ZM660.309 170.043L663.562 176H660.507L657.324 170.043H660.309ZM665.052 176V162.909H673.873V165.191H667.82V168.31H673.419V170.592H667.82V173.718H673.898V176H665.052Z" fill="black"/>
<rect x="596.5" y="152.5" width="92" height="32" rx="16" stroke="black"/>
<path d="M722.561 173.192C721.551 173.192 720.682 172.987 719.953 172.578C719.229 172.165 718.67 171.581 718.278 170.827C717.886 170.068 717.69 169.171 717.69 168.136C717.69 167.126 717.886 166.239 718.278 165.477C718.67 164.714 719.222 164.119 719.934 163.693C720.65 163.267 721.489 163.054 722.452 163.054C723.1 163.054 723.703 163.158 724.261 163.367C724.824 163.572 725.314 163.881 725.732 164.294C726.153 164.707 726.482 165.227 726.716 165.854C726.95 166.476 727.067 167.205 727.067 168.04V168.788H718.777V167.1H724.504C724.504 166.708 724.419 166.361 724.249 166.058C724.078 165.756 723.842 165.519 723.539 165.349C723.241 165.174 722.893 165.087 722.497 165.087C722.084 165.087 721.717 165.183 721.398 165.374C721.082 165.562 720.835 165.815 720.656 166.135C720.477 166.45 720.386 166.802 720.381 167.19V168.794C720.381 169.28 720.471 169.7 720.65 170.053C720.833 170.407 721.091 170.68 721.423 170.871C721.756 171.063 722.15 171.159 722.606 171.159C722.908 171.159 723.185 171.116 723.437 171.031C723.688 170.946 723.903 170.818 724.082 170.648C724.261 170.477 724.398 170.268 724.491 170.021L727.01 170.188C726.882 170.793 726.62 171.321 726.224 171.773C725.832 172.22 725.325 172.57 724.702 172.821C724.085 173.068 723.371 173.192 722.561 173.192ZM730.944 163.182L732.747 166.614L734.594 163.182H737.387L734.543 168.091L737.464 173H734.684L732.747 169.606L730.842 173H728.029L730.944 168.091L728.132 163.182H730.944ZM739.005 176.682V163.182H741.689V164.831H741.811C741.93 164.567 742.103 164.298 742.328 164.026C742.559 163.749 742.857 163.518 743.223 163.335C743.594 163.148 744.054 163.054 744.604 163.054C745.32 163.054 745.98 163.241 746.586 163.616C747.191 163.987 747.674 164.548 748.037 165.298C748.399 166.043 748.58 166.979 748.58 168.104C748.58 169.199 748.403 170.124 748.049 170.878C747.7 171.628 747.223 172.197 746.618 172.585C746.017 172.968 745.343 173.16 744.598 173.16C744.069 173.16 743.62 173.072 743.249 172.898C742.882 172.723 742.582 172.504 742.348 172.239C742.113 171.971 741.934 171.7 741.811 171.428H741.728V176.682H739.005ZM741.67 168.091C741.67 168.675 741.751 169.184 741.913 169.619C742.075 170.053 742.309 170.392 742.616 170.635C742.923 170.874 743.296 170.993 743.735 170.993C744.178 170.993 744.553 170.871 744.86 170.629C745.167 170.381 745.399 170.04 745.556 169.606C745.718 169.167 745.799 168.662 745.799 168.091C745.799 167.524 745.721 167.026 745.563 166.595C745.405 166.165 745.173 165.828 744.866 165.585C744.559 165.342 744.182 165.221 743.735 165.221C743.292 165.221 742.917 165.338 742.61 165.572C742.307 165.807 742.075 166.139 741.913 166.57C741.751 167 741.67 167.507 741.67 168.091ZM750.395 173V163.182H753.035V164.895H753.137C753.316 164.286 753.617 163.825 754.039 163.514C754.461 163.199 754.946 163.041 755.496 163.041C755.632 163.041 755.779 163.05 755.937 163.067C756.095 163.084 756.233 163.107 756.353 163.137V165.553C756.225 165.515 756.048 165.481 755.822 165.451C755.596 165.421 755.39 165.406 755.202 165.406C754.801 165.406 754.444 165.494 754.128 165.668C753.817 165.839 753.57 166.077 753.387 166.384C753.208 166.691 753.118 167.045 753.118 167.445V173H750.395Z" fill="black"/>
<rect x="713.5" y="152.5" width="47" height="32" stroke="black"/>
<path d="M572.561 309.192C571.551 309.192 570.682 308.987 569.953 308.578C569.229 308.165 568.67 307.581 568.278 306.827C567.886 306.068 567.69 305.171 567.69 304.136C567.69 303.126 567.886 302.239 568.278 301.477C568.67 300.714 569.222 300.119 569.934 299.693C570.65 299.267 571.489 299.054 572.452 299.054C573.1 299.054 573.703 299.158 574.261 299.367C574.824 299.572 575.314 299.881 575.732 300.294C576.153 300.707 576.482 301.227 576.716 301.854C576.95 302.476 577.067 303.205 577.067 304.04V304.788H568.777V303.1H574.504C574.504 302.708 574.419 302.361 574.249 302.058C574.078 301.756 573.842 301.519 573.539 301.349C573.241 301.174 572.893 301.087 572.497 301.087C572.084 301.087 571.717 301.183 571.398 301.374C571.082 301.562 570.835 301.815 570.656 302.135C570.477 302.45 570.386 302.802 570.381 303.19V304.794C570.381 305.28 570.471 305.7 570.65 306.053C570.833 306.407 571.091 306.68 571.423 306.871C571.756 307.063 572.15 307.159 572.606 307.159C572.908 307.159 573.185 307.116 573.437 307.031C573.688 306.946 573.903 306.818 574.082 306.648C574.261 306.477 574.398 306.268 574.491 306.021L577.01 306.188C576.882 306.793 576.62 307.321 576.224 307.773C575.832 308.22 575.325 308.57 574.702 308.821C574.085 309.068 573.371 309.192 572.561 309.192ZM580.944 299.182L582.747 302.614L584.594 299.182H587.387L584.543 304.091L587.464 309H584.684L582.747 305.606L580.842 309H578.029L580.944 304.091L578.132 299.182H580.944ZM589.005 312.682V299.182H591.689V300.831H591.811C591.93 300.567 592.103 300.298 592.328 300.026C592.559 299.749 592.857 299.518 593.223 299.335C593.594 299.148 594.054 299.054 594.604 299.054C595.32 299.054 595.98 299.241 596.586 299.616C597.191 299.987 597.674 300.548 598.037 301.298C598.399 302.043 598.58 302.979 598.58 304.104C598.58 305.199 598.403 306.124 598.049 306.878C597.7 307.628 597.223 308.197 596.618 308.585C596.017 308.968 595.343 309.16 594.598 309.16C594.069 309.16 593.62 309.072 593.249 308.898C592.882 308.723 592.582 308.504 592.348 308.239C592.113 307.971 591.934 307.7 591.811 307.428H591.728V312.682H589.005ZM591.67 304.091C591.67 304.675 591.751 305.184 591.913 305.619C592.075 306.053 592.309 306.392 592.616 306.635C592.923 306.874 593.296 306.993 593.735 306.993C594.178 306.993 594.553 306.871 594.86 306.629C595.167 306.381 595.399 306.04 595.556 305.606C595.718 305.167 595.799 304.662 595.799 304.091C595.799 303.524 595.721 303.026 595.563 302.595C595.405 302.165 595.173 301.828 594.866 301.585C594.559 301.342 594.182 301.221 593.735 301.221C593.292 301.221 592.917 301.338 592.61 301.572C592.307 301.807 592.075 302.139 591.913 302.57C591.751 303 591.67 303.507 591.67 304.091ZM600.395 309V299.182H603.035V300.895H603.137C603.316 300.286 603.617 299.825 604.039 299.514C604.461 299.199 604.946 299.041 605.496 299.041C605.632 299.041 605.779 299.05 605.937 299.067C606.095 299.084 606.233 299.107 606.353 299.137V301.553C606.225 301.515 606.048 301.481 605.822 301.451C605.596 301.421 605.39 301.406 605.202 301.406C604.801 301.406 604.444 301.494 604.128 301.668C603.817 301.839 603.57 302.077 603.387 302.384C603.208 302.691 603.118 303.045 603.118 303.445V309H600.395Z" fill="black"/>
<rect x="563.5" y="288.5" width="47" height="32" stroke="black"/>
<path d="M713 170L703 164.226V175.774L713 170ZM689 171H704V169H689V171Z" fill="black"/>
<path d="M677.085 312L673.339 298.909H676.362L678.529 308.005H678.638L681.028 298.909H683.617L686.001 308.024H686.116L688.283 298.909H691.307L687.561 312H684.864L682.371 303.441H682.268L679.782 312H677.085ZM692.788 312V298.909H695.556V304.31H701.175V298.909H703.936V312H701.175V306.592H695.556V312H692.788ZM706.218 312V298.909H715.039V301.191H708.986V304.31H714.585V306.592H708.986V309.718H715.064V312H706.218ZM717.239 312V298.909H722.404C723.393 298.909 724.237 299.086 724.935 299.44C725.638 299.789 726.173 300.286 726.54 300.929C726.911 301.568 727.096 302.32 727.096 303.185C727.096 304.055 726.908 304.803 726.533 305.429C726.158 306.051 725.615 306.528 724.903 306.861C724.196 307.193 723.339 307.359 722.334 307.359H718.876V305.135H721.886C722.415 305.135 722.854 305.062 723.203 304.918C723.553 304.773 723.813 304.555 723.983 304.266C724.158 303.976 724.245 303.616 724.245 303.185C724.245 302.751 724.158 302.384 723.983 302.086C723.813 301.788 723.55 301.562 723.197 301.408C722.847 301.251 722.406 301.172 721.874 301.172H720.007V312H717.239ZM724.309 306.043L727.562 312H724.507L721.324 306.043H724.309ZM729.052 312V298.909H737.873V301.191H731.82V304.31H737.419V306.592H731.82V309.718H737.898V312H729.052Z" fill="black"/>
<rect x="660.5" y="288.5" width="92" height="32" rx="16" stroke="black"/>
<path d="M786.561 309.192C785.551 309.192 784.682 308.987 783.953 308.578C783.229 308.165 782.67 307.581 782.278 306.827C781.886 306.068 781.69 305.171 781.69 304.136C781.69 303.126 781.886 302.239 782.278 301.477C782.67 300.714 783.222 300.119 783.934 299.693C784.65 299.267 785.489 299.054 786.452 299.054C787.1 299.054 787.703 299.158 788.261 299.367C788.824 299.572 789.314 299.881 789.732 300.294C790.153 300.707 790.482 301.227 790.716 301.854C790.95 302.476 791.067 303.205 791.067 304.04V304.788H782.777V303.1H788.504C788.504 302.708 788.419 302.361 788.249 302.058C788.078 301.756 787.842 301.519 787.539 301.349C787.241 301.174 786.893 301.087 786.497 301.087C786.084 301.087 785.717 301.183 785.398 301.374C785.082 301.562 784.835 301.815 784.656 302.135C784.477 302.45 784.386 302.802 784.381 303.19V304.794C784.381 305.28 784.471 305.7 784.65 306.053C784.833 306.407 785.091 306.68 785.423 306.871C785.756 307.063 786.15 307.159 786.606 307.159C786.908 307.159 787.185 307.116 787.437 307.031C787.688 306.946 787.903 306.818 788.082 306.648C788.261 306.477 788.398 306.268 788.491 306.021L791.01 306.188C790.882 306.793 790.62 307.321 790.224 307.773C789.832 308.22 789.325 308.57 788.702 308.821C788.085 309.068 787.371 309.192 786.561 309.192ZM794.944 299.182L796.747 302.614L798.594 299.182H801.387L798.543 304.091L801.464 309H798.684L796.747 305.606L794.842 309H792.029L794.944 304.091L792.132 299.182H794.944ZM803.005 312.682V299.182H805.689V300.831H805.811C805.93 300.567 806.103 300.298 806.328 300.026C806.559 299.749 806.857 299.518 807.223 299.335C807.594 299.148 808.054 299.054 808.604 299.054C809.32 299.054 809.98 299.241 810.586 299.616C811.191 299.987 811.674 300.548 812.037 301.298C812.399 302.043 812.58 302.979 812.58 304.104C812.58 305.199 812.403 306.124 812.049 306.878C811.7 307.628 811.223 308.197 810.618 308.585C810.017 308.968 809.343 309.16 808.598 309.16C808.069 309.16 807.62 309.072 807.249 308.898C806.882 308.723 806.582 308.504 806.348 308.239C806.113 307.971 805.934 307.7 805.811 307.428H805.728V312.682H803.005ZM805.67 304.091C805.67 304.675 805.751 305.184 805.913 305.619C806.075 306.053 806.309 306.392 806.616 306.635C806.923 306.874 807.296 306.993 807.735 306.993C808.178 306.993 808.553 306.871 808.86 306.629C809.167 306.381 809.399 306.04 809.556 305.606C809.718 305.167 809.799 304.662 809.799 304.091C809.799 303.524 809.721 303.026 809.563 302.595C809.405 302.165 809.173 301.828 808.866 301.585C808.559 301.342 808.182 301.221 807.735 301.221C807.292 301.221 806.917 301.338 806.61 301.572C806.307 301.807 806.075 302.139 805.913 302.57C805.751 303 805.67 303.507 805.67 304.091ZM814.395 309V299.182H817.035V300.895H817.137C817.316 300.286 817.617 299.825 818.039 299.514C818.461 299.199 818.946 299.041 819.496 299.041C819.632 299.041 819.779 299.05 819.937 299.067C820.095 299.084 820.233 299.107 820.353 299.137V301.553C820.225 301.515 820.048 301.481 819.822 301.451C819.596 301.421 819.39 301.406 819.202 301.406C818.801 301.406 818.444 301.494 818.128 301.668C817.817 301.839 817.57 302.077 817.387 302.384C817.208 302.691 817.118 303.045 817.118 303.445V309H814.395Z" fill="black"/>
<rect x="777.5" y="288.5" width="47" height="32" stroke="black"/>
<path d="M777 306L767 300.226V311.774L777 306ZM753 307H768V305H753V307Z" fill="black"/>
<path d="M1011 254L1001 248.226V259.774L1011 254ZM825 307H851V305H825V307ZM862 296V264H860V296H862ZM871 255L1002 255V253L871 253V255ZM862 264C862 259.029 866.029 255 871 255V253C864.925 253 860 257.925 860 264H862ZM851 307C857.075 307 862 302.075 862 296H860C860 300.971 855.971 305 851 305V307Z" fill="black"/>
<path d="M660 306L650 300.226V311.774L660 306ZM611 307H651V305H611V307Z" fill="black"/>
<path d="M1011 254L1001 248.226V259.774L1011 254ZM611 307H625.5V305H611V307ZM636.5 296V264H634.5V296H636.5ZM645.5 255L1002 255V253L645.5 253V255ZM636.5 264C636.5 259.029 640.529 255 645.5 255V253C639.425 253 634.5 257.925 634.5 264H636.5ZM625.5 307C631.575 307 636.5 302.075 636.5 296H634.5C634.5 300.971 630.471 305 625.5 305V307Z" fill="black"/>
<path d="M391.5 422L401.5 427.774L401.5 416.226L391.5 422ZM611 307H619.5V305H611V307ZM628.5 316V412H630.5V316H628.5ZM619.5 421L400.5 421V423L619.5 423V421ZM628.5 412C628.5 416.971 624.471 421 619.5 421V423C625.575 423 630.5 418.075 630.5 412H628.5ZM619.5 307C624.471 307 628.5 311.029 628.5 316H630.5C630.5 309.925 625.575 305 619.5 305V307Z" fill="black"/>
<path d="M563 306L553 300.226V311.774L563 306ZM545 307H554V305H545V307Z" fill="black"/>
<path d="M430.046 173.71L429.976 174.413C429.92 174.976 429.814 175.536 429.656 176.094C429.503 176.657 429.341 177.166 429.17 177.622C429.004 178.078 428.87 178.436 428.768 178.696H427.004C427.067 178.445 427.155 178.093 427.266 177.641C427.376 177.194 427.481 176.691 427.579 176.133C427.677 175.575 427.739 175.006 427.764 174.426L427.796 173.71H430.046Z" fill="black"/>
<circle cx="17.5" cy="17.5" r="17" transform="matrix(1 0 0 -1 411 187.5)" stroke="black"/>
<path d="M374.046 424.21L373.976 424.913C373.92 425.476 373.814 426.036 373.656 426.594C373.503 427.157 373.341 427.666 373.17 428.122C373.004 428.578 372.87 428.936 372.768 429.196H371.004C371.067 428.945 371.155 428.593 371.266 428.141C371.376 427.694 371.481 427.191 371.579 426.633C371.677 426.075 371.739 425.506 371.764 424.926L371.796 424.21H374.046Z" fill="black"/>
<circle cx="17.5" cy="17.5" r="17" transform="matrix(1 0 0 -1 355 437)" stroke="black"/>
<path d="M523.7 303.774V301.505H532.528V303.774H523.7ZM523.7 308.018V305.749H532.528V308.018H523.7Z" fill="black"/>
<circle cx="17.5" cy="17.5" r="17" transform="matrix(1 0 0 -1 511 323)" stroke="black"/>
<path d="M334 170.5L334 171.5L334 170.5ZM324 160.5L323 160.5L324 160.5ZM324 123L325 123L324 123ZM334 113L334 112L334 113ZM347 113L337 107.226L337 118.774L347 113ZM411 169.5L334 169.5L334 171.5L411 171.5L411 169.5ZM325 160.5L325 123L323 123L323 160.5L325 160.5ZM334 114L338 114L338 112L334 112L334 114ZM325 123C325 118.029 329.029 114 334 114L334 112C327.925 112 323 116.925 323 123L325 123ZM334 169.5C329.029 169.5 325 165.471 325 160.5L323 160.5C323 166.575 327.925 171.5 334 171.5L334 169.5Z" fill="black"/>
<path d="M446.5 170L456.5 175.774V164.226L446.5 170ZM502 114H506V112H502V114ZM515 123V160H517V123H515ZM506 169H455.5V171H506V169ZM515 160C515 164.971 510.971 169 506 169V171C512.075 171 517 166.075 517 160H515ZM506 114C510.971 114 515 118.029 515 123H517C517 116.925 512.075 112 506 112V114Z" fill="black"/>
<circle cx="300.5" cy="112.5" r="16" stroke="black"/>
<path d="M297.688 112.752C297.688 111.167 297.898 109.707 298.32 108.374C298.746 107.04 299.396 105.804 300.27 104.666H302.871C302.539 105.088 302.23 105.604 301.945 106.213C301.659 106.818 301.41 107.483 301.197 108.207C300.984 108.932 300.817 109.682 300.698 110.457C300.579 111.229 300.519 111.994 300.519 112.752C300.519 113.762 300.621 114.783 300.826 115.814C301.035 116.841 301.316 117.795 301.67 118.678C302.028 119.56 302.428 120.282 302.871 120.844H300.27C299.396 119.707 298.746 118.471 298.32 117.137C297.898 115.803 297.688 114.342 297.688 112.752Z" fill="black"/>
<circle cx="554" cy="112.5" r="16" stroke="black"/>
<path d="M557.176 112.752C557.176 114.342 556.963 115.803 556.537 117.137C556.115 118.471 555.467 119.707 554.594 120.844H551.992C552.325 120.423 552.634 119.907 552.919 119.298C553.205 118.688 553.454 118.023 553.667 117.303C553.88 116.579 554.046 115.829 554.165 115.053C554.285 114.278 554.344 113.511 554.344 112.752C554.344 111.742 554.24 110.724 554.031 109.697C553.827 108.665 553.545 107.711 553.188 106.833C552.834 105.951 552.435 105.229 551.992 104.666H554.594C555.467 105.804 556.115 107.04 556.537 108.374C556.963 109.707 557.176 111.167 557.176 112.752Z" fill="black"/>
<path d="M351.087 118V108.182H353.81V118H351.087ZM352.455 106.916C352.05 106.916 351.702 106.782 351.413 106.513C351.127 106.241 350.984 105.915 350.984 105.536C350.984 105.161 351.127 104.839 351.413 104.57C351.702 104.298 352.05 104.161 352.455 104.161C352.859 104.161 353.205 104.298 353.49 104.57C353.78 104.839 353.925 105.161 353.925 105.536C353.925 105.915 353.78 106.241 353.49 106.513C353.205 106.782 352.859 106.916 352.455 106.916ZM358.714 112.324V118H355.991V108.182H358.586V109.914H358.701C358.919 109.343 359.283 108.891 359.794 108.559C360.306 108.222 360.926 108.054 361.654 108.054C362.336 108.054 362.931 108.203 363.438 108.501C363.945 108.8 364.339 109.226 364.62 109.78C364.901 110.33 365.042 110.986 365.042 111.749V118H362.319V112.234C362.323 111.634 362.17 111.165 361.859 110.828C361.548 110.487 361.119 110.317 360.574 110.317C360.208 110.317 359.884 110.396 359.602 110.553C359.325 110.711 359.108 110.941 358.95 111.244C358.797 111.542 358.718 111.902 358.714 112.324ZM370.806 118.16C370.06 118.16 369.385 117.968 368.78 117.585C368.179 117.197 367.702 116.628 367.348 115.878C366.999 115.124 366.824 114.199 366.824 113.104C366.824 111.979 367.005 111.043 367.367 110.298C367.729 109.548 368.211 108.987 368.812 108.616C369.417 108.241 370.08 108.054 370.8 108.054C371.349 108.054 371.808 108.148 372.174 108.335C372.545 108.518 372.843 108.749 373.069 109.026C373.299 109.298 373.474 109.567 373.593 109.831H373.676V104.909H376.393V118H373.708V116.428H373.593C373.465 116.7 373.284 116.971 373.05 117.239C372.82 117.504 372.519 117.723 372.148 117.898C371.782 118.072 371.335 118.16 370.806 118.16ZM371.669 115.993C372.108 115.993 372.479 115.874 372.781 115.635C373.088 115.392 373.322 115.053 373.484 114.619C373.651 114.184 373.734 113.675 373.734 113.091C373.734 112.507 373.653 112 373.491 111.57C373.329 111.139 373.094 110.807 372.788 110.572C372.481 110.338 372.108 110.221 371.669 110.221C371.222 110.221 370.844 110.342 370.538 110.585C370.231 110.828 369.999 111.165 369.841 111.595C369.683 112.026 369.604 112.524 369.604 113.091C369.604 113.662 369.683 114.167 369.841 114.606C370.003 115.04 370.235 115.381 370.538 115.629C370.844 115.871 371.222 115.993 371.669 115.993ZM383.106 118.192C382.096 118.192 381.227 117.987 380.498 117.578C379.774 117.165 379.215 116.581 378.823 115.827C378.431 115.068 378.235 114.171 378.235 113.136C378.235 112.126 378.431 111.239 378.823 110.477C379.215 109.714 379.767 109.119 380.479 108.693C381.195 108.267 382.034 108.054 382.997 108.054C383.645 108.054 384.248 108.158 384.806 108.367C385.369 108.572 385.859 108.881 386.276 109.294C386.698 109.707 387.026 110.227 387.261 110.854C387.495 111.476 387.612 112.205 387.612 113.04V113.788H379.322V112.1H385.049C385.049 111.708 384.964 111.361 384.794 111.058C384.623 110.756 384.387 110.519 384.084 110.349C383.786 110.174 383.438 110.087 383.042 110.087C382.629 110.087 382.262 110.183 381.943 110.374C381.627 110.562 381.38 110.815 381.201 111.135C381.022 111.45 380.931 111.802 380.926 112.19V113.794C380.926 114.28 381.016 114.7 381.195 115.053C381.378 115.407 381.636 115.68 381.968 115.871C382.301 116.063 382.695 116.159 383.151 116.159C383.453 116.159 383.73 116.116 383.982 116.031C384.233 115.946 384.448 115.818 384.627 115.648C384.806 115.477 384.943 115.268 385.036 115.021L387.555 115.188C387.427 115.793 387.165 116.321 386.769 116.773C386.377 117.22 385.869 117.57 385.247 117.821C384.629 118.068 383.916 118.192 383.106 118.192ZM391.489 108.182L393.292 111.614L395.139 108.182H397.932L395.088 113.091L398.009 118H395.229L393.292 114.606L391.387 118H388.574L391.489 113.091L388.677 108.182H391.489ZM403.672 118.192C402.662 118.192 401.793 117.987 401.064 117.578C400.34 117.165 399.782 116.581 399.39 115.827C398.998 115.068 398.802 114.171 398.802 113.136C398.802 112.126 398.998 111.239 399.39 110.477C399.782 109.714 400.334 109.119 401.045 108.693C401.761 108.267 402.601 108.054 403.564 108.054C404.211 108.054 404.814 108.158 405.373 108.367C405.935 108.572 406.425 108.881 406.843 109.294C407.265 109.707 407.593 110.227 407.827 110.854C408.062 111.476 408.179 112.205 408.179 113.04V113.788H399.888V112.1H405.616C405.616 111.708 405.53 111.361 405.36 111.058C405.189 110.756 404.953 110.519 404.65 110.349C404.352 110.174 404.005 110.087 403.608 110.087C403.195 110.087 402.829 110.183 402.509 110.374C402.194 110.562 401.947 110.815 401.768 111.135C401.589 111.45 401.497 111.802 401.493 112.19V113.794C401.493 114.28 401.582 114.7 401.761 115.053C401.944 115.407 402.202 115.68 402.535 115.871C402.867 116.063 403.261 116.159 403.717 116.159C404.02 116.159 404.297 116.116 404.548 116.031C404.8 115.946 405.015 115.818 405.194 115.648C405.373 115.477 405.509 115.268 405.603 115.021L408.121 115.188C407.993 115.793 407.731 116.321 407.335 116.773C406.943 117.22 406.436 117.57 405.814 117.821C405.196 118.068 404.482 118.192 403.672 118.192ZM413.574 118.16C412.828 118.16 412.153 117.968 411.547 117.585C410.947 117.197 410.469 116.628 410.116 115.878C409.766 115.124 409.591 114.199 409.591 113.104C409.591 111.979 409.773 111.043 410.135 110.298C410.497 109.548 410.979 108.987 411.579 108.616C412.184 108.241 412.847 108.054 413.567 108.054C414.117 108.054 414.575 108.148 414.942 108.335C415.312 108.518 415.611 108.749 415.836 109.026C416.067 109.298 416.241 109.567 416.361 109.831H416.444V104.909H419.16V118H416.476V116.428H416.361C416.233 116.7 416.052 116.971 415.817 117.239C415.587 117.504 415.287 117.723 414.916 117.898C414.55 118.072 414.102 118.16 413.574 118.16ZM414.437 115.993C414.876 115.993 415.246 115.874 415.549 115.635C415.856 115.392 416.09 115.053 416.252 114.619C416.418 114.184 416.501 113.675 416.501 113.091C416.501 112.507 416.42 112 416.258 111.57C416.096 111.139 415.862 110.807 415.555 110.572C415.248 110.338 414.876 110.221 414.437 110.221C413.989 110.221 413.612 110.342 413.305 110.585C412.998 110.828 412.766 111.165 412.608 111.595C412.451 112.026 412.372 112.524 412.372 113.091C412.372 113.662 412.451 114.167 412.608 114.606C412.77 115.04 413.003 115.381 413.305 115.629C413.612 115.871 413.989 115.993 414.437 115.993ZM427.516 111.544V113.705H421.546V111.544H427.516ZM434.273 118.192C433.267 118.192 432.402 117.979 431.678 117.553C430.957 117.122 430.403 116.526 430.016 115.763C429.632 115 429.44 114.122 429.44 113.129C429.44 112.124 429.634 111.241 430.022 110.483C430.414 109.72 430.97 109.126 431.69 108.7C432.411 108.269 433.267 108.054 434.26 108.054C435.116 108.054 435.866 108.21 436.51 108.521C437.153 108.832 437.663 109.268 438.038 109.831C438.413 110.393 438.619 111.054 438.658 111.812H436.088C436.016 111.322 435.824 110.928 435.513 110.63C435.206 110.327 434.803 110.176 434.305 110.176C433.883 110.176 433.514 110.291 433.199 110.521C432.888 110.747 432.645 111.077 432.47 111.512C432.295 111.947 432.208 112.473 432.208 113.091C432.208 113.717 432.293 114.25 432.464 114.689C432.638 115.128 432.884 115.462 433.199 115.692C433.514 115.923 433.883 116.038 434.305 116.038C434.616 116.038 434.895 115.974 435.142 115.846C435.393 115.718 435.6 115.533 435.762 115.29C435.928 115.043 436.037 114.746 436.088 114.401H438.658C438.615 115.151 438.411 115.812 438.044 116.383C437.682 116.95 437.181 117.393 436.542 117.712C435.903 118.032 435.146 118.192 434.273 118.192ZM444.837 118.192C443.844 118.192 442.986 117.981 442.261 117.559C441.541 117.133 440.985 116.54 440.593 115.782C440.201 115.019 440.005 114.135 440.005 113.129C440.005 112.115 440.201 111.229 440.593 110.47C440.985 109.707 441.541 109.115 442.261 108.693C442.986 108.267 443.844 108.054 444.837 108.054C445.83 108.054 446.687 108.267 447.407 108.693C448.131 109.115 448.689 109.707 449.081 110.47C449.474 111.229 449.67 112.115 449.67 113.129C449.67 114.135 449.474 115.019 449.081 115.782C448.689 116.54 448.131 117.133 447.407 117.559C446.687 117.981 445.83 118.192 444.837 118.192ZM444.85 116.082C445.302 116.082 445.679 115.955 445.981 115.699C446.284 115.439 446.512 115.085 446.665 114.638C446.823 114.19 446.902 113.681 446.902 113.11C446.902 112.539 446.823 112.03 446.665 111.582C446.512 111.135 446.284 110.781 445.981 110.521C445.679 110.261 445.302 110.131 444.85 110.131C444.394 110.131 444.01 110.261 443.699 110.521C443.393 110.781 443.16 111.135 443.003 111.582C442.849 112.03 442.773 112.539 442.773 113.11C442.773 113.681 442.849 114.19 443.003 114.638C443.16 115.085 443.393 115.439 443.699 115.699C444.01 115.955 444.394 116.082 444.85 116.082ZM454.163 104.909V118H451.44V104.909H454.163ZM462.641 113.82V108.182H465.364V118H462.749V116.217H462.647C462.425 116.792 462.057 117.254 461.541 117.604C461.03 117.953 460.406 118.128 459.668 118.128C459.012 118.128 458.435 117.979 457.936 117.68C457.438 117.382 457.048 116.958 456.766 116.408C456.489 115.859 456.349 115.2 456.344 114.433V108.182H459.067V113.947C459.072 114.527 459.227 114.985 459.534 115.322C459.841 115.658 460.252 115.827 460.768 115.827C461.096 115.827 461.403 115.752 461.688 115.603C461.974 115.45 462.204 115.224 462.379 114.925C462.558 114.627 462.645 114.259 462.641 113.82ZM467.542 118V108.182H470.137V109.914H470.252C470.456 109.339 470.797 108.885 471.275 108.553C471.752 108.22 472.323 108.054 472.988 108.054C473.661 108.054 474.234 108.222 474.707 108.559C475.18 108.891 475.496 109.343 475.653 109.914H475.756C475.956 109.352 476.318 108.902 476.842 108.565C477.371 108.224 477.995 108.054 478.715 108.054C479.631 108.054 480.375 108.346 480.946 108.93C481.521 109.509 481.809 110.332 481.809 111.397V118H479.092V111.934C479.092 111.388 478.947 110.979 478.657 110.707C478.368 110.434 478.006 110.298 477.571 110.298C477.077 110.298 476.691 110.455 476.414 110.771C476.137 111.082 475.998 111.493 475.998 112.004V118H473.358V111.876C473.358 111.395 473.22 111.011 472.943 110.726C472.67 110.44 472.31 110.298 471.863 110.298C471.56 110.298 471.287 110.374 471.045 110.528C470.806 110.677 470.616 110.888 470.476 111.161C470.335 111.429 470.265 111.744 470.265 112.107V118H467.542ZM486.683 112.324V118H483.96V108.182H486.555V109.914H486.67C486.887 109.343 487.252 108.891 487.763 108.559C488.274 108.222 488.894 108.054 489.623 108.054C490.305 108.054 490.899 108.203 491.406 108.501C491.914 108.8 492.308 109.226 492.589 109.78C492.87 110.33 493.011 110.986 493.011 111.749V118H490.288V112.234C490.292 111.634 490.139 111.165 489.828 110.828C489.517 110.487 489.088 110.317 488.543 110.317C488.176 110.317 487.852 110.396 487.571 110.553C487.294 110.711 487.077 110.941 486.919 111.244C486.766 111.542 486.687 111.902 486.683 112.324Z" fill="black"/>
<rect x="347.5" y="96.5" width="152" height="32" stroke="black"/>
<path d="M347 113L337 107.226V118.774L347 113ZM317 114H338V112H317V114Z" fill="black"/>
<path d="M284 113L274 107.226V118.774L284 113ZM266 114L275 114V112L266 112V114ZM237 40.5H246V38.5H237V40.5ZM255 49.5V103H257V49.5L255 49.5ZM246 40.5C250.971 40.5 255 44.5294 255 49.5L257 49.5C257 43.4249 252.075 38.5 246 38.5V40.5ZM266 112C261.029 112 257 107.971 257 103H255C255 109.075 259.925 114 266 114V112Z" fill="black"/>
<path d="M596 170L586 164.226V175.774L596 170ZM570 112H570.511V110H570V112ZM579.511 121V160H581.511V121H579.511ZM570.511 112C575.481 112 579.511 116.029 579.511 121H581.511C581.511 114.925 576.586 110 570.511 110V112ZM590.511 169C585.54 169 581.511 164.971 581.511 160H579.511C579.511 166.075 584.436 171 590.511 171V169Z" fill="black"/>
<path d="M814 40L804 45.7735V34.2265L814 40ZM792.426 39H805V41H792.426V39ZM761 169H772.426V171H761V169ZM781.426 160V50H783.426V160H781.426ZM772.426 169C777.396 169 781.426 164.971 781.426 160H783.426C783.426 166.075 778.501 171 772.426 171V169ZM792.426 41C787.455 41 783.426 45.0294 783.426 50H781.426C781.426 43.9249 786.35 39 792.426 39V41Z" fill="black"/>
<path d="M814 40L804 45.7735V34.2265L814 40ZM792.426 39H805V41H792.426V39ZM569.5 110L772.426 110V112L569.5 112V110ZM781.426 101V50H783.426V101H781.426ZM772.426 110C777.396 110 781.426 105.971 781.426 101H783.426C783.426 107.075 778.501 112 772.426 112V110ZM792.426 41C787.455 41 783.426 45.0294 783.426 50H781.426C781.426 43.9249 786.35 39 792.426 39V41Z" fill="black"/>
<path d="M537 113L527 107.226L527 118.774L537 113ZM499 114L528 114L528 112L499 112L499 114Z" fill="black"/>
</svg>
